<svg xmlns="http://www.w3.org/2000/svg" xmlns:xlink="http://www.w3.org/1999/xlink" width="1875" height="400" viewBox="0 0 7500 1600">
<defs>
  <clipPath id="clip940">
    <rect x="0" y="0" width="7500" height="1600"></rect>
  </clipPath>
</defs>
<path clip-path="url(#clip940)" d="M0 1600 L7500 1600 L7500 0 L0 0  Z" fill="#ffffff" fill-rule="evenodd" fill-opacity="1"></path>
<defs>
  <clipPath id="clip941">
    <rect x="1500" y="0" width="5251" height="1600"></rect>
  </clipPath>
</defs>
<path clip-path="url(#clip940)" d="M47.2441 1552.76 L7452.76 1552.76 L7452.76 82.3457 L47.2441 82.3457  Z" fill="#ffffff" fill-rule="evenodd" fill-opacity="1"></path>
<defs>
  <clipPath id="clip942">
    <rect x="47" y="82" width="7407" height="1471"></rect>
  </clipPath>
</defs>
<path clip-path="url(#clip940)" d="M3542.41 12.096 L3550.59 12.096 L3550.59 36.8875 L3580.33 36.8875 L3580.33 12.096 L3588.51 12.096 L3588.51 72.576 L3580.33 72.576 L3580.33 43.7741 L3550.59 43.7741 L3550.59 72.576 L3542.41 72.576 L3542.41 12.096 Z" fill="#000000" fill-rule="nonzero" fill-opacity="1"></path><path clip-path="url(#clip940)" d="M3604.47 27.2059 L3611.92 27.2059 L3611.92 72.576 L3604.47 72.576 L3604.47 27.2059 M3604.47 9.54393 L3611.92 9.54393 L3611.92 18.9825 L3604.47 18.9825 L3604.47 9.54393 Z" fill="#000000" fill-rule="nonzero" fill-opacity="1"></path><path clip-path="url(#clip940)" d="M3656.44 28.5427 L3656.44 35.5912 Q3653.28 33.9709 3649.88 33.1607 Q3646.48 32.3505 3642.83 32.3505 Q3637.28 32.3505 3634.49 34.0519 Q3631.73 35.7533 3631.73 39.156 Q3631.73 41.7486 3633.72 43.2475 Q3635.7 44.7058 3641.7 46.0426 L3644.25 46.6097 Q3652.19 48.3111 3655.51 51.4303 Q3658.87 54.509 3658.87 60.0587 Q3658.87 66.3781 3653.85 70.0644 Q3648.87 73.7508 3640.12 73.7508 Q3636.47 73.7508 3632.5 73.0216 Q3628.57 72.3329 3624.2 70.9151 L3624.2 63.2184 Q3628.33 65.3654 3632.34 66.4591 Q3636.35 67.5124 3640.28 67.5124 Q3645.55 67.5124 3648.38 65.73 Q3651.22 63.9071 3651.22 60.6258 Q3651.22 57.5877 3649.15 55.9673 Q3647.13 54.3469 3640.2 52.8481 L3637.61 52.2405 Q3630.68 50.7821 3627.6 47.7845 Q3624.52 44.7463 3624.52 39.4801 Q3624.52 33.0797 3629.06 29.5959 Q3633.6 26.1121 3641.94 26.1121 Q3646.07 26.1121 3649.72 26.7198 Q3653.37 27.3274 3656.44 28.5427 Z" fill="#000000" fill-rule="nonzero" fill-opacity="1"></path><path clip-path="url(#clip940)" d="M3678.12 14.324 L3678.12 27.2059 L3693.47 27.2059 L3693.47 32.9987 L3678.12 32.9987 L3678.12 57.6282 Q3678.12 63.1779 3679.62 64.7578 Q3681.15 66.3376 3685.81 66.3376 L3693.47 66.3376 L3693.47 72.576 L3685.81 72.576 Q3677.18 72.576 3673.9 69.3758 Q3670.62 66.1351 3670.62 57.6282 L3670.62 32.9987 L3665.15 32.9987 L3665.15 27.2059 L3670.62 27.2059 L3670.62 14.324 L3678.12 14.324 Z" fill="#000000" fill-rule="nonzero" fill-opacity="1"></path><path clip-path="url(#clip940)" d="M3720.85 32.4315 Q3714.86 32.4315 3711.37 37.1306 Q3707.89 41.7891 3707.89 49.9314 Q3707.89 58.0738 3711.33 62.7728 Q3714.82 67.4314 3720.85 67.4314 Q3726.81 67.4314 3730.29 62.7323 Q3733.78 58.0333 3733.78 49.9314 Q3733.78 41.8701 3730.29 37.1711 Q3726.81 32.4315 3720.85 32.4315 M3720.85 26.1121 Q3730.58 26.1121 3736.13 32.4315 Q3741.68 38.7509 3741.68 49.9314 Q3741.68 61.0714 3736.13 67.4314 Q3730.58 73.7508 3720.85 73.7508 Q3711.09 73.7508 3705.54 67.4314 Q3700.03 61.0714 3700.03 49.9314 Q3700.03 38.7509 3705.54 32.4315 Q3711.09 26.1121 3720.85 26.1121 Z" fill="#000000" fill-rule="nonzero" fill-opacity="1"></path><path clip-path="url(#clip940)" d="M3783.89 49.3643 Q3783.89 41.2625 3780.52 36.8065 Q3777.2 32.3505 3771.17 32.3505 Q3765.17 32.3505 3761.81 36.8065 Q3758.49 41.2625 3758.49 49.3643 Q3758.49 57.4256 3761.81 61.8816 Q3765.17 66.3376 3771.17 66.3376 Q3777.2 66.3376 3780.52 61.8816 Q3783.89 57.4256 3783.89 49.3643 M3791.34 66.9452 Q3791.34 78.5308 3786.19 84.1616 Q3781.05 89.8329 3770.44 89.8329 Q3766.51 89.8329 3763.02 89.2252 Q3759.54 88.6581 3756.26 87.4428 L3756.26 80.1917 Q3759.54 81.9741 3762.74 82.8248 Q3765.94 83.6755 3769.26 83.6755 Q3776.59 83.6755 3780.24 79.8271 Q3783.89 76.0193 3783.89 68.282 L3783.89 64.5957 Q3781.58 68.6061 3777.97 70.5911 Q3774.37 72.576 3769.34 72.576 Q3761 72.576 3755.89 66.2161 Q3750.79 59.8562 3750.79 49.3643 Q3750.79 38.832 3755.89 32.472 Q3761 26.1121 3769.34 26.1121 Q3774.37 26.1121 3777.97 28.0971 Q3781.58 30.082 3783.89 34.0924 L3783.89 27.2059 L3791.34 27.2059 L3791.34 66.9452 Z" fill="#000000" fill-rule="nonzero" fill-opacity="1"></path><path clip-path="url(#clip940)" d="M3832.98 34.1734 Q3831.73 33.4443 3830.23 33.1202 Q3828.77 32.7556 3826.99 32.7556 Q3820.67 32.7556 3817.27 36.8875 Q3813.9 40.9789 3813.9 48.6757 L3813.9 72.576 L3806.41 72.576 L3806.41 27.2059 L3813.9 27.2059 L3813.9 34.2544 Q3816.25 30.1225 3820.02 28.1376 Q3823.79 26.1121 3829.17 26.1121 Q3829.94 26.1121 3830.88 26.2337 Q3831.81 26.3147 3832.94 26.5172 L3832.98 34.1734 Z" fill="#000000" fill-rule="nonzero" fill-opacity="1"></path><path clip-path="url(#clip940)" d="M3861.42 49.7694 Q3852.39 49.7694 3848.9 51.8354 Q3845.42 53.9013 3845.42 58.8839 Q3845.42 62.8538 3848.01 65.2034 Q3850.64 67.5124 3855.14 67.5124 Q3861.34 67.5124 3865.07 63.1374 Q3868.83 58.7219 3868.83 51.4303 L3868.83 49.7694 L3861.42 49.7694 M3876.29 46.6907 L3876.29 72.576 L3868.83 72.576 L3868.83 65.6895 Q3866.28 69.8214 3862.47 71.8063 Q3858.67 73.7508 3853.16 73.7508 Q3846.19 73.7508 3842.06 69.8619 Q3837.97 65.9325 3837.97 59.3701 Q3837.97 51.7138 3843.07 47.825 Q3848.21 43.9361 3858.38 43.9361 L3868.83 43.9361 L3868.83 43.2069 Q3868.83 38.0623 3865.43 35.2672 Q3862.07 32.4315 3855.95 32.4315 Q3852.06 32.4315 3848.38 33.3632 Q3844.69 34.295 3841.29 36.1584 L3841.29 29.2718 Q3845.38 27.692 3849.23 26.9223 Q3853.08 26.1121 3856.72 26.1121 Q3866.56 26.1121 3871.43 31.2163 Q3876.29 36.3204 3876.29 46.6907 Z" fill="#000000" fill-rule="nonzero" fill-opacity="1"></path><path clip-path="url(#clip940)" d="M3926.96 35.9153 Q3929.76 30.8922 3933.65 28.5022 Q3937.54 26.1121 3942.8 26.1121 Q3949.89 26.1121 3953.74 31.0947 Q3957.59 36.0368 3957.59 45.1919 L3957.59 72.576 L3950.09 72.576 L3950.09 45.4349 Q3950.09 38.913 3947.79 35.7533 Q3945.48 32.5936 3940.74 32.5936 Q3934.94 32.5936 3931.58 36.4419 Q3928.22 40.2903 3928.22 46.9338 L3928.22 72.576 L3920.73 72.576 L3920.73 45.4349 Q3920.73 38.8725 3918.42 35.7533 Q3916.11 32.5936 3911.29 32.5936 Q3905.57 32.5936 3902.21 36.4824 Q3898.85 40.3308 3898.85 46.9338 L3898.85 72.576 L3891.36 72.576 L3891.36 27.2059 L3898.85 27.2059 L3898.85 34.2544 Q3901.4 30.082 3904.97 28.0971 Q3908.53 26.1121 3913.43 26.1121 Q3918.38 26.1121 3921.82 28.6237 Q3925.3 31.1352 3926.96 35.9153 Z" fill="#000000" fill-rule="nonzero" fill-opacity="1"></path><path clip-path="url(#clip942)" d="M121.299 82.3457 L121.299 1552.76 L713.74 1552.76 L713.74 82.3457 L121.299 82.3457 L121.299 82.3457  Z" fill="#ff0000" fill-rule="evenodd" fill-opacity="1"></path>
<polyline clip-path="url(#clip942)" style="stroke:#add8e6; stroke-linecap:round; stroke-linejoin:round; stroke-width:4; stroke-opacity:1; fill:none" points="121.299,82.3457 121.299,1552.76 713.74,1552.76 713.74,82.3457 121.299,82.3457 "></polyline>
<path clip-path="url(#clip942)" d="M861.85 255.604 L861.85 1552.76 L1454.29 1552.76 L1454.29 255.604 L861.85 255.604 L861.85 255.604  Z" fill="#add8e6" fill-rule="evenodd" fill-opacity="1"></path>
<polyline clip-path="url(#clip942)" style="stroke:#add8e6; stroke-linecap:round; stroke-linejoin:round; stroke-width:4; stroke-opacity:1; fill:none" points="861.85,255.604 861.85,1552.76 1454.29,1552.76 1454.29,255.604 861.85,255.604 "></polyline>
<path clip-path="url(#clip942)" d="M1602.4 452.308 L1602.4 1552.76 L2194.84 1552.76 L2194.84 452.308 L1602.4 452.308 L1602.4 452.308  Z" fill="#ff0000" fill-rule="evenodd" fill-opacity="1"></path>
<polyline clip-path="url(#clip942)" style="stroke:#add8e6; stroke-linecap:round; stroke-linejoin:round; stroke-width:4; stroke-opacity:1; fill:none" points="1602.4,452.308 1602.4,1552.76 2194.84,1552.76 2194.84,452.308 1602.4,452.308 "></polyline>
<path clip-path="url(#clip942)" d="M2342.95 455.049 L2342.95 1552.76 L2935.39 1552.76 L2935.39 455.049 L2342.95 455.049 L2342.95 455.049  Z" fill="#add8e6" fill-rule="evenodd" fill-opacity="1"></path>
<polyline clip-path="url(#clip942)" style="stroke:#add8e6; stroke-linecap:round; stroke-linejoin:round; stroke-width:4; stroke-opacity:1; fill:none" points="2342.95,455.049 2342.95,1552.76 2935.39,1552.76 2935.39,455.049 2342.95,455.049 "></polyline>
<path clip-path="url(#clip942)" d="M3083.5 555.837 L3083.5 1552.76 L3675.94 1552.76 L3675.94 555.837 L3083.5 555.837 L3083.5 555.837  Z" fill="#ff0000" fill-rule="evenodd" fill-opacity="1"></path>
<polyline clip-path="url(#clip942)" style="stroke:#add8e6; stroke-linecap:round; stroke-linejoin:round; stroke-width:4; stroke-opacity:1; fill:none" points="3083.5,555.837 3083.5,1552.76 3675.94,1552.76 3675.94,555.837 3083.5,555.837 "></polyline>
<path clip-path="url(#clip942)" d="M3824.06 697.732 L3824.06 1552.76 L4416.5 1552.76 L4416.5 697.732 L3824.06 697.732 L3824.06 697.732  Z" fill="#add8e6" fill-rule="evenodd" fill-opacity="1"></path>
<polyline clip-path="url(#clip942)" style="stroke:#add8e6; stroke-linecap:round; stroke-linejoin:round; stroke-width:4; stroke-opacity:1; fill:none" points="3824.06,697.732 3824.06,1552.76 4416.5,1552.76 4416.5,697.732 3824.06,697.732 "></polyline>
<path clip-path="url(#clip942)" d="M4564.61 803.392 L4564.61 1552.76 L5157.05 1552.76 L5157.05 803.392 L4564.61 803.392 L4564.61 803.392  Z" fill="#ff0000" fill-rule="evenodd" fill-opacity="1"></path>
<polyline clip-path="url(#clip942)" style="stroke:#add8e6; stroke-linecap:round; stroke-linejoin:round; stroke-width:4; stroke-opacity:1; fill:none" points="4564.61,803.392 4564.61,1552.76 5157.05,1552.76 5157.05,803.392 4564.61,803.392 "></polyline>
<path clip-path="url(#clip942)" d="M5305.16 812.831 L5305.16 1552.76 L5897.6 1552.76 L5897.6 812.831 L5305.16 812.831 L5305.16 812.831  Z" fill="#ff0000" fill-rule="evenodd" fill-opacity="1"></path>
<polyline clip-path="url(#clip942)" style="stroke:#add8e6; stroke-linecap:round; stroke-linejoin:round; stroke-width:4; stroke-opacity:1; fill:none" points="5305.16,812.831 5305.16,1552.76 5897.6,1552.76 5897.6,812.831 5305.16,812.831 "></polyline>
<path clip-path="url(#clip942)" d="M6045.71 812.831 L6045.71 1552.76 L6638.15 1552.76 L6638.15 812.831 L6045.71 812.831 L6045.71 812.831  Z" fill="#add8e6" fill-rule="evenodd" fill-opacity="1"></path>
<polyline clip-path="url(#clip942)" style="stroke:#add8e6; stroke-linecap:round; stroke-linejoin:round; stroke-width:4; stroke-opacity:1; fill:none" points="6045.71,812.831 6045.71,1552.76 6638.15,1552.76 6638.15,812.831 6045.71,812.831 "></polyline>
<path clip-path="url(#clip942)" d="M6786.26 841.758 L6786.26 1552.76 L7378.7 1552.76 L7378.7 841.758 L6786.26 841.758 L6786.26 841.758  Z" fill="#ff0000" fill-rule="evenodd" fill-opacity="1"></path>
<polyline clip-path="url(#clip942)" style="stroke:#add8e6; stroke-linecap:round; stroke-linejoin:round; stroke-width:4; stroke-opacity:1; fill:none" points="6786.26,841.758 6786.26,1552.76 7378.7,1552.76 7378.7,841.758 6786.26,841.758 "></polyline>
<circle clip-path="url(#clip942)" style="fill:#add8e6; stroke:none; fill-opacity:0" cx="1158.07" cy="255.604" r="2"></circle>
<circle clip-path="url(#clip942)" style="fill:#ff0000; stroke:none; fill-opacity:0" cx="1898.62" cy="452.308" r="2"></circle>
<circle clip-path="url(#clip942)" style="fill:#add8e6; stroke:none; fill-opacity:0" cx="2639.17" cy="455.049" r="2"></circle>
<circle clip-path="url(#clip942)" style="fill:#ff0000; stroke:none; fill-opacity:0" cx="3379.72" cy="555.837" r="2"></circle>
<circle clip-path="url(#clip942)" style="fill:#add8e6; stroke:none; fill-opacity:0" cx="4120.28" cy="697.732" r="2"></circle>
<circle clip-path="url(#clip942)" style="fill:#ff0000; stroke:none; fill-opacity:0" cx="4860.83" cy="803.392" r="2"></circle>
<circle clip-path="url(#clip942)" style="fill:#ff0000; stroke:none; fill-opacity:0" cx="5601.38" cy="812.831" r="2"></circle>
<circle clip-path="url(#clip942)" style="fill:#add8e6; stroke:none; fill-opacity:0" cx="6341.93" cy="812.831" r="2"></circle>
<circle clip-path="url(#clip942)" style="fill:#ff0000; stroke:none; fill-opacity:0" cx="7082.48" cy="841.758" r="2"></circle>
<circle clip-path="url(#clip942)" style="fill:#e26f46; stroke:none; fill-opacity:1" cx="417.52" cy="1552.45" r="2"></circle>
<circle clip-path="url(#clip942)" style="fill:#e26f46; stroke:none; fill-opacity:1" cx="1158.07" cy="1552.45" r="2"></circle>
<circle clip-path="url(#clip942)" style="fill:#e26f46; stroke:none; fill-opacity:1" cx="1898.62" cy="1552.45" r="2"></circle>
<circle clip-path="url(#clip942)" style="fill:#e26f46; stroke:none; fill-opacity:1" cx="2639.17" cy="1552.45" r="2"></circle>
<circle clip-path="url(#clip942)" style="fill:#e26f46; stroke:none; fill-opacity:1" cx="3379.72" cy="1552.45" r="2"></circle>
<circle clip-path="url(#clip942)" style="fill:#e26f46; stroke:none; fill-opacity:1" cx="4120.28" cy="1552.45" r="2"></circle>
<circle clip-path="url(#clip942)" style="fill:#e26f46; stroke:none; fill-opacity:1" cx="4860.83" cy="1552.45" r="2"></circle>
<circle clip-path="url(#clip942)" style="fill:#e26f46; stroke:none; fill-opacity:1" cx="5601.38" cy="1552.45" r="2"></circle>
<circle clip-path="url(#clip942)" style="fill:#e26f46; stroke:none; fill-opacity:1" cx="6341.93" cy="1552.45" r="2"></circle>
<circle clip-path="url(#clip942)" style="fill:#e26f46; stroke:none; fill-opacity:1" cx="7082.48" cy="1552.45" r="2"></circle>
<path clip-path="url(#clip940)" d="M218.479 1519.29 L218.479 1602.26 L211.592 1602.26 L211.592 1519.29 L218.479 1519.29 Z" fill="#000000" fill-rule="nonzero" fill-opacity="1"></path><path clip-path="url(#clip940)" d="M255.382 1527.6 Q249.063 1527.6 245.863 1533.84 Q242.703 1540.04 242.703 1552.51 Q242.703 1564.95 245.863 1571.19 Q249.063 1577.38 255.382 1577.38 Q261.742 1577.38 264.902 1571.19 Q268.102 1564.95 268.102 1552.51 Q268.102 1540.04 264.902 1533.84 Q261.742 1527.6 255.382 1527.6 M255.382 1521.12 Q265.55 1521.12 270.897 1529.18 Q276.285 1537.2 276.285 1552.51 Q276.285 1567.78 270.897 1575.85 Q265.55 1583.87 255.382 1583.87 Q245.214 1583.87 239.827 1575.85 Q234.48 1567.78 234.48 1552.51 Q234.48 1537.2 239.827 1529.18 Q245.214 1521.12 255.382 1521.12 Z" fill="#000000" fill-rule="nonzero" fill-opacity="1"></path><path clip-path="url(#clip940)" d="M308.166 1527.6 Q301.846 1527.6 298.646 1533.84 Q295.486 1540.04 295.486 1552.51 Q295.486 1564.95 298.646 1571.19 Q301.846 1577.38 308.166 1577.38 Q314.525 1577.38 317.685 1571.19 Q320.885 1564.95 320.885 1552.51 Q320.885 1540.04 317.685 1533.84 Q314.525 1527.6 308.166 1527.6 M308.166 1521.12 Q318.333 1521.12 323.68 1529.18 Q329.068 1537.2 329.068 1552.51 Q329.068 1567.78 323.68 1575.85 Q318.333 1583.87 308.166 1583.87 Q297.998 1583.87 292.61 1575.85 Q287.263 1567.78 287.263 1552.51 Q287.263 1537.2 292.61 1529.18 Q297.998 1521.12 308.166 1521.12 Z" fill="#000000" fill-rule="nonzero" fill-opacity="1"></path><path clip-path="url(#clip940)" d="M360.949 1527.6 Q354.629 1527.6 351.429 1533.84 Q348.269 1540.04 348.269 1552.51 Q348.269 1564.95 351.429 1571.19 Q354.629 1577.38 360.949 1577.38 Q367.309 1577.38 370.468 1571.19 Q373.669 1564.95 373.669 1552.51 Q373.669 1540.04 370.468 1533.84 Q367.309 1527.6 360.949 1527.6 M360.949 1521.12 Q371.117 1521.12 376.464 1529.18 Q381.851 1537.2 381.851 1552.51 Q381.851 1567.78 376.464 1575.85 Q371.117 1583.87 360.949 1583.87 Q350.781 1583.87 345.393 1575.85 Q340.046 1567.78 340.046 1552.51 Q340.046 1537.2 345.393 1529.18 Q350.781 1521.12 360.949 1521.12 Z" fill="#000000" fill-rule="nonzero" fill-opacity="1"></path><path clip-path="url(#clip940)" d="M413.732 1527.6 Q407.413 1527.6 404.212 1533.84 Q401.053 1540.04 401.053 1552.51 Q401.053 1564.95 404.212 1571.19 Q407.413 1577.38 413.732 1577.38 Q420.092 1577.38 423.252 1571.19 Q426.452 1564.95 426.452 1552.51 Q426.452 1540.04 423.252 1533.84 Q420.092 1527.6 413.732 1527.6 M413.732 1521.12 Q423.9 1521.12 429.247 1529.18 Q434.635 1537.2 434.635 1552.51 Q434.635 1567.78 429.247 1575.85 Q423.9 1583.87 413.732 1583.87 Q403.564 1583.87 398.177 1575.85 Q392.829 1567.78 392.829 1552.51 Q392.829 1537.2 398.177 1529.18 Q403.564 1521.12 413.732 1521.12 Z" fill="#000000" fill-rule="nonzero" fill-opacity="1"></path><path clip-path="url(#clip940)" d="M466.515 1527.6 Q460.196 1527.6 456.996 1533.84 Q453.836 1540.04 453.836 1552.51 Q453.836 1564.95 456.996 1571.19 Q460.196 1577.38 466.515 1577.38 Q472.875 1577.38 476.035 1571.19 Q479.235 1564.95 479.235 1552.51 Q479.235 1540.04 476.035 1533.84 Q472.875 1527.6 466.515 1527.6 M466.515 1521.12 Q476.683 1521.12 482.03 1529.18 Q487.418 1537.2 487.418 1552.51 Q487.418 1567.78 482.03 1575.85 Q476.683 1583.87 466.515 1583.87 Q456.348 1583.87 450.96 1575.85 Q445.613 1567.78 445.613 1552.51 Q445.613 1537.2 450.96 1529.18 Q456.348 1521.12 466.515 1521.12 Z" fill="#000000" fill-rule="nonzero" fill-opacity="1"></path><path clip-path="url(#clip940)" d="M503.217 1575.8 L516.585 1575.8 L516.585 1529.67 L502.042 1532.58 L502.042 1525.13 L516.504 1522.21 L524.686 1522.21 L524.686 1575.8 L538.054 1575.8 L538.054 1582.69 L503.217 1582.69 L503.217 1575.8 Z" fill="#000000" fill-rule="nonzero" fill-opacity="1"></path><path clip-path="url(#clip940)" d="M556 1575.8 L569.368 1575.8 L569.368 1529.67 L554.825 1532.58 L554.825 1525.13 L569.287 1522.21 L577.47 1522.21 L577.47 1575.8 L590.838 1575.8 L590.838 1582.69 L556 1582.69 L556 1575.8 Z" fill="#000000" fill-rule="nonzero" fill-opacity="1"></path><path clip-path="url(#clip940)" d="M623.447 1556.68 L612.024 1593.63 L605.137 1593.63 L616.561 1556.68 L605.137 1519.74 L612.024 1519.74 L623.447 1556.68 Z" fill="#000000" fill-rule="nonzero" fill-opacity="1"></path><path clip-path="url(#clip940)" d="M959.03 1519.29 L959.03 1602.26 L952.143 1602.26 L952.143 1519.29 L959.03 1519.29 Z" fill="#000000" fill-rule="nonzero" fill-opacity="1"></path><path clip-path="url(#clip940)" d="M995.933 1527.6 Q989.614 1527.6 986.414 1533.84 Q983.254 1540.04 983.254 1552.51 Q983.254 1564.95 986.414 1571.19 Q989.614 1577.38 995.933 1577.38 Q1002.29 1577.38 1005.45 1571.19 Q1008.65 1564.95 1008.65 1552.51 Q1008.65 1540.04 1005.45 1533.84 Q1002.29 1527.6 995.933 1527.6 M995.933 1521.12 Q1006.1 1521.12 1011.45 1529.18 Q1016.84 1537.2 1016.84 1552.51 Q1016.84 1567.78 1011.45 1575.85 Q1006.1 1583.87 995.933 1583.87 Q985.766 1583.87 980.378 1575.85 Q975.031 1567.78 975.031 1552.51 Q975.031 1537.2 980.378 1529.18 Q985.766 1521.12 995.933 1521.12 Z" fill="#000000" fill-rule="nonzero" fill-opacity="1"></path><path clip-path="url(#clip940)" d="M1048.72 1527.6 Q1042.4 1527.6 1039.2 1533.84 Q1036.04 1540.04 1036.04 1552.51 Q1036.04 1564.95 1039.2 1571.19 Q1042.4 1577.38 1048.72 1577.38 Q1055.08 1577.38 1058.24 1571.19 Q1061.44 1564.95 1061.44 1552.51 Q1061.44 1540.04 1058.24 1533.84 Q1055.08 1527.6 1048.72 1527.6 M1048.72 1521.12 Q1058.88 1521.12 1064.23 1529.18 Q1069.62 1537.2 1069.62 1552.51 Q1069.62 1567.78 1064.23 1575.85 Q1058.88 1583.87 1048.72 1583.87 Q1038.55 1583.87 1033.16 1575.85 Q1027.81 1567.78 1027.81 1552.51 Q1027.81 1537.2 1033.16 1529.18 Q1038.55 1521.12 1048.72 1521.12 Z" fill="#000000" fill-rule="nonzero" fill-opacity="1"></path><path clip-path="url(#clip940)" d="M1101.5 1527.6 Q1095.18 1527.6 1091.98 1533.84 Q1088.82 1540.04 1088.82 1552.51 Q1088.82 1564.95 1091.98 1571.19 Q1095.18 1577.38 1101.5 1577.38 Q1107.86 1577.38 1111.02 1571.19 Q1114.22 1564.95 1114.22 1552.51 Q1114.22 1540.04 1111.02 1533.84 Q1107.86 1527.6 1101.5 1527.6 M1101.5 1521.12 Q1111.67 1521.12 1117.01 1529.18 Q1122.4 1537.2 1122.4 1552.51 Q1122.4 1567.78 1117.01 1575.85 Q1111.67 1583.87 1101.5 1583.87 Q1091.33 1583.87 1085.94 1575.85 Q1080.6 1567.78 1080.6 1552.51 Q1080.6 1537.2 1085.94 1529.18 Q1091.33 1521.12 1101.5 1521.12 Z" fill="#000000" fill-rule="nonzero" fill-opacity="1"></path><path clip-path="url(#clip940)" d="M1154.28 1527.6 Q1147.96 1527.6 1144.76 1533.84 Q1141.6 1540.04 1141.6 1552.51 Q1141.6 1564.95 1144.76 1571.19 Q1147.96 1577.38 1154.28 1577.38 Q1160.64 1577.38 1163.8 1571.19 Q1167 1564.95 1167 1552.51 Q1167 1540.04 1163.8 1533.84 Q1160.64 1527.6 1154.28 1527.6 M1154.28 1521.12 Q1164.45 1521.12 1169.8 1529.18 Q1175.19 1537.2 1175.19 1552.51 Q1175.19 1567.78 1169.8 1575.85 Q1164.45 1583.87 1154.28 1583.87 Q1144.12 1583.87 1138.73 1575.85 Q1133.38 1567.78 1133.38 1552.51 Q1133.38 1537.2 1138.73 1529.18 Q1144.12 1521.12 1154.28 1521.12 Z" fill="#000000" fill-rule="nonzero" fill-opacity="1"></path><path clip-path="url(#clip940)" d="M1207.07 1527.6 Q1200.75 1527.6 1197.55 1533.84 Q1194.39 1540.04 1194.39 1552.51 Q1194.39 1564.95 1197.55 1571.19 Q1200.75 1577.38 1207.07 1577.38 Q1213.43 1577.38 1216.59 1571.19 Q1219.79 1564.95 1219.79 1552.51 Q1219.79 1540.04 1216.59 1533.84 Q1213.43 1527.6 1207.07 1527.6 M1207.07 1521.12 Q1217.23 1521.12 1222.58 1529.18 Q1227.97 1537.2 1227.97 1552.51 Q1227.97 1567.78 1222.58 1575.85 Q1217.23 1583.87 1207.07 1583.87 Q1196.9 1583.87 1191.51 1575.85 Q1186.16 1567.78 1186.16 1552.51 Q1186.16 1537.2 1191.51 1529.18 Q1196.9 1521.12 1207.07 1521.12 Z" fill="#000000" fill-rule="nonzero" fill-opacity="1"></path><path clip-path="url(#clip940)" d="M1259.85 1527.6 Q1253.53 1527.6 1250.33 1533.84 Q1247.17 1540.04 1247.17 1552.51 Q1247.17 1564.95 1250.33 1571.19 Q1253.53 1577.38 1259.85 1577.38 Q1266.21 1577.38 1269.37 1571.19 Q1272.57 1564.95 1272.57 1552.51 Q1272.57 1540.04 1269.37 1533.84 Q1266.21 1527.6 1259.85 1527.6 M1259.85 1521.12 Q1270.02 1521.12 1275.36 1529.18 Q1280.75 1537.2 1280.75 1552.51 Q1280.75 1567.78 1275.36 1575.85 Q1270.02 1583.87 1259.85 1583.87 Q1249.68 1583.87 1244.29 1575.85 Q1238.95 1567.78 1238.95 1552.51 Q1238.95 1537.2 1244.29 1529.18 Q1249.68 1521.12 1259.85 1521.12 Z" fill="#000000" fill-rule="nonzero" fill-opacity="1"></path><path clip-path="url(#clip940)" d="M1312.63 1527.6 Q1306.31 1527.6 1303.11 1533.84 Q1299.95 1540.04 1299.95 1552.51 Q1299.95 1564.95 1303.11 1571.19 Q1306.31 1577.38 1312.63 1577.38 Q1318.99 1577.38 1322.15 1571.19 Q1325.35 1564.95 1325.35 1552.51 Q1325.35 1540.04 1322.15 1533.84 Q1318.99 1527.6 1312.63 1527.6 M1312.63 1521.12 Q1322.8 1521.12 1328.15 1529.18 Q1333.54 1537.2 1333.54 1552.51 Q1333.54 1567.78 1328.15 1575.85 Q1322.8 1583.87 1312.63 1583.87 Q1302.47 1583.87 1297.08 1575.85 Q1291.73 1567.78 1291.73 1552.51 Q1291.73 1537.2 1297.08 1529.18 Q1302.47 1521.12 1312.63 1521.12 Z" fill="#000000" fill-rule="nonzero" fill-opacity="1"></path><path clip-path="url(#clip940)" d="M1364 1556.68 L1352.58 1593.63 L1345.69 1593.63 L1357.11 1556.68 L1345.69 1519.74 L1352.58 1519.74 L1364 1556.68 Z" fill="#000000" fill-rule="nonzero" fill-opacity="1"></path><path clip-path="url(#clip940)" d="M1699.58 1519.29 L1699.58 1602.26 L1692.69 1602.26 L1692.69 1519.29 L1699.58 1519.29 Z" fill="#000000" fill-rule="nonzero" fill-opacity="1"></path><path clip-path="url(#clip940)" d="M1720.4 1575.8 L1733.77 1575.8 L1733.77 1529.67 L1719.23 1532.58 L1719.23 1525.13 L1733.69 1522.21 L1741.87 1522.21 L1741.87 1575.8 L1755.24 1575.8 L1755.24 1582.69 L1720.4 1582.69 L1720.4 1575.8 Z" fill="#000000" fill-rule="nonzero" fill-opacity="1"></path><path clip-path="url(#clip940)" d="M1789.27 1527.6 Q1782.95 1527.6 1779.75 1533.84 Q1776.59 1540.04 1776.59 1552.51 Q1776.59 1564.95 1779.75 1571.19 Q1782.95 1577.38 1789.27 1577.38 Q1795.63 1577.38 1798.79 1571.19 Q1801.99 1564.95 1801.99 1552.51 Q1801.99 1540.04 1798.79 1533.84 Q1795.63 1527.6 1789.27 1527.6 M1789.27 1521.12 Q1799.44 1521.12 1804.78 1529.18 Q1810.17 1537.2 1810.17 1552.51 Q1810.17 1567.78 1804.78 1575.85 Q1799.44 1583.87 1789.27 1583.87 Q1779.1 1583.87 1773.71 1575.85 Q1768.37 1567.78 1768.37 1552.51 Q1768.37 1537.2 1773.71 1529.18 Q1779.1 1521.12 1789.27 1521.12 Z" fill="#000000" fill-rule="nonzero" fill-opacity="1"></path><path clip-path="url(#clip940)" d="M1842.05 1527.6 Q1835.73 1527.6 1832.53 1533.84 Q1829.37 1540.04 1829.37 1552.51 Q1829.37 1564.95 1832.53 1571.19 Q1835.73 1577.38 1842.05 1577.38 Q1848.41 1577.38 1851.57 1571.19 Q1854.77 1564.95 1854.77 1552.51 Q1854.77 1540.04 1851.57 1533.84 Q1848.41 1527.6 1842.05 1527.6 M1842.05 1521.12 Q1852.22 1521.12 1857.57 1529.18 Q1862.95 1537.2 1862.95 1552.51 Q1862.95 1567.78 1857.57 1575.85 Q1852.22 1583.87 1842.05 1583.87 Q1831.88 1583.87 1826.5 1575.85 Q1821.15 1567.78 1821.15 1552.51 Q1821.15 1537.2 1826.5 1529.18 Q1831.88 1521.12 1842.05 1521.12 Z" fill="#000000" fill-rule="nonzero" fill-opacity="1"></path><path clip-path="url(#clip940)" d="M1894.83 1527.6 Q1888.52 1527.6 1885.31 1533.84 Q1882.16 1540.04 1882.16 1552.51 Q1882.16 1564.95 1885.31 1571.19 Q1888.52 1577.38 1894.83 1577.38 Q1901.19 1577.38 1904.35 1571.19 Q1907.55 1564.95 1907.55 1552.51 Q1907.55 1540.04 1904.35 1533.84 Q1901.19 1527.6 1894.83 1527.6 M1894.83 1521.12 Q1905 1521.12 1910.35 1529.18 Q1915.74 1537.2 1915.74 1552.51 Q1915.74 1567.78 1910.35 1575.85 Q1905 1583.87 1894.83 1583.87 Q1884.67 1583.87 1879.28 1575.85 Q1873.93 1567.78 1873.93 1552.51 Q1873.93 1537.2 1879.28 1529.18 Q1884.67 1521.12 1894.83 1521.12 Z" fill="#000000" fill-rule="nonzero" fill-opacity="1"></path><path clip-path="url(#clip940)" d="M1947.62 1527.6 Q1941.3 1527.6 1938.1 1533.84 Q1934.94 1540.04 1934.94 1552.51 Q1934.94 1564.95 1938.1 1571.19 Q1941.3 1577.38 1947.62 1577.38 Q1953.98 1577.38 1957.14 1571.19 Q1960.34 1564.95 1960.34 1552.51 Q1960.34 1540.04 1957.14 1533.84 Q1953.98 1527.6 1947.62 1527.6 M1947.62 1521.12 Q1957.79 1521.12 1963.13 1529.18 Q1968.52 1537.2 1968.52 1552.51 Q1968.52 1567.78 1963.13 1575.85 Q1957.79 1583.87 1947.62 1583.87 Q1937.45 1583.87 1932.06 1575.85 Q1926.72 1567.78 1926.72 1552.51 Q1926.72 1537.2 1932.06 1529.18 Q1937.45 1521.12 1947.62 1521.12 Z" fill="#000000" fill-rule="nonzero" fill-opacity="1"></path><path clip-path="url(#clip940)" d="M1984.32 1575.8 L1997.69 1575.8 L1997.69 1529.67 L1983.14 1532.58 L1983.14 1525.13 L1997.61 1522.21 L2005.79 1522.21 L2005.79 1575.8 L2019.16 1575.8 L2019.16 1582.69 L1984.32 1582.69 L1984.32 1575.8 Z" fill="#000000" fill-rule="nonzero" fill-opacity="1"></path><path clip-path="url(#clip940)" d="M2037.1 1575.8 L2050.47 1575.8 L2050.47 1529.67 L2035.93 1532.58 L2035.93 1525.13 L2050.39 1522.21 L2058.57 1522.21 L2058.57 1575.8 L2071.94 1575.8 L2071.94 1582.69 L2037.1 1582.69 L2037.1 1575.8 Z" fill="#000000" fill-rule="nonzero" fill-opacity="1"></path><path clip-path="url(#clip940)" d="M2104.55 1556.68 L2093.13 1593.63 L2086.24 1593.63 L2097.66 1556.68 L2086.24 1519.74 L2093.13 1519.74 L2104.55 1556.68 Z" fill="#000000" fill-rule="nonzero" fill-opacity="1"></path><path clip-path="url(#clip940)" d="M2440.13 1519.29 L2440.13 1602.26 L2433.25 1602.26 L2433.25 1519.29 L2440.13 1519.29 Z" fill="#000000" fill-rule="nonzero" fill-opacity="1"></path><path clip-path="url(#clip940)" d="M2460.95 1575.8 L2474.32 1575.8 L2474.32 1529.67 L2459.78 1532.58 L2459.78 1525.13 L2474.24 1522.21 L2482.42 1522.21 L2482.42 1575.8 L2495.79 1575.8 L2495.79 1582.69 L2460.95 1582.69 L2460.95 1575.8 Z" fill="#000000" fill-rule="nonzero" fill-opacity="1"></path><path clip-path="url(#clip940)" d="M2529.82 1527.6 Q2523.5 1527.6 2520.3 1533.84 Q2517.14 1540.04 2517.14 1552.51 Q2517.14 1564.95 2520.3 1571.19 Q2523.5 1577.38 2529.82 1577.38 Q2536.18 1577.38 2539.34 1571.19 Q2542.54 1564.95 2542.54 1552.51 Q2542.54 1540.04 2539.34 1533.84 Q2536.18 1527.6 2529.82 1527.6 M2529.82 1521.12 Q2539.99 1521.12 2545.33 1529.18 Q2550.72 1537.2 2550.72 1552.51 Q2550.72 1567.78 2545.33 1575.85 Q2539.99 1583.87 2529.82 1583.87 Q2519.65 1583.87 2514.26 1575.85 Q2508.92 1567.78 2508.92 1552.51 Q2508.92 1537.2 2514.26 1529.18 Q2519.65 1521.12 2529.82 1521.12 Z" fill="#000000" fill-rule="nonzero" fill-opacity="1"></path><path clip-path="url(#clip940)" d="M2582.6 1527.6 Q2576.28 1527.6 2573.08 1533.84 Q2569.92 1540.04 2569.92 1552.51 Q2569.92 1564.95 2573.08 1571.19 Q2576.28 1577.38 2582.6 1577.38 Q2588.96 1577.38 2592.12 1571.19 Q2595.32 1564.95 2595.32 1552.51 Q2595.32 1540.04 2592.12 1533.84 Q2588.96 1527.6 2582.6 1527.6 M2582.6 1521.12 Q2592.77 1521.12 2598.12 1529.18 Q2603.51 1537.2 2603.51 1552.51 Q2603.51 1567.78 2598.12 1575.85 Q2592.77 1583.87 2582.6 1583.87 Q2572.43 1583.87 2567.05 1575.85 Q2561.7 1567.78 2561.7 1552.51 Q2561.7 1537.2 2567.05 1529.18 Q2572.43 1521.12 2582.6 1521.12 Z" fill="#000000" fill-rule="nonzero" fill-opacity="1"></path><path clip-path="url(#clip940)" d="M2635.39 1527.6 Q2629.07 1527.6 2625.87 1533.84 Q2622.71 1540.04 2622.71 1552.51 Q2622.71 1564.95 2625.87 1571.19 Q2629.07 1577.38 2635.39 1577.38 Q2641.75 1577.38 2644.91 1571.19 Q2648.11 1564.95 2648.11 1552.51 Q2648.11 1540.04 2644.91 1533.84 Q2641.75 1527.6 2635.39 1527.6 M2635.39 1521.12 Q2645.55 1521.12 2650.9 1529.18 Q2656.29 1537.2 2656.29 1552.51 Q2656.29 1567.78 2650.9 1575.85 Q2645.55 1583.87 2635.39 1583.87 Q2625.22 1583.87 2619.83 1575.85 Q2614.48 1567.78 2614.48 1552.51 Q2614.48 1537.2 2619.83 1529.18 Q2625.22 1521.12 2635.39 1521.12 Z" fill="#000000" fill-rule="nonzero" fill-opacity="1"></path><path clip-path="url(#clip940)" d="M2688.17 1527.6 Q2681.85 1527.6 2678.65 1533.84 Q2675.49 1540.04 2675.49 1552.51 Q2675.49 1564.95 2678.65 1571.19 Q2681.85 1577.38 2688.17 1577.38 Q2694.53 1577.38 2697.69 1571.19 Q2700.89 1564.95 2700.89 1552.51 Q2700.89 1540.04 2697.69 1533.84 Q2694.53 1527.6 2688.17 1527.6 M2688.17 1521.12 Q2698.34 1521.12 2703.68 1529.18 Q2709.07 1537.2 2709.07 1552.51 Q2709.07 1567.78 2703.68 1575.85 Q2698.34 1583.87 2688.17 1583.87 Q2678 1583.87 2672.61 1575.85 Q2667.27 1567.78 2667.27 1552.51 Q2667.27 1537.2 2672.61 1529.18 Q2678 1521.12 2688.17 1521.12 Z" fill="#000000" fill-rule="nonzero" fill-opacity="1"></path><path clip-path="url(#clip940)" d="M2740.95 1527.6 Q2734.63 1527.6 2731.43 1533.84 Q2728.27 1540.04 2728.27 1552.51 Q2728.27 1564.95 2731.43 1571.19 Q2734.63 1577.38 2740.95 1577.38 Q2747.31 1577.38 2750.47 1571.19 Q2753.67 1564.95 2753.67 1552.51 Q2753.67 1540.04 2750.47 1533.84 Q2747.31 1527.6 2740.95 1527.6 M2740.95 1521.12 Q2751.12 1521.12 2756.47 1529.18 Q2761.85 1537.2 2761.85 1552.51 Q2761.85 1567.78 2756.47 1575.85 Q2751.12 1583.87 2740.95 1583.87 Q2730.78 1583.87 2725.4 1575.85 Q2720.05 1567.78 2720.05 1552.51 Q2720.05 1537.2 2725.4 1529.18 Q2730.78 1521.12 2740.95 1521.12 Z" fill="#000000" fill-rule="nonzero" fill-opacity="1"></path><path clip-path="url(#clip940)" d="M2793.74 1527.6 Q2787.42 1527.6 2784.22 1533.84 Q2781.06 1540.04 2781.06 1552.51 Q2781.06 1564.95 2784.22 1571.19 Q2787.42 1577.38 2793.74 1577.38 Q2800.1 1577.38 2803.26 1571.19 Q2806.46 1564.95 2806.46 1552.51 Q2806.46 1540.04 2803.26 1533.84 Q2800.1 1527.6 2793.74 1527.6 M2793.74 1521.12 Q2803.9 1521.12 2809.25 1529.18 Q2814.64 1537.2 2814.64 1552.51 Q2814.64 1567.78 2809.25 1575.85 Q2803.9 1583.87 2793.74 1583.87 Q2783.57 1583.87 2778.18 1575.85 Q2772.83 1567.78 2772.83 1552.51 Q2772.83 1537.2 2778.18 1529.18 Q2783.57 1521.12 2793.74 1521.12 Z" fill="#000000" fill-rule="nonzero" fill-opacity="1"></path><path clip-path="url(#clip940)" d="M2845.1 1556.68 L2833.68 1593.63 L2826.79 1593.63 L2838.21 1556.68 L2826.79 1519.74 L2833.68 1519.74 L2845.1 1556.68 Z" fill="#000000" fill-rule="nonzero" fill-opacity="1"></path><path clip-path="url(#clip940)" d="M3180.68 1519.29 L3180.68 1602.26 L3173.8 1602.26 L3173.8 1519.29 L3180.68 1519.29 Z" fill="#000000" fill-rule="nonzero" fill-opacity="1"></path><path clip-path="url(#clip940)" d="M3217.59 1527.6 Q3211.27 1527.6 3208.07 1533.84 Q3204.91 1540.04 3204.91 1552.51 Q3204.91 1564.95 3208.07 1571.19 Q3211.27 1577.38 3217.59 1577.38 Q3223.95 1577.38 3227.11 1571.19 Q3230.31 1564.95 3230.31 1552.51 Q3230.31 1540.04 3227.11 1533.84 Q3223.95 1527.6 3217.59 1527.6 M3217.59 1521.12 Q3227.75 1521.12 3233.1 1529.18 Q3238.49 1537.2 3238.49 1552.51 Q3238.49 1567.78 3233.1 1575.85 Q3227.75 1583.87 3217.59 1583.87 Q3207.42 1583.87 3202.03 1575.85 Q3196.68 1567.78 3196.68 1552.51 Q3196.68 1537.2 3202.03 1529.18 Q3207.42 1521.12 3217.59 1521.12 Z" fill="#000000" fill-rule="nonzero" fill-opacity="1"></path><path clip-path="url(#clip940)" d="M3254.29 1575.8 L3267.66 1575.8 L3267.66 1529.67 L3253.11 1532.58 L3253.11 1525.13 L3267.58 1522.21 L3275.76 1522.21 L3275.76 1575.8 L3289.13 1575.8 L3289.13 1582.69 L3254.29 1582.69 L3254.29 1575.8 Z" fill="#000000" fill-rule="nonzero" fill-opacity="1"></path><path clip-path="url(#clip940)" d="M3307.07 1575.8 L3320.44 1575.8 L3320.44 1529.67 L3305.9 1532.58 L3305.9 1525.13 L3320.36 1522.21 L3328.54 1522.21 L3328.54 1575.8 L3341.91 1575.8 L3341.91 1582.69 L3307.07 1582.69 L3307.07 1575.8 Z" fill="#000000" fill-rule="nonzero" fill-opacity="1"></path><path clip-path="url(#clip940)" d="M3375.94 1527.6 Q3369.62 1527.6 3366.42 1533.84 Q3363.26 1540.04 3363.26 1552.51 Q3363.26 1564.95 3366.42 1571.19 Q3369.62 1577.38 3375.94 1577.38 Q3382.3 1577.38 3385.46 1571.19 Q3388.66 1564.95 3388.66 1552.51 Q3388.66 1540.04 3385.46 1533.84 Q3382.3 1527.6 3375.94 1527.6 M3375.94 1521.12 Q3386.1 1521.12 3391.45 1529.18 Q3396.84 1537.2 3396.84 1552.51 Q3396.84 1567.78 3391.45 1575.85 Q3386.1 1583.87 3375.94 1583.87 Q3365.77 1583.87 3360.38 1575.85 Q3355.03 1567.78 3355.03 1552.51 Q3355.03 1537.2 3360.38 1529.18 Q3365.77 1521.12 3375.94 1521.12 Z" fill="#000000" fill-rule="nonzero" fill-opacity="1"></path><path clip-path="url(#clip940)" d="M3428.72 1527.6 Q3422.4 1527.6 3419.2 1533.84 Q3416.04 1540.04 3416.04 1552.51 Q3416.04 1564.95 3419.2 1571.19 Q3422.4 1577.38 3428.72 1577.38 Q3435.08 1577.38 3438.24 1571.19 Q3441.44 1564.95 3441.44 1552.51 Q3441.44 1540.04 3438.24 1533.84 Q3435.08 1527.6 3428.72 1527.6 M3428.72 1521.12 Q3438.89 1521.12 3444.24 1529.18 Q3449.62 1537.2 3449.62 1552.51 Q3449.62 1567.78 3444.24 1575.85 Q3438.89 1583.87 3428.72 1583.87 Q3418.55 1583.87 3413.16 1575.85 Q3407.82 1567.78 3407.82 1552.51 Q3407.82 1537.2 3413.16 1529.18 Q3418.55 1521.12 3428.72 1521.12 Z" fill="#000000" fill-rule="nonzero" fill-opacity="1"></path><path clip-path="url(#clip940)" d="M3465.42 1575.8 L3478.79 1575.8 L3478.79 1529.67 L3464.25 1532.58 L3464.25 1525.13 L3478.71 1522.21 L3486.89 1522.21 L3486.89 1575.8 L3500.26 1575.8 L3500.26 1582.69 L3465.42 1582.69 L3465.42 1575.8 Z" fill="#000000" fill-rule="nonzero" fill-opacity="1"></path><path clip-path="url(#clip940)" d="M3518.2 1575.8 L3531.57 1575.8 L3531.57 1529.67 L3517.03 1532.58 L3517.03 1525.13 L3531.49 1522.21 L3539.67 1522.21 L3539.67 1575.8 L3553.04 1575.8 L3553.04 1582.69 L3518.2 1582.69 L3518.2 1575.8 Z" fill="#000000" fill-rule="nonzero" fill-opacity="1"></path><path clip-path="url(#clip940)" d="M3585.65 1556.68 L3574.23 1593.63 L3567.34 1593.63 L3578.77 1556.68 L3567.34 1519.74 L3574.23 1519.74 L3585.65 1556.68 Z" fill="#000000" fill-rule="nonzero" fill-opacity="1"></path><path clip-path="url(#clip940)" d="M3921.23 1519.29 L3921.23 1602.26 L3914.35 1602.26 L3914.35 1519.29 L3921.23 1519.29 Z" fill="#000000" fill-rule="nonzero" fill-opacity="1"></path><path clip-path="url(#clip940)" d="M3958.14 1527.6 Q3951.82 1527.6 3948.62 1533.84 Q3945.46 1540.04 3945.46 1552.51 Q3945.46 1564.95 3948.62 1571.19 Q3951.82 1577.38 3958.14 1577.38 Q3964.5 1577.38 3967.66 1571.19 Q3970.86 1564.95 3970.86 1552.51 Q3970.86 1540.04 3967.66 1533.84 Q3964.5 1527.6 3958.14 1527.6 M3958.14 1521.12 Q3968.31 1521.12 3973.65 1529.18 Q3979.04 1537.2 3979.04 1552.51 Q3979.04 1567.78 3973.65 1575.85 Q3968.31 1583.87 3958.14 1583.87 Q3947.97 1583.87 3942.58 1575.85 Q3937.24 1567.78 3937.24 1552.51 Q3937.24 1537.2 3942.58 1529.18 Q3947.97 1521.12 3958.14 1521.12 Z" fill="#000000" fill-rule="nonzero" fill-opacity="1"></path><path clip-path="url(#clip940)" d="M4010.92 1527.6 Q4004.6 1527.6 4001.4 1533.84 Q3998.24 1540.04 3998.24 1552.51 Q3998.24 1564.95 4001.4 1571.19 Q4004.6 1577.38 4010.92 1577.38 Q4017.28 1577.38 4020.44 1571.19 Q4023.64 1564.95 4023.64 1552.51 Q4023.64 1540.04 4020.44 1533.84 Q4017.28 1527.6 4010.92 1527.6 M4010.92 1521.12 Q4021.09 1521.12 4026.44 1529.18 Q4031.82 1537.2 4031.82 1552.51 Q4031.82 1567.78 4026.44 1575.85 Q4021.09 1583.87 4010.92 1583.87 Q4000.75 1583.87 3995.37 1575.85 Q3990.02 1567.78 3990.02 1552.51 Q3990.02 1537.2 3995.37 1529.18 Q4000.75 1521.12 4010.92 1521.12 Z" fill="#000000" fill-rule="nonzero" fill-opacity="1"></path><path clip-path="url(#clip940)" d="M4063.7 1527.6 Q4057.39 1527.6 4054.19 1533.84 Q4051.03 1540.04 4051.03 1552.51 Q4051.03 1564.95 4054.19 1571.19 Q4057.39 1577.38 4063.7 1577.38 Q4070.06 1577.38 4073.22 1571.19 Q4076.42 1564.95 4076.42 1552.51 Q4076.42 1540.04 4073.22 1533.84 Q4070.06 1527.6 4063.7 1527.6 M4063.7 1521.12 Q4073.87 1521.12 4079.22 1529.18 Q4084.61 1537.2 4084.61 1552.51 Q4084.61 1567.78 4079.22 1575.85 Q4073.87 1583.87 4063.7 1583.87 Q4053.54 1583.87 4048.15 1575.85 Q4042.8 1567.78 4042.8 1552.51 Q4042.8 1537.2 4048.15 1529.18 Q4053.54 1521.12 4063.7 1521.12 Z" fill="#000000" fill-rule="nonzero" fill-opacity="1"></path><path clip-path="url(#clip940)" d="M4100.41 1575.8 L4113.77 1575.8 L4113.77 1529.67 L4099.23 1532.58 L4099.23 1525.13 L4113.69 1522.21 L4121.88 1522.21 L4121.88 1575.8 L4135.24 1575.8 L4135.24 1582.69 L4100.41 1582.69 L4100.41 1575.8 Z" fill="#000000" fill-rule="nonzero" fill-opacity="1"></path><path clip-path="url(#clip940)" d="M4169.27 1527.6 Q4162.95 1527.6 4159.75 1533.84 Q4156.59 1540.04 4156.59 1552.51 Q4156.59 1564.95 4159.75 1571.19 Q4162.95 1577.38 4169.27 1577.38 Q4175.63 1577.38 4178.79 1571.19 Q4181.99 1564.95 4181.99 1552.51 Q4181.99 1540.04 4178.79 1533.84 Q4175.63 1527.6 4169.27 1527.6 M4169.27 1521.12 Q4179.44 1521.12 4184.79 1529.18 Q4190.17 1537.2 4190.17 1552.51 Q4190.17 1567.78 4184.79 1575.85 Q4179.44 1583.87 4169.27 1583.87 Q4159.1 1583.87 4153.72 1575.85 Q4148.37 1567.78 4148.37 1552.51 Q4148.37 1537.2 4153.72 1529.18 Q4159.1 1521.12 4169.27 1521.12 Z" fill="#000000" fill-rule="nonzero" fill-opacity="1"></path><path clip-path="url(#clip940)" d="M4222.05 1527.6 Q4215.74 1527.6 4212.53 1533.84 Q4209.38 1540.04 4209.38 1552.51 Q4209.38 1564.95 4212.53 1571.19 Q4215.74 1577.38 4222.05 1577.38 Q4228.41 1577.38 4231.57 1571.19 Q4234.77 1564.95 4234.77 1552.51 Q4234.77 1540.04 4231.57 1533.84 Q4228.41 1527.6 4222.05 1527.6 M4222.05 1521.12 Q4232.22 1521.12 4237.57 1529.18 Q4242.96 1537.2 4242.96 1552.51 Q4242.96 1567.78 4237.57 1575.85 Q4232.22 1583.87 4222.05 1583.87 Q4211.89 1583.87 4206.5 1575.85 Q4201.15 1567.78 4201.15 1552.51 Q4201.15 1537.2 4206.5 1529.18 Q4211.89 1521.12 4222.05 1521.12 Z" fill="#000000" fill-rule="nonzero" fill-opacity="1"></path><path clip-path="url(#clip940)" d="M4274.84 1527.6 Q4268.52 1527.6 4265.32 1533.84 Q4262.16 1540.04 4262.16 1552.51 Q4262.16 1564.95 4265.32 1571.19 Q4268.52 1577.38 4274.84 1577.38 Q4281.2 1577.38 4284.36 1571.19 Q4287.56 1564.95 4287.56 1552.51 Q4287.56 1540.04 4284.36 1533.84 Q4281.2 1527.6 4274.84 1527.6 M4274.84 1521.12 Q4285.01 1521.12 4290.35 1529.18 Q4295.74 1537.2 4295.74 1552.51 Q4295.74 1567.78 4290.35 1575.85 Q4285.01 1583.87 4274.84 1583.87 Q4264.67 1583.87 4259.28 1575.85 Q4253.94 1567.78 4253.94 1552.51 Q4253.94 1537.2 4259.28 1529.18 Q4264.67 1521.12 4274.84 1521.12 Z" fill="#000000" fill-rule="nonzero" fill-opacity="1"></path><path clip-path="url(#clip940)" d="M4326.2 1556.68 L4314.78 1593.63 L4307.89 1593.63 L4319.32 1556.68 L4307.89 1519.74 L4314.78 1519.74 L4326.2 1556.68 Z" fill="#000000" fill-rule="nonzero" fill-opacity="1"></path><path clip-path="url(#clip940)" d="M4661.79 1519.29 L4661.79 1602.26 L4654.9 1602.26 L4654.9 1519.29 L4661.79 1519.29 Z" fill="#000000" fill-rule="nonzero" fill-opacity="1"></path><path clip-path="url(#clip940)" d="M4698.69 1527.6 Q4692.37 1527.6 4689.17 1533.84 Q4686.01 1540.04 4686.01 1552.51 Q4686.01 1564.95 4689.17 1571.19 Q4692.37 1577.38 4698.69 1577.38 Q4705.05 1577.38 4708.21 1571.19 Q4711.41 1564.95 4711.41 1552.51 Q4711.41 1540.04 4708.21 1533.84 Q4705.05 1527.6 4698.69 1527.6 M4698.69 1521.12 Q4708.86 1521.12 4714.2 1529.18 Q4719.59 1537.2 4719.59 1552.51 Q4719.59 1567.78 4714.2 1575.85 Q4708.86 1583.87 4698.69 1583.87 Q4688.52 1583.87 4683.13 1575.85 Q4677.79 1567.78 4677.79 1552.51 Q4677.79 1537.2 4683.13 1529.18 Q4688.52 1521.12 4698.69 1521.12 Z" fill="#000000" fill-rule="nonzero" fill-opacity="1"></path><path clip-path="url(#clip940)" d="M4751.47 1527.6 Q4745.15 1527.6 4741.95 1533.84 Q4738.79 1540.04 4738.79 1552.51 Q4738.79 1564.95 4741.95 1571.19 Q4745.15 1577.38 4751.47 1577.38 Q4757.83 1577.38 4760.99 1571.19 Q4764.19 1564.95 4764.19 1552.51 Q4764.19 1540.04 4760.99 1533.84 Q4757.83 1527.6 4751.47 1527.6 M4751.47 1521.12 Q4761.64 1521.12 4766.99 1529.18 Q4772.38 1537.2 4772.38 1552.51 Q4772.38 1567.78 4766.99 1575.85 Q4761.64 1583.87 4751.47 1583.87 Q4741.3 1583.87 4735.92 1575.85 Q4730.57 1567.78 4730.57 1552.51 Q4730.57 1537.2 4735.92 1529.18 Q4741.3 1521.12 4751.47 1521.12 Z" fill="#000000" fill-rule="nonzero" fill-opacity="1"></path><path clip-path="url(#clip940)" d="M4804.26 1527.6 Q4797.94 1527.6 4794.74 1533.84 Q4791.58 1540.04 4791.58 1552.51 Q4791.58 1564.95 4794.74 1571.19 Q4797.94 1577.38 4804.26 1577.38 Q4810.62 1577.38 4813.78 1571.19 Q4816.98 1564.95 4816.98 1552.51 Q4816.98 1540.04 4813.78 1533.84 Q4810.62 1527.6 4804.26 1527.6 M4804.26 1521.12 Q4814.42 1521.12 4819.77 1529.18 Q4825.16 1537.2 4825.16 1552.51 Q4825.16 1567.78 4819.77 1575.85 Q4814.42 1583.87 4804.26 1583.87 Q4794.09 1583.87 4788.7 1575.85 Q4783.35 1567.78 4783.35 1552.51 Q4783.35 1537.2 4788.7 1529.18 Q4794.09 1521.12 4804.26 1521.12 Z" fill="#000000" fill-rule="nonzero" fill-opacity="1"></path><path clip-path="url(#clip940)" d="M4857.04 1527.6 Q4850.72 1527.6 4847.52 1533.84 Q4844.36 1540.04 4844.36 1552.51 Q4844.36 1564.95 4847.52 1571.19 Q4850.72 1577.38 4857.04 1577.38 Q4863.4 1577.38 4866.56 1571.19 Q4869.76 1564.95 4869.76 1552.51 Q4869.76 1540.04 4866.56 1533.84 Q4863.4 1527.6 4857.04 1527.6 M4857.04 1521.12 Q4867.21 1521.12 4872.55 1529.18 Q4877.94 1537.2 4877.94 1552.51 Q4877.94 1567.78 4872.55 1575.85 Q4867.21 1583.87 4857.04 1583.87 Q4846.87 1583.87 4841.48 1575.85 Q4836.14 1567.78 4836.14 1552.51 Q4836.14 1537.2 4841.48 1529.18 Q4846.87 1521.12 4857.04 1521.12 Z" fill="#000000" fill-rule="nonzero" fill-opacity="1"></path><path clip-path="url(#clip940)" d="M4893.74 1575.8 L4907.11 1575.8 L4907.11 1529.67 L4892.57 1532.58 L4892.57 1525.13 L4907.03 1522.21 L4915.21 1522.21 L4915.21 1575.8 L4928.58 1575.8 L4928.58 1582.69 L4893.74 1582.69 L4893.74 1575.8 Z" fill="#000000" fill-rule="nonzero" fill-opacity="1"></path><path clip-path="url(#clip940)" d="M4946.52 1575.8 L4959.89 1575.8 L4959.89 1529.67 L4945.35 1532.58 L4945.35 1525.13 L4959.81 1522.21 L4967.99 1522.21 L4967.99 1575.8 L4981.36 1575.8 L4981.36 1582.69 L4946.52 1582.69 L4946.52 1575.8 Z" fill="#000000" fill-rule="nonzero" fill-opacity="1"></path><path clip-path="url(#clip940)" d="M4999.31 1575.8 L5012.67 1575.8 L5012.67 1529.67 L4998.13 1532.58 L4998.13 1525.13 L5012.59 1522.21 L5020.78 1522.21 L5020.78 1575.8 L5034.14 1575.8 L5034.14 1582.69 L4999.31 1582.69 L4999.31 1575.8 Z" fill="#000000" fill-rule="nonzero" fill-opacity="1"></path><path clip-path="url(#clip940)" d="M5066.75 1556.68 L5055.33 1593.63 L5048.44 1593.63 L5059.87 1556.68 L5048.44 1519.74 L5055.33 1519.74 L5066.75 1556.68 Z" fill="#000000" fill-rule="nonzero" fill-opacity="1"></path><path clip-path="url(#clip940)" d="M5402.34 1519.29 L5402.34 1602.26 L5395.45 1602.26 L5395.45 1519.29 L5402.34 1519.29 Z" fill="#000000" fill-rule="nonzero" fill-opacity="1"></path><path clip-path="url(#clip940)" d="M5439.24 1527.6 Q5432.92 1527.6 5429.72 1533.84 Q5426.56 1540.04 5426.56 1552.51 Q5426.56 1564.95 5429.72 1571.19 Q5432.92 1577.38 5439.24 1577.38 Q5445.6 1577.38 5448.76 1571.19 Q5451.96 1564.95 5451.96 1552.51 Q5451.96 1540.04 5448.76 1533.84 Q5445.6 1527.6 5439.24 1527.6 M5439.24 1521.12 Q5449.41 1521.12 5454.76 1529.18 Q5460.14 1537.2 5460.14 1552.51 Q5460.14 1567.78 5454.76 1575.85 Q5449.41 1583.87 5439.24 1583.87 Q5429.07 1583.87 5423.69 1575.85 Q5418.34 1567.78 5418.34 1552.51 Q5418.34 1537.2 5423.69 1529.18 Q5429.07 1521.12 5439.24 1521.12 Z" fill="#000000" fill-rule="nonzero" fill-opacity="1"></path><path clip-path="url(#clip940)" d="M5492.02 1527.6 Q5485.7 1527.6 5482.5 1533.84 Q5479.34 1540.04 5479.34 1552.51 Q5479.34 1564.95 5482.5 1571.19 Q5485.7 1577.38 5492.02 1577.38 Q5498.38 1577.38 5501.54 1571.19 Q5504.74 1564.95 5504.74 1552.51 Q5504.74 1540.04 5501.54 1533.84 Q5498.38 1527.6 5492.02 1527.6 M5492.02 1521.12 Q5502.19 1521.12 5507.54 1529.18 Q5512.93 1537.2 5512.93 1552.51 Q5512.93 1567.78 5507.54 1575.85 Q5502.19 1583.87 5492.02 1583.87 Q5481.86 1583.87 5476.47 1575.85 Q5471.12 1567.78 5471.12 1552.51 Q5471.12 1537.2 5476.47 1529.18 Q5481.86 1521.12 5492.02 1521.12 Z" fill="#000000" fill-rule="nonzero" fill-opacity="1"></path><path clip-path="url(#clip940)" d="M5544.81 1527.6 Q5538.49 1527.6 5535.29 1533.84 Q5532.13 1540.04 5532.13 1552.51 Q5532.13 1564.95 5535.29 1571.19 Q5538.49 1577.38 5544.81 1577.38 Q5551.17 1577.38 5554.33 1571.19 Q5557.53 1564.95 5557.53 1552.51 Q5557.53 1540.04 5554.33 1533.84 Q5551.17 1527.6 5544.81 1527.6 M5544.81 1521.12 Q5554.97 1521.12 5560.32 1529.18 Q5565.71 1537.2 5565.71 1552.51 Q5565.71 1567.78 5560.32 1575.85 Q5554.97 1583.87 5544.81 1583.87 Q5534.64 1583.87 5529.25 1575.85 Q5523.9 1567.78 5523.9 1552.51 Q5523.9 1537.2 5529.25 1529.18 Q5534.64 1521.12 5544.81 1521.12 Z" fill="#000000" fill-rule="nonzero" fill-opacity="1"></path><path clip-path="url(#clip940)" d="M5597.59 1527.6 Q5591.27 1527.6 5588.07 1533.84 Q5584.91 1540.04 5584.91 1552.51 Q5584.91 1564.95 5588.07 1571.19 Q5591.27 1577.38 5597.59 1577.38 Q5603.95 1577.38 5607.11 1571.19 Q5610.31 1564.95 5610.31 1552.51 Q5610.31 1540.04 5607.11 1533.84 Q5603.95 1527.6 5597.59 1527.6 M5597.59 1521.12 Q5607.76 1521.12 5613.11 1529.18 Q5618.49 1537.2 5618.49 1552.51 Q5618.49 1567.78 5613.11 1575.85 Q5607.76 1583.87 5597.59 1583.87 Q5587.42 1583.87 5582.03 1575.85 Q5576.69 1567.78 5576.69 1552.51 Q5576.69 1537.2 5582.03 1529.18 Q5587.42 1521.12 5597.59 1521.12 Z" fill="#000000" fill-rule="nonzero" fill-opacity="1"></path><path clip-path="url(#clip940)" d="M5634.29 1575.8 L5647.66 1575.8 L5647.66 1529.67 L5633.12 1532.58 L5633.12 1525.13 L5647.58 1522.21 L5655.76 1522.21 L5655.76 1575.8 L5669.13 1575.8 L5669.13 1582.69 L5634.29 1582.69 L5634.29 1575.8 Z" fill="#000000" fill-rule="nonzero" fill-opacity="1"></path><path clip-path="url(#clip940)" d="M5703.16 1527.6 Q5696.84 1527.6 5693.64 1533.84 Q5690.48 1540.04 5690.48 1552.51 Q5690.48 1564.95 5693.64 1571.19 Q5696.84 1577.38 5703.16 1577.38 Q5709.52 1577.38 5712.68 1571.19 Q5715.88 1564.95 5715.88 1552.51 Q5715.88 1540.04 5712.68 1533.84 Q5709.52 1527.6 5703.16 1527.6 M5703.16 1521.12 Q5713.32 1521.12 5718.67 1529.18 Q5724.06 1537.2 5724.06 1552.51 Q5724.06 1567.78 5718.67 1575.85 Q5713.32 1583.87 5703.16 1583.87 Q5692.99 1583.87 5687.6 1575.85 Q5682.25 1567.78 5682.25 1552.51 Q5682.25 1537.2 5687.6 1529.18 Q5692.99 1521.12 5703.16 1521.12 Z" fill="#000000" fill-rule="nonzero" fill-opacity="1"></path><path clip-path="url(#clip940)" d="M5739.86 1575.8 L5753.23 1575.8 L5753.23 1529.67 L5738.68 1532.58 L5738.68 1525.13 L5753.15 1522.21 L5761.33 1522.21 L5761.33 1575.8 L5774.7 1575.8 L5774.7 1582.69 L5739.86 1582.69 L5739.86 1575.8 Z" fill="#000000" fill-rule="nonzero" fill-opacity="1"></path><path clip-path="url(#clip940)" d="M5807.31 1556.68 L5795.88 1593.63 L5789 1593.63 L5800.42 1556.68 L5789 1519.74 L5795.88 1519.74 L5807.31 1556.68 Z" fill="#000000" fill-rule="nonzero" fill-opacity="1"></path><path clip-path="url(#clip940)" d="M6142.89 1519.29 L6142.89 1602.26 L6136 1602.26 L6136 1519.29 L6142.89 1519.29 Z" fill="#000000" fill-rule="nonzero" fill-opacity="1"></path><path clip-path="url(#clip940)" d="M6163.71 1575.8 L6177.08 1575.8 L6177.08 1529.67 L6162.53 1532.58 L6162.53 1525.13 L6177 1522.21 L6185.18 1522.21 L6185.18 1575.8 L6198.55 1575.8 L6198.55 1582.69 L6163.71 1582.69 L6163.71 1575.8 Z" fill="#000000" fill-rule="nonzero" fill-opacity="1"></path><path clip-path="url(#clip940)" d="M6232.57 1527.6 Q6226.26 1527.6 6223.06 1533.84 Q6219.9 1540.04 6219.9 1552.51 Q6219.9 1564.95 6223.06 1571.19 Q6226.26 1577.38 6232.57 1577.38 Q6238.93 1577.38 6242.09 1571.19 Q6245.29 1564.95 6245.29 1552.51 Q6245.29 1540.04 6242.09 1533.84 Q6238.93 1527.6 6232.57 1527.6 M6232.57 1521.12 Q6242.74 1521.12 6248.09 1529.18 Q6253.48 1537.2 6253.48 1552.51 Q6253.48 1567.78 6248.09 1575.85 Q6242.74 1583.87 6232.57 1583.87 Q6222.41 1583.87 6217.02 1575.85 Q6211.67 1567.78 6211.67 1552.51 Q6211.67 1537.2 6217.02 1529.18 Q6222.41 1521.12 6232.57 1521.12 Z" fill="#000000" fill-rule="nonzero" fill-opacity="1"></path><path clip-path="url(#clip940)" d="M6285.36 1527.6 Q6279.04 1527.6 6275.84 1533.84 Q6272.68 1540.04 6272.68 1552.51 Q6272.68 1564.95 6275.84 1571.19 Q6279.04 1577.38 6285.36 1577.38 Q6291.72 1577.38 6294.88 1571.19 Q6298.08 1564.95 6298.08 1552.51 Q6298.08 1540.04 6294.88 1533.84 Q6291.72 1527.6 6285.36 1527.6 M6285.36 1521.12 Q6295.53 1521.12 6300.87 1529.18 Q6306.26 1537.2 6306.26 1552.51 Q6306.26 1567.78 6300.87 1575.85 Q6295.53 1583.87 6285.36 1583.87 Q6275.19 1583.87 6269.8 1575.85 Q6264.46 1567.78 6264.46 1552.51 Q6264.46 1537.2 6269.8 1529.18 Q6275.19 1521.12 6285.36 1521.12 Z" fill="#000000" fill-rule="nonzero" fill-opacity="1"></path><path clip-path="url(#clip940)" d="M6322.06 1575.8 L6335.43 1575.8 L6335.43 1529.67 L6320.88 1532.58 L6320.88 1525.13 L6335.35 1522.21 L6343.53 1522.21 L6343.53 1575.8 L6356.9 1575.8 L6356.9 1582.69 L6322.06 1582.69 L6322.06 1575.8 Z" fill="#000000" fill-rule="nonzero" fill-opacity="1"></path><path clip-path="url(#clip940)" d="M6390.92 1527.6 Q6384.61 1527.6 6381.41 1533.84 Q6378.25 1540.04 6378.25 1552.51 Q6378.25 1564.95 6381.41 1571.19 Q6384.61 1577.38 6390.92 1577.38 Q6397.28 1577.38 6400.44 1571.19 Q6403.64 1564.95 6403.64 1552.51 Q6403.64 1540.04 6400.44 1533.84 Q6397.28 1527.6 6390.92 1527.6 M6390.92 1521.12 Q6401.09 1521.12 6406.44 1529.18 Q6411.83 1537.2 6411.83 1552.51 Q6411.83 1567.78 6406.44 1575.85 Q6401.09 1583.87 6390.92 1583.87 Q6380.76 1583.87 6375.37 1575.85 Q6370.02 1567.78 6370.02 1552.51 Q6370.02 1537.2 6375.37 1529.18 Q6380.76 1521.12 6390.92 1521.12 Z" fill="#000000" fill-rule="nonzero" fill-opacity="1"></path><path clip-path="url(#clip940)" d="M6443.71 1527.6 Q6437.39 1527.6 6434.19 1533.84 Q6431.03 1540.04 6431.03 1552.51 Q6431.03 1564.95 6434.19 1571.19 Q6437.39 1577.38 6443.71 1577.38 Q6450.07 1577.38 6453.23 1571.19 Q6456.43 1564.95 6456.43 1552.51 Q6456.43 1540.04 6453.23 1533.84 Q6450.07 1527.6 6443.71 1527.6 M6443.71 1521.12 Q6453.88 1521.12 6459.22 1529.18 Q6464.61 1537.2 6464.61 1552.51 Q6464.61 1567.78 6459.22 1575.85 Q6453.88 1583.87 6443.71 1583.87 Q6433.54 1583.87 6428.15 1575.85 Q6422.81 1567.78 6422.81 1552.51 Q6422.81 1537.2 6428.15 1529.18 Q6433.54 1521.12 6443.71 1521.12 Z" fill="#000000" fill-rule="nonzero" fill-opacity="1"></path><path clip-path="url(#clip940)" d="M6496.49 1527.6 Q6490.17 1527.6 6486.97 1533.84 Q6483.81 1540.04 6483.81 1552.51 Q6483.81 1564.95 6486.97 1571.19 Q6490.17 1577.38 6496.49 1577.38 Q6502.85 1577.38 6506.01 1571.19 Q6509.21 1564.95 6509.21 1552.51 Q6509.21 1540.04 6506.01 1533.84 Q6502.85 1527.6 6496.49 1527.6 M6496.49 1521.12 Q6506.66 1521.12 6512.01 1529.18 Q6517.39 1537.2 6517.39 1552.51 Q6517.39 1567.78 6512.01 1575.85 Q6506.66 1583.87 6496.49 1583.87 Q6486.32 1583.87 6480.94 1575.85 Q6475.59 1567.78 6475.59 1552.51 Q6475.59 1537.2 6480.94 1529.18 Q6486.32 1521.12 6496.49 1521.12 Z" fill="#000000" fill-rule="nonzero" fill-opacity="1"></path><path clip-path="url(#clip940)" d="M6547.86 1556.68 L6536.43 1593.63 L6529.55 1593.63 L6540.97 1556.68 L6529.55 1519.74 L6536.43 1519.74 L6547.86 1556.68 Z" fill="#000000" fill-rule="nonzero" fill-opacity="1"></path><path clip-path="url(#clip940)" d="M6883.44 1519.29 L6883.44 1602.26 L6876.55 1602.26 L6876.55 1519.29 L6883.44 1519.29 Z" fill="#000000" fill-rule="nonzero" fill-opacity="1"></path><path clip-path="url(#clip940)" d="M6904.26 1575.8 L6917.63 1575.8 L6917.63 1529.67 L6903.09 1532.58 L6903.09 1525.13 L6917.55 1522.21 L6925.73 1522.21 L6925.73 1575.8 L6939.1 1575.8 L6939.1 1582.69 L6904.26 1582.69 L6904.26 1575.8 Z" fill="#000000" fill-rule="nonzero" fill-opacity="1"></path><path clip-path="url(#clip940)" d="M6973.13 1527.6 Q6966.81 1527.6 6963.61 1533.84 Q6960.45 1540.04 6960.45 1552.51 Q6960.45 1564.95 6963.61 1571.19 Q6966.81 1577.38 6973.13 1577.38 Q6979.49 1577.38 6982.65 1571.19 Q6985.85 1564.95 6985.85 1552.51 Q6985.85 1540.04 6982.65 1533.84 Q6979.49 1527.6 6973.13 1527.6 M6973.13 1521.12 Q6983.29 1521.12 6988.64 1529.18 Q6994.03 1537.2 6994.03 1552.51 Q6994.03 1567.78 6988.64 1575.85 Q6983.29 1583.87 6973.13 1583.87 Q6962.96 1583.87 6957.57 1575.85 Q6952.22 1567.78 6952.22 1552.51 Q6952.22 1537.2 6957.57 1529.18 Q6962.96 1521.12 6973.13 1521.12 Z" fill="#000000" fill-rule="nonzero" fill-opacity="1"></path><path clip-path="url(#clip940)" d="M7025.91 1527.6 Q7019.59 1527.6 7016.39 1533.84 Q7013.23 1540.04 7013.23 1552.51 Q7013.23 1564.95 7016.39 1571.19 Q7019.59 1577.38 7025.91 1577.38 Q7032.27 1577.38 7035.43 1571.19 Q7038.63 1564.95 7038.63 1552.51 Q7038.63 1540.04 7035.43 1533.84 Q7032.27 1527.6 7025.91 1527.6 M7025.91 1521.12 Q7036.08 1521.12 7041.42 1529.18 Q7046.81 1537.2 7046.81 1552.51 Q7046.81 1567.78 7041.42 1575.85 Q7036.08 1583.87 7025.91 1583.87 Q7015.74 1583.87 7010.35 1575.85 Q7005.01 1567.78 7005.01 1552.51 Q7005.01 1537.2 7010.35 1529.18 Q7015.74 1521.12 7025.91 1521.12 Z" fill="#000000" fill-rule="nonzero" fill-opacity="1"></path><path clip-path="url(#clip940)" d="M7062.61 1575.8 L7075.98 1575.8 L7075.98 1529.67 L7061.44 1532.58 L7061.44 1525.13 L7075.9 1522.21 L7084.08 1522.21 L7084.08 1575.8 L7097.45 1575.8 L7097.45 1582.69 L7062.61 1582.69 L7062.61 1575.8 Z" fill="#000000" fill-rule="nonzero" fill-opacity="1"></path><path clip-path="url(#clip940)" d="M7115.39 1575.8 L7128.76 1575.8 L7128.76 1529.67 L7114.22 1532.58 L7114.22 1525.13 L7128.68 1522.21 L7136.86 1522.21 L7136.86 1575.8 L7150.23 1575.8 L7150.23 1582.69 L7115.39 1582.69 L7115.39 1575.8 Z" fill="#000000" fill-rule="nonzero" fill-opacity="1"></path><path clip-path="url(#clip940)" d="M7184.26 1527.6 Q7177.94 1527.6 7174.74 1533.84 Q7171.58 1540.04 7171.58 1552.51 Q7171.58 1564.95 7174.74 1571.19 Q7177.94 1577.38 7184.26 1577.38 Q7190.62 1577.38 7193.78 1571.19 Q7196.98 1564.95 7196.98 1552.51 Q7196.98 1540.04 7193.78 1533.84 Q7190.62 1527.6 7184.26 1527.6 M7184.26 1521.12 Q7194.43 1521.12 7199.77 1529.18 Q7205.16 1537.2 7205.16 1552.51 Q7205.16 1567.78 7199.77 1575.85 Q7194.43 1583.87 7184.26 1583.87 Q7174.09 1583.87 7168.7 1575.85 Q7163.36 1567.78 7163.36 1552.51 Q7163.36 1537.2 7168.7 1529.18 Q7174.09 1521.12 7184.26 1521.12 Z" fill="#000000" fill-rule="nonzero" fill-opacity="1"></path><path clip-path="url(#clip940)" d="M7220.96 1575.8 L7234.33 1575.8 L7234.33 1529.67 L7219.79 1532.58 L7219.79 1525.13 L7234.25 1522.21 L7242.43 1522.21 L7242.43 1575.8 L7255.8 1575.8 L7255.8 1582.69 L7220.96 1582.69 L7220.96 1575.8 Z" fill="#000000" fill-rule="nonzero" fill-opacity="1"></path><path clip-path="url(#clip940)" d="M7288.41 1556.68 L7276.98 1593.63 L7270.1 1593.63 L7281.52 1556.68 L7270.1 1519.74 L7276.98 1519.74 L7288.41 1556.68 Z" fill="#000000" fill-rule="nonzero" fill-opacity="1"></path><path clip-path="url(#clip940)" d="M344.198 59.2353 L323.539 91.521 L344.198 91.521 L344.198 59.2353 M342.051 52.1057 L352.341 52.1057 L352.341 91.521 L360.969 91.521 L360.969 98.3265 L352.341 98.3265 L352.341 112.586 L344.198 112.586 L344.198 98.3265 L316.895 98.3265 L316.895 90.4273 L342.051 52.1057 Z" fill="#000000" fill-rule="nonzero" fill-opacity="1"></path><path clip-path="url(#clip940)" d="M391.999 83.8648 Q386.166 83.8648 382.803 86.984 Q379.482 90.1032 379.482 95.5719 Q379.482 101.041 382.803 104.16 Q386.166 107.279 391.999 107.279 Q397.832 107.279 401.195 104.16 Q404.557 101 404.557 95.5719 Q404.557 90.1032 401.195 86.984 Q397.873 83.8648 391.999 83.8648 M383.816 80.381 Q378.55 79.0847 375.593 75.4794 Q372.676 71.8741 372.676 66.689 Q372.676 59.4379 377.821 55.2249 Q383.006 51.012 391.999 51.012 Q401.033 51.012 406.177 55.2249 Q411.322 59.4379 411.322 66.689 Q411.322 71.8741 408.365 75.4794 Q405.448 79.0847 400.222 80.381 Q406.137 81.7583 409.418 85.7687 Q412.74 89.7791 412.74 95.5719 Q412.74 104.362 407.352 109.061 Q402.005 113.76 391.999 113.76 Q381.993 113.76 376.606 109.061 Q371.258 104.362 371.258 95.5719 Q371.258 89.7791 374.58 85.7687 Q377.902 81.7583 383.816 80.381 M380.818 67.4587 Q380.818 72.1577 383.735 74.7908 Q386.692 77.4239 391.999 77.4239 Q397.265 77.4239 400.222 74.7908 Q403.22 72.1577 403.22 67.4587 Q403.22 62.7596 400.222 60.1265 Q397.265 57.4934 391.999 57.4934 Q386.692 57.4934 383.735 60.1265 Q380.818 62.7596 380.818 67.4587 Z" fill="#000000" fill-rule="nonzero" fill-opacity="1"></path><path clip-path="url(#clip940)" d="M434.331 105.699 L462.89 105.699 L462.89 112.586 L424.487 112.586 L424.487 105.699 Q429.146 100.879 437.167 92.7768 Q445.228 84.6345 447.294 82.285 Q451.223 77.8695 452.763 74.8313 Q454.342 71.7526 454.342 68.7955 Q454.342 63.9749 450.94 60.9367 Q447.577 57.8985 442.149 57.8985 Q438.301 57.8985 434.007 59.2353 Q429.753 60.5721 424.892 63.2862 L424.892 55.0224 Q429.834 53.0374 434.128 52.0247 Q438.422 51.012 441.987 51.012 Q451.385 51.012 456.975 55.711 Q462.566 60.4101 462.566 68.2688 Q462.566 71.9957 461.148 75.3579 Q459.771 78.6797 456.084 83.2167 Q455.072 84.3914 449.643 90.0222 Q444.215 95.6124 434.331 105.699 Z" fill="#000000" fill-rule="nonzero" fill-opacity="1"></path><path clip-path="url(#clip940)" d="M480.309 111.33 L480.309 103.876 Q483.387 105.335 486.547 106.104 Q489.707 106.874 492.745 106.874 Q500.847 106.874 505.1 101.446 Q509.394 95.977 510.002 84.8775 Q507.652 88.3613 504.047 90.2247 Q500.442 92.0882 496.067 92.0882 Q486.993 92.0882 481.686 86.6194 Q476.42 81.1102 476.42 71.5906 Q476.42 62.2735 481.929 56.6427 Q487.438 51.012 496.593 51.012 Q507.085 51.012 512.594 59.0733 Q518.144 67.0941 518.144 82.4065 Q518.144 96.7062 511.339 105.254 Q504.574 113.76 493.11 113.76 Q490.031 113.76 486.871 113.153 Q483.711 112.545 480.309 111.33 M496.593 85.6877 Q502.103 85.6877 505.303 81.9204 Q508.544 78.153 508.544 71.5906 Q508.544 65.0686 505.303 61.3013 Q502.103 57.4934 496.593 57.4934 Q491.084 57.4934 487.843 61.3013 Q484.643 65.0686 484.643 71.5906 Q484.643 78.153 487.843 81.9204 Q491.084 85.6877 496.593 85.6877 Z" fill="#000000" fill-rule="nonzero" fill-opacity="1"></path><path clip-path="url(#clip940)" d="M1084.59 59.2353 L1063.93 91.521 L1084.59 91.521 L1084.59 59.2353 M1082.44 52.1057 L1092.73 52.1057 L1092.73 91.521 L1101.36 91.521 L1101.36 98.3265 L1092.73 98.3265 L1092.73 112.586 L1084.59 112.586 L1084.59 98.3265 L1057.28 98.3265 L1057.28 90.4273 L1082.44 52.1057 Z" fill="#000000" fill-rule="nonzero" fill-opacity="1"></path><path clip-path="url(#clip940)" d="M1121.94 105.699 L1150.5 105.699 L1150.5 112.586 L1112.09 112.586 L1112.09 105.699 Q1116.75 100.879 1124.77 92.7768 Q1132.83 84.6345 1134.9 82.285 Q1138.83 77.8695 1140.37 74.8313 Q1141.95 71.7526 1141.95 68.7955 Q1141.95 63.9749 1138.55 60.9367 Q1135.18 57.8985 1129.76 57.8985 Q1125.91 57.8985 1121.61 59.2353 Q1117.36 60.5721 1112.5 63.2862 L1112.5 55.0224 Q1117.44 53.0374 1121.73 52.0247 Q1126.03 51.012 1129.59 51.012 Q1138.99 51.012 1144.58 55.711 Q1150.17 60.4101 1150.17 68.2688 Q1150.17 71.9957 1148.75 75.3579 Q1147.38 78.6797 1143.69 83.2167 Q1142.68 84.3914 1137.25 90.0222 Q1131.82 95.6124 1121.94 105.699 Z" fill="#000000" fill-rule="nonzero" fill-opacity="1"></path><path clip-path="url(#clip940)" d="M1186.18 79.0847 Q1180.67 79.0847 1177.43 82.8521 Q1174.23 86.6194 1174.23 93.1819 Q1174.23 99.7039 1177.43 103.512 Q1180.67 107.279 1186.18 107.279 Q1191.69 107.279 1194.89 103.512 Q1198.13 99.7039 1198.13 93.1819 Q1198.13 86.6194 1194.89 82.8521 Q1191.69 79.0847 1186.18 79.0847 M1202.43 53.4425 L1202.43 60.8962 Q1199.35 59.4379 1196.19 58.6682 Q1193.07 57.8985 1189.99 57.8985 Q1181.89 57.8985 1177.6 63.3672 Q1173.34 68.836 1172.74 79.8949 Q1175.13 76.3706 1178.73 74.5072 Q1182.34 72.6033 1186.67 72.6033 Q1195.78 72.6033 1201.05 78.153 Q1206.36 83.6623 1206.36 93.1819 Q1206.36 102.499 1200.85 108.13 Q1195.34 113.76 1186.18 113.76 Q1175.69 113.76 1170.14 105.74 Q1164.59 97.6784 1164.59 82.4065 Q1164.59 68.0663 1171.4 59.5594 Q1178.2 51.012 1189.67 51.012 Q1192.75 51.012 1195.87 51.6196 Q1199.03 52.2273 1202.43 53.4425 Z" fill="#000000" fill-rule="nonzero" fill-opacity="1"></path><path clip-path="url(#clip940)" d="M1237.95 57.4934 Q1231.64 57.4934 1228.44 63.7318 Q1225.28 69.9297 1225.28 82.4065 Q1225.28 94.8428 1228.44 101.081 Q1231.64 107.279 1237.95 107.279 Q1244.31 107.279 1247.47 101.081 Q1250.67 94.8428 1250.67 82.4065 Q1250.67 69.9297 1247.47 63.7318 Q1244.31 57.4934 1237.95 57.4934 M1237.95 51.012 Q1248.12 51.012 1253.47 59.0733 Q1258.86 67.0941 1258.86 82.4065 Q1258.86 97.6784 1253.47 105.74 Q1248.12 113.76 1237.95 113.76 Q1227.79 113.76 1222.4 105.74 Q1217.05 97.6784 1217.05 82.4065 Q1217.05 67.0941 1222.4 59.0733 Q1227.79 51.012 1237.95 51.012 Z" fill="#000000" fill-rule="nonzero" fill-opacity="1"></path><path clip-path="url(#clip940)" d="M1825.89 79.9759 Q1831.76 81.2317 1835.04 85.2016 Q1838.36 89.1715 1838.36 95.0048 Q1838.36 103.957 1832.21 108.859 Q1826.05 113.76 1814.71 113.76 Q1810.9 113.76 1806.85 112.991 Q1802.84 112.262 1798.54 110.763 L1798.54 102.864 Q1801.95 104.848 1806 105.861 Q1810.05 106.874 1814.46 106.874 Q1822.16 106.874 1826.17 103.836 Q1830.22 100.798 1830.22 95.0048 Q1830.22 89.6576 1826.46 86.6599 Q1822.73 83.6218 1816.04 83.6218 L1809 83.6218 L1809 76.8973 L1816.37 76.8973 Q1822.4 76.8973 1825.6 74.5072 Q1828.8 72.0767 1828.8 67.5397 Q1828.8 62.8811 1825.48 60.4101 Q1822.2 57.8985 1816.04 57.8985 Q1812.68 57.8985 1808.83 58.6277 Q1804.99 59.3568 1800.37 60.8962 L1800.37 53.6046 Q1805.03 52.3083 1809.08 51.6601 Q1813.17 51.012 1816.77 51.012 Q1826.09 51.012 1831.52 55.2654 Q1836.95 59.4784 1836.95 66.689 Q1836.95 71.7121 1834.07 75.1959 Q1831.19 78.6391 1825.89 79.9759 Z" fill="#000000" fill-rule="nonzero" fill-opacity="1"></path><path clip-path="url(#clip940)" d="M1872.39 79.0847 Q1866.88 79.0847 1863.64 82.8521 Q1860.44 86.6194 1860.44 93.1819 Q1860.44 99.7039 1863.64 103.512 Q1866.88 107.279 1872.39 107.279 Q1877.9 107.279 1881.1 103.512 Q1884.34 99.7039 1884.34 93.1819 Q1884.34 86.6194 1881.1 82.8521 Q1877.9 79.0847 1872.39 79.0847 M1888.64 53.4425 L1888.64 60.8962 Q1885.56 59.4379 1882.4 58.6682 Q1879.28 57.8985 1876.2 57.8985 Q1868.1 57.8985 1863.8 63.3672 Q1859.55 68.836 1858.94 79.8949 Q1861.33 76.3706 1864.94 74.5072 Q1868.54 72.6033 1872.88 72.6033 Q1881.99 72.6033 1887.26 78.153 Q1892.57 83.6623 1892.57 93.1819 Q1892.57 102.499 1887.06 108.13 Q1881.55 113.76 1872.39 113.76 Q1861.9 113.76 1856.35 105.74 Q1850.8 97.6784 1850.8 82.4065 Q1850.8 68.0663 1857.61 59.5594 Q1864.41 51.012 1875.88 51.012 Q1878.95 51.012 1882.07 51.6196 Q1885.23 52.2273 1888.64 53.4425 Z" fill="#000000" fill-rule="nonzero" fill-opacity="1"></path><path clip-path="url(#clip940)" d="M1908.08 105.699 L1921.45 105.699 L1921.45 59.5594 L1906.91 62.476 L1906.91 55.0224 L1921.37 52.1057 L1929.55 52.1057 L1929.55 105.699 L1942.92 105.699 L1942.92 112.586 L1908.08 112.586 L1908.08 105.699 Z" fill="#000000" fill-rule="nonzero" fill-opacity="1"></path><path clip-path="url(#clip940)" d="M1981.93 59.2353 L1961.27 91.521 L1981.93 91.521 L1981.93 59.2353 M1979.78 52.1057 L1990.07 52.1057 L1990.07 91.521 L1998.7 91.521 L1998.7 98.3265 L1990.07 98.3265 L1990.07 112.586 L1981.93 112.586 L1981.93 98.3265 L1954.63 98.3265 L1954.63 90.4273 L1979.78 52.1057 Z" fill="#000000" fill-rule="nonzero" fill-opacity="1"></path><path clip-path="url(#clip940)" d="M2567.74 79.9759 Q2573.61 81.2317 2576.89 85.2016 Q2580.21 89.1715 2580.21 95.0048 Q2580.21 103.957 2574.05 108.859 Q2567.9 113.76 2556.56 113.76 Q2552.75 113.76 2548.7 112.991 Q2544.69 112.262 2540.39 110.763 L2540.39 102.864 Q2543.79 104.848 2547.85 105.861 Q2551.9 106.874 2556.31 106.874 Q2564.01 106.874 2568.02 103.836 Q2572.07 100.798 2572.07 95.0048 Q2572.07 89.6576 2568.3 86.6599 Q2564.58 83.6218 2557.89 83.6218 L2550.84 83.6218 L2550.84 76.8973 L2558.22 76.8973 Q2564.25 76.8973 2567.45 74.5072 Q2570.65 72.0767 2570.65 67.5397 Q2570.65 62.8811 2567.33 60.4101 Q2564.05 57.8985 2557.89 57.8985 Q2554.53 57.8985 2550.68 58.6277 Q2546.83 59.3568 2542.21 60.8962 L2542.21 53.6046 Q2546.87 52.3083 2550.92 51.6601 Q2555.02 51.012 2558.62 51.012 Q2567.94 51.012 2573.37 55.2654 Q2578.79 59.4784 2578.79 66.689 Q2578.79 71.7121 2575.92 75.1959 Q2573.04 78.6391 2567.74 79.9759 Z" fill="#000000" fill-rule="nonzero" fill-opacity="1"></path><path clip-path="url(#clip940)" d="M2614.24 79.0847 Q2608.73 79.0847 2605.49 82.8521 Q2602.29 86.6194 2602.29 93.1819 Q2602.29 99.7039 2605.49 103.512 Q2608.73 107.279 2614.24 107.279 Q2619.75 107.279 2622.95 103.512 Q2626.19 99.7039 2626.19 93.1819 Q2626.19 86.6194 2622.95 82.8521 Q2619.75 79.0847 2614.24 79.0847 M2630.48 53.4425 L2630.48 60.8962 Q2627.41 59.4379 2624.25 58.6682 Q2621.13 57.8985 2618.05 57.8985 Q2609.95 57.8985 2605.65 63.3672 Q2601.4 68.836 2600.79 79.8949 Q2603.18 76.3706 2606.79 74.5072 Q2610.39 72.6033 2614.73 72.6033 Q2623.84 72.6033 2629.11 78.153 Q2634.41 83.6623 2634.41 93.1819 Q2634.41 102.499 2628.9 108.13 Q2623.39 113.76 2614.24 113.76 Q2603.75 113.76 2598.2 105.74 Q2592.65 97.6784 2592.65 82.4065 Q2592.65 68.0663 2599.45 59.5594 Q2606.26 51.012 2617.72 51.012 Q2620.8 51.012 2623.92 51.6196 Q2627.08 52.2273 2630.48 53.4425 Z" fill="#000000" fill-rule="nonzero" fill-opacity="1"></path><path clip-path="url(#clip940)" d="M2666.01 57.4934 Q2659.69 57.4934 2656.49 63.7318 Q2653.33 69.9297 2653.33 82.4065 Q2653.33 94.8428 2656.49 101.081 Q2659.69 107.279 2666.01 107.279 Q2672.37 107.279 2675.53 101.081 Q2678.73 94.8428 2678.73 82.4065 Q2678.73 69.9297 2675.53 63.7318 Q2672.37 57.4934 2666.01 57.4934 M2666.01 51.012 Q2676.18 51.012 2681.53 59.0733 Q2686.91 67.0941 2686.91 82.4065 Q2686.91 97.6784 2681.53 105.74 Q2676.18 113.76 2666.01 113.76 Q2655.84 113.76 2650.45 105.74 Q2645.11 97.6784 2645.11 82.4065 Q2645.11 67.0941 2650.45 59.0733 Q2655.84 51.012 2666.01 51.012 Z" fill="#000000" fill-rule="nonzero" fill-opacity="1"></path><path clip-path="url(#clip940)" d="M2701.37 52.1057 L2733.5 52.1057 L2733.5 58.9923 L2708.87 58.9923 L2708.87 73.8186 Q2710.65 73.2109 2712.43 72.9274 Q2714.22 72.6033 2716 72.6033 Q2726.13 72.6033 2732.04 78.153 Q2737.95 83.7028 2737.95 93.1819 Q2737.95 102.945 2731.88 108.373 Q2725.8 113.76 2714.74 113.76 Q2710.93 113.76 2706.97 113.112 Q2703.04 112.464 2698.82 111.168 L2698.82 102.945 Q2702.47 104.93 2706.36 105.902 Q2710.25 106.874 2714.58 106.874 Q2721.59 106.874 2725.68 103.188 Q2729.77 99.5013 2729.77 93.1819 Q2729.77 86.8625 2725.68 83.1762 Q2721.59 79.4898 2714.58 79.4898 Q2711.3 79.4898 2708.02 80.219 Q2704.78 80.9482 2701.37 82.4875 L2701.37 52.1057 Z" fill="#000000" fill-rule="nonzero" fill-opacity="1"></path><path clip-path="url(#clip940)" d="M3306.99 79.9759 Q3312.86 81.2317 3316.15 85.2016 Q3319.47 89.1715 3319.47 95.0048 Q3319.47 103.957 3313.31 108.859 Q3307.15 113.76 3295.81 113.76 Q3292 113.76 3287.95 112.991 Q3283.94 112.262 3279.65 110.763 L3279.65 102.864 Q3283.05 104.848 3287.1 105.861 Q3291.15 106.874 3295.57 106.874 Q3303.26 106.874 3307.27 103.836 Q3311.32 100.798 3311.32 95.0048 Q3311.32 89.6576 3307.56 86.6599 Q3303.83 83.6218 3297.15 83.6218 L3290.1 83.6218 L3290.1 76.8973 L3297.47 76.8973 Q3303.51 76.8973 3306.71 74.5072 Q3309.91 72.0767 3309.91 67.5397 Q3309.91 62.8811 3306.59 60.4101 Q3303.3 57.8985 3297.15 57.8985 Q3293.78 57.8985 3289.94 58.6277 Q3286.09 59.3568 3281.47 60.8962 L3281.47 53.6046 Q3286.13 52.3083 3290.18 51.6601 Q3294.27 51.012 3297.88 51.012 Q3307.19 51.012 3312.62 55.2654 Q3318.05 59.4784 3318.05 66.689 Q3318.05 71.7121 3315.17 75.1959 Q3312.3 78.6391 3306.99 79.9759 Z" fill="#000000" fill-rule="nonzero" fill-opacity="1"></path><path clip-path="url(#clip940)" d="M3342.03 105.699 L3370.59 105.699 L3370.59 112.586 L3332.19 112.586 L3332.19 105.699 Q3336.85 100.879 3344.87 92.7768 Q3352.93 84.6345 3354.99 82.285 Q3358.92 77.8695 3360.46 74.8313 Q3362.04 71.7526 3362.04 68.7955 Q3362.04 63.9749 3358.64 60.9367 Q3355.28 57.8985 3349.85 57.8985 Q3346 57.8985 3341.71 59.2353 Q3337.45 60.5721 3332.59 63.2862 L3332.59 55.0224 Q3337.53 53.0374 3341.83 52.0247 Q3346.12 51.012 3349.69 51.012 Q3359.09 51.012 3364.68 55.711 Q3370.27 60.4101 3370.27 68.2688 Q3370.27 71.9957 3368.85 75.3579 Q3367.47 78.6797 3363.78 83.2167 Q3362.77 84.3914 3357.34 90.0222 Q3351.91 95.6124 3342.03 105.699 Z" fill="#000000" fill-rule="nonzero" fill-opacity="1"></path><path clip-path="url(#clip940)" d="M3385.7 52.1057 L3424.59 52.1057 L3424.59 55.5895 L3402.63 112.586 L3394.08 112.586 L3414.74 58.9923 L3385.7 58.9923 L3385.7 52.1057 Z" fill="#000000" fill-rule="nonzero" fill-opacity="1"></path><path clip-path="url(#clip940)" d="M3463.03 59.2353 L3442.37 91.521 L3463.03 91.521 L3463.03 59.2353 M3460.88 52.1057 L3471.17 52.1057 L3471.17 91.521 L3479.8 91.521 L3479.8 98.3265 L3471.17 98.3265 L3471.17 112.586 L3463.03 112.586 L3463.03 98.3265 L3435.73 98.3265 L3435.73 90.4273 L3460.88 52.1057 Z" fill="#000000" fill-rule="nonzero" fill-opacity="1"></path><path clip-path="url(#clip940)" d="M4030.43 105.699 L4058.99 105.699 L4058.99 112.586 L4020.58 112.586 L4020.58 105.699 Q4025.24 100.879 4033.26 92.7768 Q4041.32 84.6345 4043.39 82.285 Q4047.32 77.8695 4048.86 74.8313 Q4050.44 71.7526 4050.44 68.7955 Q4050.44 63.9749 4047.04 60.9367 Q4043.67 57.8985 4038.24 57.8985 Q4034.4 57.8985 4030.1 59.2353 Q4025.85 60.5721 4020.99 63.2862 L4020.99 55.0224 Q4025.93 53.0374 4030.22 52.0247 Q4034.52 51.012 4038.08 51.012 Q4047.48 51.012 4053.07 55.711 Q4058.66 60.4101 4058.66 68.2688 Q4058.66 71.9957 4057.24 75.3579 Q4055.87 78.6797 4052.18 83.2167 Q4051.17 84.3914 4045.74 90.0222 Q4040.31 95.6124 4030.43 105.699 Z" fill="#000000" fill-rule="nonzero" fill-opacity="1"></path><path clip-path="url(#clip940)" d="M4093.66 83.8648 Q4087.83 83.8648 4084.47 86.984 Q4081.14 90.1032 4081.14 95.5719 Q4081.14 101.041 4084.47 104.16 Q4087.83 107.279 4093.66 107.279 Q4099.49 107.279 4102.86 104.16 Q4106.22 101 4106.22 95.5719 Q4106.22 90.1032 4102.86 86.984 Q4099.53 83.8648 4093.66 83.8648 M4085.48 80.381 Q4080.21 79.0847 4077.25 75.4794 Q4074.34 71.8741 4074.34 66.689 Q4074.34 59.4379 4079.48 55.2249 Q4084.67 51.012 4093.66 51.012 Q4102.69 51.012 4107.84 55.2249 Q4112.98 59.4379 4112.98 66.689 Q4112.98 71.8741 4110.03 75.4794 Q4107.11 79.0847 4101.88 80.381 Q4107.8 81.7583 4111.08 85.7687 Q4114.4 89.7791 4114.4 95.5719 Q4114.4 104.362 4109.01 109.061 Q4103.67 113.76 4093.66 113.76 Q4083.66 113.76 4078.27 109.061 Q4072.92 104.362 4072.92 95.5719 Q4072.92 89.7791 4076.24 85.7687 Q4079.56 81.7583 4085.48 80.381 M4082.48 67.4587 Q4082.48 72.1577 4085.4 74.7908 Q4088.35 77.4239 4093.66 77.4239 Q4098.93 77.4239 4101.88 74.7908 Q4104.88 72.1577 4104.88 67.4587 Q4104.88 62.7596 4101.88 60.1265 Q4098.93 57.4934 4093.66 57.4934 Q4088.35 57.4934 4085.4 60.1265 Q4082.48 62.7596 4082.48 67.4587 Z" fill="#000000" fill-rule="nonzero" fill-opacity="1"></path><path clip-path="url(#clip940)" d="M4146.44 57.4934 Q4140.13 57.4934 4136.92 63.7318 Q4133.77 69.9297 4133.77 82.4065 Q4133.77 94.8428 4136.92 101.081 Q4140.13 107.279 4146.44 107.279 Q4152.8 107.279 4155.96 101.081 Q4159.16 94.8428 4159.16 82.4065 Q4159.16 69.9297 4155.96 63.7318 Q4152.8 57.4934 4146.44 57.4934 M4146.44 51.012 Q4156.61 51.012 4161.96 59.0733 Q4167.35 67.0941 4167.35 82.4065 Q4167.35 97.6784 4161.96 105.74 Q4156.61 113.76 4146.44 113.76 Q4136.28 113.76 4130.89 105.74 Q4125.54 97.6784 4125.54 82.4065 Q4125.54 67.0941 4130.89 59.0733 Q4136.28 51.012 4146.44 51.012 Z" fill="#000000" fill-rule="nonzero" fill-opacity="1"></path><path clip-path="url(#clip940)" d="M4199.23 83.8648 Q4193.39 83.8648 4190.03 86.984 Q4186.71 90.1032 4186.71 95.5719 Q4186.71 101.041 4190.03 104.16 Q4193.39 107.279 4199.23 107.279 Q4205.06 107.279 4208.42 104.16 Q4211.79 101 4211.79 95.5719 Q4211.79 90.1032 4208.42 86.984 Q4205.1 83.8648 4199.23 83.8648 M4191.04 80.381 Q4185.78 79.0847 4182.82 75.4794 Q4179.9 71.8741 4179.9 66.689 Q4179.9 59.4379 4185.05 55.2249 Q4190.23 51.012 4199.23 51.012 Q4208.26 51.012 4213.41 55.2249 Q4218.55 59.4379 4218.55 66.689 Q4218.55 71.8741 4215.59 75.4794 Q4212.68 79.0847 4207.45 80.381 Q4213.37 81.7583 4216.65 85.7687 Q4219.97 89.7791 4219.97 95.5719 Q4219.97 104.362 4214.58 109.061 Q4209.23 113.76 4199.23 113.76 Q4189.22 113.76 4183.83 109.061 Q4178.49 104.362 4178.49 95.5719 Q4178.49 89.7791 4181.81 85.7687 Q4185.13 81.7583 4191.04 80.381 M4188.05 67.4587 Q4188.05 72.1577 4190.96 74.7908 Q4193.92 77.4239 4199.23 77.4239 Q4204.49 77.4239 4207.45 74.7908 Q4210.45 72.1577 4210.45 67.4587 Q4210.45 62.7596 4207.45 60.1265 Q4204.49 57.4934 4199.23 57.4934 Q4193.92 57.4934 4190.96 60.1265 Q4188.05 62.7596 4188.05 67.4587 Z" fill="#000000" fill-rule="nonzero" fill-opacity="1"></path><path clip-path="url(#clip940)" d="M4771.97 105.699 L4800.53 105.699 L4800.53 112.586 L4762.13 112.586 L4762.13 105.699 Q4766.79 100.879 4774.81 92.7768 Q4782.87 84.6345 4784.93 82.285 Q4788.86 77.8695 4790.4 74.8313 Q4791.98 71.7526 4791.98 68.7955 Q4791.98 63.9749 4788.58 60.9367 Q4785.22 57.8985 4779.79 57.8985 Q4775.94 57.8985 4771.65 59.2353 Q4767.39 60.5721 4762.53 63.2862 L4762.53 55.0224 Q4767.47 53.0374 4771.77 52.0247 Q4776.06 51.012 4779.63 51.012 Q4789.02 51.012 4794.61 55.711 Q4800.2 60.4101 4800.2 68.2688 Q4800.2 71.9957 4798.79 75.3579 Q4797.41 78.6797 4793.72 83.2167 Q4792.71 84.3914 4787.28 90.0222 Q4781.85 95.6124 4771.97 105.699 Z" fill="#000000" fill-rule="nonzero" fill-opacity="1"></path><path clip-path="url(#clip940)" d="M4840.19 59.2353 L4819.53 91.521 L4840.19 91.521 L4840.19 59.2353 M4838.04 52.1057 L4848.33 52.1057 L4848.33 91.521 L4856.96 91.521 L4856.96 98.3265 L4848.33 98.3265 L4848.33 112.586 L4840.19 112.586 L4840.19 98.3265 L4812.88 98.3265 L4812.88 90.4273 L4838.04 52.1057 Z" fill="#000000" fill-rule="nonzero" fill-opacity="1"></path><path clip-path="url(#clip940)" d="M4889 79.0847 Q4883.49 79.0847 4880.25 82.8521 Q4877.05 86.6194 4877.05 93.1819 Q4877.05 99.7039 4880.25 103.512 Q4883.49 107.279 4889 107.279 Q4894.51 107.279 4897.71 103.512 Q4900.95 99.7039 4900.95 93.1819 Q4900.95 86.6194 4897.71 82.8521 Q4894.51 79.0847 4889 79.0847 M4905.24 53.4425 L4905.24 60.8962 Q4902.17 59.4379 4899.01 58.6682 Q4895.89 57.8985 4892.81 57.8985 Q4884.71 57.8985 4880.41 63.3672 Q4876.16 68.836 4875.55 79.8949 Q4877.94 76.3706 4881.55 74.5072 Q4885.15 72.6033 4889.49 72.6033 Q4898.6 72.6033 4903.87 78.153 Q4909.17 83.6623 4909.17 93.1819 Q4909.17 102.499 4903.67 108.13 Q4898.16 113.76 4889 113.76 Q4878.51 113.76 4872.96 105.74 Q4867.41 97.6784 4867.41 82.4065 Q4867.41 68.0663 4874.22 59.5594 Q4881.02 51.012 4892.48 51.012 Q4895.56 51.012 4898.68 51.6196 Q4901.84 52.2273 4905.24 53.4425 Z" fill="#000000" fill-rule="nonzero" fill-opacity="1"></path><path clip-path="url(#clip940)" d="M4924.69 105.699 L4938.06 105.699 L4938.06 59.5594 L4923.51 62.476 L4923.51 55.0224 L4937.98 52.1057 L4946.16 52.1057 L4946.16 105.699 L4959.53 105.699 L4959.53 112.586 L4924.69 112.586 L4924.69 105.699 Z" fill="#000000" fill-rule="nonzero" fill-opacity="1"></path><path clip-path="url(#clip940)" d="M5511.45 105.699 L5540.01 105.699 L5540.01 112.586 L5501.6 112.586 L5501.6 105.699 Q5506.26 100.879 5514.28 92.7768 Q5522.34 84.6345 5524.41 82.285 Q5528.34 77.8695 5529.88 74.8313 Q5531.46 71.7526 5531.46 68.7955 Q5531.46 63.9749 5528.06 60.9367 Q5524.69 57.8985 5519.27 57.8985 Q5515.42 57.8985 5511.12 59.2353 Q5506.87 60.5721 5502.01 63.2862 L5502.01 55.0224 Q5506.95 53.0374 5511.25 52.0247 Q5515.54 51.012 5519.1 51.012 Q5528.5 51.012 5534.09 55.711 Q5539.68 60.4101 5539.68 68.2688 Q5539.68 71.9957 5538.26 75.3579 Q5536.89 78.6797 5533.2 83.2167 Q5532.19 84.3914 5526.76 90.0222 Q5521.33 95.6124 5511.45 105.699 Z" fill="#000000" fill-rule="nonzero" fill-opacity="1"></path><path clip-path="url(#clip940)" d="M5579.67 59.2353 L5559.01 91.521 L5579.67 91.521 L5579.67 59.2353 M5577.52 52.1057 L5587.81 52.1057 L5587.81 91.521 L5596.44 91.521 L5596.44 98.3265 L5587.81 98.3265 L5587.81 112.586 L5579.67 112.586 L5579.67 98.3265 L5552.36 98.3265 L5552.36 90.4273 L5577.52 52.1057 Z" fill="#000000" fill-rule="nonzero" fill-opacity="1"></path><path clip-path="url(#clip940)" d="M5634.76 79.9759 Q5640.63 81.2317 5643.91 85.2016 Q5647.23 89.1715 5647.23 95.0048 Q5647.23 103.957 5641.08 108.859 Q5634.92 113.76 5623.58 113.76 Q5619.77 113.76 5615.72 112.991 Q5611.71 112.262 5607.41 110.763 L5607.41 102.864 Q5610.82 104.848 5614.87 105.861 Q5618.92 106.874 5623.33 106.874 Q5631.03 106.874 5635.04 103.836 Q5639.09 100.798 5639.09 95.0048 Q5639.09 89.6576 5635.32 86.6599 Q5631.6 83.6218 5624.91 83.6218 L5617.87 83.6218 L5617.87 76.8973 L5625.24 76.8973 Q5631.27 76.8973 5634.47 74.5072 Q5637.67 72.0767 5637.67 67.5397 Q5637.67 62.8811 5634.35 60.4101 Q5631.07 57.8985 5624.91 57.8985 Q5621.55 57.8985 5617.7 58.6277 Q5613.85 59.3568 5609.24 60.8962 L5609.24 53.6046 Q5613.9 52.3083 5617.95 51.6601 Q5622.04 51.012 5625.64 51.012 Q5634.96 51.012 5640.39 55.2654 Q5645.82 59.4784 5645.82 66.689 Q5645.82 71.7121 5642.94 75.1959 Q5640.06 78.6391 5634.76 79.9759 Z" fill="#000000" fill-rule="nonzero" fill-opacity="1"></path><path clip-path="url(#clip940)" d="M5680.25 57.4934 Q5673.93 57.4934 5670.73 63.7318 Q5667.57 69.9297 5667.57 82.4065 Q5667.57 94.8428 5670.73 101.081 Q5673.93 107.279 5680.25 107.279 Q5686.61 107.279 5689.77 101.081 Q5692.97 94.8428 5692.97 82.4065 Q5692.97 69.9297 5689.77 63.7318 Q5686.61 57.4934 5680.25 57.4934 M5680.25 51.012 Q5690.42 51.012 5695.76 59.0733 Q5701.15 67.0941 5701.15 82.4065 Q5701.15 97.6784 5695.76 105.74 Q5690.42 113.76 5680.25 113.76 Q5670.08 113.76 5664.69 105.74 Q5659.35 97.6784 5659.35 82.4065 Q5659.35 67.0941 5664.69 59.0733 Q5670.08 51.012 5680.25 51.012 Z" fill="#000000" fill-rule="nonzero" fill-opacity="1"></path><path clip-path="url(#clip940)" d="M6252 105.699 L6280.56 105.699 L6280.56 112.586 L6242.16 112.586 L6242.16 105.699 Q6246.81 100.879 6254.83 92.7768 Q6262.9 84.6345 6264.96 82.285 Q6268.89 77.8695 6270.43 74.8313 Q6272.01 71.7526 6272.01 68.7955 Q6272.01 63.9749 6268.61 60.9367 Q6265.25 57.8985 6259.82 57.8985 Q6255.97 57.8985 6251.67 59.2353 Q6247.42 60.5721 6242.56 63.2862 L6242.56 55.0224 Q6247.5 53.0374 6251.8 52.0247 Q6256.09 51.012 6259.66 51.012 Q6269.05 51.012 6274.64 55.711 Q6280.23 60.4101 6280.23 68.2688 Q6280.23 71.9957 6278.82 75.3579 Q6277.44 78.6797 6273.75 83.2167 Q6272.74 84.3914 6267.31 90.0222 Q6261.88 95.6124 6252 105.699 Z" fill="#000000" fill-rule="nonzero" fill-opacity="1"></path><path clip-path="url(#clip940)" d="M6320.22 59.2353 L6299.56 91.521 L6320.22 91.521 L6320.22 59.2353 M6318.07 52.1057 L6328.36 52.1057 L6328.36 91.521 L6336.99 91.521 L6336.99 98.3265 L6328.36 98.3265 L6328.36 112.586 L6320.22 112.586 L6320.22 98.3265 L6292.91 98.3265 L6292.91 90.4273 L6318.07 52.1057 Z" fill="#000000" fill-rule="nonzero" fill-opacity="1"></path><path clip-path="url(#clip940)" d="M6375.31 79.9759 Q6381.18 81.2317 6384.46 85.2016 Q6387.79 89.1715 6387.79 95.0048 Q6387.79 103.957 6381.63 108.859 Q6375.47 113.76 6364.13 113.76 Q6360.32 113.76 6356.27 112.991 Q6352.26 112.262 6347.96 110.763 L6347.96 102.864 Q6351.37 104.848 6355.42 105.861 Q6359.47 106.874 6363.89 106.874 Q6371.58 106.874 6375.59 103.836 Q6379.64 100.798 6379.64 95.0048 Q6379.64 89.6576 6375.88 86.6599 Q6372.15 83.6218 6365.46 83.6218 L6358.42 83.6218 L6358.42 76.8973 L6365.79 76.8973 Q6371.82 76.8973 6375.03 74.5072 Q6378.23 72.0767 6378.23 67.5397 Q6378.23 62.8811 6374.9 60.4101 Q6371.62 57.8985 6365.46 57.8985 Q6362.1 57.8985 6358.25 58.6277 Q6354.41 59.3568 6349.79 60.8962 L6349.79 53.6046 Q6354.45 52.3083 6358.5 51.6601 Q6362.59 51.012 6366.19 51.012 Q6375.51 51.012 6380.94 55.2654 Q6386.37 59.4784 6386.37 66.689 Q6386.37 71.7121 6383.49 75.1959 Q6380.62 78.6391 6375.31 79.9759 Z" fill="#000000" fill-rule="nonzero" fill-opacity="1"></path><path clip-path="url(#clip940)" d="M6420.8 57.4934 Q6414.48 57.4934 6411.28 63.7318 Q6408.12 69.9297 6408.12 82.4065 Q6408.12 94.8428 6411.28 101.081 Q6414.48 107.279 6420.8 107.279 Q6427.16 107.279 6430.32 101.081 Q6433.52 94.8428 6433.52 82.4065 Q6433.52 69.9297 6430.32 63.7318 Q6427.16 57.4934 6420.8 57.4934 M6420.8 51.012 Q6430.97 51.012 6436.32 59.0733 Q6441.7 67.0941 6441.7 82.4065 Q6441.7 97.6784 6436.32 105.74 Q6430.97 113.76 6420.8 113.76 Q6410.63 113.76 6405.24 105.74 Q6399.9 97.6784 6399.9 82.4065 Q6399.9 67.0941 6405.24 59.0733 Q6410.63 51.012 6420.8 51.012 Z" fill="#000000" fill-rule="nonzero" fill-opacity="1"></path><path clip-path="url(#clip940)" d="M6993.42 105.699 L7021.98 105.699 L7021.98 112.586 L6983.58 112.586 L6983.58 105.699 Q6988.24 100.879 6996.26 92.7768 Q7004.32 84.6345 7006.38 82.285 Q7010.31 77.8695 7011.85 74.8313 Q7013.43 71.7526 7013.43 68.7955 Q7013.43 63.9749 7010.03 60.9367 Q7006.67 57.8985 7001.24 57.8985 Q6997.39 57.8985 6993.1 59.2353 Q6988.84 60.5721 6983.98 63.2862 L6983.98 55.0224 Q6988.92 53.0374 6993.22 52.0247 Q6997.51 51.012 7001.08 51.012 Q7010.48 51.012 7016.07 55.711 Q7021.66 60.4101 7021.66 68.2688 Q7021.66 71.9957 7020.24 75.3579 Q7018.86 78.6797 7015.17 83.2167 Q7014.16 84.3914 7008.73 90.0222 Q7003.31 95.6124 6993.42 105.699 Z" fill="#000000" fill-rule="nonzero" fill-opacity="1"></path><path clip-path="url(#clip940)" d="M7063.95 79.9759 Q7069.82 81.2317 7073.1 85.2016 Q7076.42 89.1715 7076.42 95.0048 Q7076.42 103.957 7070.27 108.859 Q7064.11 113.76 7052.77 113.76 Q7048.96 113.76 7044.91 112.991 Q7040.9 112.262 7036.6 110.763 L7036.6 102.864 Q7040.01 104.848 7044.06 105.861 Q7048.11 106.874 7052.52 106.874 Q7060.22 106.874 7064.23 103.836 Q7068.28 100.798 7068.28 95.0048 Q7068.28 89.6576 7064.51 86.6599 Q7060.79 83.6218 7054.1 83.6218 L7047.06 83.6218 L7047.06 76.8973 L7054.43 76.8973 Q7060.46 76.8973 7063.66 74.5072 Q7066.86 72.0767 7066.86 67.5397 Q7066.86 62.8811 7063.54 60.4101 Q7060.26 57.8985 7054.1 57.8985 Q7050.74 57.8985 7046.89 58.6277 Q7043.04 59.3568 7038.43 60.8962 L7038.43 53.6046 Q7043.09 52.3083 7047.14 51.6601 Q7051.23 51.012 7054.83 51.012 Q7064.15 51.012 7069.58 55.2654 Q7075.01 59.4784 7075.01 66.689 Q7075.01 71.7121 7072.13 75.1959 Q7069.25 78.6391 7063.95 79.9759 Z" fill="#000000" fill-rule="nonzero" fill-opacity="1"></path><path clip-path="url(#clip940)" d="M7116.73 79.9759 Q7122.6 81.2317 7125.89 85.2016 Q7129.21 89.1715 7129.21 95.0048 Q7129.21 103.957 7123.05 108.859 Q7116.89 113.76 7105.55 113.76 Q7101.74 113.76 7097.69 112.991 Q7093.68 112.262 7089.39 110.763 L7089.39 102.864 Q7092.79 104.848 7096.84 105.861 Q7100.89 106.874 7105.31 106.874 Q7113 106.874 7117.01 103.836 Q7121.07 100.798 7121.07 95.0048 Q7121.07 89.6576 7117.3 86.6599 Q7113.57 83.6218 7106.89 83.6218 L7099.84 83.6218 L7099.84 76.8973 L7107.21 76.8973 Q7113.25 76.8973 7116.45 74.5072 Q7119.65 72.0767 7119.65 67.5397 Q7119.65 62.8811 7116.33 60.4101 Q7113.04 57.8985 7106.89 57.8985 Q7103.52 57.8985 7099.68 58.6277 Q7095.83 59.3568 7091.21 60.8962 L7091.21 53.6046 Q7095.87 52.3083 7099.92 51.6601 Q7104.01 51.012 7107.62 51.012 Q7116.93 51.012 7122.36 55.2654 Q7127.79 59.4784 7127.79 66.689 Q7127.79 71.7121 7124.91 75.1959 Q7122.04 78.6391 7116.73 79.9759 Z" fill="#000000" fill-rule="nonzero" fill-opacity="1"></path><path clip-path="url(#clip940)" d="M7144.8 52.1057 L7176.93 52.1057 L7176.93 58.9923 L7152.3 58.9923 L7152.3 73.8186 Q7154.08 73.2109 7155.86 72.9274 Q7157.64 72.6033 7159.43 72.6033 Q7169.55 72.6033 7175.47 78.153 Q7181.38 83.7028 7181.38 93.1819 Q7181.38 102.945 7175.31 108.373 Q7169.23 113.76 7158.17 113.76 Q7154.36 113.76 7150.39 113.112 Q7146.46 112.464 7142.25 111.168 L7142.25 102.945 Q7145.9 104.93 7149.79 105.902 Q7153.67 106.874 7158.01 106.874 Q7165.02 106.874 7169.11 103.188 Q7173.2 99.5013 7173.2 93.1819 Q7173.2 86.8625 7169.11 83.1762 Q7165.02 79.4898 7158.01 79.4898 Q7154.73 79.4898 7151.45 80.219 Q7148.21 80.9482 7144.8 82.4875 L7144.8 52.1057 Z" fill="#000000" fill-rule="nonzero" fill-opacity="1"></path><path clip-path="url(#clip940)" d="M5953.04 235.039 L7205.91 235.039 L7205.91 131.359 L5953.04 131.359  Z" fill="#000000" fill-rule="evenodd" fill-opacity="0"></path>
<polyline clip-path="url(#clip940)" style="stroke:#000000; stroke-linecap:round; stroke-linejoin:round; stroke-width:4; stroke-opacity:0; fill:none" points="5953.04,235.039 7205.91,235.039 7205.91,131.359 5953.04,131.359 5953.04,235.039 "></polyline>
<path clip-path="url(#clip940)" d="M6035.33 203.935 L6529.03 203.935 L6529.03 162.463 L6035.33 162.463 L6035.33 203.935  Z" fill="#ff0000" fill-rule="evenodd" fill-opacity="1"></path>
<polyline clip-path="url(#clip940)" style="stroke:#add8e6; stroke-linecap:round; stroke-linejoin:round; stroke-width:4; stroke-opacity:1; fill:none" points="6035.33,203.935 6529.03,203.935 6529.03,162.463 6035.33,162.463 6035.33,203.935 "></polyline>
<path clip-path="url(#clip940)" d="M6611.31 165.919 L6631.17 165.919 L6631.17 169.855 L6615.99 169.855 L6615.99 180.04 L6629.69 180.04 L6629.69 183.975 L6615.99 183.975 L6615.99 200.479 L6611.31 200.479 L6611.31 165.919 Z" fill="#000000" fill-rule="nonzero" fill-opacity="1"></path><path clip-path="url(#clip940)" d="M6646.75 177.54 Q6643.32 177.54 6641.33 180.225 Q6639.34 182.887 6639.34 187.54 Q6639.34 192.192 6641.31 194.878 Q6643.3 197.54 6646.75 197.54 Q6650.15 197.54 6652.14 194.854 Q6654.13 192.169 6654.13 187.54 Q6654.13 182.933 6652.14 180.248 Q6650.15 177.54 6646.75 177.54 M6646.75 173.929 Q6652.31 173.929 6655.48 177.54 Q6658.65 181.151 6658.65 187.54 Q6658.65 193.905 6655.48 197.54 Q6652.31 201.151 6646.75 201.151 Q6641.17 201.151 6638 197.54 Q6634.85 193.905 6634.85 187.54 Q6634.85 181.151 6638 177.54 Q6641.17 173.929 6646.75 173.929 Z" fill="#000000" fill-rule="nonzero" fill-opacity="1"></path><path clip-path="url(#clip940)" d="M6665.27 190.248 L6665.27 174.554 L6669.53 174.554 L6669.53 190.086 Q6669.53 193.766 6670.96 195.618 Q6672.4 197.447 6675.27 197.447 Q6678.72 197.447 6680.71 195.248 Q6682.72 193.049 6682.72 189.253 L6682.72 174.554 L6686.98 174.554 L6686.98 200.479 L6682.72 200.479 L6682.72 196.498 Q6681.17 198.859 6679.11 200.016 Q6677.07 201.151 6674.37 201.151 Q6669.9 201.151 6667.58 198.373 Q6665.27 195.595 6665.27 190.248 M6675.99 173.929 L6675.99 173.929 Z" fill="#000000" fill-rule="nonzero" fill-opacity="1"></path><path clip-path="url(#clip940)" d="M6717.3 184.831 L6717.3 200.479 L6713.05 200.479 L6713.05 184.97 Q6713.05 181.29 6711.61 179.461 Q6710.18 177.632 6707.3 177.632 Q6703.86 177.632 6701.87 179.831 Q6699.87 182.03 6699.87 185.827 L6699.87 200.479 L6695.59 200.479 L6695.59 174.554 L6699.87 174.554 L6699.87 178.581 Q6701.4 176.243 6703.46 175.086 Q6705.55 173.929 6708.25 173.929 Q6712.72 173.929 6715.01 176.706 Q6717.3 179.461 6717.3 184.831 Z" fill="#000000" fill-rule="nonzero" fill-opacity="1"></path><path clip-path="url(#clip940)" d="M6742.86 178.489 L6742.86 164.461 L6747.12 164.461 L6747.12 200.479 L6742.86 200.479 L6742.86 196.591 Q6741.52 198.905 6739.46 200.04 Q6737.42 201.151 6734.55 201.151 Q6729.85 201.151 6726.89 197.401 Q6723.95 193.651 6723.95 187.54 Q6723.95 181.429 6726.89 177.679 Q6729.85 173.929 6734.55 173.929 Q6737.42 173.929 6739.46 175.063 Q6741.52 176.174 6742.86 178.489 M6728.35 187.54 Q6728.35 192.239 6730.27 194.924 Q6732.21 197.586 6735.59 197.586 Q6738.97 197.586 6740.92 194.924 Q6742.86 192.239 6742.86 187.54 Q6742.86 182.841 6740.92 180.179 Q6738.97 177.493 6735.59 177.493 Q6732.21 177.493 6730.27 180.179 Q6728.35 182.841 6728.35 187.54 Z" fill="#000000" fill-rule="nonzero" fill-opacity="1"></path><path clip-path="url(#clip940)" d="M6770.96 174.554 L6775.22 174.554 L6775.22 200.479 L6770.96 200.479 L6770.96 174.554 M6770.96 164.461 L6775.22 164.461 L6775.22 169.855 L6770.96 169.855 L6770.96 164.461 Z" fill="#000000" fill-rule="nonzero" fill-opacity="1"></path><path clip-path="url(#clip940)" d="M6805.68 184.831 L6805.68 200.479 L6801.42 200.479 L6801.42 184.97 Q6801.42 181.29 6799.99 179.461 Q6798.55 177.632 6795.68 177.632 Q6792.23 177.632 6790.24 179.831 Q6788.25 182.03 6788.25 185.827 L6788.25 200.479 L6783.97 200.479 L6783.97 174.554 L6788.25 174.554 L6788.25 178.581 Q6789.78 176.243 6791.84 175.086 Q6793.92 173.929 6796.63 173.929 Q6801.1 173.929 6803.39 176.706 Q6805.68 179.461 6805.68 184.831 Z" fill="#000000" fill-rule="nonzero" fill-opacity="1"></path><path clip-path="url(#clip940)" d="M6830.66 196.544 L6838.3 196.544 L6838.3 170.179 L6829.99 171.845 L6829.99 167.586 L6838.25 165.919 L6842.93 165.919 L6842.93 196.544 L6850.57 196.544 L6850.57 200.479 L6830.66 200.479 L6830.66 196.544 Z" fill="#000000" fill-rule="nonzero" fill-opacity="1"></path><path clip-path="url(#clip940)" d="M6870.01 168.998 Q6866.4 168.998 6864.57 172.563 Q6862.77 176.105 6862.77 183.234 Q6862.77 190.341 6864.57 193.905 Q6866.4 197.447 6870.01 197.447 Q6873.65 197.447 6875.45 193.905 Q6877.28 190.341 6877.28 183.234 Q6877.28 176.105 6875.45 172.563 Q6873.65 168.998 6870.01 168.998 M6870.01 165.294 Q6875.82 165.294 6878.88 169.901 Q6881.96 174.484 6881.96 183.234 Q6881.96 191.961 6878.88 196.567 Q6875.82 201.151 6870.01 201.151 Q6864.2 201.151 6861.12 196.567 Q6858.07 191.961 6858.07 183.234 Q6858.07 174.484 6861.12 169.901 Q6864.2 165.294 6870.01 165.294 Z" fill="#000000" fill-rule="nonzero" fill-opacity="1"></path><path clip-path="url(#clip940)" d="M6900.17 168.998 Q6896.56 168.998 6894.73 172.563 Q6892.93 176.105 6892.93 183.234 Q6892.93 190.341 6894.73 193.905 Q6896.56 197.447 6900.17 197.447 Q6903.81 197.447 6905.61 193.905 Q6907.44 190.341 6907.44 183.234 Q6907.44 176.105 6905.61 172.563 Q6903.81 168.998 6900.17 168.998 M6900.17 165.294 Q6905.98 165.294 6909.04 169.901 Q6912.12 174.484 6912.12 183.234 Q6912.12 191.961 6909.04 196.567 Q6905.98 201.151 6900.17 201.151 Q6894.36 201.151 6891.29 196.567 Q6888.23 191.961 6888.23 183.234 Q6888.23 174.484 6891.29 169.901 Q6894.36 165.294 6900.17 165.294 Z" fill="#000000" fill-rule="nonzero" fill-opacity="1"></path><path clip-path="url(#clip940)" d="M6930.34 168.998 Q6926.72 168.998 6924.9 172.563 Q6923.09 176.105 6923.09 183.234 Q6923.09 190.341 6924.9 193.905 Q6926.72 197.447 6930.34 197.447 Q6933.97 197.447 6935.78 193.905 Q6937.6 190.341 6937.6 183.234 Q6937.6 176.105 6935.78 172.563 Q6933.97 168.998 6930.34 168.998 M6930.34 165.294 Q6936.15 165.294 6939.2 169.901 Q6942.28 174.484 6942.28 183.234 Q6942.28 191.961 6939.2 196.567 Q6936.15 201.151 6930.34 201.151 Q6924.53 201.151 6921.45 196.567 Q6918.39 191.961 6918.39 183.234 Q6918.39 174.484 6921.45 169.901 Q6924.53 165.294 6930.34 165.294 Z" fill="#000000" fill-rule="nonzero" fill-opacity="1"></path><path clip-path="url(#clip940)" d="M6960.5 168.998 Q6956.89 168.998 6955.06 172.563 Q6953.25 176.105 6953.25 183.234 Q6953.25 190.341 6955.06 193.905 Q6956.89 197.447 6960.5 197.447 Q6964.13 197.447 6965.94 193.905 Q6967.77 190.341 6967.77 183.234 Q6967.77 176.105 6965.94 172.563 Q6964.13 168.998 6960.5 168.998 M6960.5 165.294 Q6966.31 165.294 6969.36 169.901 Q6972.44 174.484 6972.44 183.234 Q6972.44 191.961 6969.36 196.567 Q6966.31 201.151 6960.5 201.151 Q6954.69 201.151 6951.61 196.567 Q6948.55 191.961 6948.55 183.234 Q6948.55 174.484 6951.61 169.901 Q6954.69 165.294 6960.5 165.294 Z" fill="#000000" fill-rule="nonzero" fill-opacity="1"></path><path clip-path="url(#clip940)" d="M6990.66 168.998 Q6987.05 168.998 6985.22 172.563 Q6983.41 176.105 6983.41 183.234 Q6983.41 190.341 6985.22 193.905 Q6987.05 197.447 6990.66 197.447 Q6994.29 197.447 6996.1 193.905 Q6997.93 190.341 6997.93 183.234 Q6997.93 176.105 6996.1 172.563 Q6994.29 168.998 6990.66 168.998 M6990.66 165.294 Q6996.47 165.294 6999.53 169.901 Q7002.6 174.484 7002.6 183.234 Q7002.6 191.961 6999.53 196.567 Q6996.47 201.151 6990.66 201.151 Q6984.85 201.151 6981.77 196.567 Q6978.72 191.961 6978.72 183.234 Q6978.72 174.484 6981.77 169.901 Q6984.85 165.294 6990.66 165.294 Z" fill="#000000" fill-rule="nonzero" fill-opacity="1"></path><path clip-path="url(#clip940)" d="M7029.5 167.193 L7029.5 174.554 L7038.28 174.554 L7038.28 177.864 L7029.5 177.864 L7029.5 191.938 Q7029.5 195.109 7030.36 196.012 Q7031.24 196.915 7033.9 196.915 L7038.28 196.915 L7038.28 200.479 L7033.9 200.479 Q7028.97 200.479 7027.09 198.651 Q7025.22 196.799 7025.22 191.938 L7025.22 177.864 L7022.09 177.864 L7022.09 174.554 L7025.22 174.554 L7025.22 167.193 L7029.5 167.193 Z" fill="#000000" fill-rule="nonzero" fill-opacity="1"></path><path clip-path="url(#clip940)" d="M7058.9 178.535 Q7058.18 178.118 7057.33 177.933 Q7056.49 177.725 7055.47 177.725 Q7051.86 177.725 7049.92 180.086 Q7048 182.424 7048 186.822 L7048 200.479 L7043.72 200.479 L7043.72 174.554 L7048 174.554 L7048 178.581 Q7049.34 176.22 7051.49 175.086 Q7053.65 173.929 7056.72 173.929 Q7057.16 173.929 7057.7 173.998 Q7058.23 174.044 7058.88 174.16 L7058.9 178.535 Z" fill="#000000" fill-rule="nonzero" fill-opacity="1"></path><path clip-path="url(#clip940)" d="M7063.37 174.554 L7067.63 174.554 L7067.63 200.479 L7063.37 200.479 L7063.37 174.554 M7063.37 164.461 L7067.63 164.461 L7067.63 169.855 L7063.37 169.855 L7063.37 164.461 Z" fill="#000000" fill-rule="nonzero" fill-opacity="1"></path><path clip-path="url(#clip940)" d="M7098.71 186.452 L7098.71 188.535 L7079.13 188.535 Q7079.41 192.933 7081.77 195.248 Q7084.15 197.54 7088.39 197.54 Q7090.84 197.54 7093.14 196.938 Q7095.45 196.336 7097.72 195.132 L7097.72 199.16 Q7095.43 200.132 7093.02 200.641 Q7090.61 201.151 7088.14 201.151 Q7081.93 201.151 7078.3 197.54 Q7074.69 193.929 7074.69 187.771 Q7074.69 181.405 7078.11 177.679 Q7081.56 173.929 7087.4 173.929 Q7092.63 173.929 7095.66 177.308 Q7098.71 180.665 7098.71 186.452 M7094.46 185.202 Q7094.41 181.706 7092.49 179.623 Q7090.59 177.54 7087.44 177.54 Q7083.88 177.54 7081.72 179.554 Q7079.59 181.567 7079.27 185.225 L7094.46 185.202 Z" fill="#000000" fill-rule="nonzero" fill-opacity="1"></path><path clip-path="url(#clip940)" d="M7122.23 175.317 L7122.23 179.345 Q7120.43 178.419 7118.48 177.956 Q7116.54 177.493 7114.46 177.493 Q7111.28 177.493 7109.69 178.466 Q7108.11 179.438 7108.11 181.382 Q7108.11 182.864 7109.25 183.72 Q7110.38 184.554 7113.81 185.317 L7115.27 185.642 Q7119.8 186.614 7121.7 188.396 Q7123.62 190.155 7123.62 193.327 Q7123.62 196.938 7120.75 199.044 Q7117.9 201.151 7112.9 201.151 Q7110.82 201.151 7108.55 200.734 Q7106.31 200.341 7103.81 199.53 L7103.81 195.132 Q7106.17 196.359 7108.46 196.984 Q7110.75 197.586 7113 197.586 Q7116.01 197.586 7117.63 196.567 Q7119.25 195.526 7119.25 193.651 Q7119.25 191.915 7118.07 190.989 Q7116.91 190.063 7112.95 189.206 L7111.47 188.859 Q7107.51 188.026 7105.75 186.313 Q7103.99 184.577 7103.99 181.567 Q7103.99 177.91 7106.59 175.919 Q7109.18 173.929 7113.95 173.929 Q7116.31 173.929 7118.39 174.276 Q7120.47 174.623 7122.23 175.317 Z" fill="#000000" fill-rule="nonzero" fill-opacity="1"></path></svg>