<svg xmlns="http://www.w3.org/2000/svg" xmlns:xlink="http://www.w3.org/1999/xlink" width="1875" height="400" viewBox="0 0 7500 1600">
<defs>
  <clipPath id="clip970">
    <rect x="0" y="0" width="7500" height="1600"></rect>
  </clipPath>
</defs>
<path clip-path="url(#clip970)" d="M0 1600 L7500 1600 L7500 0 L0 0  Z" fill="#ffffff" fill-rule="evenodd" fill-opacity="1"></path>
<defs>
  <clipPath id="clip971">
    <rect x="1500" y="0" width="5251" height="1600"></rect>
  </clipPath>
</defs>
<path clip-path="url(#clip970)" d="M47.2441 1552.76 L7452.76 1552.76 L7452.76 82.3457 L47.2441 82.3457  Z" fill="#ffffff" fill-rule="evenodd" fill-opacity="1"></path>
<defs>
  <clipPath id="clip972">
    <rect x="47" y="82" width="7407" height="1471"></rect>
  </clipPath>
</defs>
<path clip-path="url(#clip970)" d="M3542.41 12.096 L3550.59 12.096 L3550.59 36.8875 L3580.33 36.8875 L3580.33 12.096 L3588.51 12.096 L3588.51 72.576 L3580.33 72.576 L3580.33 43.7741 L3550.59 43.7741 L3550.59 72.576 L3542.41 72.576 L3542.41 12.096 Z" fill="#000000" fill-rule="nonzero" fill-opacity="1"></path><path clip-path="url(#clip970)" d="M3604.47 27.2059 L3611.92 27.2059 L3611.92 72.576 L3604.47 72.576 L3604.47 27.2059 M3604.47 9.54393 L3611.92 9.54393 L3611.92 18.9825 L3604.47 18.9825 L3604.47 9.54393 Z" fill="#000000" fill-rule="nonzero" fill-opacity="1"></path><path clip-path="url(#clip970)" d="M3656.44 28.5427 L3656.44 35.5912 Q3653.28 33.9709 3649.88 33.1607 Q3646.48 32.3505 3642.83 32.3505 Q3637.28 32.3505 3634.49 34.0519 Q3631.73 35.7533 3631.73 39.156 Q3631.73 41.7486 3633.72 43.2475 Q3635.7 44.7058 3641.7 46.0426 L3644.25 46.6097 Q3652.19 48.3111 3655.51 51.4303 Q3658.87 54.509 3658.87 60.0587 Q3658.87 66.3781 3653.85 70.0644 Q3648.87 73.7508 3640.12 73.7508 Q3636.47 73.7508 3632.5 73.0216 Q3628.57 72.3329 3624.2 70.9151 L3624.2 63.2184 Q3628.33 65.3654 3632.34 66.4591 Q3636.35 67.5124 3640.28 67.5124 Q3645.55 67.5124 3648.38 65.73 Q3651.22 63.9071 3651.22 60.6258 Q3651.22 57.5877 3649.15 55.9673 Q3647.13 54.3469 3640.2 52.8481 L3637.61 52.2405 Q3630.68 50.7821 3627.6 47.7845 Q3624.52 44.7463 3624.52 39.4801 Q3624.52 33.0797 3629.06 29.5959 Q3633.6 26.1121 3641.94 26.1121 Q3646.07 26.1121 3649.72 26.7198 Q3653.37 27.3274 3656.44 28.5427 Z" fill="#000000" fill-rule="nonzero" fill-opacity="1"></path><path clip-path="url(#clip970)" d="M3678.12 14.324 L3678.12 27.2059 L3693.47 27.2059 L3693.47 32.9987 L3678.12 32.9987 L3678.12 57.6282 Q3678.12 63.1779 3679.62 64.7578 Q3681.15 66.3376 3685.81 66.3376 L3693.47 66.3376 L3693.47 72.576 L3685.81 72.576 Q3677.18 72.576 3673.9 69.3758 Q3670.62 66.1351 3670.62 57.6282 L3670.62 32.9987 L3665.15 32.9987 L3665.15 27.2059 L3670.62 27.2059 L3670.62 14.324 L3678.12 14.324 Z" fill="#000000" fill-rule="nonzero" fill-opacity="1"></path><path clip-path="url(#clip970)" d="M3720.85 32.4315 Q3714.86 32.4315 3711.37 37.1306 Q3707.89 41.7891 3707.89 49.9314 Q3707.89 58.0738 3711.33 62.7728 Q3714.82 67.4314 3720.85 67.4314 Q3726.81 67.4314 3730.29 62.7323 Q3733.78 58.0333 3733.78 49.9314 Q3733.78 41.8701 3730.29 37.1711 Q3726.81 32.4315 3720.85 32.4315 M3720.85 26.1121 Q3730.58 26.1121 3736.13 32.4315 Q3741.68 38.7509 3741.68 49.9314 Q3741.68 61.0714 3736.13 67.4314 Q3730.58 73.7508 3720.85 73.7508 Q3711.09 73.7508 3705.54 67.4314 Q3700.03 61.0714 3700.03 49.9314 Q3700.03 38.7509 3705.54 32.4315 Q3711.09 26.1121 3720.85 26.1121 Z" fill="#000000" fill-rule="nonzero" fill-opacity="1"></path><path clip-path="url(#clip970)" d="M3783.89 49.3643 Q3783.89 41.2625 3780.52 36.8065 Q3777.2 32.3505 3771.17 32.3505 Q3765.17 32.3505 3761.81 36.8065 Q3758.49 41.2625 3758.49 49.3643 Q3758.49 57.4256 3761.81 61.8816 Q3765.17 66.3376 3771.17 66.3376 Q3777.2 66.3376 3780.52 61.8816 Q3783.89 57.4256 3783.89 49.3643 M3791.34 66.9452 Q3791.34 78.5308 3786.19 84.1616 Q3781.05 89.8329 3770.44 89.8329 Q3766.51 89.8329 3763.02 89.2252 Q3759.54 88.6581 3756.26 87.4428 L3756.26 80.1917 Q3759.54 81.9741 3762.74 82.8248 Q3765.94 83.6755 3769.26 83.6755 Q3776.59 83.6755 3780.24 79.8271 Q3783.89 76.0193 3783.89 68.282 L3783.89 64.5957 Q3781.58 68.6061 3777.97 70.5911 Q3774.37 72.576 3769.34 72.576 Q3761 72.576 3755.89 66.2161 Q3750.79 59.8562 3750.79 49.3643 Q3750.79 38.832 3755.89 32.472 Q3761 26.1121 3769.34 26.1121 Q3774.37 26.1121 3777.97 28.0971 Q3781.58 30.082 3783.89 34.0924 L3783.89 27.2059 L3791.34 27.2059 L3791.34 66.9452 Z" fill="#000000" fill-rule="nonzero" fill-opacity="1"></path><path clip-path="url(#clip970)" d="M3832.98 34.1734 Q3831.73 33.4443 3830.23 33.1202 Q3828.77 32.7556 3826.99 32.7556 Q3820.67 32.7556 3817.27 36.8875 Q3813.9 40.9789 3813.9 48.6757 L3813.9 72.576 L3806.41 72.576 L3806.41 27.2059 L3813.9 27.2059 L3813.9 34.2544 Q3816.25 30.1225 3820.02 28.1376 Q3823.79 26.1121 3829.17 26.1121 Q3829.94 26.1121 3830.88 26.2337 Q3831.81 26.3147 3832.94 26.5172 L3832.98 34.1734 Z" fill="#000000" fill-rule="nonzero" fill-opacity="1"></path><path clip-path="url(#clip970)" d="M3861.42 49.7694 Q3852.39 49.7694 3848.9 51.8354 Q3845.42 53.9013 3845.42 58.8839 Q3845.42 62.8538 3848.01 65.2034 Q3850.64 67.5124 3855.14 67.5124 Q3861.34 67.5124 3865.07 63.1374 Q3868.83 58.7219 3868.83 51.4303 L3868.83 49.7694 L3861.42 49.7694 M3876.29 46.6907 L3876.29 72.576 L3868.83 72.576 L3868.83 65.6895 Q3866.28 69.8214 3862.47 71.8063 Q3858.67 73.7508 3853.16 73.7508 Q3846.19 73.7508 3842.06 69.8619 Q3837.97 65.9325 3837.97 59.3701 Q3837.97 51.7138 3843.07 47.825 Q3848.21 43.9361 3858.38 43.9361 L3868.83 43.9361 L3868.83 43.2069 Q3868.83 38.0623 3865.43 35.2672 Q3862.07 32.4315 3855.95 32.4315 Q3852.06 32.4315 3848.38 33.3632 Q3844.69 34.295 3841.29 36.1584 L3841.29 29.2718 Q3845.38 27.692 3849.23 26.9223 Q3853.08 26.1121 3856.72 26.1121 Q3866.56 26.1121 3871.43 31.2163 Q3876.29 36.3204 3876.29 46.6907 Z" fill="#000000" fill-rule="nonzero" fill-opacity="1"></path><path clip-path="url(#clip970)" d="M3926.96 35.9153 Q3929.76 30.8922 3933.65 28.5022 Q3937.54 26.1121 3942.8 26.1121 Q3949.89 26.1121 3953.74 31.0947 Q3957.59 36.0368 3957.59 45.1919 L3957.59 72.576 L3950.09 72.576 L3950.09 45.4349 Q3950.09 38.913 3947.79 35.7533 Q3945.48 32.5936 3940.74 32.5936 Q3934.94 32.5936 3931.58 36.4419 Q3928.22 40.2903 3928.22 46.9338 L3928.22 72.576 L3920.73 72.576 L3920.73 45.4349 Q3920.73 38.8725 3918.42 35.7533 Q3916.11 32.5936 3911.29 32.5936 Q3905.57 32.5936 3902.21 36.4824 Q3898.85 40.3308 3898.85 46.9338 L3898.85 72.576 L3891.36 72.576 L3891.36 27.2059 L3898.85 27.2059 L3898.85 34.2544 Q3901.4 30.082 3904.97 28.0971 Q3908.53 26.1121 3913.43 26.1121 Q3918.38 26.1121 3921.82 28.6237 Q3925.3 31.1352 3926.96 35.9153 Z" fill="#000000" fill-rule="nonzero" fill-opacity="1"></path><path clip-path="url(#clip972)" d="M121.299 82.3457 L121.299 1552.76 L713.74 1552.76 L713.74 82.3457 L121.299 82.3457 L121.299 82.3457  Z" fill="#ff0000" fill-rule="evenodd" fill-opacity="1"></path>
<polyline clip-path="url(#clip972)" style="stroke:#add8e6; stroke-linecap:round; stroke-linejoin:round; stroke-width:4; stroke-opacity:1; fill:none" points="121.299,82.3457 121.299,1552.76 713.74,1552.76 713.74,82.3457 121.299,82.3457 "></polyline>
<path clip-path="url(#clip972)" d="M861.85 137.978 L861.85 1552.76 L1454.29 1552.76 L1454.29 137.978 L861.85 137.978 L861.85 137.978  Z" fill="#ff0000" fill-rule="evenodd" fill-opacity="1"></path>
<polyline clip-path="url(#clip972)" style="stroke:#add8e6; stroke-linecap:round; stroke-linejoin:round; stroke-width:4; stroke-opacity:1; fill:none" points="861.85,137.978 861.85,1552.76 1454.29,1552.76 1454.29,137.978 861.85,137.978 "></polyline>
<path clip-path="url(#clip972)" d="M1602.4 266.147 L1602.4 1552.76 L2194.84 1552.76 L2194.84 266.147 L1602.4 266.147 L1602.4 266.147  Z" fill="#ff0000" fill-rule="evenodd" fill-opacity="1"></path>
<polyline clip-path="url(#clip972)" style="stroke:#add8e6; stroke-linecap:round; stroke-linejoin:round; stroke-width:4; stroke-opacity:1; fill:none" points="1602.4,266.147 1602.4,1552.76 2194.84,1552.76 2194.84,266.147 1602.4,266.147 "></polyline>
<path clip-path="url(#clip972)" d="M2342.95 288.277 L2342.95 1552.76 L2935.39 1552.76 L2935.39 288.277 L2342.95 288.277 L2342.95 288.277  Z" fill="#ff0000" fill-rule="evenodd" fill-opacity="1"></path>
<polyline clip-path="url(#clip972)" style="stroke:#add8e6; stroke-linecap:round; stroke-linejoin:round; stroke-width:4; stroke-opacity:1; fill:none" points="2342.95,288.277 2342.95,1552.76 2935.39,1552.76 2935.39,288.277 2342.95,288.277 "></polyline>
<path clip-path="url(#clip972)" d="M3083.5 347.29 L3083.5 1552.76 L3675.94 1552.76 L3675.94 347.29 L3083.5 347.29 L3083.5 347.29  Z" fill="#ff0000" fill-rule="evenodd" fill-opacity="1"></path>
<polyline clip-path="url(#clip972)" style="stroke:#add8e6; stroke-linecap:round; stroke-linejoin:round; stroke-width:4; stroke-opacity:1; fill:none" points="3083.5,347.29 3083.5,1552.76 3675.94,1552.76 3675.94,347.29 3083.5,347.29 "></polyline>
<path clip-path="url(#clip972)" d="M3824.06 592.256 L3824.06 1552.76 L4416.5 1552.76 L4416.5 592.256 L3824.06 592.256 L3824.06 592.256  Z" fill="#ff0000" fill-rule="evenodd" fill-opacity="1"></path>
<polyline clip-path="url(#clip972)" style="stroke:#add8e6; stroke-linecap:round; stroke-linejoin:round; stroke-width:4; stroke-opacity:1; fill:none" points="3824.06,592.256 3824.06,1552.76 4416.5,1552.76 4416.5,592.256 3824.06,592.256 "></polyline>
<path clip-path="url(#clip972)" d="M4564.61 605.78 L4564.61 1552.76 L5157.05 1552.76 L5157.05 605.78 L4564.61 605.78 L4564.61 605.78  Z" fill="#ff0000" fill-rule="evenodd" fill-opacity="1"></path>
<polyline clip-path="url(#clip972)" style="stroke:#add8e6; stroke-linecap:round; stroke-linejoin:round; stroke-width:4; stroke-opacity:1; fill:none" points="4564.61,605.78 4564.61,1552.76 5157.05,1552.76 5157.05,605.78 4564.61,605.78 "></polyline>
<path clip-path="url(#clip972)" d="M5305.16 613.464 L5305.16 1552.76 L5897.6 1552.76 L5897.6 613.464 L5305.16 613.464 L5305.16 613.464  Z" fill="#ff0000" fill-rule="evenodd" fill-opacity="1"></path>
<polyline clip-path="url(#clip972)" style="stroke:#add8e6; stroke-linecap:round; stroke-linejoin:round; stroke-width:4; stroke-opacity:1; fill:none" points="5305.16,613.464 5305.16,1552.76 5897.6,1552.76 5897.6,613.464 5305.16,613.464 "></polyline>
<path clip-path="url(#clip972)" d="M6045.71 618.996 L6045.71 1552.76 L6638.15 1552.76 L6638.15 618.996 L6045.71 618.996 L6045.71 618.996  Z" fill="#ff0000" fill-rule="evenodd" fill-opacity="1"></path>
<polyline clip-path="url(#clip972)" style="stroke:#add8e6; stroke-linecap:round; stroke-linejoin:round; stroke-width:4; stroke-opacity:1; fill:none" points="6045.71,618.996 6045.71,1552.76 6638.15,1552.76 6638.15,618.996 6045.71,618.996 "></polyline>
<path clip-path="url(#clip972)" d="M6786.26 630.983 L6786.26 1552.76 L7378.7 1552.76 L7378.7 630.983 L6786.26 630.983 L6786.26 630.983  Z" fill="#ff0000" fill-rule="evenodd" fill-opacity="1"></path>
<polyline clip-path="url(#clip972)" style="stroke:#add8e6; stroke-linecap:round; stroke-linejoin:round; stroke-width:4; stroke-opacity:1; fill:none" points="6786.26,630.983 6786.26,1552.76 7378.7,1552.76 7378.7,630.983 6786.26,630.983 "></polyline>
<circle clip-path="url(#clip972)" style="fill:#ff0000; stroke:none; fill-opacity:0" cx="417.52" cy="82.3457" r="2"></circle>
<circle clip-path="url(#clip972)" style="fill:#ff0000; stroke:none; fill-opacity:0" cx="1158.07" cy="137.978" r="2"></circle>
<circle clip-path="url(#clip972)" style="fill:#ff0000; stroke:none; fill-opacity:0" cx="1898.62" cy="266.147" r="2"></circle>
<circle clip-path="url(#clip972)" style="fill:#ff0000; stroke:none; fill-opacity:0" cx="2639.17" cy="288.277" r="2"></circle>
<circle clip-path="url(#clip972)" style="fill:#ff0000; stroke:none; fill-opacity:0" cx="3379.72" cy="347.29" r="2"></circle>
<circle clip-path="url(#clip972)" style="fill:#ff0000; stroke:none; fill-opacity:0" cx="4120.28" cy="592.256" r="2"></circle>
<circle clip-path="url(#clip972)" style="fill:#ff0000; stroke:none; fill-opacity:0" cx="4860.83" cy="605.78" r="2"></circle>
<circle clip-path="url(#clip972)" style="fill:#ff0000; stroke:none; fill-opacity:0" cx="5601.38" cy="613.464" r="2"></circle>
<circle clip-path="url(#clip972)" style="fill:#ff0000; stroke:none; fill-opacity:0" cx="6341.93" cy="618.996" r="2"></circle>
<circle clip-path="url(#clip972)" style="fill:#ff0000; stroke:none; fill-opacity:0" cx="7082.48" cy="630.983" r="2"></circle>
<circle clip-path="url(#clip972)" style="fill:#e26f46; stroke:none; fill-opacity:1" cx="417.52" cy="1552.45" r="2"></circle>
<circle clip-path="url(#clip972)" style="fill:#e26f46; stroke:none; fill-opacity:1" cx="1158.07" cy="1552.45" r="2"></circle>
<circle clip-path="url(#clip972)" style="fill:#e26f46; stroke:none; fill-opacity:1" cx="1898.62" cy="1552.45" r="2"></circle>
<circle clip-path="url(#clip972)" style="fill:#e26f46; stroke:none; fill-opacity:1" cx="2639.17" cy="1552.45" r="2"></circle>
<circle clip-path="url(#clip972)" style="fill:#e26f46; stroke:none; fill-opacity:1" cx="3379.72" cy="1552.45" r="2"></circle>
<circle clip-path="url(#clip972)" style="fill:#e26f46; stroke:none; fill-opacity:1" cx="4120.28" cy="1552.45" r="2"></circle>
<circle clip-path="url(#clip972)" style="fill:#e26f46; stroke:none; fill-opacity:1" cx="4860.83" cy="1552.45" r="2"></circle>
<circle clip-path="url(#clip972)" style="fill:#e26f46; stroke:none; fill-opacity:1" cx="5601.38" cy="1552.45" r="2"></circle>
<circle clip-path="url(#clip972)" style="fill:#e26f46; stroke:none; fill-opacity:1" cx="6341.93" cy="1552.45" r="2"></circle>
<circle clip-path="url(#clip972)" style="fill:#e26f46; stroke:none; fill-opacity:1" cx="7082.48" cy="1552.45" r="2"></circle>
<path clip-path="url(#clip970)" d="M218.479 1519.29 L218.479 1602.25 L211.592 1602.25 L211.592 1519.29 L218.479 1519.29 Z" fill="#000000" fill-rule="nonzero" fill-opacity="1"></path><path clip-path="url(#clip970)" d="M255.382 1527.6 Q249.063 1527.6 245.863 1533.83 Q242.703 1540.03 242.703 1552.51 Q242.703 1564.95 245.863 1571.18 Q249.063 1577.38 255.382 1577.38 Q261.742 1577.38 264.902 1571.18 Q268.102 1564.95 268.102 1552.51 Q268.102 1540.03 264.902 1533.83 Q261.742 1527.6 255.382 1527.6 M255.382 1521.11 Q265.55 1521.11 270.897 1529.18 Q276.285 1537.2 276.285 1552.51 Q276.285 1567.78 270.897 1575.84 Q265.55 1583.86 255.382 1583.86 Q245.214 1583.86 239.827 1575.84 Q234.48 1567.78 234.48 1552.51 Q234.48 1537.2 239.827 1529.18 Q245.214 1521.11 255.382 1521.11 Z" fill="#000000" fill-rule="nonzero" fill-opacity="1"></path><path clip-path="url(#clip970)" d="M292.083 1575.8 L305.451 1575.8 L305.451 1529.66 L290.909 1532.58 L290.909 1525.13 L305.37 1522.21 L313.553 1522.21 L313.553 1575.8 L326.921 1575.8 L326.921 1582.69 L292.083 1582.69 L292.083 1575.8 Z" fill="#000000" fill-rule="nonzero" fill-opacity="1"></path><path clip-path="url(#clip970)" d="M360.949 1527.6 Q354.629 1527.6 351.429 1533.83 Q348.269 1540.03 348.269 1552.51 Q348.269 1564.95 351.429 1571.18 Q354.629 1577.38 360.949 1577.38 Q367.309 1577.38 370.468 1571.18 Q373.669 1564.95 373.669 1552.51 Q373.669 1540.03 370.468 1533.83 Q367.309 1527.6 360.949 1527.6 M360.949 1521.11 Q371.117 1521.11 376.464 1529.18 Q381.851 1537.2 381.851 1552.51 Q381.851 1567.78 376.464 1575.84 Q371.117 1583.86 360.949 1583.86 Q350.781 1583.86 345.393 1575.84 Q340.046 1567.78 340.046 1552.51 Q340.046 1537.2 345.393 1529.18 Q350.781 1521.11 360.949 1521.11 Z" fill="#000000" fill-rule="nonzero" fill-opacity="1"></path><path clip-path="url(#clip970)" d="M397.65 1575.8 L411.018 1575.8 L411.018 1529.66 L396.475 1532.58 L396.475 1525.13 L410.937 1522.21 L419.12 1522.21 L419.12 1575.8 L432.488 1575.8 L432.488 1582.69 L397.65 1582.69 L397.65 1575.8 Z" fill="#000000" fill-rule="nonzero" fill-opacity="1"></path><path clip-path="url(#clip970)" d="M466.515 1527.6 Q460.196 1527.6 456.996 1533.83 Q453.836 1540.03 453.836 1552.51 Q453.836 1564.95 456.996 1571.18 Q460.196 1577.38 466.515 1577.38 Q472.875 1577.38 476.035 1571.18 Q479.235 1564.95 479.235 1552.51 Q479.235 1540.03 476.035 1533.83 Q472.875 1527.6 466.515 1527.6 M466.515 1521.11 Q476.683 1521.11 482.03 1529.18 Q487.418 1537.2 487.418 1552.51 Q487.418 1567.78 482.03 1575.84 Q476.683 1583.86 466.515 1583.86 Q456.348 1583.86 450.96 1575.84 Q445.613 1567.78 445.613 1552.51 Q445.613 1537.2 450.96 1529.18 Q456.348 1521.11 466.515 1521.11 Z" fill="#000000" fill-rule="nonzero" fill-opacity="1"></path><path clip-path="url(#clip970)" d="M503.217 1575.8 L516.585 1575.8 L516.585 1529.66 L502.042 1532.58 L502.042 1525.13 L516.504 1522.21 L524.686 1522.21 L524.686 1575.8 L538.054 1575.8 L538.054 1582.69 L503.217 1582.69 L503.217 1575.8 Z" fill="#000000" fill-rule="nonzero" fill-opacity="1"></path><path clip-path="url(#clip970)" d="M556 1575.8 L569.368 1575.8 L569.368 1529.66 L554.825 1532.58 L554.825 1525.13 L569.287 1522.21 L577.47 1522.21 L577.47 1575.8 L590.838 1575.8 L590.838 1582.69 L556 1582.69 L556 1575.8 Z" fill="#000000" fill-rule="nonzero" fill-opacity="1"></path><path clip-path="url(#clip970)" d="M623.447 1556.68 L612.024 1593.63 L605.137 1593.63 L616.561 1556.68 L605.137 1519.74 L612.024 1519.74 L623.447 1556.68 Z" fill="#000000" fill-rule="nonzero" fill-opacity="1"></path><path clip-path="url(#clip970)" d="M959.03 1519.29 L959.03 1602.25 L952.143 1602.25 L952.143 1519.29 L959.03 1519.29 Z" fill="#000000" fill-rule="nonzero" fill-opacity="1"></path><path clip-path="url(#clip970)" d="M995.933 1527.6 Q989.614 1527.6 986.414 1533.83 Q983.254 1540.03 983.254 1552.51 Q983.254 1564.95 986.414 1571.18 Q989.614 1577.38 995.933 1577.38 Q1002.29 1577.38 1005.45 1571.18 Q1008.65 1564.95 1008.65 1552.51 Q1008.65 1540.03 1005.45 1533.83 Q1002.29 1527.6 995.933 1527.6 M995.933 1521.11 Q1006.1 1521.11 1011.45 1529.18 Q1016.84 1537.2 1016.84 1552.51 Q1016.84 1567.78 1011.45 1575.84 Q1006.1 1583.86 995.933 1583.86 Q985.766 1583.86 980.378 1575.84 Q975.031 1567.78 975.031 1552.51 Q975.031 1537.2 980.378 1529.18 Q985.766 1521.11 995.933 1521.11 Z" fill="#000000" fill-rule="nonzero" fill-opacity="1"></path><path clip-path="url(#clip970)" d="M1032.63 1575.8 L1046 1575.8 L1046 1529.66 L1031.46 1532.58 L1031.46 1525.13 L1045.92 1522.21 L1054.1 1522.21 L1054.1 1575.8 L1067.47 1575.8 L1067.47 1582.69 L1032.63 1582.69 L1032.63 1575.8 Z" fill="#000000" fill-rule="nonzero" fill-opacity="1"></path><path clip-path="url(#clip970)" d="M1085.42 1575.8 L1098.79 1575.8 L1098.79 1529.66 L1084.24 1532.58 L1084.24 1525.13 L1098.7 1522.21 L1106.89 1522.21 L1106.89 1575.8 L1120.26 1575.8 L1120.26 1582.69 L1085.42 1582.69 L1085.42 1575.8 Z" fill="#000000" fill-rule="nonzero" fill-opacity="1"></path><path clip-path="url(#clip970)" d="M1138.2 1575.8 L1151.57 1575.8 L1151.57 1529.66 L1137.03 1532.58 L1137.03 1525.13 L1151.49 1522.21 L1159.67 1522.21 L1159.67 1575.8 L1173.04 1575.8 L1173.04 1582.69 L1138.2 1582.69 L1138.2 1575.8 Z" fill="#000000" fill-rule="nonzero" fill-opacity="1"></path><path clip-path="url(#clip970)" d="M1207.07 1527.6 Q1200.75 1527.6 1197.55 1533.83 Q1194.39 1540.03 1194.39 1552.51 Q1194.39 1564.95 1197.55 1571.18 Q1200.75 1577.38 1207.07 1577.38 Q1213.43 1577.38 1216.59 1571.18 Q1219.79 1564.95 1219.79 1552.51 Q1219.79 1540.03 1216.59 1533.83 Q1213.43 1527.6 1207.07 1527.6 M1207.07 1521.11 Q1217.23 1521.11 1222.58 1529.18 Q1227.97 1537.2 1227.97 1552.51 Q1227.97 1567.78 1222.58 1575.84 Q1217.23 1583.86 1207.07 1583.86 Q1196.9 1583.86 1191.51 1575.84 Q1186.16 1567.78 1186.16 1552.51 Q1186.16 1537.2 1191.51 1529.18 Q1196.9 1521.11 1207.07 1521.11 Z" fill="#000000" fill-rule="nonzero" fill-opacity="1"></path><path clip-path="url(#clip970)" d="M1243.77 1575.8 L1257.14 1575.8 L1257.14 1529.66 L1242.59 1532.58 L1242.59 1525.13 L1257.05 1522.21 L1265.24 1522.21 L1265.24 1575.8 L1278.61 1575.8 L1278.61 1582.69 L1243.77 1582.69 L1243.77 1575.8 Z" fill="#000000" fill-rule="nonzero" fill-opacity="1"></path><path clip-path="url(#clip970)" d="M1296.55 1575.8 L1309.92 1575.8 L1309.92 1529.66 L1295.38 1532.58 L1295.38 1525.13 L1309.84 1522.21 L1318.02 1522.21 L1318.02 1575.8 L1331.39 1575.8 L1331.39 1582.69 L1296.55 1582.69 L1296.55 1575.8 Z" fill="#000000" fill-rule="nonzero" fill-opacity="1"></path><path clip-path="url(#clip970)" d="M1364 1556.68 L1352.58 1593.63 L1345.69 1593.63 L1357.11 1556.68 L1345.69 1519.74 L1352.58 1519.74 L1364 1556.68 Z" fill="#000000" fill-rule="nonzero" fill-opacity="1"></path><path clip-path="url(#clip970)" d="M1699.58 1519.29 L1699.58 1602.25 L1692.69 1602.25 L1692.69 1519.29 L1699.58 1519.29 Z" fill="#000000" fill-rule="nonzero" fill-opacity="1"></path><path clip-path="url(#clip970)" d="M1720.4 1575.8 L1733.77 1575.8 L1733.77 1529.66 L1719.23 1532.58 L1719.23 1525.13 L1733.69 1522.21 L1741.87 1522.21 L1741.87 1575.8 L1755.24 1575.8 L1755.24 1582.69 L1720.4 1582.69 L1720.4 1575.8 Z" fill="#000000" fill-rule="nonzero" fill-opacity="1"></path><path clip-path="url(#clip970)" d="M1773.19 1575.8 L1786.55 1575.8 L1786.55 1529.66 L1772.01 1532.58 L1772.01 1525.13 L1786.47 1522.21 L1794.66 1522.21 L1794.66 1575.8 L1808.02 1575.8 L1808.02 1582.69 L1773.19 1582.69 L1773.19 1575.8 Z" fill="#000000" fill-rule="nonzero" fill-opacity="1"></path><path clip-path="url(#clip970)" d="M1842.05 1527.6 Q1835.73 1527.6 1832.53 1533.83 Q1829.37 1540.03 1829.37 1552.51 Q1829.37 1564.95 1832.53 1571.18 Q1835.73 1577.38 1842.05 1577.38 Q1848.41 1577.38 1851.57 1571.18 Q1854.77 1564.95 1854.77 1552.51 Q1854.77 1540.03 1851.57 1533.83 Q1848.41 1527.6 1842.05 1527.6 M1842.05 1521.11 Q1852.22 1521.11 1857.57 1529.18 Q1862.95 1537.2 1862.95 1552.51 Q1862.95 1567.78 1857.57 1575.84 Q1852.22 1583.86 1842.05 1583.86 Q1831.88 1583.86 1826.5 1575.84 Q1821.15 1567.78 1821.15 1552.51 Q1821.15 1537.2 1826.5 1529.18 Q1831.88 1521.11 1842.05 1521.11 Z" fill="#000000" fill-rule="nonzero" fill-opacity="1"></path><path clip-path="url(#clip970)" d="M1878.75 1575.8 L1892.12 1575.8 L1892.12 1529.66 L1877.58 1532.58 L1877.58 1525.13 L1892.04 1522.21 L1900.22 1522.21 L1900.22 1575.8 L1913.59 1575.8 L1913.59 1582.69 L1878.75 1582.69 L1878.75 1575.8 Z" fill="#000000" fill-rule="nonzero" fill-opacity="1"></path><path clip-path="url(#clip970)" d="M1947.62 1527.6 Q1941.3 1527.6 1938.1 1533.83 Q1934.94 1540.03 1934.94 1552.51 Q1934.94 1564.95 1938.1 1571.18 Q1941.3 1577.38 1947.62 1577.38 Q1953.98 1577.38 1957.14 1571.18 Q1960.34 1564.95 1960.34 1552.51 Q1960.34 1540.03 1957.14 1533.83 Q1953.98 1527.6 1947.62 1527.6 M1947.62 1521.11 Q1957.79 1521.11 1963.13 1529.18 Q1968.52 1537.2 1968.52 1552.51 Q1968.52 1567.78 1963.13 1575.84 Q1957.79 1583.86 1947.62 1583.86 Q1937.45 1583.86 1932.06 1575.84 Q1926.72 1567.78 1926.72 1552.51 Q1926.72 1537.2 1932.06 1529.18 Q1937.45 1521.11 1947.62 1521.11 Z" fill="#000000" fill-rule="nonzero" fill-opacity="1"></path><path clip-path="url(#clip970)" d="M1984.32 1575.8 L1997.69 1575.8 L1997.69 1529.66 L1983.14 1532.58 L1983.14 1525.13 L1997.61 1522.21 L2005.79 1522.21 L2005.79 1575.8 L2019.16 1575.8 L2019.16 1582.69 L1984.32 1582.69 L1984.32 1575.8 Z" fill="#000000" fill-rule="nonzero" fill-opacity="1"></path><path clip-path="url(#clip970)" d="M2037.1 1575.8 L2050.47 1575.8 L2050.47 1529.66 L2035.93 1532.58 L2035.93 1525.13 L2050.39 1522.21 L2058.57 1522.21 L2058.57 1575.8 L2071.94 1575.8 L2071.94 1582.69 L2037.1 1582.69 L2037.1 1575.8 Z" fill="#000000" fill-rule="nonzero" fill-opacity="1"></path><path clip-path="url(#clip970)" d="M2104.55 1556.68 L2093.13 1593.63 L2086.24 1593.63 L2097.66 1556.68 L2086.24 1519.74 L2093.13 1519.74 L2104.55 1556.68 Z" fill="#000000" fill-rule="nonzero" fill-opacity="1"></path><path clip-path="url(#clip970)" d="M2440.13 1519.29 L2440.13 1602.25 L2433.25 1602.25 L2433.25 1519.29 L2440.13 1519.29 Z" fill="#000000" fill-rule="nonzero" fill-opacity="1"></path><path clip-path="url(#clip970)" d="M2460.95 1575.8 L2474.32 1575.8 L2474.32 1529.66 L2459.78 1532.58 L2459.78 1525.13 L2474.24 1522.21 L2482.42 1522.21 L2482.42 1575.8 L2495.79 1575.8 L2495.79 1582.69 L2460.95 1582.69 L2460.95 1575.8 Z" fill="#000000" fill-rule="nonzero" fill-opacity="1"></path><path clip-path="url(#clip970)" d="M2513.74 1575.8 L2527.1 1575.8 L2527.1 1529.66 L2512.56 1532.58 L2512.56 1525.13 L2527.02 1522.21 L2535.21 1522.21 L2535.21 1575.8 L2548.57 1575.8 L2548.57 1582.69 L2513.74 1582.69 L2513.74 1575.8 Z" fill="#000000" fill-rule="nonzero" fill-opacity="1"></path><path clip-path="url(#clip970)" d="M2566.52 1575.8 L2579.89 1575.8 L2579.89 1529.66 L2565.35 1532.58 L2565.35 1525.13 L2579.81 1522.21 L2587.99 1522.21 L2587.99 1575.8 L2601.36 1575.8 L2601.36 1582.69 L2566.52 1582.69 L2566.52 1575.8 Z" fill="#000000" fill-rule="nonzero" fill-opacity="1"></path><path clip-path="url(#clip970)" d="M2619.3 1575.8 L2632.67 1575.8 L2632.67 1529.66 L2618.13 1532.58 L2618.13 1525.13 L2632.59 1522.21 L2640.77 1522.21 L2640.77 1575.8 L2654.14 1575.8 L2654.14 1582.69 L2619.3 1582.69 L2619.3 1575.8 Z" fill="#000000" fill-rule="nonzero" fill-opacity="1"></path><path clip-path="url(#clip970)" d="M2688.17 1527.6 Q2681.85 1527.6 2678.65 1533.83 Q2675.49 1540.03 2675.49 1552.51 Q2675.49 1564.95 2678.65 1571.18 Q2681.85 1577.38 2688.17 1577.38 Q2694.53 1577.38 2697.69 1571.18 Q2700.89 1564.95 2700.89 1552.51 Q2700.89 1540.03 2697.69 1533.83 Q2694.53 1527.6 2688.17 1527.6 M2688.17 1521.11 Q2698.34 1521.11 2703.68 1529.18 Q2709.07 1537.2 2709.07 1552.51 Q2709.07 1567.78 2703.68 1575.84 Q2698.34 1583.86 2688.17 1583.86 Q2678 1583.86 2672.61 1575.84 Q2667.27 1567.78 2667.27 1552.51 Q2667.27 1537.2 2672.61 1529.18 Q2678 1521.11 2688.17 1521.11 Z" fill="#000000" fill-rule="nonzero" fill-opacity="1"></path><path clip-path="url(#clip970)" d="M2724.87 1575.8 L2738.24 1575.8 L2738.24 1529.66 L2723.7 1532.58 L2723.7 1525.13 L2738.16 1522.21 L2746.34 1522.21 L2746.34 1575.8 L2759.71 1575.8 L2759.71 1582.69 L2724.87 1582.69 L2724.87 1575.8 Z" fill="#000000" fill-rule="nonzero" fill-opacity="1"></path><path clip-path="url(#clip970)" d="M2777.65 1575.8 L2791.02 1575.8 L2791.02 1529.66 L2776.48 1532.58 L2776.48 1525.13 L2790.94 1522.21 L2799.12 1522.21 L2799.12 1575.8 L2812.49 1575.8 L2812.49 1582.69 L2777.65 1582.69 L2777.65 1575.8 Z" fill="#000000" fill-rule="nonzero" fill-opacity="1"></path><path clip-path="url(#clip970)" d="M2845.1 1556.68 L2833.68 1593.63 L2826.79 1593.63 L2838.21 1556.68 L2826.79 1519.74 L2833.68 1519.74 L2845.1 1556.68 Z" fill="#000000" fill-rule="nonzero" fill-opacity="1"></path><path clip-path="url(#clip970)" d="M3180.68 1519.29 L3180.68 1602.25 L3173.8 1602.25 L3173.8 1519.29 L3180.68 1519.29 Z" fill="#000000" fill-rule="nonzero" fill-opacity="1"></path><path clip-path="url(#clip970)" d="M3201.5 1575.8 L3214.87 1575.8 L3214.87 1529.66 L3200.33 1532.58 L3200.33 1525.13 L3214.79 1522.21 L3222.97 1522.21 L3222.97 1575.8 L3236.34 1575.8 L3236.34 1582.69 L3201.5 1582.69 L3201.5 1575.8 Z" fill="#000000" fill-rule="nonzero" fill-opacity="1"></path><path clip-path="url(#clip970)" d="M3270.37 1527.6 Q3264.05 1527.6 3260.85 1533.83 Q3257.69 1540.03 3257.69 1552.51 Q3257.69 1564.95 3260.85 1571.18 Q3264.05 1577.38 3270.37 1577.38 Q3276.73 1577.38 3279.89 1571.18 Q3283.09 1564.95 3283.09 1552.51 Q3283.09 1540.03 3279.89 1533.83 Q3276.73 1527.6 3270.37 1527.6 M3270.37 1521.11 Q3280.54 1521.11 3285.89 1529.18 Q3291.27 1537.2 3291.27 1552.51 Q3291.27 1567.78 3285.89 1575.84 Q3280.54 1583.86 3270.37 1583.86 Q3260.2 1583.86 3254.81 1575.84 Q3249.47 1567.78 3249.47 1552.51 Q3249.47 1537.2 3254.81 1529.18 Q3260.2 1521.11 3270.37 1521.11 Z" fill="#000000" fill-rule="nonzero" fill-opacity="1"></path><path clip-path="url(#clip970)" d="M3323.15 1527.6 Q3316.83 1527.6 3313.63 1533.83 Q3310.47 1540.03 3310.47 1552.51 Q3310.47 1564.95 3313.63 1571.18 Q3316.83 1577.38 3323.15 1577.38 Q3329.51 1577.38 3332.67 1571.18 Q3335.87 1564.95 3335.87 1552.51 Q3335.87 1540.03 3332.67 1533.83 Q3329.51 1527.6 3323.15 1527.6 M3323.15 1521.11 Q3333.32 1521.11 3338.67 1529.18 Q3344.06 1537.2 3344.06 1552.51 Q3344.06 1567.78 3338.67 1575.84 Q3333.32 1583.86 3323.15 1583.86 Q3312.99 1583.86 3307.6 1575.84 Q3302.25 1567.78 3302.25 1552.51 Q3302.25 1537.2 3307.6 1529.18 Q3312.99 1521.11 3323.15 1521.11 Z" fill="#000000" fill-rule="nonzero" fill-opacity="1"></path><path clip-path="url(#clip970)" d="M3359.85 1575.8 L3373.22 1575.8 L3373.22 1529.66 L3358.68 1532.58 L3358.68 1525.13 L3373.14 1522.21 L3381.32 1522.21 L3381.32 1575.8 L3394.69 1575.8 L3394.69 1582.69 L3359.85 1582.69 L3359.85 1575.8 Z" fill="#000000" fill-rule="nonzero" fill-opacity="1"></path><path clip-path="url(#clip970)" d="M3428.72 1527.6 Q3422.4 1527.6 3419.2 1533.83 Q3416.04 1540.03 3416.04 1552.51 Q3416.04 1564.95 3419.2 1571.18 Q3422.4 1577.38 3428.72 1577.38 Q3435.08 1577.38 3438.24 1571.18 Q3441.44 1564.95 3441.44 1552.51 Q3441.44 1540.03 3438.24 1533.83 Q3435.08 1527.6 3428.72 1527.6 M3428.72 1521.11 Q3438.89 1521.11 3444.24 1529.18 Q3449.62 1537.2 3449.62 1552.51 Q3449.62 1567.78 3444.24 1575.84 Q3438.89 1583.86 3428.72 1583.86 Q3418.55 1583.86 3413.16 1575.84 Q3407.82 1567.78 3407.82 1552.51 Q3407.82 1537.2 3413.16 1529.18 Q3418.55 1521.11 3428.72 1521.11 Z" fill="#000000" fill-rule="nonzero" fill-opacity="1"></path><path clip-path="url(#clip970)" d="M3465.42 1575.8 L3478.79 1575.8 L3478.79 1529.66 L3464.25 1532.58 L3464.25 1525.13 L3478.71 1522.21 L3486.89 1522.21 L3486.89 1575.8 L3500.26 1575.8 L3500.26 1582.69 L3465.42 1582.69 L3465.42 1575.8 Z" fill="#000000" fill-rule="nonzero" fill-opacity="1"></path><path clip-path="url(#clip970)" d="M3518.2 1575.8 L3531.57 1575.8 L3531.57 1529.66 L3517.03 1532.58 L3517.03 1525.13 L3531.49 1522.21 L3539.67 1522.21 L3539.67 1575.8 L3553.04 1575.8 L3553.04 1582.69 L3518.2 1582.69 L3518.2 1575.8 Z" fill="#000000" fill-rule="nonzero" fill-opacity="1"></path><path clip-path="url(#clip970)" d="M3585.65 1556.68 L3574.23 1593.63 L3567.34 1593.63 L3578.77 1556.68 L3567.34 1519.74 L3574.23 1519.74 L3585.65 1556.68 Z" fill="#000000" fill-rule="nonzero" fill-opacity="1"></path><path clip-path="url(#clip970)" d="M3921.23 1519.29 L3921.23 1602.25 L3914.35 1602.25 L3914.35 1519.29 L3921.23 1519.29 Z" fill="#000000" fill-rule="nonzero" fill-opacity="1"></path><path clip-path="url(#clip970)" d="M3942.06 1575.8 L3955.42 1575.8 L3955.42 1529.66 L3940.88 1532.58 L3940.88 1525.13 L3955.34 1522.21 L3963.53 1522.21 L3963.53 1575.8 L3976.89 1575.8 L3976.89 1582.69 L3942.06 1582.69 L3942.06 1575.8 Z" fill="#000000" fill-rule="nonzero" fill-opacity="1"></path><path clip-path="url(#clip970)" d="M4010.92 1527.6 Q4004.6 1527.6 4001.4 1533.83 Q3998.24 1540.03 3998.24 1552.51 Q3998.24 1564.95 4001.4 1571.18 Q4004.6 1577.38 4010.92 1577.38 Q4017.28 1577.38 4020.44 1571.18 Q4023.64 1564.95 4023.64 1552.51 Q4023.64 1540.03 4020.44 1533.83 Q4017.28 1527.6 4010.92 1527.6 M4010.92 1521.11 Q4021.09 1521.11 4026.44 1529.18 Q4031.82 1537.2 4031.82 1552.51 Q4031.82 1567.78 4026.44 1575.84 Q4021.09 1583.86 4010.92 1583.86 Q4000.75 1583.86 3995.37 1575.84 Q3990.02 1567.78 3990.02 1552.51 Q3990.02 1537.2 3995.37 1529.18 Q4000.75 1521.11 4010.92 1521.11 Z" fill="#000000" fill-rule="nonzero" fill-opacity="1"></path><path clip-path="url(#clip970)" d="M4063.7 1527.6 Q4057.39 1527.6 4054.19 1533.83 Q4051.03 1540.03 4051.03 1552.51 Q4051.03 1564.95 4054.19 1571.18 Q4057.39 1577.38 4063.7 1577.38 Q4070.06 1577.38 4073.22 1571.18 Q4076.42 1564.95 4076.42 1552.51 Q4076.42 1540.03 4073.22 1533.83 Q4070.06 1527.6 4063.7 1527.6 M4063.7 1521.11 Q4073.87 1521.11 4079.22 1529.18 Q4084.61 1537.2 4084.61 1552.51 Q4084.61 1567.78 4079.22 1575.84 Q4073.87 1583.86 4063.7 1583.86 Q4053.54 1583.86 4048.15 1575.84 Q4042.8 1567.78 4042.8 1552.51 Q4042.8 1537.2 4048.15 1529.18 Q4053.54 1521.11 4063.7 1521.11 Z" fill="#000000" fill-rule="nonzero" fill-opacity="1"></path><path clip-path="url(#clip970)" d="M4100.41 1575.8 L4113.77 1575.8 L4113.77 1529.66 L4099.23 1532.58 L4099.23 1525.13 L4113.69 1522.21 L4121.88 1522.21 L4121.88 1575.8 L4135.24 1575.8 L4135.24 1582.69 L4100.41 1582.69 L4100.41 1575.8 Z" fill="#000000" fill-rule="nonzero" fill-opacity="1"></path><path clip-path="url(#clip970)" d="M4153.19 1575.8 L4166.56 1575.8 L4166.56 1529.66 L4152.01 1532.58 L4152.01 1525.13 L4166.48 1522.21 L4174.66 1522.21 L4174.66 1575.8 L4188.03 1575.8 L4188.03 1582.69 L4153.19 1582.69 L4153.19 1575.8 Z" fill="#000000" fill-rule="nonzero" fill-opacity="1"></path><path clip-path="url(#clip970)" d="M4222.05 1527.6 Q4215.74 1527.6 4212.53 1533.83 Q4209.38 1540.03 4209.38 1552.51 Q4209.38 1564.95 4212.53 1571.18 Q4215.74 1577.38 4222.05 1577.38 Q4228.41 1577.38 4231.57 1571.18 Q4234.77 1564.95 4234.77 1552.51 Q4234.77 1540.03 4231.57 1533.83 Q4228.41 1527.6 4222.05 1527.6 M4222.05 1521.11 Q4232.22 1521.11 4237.57 1529.18 Q4242.96 1537.2 4242.96 1552.51 Q4242.96 1567.78 4237.57 1575.84 Q4232.22 1583.86 4222.05 1583.86 Q4211.89 1583.86 4206.5 1575.84 Q4201.15 1567.78 4201.15 1552.51 Q4201.15 1537.2 4206.5 1529.18 Q4211.89 1521.11 4222.05 1521.11 Z" fill="#000000" fill-rule="nonzero" fill-opacity="1"></path><path clip-path="url(#clip970)" d="M4258.76 1575.8 L4272.12 1575.8 L4272.12 1529.66 L4257.58 1532.58 L4257.58 1525.13 L4272.04 1522.21 L4280.23 1522.21 L4280.23 1575.8 L4293.59 1575.8 L4293.59 1582.69 L4258.76 1582.69 L4258.76 1575.8 Z" fill="#000000" fill-rule="nonzero" fill-opacity="1"></path><path clip-path="url(#clip970)" d="M4326.2 1556.68 L4314.78 1593.63 L4307.89 1593.63 L4319.32 1556.68 L4307.89 1519.74 L4314.78 1519.74 L4326.2 1556.68 Z" fill="#000000" fill-rule="nonzero" fill-opacity="1"></path><path clip-path="url(#clip970)" d="M4661.79 1519.29 L4661.79 1602.25 L4654.9 1602.25 L4654.9 1519.29 L4661.79 1519.29 Z" fill="#000000" fill-rule="nonzero" fill-opacity="1"></path><path clip-path="url(#clip970)" d="M4682.61 1575.8 L4695.98 1575.8 L4695.98 1529.66 L4681.43 1532.58 L4681.43 1525.13 L4695.89 1522.21 L4704.08 1522.21 L4704.08 1575.8 L4717.45 1575.8 L4717.45 1582.69 L4682.61 1582.69 L4682.61 1575.8 Z" fill="#000000" fill-rule="nonzero" fill-opacity="1"></path><path clip-path="url(#clip970)" d="M4751.47 1527.6 Q4745.15 1527.6 4741.95 1533.83 Q4738.79 1540.03 4738.79 1552.51 Q4738.79 1564.95 4741.95 1571.18 Q4745.15 1577.38 4751.47 1577.38 Q4757.83 1577.38 4760.99 1571.18 Q4764.19 1564.95 4764.19 1552.51 Q4764.19 1540.03 4760.99 1533.83 Q4757.83 1527.6 4751.47 1527.6 M4751.47 1521.11 Q4761.64 1521.11 4766.99 1529.18 Q4772.38 1537.2 4772.38 1552.51 Q4772.38 1567.78 4766.99 1575.84 Q4761.64 1583.86 4751.47 1583.86 Q4741.3 1583.86 4735.92 1575.84 Q4730.57 1567.78 4730.57 1552.51 Q4730.57 1537.2 4735.92 1529.18 Q4741.3 1521.11 4751.47 1521.11 Z" fill="#000000" fill-rule="nonzero" fill-opacity="1"></path><path clip-path="url(#clip970)" d="M4804.26 1527.6 Q4797.94 1527.6 4794.74 1533.83 Q4791.58 1540.03 4791.58 1552.51 Q4791.58 1564.95 4794.74 1571.18 Q4797.94 1577.38 4804.26 1577.38 Q4810.62 1577.38 4813.78 1571.18 Q4816.98 1564.95 4816.98 1552.51 Q4816.98 1540.03 4813.78 1533.83 Q4810.62 1527.6 4804.26 1527.6 M4804.26 1521.11 Q4814.42 1521.11 4819.77 1529.18 Q4825.16 1537.2 4825.16 1552.51 Q4825.16 1567.78 4819.77 1575.84 Q4814.42 1583.86 4804.26 1583.86 Q4794.09 1583.86 4788.7 1575.84 Q4783.35 1567.78 4783.35 1552.51 Q4783.35 1537.2 4788.7 1529.18 Q4794.09 1521.11 4804.26 1521.11 Z" fill="#000000" fill-rule="nonzero" fill-opacity="1"></path><path clip-path="url(#clip970)" d="M4840.96 1575.8 L4854.33 1575.8 L4854.33 1529.66 L4839.78 1532.58 L4839.78 1525.13 L4854.24 1522.21 L4862.43 1522.21 L4862.43 1575.8 L4875.79 1575.8 L4875.79 1582.69 L4840.96 1582.69 L4840.96 1575.8 Z" fill="#000000" fill-rule="nonzero" fill-opacity="1"></path><path clip-path="url(#clip970)" d="M4893.74 1575.8 L4907.11 1575.8 L4907.11 1529.66 L4892.57 1532.58 L4892.57 1525.13 L4907.03 1522.21 L4915.21 1522.21 L4915.21 1575.8 L4928.58 1575.8 L4928.58 1582.69 L4893.74 1582.69 L4893.74 1575.8 Z" fill="#000000" fill-rule="nonzero" fill-opacity="1"></path><path clip-path="url(#clip970)" d="M4946.52 1575.8 L4959.89 1575.8 L4959.89 1529.66 L4945.35 1532.58 L4945.35 1525.13 L4959.81 1522.21 L4967.99 1522.21 L4967.99 1575.8 L4981.36 1575.8 L4981.36 1582.69 L4946.52 1582.69 L4946.52 1575.8 Z" fill="#000000" fill-rule="nonzero" fill-opacity="1"></path><path clip-path="url(#clip970)" d="M4999.31 1575.8 L5012.67 1575.8 L5012.67 1529.66 L4998.13 1532.58 L4998.13 1525.13 L5012.59 1522.21 L5020.78 1522.21 L5020.78 1575.8 L5034.14 1575.8 L5034.14 1582.69 L4999.31 1582.69 L4999.31 1575.8 Z" fill="#000000" fill-rule="nonzero" fill-opacity="1"></path><path clip-path="url(#clip970)" d="M5066.75 1556.68 L5055.33 1593.63 L5048.44 1593.63 L5059.87 1556.68 L5048.44 1519.74 L5055.33 1519.74 L5066.75 1556.68 Z" fill="#000000" fill-rule="nonzero" fill-opacity="1"></path><path clip-path="url(#clip970)" d="M5402.34 1519.29 L5402.34 1602.25 L5395.45 1602.25 L5395.45 1519.29 L5402.34 1519.29 Z" fill="#000000" fill-rule="nonzero" fill-opacity="1"></path><path clip-path="url(#clip970)" d="M5439.24 1527.6 Q5432.92 1527.6 5429.72 1533.83 Q5426.56 1540.03 5426.56 1552.51 Q5426.56 1564.95 5429.72 1571.18 Q5432.92 1577.38 5439.24 1577.38 Q5445.6 1577.38 5448.76 1571.18 Q5451.96 1564.95 5451.96 1552.51 Q5451.96 1540.03 5448.76 1533.83 Q5445.6 1527.6 5439.24 1527.6 M5439.24 1521.11 Q5449.41 1521.11 5454.76 1529.18 Q5460.14 1537.2 5460.14 1552.51 Q5460.14 1567.78 5454.76 1575.84 Q5449.41 1583.86 5439.24 1583.86 Q5429.07 1583.86 5423.69 1575.84 Q5418.34 1567.78 5418.34 1552.51 Q5418.34 1537.2 5423.69 1529.18 Q5429.07 1521.11 5439.24 1521.11 Z" fill="#000000" fill-rule="nonzero" fill-opacity="1"></path><path clip-path="url(#clip970)" d="M5475.94 1575.8 L5489.31 1575.8 L5489.31 1529.66 L5474.77 1532.58 L5474.77 1525.13 L5489.23 1522.21 L5497.41 1522.21 L5497.41 1575.8 L5510.78 1575.8 L5510.78 1582.69 L5475.94 1582.69 L5475.94 1575.8 Z" fill="#000000" fill-rule="nonzero" fill-opacity="1"></path><path clip-path="url(#clip970)" d="M5528.72 1575.8 L5542.09 1575.8 L5542.09 1529.66 L5527.55 1532.58 L5527.55 1525.13 L5542.01 1522.21 L5550.19 1522.21 L5550.19 1575.8 L5563.56 1575.8 L5563.56 1582.69 L5528.72 1582.69 L5528.72 1575.8 Z" fill="#000000" fill-rule="nonzero" fill-opacity="1"></path><path clip-path="url(#clip970)" d="M5581.51 1575.8 L5594.88 1575.8 L5594.88 1529.66 L5580.33 1532.58 L5580.33 1525.13 L5594.8 1522.21 L5602.98 1522.21 L5602.98 1575.8 L5616.35 1575.8 L5616.35 1582.69 L5581.51 1582.69 L5581.51 1575.8 Z" fill="#000000" fill-rule="nonzero" fill-opacity="1"></path><path clip-path="url(#clip970)" d="M5634.29 1575.8 L5647.66 1575.8 L5647.66 1529.66 L5633.12 1532.58 L5633.12 1525.13 L5647.58 1522.21 L5655.76 1522.21 L5655.76 1575.8 L5669.13 1575.8 L5669.13 1582.69 L5634.29 1582.69 L5634.29 1575.8 Z" fill="#000000" fill-rule="nonzero" fill-opacity="1"></path><path clip-path="url(#clip970)" d="M5703.16 1527.6 Q5696.84 1527.6 5693.64 1533.83 Q5690.48 1540.03 5690.48 1552.51 Q5690.48 1564.95 5693.64 1571.18 Q5696.84 1577.38 5703.16 1577.38 Q5709.52 1577.38 5712.68 1571.18 Q5715.88 1564.95 5715.88 1552.51 Q5715.88 1540.03 5712.68 1533.83 Q5709.52 1527.6 5703.16 1527.6 M5703.16 1521.11 Q5713.32 1521.11 5718.67 1529.18 Q5724.06 1537.2 5724.06 1552.51 Q5724.06 1567.78 5718.67 1575.84 Q5713.32 1583.86 5703.16 1583.86 Q5692.99 1583.86 5687.6 1575.84 Q5682.25 1567.78 5682.25 1552.51 Q5682.25 1537.2 5687.6 1529.18 Q5692.99 1521.11 5703.16 1521.11 Z" fill="#000000" fill-rule="nonzero" fill-opacity="1"></path><path clip-path="url(#clip970)" d="M5739.86 1575.8 L5753.23 1575.8 L5753.23 1529.66 L5738.68 1532.58 L5738.68 1525.13 L5753.15 1522.21 L5761.33 1522.21 L5761.33 1575.8 L5774.7 1575.8 L5774.7 1582.69 L5739.86 1582.69 L5739.86 1575.8 Z" fill="#000000" fill-rule="nonzero" fill-opacity="1"></path><path clip-path="url(#clip970)" d="M5807.31 1556.68 L5795.88 1593.63 L5789 1593.63 L5800.42 1556.68 L5789 1519.74 L5795.88 1519.74 L5807.31 1556.68 Z" fill="#000000" fill-rule="nonzero" fill-opacity="1"></path><path clip-path="url(#clip970)" d="M6142.89 1519.29 L6142.89 1602.25 L6136 1602.25 L6136 1519.29 L6142.89 1519.29 Z" fill="#000000" fill-rule="nonzero" fill-opacity="1"></path><path clip-path="url(#clip970)" d="M6179.79 1527.6 Q6173.47 1527.6 6170.27 1533.83 Q6167.11 1540.03 6167.11 1552.51 Q6167.11 1564.95 6170.27 1571.18 Q6173.47 1577.38 6179.79 1577.38 Q6186.15 1577.38 6189.31 1571.18 Q6192.51 1564.95 6192.51 1552.51 Q6192.51 1540.03 6189.31 1533.83 Q6186.15 1527.6 6179.79 1527.6 M6179.79 1521.11 Q6189.96 1521.11 6195.31 1529.18 Q6200.69 1537.2 6200.69 1552.51 Q6200.69 1567.78 6195.31 1575.84 Q6189.96 1583.86 6179.79 1583.86 Q6169.62 1583.86 6164.24 1575.84 Q6158.89 1567.78 6158.89 1552.51 Q6158.89 1537.2 6164.24 1529.18 Q6169.62 1521.11 6179.79 1521.11 Z" fill="#000000" fill-rule="nonzero" fill-opacity="1"></path><path clip-path="url(#clip970)" d="M6216.49 1575.8 L6229.86 1575.8 L6229.86 1529.66 L6215.32 1532.58 L6215.32 1525.13 L6229.78 1522.21 L6237.96 1522.21 L6237.96 1575.8 L6251.33 1575.8 L6251.33 1582.69 L6216.49 1582.69 L6216.49 1575.8 Z" fill="#000000" fill-rule="nonzero" fill-opacity="1"></path><path clip-path="url(#clip970)" d="M6285.36 1527.6 Q6279.04 1527.6 6275.84 1533.83 Q6272.68 1540.03 6272.68 1552.51 Q6272.68 1564.95 6275.84 1571.18 Q6279.04 1577.38 6285.36 1577.38 Q6291.72 1577.38 6294.88 1571.18 Q6298.08 1564.95 6298.08 1552.51 Q6298.08 1540.03 6294.88 1533.83 Q6291.72 1527.6 6285.36 1527.6 M6285.36 1521.11 Q6295.53 1521.11 6300.87 1529.18 Q6306.26 1537.2 6306.26 1552.51 Q6306.26 1567.78 6300.87 1575.84 Q6295.53 1583.86 6285.36 1583.86 Q6275.19 1583.86 6269.8 1575.84 Q6264.46 1567.78 6264.46 1552.51 Q6264.46 1537.2 6269.8 1529.18 Q6275.19 1521.11 6285.36 1521.11 Z" fill="#000000" fill-rule="nonzero" fill-opacity="1"></path><path clip-path="url(#clip970)" d="M6322.06 1575.8 L6335.43 1575.8 L6335.43 1529.66 L6320.88 1532.58 L6320.88 1525.13 L6335.35 1522.21 L6343.53 1522.21 L6343.53 1575.8 L6356.9 1575.8 L6356.9 1582.69 L6322.06 1582.69 L6322.06 1575.8 Z" fill="#000000" fill-rule="nonzero" fill-opacity="1"></path><path clip-path="url(#clip970)" d="M6374.84 1575.8 L6388.21 1575.8 L6388.21 1529.66 L6373.67 1532.58 L6373.67 1525.13 L6388.13 1522.21 L6396.31 1522.21 L6396.31 1575.8 L6409.68 1575.8 L6409.68 1582.69 L6374.84 1582.69 L6374.84 1575.8 Z" fill="#000000" fill-rule="nonzero" fill-opacity="1"></path><path clip-path="url(#clip970)" d="M6443.71 1527.6 Q6437.39 1527.6 6434.19 1533.83 Q6431.03 1540.03 6431.03 1552.51 Q6431.03 1564.95 6434.19 1571.18 Q6437.39 1577.38 6443.71 1577.38 Q6450.07 1577.38 6453.23 1571.18 Q6456.43 1564.95 6456.43 1552.51 Q6456.43 1540.03 6453.23 1533.83 Q6450.07 1527.6 6443.71 1527.6 M6443.71 1521.11 Q6453.88 1521.11 6459.22 1529.18 Q6464.61 1537.2 6464.61 1552.51 Q6464.61 1567.78 6459.22 1575.84 Q6453.88 1583.86 6443.71 1583.86 Q6433.54 1583.86 6428.15 1575.84 Q6422.81 1567.78 6422.81 1552.51 Q6422.81 1537.2 6428.15 1529.18 Q6433.54 1521.11 6443.71 1521.11 Z" fill="#000000" fill-rule="nonzero" fill-opacity="1"></path><path clip-path="url(#clip970)" d="M6480.41 1575.8 L6493.78 1575.8 L6493.78 1529.66 L6479.23 1532.58 L6479.23 1525.13 L6493.7 1522.21 L6501.88 1522.21 L6501.88 1575.8 L6515.25 1575.8 L6515.25 1582.69 L6480.41 1582.69 L6480.41 1575.8 Z" fill="#000000" fill-rule="nonzero" fill-opacity="1"></path><path clip-path="url(#clip970)" d="M6547.86 1556.68 L6536.43 1593.63 L6529.55 1593.63 L6540.97 1556.68 L6529.55 1519.74 L6536.43 1519.74 L6547.86 1556.68 Z" fill="#000000" fill-rule="nonzero" fill-opacity="1"></path><path clip-path="url(#clip970)" d="M6883.44 1519.29 L6883.44 1602.25 L6876.55 1602.25 L6876.55 1519.29 L6883.44 1519.29 Z" fill="#000000" fill-rule="nonzero" fill-opacity="1"></path><path clip-path="url(#clip970)" d="M6920.34 1527.6 Q6914.02 1527.6 6910.82 1533.83 Q6907.66 1540.03 6907.66 1552.51 Q6907.66 1564.95 6910.82 1571.18 Q6914.02 1577.38 6920.34 1577.38 Q6926.7 1577.38 6929.86 1571.18 Q6933.06 1564.95 6933.06 1552.51 Q6933.06 1540.03 6929.86 1533.83 Q6926.7 1527.6 6920.34 1527.6 M6920.34 1521.11 Q6930.51 1521.11 6935.86 1529.18 Q6941.25 1537.2 6941.25 1552.51 Q6941.25 1567.78 6935.86 1575.84 Q6930.51 1583.86 6920.34 1583.86 Q6910.18 1583.86 6904.79 1575.84 Q6899.44 1567.78 6899.44 1552.51 Q6899.44 1537.2 6904.79 1529.18 Q6910.18 1521.11 6920.34 1521.11 Z" fill="#000000" fill-rule="nonzero" fill-opacity="1"></path><path clip-path="url(#clip970)" d="M6957.04 1575.8 L6970.41 1575.8 L6970.41 1529.66 L6955.87 1532.58 L6955.87 1525.13 L6970.33 1522.21 L6978.51 1522.21 L6978.51 1575.8 L6991.88 1575.8 L6991.88 1582.69 L6957.04 1582.69 L6957.04 1575.8 Z" fill="#000000" fill-rule="nonzero" fill-opacity="1"></path><path clip-path="url(#clip970)" d="M7009.83 1575.8 L7023.2 1575.8 L7023.2 1529.66 L7008.65 1532.58 L7008.65 1525.13 L7023.11 1522.21 L7031.3 1522.21 L7031.3 1575.8 L7044.67 1575.8 L7044.67 1582.69 L7009.83 1582.69 L7009.83 1575.8 Z" fill="#000000" fill-rule="nonzero" fill-opacity="1"></path><path clip-path="url(#clip970)" d="M7062.61 1575.8 L7075.98 1575.8 L7075.98 1529.66 L7061.44 1532.58 L7061.44 1525.13 L7075.9 1522.21 L7084.08 1522.21 L7084.08 1575.8 L7097.45 1575.8 L7097.45 1582.69 L7062.61 1582.69 L7062.61 1575.8 Z" fill="#000000" fill-rule="nonzero" fill-opacity="1"></path><path clip-path="url(#clip970)" d="M7115.39 1575.8 L7128.76 1575.8 L7128.76 1529.66 L7114.22 1532.58 L7114.22 1525.13 L7128.68 1522.21 L7136.86 1522.21 L7136.86 1575.8 L7150.23 1575.8 L7150.23 1582.69 L7115.39 1582.69 L7115.39 1575.8 Z" fill="#000000" fill-rule="nonzero" fill-opacity="1"></path><path clip-path="url(#clip970)" d="M7168.18 1575.8 L7181.55 1575.8 L7181.55 1529.66 L7167 1532.58 L7167 1525.13 L7181.46 1522.21 L7189.65 1522.21 L7189.65 1575.8 L7203.01 1575.8 L7203.01 1582.69 L7168.18 1582.69 L7168.18 1575.8 Z" fill="#000000" fill-rule="nonzero" fill-opacity="1"></path><path clip-path="url(#clip970)" d="M7220.96 1575.8 L7234.33 1575.8 L7234.33 1529.66 L7219.79 1532.58 L7219.79 1525.13 L7234.25 1522.21 L7242.43 1522.21 L7242.43 1575.8 L7255.8 1575.8 L7255.8 1582.69 L7220.96 1582.69 L7220.96 1575.8 Z" fill="#000000" fill-rule="nonzero" fill-opacity="1"></path><path clip-path="url(#clip970)" d="M7288.41 1556.68 L7276.98 1593.63 L7270.1 1593.63 L7281.52 1556.68 L7270.1 1519.74 L7276.98 1519.74 L7288.41 1556.68 Z" fill="#000000" fill-rule="nonzero" fill-opacity="1"></path><circle clip-path="url(#clip972)" style="fill:#3da44d; stroke:none; fill-opacity:1" cx="417.52" cy="82.3457" r="2"></circle>
<circle clip-path="url(#clip972)" style="fill:#3da44d; stroke:none; fill-opacity:1" cx="1158.07" cy="82.3457" r="2"></circle>
<circle clip-path="url(#clip972)" style="fill:#3da44d; stroke:none; fill-opacity:1" cx="1898.62" cy="82.3457" r="2"></circle>
<circle clip-path="url(#clip972)" style="fill:#3da44d; stroke:none; fill-opacity:1" cx="2639.17" cy="82.3457" r="2"></circle>
<circle clip-path="url(#clip972)" style="fill:#3da44d; stroke:none; fill-opacity:1" cx="3379.72" cy="82.3457" r="2"></circle>
<circle clip-path="url(#clip972)" style="fill:#3da44d; stroke:none; fill-opacity:1" cx="4120.28" cy="82.3457" r="2"></circle>
<circle clip-path="url(#clip972)" style="fill:#3da44d; stroke:none; fill-opacity:1" cx="4860.83" cy="82.3457" r="2"></circle>
<circle clip-path="url(#clip972)" style="fill:#3da44d; stroke:none; fill-opacity:1" cx="5601.38" cy="82.3457" r="2"></circle>
<circle clip-path="url(#clip972)" style="fill:#3da44d; stroke:none; fill-opacity:1" cx="6341.93" cy="82.3457" r="2"></circle>
<circle clip-path="url(#clip972)" style="fill:#3da44d; stroke:none; fill-opacity:1" cx="7082.48" cy="82.3457" r="2"></circle>
<path clip-path="url(#clip970)" d="M343.611 59.2353 L322.951 91.521 L343.611 91.521 L343.611 59.2353 M341.464 52.1057 L351.753 52.1057 L351.753 91.521 L360.382 91.521 L360.382 98.3265 L351.753 98.3265 L351.753 112.586 L343.611 112.586 L343.611 98.3265 L316.308 98.3265 L316.308 90.4273 L341.464 52.1057 Z" fill="#000000" fill-rule="nonzero" fill-opacity="1"></path><path clip-path="url(#clip970)" d="M371.846 52.1057 L410.734 52.1057 L410.734 55.5895 L388.779 112.586 L380.231 112.586 L400.891 58.9923 L371.846 58.9923 L371.846 52.1057 Z" fill="#000000" fill-rule="nonzero" fill-opacity="1"></path><path clip-path="url(#clip970)" d="M444.195 83.8648 Q438.362 83.8648 434.999 86.984 Q431.678 90.1032 431.678 95.5719 Q431.678 101.041 434.999 104.16 Q438.362 107.279 444.195 107.279 Q450.028 107.279 453.39 104.16 Q456.753 101 456.753 95.5719 Q456.753 90.1032 453.39 86.984 Q450.069 83.8648 444.195 83.8648 M436.012 80.381 Q430.746 79.0847 427.789 75.4794 Q424.872 71.8741 424.872 66.689 Q424.872 59.4379 430.017 55.2249 Q435.202 51.012 444.195 51.012 Q453.228 51.012 458.373 55.2249 Q463.518 59.4379 463.518 66.689 Q463.518 71.8741 460.561 75.4794 Q457.644 79.0847 452.418 80.381 Q458.333 81.7583 461.614 85.7687 Q464.936 89.7791 464.936 95.5719 Q464.936 104.362 459.548 109.061 Q454.201 113.76 444.195 113.76 Q434.189 113.76 428.801 109.061 Q423.454 104.362 423.454 95.5719 Q423.454 89.7791 426.776 85.7687 Q430.098 81.7583 436.012 80.381 M433.014 67.4587 Q433.014 72.1577 435.931 74.7908 Q438.888 77.4239 444.195 77.4239 Q449.461 77.4239 452.418 74.7908 Q455.416 72.1577 455.416 67.4587 Q455.416 62.7596 452.418 60.1265 Q449.461 57.4934 444.195 57.4934 Q438.888 57.4934 435.931 60.1265 Q433.014 62.7596 433.014 67.4587 Z" fill="#000000" fill-rule="nonzero" fill-opacity="1"></path><path clip-path="url(#clip970)" d="M501.961 59.2353 L481.301 91.521 L501.961 91.521 L501.961 59.2353 M499.814 52.1057 L510.103 52.1057 L510.103 91.521 L518.732 91.521 L518.732 98.3265 L510.103 98.3265 L510.103 112.586 L501.961 112.586 L501.961 98.3265 L474.658 98.3265 L474.658 90.4273 L499.814 52.1057 Z" fill="#000000" fill-rule="nonzero" fill-opacity="1"></path><path clip-path="url(#clip970)" d="M1085.15 59.2353 L1064.49 91.521 L1085.15 91.521 L1085.15 59.2353 M1083.01 52.1057 L1093.3 52.1057 L1093.3 91.521 L1101.93 91.521 L1101.93 98.3265 L1093.3 98.3265 L1093.3 112.586 L1085.15 112.586 L1085.15 98.3265 L1057.85 98.3265 L1057.85 90.4273 L1083.01 52.1057 Z" fill="#000000" fill-rule="nonzero" fill-opacity="1"></path><path clip-path="url(#clip970)" d="M1133.97 79.0847 Q1128.46 79.0847 1125.22 82.8521 Q1122.02 86.6194 1122.02 93.1819 Q1122.02 99.7039 1125.22 103.512 Q1128.46 107.279 1133.97 107.279 Q1139.48 107.279 1142.68 103.512 Q1145.92 99.7039 1145.92 93.1819 Q1145.92 86.6194 1142.68 82.8521 Q1139.48 79.0847 1133.97 79.0847 M1150.21 53.4425 L1150.21 60.8962 Q1147.13 59.4379 1143.97 58.6682 Q1140.85 57.8985 1137.78 57.8985 Q1129.67 57.8985 1125.38 63.3672 Q1121.13 68.836 1120.52 79.8949 Q1122.91 76.3706 1126.51 74.5072 Q1130.12 72.6033 1134.45 72.6033 Q1143.57 72.6033 1148.83 78.153 Q1154.14 83.6623 1154.14 93.1819 Q1154.14 102.499 1148.63 108.13 Q1143.12 113.76 1133.97 113.76 Q1123.48 113.76 1117.93 105.74 Q1112.38 97.6784 1112.38 82.4065 Q1112.38 68.0663 1119.18 59.5594 Q1125.99 51.012 1137.45 51.012 Q1140.53 51.012 1143.65 51.6196 Q1146.81 52.2273 1150.21 53.4425 Z" fill="#000000" fill-rule="nonzero" fill-opacity="1"></path><path clip-path="url(#clip970)" d="M1185.74 57.4934 Q1179.42 57.4934 1176.22 63.7318 Q1173.06 69.9297 1173.06 82.4065 Q1173.06 94.8428 1176.22 101.081 Q1179.42 107.279 1185.74 107.279 Q1192.1 107.279 1195.26 101.081 Q1198.46 94.8428 1198.46 82.4065 Q1198.46 69.9297 1195.26 63.7318 Q1192.1 57.4934 1185.74 57.4934 M1185.74 51.012 Q1195.91 51.012 1201.25 59.0733 Q1206.64 67.0941 1206.64 82.4065 Q1206.64 97.6784 1201.25 105.74 Q1195.91 113.76 1185.74 113.76 Q1175.57 113.76 1170.18 105.74 Q1164.84 97.6784 1164.84 82.4065 Q1164.84 67.0941 1170.18 59.0733 Q1175.57 51.012 1185.74 51.012 Z" fill="#000000" fill-rule="nonzero" fill-opacity="1"></path><path clip-path="url(#clip970)" d="M1245.81 79.9759 Q1251.69 81.2317 1254.97 85.2016 Q1258.29 89.1715 1258.29 95.0048 Q1258.29 103.957 1252.13 108.859 Q1245.98 113.76 1234.63 113.76 Q1230.83 113.76 1226.77 112.991 Q1222.76 112.262 1218.47 110.763 L1218.47 102.864 Q1221.87 104.848 1225.92 105.861 Q1229.97 106.874 1234.39 106.874 Q1242.09 106.874 1246.1 103.836 Q1250.15 100.798 1250.15 95.0048 Q1250.15 89.6576 1246.38 86.6599 Q1242.65 83.6218 1235.97 83.6218 L1228.92 83.6218 L1228.92 76.8973 L1236.29 76.8973 Q1242.33 76.8973 1245.53 74.5072 Q1248.73 72.0767 1248.73 67.5397 Q1248.73 62.8811 1245.41 60.4101 Q1242.13 57.8985 1235.97 57.8985 Q1232.61 57.8985 1228.76 58.6277 Q1224.91 59.3568 1220.29 60.8962 L1220.29 53.6046 Q1224.95 52.3083 1229 51.6601 Q1233.09 51.012 1236.7 51.012 Q1246.02 51.012 1251.44 55.2654 Q1256.87 59.4784 1256.87 66.689 Q1256.87 71.7121 1254 75.1959 Q1251.12 78.6391 1245.81 79.9759 Z" fill="#000000" fill-rule="nonzero" fill-opacity="1"></path><path clip-path="url(#clip970)" d="M1825 59.2353 L1804.34 91.521 L1825 91.521 L1825 59.2353 M1822.85 52.1057 L1833.14 52.1057 L1833.14 91.521 L1841.77 91.521 L1841.77 98.3265 L1833.14 98.3265 L1833.14 112.586 L1825 112.586 L1825 98.3265 L1797.69 98.3265 L1797.69 90.4273 L1822.85 52.1057 Z" fill="#000000" fill-rule="nonzero" fill-opacity="1"></path><path clip-path="url(#clip970)" d="M1856.72 105.699 L1870.08 105.699 L1870.08 59.5594 L1855.54 62.476 L1855.54 55.0224 L1870 52.1057 L1878.19 52.1057 L1878.19 105.699 L1891.55 105.699 L1891.55 112.586 L1856.72 112.586 L1856.72 105.699 Z" fill="#000000" fill-rule="nonzero" fill-opacity="1"></path><path clip-path="url(#clip970)" d="M1925.58 83.8648 Q1919.75 83.8648 1916.39 86.984 Q1913.06 90.1032 1913.06 95.5719 Q1913.06 101.041 1916.39 104.16 Q1919.75 107.279 1925.58 107.279 Q1931.41 107.279 1934.78 104.16 Q1938.14 101 1938.14 95.5719 Q1938.14 90.1032 1934.78 86.984 Q1931.45 83.8648 1925.58 83.8648 M1917.4 80.381 Q1912.13 79.0847 1909.17 75.4794 Q1906.26 71.8741 1906.26 66.689 Q1906.26 59.4379 1911.4 55.2249 Q1916.59 51.012 1925.58 51.012 Q1934.61 51.012 1939.76 55.2249 Q1944.9 59.4379 1944.9 66.689 Q1944.9 71.8741 1941.95 75.4794 Q1939.03 79.0847 1933.8 80.381 Q1939.72 81.7583 1943 85.7687 Q1946.32 89.7791 1946.32 95.5719 Q1946.32 104.362 1940.93 109.061 Q1935.59 113.76 1925.58 113.76 Q1915.58 113.76 1910.19 109.061 Q1904.84 104.362 1904.84 95.5719 Q1904.84 89.7791 1908.16 85.7687 Q1911.48 81.7583 1917.4 80.381 M1914.4 67.4587 Q1914.4 72.1577 1917.32 74.7908 Q1920.27 77.4239 1925.58 77.4239 Q1930.85 77.4239 1933.8 74.7908 Q1936.8 72.1577 1936.8 67.4587 Q1936.8 62.7596 1933.8 60.1265 Q1930.85 57.4934 1925.58 57.4934 Q1920.27 57.4934 1917.32 60.1265 Q1914.4 62.7596 1914.4 67.4587 Z" fill="#000000" fill-rule="nonzero" fill-opacity="1"></path><path clip-path="url(#clip970)" d="M1979.38 79.0847 Q1973.87 79.0847 1970.63 82.8521 Q1967.43 86.6194 1967.43 93.1819 Q1967.43 99.7039 1970.63 103.512 Q1973.87 107.279 1979.38 107.279 Q1984.89 107.279 1988.09 103.512 Q1991.33 99.7039 1991.33 93.1819 Q1991.33 86.6194 1988.09 82.8521 Q1984.89 79.0847 1979.38 79.0847 M1995.62 53.4425 L1995.62 60.8962 Q1992.54 59.4379 1989.38 58.6682 Q1986.26 57.8985 1983.18 57.8985 Q1975.08 57.8985 1970.79 63.3672 Q1966.54 68.836 1965.93 79.8949 Q1968.32 76.3706 1971.92 74.5072 Q1975.53 72.6033 1979.86 72.6033 Q1988.98 72.6033 1994.24 78.153 Q1999.55 83.6623 1999.55 93.1819 Q1999.55 102.499 1994.04 108.13 Q1988.53 113.76 1979.38 113.76 Q1968.88 113.76 1963.34 105.74 Q1957.79 97.6784 1957.79 82.4065 Q1957.79 68.0663 1964.59 59.5594 Q1971.4 51.012 1982.86 51.012 Q1985.94 51.012 1989.06 51.6196 Q1992.22 52.2273 1995.62 53.4425 Z" fill="#000000" fill-rule="nonzero" fill-opacity="1"></path><path clip-path="url(#clip970)" d="M2565.26 59.2353 L2544.6 91.521 L2565.26 91.521 L2565.26 59.2353 M2563.12 52.1057 L2573.41 52.1057 L2573.41 91.521 L2582.04 91.521 L2582.04 98.3265 L2573.41 98.3265 L2573.41 112.586 L2565.26 112.586 L2565.26 98.3265 L2537.96 98.3265 L2537.96 90.4273 L2563.12 52.1057 Z" fill="#000000" fill-rule="nonzero" fill-opacity="1"></path><path clip-path="url(#clip970)" d="M2596.98 105.699 L2610.35 105.699 L2610.35 59.5594 L2595.81 62.476 L2595.81 55.0224 L2610.27 52.1057 L2618.45 52.1057 L2618.45 105.699 L2631.82 105.699 L2631.82 112.586 L2596.98 112.586 L2596.98 105.699 Z" fill="#000000" fill-rule="nonzero" fill-opacity="1"></path><path clip-path="url(#clip970)" d="M2649.77 105.699 L2663.13 105.699 L2663.13 59.5594 L2648.59 62.476 L2648.59 55.0224 L2663.05 52.1057 L2671.24 52.1057 L2671.24 105.699 L2684.6 105.699 L2684.6 112.586 L2649.77 112.586 L2649.77 105.699 Z" fill="#000000" fill-rule="nonzero" fill-opacity="1"></path><path clip-path="url(#clip970)" d="M2723.61 59.2353 L2702.95 91.521 L2723.61 91.521 L2723.61 59.2353 M2721.47 52.1057 L2731.76 52.1057 L2731.76 91.521 L2740.39 91.521 L2740.39 98.3265 L2731.76 98.3265 L2731.76 112.586 L2723.61 112.586 L2723.61 98.3265 L2696.31 98.3265 L2696.31 90.4273 L2721.47 52.1057 Z" fill="#000000" fill-rule="nonzero" fill-opacity="1"></path><path clip-path="url(#clip970)" d="M3308.81 79.9759 Q3314.69 81.2317 3317.97 85.2016 Q3321.29 89.1715 3321.29 95.0048 Q3321.29 103.957 3315.13 108.859 Q3308.98 113.76 3297.63 113.76 Q3293.82 113.76 3289.77 112.991 Q3285.76 112.262 3281.47 110.763 L3281.47 102.864 Q3284.87 104.848 3288.92 105.861 Q3292.97 106.874 3297.39 106.874 Q3305.09 106.874 3309.1 103.836 Q3313.15 100.798 3313.15 95.0048 Q3313.15 89.6576 3309.38 86.6599 Q3305.65 83.6218 3298.97 83.6218 L3291.92 83.6218 L3291.92 76.8973 L3299.29 76.8973 Q3305.33 76.8973 3308.53 74.5072 Q3311.73 72.0767 3311.73 67.5397 Q3311.73 62.8811 3308.41 60.4101 Q3305.13 57.8985 3298.97 57.8985 Q3295.61 57.8985 3291.76 58.6277 Q3287.91 59.3568 3283.29 60.8962 L3283.29 53.6046 Q3287.95 52.3083 3292 51.6601 Q3296.09 51.012 3299.7 51.012 Q3309.02 51.012 3314.44 55.2654 Q3319.87 59.4784 3319.87 66.689 Q3319.87 71.7121 3317 75.1959 Q3314.12 78.6391 3308.81 79.9759 Z" fill="#000000" fill-rule="nonzero" fill-opacity="1"></path><path clip-path="url(#clip970)" d="M3337.05 111.33 L3337.05 103.876 Q3340.13 105.335 3343.29 106.104 Q3346.45 106.874 3349.48 106.874 Q3357.59 106.874 3361.84 101.446 Q3366.13 95.977 3366.74 84.8775 Q3364.39 88.3613 3360.79 90.2247 Q3357.18 92.0882 3352.81 92.0882 Q3343.73 92.0882 3338.43 86.6194 Q3333.16 81.1102 3333.16 71.5906 Q3333.16 62.2735 3338.67 56.6427 Q3344.18 51.012 3353.33 51.012 Q3363.82 51.012 3369.33 59.0733 Q3374.88 67.0941 3374.88 82.4065 Q3374.88 96.7062 3368.08 105.254 Q3361.31 113.76 3349.85 113.76 Q3346.77 113.76 3343.61 113.153 Q3340.45 112.545 3337.05 111.33 M3353.33 85.6877 Q3358.84 85.6877 3362.04 81.9204 Q3365.28 78.153 3365.28 71.5906 Q3365.28 65.0686 3362.04 61.3013 Q3358.84 57.4934 3353.33 57.4934 Q3347.82 57.4934 3344.58 61.3013 Q3341.38 65.0686 3341.38 71.5906 Q3341.38 78.153 3344.58 81.9204 Q3347.82 85.6877 3353.33 85.6877 Z" fill="#000000" fill-rule="nonzero" fill-opacity="1"></path><path clip-path="url(#clip970)" d="M3396.64 105.699 L3425.2 105.699 L3425.2 112.586 L3386.79 112.586 L3386.79 105.699 Q3391.45 100.879 3399.47 92.7768 Q3407.53 84.6345 3409.6 82.285 Q3413.53 77.8695 3415.07 74.8313 Q3416.65 71.7526 3416.65 68.7955 Q3416.65 63.9749 3413.25 60.9367 Q3409.88 57.8985 3404.46 57.8985 Q3400.61 57.8985 3396.31 59.2353 Q3392.06 60.5721 3387.2 63.2862 L3387.2 55.0224 Q3392.14 53.0374 3396.43 52.0247 Q3400.73 51.012 3404.29 51.012 Q3413.69 51.012 3419.28 55.711 Q3424.87 60.4101 3424.87 68.2688 Q3424.87 71.9957 3423.45 75.3579 Q3422.08 78.6797 3418.39 83.2167 Q3417.38 84.3914 3411.95 90.0222 Q3406.52 95.6124 3396.64 105.699 Z" fill="#000000" fill-rule="nonzero" fill-opacity="1"></path><path clip-path="url(#clip970)" d="M3449.42 105.699 L3477.98 105.699 L3477.98 112.586 L3439.58 112.586 L3439.58 105.699 Q3444.24 100.879 3452.26 92.7768 Q3460.32 84.6345 3462.38 82.285 Q3466.31 77.8695 3467.85 74.8313 Q3469.43 71.7526 3469.43 68.7955 Q3469.43 63.9749 3466.03 60.9367 Q3462.67 57.8985 3457.24 57.8985 Q3453.39 57.8985 3449.1 59.2353 Q3444.84 60.5721 3439.98 63.2862 L3439.98 55.0224 Q3444.92 53.0374 3449.22 52.0247 Q3453.51 51.012 3457.08 51.012 Q3466.47 51.012 3472.06 55.711 Q3477.66 60.4101 3477.66 68.2688 Q3477.66 71.9957 3476.24 75.3579 Q3474.86 78.6797 3471.17 83.2167 Q3470.16 84.3914 3464.73 90.0222 Q3459.3 95.6124 3449.42 105.699 Z" fill="#000000" fill-rule="nonzero" fill-opacity="1"></path><path clip-path="url(#clip970)" d="M4048.84 79.9759 Q4054.71 81.2317 4057.99 85.2016 Q4061.31 89.1715 4061.31 95.0048 Q4061.31 103.957 4055.16 108.859 Q4049 113.76 4037.66 113.76 Q4033.85 113.76 4029.8 112.991 Q4025.79 112.262 4021.49 110.763 L4021.49 102.864 Q4024.9 104.848 4028.95 105.861 Q4033 106.874 4037.41 106.874 Q4045.11 106.874 4049.12 103.836 Q4053.17 100.798 4053.17 95.0048 Q4053.17 89.6576 4049.41 86.6599 Q4045.68 83.6218 4038.99 83.6218 L4031.95 83.6218 L4031.95 76.8973 L4039.32 76.8973 Q4045.35 76.8973 4048.55 74.5072 Q4051.75 72.0767 4051.75 67.5397 Q4051.75 62.8811 4048.43 60.4101 Q4045.15 57.8985 4038.99 57.8985 Q4035.63 57.8985 4031.78 58.6277 Q4027.94 59.3568 4023.32 60.8962 L4023.32 53.6046 Q4027.98 52.3083 4032.03 51.6601 Q4036.12 51.012 4039.72 51.012 Q4049.04 51.012 4054.47 55.2654 Q4059.9 59.4784 4059.9 66.689 Q4059.9 71.7121 4057.02 75.1959 Q4054.14 78.6391 4048.84 79.9759 Z" fill="#000000" fill-rule="nonzero" fill-opacity="1"></path><path clip-path="url(#clip970)" d="M4078.25 105.699 L4091.62 105.699 L4091.62 59.5594 L4077.07 62.476 L4077.07 55.0224 L4091.53 52.1057 L4099.72 52.1057 L4099.72 105.699 L4113.09 105.699 L4113.09 112.586 L4078.25 112.586 L4078.25 105.699 Z" fill="#000000" fill-rule="nonzero" fill-opacity="1"></path><path clip-path="url(#clip970)" d="M4136.66 105.699 L4165.22 105.699 L4165.22 112.586 L4126.82 112.586 L4126.82 105.699 Q4131.48 100.879 4139.5 92.7768 Q4147.56 84.6345 4149.62 82.285 Q4153.55 77.8695 4155.09 74.8313 Q4156.67 71.7526 4156.67 68.7955 Q4156.67 63.9749 4153.27 60.9367 Q4149.91 57.8985 4144.48 57.8985 Q4140.63 57.8985 4136.34 59.2353 Q4132.08 60.5721 4127.22 63.2862 L4127.22 55.0224 Q4132.16 53.0374 4136.46 52.0247 Q4140.75 51.012 4144.32 51.012 Q4153.72 51.012 4159.31 55.711 Q4164.9 60.4101 4164.9 68.2688 Q4164.9 71.9957 4163.48 75.3579 Q4162.1 78.6797 4158.41 83.2167 Q4157.4 84.3914 4151.97 90.0222 Q4146.55 95.6124 4136.66 105.699 Z" fill="#000000" fill-rule="nonzero" fill-opacity="1"></path><path clip-path="url(#clip970)" d="M4182.48 52.1057 L4214.6 52.1057 L4214.6 58.9923 L4189.97 58.9923 L4189.97 73.8186 Q4191.75 73.2109 4193.54 72.9274 Q4195.32 72.6033 4197.1 72.6033 Q4207.23 72.6033 4213.14 78.153 Q4219.06 83.7028 4219.06 93.1819 Q4219.06 102.945 4212.98 108.373 Q4206.9 113.76 4195.85 113.76 Q4192.04 113.76 4188.07 113.112 Q4184.14 112.464 4179.93 111.168 L4179.93 102.945 Q4183.57 104.93 4187.46 105.902 Q4191.35 106.874 4195.68 106.874 Q4202.69 106.874 4206.78 103.188 Q4210.87 99.5013 4210.87 93.1819 Q4210.87 86.8625 4206.78 83.1762 Q4202.69 79.4898 4195.68 79.4898 Q4192.4 79.4898 4189.12 80.219 Q4185.88 80.9482 4182.48 82.4875 L4182.48 52.1057 Z" fill="#000000" fill-rule="nonzero" fill-opacity="1"></path><path clip-path="url(#clip970)" d="M4789.59 79.9759 Q4795.47 81.2317 4798.75 85.2016 Q4802.07 89.1715 4802.07 95.0048 Q4802.07 103.957 4795.91 108.859 Q4789.75 113.76 4778.41 113.76 Q4774.6 113.76 4770.55 112.991 Q4766.54 112.262 4762.25 110.763 L4762.25 102.864 Q4765.65 104.848 4769.7 105.861 Q4773.75 106.874 4778.17 106.874 Q4785.86 106.874 4789.88 103.836 Q4793.93 100.798 4793.93 95.0048 Q4793.93 89.6576 4790.16 86.6599 Q4786.43 83.6218 4779.75 83.6218 L4772.7 83.6218 L4772.7 76.8973 L4780.07 76.8973 Q4786.11 76.8973 4789.31 74.5072 Q4792.51 72.0767 4792.51 67.5397 Q4792.51 62.8811 4789.19 60.4101 Q4785.91 57.8985 4779.75 57.8985 Q4776.39 57.8985 4772.54 58.6277 Q4768.69 59.3568 4764.07 60.8962 L4764.07 53.6046 Q4768.73 52.3083 4772.78 51.6601 Q4776.87 51.012 4780.48 51.012 Q4789.79 51.012 4795.22 55.2654 Q4800.65 59.4784 4800.65 66.689 Q4800.65 71.7121 4797.77 75.1959 Q4794.9 78.6391 4789.59 79.9759 Z" fill="#000000" fill-rule="nonzero" fill-opacity="1"></path><path clip-path="url(#clip970)" d="M4835.08 57.4934 Q4828.76 57.4934 4825.56 63.7318 Q4822.4 69.9297 4822.4 82.4065 Q4822.4 94.8428 4825.56 101.081 Q4828.76 107.279 4835.08 107.279 Q4841.44 107.279 4844.6 101.081 Q4847.8 94.8428 4847.8 82.4065 Q4847.8 69.9297 4844.6 63.7318 Q4841.44 57.4934 4835.08 57.4934 M4835.08 51.012 Q4845.25 51.012 4850.6 59.0733 Q4855.99 67.0941 4855.99 82.4065 Q4855.99 97.6784 4850.6 105.74 Q4845.25 113.76 4835.08 113.76 Q4824.92 113.76 4819.53 105.74 Q4814.18 97.6784 4814.18 82.4065 Q4814.18 67.0941 4819.53 59.0733 Q4824.92 51.012 4835.08 51.012 Z" fill="#000000" fill-rule="nonzero" fill-opacity="1"></path><path clip-path="url(#clip970)" d="M4887.87 83.8648 Q4882.03 83.8648 4878.67 86.984 Q4875.35 90.1032 4875.35 95.5719 Q4875.35 101.041 4878.67 104.16 Q4882.03 107.279 4887.87 107.279 Q4893.7 107.279 4897.06 104.16 Q4900.42 101 4900.42 95.5719 Q4900.42 90.1032 4897.06 86.984 Q4893.74 83.8648 4887.87 83.8648 M4879.68 80.381 Q4874.42 79.0847 4871.46 75.4794 Q4868.54 71.8741 4868.54 66.689 Q4868.54 59.4379 4873.69 55.2249 Q4878.87 51.012 4887.87 51.012 Q4896.9 51.012 4902.04 55.2249 Q4907.19 59.4379 4907.19 66.689 Q4907.19 71.8741 4904.23 75.4794 Q4901.32 79.0847 4896.09 80.381 Q4902 81.7583 4905.29 85.7687 Q4908.61 89.7791 4908.61 95.5719 Q4908.61 104.362 4903.22 109.061 Q4897.87 113.76 4887.87 113.76 Q4877.86 113.76 4872.47 109.061 Q4867.13 104.362 4867.13 95.5719 Q4867.13 89.7791 4870.45 85.7687 Q4873.77 81.7583 4879.68 80.381 M4876.69 67.4587 Q4876.69 72.1577 4879.6 74.7908 Q4882.56 77.4239 4887.87 77.4239 Q4893.13 77.4239 4896.09 74.7908 Q4899.09 72.1577 4899.09 67.4587 Q4899.09 62.7596 4896.09 60.1265 Q4893.13 57.4934 4887.87 57.4934 Q4882.56 57.4934 4879.6 60.1265 Q4876.69 62.7596 4876.69 67.4587 Z" fill="#000000" fill-rule="nonzero" fill-opacity="1"></path><path clip-path="url(#clip970)" d="M4924.57 105.699 L4937.94 105.699 L4937.94 59.5594 L4923.39 62.476 L4923.39 55.0224 L4937.85 52.1057 L4946.04 52.1057 L4946.04 105.699 L4959.41 105.699 L4959.41 112.586 L4924.57 112.586 L4924.57 105.699 Z" fill="#000000" fill-rule="nonzero" fill-opacity="1"></path><path clip-path="url(#clip970)" d="M5528.93 79.9759 Q5534.8 81.2317 5538.08 85.2016 Q5541.4 89.1715 5541.4 95.0048 Q5541.4 103.957 5535.25 108.859 Q5529.09 113.76 5517.75 113.76 Q5513.94 113.76 5509.89 112.991 Q5505.88 112.262 5501.58 110.763 L5501.58 102.864 Q5504.99 104.848 5509.04 105.861 Q5513.09 106.874 5517.5 106.874 Q5525.2 106.874 5529.21 103.836 Q5533.26 100.798 5533.26 95.0048 Q5533.26 89.6576 5529.49 86.6599 Q5525.77 83.6218 5519.08 83.6218 L5512.04 83.6218 L5512.04 76.8973 L5519.41 76.8973 Q5525.44 76.8973 5528.64 74.5072 Q5531.84 72.0767 5531.84 67.5397 Q5531.84 62.8811 5528.52 60.4101 Q5525.24 57.8985 5519.08 57.8985 Q5515.72 57.8985 5511.87 58.6277 Q5508.02 59.3568 5503.41 60.8962 L5503.41 53.6046 Q5508.07 52.3083 5512.12 51.6601 Q5516.21 51.012 5519.81 51.012 Q5529.13 51.012 5534.56 55.2654 Q5539.99 59.4784 5539.99 66.689 Q5539.99 71.7121 5537.11 75.1959 Q5534.23 78.6391 5528.93 79.9759 Z" fill="#000000" fill-rule="nonzero" fill-opacity="1"></path><path clip-path="url(#clip970)" d="M5574.42 57.4934 Q5568.1 57.4934 5564.9 63.7318 Q5561.74 69.9297 5561.74 82.4065 Q5561.74 94.8428 5564.9 101.081 Q5568.1 107.279 5574.42 107.279 Q5580.78 107.279 5583.94 101.081 Q5587.14 94.8428 5587.14 82.4065 Q5587.14 69.9297 5583.94 63.7318 Q5580.78 57.4934 5574.42 57.4934 M5574.42 51.012 Q5584.59 51.012 5589.93 59.0733 Q5595.32 67.0941 5595.32 82.4065 Q5595.32 97.6784 5589.93 105.74 Q5584.59 113.76 5574.42 113.76 Q5564.25 113.76 5558.86 105.74 Q5553.52 97.6784 5553.52 82.4065 Q5553.52 67.0941 5558.86 59.0733 Q5564.25 51.012 5574.42 51.012 Z" fill="#000000" fill-rule="nonzero" fill-opacity="1"></path><path clip-path="url(#clip970)" d="M5609.78 52.1057 L5641.91 52.1057 L5641.91 58.9923 L5617.28 58.9923 L5617.28 73.8186 Q5619.06 73.2109 5620.84 72.9274 Q5622.62 72.6033 5624.41 72.6033 Q5634.53 72.6033 5640.45 78.153 Q5646.36 83.7028 5646.36 93.1819 Q5646.36 102.945 5640.29 108.373 Q5634.21 113.76 5623.15 113.76 Q5619.34 113.76 5615.37 113.112 Q5611.44 112.464 5607.23 111.168 L5607.23 102.945 Q5610.88 104.93 5614.77 105.902 Q5618.66 106.874 5622.99 106.874 Q5630 106.874 5634.09 103.188 Q5638.18 99.5013 5638.18 93.1819 Q5638.18 86.8625 5634.09 83.1762 Q5630 79.4898 5622.99 79.4898 Q5619.71 79.4898 5616.43 80.219 Q5613.19 80.9482 5609.78 82.4875 L5609.78 52.1057 Z" fill="#000000" fill-rule="nonzero" fill-opacity="1"></path><path clip-path="url(#clip970)" d="M5681 79.0847 Q5675.49 79.0847 5672.25 82.8521 Q5669.05 86.6194 5669.05 93.1819 Q5669.05 99.7039 5672.25 103.512 Q5675.49 107.279 5681 107.279 Q5686.51 107.279 5689.71 103.512 Q5692.95 99.7039 5692.95 93.1819 Q5692.95 86.6194 5689.71 82.8521 Q5686.51 79.0847 5681 79.0847 M5697.24 53.4425 L5697.24 60.8962 Q5694.16 59.4379 5691 58.6682 Q5687.89 57.8985 5684.81 57.8985 Q5676.7 57.8985 5672.41 63.3672 Q5668.16 68.836 5667.55 79.8949 Q5669.94 76.3706 5673.54 74.5072 Q5677.15 72.6033 5681.48 72.6033 Q5690.6 72.6033 5695.87 78.153 Q5701.17 83.6623 5701.17 93.1819 Q5701.17 102.499 5695.66 108.13 Q5690.15 113.76 5681 113.76 Q5670.51 113.76 5664.96 105.74 Q5659.41 97.6784 5659.41 82.4065 Q5659.41 68.0663 5666.21 59.5594 Q5673.02 51.012 5684.48 51.012 Q5687.56 51.012 5690.68 51.6196 Q5693.84 52.2273 5697.24 53.4425 Z" fill="#000000" fill-rule="nonzero" fill-opacity="1"></path><path clip-path="url(#clip970)" d="M6269.7 79.9759 Q6275.58 81.2317 6278.86 85.2016 Q6282.18 89.1715 6282.18 95.0048 Q6282.18 103.957 6276.02 108.859 Q6269.86 113.76 6258.52 113.76 Q6254.71 113.76 6250.66 112.991 Q6246.65 112.262 6242.36 110.763 L6242.36 102.864 Q6245.76 104.848 6249.81 105.861 Q6253.86 106.874 6258.28 106.874 Q6265.97 106.874 6269.99 103.836 Q6274.04 100.798 6274.04 95.0048 Q6274.04 89.6576 6270.27 86.6599 Q6266.54 83.6218 6259.86 83.6218 L6252.81 83.6218 L6252.81 76.8973 L6260.18 76.8973 Q6266.22 76.8973 6269.42 74.5072 Q6272.62 72.0767 6272.62 67.5397 Q6272.62 62.8811 6269.3 60.4101 Q6266.02 57.8985 6259.86 57.8985 Q6256.5 57.8985 6252.65 58.6277 Q6248.8 59.3568 6244.18 60.8962 L6244.18 53.6046 Q6248.84 52.3083 6252.89 51.6601 Q6256.98 51.012 6260.59 51.012 Q6269.9 51.012 6275.33 55.2654 Q6280.76 59.4784 6280.76 66.689 Q6280.76 71.7121 6277.88 75.1959 Q6275.01 78.6391 6269.7 79.9759 Z" fill="#000000" fill-rule="nonzero" fill-opacity="1"></path><path clip-path="url(#clip970)" d="M6315.19 57.4934 Q6308.87 57.4934 6305.67 63.7318 Q6302.51 69.9297 6302.51 82.4065 Q6302.51 94.8428 6305.67 101.081 Q6308.87 107.279 6315.19 107.279 Q6321.55 107.279 6324.71 101.081 Q6327.91 94.8428 6327.91 82.4065 Q6327.91 69.9297 6324.71 63.7318 Q6321.55 57.4934 6315.19 57.4934 M6315.19 51.012 Q6325.36 51.012 6330.71 59.0733 Q6336.1 67.0941 6336.1 82.4065 Q6336.1 97.6784 6330.71 105.74 Q6325.36 113.76 6315.19 113.76 Q6305.03 113.76 6299.64 105.74 Q6294.29 97.6784 6294.29 82.4065 Q6294.29 67.0941 6299.64 59.0733 Q6305.03 51.012 6315.19 51.012 Z" fill="#000000" fill-rule="nonzero" fill-opacity="1"></path><path clip-path="url(#clip970)" d="M6375.27 79.9759 Q6381.14 81.2317 6384.42 85.2016 Q6387.74 89.1715 6387.74 95.0048 Q6387.74 103.957 6381.59 108.859 Q6375.43 113.76 6364.09 113.76 Q6360.28 113.76 6356.23 112.991 Q6352.22 112.262 6347.92 110.763 L6347.92 102.864 Q6351.33 104.848 6355.38 105.861 Q6359.43 106.874 6363.84 106.874 Q6371.54 106.874 6375.55 103.836 Q6379.6 100.798 6379.6 95.0048 Q6379.6 89.6576 6375.84 86.6599 Q6372.11 83.6218 6365.42 83.6218 L6358.38 83.6218 L6358.38 76.8973 L6365.75 76.8973 Q6371.78 76.8973 6374.98 74.5072 Q6378.18 72.0767 6378.18 67.5397 Q6378.18 62.8811 6374.86 60.4101 Q6371.58 57.8985 6365.42 57.8985 Q6362.06 57.8985 6358.21 58.6277 Q6354.37 59.3568 6349.75 60.8962 L6349.75 53.6046 Q6354.41 52.3083 6358.46 51.6601 Q6362.55 51.012 6366.15 51.012 Q6375.47 51.012 6380.9 55.2654 Q6386.33 59.4784 6386.33 66.689 Q6386.33 71.7121 6383.45 75.1959 Q6380.57 78.6391 6375.27 79.9759 Z" fill="#000000" fill-rule="nonzero" fill-opacity="1"></path><path clip-path="url(#clip970)" d="M6420.76 83.8648 Q6414.93 83.8648 6411.56 86.984 Q6408.24 90.1032 6408.24 95.5719 Q6408.24 101.041 6411.56 104.16 Q6414.93 107.279 6420.76 107.279 Q6426.59 107.279 6429.96 104.16 Q6433.32 101 6433.32 95.5719 Q6433.32 90.1032 6429.96 86.984 Q6426.63 83.8648 6420.76 83.8648 M6412.58 80.381 Q6407.31 79.0847 6404.35 75.4794 Q6401.44 71.8741 6401.44 66.689 Q6401.44 59.4379 6406.58 55.2249 Q6411.77 51.012 6420.76 51.012 Q6429.79 51.012 6434.94 55.2249 Q6440.08 59.4379 6440.08 66.689 Q6440.08 71.8741 6437.13 75.4794 Q6434.21 79.0847 6428.98 80.381 Q6434.9 81.7583 6438.18 85.7687 Q6441.5 89.7791 6441.5 95.5719 Q6441.5 104.362 6436.11 109.061 Q6430.77 113.76 6420.76 113.76 Q6410.75 113.76 6405.37 109.061 Q6400.02 104.362 6400.02 95.5719 Q6400.02 89.7791 6403.34 85.7687 Q6406.66 81.7583 6412.58 80.381 M6409.58 67.4587 Q6409.58 72.1577 6412.5 74.7908 Q6415.45 77.4239 6420.76 77.4239 Q6426.03 77.4239 6428.98 74.7908 Q6431.98 72.1577 6431.98 67.4587 Q6431.98 62.7596 6428.98 60.1265 Q6426.03 57.4934 6420.76 57.4934 Q6415.45 57.4934 6412.5 60.1265 Q6409.58 62.7596 6409.58 67.4587 Z" fill="#000000" fill-rule="nonzero" fill-opacity="1"></path><path clip-path="url(#clip970)" d="M6992.71 105.699 L7021.27 105.699 L7021.27 112.586 L6982.87 112.586 L6982.87 105.699 Q6987.53 100.879 6995.55 92.7768 Q7003.61 84.6345 7005.68 82.285 Q7009.6 77.8695 7011.14 74.8313 Q7012.72 71.7526 7012.72 68.7955 Q7012.72 63.9749 7009.32 60.9367 Q7005.96 57.8985 7000.53 57.8985 Q6996.68 57.8985 6992.39 59.2353 Q6988.13 60.5721 6983.27 63.2862 L6983.27 55.0224 Q6988.22 53.0374 6992.51 52.0247 Q6996.8 51.012 7000.37 51.012 Q7009.77 51.012 7015.36 55.711 Q7020.95 60.4101 7020.95 68.2688 Q7020.95 71.9957 7019.53 75.3579 Q7018.15 78.6797 7014.47 83.2167 Q7013.45 84.3914 7008.02 90.0222 Q7002.6 95.6124 6992.71 105.699 Z" fill="#000000" fill-rule="nonzero" fill-opacity="1"></path><path clip-path="url(#clip970)" d="M7038.69 111.33 L7038.69 103.876 Q7041.77 105.335 7044.93 106.104 Q7048.09 106.874 7051.13 106.874 Q7059.23 106.874 7063.48 101.446 Q7067.78 95.977 7068.38 84.8775 Q7066.03 88.3613 7062.43 90.2247 Q7058.82 92.0882 7054.45 92.0882 Q7045.37 92.0882 7040.07 86.6194 Q7034.8 81.1102 7034.8 71.5906 Q7034.8 62.2735 7040.31 56.6427 Q7045.82 51.012 7054.97 51.012 Q7065.47 51.012 7070.98 59.0733 Q7076.53 67.0941 7076.53 82.4065 Q7076.53 96.7062 7069.72 105.254 Q7062.95 113.76 7051.49 113.76 Q7048.41 113.76 7045.25 113.153 Q7042.09 112.545 7038.69 111.33 M7054.97 85.6877 Q7060.48 85.6877 7063.68 81.9204 Q7066.92 78.153 7066.92 71.5906 Q7066.92 65.0686 7063.68 61.3013 Q7060.48 57.4934 7054.97 57.4934 Q7049.47 57.4934 7046.22 61.3013 Q7043.02 65.0686 7043.02 71.5906 Q7043.02 78.153 7046.22 81.9204 Q7049.47 85.6877 7054.97 85.6877 Z" fill="#000000" fill-rule="nonzero" fill-opacity="1"></path><path clip-path="url(#clip970)" d="M7091.47 111.33 L7091.47 103.876 Q7094.55 105.335 7097.71 106.104 Q7100.87 106.874 7103.91 106.874 Q7112.01 106.874 7116.26 101.446 Q7120.56 95.977 7121.17 84.8775 Q7118.82 88.3613 7115.21 90.2247 Q7111.61 92.0882 7107.23 92.0882 Q7098.16 92.0882 7092.85 86.6194 Q7087.58 81.1102 7087.58 71.5906 Q7087.58 62.2735 7093.09 56.6427 Q7098.6 51.012 7107.76 51.012 Q7118.25 51.012 7123.76 59.0733 Q7129.31 67.0941 7129.31 82.4065 Q7129.31 96.7062 7122.5 105.254 Q7115.74 113.76 7104.27 113.76 Q7101.2 113.76 7098.04 113.153 Q7094.88 112.545 7091.47 111.33 M7107.76 85.6877 Q7113.27 85.6877 7116.47 81.9204 Q7119.71 78.153 7119.71 71.5906 Q7119.71 65.0686 7116.47 61.3013 Q7113.27 57.4934 7107.76 57.4934 Q7102.25 57.4934 7099.01 61.3013 Q7095.81 65.0686 7095.81 71.5906 Q7095.81 78.153 7099.01 81.9204 Q7102.25 85.6877 7107.76 85.6877 Z" fill="#000000" fill-rule="nonzero" fill-opacity="1"></path><path clip-path="url(#clip970)" d="M7144.26 111.33 L7144.26 103.876 Q7147.34 105.335 7150.49 106.104 Q7153.65 106.874 7156.69 106.874 Q7164.79 106.874 7169.05 101.446 Q7173.34 95.977 7173.95 84.8775 Q7171.6 88.3613 7167.99 90.2247 Q7164.39 92.0882 7160.01 92.0882 Q7150.94 92.0882 7145.63 86.6194 Q7140.37 81.1102 7140.37 71.5906 Q7140.37 62.2735 7145.88 56.6427 Q7151.39 51.012 7160.54 51.012 Q7171.03 51.012 7176.54 59.0733 Q7182.09 67.0941 7182.09 82.4065 Q7182.09 96.7062 7175.29 105.254 Q7168.52 113.76 7157.06 113.76 Q7153.98 113.76 7150.82 113.153 Q7147.66 112.545 7144.26 111.33 M7160.54 85.6877 Q7166.05 85.6877 7169.25 81.9204 Q7172.49 78.153 7172.49 71.5906 Q7172.49 65.0686 7169.25 61.3013 Q7166.05 57.4934 7160.54 57.4934 Q7155.03 57.4934 7151.79 61.3013 Q7148.59 65.0686 7148.59 71.5906 Q7148.59 78.153 7151.79 81.9204 Q7155.03 85.6877 7160.54 85.6877 Z" fill="#000000" fill-rule="nonzero" fill-opacity="1"></path><path clip-path="url(#clip970)" d="M5953.04 235.039 L7205.91 235.039 L7205.91 131.359 L5953.04 131.359  Z" fill="#000000" fill-rule="evenodd" fill-opacity="0"></path>
<polyline clip-path="url(#clip970)" style="stroke:#000000; stroke-linecap:round; stroke-linejoin:round; stroke-width:4; stroke-opacity:0; fill:none" points="5953.04,235.039 7205.91,235.039 7205.91,131.359 5953.04,131.359 5953.04,235.039 "></polyline>
<path clip-path="url(#clip970)" d="M6035.33 203.935 L6529.03 203.935 L6529.03 162.463 L6035.33 162.463 L6035.33 203.935  Z" fill="#ff0000" fill-rule="evenodd" fill-opacity="1"></path>
<polyline clip-path="url(#clip970)" style="stroke:#add8e6; stroke-linecap:round; stroke-linejoin:round; stroke-width:4; stroke-opacity:1; fill:none" points="6035.33,203.935 6529.03,203.935 6529.03,162.463 6035.33,162.463 6035.33,203.935 "></polyline>
<path clip-path="url(#clip970)" d="M6611.31 165.919 L6631.17 165.919 L6631.17 169.855 L6615.99 169.855 L6615.99 180.04 L6629.69 180.04 L6629.69 183.975 L6615.99 183.975 L6615.99 200.479 L6611.31 200.479 L6611.31 165.919 Z" fill="#000000" fill-rule="nonzero" fill-opacity="1"></path><path clip-path="url(#clip970)" d="M6646.75 177.54 Q6643.32 177.54 6641.33 180.225 Q6639.34 182.887 6639.34 187.54 Q6639.34 192.192 6641.31 194.878 Q6643.3 197.54 6646.75 197.54 Q6650.15 197.54 6652.14 194.854 Q6654.13 192.169 6654.13 187.54 Q6654.13 182.933 6652.14 180.248 Q6650.15 177.54 6646.75 177.54 M6646.75 173.929 Q6652.31 173.929 6655.48 177.54 Q6658.65 181.151 6658.65 187.54 Q6658.65 193.905 6655.48 197.54 Q6652.31 201.151 6646.75 201.151 Q6641.17 201.151 6638 197.54 Q6634.85 193.905 6634.85 187.54 Q6634.85 181.151 6638 177.54 Q6641.17 173.929 6646.75 173.929 Z" fill="#000000" fill-rule="nonzero" fill-opacity="1"></path><path clip-path="url(#clip970)" d="M6665.27 190.248 L6665.27 174.554 L6669.53 174.554 L6669.53 190.086 Q6669.53 193.766 6670.96 195.618 Q6672.4 197.447 6675.27 197.447 Q6678.72 197.447 6680.71 195.248 Q6682.72 193.049 6682.72 189.253 L6682.72 174.554 L6686.98 174.554 L6686.98 200.479 L6682.72 200.479 L6682.72 196.498 Q6681.17 198.859 6679.11 200.016 Q6677.07 201.151 6674.37 201.151 Q6669.9 201.151 6667.58 198.373 Q6665.27 195.595 6665.27 190.248 M6675.99 173.929 L6675.99 173.929 Z" fill="#000000" fill-rule="nonzero" fill-opacity="1"></path><path clip-path="url(#clip970)" d="M6717.3 184.831 L6717.3 200.479 L6713.05 200.479 L6713.05 184.97 Q6713.05 181.29 6711.61 179.461 Q6710.18 177.632 6707.3 177.632 Q6703.86 177.632 6701.87 179.831 Q6699.87 182.03 6699.87 185.827 L6699.87 200.479 L6695.59 200.479 L6695.59 174.554 L6699.87 174.554 L6699.87 178.581 Q6701.4 176.243 6703.46 175.086 Q6705.55 173.929 6708.25 173.929 Q6712.72 173.929 6715.01 176.706 Q6717.3 179.461 6717.3 184.831 Z" fill="#000000" fill-rule="nonzero" fill-opacity="1"></path><path clip-path="url(#clip970)" d="M6742.86 178.489 L6742.86 164.461 L6747.12 164.461 L6747.12 200.479 L6742.86 200.479 L6742.86 196.591 Q6741.52 198.905 6739.46 200.04 Q6737.42 201.151 6734.55 201.151 Q6729.85 201.151 6726.89 197.401 Q6723.95 193.651 6723.95 187.54 Q6723.95 181.429 6726.89 177.679 Q6729.85 173.929 6734.55 173.929 Q6737.42 173.929 6739.46 175.063 Q6741.52 176.174 6742.86 178.489 M6728.35 187.54 Q6728.35 192.239 6730.27 194.924 Q6732.21 197.586 6735.59 197.586 Q6738.97 197.586 6740.92 194.924 Q6742.86 192.239 6742.86 187.54 Q6742.86 182.841 6740.92 180.179 Q6738.97 177.493 6735.59 177.493 Q6732.21 177.493 6730.27 180.179 Q6728.35 182.841 6728.35 187.54 Z" fill="#000000" fill-rule="nonzero" fill-opacity="1"></path><path clip-path="url(#clip970)" d="M6770.96 174.554 L6775.22 174.554 L6775.22 200.479 L6770.96 200.479 L6770.96 174.554 M6770.96 164.461 L6775.22 164.461 L6775.22 169.855 L6770.96 169.855 L6770.96 164.461 Z" fill="#000000" fill-rule="nonzero" fill-opacity="1"></path><path clip-path="url(#clip970)" d="M6805.68 184.831 L6805.68 200.479 L6801.42 200.479 L6801.42 184.97 Q6801.42 181.29 6799.99 179.461 Q6798.55 177.632 6795.68 177.632 Q6792.23 177.632 6790.24 179.831 Q6788.25 182.03 6788.25 185.827 L6788.25 200.479 L6783.97 200.479 L6783.97 174.554 L6788.25 174.554 L6788.25 178.581 Q6789.78 176.243 6791.84 175.086 Q6793.92 173.929 6796.63 173.929 Q6801.1 173.929 6803.39 176.706 Q6805.68 179.461 6805.68 184.831 Z" fill="#000000" fill-rule="nonzero" fill-opacity="1"></path><path clip-path="url(#clip970)" d="M6830.66 196.544 L6838.3 196.544 L6838.3 170.179 L6829.99 171.845 L6829.99 167.586 L6838.25 165.919 L6842.93 165.919 L6842.93 196.544 L6850.57 196.544 L6850.57 200.479 L6830.66 200.479 L6830.66 196.544 Z" fill="#000000" fill-rule="nonzero" fill-opacity="1"></path><path clip-path="url(#clip970)" d="M6870.01 168.998 Q6866.4 168.998 6864.57 172.563 Q6862.77 176.105 6862.77 183.234 Q6862.77 190.341 6864.57 193.905 Q6866.4 197.447 6870.01 197.447 Q6873.65 197.447 6875.45 193.905 Q6877.28 190.341 6877.28 183.234 Q6877.28 176.105 6875.45 172.563 Q6873.65 168.998 6870.01 168.998 M6870.01 165.294 Q6875.82 165.294 6878.88 169.901 Q6881.96 174.484 6881.96 183.234 Q6881.96 191.961 6878.88 196.567 Q6875.82 201.151 6870.01 201.151 Q6864.2 201.151 6861.12 196.567 Q6858.07 191.961 6858.07 183.234 Q6858.07 174.484 6861.12 169.901 Q6864.2 165.294 6870.01 165.294 Z" fill="#000000" fill-rule="nonzero" fill-opacity="1"></path><path clip-path="url(#clip970)" d="M6900.17 168.998 Q6896.56 168.998 6894.73 172.563 Q6892.93 176.105 6892.93 183.234 Q6892.93 190.341 6894.73 193.905 Q6896.56 197.447 6900.17 197.447 Q6903.81 197.447 6905.61 193.905 Q6907.44 190.341 6907.44 183.234 Q6907.44 176.105 6905.61 172.563 Q6903.81 168.998 6900.17 168.998 M6900.17 165.294 Q6905.98 165.294 6909.04 169.901 Q6912.12 174.484 6912.12 183.234 Q6912.12 191.961 6909.04 196.567 Q6905.98 201.151 6900.17 201.151 Q6894.36 201.151 6891.29 196.567 Q6888.23 191.961 6888.23 183.234 Q6888.23 174.484 6891.29 169.901 Q6894.36 165.294 6900.17 165.294 Z" fill="#000000" fill-rule="nonzero" fill-opacity="1"></path><path clip-path="url(#clip970)" d="M6930.34 168.998 Q6926.72 168.998 6924.9 172.563 Q6923.09 176.105 6923.09 183.234 Q6923.09 190.341 6924.9 193.905 Q6926.72 197.447 6930.34 197.447 Q6933.97 197.447 6935.78 193.905 Q6937.6 190.341 6937.6 183.234 Q6937.6 176.105 6935.78 172.563 Q6933.97 168.998 6930.34 168.998 M6930.34 165.294 Q6936.15 165.294 6939.2 169.901 Q6942.28 174.484 6942.28 183.234 Q6942.28 191.961 6939.2 196.567 Q6936.15 201.151 6930.34 201.151 Q6924.53 201.151 6921.45 196.567 Q6918.39 191.961 6918.39 183.234 Q6918.39 174.484 6921.45 169.901 Q6924.53 165.294 6930.34 165.294 Z" fill="#000000" fill-rule="nonzero" fill-opacity="1"></path><path clip-path="url(#clip970)" d="M6960.5 168.998 Q6956.89 168.998 6955.06 172.563 Q6953.25 176.105 6953.25 183.234 Q6953.25 190.341 6955.06 193.905 Q6956.89 197.447 6960.5 197.447 Q6964.13 197.447 6965.94 193.905 Q6967.77 190.341 6967.77 183.234 Q6967.77 176.105 6965.94 172.563 Q6964.13 168.998 6960.5 168.998 M6960.5 165.294 Q6966.31 165.294 6969.36 169.901 Q6972.44 174.484 6972.44 183.234 Q6972.44 191.961 6969.36 196.567 Q6966.31 201.151 6960.5 201.151 Q6954.69 201.151 6951.61 196.567 Q6948.55 191.961 6948.55 183.234 Q6948.55 174.484 6951.61 169.901 Q6954.69 165.294 6960.5 165.294 Z" fill="#000000" fill-rule="nonzero" fill-opacity="1"></path><path clip-path="url(#clip970)" d="M6990.66 168.998 Q6987.05 168.998 6985.22 172.563 Q6983.41 176.105 6983.41 183.234 Q6983.41 190.341 6985.22 193.905 Q6987.05 197.447 6990.66 197.447 Q6994.29 197.447 6996.1 193.905 Q6997.93 190.341 6997.93 183.234 Q6997.93 176.105 6996.1 172.563 Q6994.29 168.998 6990.66 168.998 M6990.66 165.294 Q6996.47 165.294 6999.53 169.901 Q7002.6 174.484 7002.6 183.234 Q7002.6 191.961 6999.53 196.567 Q6996.47 201.151 6990.66 201.151 Q6984.85 201.151 6981.77 196.567 Q6978.72 191.961 6978.72 183.234 Q6978.72 174.484 6981.77 169.901 Q6984.85 165.294 6990.66 165.294 Z" fill="#000000" fill-rule="nonzero" fill-opacity="1"></path><path clip-path="url(#clip970)" d="M7029.5 167.193 L7029.5 174.554 L7038.28 174.554 L7038.28 177.864 L7029.5 177.864 L7029.5 191.938 Q7029.5 195.109 7030.36 196.012 Q7031.24 196.915 7033.9 196.915 L7038.28 196.915 L7038.28 200.479 L7033.9 200.479 Q7028.97 200.479 7027.09 198.651 Q7025.22 196.799 7025.22 191.938 L7025.22 177.864 L7022.09 177.864 L7022.09 174.554 L7025.22 174.554 L7025.22 167.193 L7029.5 167.193 Z" fill="#000000" fill-rule="nonzero" fill-opacity="1"></path><path clip-path="url(#clip970)" d="M7058.9 178.535 Q7058.18 178.118 7057.33 177.933 Q7056.49 177.725 7055.47 177.725 Q7051.86 177.725 7049.92 180.086 Q7048 182.424 7048 186.822 L7048 200.479 L7043.72 200.479 L7043.72 174.554 L7048 174.554 L7048 178.581 Q7049.34 176.22 7051.49 175.086 Q7053.65 173.929 7056.72 173.929 Q7057.16 173.929 7057.7 173.998 Q7058.23 174.044 7058.88 174.16 L7058.9 178.535 Z" fill="#000000" fill-rule="nonzero" fill-opacity="1"></path><path clip-path="url(#clip970)" d="M7063.37 174.554 L7067.63 174.554 L7067.63 200.479 L7063.37 200.479 L7063.37 174.554 M7063.37 164.461 L7067.63 164.461 L7067.63 169.855 L7063.37 169.855 L7063.37 164.461 Z" fill="#000000" fill-rule="nonzero" fill-opacity="1"></path><path clip-path="url(#clip970)" d="M7098.71 186.452 L7098.71 188.535 L7079.13 188.535 Q7079.41 192.933 7081.77 195.248 Q7084.15 197.54 7088.39 197.54 Q7090.84 197.54 7093.14 196.938 Q7095.45 196.336 7097.72 195.132 L7097.72 199.16 Q7095.43 200.132 7093.02 200.641 Q7090.61 201.151 7088.14 201.151 Q7081.93 201.151 7078.3 197.54 Q7074.69 193.929 7074.69 187.771 Q7074.69 181.405 7078.11 177.679 Q7081.56 173.929 7087.4 173.929 Q7092.63 173.929 7095.66 177.308 Q7098.71 180.665 7098.71 186.452 M7094.46 185.202 Q7094.41 181.706 7092.49 179.623 Q7090.59 177.54 7087.44 177.54 Q7083.88 177.54 7081.72 179.554 Q7079.59 181.567 7079.27 185.225 L7094.46 185.202 Z" fill="#000000" fill-rule="nonzero" fill-opacity="1"></path><path clip-path="url(#clip970)" d="M7122.23 175.317 L7122.23 179.345 Q7120.43 178.419 7118.48 177.956 Q7116.54 177.493 7114.46 177.493 Q7111.28 177.493 7109.69 178.466 Q7108.11 179.438 7108.11 181.382 Q7108.11 182.864 7109.25 183.72 Q7110.38 184.554 7113.81 185.317 L7115.27 185.642 Q7119.8 186.614 7121.7 188.396 Q7123.62 190.155 7123.62 193.327 Q7123.62 196.938 7120.75 199.044 Q7117.9 201.151 7112.9 201.151 Q7110.82 201.151 7108.55 200.734 Q7106.31 200.341 7103.81 199.53 L7103.81 195.132 Q7106.17 196.359 7108.46 196.984 Q7110.75 197.586 7113 197.586 Q7116.01 197.586 7117.63 196.567 Q7119.25 195.526 7119.25 193.651 Q7119.25 191.915 7118.07 190.989 Q7116.91 190.063 7112.95 189.206 L7111.47 188.859 Q7107.51 188.026 7105.75 186.313 Q7103.99 184.577 7103.99 181.567 Q7103.99 177.91 7106.59 175.919 Q7109.18 173.929 7113.95 173.929 Q7116.31 173.929 7118.39 174.276 Q7120.47 174.623 7122.23 175.317 Z" fill="#000000" fill-rule="nonzero" fill-opacity="1"></path></svg>