<svg xmlns="http://www.w3.org/2000/svg" xmlns:xlink="http://www.w3.org/1999/xlink" version="1.2" width="63.75mm" height="112.5mm" viewBox="0 0 63.75 112.5" stroke="none" fill="#000000" stroke-width="0.3" font-size="3.88">
<rect width="100%" height="100%" fill="#dddddd"/>
<defs>
  <marker id="arrow" markerWidth="15" markerHeight="7" refX="5" refY="3.5" orient="auto" markerUnits="strokeWidth">
    <path d="M0,0 L15,3.5 L0,7 z" stroke="context-stroke" fill="context-stroke"></path>
  </marker>
</defs>
<g stroke-width="0" fill="#000000" id="img-de95a4f4-1">
  <g transform="translate(44.38,100)">
    <circle cx="0" cy="0" r="0.83" class="primitive"></circle>
  </g>
</g>
<g stroke-width="0" fill="#000000" id="img-de95a4f4-2">
  <g transform="translate(44.38,81.25)">
    <circle cx="0" cy="0" r="0.83" class="primitive"></circle>
  </g>
</g>
<g stroke-width="0" fill="#000000" id="img-de95a4f4-3">
  <g transform="translate(44.38,62.5)">
    <circle cx="0" cy="0" r="0.83" class="primitive"></circle>
  </g>
</g>
<g stroke-width="0.35" stroke="#000000" fill="#FFFFFF" id="img-de95a4f4-4">
  <g transform="translate(44.38,25)">
    <path d="M-5,-5 L5,-5 5,5 -5,5  z" class="primitive"></path>
  </g>
</g>
<g stroke-width="0" fill="#000000" id="img-de95a4f4-5">
  <g transform="translate(23.13,43.75)">
    <circle cx="0" cy="0" r="0.83" class="primitive"></circle>
  </g>
</g>
<g stroke-width="0.35" stroke="#000000" fill="#FFFFFF" id="img-de95a4f4-6">
  <g transform="translate(23.12,6.25)">
    <path d="M-5,-5 L5,-5 5,5 -5,5  z" class="primitive"></path>
  </g>
</g>
<g stroke-width="0.35" stroke="#000000" id="img-de95a4f4-7">
  <g transform="translate(55,100)">
    <path fill="none" d="M0,0 L0,0 " class="primitive"></path>
  </g>
</g>
<g stroke-width="0.35" stroke="#000000" id="img-de95a4f4-8">
  <g transform="translate(55,81.25)">
    <path fill="none" d="M0,0 L0,0 " class="primitive"></path>
  </g>
</g>
<g stroke-width="0.35" stroke="#000000" id="img-de95a4f4-9">
  <g transform="translate(55,62.5)">
    <path fill="none" d="M0,0 L0,0 " class="primitive"></path>
  </g>
</g>
<g stroke-width="0.35" stroke="#000000" id="img-de95a4f4-10">
  <g transform="translate(55,43.75)">
    <path fill="none" d="M0,0 L0,0 " class="primitive"></path>
  </g>
</g>
<g stroke-width="0.35" stroke="#000000" id="img-de95a4f4-11">
  <g transform="translate(55,25)">
    <path fill="none" d="M0,0 L0,0 " class="primitive"></path>
  </g>
</g>
<g stroke-width="0.35" stroke="#000000" id="img-de95a4f4-12">
  <g transform="translate(44.38,6.25)">
    <path fill="none" d="M10.62,0 L-10.62,0 " class="primitive"></path>
  </g>
</g>
<g stroke-width="0.35" stroke="#000000" id="img-de95a4f4-13">
  <g transform="translate(44.38,43.75)">
    <path fill="none" d="M-10.62,0 L10.62,0 " class="primitive"></path>
  </g>
</g>
<g stroke-width="0.35" stroke="#000000" id="img-de95a4f4-14">
  <g transform="translate(50.1,100)">
    <path fill="none" d="M-4.9,0 L4.9,0 " class="primitive"></path>
  </g>
</g>
<g stroke-width="0.35" stroke="#000000" id="img-de95a4f4-15">
  <g transform="translate(28.02,100)">
    <path fill="none" d="M-15.52,0 L15.52,0 " class="primitive"></path>
  </g>
</g>
<g stroke-width="0.35" stroke="#000000" id="img-de95a4f4-16">
  <g transform="translate(50.1,81.25)">
    <path fill="none" d="M-4.9,0 L4.9,0 " class="primitive"></path>
  </g>
</g>
<g stroke-width="0.35" stroke="#000000" id="img-de95a4f4-17">
  <g transform="translate(28.02,81.25)">
    <path fill="none" d="M-15.52,0 L15.52,0 " class="primitive"></path>
  </g>
</g>
<g stroke-width="0.35" stroke="#000000" id="img-de95a4f4-18">
  <g transform="translate(50.1,62.5)">
    <path fill="none" d="M-4.9,0 L4.9,0 " class="primitive"></path>
  </g>
</g>
<g stroke-width="0.35" stroke="#000000" id="img-de95a4f4-19">
  <g transform="translate(28.02,62.5)">
    <path fill="none" d="M-15.52,0 L15.52,0 " class="primitive"></path>
  </g>
</g>
<g stroke-width="0.35" stroke="#000000" id="img-de95a4f4-20">
  <g transform="translate(52.19,25)">
    <path fill="none" d="M-2.81,0 L2.81,0 " class="primitive"></path>
  </g>
</g>
<g stroke-width="0.35" stroke="#000000" id="img-de95a4f4-21">
  <g transform="translate(36.56,25)">
    <path fill="none" d="M-2.81,0 L2.81,0 " class="primitive"></path>
  </g>
</g>
<g stroke-width="0.35" stroke="#000000" id="img-de95a4f4-22">
  <g transform="translate(44.38,90.62)">
    <path fill="none" d="M0,8.54 L0,-8.54 " class="primitive"></path>
  </g>
</g>
<g stroke-width="0.35" stroke="#000000" id="img-de95a4f4-23">
  <g transform="translate(44.38,71.88)">
    <path fill="none" d="M0,8.54 L0,-8.54 " class="primitive"></path>
  </g>
</g>
<g stroke-width="0.35" stroke="#000000" id="img-de95a4f4-24">
  <g transform="translate(44.38,45.83)">
    <path fill="none" d="M0,15.83 L0,-15.83 " class="primitive"></path>
  </g>
</g>
<g stroke-width="0.35" stroke="#000000" id="img-de95a4f4-25">
  <g transform="translate(23.13,25)">
    <path fill="none" d="M-10.63,0 L10.63,0 " class="primitive"></path>
  </g>
</g>
<g stroke-width="0.35" stroke="#000000" id="img-de95a4f4-26">
  <g transform="translate(28.85,43.75)">
    <path fill="none" d="M-4.9,0 L4.9,0 " class="primitive"></path>
  </g>
</g>
<g stroke-width="0.35" stroke="#000000" id="img-de95a4f4-27">
  <g transform="translate(17.4,43.75)">
    <path fill="none" d="M-4.9,0 L4.9,0 " class="primitive"></path>
  </g>
</g>
<g stroke-width="0.35" stroke="#000000" id="img-de95a4f4-28">
  <g transform="translate(30.94,6.25)">
    <path fill="none" d="M-2.81,0 L2.81,0 " class="primitive"></path>
  </g>
</g>
<g stroke-width="0.35" stroke="#000000" id="img-de95a4f4-29">
  <g transform="translate(15.31,6.25)">
    <path fill="none" d="M-2.81,0 L2.81,0 " class="primitive"></path>
  </g>
</g>
<g stroke-width="0.35" stroke="#000000" id="img-de95a4f4-30">
  <g transform="translate(23.13,27.08)">
    <path fill="none" d="M0,15.83 L0,-15.83 " class="primitive"></path>
  </g>
</g>
<g font-family="JuliaMono" fill="#000000" font-size="5.64" id="img-de95a4f4-31">
  <g transform="translate(44.38,100)">
    <g class="primitive">
      <text text-anchor="middle" dy="0.35em"></text>
    </g>
  </g>
</g>
<g font-family="JuliaMono" fill="#000000" font-size="5.64" id="img-de95a4f4-32">
  <g transform="translate(44.38,81.25)">
    <g class="primitive">
      <text text-anchor="middle" dy="0.35em"></text>
    </g>
  </g>
</g>
<g font-family="JuliaMono" fill="#000000" font-size="5.64" id="img-de95a4f4-33">
  <g transform="translate(44.38,62.5)">
    <g class="primitive">
      <text text-anchor="middle" dy="0.35em"></text>
    </g>
  </g>
</g>
<g font-family="JuliaMono" fill="#000000" font-size="5.64" id="img-de95a4f4-34">
  <g transform="translate(44.38,25)">
    <g class="primitive">
      <text text-anchor="middle" dy="0.35em">H</text>
    </g>
  </g>
</g>
<g font-family="JuliaMono" fill="#000000" font-size="5.64" id="img-de95a4f4-35">
  <g transform="translate(23.13,43.75)">
    <g class="primitive">
      <text text-anchor="middle" dy="0.35em"></text>
    </g>
  </g>
</g>
<g font-family="JuliaMono" fill="#000000" font-size="5.64" id="img-de95a4f4-36">
  <g transform="translate(23.13,6.25)">
    <g class="primitive">
      <text text-anchor="middle" dy="0.35em">H</text>
    </g>
  </g>
</g>
</svg>