<svg xmlns="http://www.w3.org/2000/svg" xmlns:xlink="http://www.w3.org/1999/xlink" version="1.2" width="191.25mm" height="112.5mm" viewBox="0 0 191.25 112.5" stroke="none" fill="#000000" stroke-width="0.3" font-size="3.88">
<rect width="100%" height="100%" fill="#dddddd"/>
<defs>
  <marker id="arrow" markerWidth="15" markerHeight="7" refX="5" refY="3.5" orient="auto" markerUnits="strokeWidth">
    <path d="M0,0 L15,3.5 L0,7 z" stroke="context-stroke" fill="context-stroke"></path>
  </marker>
</defs>
<g stroke-width="0.35" stroke="#000000" fill="#FFFFFF" id="img-c8471ea0-1">
  <g transform="translate(171.88,25)">
    <path d="M-5,-5 L5,-5 5,5 -5,5  z" class="primitive"></path>
  </g>
</g>
<g stroke-width="0.35" stroke="#000000" fill="#FFFFFF" id="img-c8471ea0-2">
  <g transform="translate(171.88,6.25)">
    <path d="M-5,-5 L5,-5 5,5 -5,5  z" class="primitive"></path>
  </g>
</g>
<g stroke-width="0.35" stroke="#000000" id="img-c8471ea0-3">
  <g transform="translate(150.62,43.75)">
    <path d="M0,-3.5 L0,3.5  z" class="primitive"></path>
  </g>
</g>
<g stroke-width="0.35" stroke="#000000" id="img-c8471ea0-4">
  <g transform="translate(150.62,43.75)">
    <path d="M-3.5,0 L3.5,0  z" class="primitive"></path>
  </g>
</g>
<g fill="#000000" fill-opacity="0.000" stroke-width="0.35" stroke="#000000" id="img-c8471ea0-5">
  <g transform="translate(150.62,43.75)">
    <circle cx="0" cy="0" r="3.5" class="primitive"></circle>
  </g>
</g>
<g stroke-width="0" fill="#000000" id="img-c8471ea0-6">
  <g transform="translate(150.62,25)">
    <circle cx="0" cy="0" r="0.83" class="primitive"></circle>
  </g>
</g>
<g stroke-width="0" fill="#000000" id="img-c8471ea0-7">
  <g transform="translate(150.62,6.25)">
    <circle cx="0" cy="0" r="0.83" class="primitive"></circle>
  </g>
</g>
<g stroke-width="0.35" stroke="#000000" fill="#FFFFFF" id="img-c8471ea0-8">
  <g transform="translate(129.38,25)">
    <path d="M-5,-5 L5,-5 5,5 -5,5  z" class="primitive"></path>
  </g>
</g>
<g stroke-width="0.35" stroke="#000000" fill="#FFFFFF" id="img-c8471ea0-9">
  <g transform="translate(108.12,6.25)">
    <path d="M-5,-5 L5,-5 5,5 -5,5  z" class="primitive"></path>
  </g>
</g>
<g stroke-width="0" fill="#000000" id="img-c8471ea0-10">
  <g transform="translate(108.12,81.25)">
    <circle cx="0" cy="0" r="0.83" class="primitive"></circle>
  </g>
</g>
<g stroke-width="0" fill="#000000" id="img-c8471ea0-11">
  <g transform="translate(108.12,62.5)">
    <circle cx="0" cy="0" r="0.83" class="primitive"></circle>
  </g>
</g>
<g stroke-width="0.35" stroke="#000000" id="img-c8471ea0-12">
  <g transform="translate(108.12,25)">
    <path d="M0,-3.5 L0,3.5  z" class="primitive"></path>
  </g>
</g>
<g stroke-width="0.35" stroke="#000000" id="img-c8471ea0-13">
  <g transform="translate(108.12,25)">
    <path d="M-3.5,0 L3.5,0  z" class="primitive"></path>
  </g>
</g>
<g fill="#000000" fill-opacity="0.000" stroke-width="0.35" stroke="#000000" id="img-c8471ea0-14">
  <g transform="translate(108.12,25)">
    <circle cx="0" cy="0" r="3.5" class="primitive"></circle>
  </g>
</g>
<g stroke-width="0" fill="#000000" id="img-c8471ea0-15">
  <g transform="translate(86.88,100)">
    <circle cx="0" cy="0" r="0.83" class="primitive"></circle>
  </g>
</g>
<g stroke-width="0.35" stroke="#000000" fill="#FFFFFF" id="img-c8471ea0-16">
  <g transform="translate(86.88,6.25)">
    <path d="M-8.31,-5 L8.31,-5 8.31,5 -8.31,5  z" class="primitive"></path>
  </g>
</g>
<g stroke-width="0" fill="#000000" id="img-c8471ea0-17">
  <g transform="translate(65.62,81.25)">
    <circle cx="0" cy="0" r="0.83" class="primitive"></circle>
  </g>
</g>
<g stroke-width="0.35" stroke="#000000" fill="#FFFFFF" id="img-c8471ea0-18">
  <g transform="translate(65.62,6.25)">
    <path d="M-8.31,-5 L8.31,-5 8.31,5 -8.31,5  z" class="primitive"></path>
  </g>
</g>
<g stroke-width="0" fill="#000000" id="img-c8471ea0-19">
  <g transform="translate(44.38,62.5)">
    <circle cx="0" cy="0" r="0.83" class="primitive"></circle>
  </g>
</g>
<g stroke-width="0.35" stroke="#000000" fill="#FFFFFF" id="img-c8471ea0-20">
  <g transform="translate(44.38,6.25)">
    <path d="M-6.1,-5 L6.1,-5 6.1,5 -6.1,5  z" class="primitive"></path>
  </g>
</g>
<g stroke-width="0.35" stroke="#000000" fill="#FFFFFF" id="img-c8471ea0-21">
  <g transform="translate(23.12,100)">
    <path d="M-5,-5 L5,-5 5,5 -5,5  z" class="primitive"></path>
  </g>
</g>
<g stroke-width="0.35" stroke="#000000" fill="#FFFFFF" id="img-c8471ea0-22">
  <g transform="translate(23.12,81.25)">
    <path d="M-5,-5 L5,-5 5,5 -5,5  z" class="primitive"></path>
  </g>
</g>
<g stroke-width="0.35" stroke="#000000" fill="#FFFFFF" id="img-c8471ea0-23">
  <g transform="translate(23.12,62.5)">
    <path d="M-5,-5 L5,-5 5,5 -5,5  z" class="primitive"></path>
  </g>
</g>
<g stroke-width="0.35" stroke="#000000" fill="#FFFFFF" id="img-c8471ea0-24">
  <g transform="translate(23.12,25)">
    <path d="M-5,-5 L5,-5 5,5 -5,5  z" class="primitive"></path>
  </g>
</g>
<g stroke-width="0.35" stroke="#000000" fill="#FFFFFF" id="img-c8471ea0-25">
  <g transform="translate(23.12,6.25)">
    <path d="M-5,-5 L5,-5 5,5 -5,5  z" class="primitive"></path>
  </g>
</g>
<g stroke-width="0.35" stroke="#000000" id="img-c8471ea0-26">
  <g transform="translate(140,100)">
    <path fill="none" d="M42.5,0 L-42.5,0 " class="primitive"></path>
  </g>
</g>
<g stroke-width="0.35" stroke="#000000" id="img-c8471ea0-27">
  <g transform="translate(150.62,81.25)">
    <path fill="none" d="M31.88,0 L-31.88,0 " class="primitive"></path>
  </g>
</g>
<g stroke-width="0.35" stroke="#000000" id="img-c8471ea0-28">
  <g transform="translate(150.62,62.5)">
    <path fill="none" d="M31.88,0 L-31.88,0 " class="primitive"></path>
  </g>
</g>
<g stroke-width="0.35" stroke="#000000" id="img-c8471ea0-29">
  <g transform="translate(171.88,43.75)">
    <path fill="none" d="M10.62,0 L-10.62,0 " class="primitive"></path>
  </g>
</g>
<g stroke-width="0.35" stroke="#000000" id="img-c8471ea0-30">
  <g transform="translate(182.5,25)">
    <path fill="none" d="M0,0 L0,0 " class="primitive"></path>
  </g>
</g>
<g stroke-width="0.35" stroke="#000000" id="img-c8471ea0-31">
  <g transform="translate(182.5,6.25)">
    <path fill="none" d="M0,0 L0,0 " class="primitive"></path>
  </g>
</g>
<g stroke-width="0.35" stroke="#000000" id="img-c8471ea0-32">
  <g transform="translate(179.69,25)">
    <path fill="none" d="M-2.81,0 L2.81,0 " class="primitive"></path>
  </g>
</g>
<g stroke-width="0.35" stroke="#000000" id="img-c8471ea0-33">
  <g transform="translate(164.06,25)">
    <path fill="none" d="M-2.81,0 L2.81,0 " class="primitive"></path>
  </g>
</g>
<g stroke-width="0.35" stroke="#000000" id="img-c8471ea0-34">
  <g transform="translate(179.69,6.25)">
    <path fill="none" d="M-2.81,0 L2.81,0 " class="primitive"></path>
  </g>
</g>
<g stroke-width="0.35" stroke="#000000" id="img-c8471ea0-35">
  <g transform="translate(164.06,6.25)">
    <path fill="none" d="M-2.81,0 L2.81,0 " class="primitive"></path>
  </g>
</g>
<g stroke-width="0.35" stroke="#000000" id="img-c8471ea0-36">
  <g transform="translate(157.69,43.75)">
    <path fill="none" d="M-3.56,0 L3.56,0 " class="primitive"></path>
  </g>
</g>
<g stroke-width="0.35" stroke="#000000" id="img-c8471ea0-37">
  <g transform="translate(132.94,43.75)">
    <path fill="none" d="M-14.19,0 L14.19,0 " class="primitive"></path>
  </g>
</g>
<g stroke-width="0.35" stroke="#000000" id="img-c8471ea0-38">
  <g transform="translate(156.35,25)">
    <path fill="none" d="M-4.9,0 L4.9,0 " class="primitive"></path>
  </g>
</g>
<g stroke-width="0.35" stroke="#000000" id="img-c8471ea0-39">
  <g transform="translate(144.9,25)">
    <path fill="none" d="M-4.9,0 L4.9,0 " class="primitive"></path>
  </g>
</g>
<g stroke-width="0.35" stroke="#000000" id="img-c8471ea0-40">
  <g transform="translate(156.35,6.25)">
    <path fill="none" d="M-4.9,0 L4.9,0 " class="primitive"></path>
  </g>
</g>
<g stroke-width="0.35" stroke="#000000" id="img-c8471ea0-41">
  <g transform="translate(134.27,6.25)">
    <path fill="none" d="M-15.52,0 L15.52,0 " class="primitive"></path>
  </g>
</g>
<g stroke-width="0.35" stroke="#000000" id="img-c8471ea0-42">
  <g transform="translate(150.62,33.04)">
    <path fill="none" d="M0,7.21 L0,-7.21 " class="primitive"></path>
  </g>
</g>
<g stroke-width="0.35" stroke="#000000" id="img-c8471ea0-43">
  <g transform="translate(150.62,15.62)">
    <path fill="none" d="M0,8.54 L0,-8.54 " class="primitive"></path>
  </g>
</g>
<g stroke-width="0.35" stroke="#000000" id="img-c8471ea0-44">
  <g transform="translate(137.19,25)">
    <path fill="none" d="M-2.81,0 L2.81,0 " class="primitive"></path>
  </g>
</g>
<g stroke-width="0.35" stroke="#000000" id="img-c8471ea0-45">
  <g transform="translate(121.56,25)">
    <path fill="none" d="M-2.81,0 L2.81,0 " class="primitive"></path>
  </g>
</g>
<g stroke-width="0.35" stroke="#000000" id="img-c8471ea0-46">
  <g transform="translate(115.94,6.25)">
    <path fill="none" d="M-2.81,0 L2.81,0 " class="primitive"></path>
  </g>
</g>
<g stroke-width="0.35" stroke="#000000" id="img-c8471ea0-47">
  <g transform="translate(100.31,6.25)">
    <path fill="none" d="M-2.81,0 L2.81,0 " class="primitive"></path>
  </g>
</g>
<g stroke-width="0.35" stroke="#000000" id="img-c8471ea0-48">
  <g transform="translate(108.12,43.75)">
    <path fill="none" d="M-10.62,0 L10.62,0 " class="primitive"></path>
  </g>
</g>
<g stroke-width="0.35" stroke="#000000" id="img-c8471ea0-49">
  <g transform="translate(113.85,81.25)">
    <path fill="none" d="M-4.9,0 L4.9,0 " class="primitive"></path>
  </g>
</g>
<g stroke-width="0.35" stroke="#000000" id="img-c8471ea0-50">
  <g transform="translate(102.4,81.25)">
    <path fill="none" d="M-4.9,0 L4.9,0 " class="primitive"></path>
  </g>
</g>
<g stroke-width="0.35" stroke="#000000" id="img-c8471ea0-51">
  <g transform="translate(113.85,62.5)">
    <path fill="none" d="M-4.9,0 L4.9,0 " class="primitive"></path>
  </g>
</g>
<g stroke-width="0.35" stroke="#000000" id="img-c8471ea0-52">
  <g transform="translate(102.4,62.5)">
    <path fill="none" d="M-4.9,0 L4.9,0 " class="primitive"></path>
  </g>
</g>
<g stroke-width="0.35" stroke="#000000" id="img-c8471ea0-53">
  <g transform="translate(115.19,25)">
    <path fill="none" d="M-3.56,0 L3.56,0 " class="primitive"></path>
  </g>
</g>
<g stroke-width="0.35" stroke="#000000" id="img-c8471ea0-54">
  <g transform="translate(101.06,25)">
    <path fill="none" d="M-3.56,0 L3.56,0 " class="primitive"></path>
  </g>
</g>
<g stroke-width="0.35" stroke="#000000" id="img-c8471ea0-55">
  <g transform="translate(108.12,71.88)">
    <path fill="none" d="M0,8.54 L0,-8.54 " class="primitive"></path>
  </g>
</g>
<g stroke-width="0.35" stroke="#000000" id="img-c8471ea0-56">
  <g transform="translate(108.12,45.08)">
    <path fill="none" d="M0,16.58 L0,-16.58 " class="primitive"></path>
  </g>
</g>
<g stroke-width="0.35" stroke="#000000" id="img-c8471ea0-57">
  <g transform="translate(86.88,81.25)">
    <path fill="none" d="M-10.62,0 L10.62,0 " class="primitive"></path>
  </g>
</g>
<g stroke-width="0.35" stroke="#000000" id="img-c8471ea0-58">
  <g transform="translate(86.88,62.5)">
    <path fill="none" d="M-10.62,0 L10.62,0 " class="primitive"></path>
  </g>
</g>
<g stroke-width="0.35" stroke="#000000" id="img-c8471ea0-59">
  <g transform="translate(86.88,43.75)">
    <path fill="none" d="M-10.62,0 L10.62,0 " class="primitive"></path>
  </g>
</g>
<g stroke-width="0.35" stroke="#000000" id="img-c8471ea0-60">
  <g transform="translate(86.88,25)">
    <path fill="none" d="M-10.62,0 L10.62,0 " class="primitive"></path>
  </g>
</g>
<g stroke-width="0.35" stroke="#000000" id="img-c8471ea0-61">
  <g transform="translate(92.6,100)">
    <path fill="none" d="M-4.9,0 L4.9,0 " class="primitive"></path>
  </g>
</g>
<g stroke-width="0.35" stroke="#000000" id="img-c8471ea0-62">
  <g transform="translate(59.9,100)">
    <path fill="none" d="M-26.15,0 L26.15,0 " class="primitive"></path>
  </g>
</g>
<g stroke-width="0.35" stroke="#000000" id="img-c8471ea0-63">
  <g transform="translate(96.34,6.25)">
    <path fill="none" d="M-1.16,0 L1.16,0 " class="primitive"></path>
  </g>
</g>
<g stroke-width="0.35" stroke="#000000" id="img-c8471ea0-64">
  <g transform="translate(77.41,6.25)">
    <path fill="none" d="M-1.16,0 L1.16,0 " class="primitive"></path>
  </g>
</g>
<g stroke-width="0.35" stroke="#000000" id="img-c8471ea0-65">
  <g transform="translate(86.88,55.21)">
    <path fill="none" d="M0,43.96 L0,-43.96 " class="primitive"></path>
  </g>
</g>
<g stroke-width="0.35" stroke="#000000" id="img-c8471ea0-66">
  <g transform="translate(65.62,62.5)">
    <path fill="none" d="M-10.62,0 L10.62,0 " class="primitive"></path>
  </g>
</g>
<g stroke-width="0.35" stroke="#000000" id="img-c8471ea0-67">
  <g transform="translate(65.62,43.75)">
    <path fill="none" d="M-10.62,0 L10.62,0 " class="primitive"></path>
  </g>
</g>
<g stroke-width="0.35" stroke="#000000" id="img-c8471ea0-68">
  <g transform="translate(65.62,25)">
    <path fill="none" d="M-10.62,0 L10.62,0 " class="primitive"></path>
  </g>
</g>
<g stroke-width="0.35" stroke="#000000" id="img-c8471ea0-69">
  <g transform="translate(71.35,81.25)">
    <path fill="none" d="M-4.9,0 L4.9,0 " class="primitive"></path>
  </g>
</g>
<g stroke-width="0.35" stroke="#000000" id="img-c8471ea0-70">
  <g transform="translate(49.27,81.25)">
    <path fill="none" d="M-15.52,0 L15.52,0 " class="primitive"></path>
  </g>
</g>
<g stroke-width="0.35" stroke="#000000" id="img-c8471ea0-71">
  <g transform="translate(75.09,6.25)">
    <path fill="none" d="M-1.16,0 L1.16,0 " class="primitive"></path>
  </g>
</g>
<g stroke-width="0.35" stroke="#000000" id="img-c8471ea0-72">
  <g transform="translate(56.16,6.25)">
    <path fill="none" d="M-1.16,0 L1.16,0 " class="primitive"></path>
  </g>
</g>
<g stroke-width="0.35" stroke="#000000" id="img-c8471ea0-73">
  <g transform="translate(65.62,45.83)">
    <path fill="none" d="M0,34.58 L0,-34.58 " class="primitive"></path>
  </g>
</g>
<g stroke-width="0.35" stroke="#000000" id="img-c8471ea0-74">
  <g transform="translate(33.75,43.75)">
    <path fill="none" d="M-21.25,0 L21.25,0 " class="primitive"></path>
  </g>
</g>
<g stroke-width="0.35" stroke="#000000" id="img-c8471ea0-75">
  <g transform="translate(44.38,25)">
    <path fill="none" d="M-10.62,0 L10.62,0 " class="primitive"></path>
  </g>
</g>
<g stroke-width="0.35" stroke="#000000" id="img-c8471ea0-76">
  <g transform="translate(50.1,62.5)">
    <path fill="none" d="M-4.9,0 L4.9,0 " class="primitive"></path>
  </g>
</g>
<g stroke-width="0.35" stroke="#000000" id="img-c8471ea0-77">
  <g transform="translate(38.65,62.5)">
    <path fill="none" d="M-4.9,0 L4.9,0 " class="primitive"></path>
  </g>
</g>
<g stroke-width="0.35" stroke="#000000" id="img-c8471ea0-78">
  <g transform="translate(52.74,6.25)">
    <path fill="none" d="M-2.26,0 L2.26,0 " class="primitive"></path>
  </g>
</g>
<g stroke-width="0.35" stroke="#000000" id="img-c8471ea0-79">
  <g transform="translate(36.01,6.25)">
    <path fill="none" d="M-2.26,0 L2.26,0 " class="primitive"></path>
  </g>
</g>
<g stroke-width="0.35" stroke="#000000" id="img-c8471ea0-80">
  <g transform="translate(44.38,36.46)">
    <path fill="none" d="M0,25.21 L0,-25.21 " class="primitive"></path>
  </g>
</g>
<g stroke-width="0.35" stroke="#000000" id="img-c8471ea0-81">
  <g transform="translate(30.94,100)">
    <path fill="none" d="M-2.81,0 L2.81,0 " class="primitive"></path>
  </g>
</g>
<g stroke-width="0.35" stroke="#000000" id="img-c8471ea0-82">
  <g transform="translate(15.31,100)">
    <path fill="none" d="M-2.81,0 L2.81,0 " class="primitive"></path>
  </g>
</g>
<g stroke-width="0.35" stroke="#000000" id="img-c8471ea0-83">
  <g transform="translate(30.94,81.25)">
    <path fill="none" d="M-2.81,0 L2.81,0 " class="primitive"></path>
  </g>
</g>
<g stroke-width="0.35" stroke="#000000" id="img-c8471ea0-84">
  <g transform="translate(15.31,81.25)">
    <path fill="none" d="M-2.81,0 L2.81,0 " class="primitive"></path>
  </g>
</g>
<g stroke-width="0.35" stroke="#000000" id="img-c8471ea0-85">
  <g transform="translate(30.94,62.5)">
    <path fill="none" d="M-2.81,0 L2.81,0 " class="primitive"></path>
  </g>
</g>
<g stroke-width="0.35" stroke="#000000" id="img-c8471ea0-86">
  <g transform="translate(15.31,62.5)">
    <path fill="none" d="M-2.81,0 L2.81,0 " class="primitive"></path>
  </g>
</g>
<g stroke-width="0.35" stroke="#000000" id="img-c8471ea0-87">
  <g transform="translate(30.94,25)">
    <path fill="none" d="M-2.81,0 L2.81,0 " class="primitive"></path>
  </g>
</g>
<g stroke-width="0.35" stroke="#000000" id="img-c8471ea0-88">
  <g transform="translate(15.31,25)">
    <path fill="none" d="M-2.81,0 L2.81,0 " class="primitive"></path>
  </g>
</g>
<g stroke-width="0.35" stroke="#000000" id="img-c8471ea0-89">
  <g transform="translate(30.94,6.25)">
    <path fill="none" d="M-2.81,0 L2.81,0 " class="primitive"></path>
  </g>
</g>
<g stroke-width="0.35" stroke="#000000" id="img-c8471ea0-90">
  <g transform="translate(15.31,6.25)">
    <path fill="none" d="M-2.81,0 L2.81,0 " class="primitive"></path>
  </g>
</g>
<g font-family="JuliaMono" fill="#000000" font-size="5.64" id="img-c8471ea0-91">
  <g transform="translate(171.88,25)">
    <g class="primitive">
      <text text-anchor="middle" dy="0.35em">X</text>
    </g>
  </g>
</g>
<g font-family="JuliaMono" fill="#000000" font-size="5.64" id="img-c8471ea0-92">
  <g transform="translate(171.88,6.25)">
    <g class="primitive">
      <text text-anchor="middle" dy="0.35em">X</text>
    </g>
  </g>
</g>
<g font-family="JuliaMono" fill="#000000" font-size="5.64" id="img-c8471ea0-93">
  <g transform="translate(150.62,43.75)">
    <g class="primitive">
      <text text-anchor="middle" dy="0.35em"></text>
    </g>
  </g>
</g>
<g font-family="JuliaMono" fill="#000000" font-size="5.64" id="img-c8471ea0-94">
  <g transform="translate(150.62,25)">
    <g class="primitive">
      <text text-anchor="middle" dy="0.35em"></text>
    </g>
  </g>
</g>
<g font-family="JuliaMono" fill="#000000" font-size="5.64" id="img-c8471ea0-95">
  <g transform="translate(150.62,6.25)">
    <g class="primitive">
      <text text-anchor="middle" dy="0.35em"></text>
    </g>
  </g>
</g>
<g font-family="JuliaMono" fill="#000000" font-size="5.64" id="img-c8471ea0-96">
  <g transform="translate(129.38,25)">
    <g class="primitive">
      <text text-anchor="middle" dy="0.35em">X</text>
    </g>
  </g>
</g>
<g font-family="JuliaMono" fill="#000000" font-size="5.64" id="img-c8471ea0-97">
  <g transform="translate(108.12,6.25)">
    <g class="primitive">
      <text text-anchor="middle" dy="0.35em">X</text>
    </g>
  </g>
</g>
<g font-family="JuliaMono" fill="#000000" font-size="5.64" id="img-c8471ea0-98">
  <g transform="translate(108.12,81.25)">
    <g class="primitive">
      <text text-anchor="middle" dy="0.35em"></text>
    </g>
  </g>
</g>
<g font-family="JuliaMono" fill="#000000" font-size="5.64" id="img-c8471ea0-99">
  <g transform="translate(108.12,62.5)">
    <g class="primitive">
      <text text-anchor="middle" dy="0.35em"></text>
    </g>
  </g>
</g>
<g font-family="JuliaMono" fill="#000000" font-size="5.64" id="img-c8471ea0-100">
  <g transform="translate(108.12,25)">
    <g class="primitive">
      <text text-anchor="middle" dy="0.35em"></text>
    </g>
  </g>
</g>
<g font-family="JuliaMono" fill="#000000" font-size="5.64" id="img-c8471ea0-101">
  <g transform="translate(86.88,100)">
    <g class="primitive">
      <text text-anchor="middle" dy="0.35em"></text>
    </g>
  </g>
</g>
<g font-family="JuliaMono" fill="#000000" font-size="3.53" id="img-c8471ea0-102">
  <g transform="translate(86.88,6.25)">
    <g class="primitive">
      <text text-anchor="middle" dy="0.35em">Ry(π/4)</text>
    </g>
  </g>
</g>
<g font-family="JuliaMono" fill="#000000" font-size="5.64" id="img-c8471ea0-103">
  <g transform="translate(65.62,81.25)">
    <g class="primitive">
      <text text-anchor="middle" dy="0.35em"></text>
    </g>
  </g>
</g>
<g font-family="JuliaMono" fill="#000000" font-size="3.53" id="img-c8471ea0-104">
  <g transform="translate(65.62,6.25)">
    <g class="primitive">
      <text text-anchor="middle" dy="0.35em">Ry(π/2)</text>
    </g>
  </g>
</g>
<g font-family="JuliaMono" fill="#000000" font-size="5.64" id="img-c8471ea0-105">
  <g transform="translate(44.38,62.5)">
    <g class="primitive">
      <text text-anchor="middle" dy="0.35em"></text>
    </g>
  </g>
</g>
<g font-family="JuliaMono" fill="#000000" font-size="3.53" id="img-c8471ea0-106">
  <g transform="translate(44.38,6.25)">
    <g class="primitive">
      <text text-anchor="middle" dy="0.35em">Ry(π)</text>
    </g>
  </g>
</g>
<g font-family="JuliaMono" fill="#000000" font-size="5.64" id="img-c8471ea0-107">
  <g transform="translate(23.12,100)">
    <g class="primitive">
      <text text-anchor="middle" dy="0.35em">H</text>
    </g>
  </g>
</g>
<g font-family="JuliaMono" fill="#000000" font-size="5.64" id="img-c8471ea0-108">
  <g transform="translate(23.12,81.25)">
    <g class="primitive">
      <text text-anchor="middle" dy="0.35em">H</text>
    </g>
  </g>
</g>
<g font-family="JuliaMono" fill="#000000" font-size="5.64" id="img-c8471ea0-109">
  <g transform="translate(23.12,62.5)">
    <g class="primitive">
      <text text-anchor="middle" dy="0.35em">H</text>
    </g>
  </g>
</g>
<g font-family="JuliaMono" fill="#000000" font-size="5.64" id="img-c8471ea0-110">
  <g transform="translate(23.12,25)">
    <g class="primitive">
      <text text-anchor="middle" dy="0.35em">X</text>
    </g>
  </g>
</g>
<g font-family="JuliaMono" fill="#000000" font-size="5.64" id="img-c8471ea0-111">
  <g transform="translate(23.12,6.25)">
    <g class="primitive">
      <text text-anchor="middle" dy="0.35em">X</text>
    </g>
  </g>
</g>
</svg>