<svg xmlns="http://www.w3.org/2000/svg" xmlns:xlink="http://www.w3.org/1999/xlink" version="1.2" width="106.25mm" height="112.5mm" viewBox="0 0 106.25 112.5" stroke="none" fill="#000000" stroke-width="0.3" font-size="3.88">
<rect width="100%" height="100%" fill="#dddddd"/>
<defs>
  <marker id="arrow" markerWidth="15" markerHeight="7" refX="5" refY="3.5" orient="auto" markerUnits="strokeWidth">
    <path d="M0,0 L15,3.5 L0,7 z" stroke="context-stroke" fill="context-stroke"></path>
  </marker>
</defs>
<g stroke-width="0" fill="#000000" id="img-c8471ea0-1">
  <g transform="translate(86.88,100)">
    <circle cx="0" cy="0" r="0.83" class="primitive"></circle>
  </g>
</g>
<g stroke-width="0.35" stroke="#000000" fill="#FFFFFF" id="img-c8471ea0-2">
  <g transform="translate(86.88,6.25)">
    <path d="M-8.31,-5 L8.31,-5 8.31,5 -8.31,5  z" class="primitive"></path>
  </g>
</g>
<g stroke-width="0" fill="#000000" id="img-c8471ea0-3">
  <g transform="translate(65.62,81.25)">
    <circle cx="0" cy="0" r="0.83" class="primitive"></circle>
  </g>
</g>
<g stroke-width="0.35" stroke="#000000" fill="#FFFFFF" id="img-c8471ea0-4">
  <g transform="translate(65.62,6.25)">
    <path d="M-8.31,-5 L8.31,-5 8.31,5 -8.31,5  z" class="primitive"></path>
  </g>
</g>
<g stroke-width="0" fill="#000000" id="img-c8471ea0-5">
  <g transform="translate(44.38,62.5)">
    <circle cx="0" cy="0" r="0.83" class="primitive"></circle>
  </g>
</g>
<g stroke-width="0.35" stroke="#000000" fill="#FFFFFF" id="img-c8471ea0-6">
  <g transform="translate(44.37,6.25)">
    <path d="M-8.31,-5 L8.31,-5 8.31,5 -8.31,5  z" class="primitive"></path>
  </g>
</g>
<g stroke-width="0" fill="#000000" id="img-c8471ea0-7">
  <g transform="translate(23.12,43.75)">
    <circle cx="0" cy="0" r="0.83" class="primitive"></circle>
  </g>
</g>
<g stroke-width="0.35" stroke="#000000" fill="#FFFFFF" id="img-c8471ea0-8">
  <g transform="translate(23.12,6.25)">
    <path d="M-6.1,-5 L6.1,-5 6.1,5 -6.1,5  z" class="primitive"></path>
  </g>
</g>
<g stroke-width="0.35" stroke="#000000" id="img-c8471ea0-9">
  <g transform="translate(97.5,100)">
    <path fill="none" d="M0,0 L0,0 " class="primitive"></path>
  </g>
</g>
<g stroke-width="0.35" stroke="#000000" id="img-c8471ea0-10">
  <g transform="translate(97.5,81.25)">
    <path fill="none" d="M0,0 L0,0 " class="primitive"></path>
  </g>
</g>
<g stroke-width="0.35" stroke="#000000" id="img-c8471ea0-11">
  <g transform="translate(97.5,62.5)">
    <path fill="none" d="M0,0 L0,0 " class="primitive"></path>
  </g>
</g>
<g stroke-width="0.35" stroke="#000000" id="img-c8471ea0-12">
  <g transform="translate(97.5,43.75)">
    <path fill="none" d="M0,0 L0,0 " class="primitive"></path>
  </g>
</g>
<g stroke-width="0.35" stroke="#000000" id="img-c8471ea0-13">
  <g transform="translate(97.5,25)">
    <path fill="none" d="M0,0 L0,0 " class="primitive"></path>
  </g>
</g>
<g stroke-width="0.35" stroke="#000000" id="img-c8471ea0-14">
  <g transform="translate(97.5,6.25)">
    <path fill="none" d="M0,0 L0,0 " class="primitive"></path>
  </g>
</g>
<g stroke-width="0.35" stroke="#000000" id="img-c8471ea0-15">
  <g transform="translate(86.88,81.25)">
    <path fill="none" d="M-10.62,0 L10.62,0 " class="primitive"></path>
  </g>
</g>
<g stroke-width="0.35" stroke="#000000" id="img-c8471ea0-16">
  <g transform="translate(86.88,62.5)">
    <path fill="none" d="M-10.62,0 L10.62,0 " class="primitive"></path>
  </g>
</g>
<g stroke-width="0.35" stroke="#000000" id="img-c8471ea0-17">
  <g transform="translate(86.88,43.75)">
    <path fill="none" d="M-10.62,0 L10.62,0 " class="primitive"></path>
  </g>
</g>
<g stroke-width="0.35" stroke="#000000" id="img-c8471ea0-18">
  <g transform="translate(86.88,25)">
    <path fill="none" d="M-10.62,0 L10.62,0 " class="primitive"></path>
  </g>
</g>
<g stroke-width="0.35" stroke="#000000" id="img-c8471ea0-19">
  <g transform="translate(92.6,100)">
    <path fill="none" d="M-4.9,0 L4.9,0 " class="primitive"></path>
  </g>
</g>
<g stroke-width="0.35" stroke="#000000" id="img-c8471ea0-20">
  <g transform="translate(49.27,100)">
    <path fill="none" d="M-36.77,0 L36.77,0 " class="primitive"></path>
  </g>
</g>
<g stroke-width="0.35" stroke="#000000" id="img-c8471ea0-21">
  <g transform="translate(96.34,6.25)">
    <path fill="none" d="M-1.16,0 L1.16,0 " class="primitive"></path>
  </g>
</g>
<g stroke-width="0.35" stroke="#000000" id="img-c8471ea0-22">
  <g transform="translate(77.41,6.25)">
    <path fill="none" d="M-1.16,0 L1.16,0 " class="primitive"></path>
  </g>
</g>
<g stroke-width="0.35" stroke="#000000" id="img-c8471ea0-23">
  <g transform="translate(86.88,55.21)">
    <path fill="none" d="M0,43.96 L0,-43.96 " class="primitive"></path>
  </g>
</g>
<g stroke-width="0.35" stroke="#000000" id="img-c8471ea0-24">
  <g transform="translate(65.62,62.5)">
    <path fill="none" d="M-10.62,0 L10.62,0 " class="primitive"></path>
  </g>
</g>
<g stroke-width="0.35" stroke="#000000" id="img-c8471ea0-25">
  <g transform="translate(65.62,43.75)">
    <path fill="none" d="M-10.62,0 L10.62,0 " class="primitive"></path>
  </g>
</g>
<g stroke-width="0.35" stroke="#000000" id="img-c8471ea0-26">
  <g transform="translate(65.62,25)">
    <path fill="none" d="M-10.62,0 L10.62,0 " class="primitive"></path>
  </g>
</g>
<g stroke-width="0.35" stroke="#000000" id="img-c8471ea0-27">
  <g transform="translate(71.35,81.25)">
    <path fill="none" d="M-4.9,0 L4.9,0 " class="primitive"></path>
  </g>
</g>
<g stroke-width="0.35" stroke="#000000" id="img-c8471ea0-28">
  <g transform="translate(38.65,81.25)">
    <path fill="none" d="M-26.15,0 L26.15,0 " class="primitive"></path>
  </g>
</g>
<g stroke-width="0.35" stroke="#000000" id="img-c8471ea0-29">
  <g transform="translate(75.09,6.25)">
    <path fill="none" d="M-1.16,0 L1.16,0 " class="primitive"></path>
  </g>
</g>
<g stroke-width="0.35" stroke="#000000" id="img-c8471ea0-30">
  <g transform="translate(56.16,6.25)">
    <path fill="none" d="M-1.16,0 L1.16,0 " class="primitive"></path>
  </g>
</g>
<g stroke-width="0.35" stroke="#000000" id="img-c8471ea0-31">
  <g transform="translate(65.62,45.83)">
    <path fill="none" d="M0,34.58 L0,-34.58 " class="primitive"></path>
  </g>
</g>
<g stroke-width="0.35" stroke="#000000" id="img-c8471ea0-32">
  <g transform="translate(44.38,43.75)">
    <path fill="none" d="M-10.62,0 L10.62,0 " class="primitive"></path>
  </g>
</g>
<g stroke-width="0.35" stroke="#000000" id="img-c8471ea0-33">
  <g transform="translate(44.38,25)">
    <path fill="none" d="M-10.62,0 L10.62,0 " class="primitive"></path>
  </g>
</g>
<g stroke-width="0.35" stroke="#000000" id="img-c8471ea0-34">
  <g transform="translate(50.1,62.5)">
    <path fill="none" d="M-4.9,0 L4.9,0 " class="primitive"></path>
  </g>
</g>
<g stroke-width="0.35" stroke="#000000" id="img-c8471ea0-35">
  <g transform="translate(28.02,62.5)">
    <path fill="none" d="M-15.52,0 L15.52,0 " class="primitive"></path>
  </g>
</g>
<g stroke-width="0.35" stroke="#000000" id="img-c8471ea0-36">
  <g transform="translate(53.84,6.25)">
    <path fill="none" d="M-1.16,0 L1.16,0 " class="primitive"></path>
  </g>
</g>
<g stroke-width="0.35" stroke="#000000" id="img-c8471ea0-37">
  <g transform="translate(34.91,6.25)">
    <path fill="none" d="M-1.16,0 L1.16,0 " class="primitive"></path>
  </g>
</g>
<g stroke-width="0.35" stroke="#000000" id="img-c8471ea0-38">
  <g transform="translate(44.38,36.46)">
    <path fill="none" d="M0,25.21 L0,-25.21 " class="primitive"></path>
  </g>
</g>
<g stroke-width="0.35" stroke="#000000" id="img-c8471ea0-39">
  <g transform="translate(23.12,25)">
    <path fill="none" d="M-10.62,0 L10.62,0 " class="primitive"></path>
  </g>
</g>
<g stroke-width="0.35" stroke="#000000" id="img-c8471ea0-40">
  <g transform="translate(28.85,43.75)">
    <path fill="none" d="M-4.9,0 L4.9,0 " class="primitive"></path>
  </g>
</g>
<g stroke-width="0.35" stroke="#000000" id="img-c8471ea0-41">
  <g transform="translate(17.4,43.75)">
    <path fill="none" d="M-4.9,0 L4.9,0 " class="primitive"></path>
  </g>
</g>
<g stroke-width="0.35" stroke="#000000" id="img-c8471ea0-42">
  <g transform="translate(31.49,6.25)">
    <path fill="none" d="M-2.26,0 L2.26,0 " class="primitive"></path>
  </g>
</g>
<g stroke-width="0.35" stroke="#000000" id="img-c8471ea0-43">
  <g transform="translate(14.76,6.25)">
    <path fill="none" d="M-2.26,0 L2.26,0 " class="primitive"></path>
  </g>
</g>
<g stroke-width="0.35" stroke="#000000" id="img-c8471ea0-44">
  <g transform="translate(23.12,27.08)">
    <path fill="none" d="M0,15.83 L0,-15.83 " class="primitive"></path>
  </g>
</g>
<g font-family="JuliaMono" fill="#000000" font-size="5.64" id="img-c8471ea0-45">
  <g transform="translate(86.88,100)">
    <g class="primitive">
      <text text-anchor="middle" dy="0.35em"></text>
    </g>
  </g>
</g>
<g font-family="JuliaMono" fill="#000000" font-size="3.53" id="img-c8471ea0-46">
  <g transform="translate(86.88,6.25)">
    <g class="primitive">
      <text text-anchor="middle" dy="0.35em">Ry(π/8)</text>
    </g>
  </g>
</g>
<g font-family="JuliaMono" fill="#000000" font-size="5.64" id="img-c8471ea0-47">
  <g transform="translate(65.62,81.25)">
    <g class="primitive">
      <text text-anchor="middle" dy="0.35em"></text>
    </g>
  </g>
</g>
<g font-family="JuliaMono" fill="#000000" font-size="3.53" id="img-c8471ea0-48">
  <g transform="translate(65.62,6.25)">
    <g class="primitive">
      <text text-anchor="middle" dy="0.35em">Ry(π/4)</text>
    </g>
  </g>
</g>
<g font-family="JuliaMono" fill="#000000" font-size="5.64" id="img-c8471ea0-49">
  <g transform="translate(44.38,62.5)">
    <g class="primitive">
      <text text-anchor="middle" dy="0.35em"></text>
    </g>
  </g>
</g>
<g font-family="JuliaMono" fill="#000000" font-size="3.53" id="img-c8471ea0-50">
  <g transform="translate(44.38,6.25)">
    <g class="primitive">
      <text text-anchor="middle" dy="0.35em">Ry(π/2)</text>
    </g>
  </g>
</g>
<g font-family="JuliaMono" fill="#000000" font-size="5.64" id="img-c8471ea0-51">
  <g transform="translate(23.12,43.75)">
    <g class="primitive">
      <text text-anchor="middle" dy="0.35em"></text>
    </g>
  </g>
</g>
<g font-family="JuliaMono" fill="#000000" font-size="3.53" id="img-c8471ea0-52">
  <g transform="translate(23.12,6.25)">
    <g class="primitive">
      <text text-anchor="middle" dy="0.35em">Ry(π)</text>
    </g>
  </g>
</g>
</svg>