<svg xmlns="http://www.w3.org/2000/svg" xmlns:xlink="http://www.w3.org/1999/xlink" width="1920" height="400" viewBox="0 0 7680 1600">
<defs>
  <clipPath id="clip170">
    <rect x="0" y="0" width="7680" height="1600"></rect>
  </clipPath>
</defs>
<path clip-path="url(#clip170)" d="M0 1600 L7680 1600 L7680 0 L0 0  Z" fill="#ffffff" fill-rule="evenodd" fill-opacity="1"></path>
<defs>
  <clipPath id="clip171">
    <rect x="1536" y="0" width="5377" height="1600"></rect>
  </clipPath>
</defs>
<path clip-path="url(#clip170)" d="M47.2441 1552.76 L7632.76 1552.76 L7632.76 81.8921 L47.2441 81.8921  Z" fill="#ffffff" fill-rule="evenodd" fill-opacity="1"></path>
<defs>
  <clipPath id="clip172">
    <rect x="47" y="81" width="7587" height="1472"></rect>
  </clipPath>
</defs>
<path clip-path="url(#clip170)" d="M3632.41 12.096 L3640.59 12.096 L3640.59 36.8875 L3670.33 36.8875 L3670.33 12.096 L3678.51 12.096 L3678.51 72.576 L3670.33 72.576 L3670.33 43.7741 L3640.59 43.7741 L3640.59 72.576 L3632.41 72.576 L3632.41 12.096 Z" fill="#000000" fill-rule="nonzero" fill-opacity="1"></path><path clip-path="url(#clip170)" d="M3694.47 27.2059 L3701.92 27.2059 L3701.92 72.576 L3694.47 72.576 L3694.47 27.2059 M3694.47 9.54393 L3701.92 9.54393 L3701.92 18.9825 L3694.47 18.9825 L3694.47 9.54393 Z" fill="#000000" fill-rule="nonzero" fill-opacity="1"></path><path clip-path="url(#clip170)" d="M3746.44 28.5427 L3746.44 35.5912 Q3743.28 33.9709 3739.88 33.1607 Q3736.48 32.3505 3732.83 32.3505 Q3727.28 32.3505 3724.49 34.0519 Q3721.73 35.7533 3721.73 39.156 Q3721.73 41.7486 3723.72 43.2475 Q3725.7 44.7058 3731.7 46.0426 L3734.25 46.6097 Q3742.19 48.3111 3745.51 51.4303 Q3748.87 54.509 3748.87 60.0587 Q3748.87 66.3781 3743.85 70.0644 Q3738.87 73.7508 3730.12 73.7508 Q3726.47 73.7508 3722.5 73.0216 Q3718.57 72.3329 3714.2 70.9151 L3714.2 63.2184 Q3718.33 65.3654 3722.34 66.4591 Q3726.35 67.5124 3730.28 67.5124 Q3735.55 67.5124 3738.38 65.73 Q3741.22 63.9071 3741.22 60.6258 Q3741.22 57.5877 3739.15 55.9673 Q3737.13 54.3469 3730.2 52.8481 L3727.61 52.2405 Q3720.68 50.7821 3717.6 47.7845 Q3714.52 44.7463 3714.52 39.4801 Q3714.52 33.0797 3719.06 29.5959 Q3723.6 26.1121 3731.94 26.1121 Q3736.07 26.1121 3739.72 26.7198 Q3743.37 27.3274 3746.44 28.5427 Z" fill="#000000" fill-rule="nonzero" fill-opacity="1"></path><path clip-path="url(#clip170)" d="M3768.12 14.324 L3768.12 27.2059 L3783.47 27.2059 L3783.47 32.9987 L3768.12 32.9987 L3768.12 57.6282 Q3768.12 63.1779 3769.62 64.7578 Q3771.15 66.3376 3775.81 66.3376 L3783.47 66.3376 L3783.47 72.576 L3775.81 72.576 Q3767.18 72.576 3763.9 69.3758 Q3760.62 66.1351 3760.62 57.6282 L3760.62 32.9987 L3755.15 32.9987 L3755.15 27.2059 L3760.62 27.2059 L3760.62 14.324 L3768.12 14.324 Z" fill="#000000" fill-rule="nonzero" fill-opacity="1"></path><path clip-path="url(#clip170)" d="M3810.85 32.4315 Q3804.86 32.4315 3801.37 37.1306 Q3797.89 41.7891 3797.89 49.9314 Q3797.89 58.0738 3801.33 62.7728 Q3804.82 67.4314 3810.85 67.4314 Q3816.81 67.4314 3820.29 62.7323 Q3823.78 58.0333 3823.78 49.9314 Q3823.78 41.8701 3820.29 37.1711 Q3816.81 32.4315 3810.85 32.4315 M3810.85 26.1121 Q3820.58 26.1121 3826.13 32.4315 Q3831.68 38.7509 3831.68 49.9314 Q3831.68 61.0714 3826.13 67.4314 Q3820.58 73.7508 3810.85 73.7508 Q3801.09 73.7508 3795.54 67.4314 Q3790.03 61.0714 3790.03 49.9314 Q3790.03 38.7509 3795.54 32.4315 Q3801.09 26.1121 3810.85 26.1121 Z" fill="#000000" fill-rule="nonzero" fill-opacity="1"></path><path clip-path="url(#clip170)" d="M3873.89 49.3643 Q3873.89 41.2625 3870.52 36.8065 Q3867.2 32.3505 3861.17 32.3505 Q3855.17 32.3505 3851.81 36.8065 Q3848.49 41.2625 3848.49 49.3643 Q3848.49 57.4256 3851.81 61.8816 Q3855.17 66.3376 3861.17 66.3376 Q3867.2 66.3376 3870.52 61.8816 Q3873.89 57.4256 3873.89 49.3643 M3881.34 66.9452 Q3881.34 78.5308 3876.19 84.1616 Q3871.05 89.8329 3860.44 89.8329 Q3856.51 89.8329 3853.02 89.2252 Q3849.54 88.6581 3846.26 87.4428 L3846.26 80.1917 Q3849.54 81.9741 3852.74 82.8248 Q3855.94 83.6755 3859.26 83.6755 Q3866.59 83.6755 3870.24 79.8271 Q3873.89 76.0193 3873.89 68.282 L3873.89 64.5957 Q3871.58 68.6061 3867.97 70.5911 Q3864.37 72.576 3859.34 72.576 Q3851 72.576 3845.89 66.2161 Q3840.79 59.8562 3840.79 49.3643 Q3840.79 38.832 3845.89 32.472 Q3851 26.1121 3859.34 26.1121 Q3864.37 26.1121 3867.97 28.0971 Q3871.58 30.082 3873.89 34.0924 L3873.89 27.2059 L3881.34 27.2059 L3881.34 66.9452 Z" fill="#000000" fill-rule="nonzero" fill-opacity="1"></path><path clip-path="url(#clip170)" d="M3922.98 34.1734 Q3921.73 33.4443 3920.23 33.1202 Q3918.77 32.7556 3916.99 32.7556 Q3910.67 32.7556 3907.27 36.8875 Q3903.9 40.9789 3903.9 48.6757 L3903.9 72.576 L3896.41 72.576 L3896.41 27.2059 L3903.9 27.2059 L3903.9 34.2544 Q3906.25 30.1225 3910.02 28.1376 Q3913.79 26.1121 3919.17 26.1121 Q3919.94 26.1121 3920.88 26.2337 Q3921.81 26.3147 3922.94 26.5172 L3922.98 34.1734 Z" fill="#000000" fill-rule="nonzero" fill-opacity="1"></path><path clip-path="url(#clip170)" d="M3951.42 49.7694 Q3942.39 49.7694 3938.9 51.8354 Q3935.42 53.9013 3935.42 58.8839 Q3935.42 62.8538 3938.01 65.2034 Q3940.64 67.5124 3945.14 67.5124 Q3951.34 67.5124 3955.07 63.1374 Q3958.83 58.7219 3958.83 51.4303 L3958.83 49.7694 L3951.42 49.7694 M3966.29 46.6907 L3966.29 72.576 L3958.83 72.576 L3958.83 65.6895 Q3956.28 69.8214 3952.47 71.8063 Q3948.67 73.7508 3943.16 73.7508 Q3936.19 73.7508 3932.06 69.8619 Q3927.97 65.9325 3927.97 59.3701 Q3927.97 51.7138 3933.07 47.825 Q3938.21 43.9361 3948.38 43.9361 L3958.83 43.9361 L3958.83 43.2069 Q3958.83 38.0623 3955.43 35.2672 Q3952.07 32.4315 3945.95 32.4315 Q3942.06 32.4315 3938.38 33.3632 Q3934.69 34.295 3931.29 36.1584 L3931.29 29.2718 Q3935.38 27.692 3939.23 26.9223 Q3943.08 26.1121 3946.72 26.1121 Q3956.56 26.1121 3961.43 31.2163 Q3966.29 36.3204 3966.29 46.6907 Z" fill="#000000" fill-rule="nonzero" fill-opacity="1"></path><path clip-path="url(#clip170)" d="M4016.96 35.9153 Q4019.76 30.8922 4023.65 28.5022 Q4027.54 26.1121 4032.8 26.1121 Q4039.89 26.1121 4043.74 31.0947 Q4047.59 36.0368 4047.59 45.1919 L4047.59 72.576 L4040.09 72.576 L4040.09 45.4349 Q4040.09 38.913 4037.79 35.7533 Q4035.48 32.5936 4030.74 32.5936 Q4024.94 32.5936 4021.58 36.4419 Q4018.22 40.2903 4018.22 46.9338 L4018.22 72.576 L4010.73 72.576 L4010.73 45.4349 Q4010.73 38.8725 4008.42 35.7533 Q4006.11 32.5936 4001.29 32.5936 Q3995.57 32.5936 3992.21 36.4824 Q3988.85 40.3308 3988.85 46.9338 L3988.85 72.576 L3981.36 72.576 L3981.36 27.2059 L3988.85 27.2059 L3988.85 34.2544 Q3991.4 30.082 3994.97 28.0971 Q3998.53 26.1121 4003.43 26.1121 Q4008.38 26.1121 4011.82 28.6237 Q4015.3 31.1352 4016.96 35.9153 Z" fill="#000000" fill-rule="nonzero" fill-opacity="1"></path><path clip-path="url(#clip172)" d="M-142.394 1552.76 L-142.394 1552.76 L236.882 1552.76 L236.882 1552.76 L-142.394 1552.76 L-142.394 1552.76  Z" fill="#add8e6" fill-rule="evenodd" fill-opacity="1"></path>
<polyline clip-path="url(#clip172)" style="stroke:#add8e6; stroke-linecap:round; stroke-linejoin:round; stroke-width:4; stroke-opacity:1; fill:none" points="-142.394,1552.76 -142.394,1552.76 236.882,1552.76 -142.394,1552.76 "></polyline>
<path clip-path="url(#clip172)" d="M331.701 1552.76 L331.701 1552.76 L710.976 1552.76 L710.976 1552.76 L331.701 1552.76 L331.701 1552.76  Z" fill="#add8e6" fill-rule="evenodd" fill-opacity="1"></path>
<polyline clip-path="url(#clip172)" style="stroke:#add8e6; stroke-linecap:round; stroke-linejoin:round; stroke-width:4; stroke-opacity:1; fill:none" points="331.701,1552.76 331.701,1552.76 710.976,1552.76 331.701,1552.76 "></polyline>
<path clip-path="url(#clip172)" d="M805.795 1552.76 L805.795 1552.76 L1185.07 1552.76 L1185.07 1552.76 L805.795 1552.76 L805.795 1552.76  Z" fill="#add8e6" fill-rule="evenodd" fill-opacity="1"></path>
<polyline clip-path="url(#clip172)" style="stroke:#add8e6; stroke-linecap:round; stroke-linejoin:round; stroke-width:4; stroke-opacity:1; fill:none" points="805.795,1552.76 805.795,1552.76 1185.07,1552.76 805.795,1552.76 "></polyline>
<path clip-path="url(#clip172)" d="M1279.89 81.8921 L1279.89 1552.76 L1659.17 1552.76 L1659.17 81.8921 L1279.89 81.8921 L1279.89 81.8921  Z" fill="#add8e6" fill-rule="evenodd" fill-opacity="1"></path>
<polyline clip-path="url(#clip172)" style="stroke:#add8e6; stroke-linecap:round; stroke-linejoin:round; stroke-width:4; stroke-opacity:1; fill:none" points="1279.89,81.8921 1279.89,1552.76 1659.17,1552.76 1659.17,81.8921 1279.89,81.8921 "></polyline>
<path clip-path="url(#clip172)" d="M1753.98 1552.76 L1753.98 1552.76 L2133.26 1552.76 L2133.26 1552.76 L1753.98 1552.76 L1753.98 1552.76  Z" fill="#add8e6" fill-rule="evenodd" fill-opacity="1"></path>
<polyline clip-path="url(#clip172)" style="stroke:#add8e6; stroke-linecap:round; stroke-linejoin:round; stroke-width:4; stroke-opacity:1; fill:none" points="1753.98,1552.76 1753.98,1552.76 2133.26,1552.76 1753.98,1552.76 "></polyline>
<path clip-path="url(#clip172)" d="M2228.08 760.203 L2228.08 1552.76 L2607.35 1552.76 L2607.35 760.203 L2228.08 760.203 L2228.08 760.203  Z" fill="#add8e6" fill-rule="evenodd" fill-opacity="1"></path>
<polyline clip-path="url(#clip172)" style="stroke:#add8e6; stroke-linecap:round; stroke-linejoin:round; stroke-width:4; stroke-opacity:1; fill:none" points="2228.08,760.203 2228.08,1552.76 2607.35,1552.76 2607.35,760.203 2228.08,760.203 "></polyline>
<path clip-path="url(#clip172)" d="M2702.17 1552.76 L2702.17 1552.76 L3081.45 1552.76 L3081.45 1552.76 L2702.17 1552.76 L2702.17 1552.76  Z" fill="#add8e6" fill-rule="evenodd" fill-opacity="1"></path>
<polyline clip-path="url(#clip172)" style="stroke:#add8e6; stroke-linecap:round; stroke-linejoin:round; stroke-width:4; stroke-opacity:1; fill:none" points="2702.17,1552.76 2702.17,1552.76 3081.45,1552.76 2702.17,1552.76 "></polyline>
<path clip-path="url(#clip172)" d="M3176.27 781.623 L3176.27 1552.76 L3555.54 1552.76 L3555.54 781.623 L3176.27 781.623 L3176.27 781.623  Z" fill="#add8e6" fill-rule="evenodd" fill-opacity="1"></path>
<polyline clip-path="url(#clip172)" style="stroke:#add8e6; stroke-linecap:round; stroke-linejoin:round; stroke-width:4; stroke-opacity:1; fill:none" points="3176.27,781.623 3176.27,1552.76 3555.54,1552.76 3555.54,781.623 3176.27,781.623 "></polyline>
<path clip-path="url(#clip172)" d="M3650.36 1552.76 L3650.36 1552.76 L4029.64 1552.76 L4029.64 1552.76 L3650.36 1552.76 L3650.36 1552.76  Z" fill="#add8e6" fill-rule="evenodd" fill-opacity="1"></path>
<polyline clip-path="url(#clip172)" style="stroke:#add8e6; stroke-linecap:round; stroke-linejoin:round; stroke-width:4; stroke-opacity:1; fill:none" points="3650.36,1552.76 3650.36,1552.76 4029.64,1552.76 3650.36,1552.76 "></polyline>
<path clip-path="url(#clip172)" d="M4124.46 1331.41 L4124.46 1552.76 L4503.73 1552.76 L4503.73 1331.41 L4124.46 1331.41 L4124.46 1331.41  Z" fill="#add8e6" fill-rule="evenodd" fill-opacity="1"></path>
<polyline clip-path="url(#clip172)" style="stroke:#add8e6; stroke-linecap:round; stroke-linejoin:round; stroke-width:4; stroke-opacity:1; fill:none" points="4124.46,1331.41 4124.46,1552.76 4503.73,1552.76 4503.73,1331.41 4124.46,1331.41 "></polyline>
<path clip-path="url(#clip172)" d="M4598.55 1552.76 L4598.55 1552.76 L4977.83 1552.76 L4977.83 1552.76 L4598.55 1552.76 L4598.55 1552.76  Z" fill="#add8e6" fill-rule="evenodd" fill-opacity="1"></path>
<polyline clip-path="url(#clip172)" style="stroke:#add8e6; stroke-linecap:round; stroke-linejoin:round; stroke-width:4; stroke-opacity:1; fill:none" points="4598.55,1552.76 4598.55,1552.76 4977.83,1552.76 4598.55,1552.76 "></polyline>
<path clip-path="url(#clip172)" d="M5072.65 360.357 L5072.65 1552.76 L5451.92 1552.76 L5451.92 360.357 L5072.65 360.357 L5072.65 360.357  Z" fill="#add8e6" fill-rule="evenodd" fill-opacity="1"></path>
<polyline clip-path="url(#clip172)" style="stroke:#add8e6; stroke-linecap:round; stroke-linejoin:round; stroke-width:4; stroke-opacity:1; fill:none" points="5072.65,360.357 5072.65,1552.76 5451.92,1552.76 5451.92,360.357 5072.65,360.357 "></polyline>
<path clip-path="url(#clip172)" d="M5546.74 1552.76 L5546.74 1552.76 L5926.02 1552.76 L5926.02 1552.76 L5546.74 1552.76 L5546.74 1552.76  Z" fill="#add8e6" fill-rule="evenodd" fill-opacity="1"></path>
<polyline clip-path="url(#clip172)" style="stroke:#add8e6; stroke-linecap:round; stroke-linejoin:round; stroke-width:4; stroke-opacity:1; fill:none" points="5546.74,1552.76 5546.74,1552.76 5926.02,1552.76 5546.74,1552.76 "></polyline>
<path clip-path="url(#clip172)" d="M6020.83 246.115 L6020.83 1552.76 L6400.11 1552.76 L6400.11 246.115 L6020.83 246.115 L6020.83 246.115  Z" fill="#add8e6" fill-rule="evenodd" fill-opacity="1"></path>
<polyline clip-path="url(#clip172)" style="stroke:#add8e6; stroke-linecap:round; stroke-linejoin:round; stroke-width:4; stroke-opacity:1; fill:none" points="6020.83,246.115 6020.83,1552.76 6400.11,1552.76 6400.11,246.115 6020.83,246.115 "></polyline>
<path clip-path="url(#clip172)" d="M6494.93 1545.62 L6494.93 1552.76 L6874.2 1552.76 L6874.2 1545.62 L6494.93 1545.62 L6494.93 1545.62  Z" fill="#add8e6" fill-rule="evenodd" fill-opacity="1"></path>
<polyline clip-path="url(#clip172)" style="stroke:#add8e6; stroke-linecap:round; stroke-linejoin:round; stroke-width:4; stroke-opacity:1; fill:none" points="6494.93,1545.62 6494.93,1552.76 6874.2,1552.76 6874.2,1545.62 6494.93,1545.62 "></polyline>
<path clip-path="url(#clip172)" d="M6969.02 174.714 L6969.02 1552.76 L7348.3 1552.76 L7348.3 174.714 L6969.02 174.714 L6969.02 174.714  Z" fill="#add8e6" fill-rule="evenodd" fill-opacity="1"></path>
<polyline clip-path="url(#clip172)" style="stroke:#add8e6; stroke-linecap:round; stroke-linejoin:round; stroke-width:4; stroke-opacity:1; fill:none" points="6969.02,174.714 6969.02,1552.76 7348.3,1552.76 7348.3,174.714 6969.02,174.714 "></polyline>
<circle clip-path="url(#clip172)" style="fill:#add8e6; stroke:none; fill-opacity:0" cx="47.2441" cy="1552.76" r="2"></circle>
<circle clip-path="url(#clip172)" style="fill:#add8e6; stroke:none; fill-opacity:0" cx="521.339" cy="1552.76" r="2"></circle>
<circle clip-path="url(#clip172)" style="fill:#add8e6; stroke:none; fill-opacity:0" cx="995.433" cy="1552.76" r="2"></circle>
<circle clip-path="url(#clip172)" style="fill:#add8e6; stroke:none; fill-opacity:0" cx="1469.53" cy="81.8921" r="2"></circle>
<circle clip-path="url(#clip172)" style="fill:#add8e6; stroke:none; fill-opacity:0" cx="1943.62" cy="1552.76" r="2"></circle>
<circle clip-path="url(#clip172)" style="fill:#add8e6; stroke:none; fill-opacity:0" cx="2417.72" cy="760.203" r="2"></circle>
<circle clip-path="url(#clip172)" style="fill:#add8e6; stroke:none; fill-opacity:0" cx="2891.81" cy="1552.76" r="2"></circle>
<circle clip-path="url(#clip172)" style="fill:#add8e6; stroke:none; fill-opacity:0" cx="3365.91" cy="781.623" r="2"></circle>
<circle clip-path="url(#clip172)" style="fill:#add8e6; stroke:none; fill-opacity:0" cx="3840" cy="1552.76" r="2"></circle>
<circle clip-path="url(#clip172)" style="fill:#add8e6; stroke:none; fill-opacity:0" cx="4314.09" cy="1331.41" r="2"></circle>
<circle clip-path="url(#clip172)" style="fill:#add8e6; stroke:none; fill-opacity:0" cx="4788.19" cy="1552.76" r="2"></circle>
<circle clip-path="url(#clip172)" style="fill:#add8e6; stroke:none; fill-opacity:0" cx="5262.28" cy="360.357" r="2"></circle>
<circle clip-path="url(#clip172)" style="fill:#add8e6; stroke:none; fill-opacity:0" cx="5736.38" cy="1552.76" r="2"></circle>
<circle clip-path="url(#clip172)" style="fill:#add8e6; stroke:none; fill-opacity:0" cx="6210.47" cy="246.115" r="2"></circle>
<circle clip-path="url(#clip172)" style="fill:#add8e6; stroke:none; fill-opacity:0" cx="6684.57" cy="1545.62" r="2"></circle>
<circle clip-path="url(#clip172)" style="fill:#add8e6; stroke:none; fill-opacity:0" cx="7158.66" cy="174.714" r="2"></circle>
<circle clip-path="url(#clip172)" style="fill:#e26f46; stroke:none; fill-opacity:1" cx="47.2441" cy="1545.62" r="2"></circle>
<circle clip-path="url(#clip172)" style="fill:#e26f46; stroke:none; fill-opacity:1" cx="521.339" cy="1545.62" r="2"></circle>
<circle clip-path="url(#clip172)" style="fill:#e26f46; stroke:none; fill-opacity:1" cx="995.433" cy="1545.62" r="2"></circle>
<circle clip-path="url(#clip172)" style="fill:#e26f46; stroke:none; fill-opacity:1" cx="1469.53" cy="1545.62" r="2"></circle>
<circle clip-path="url(#clip172)" style="fill:#e26f46; stroke:none; fill-opacity:1" cx="1943.62" cy="1545.62" r="2"></circle>
<circle clip-path="url(#clip172)" style="fill:#e26f46; stroke:none; fill-opacity:1" cx="2417.72" cy="1545.62" r="2"></circle>
<circle clip-path="url(#clip172)" style="fill:#e26f46; stroke:none; fill-opacity:1" cx="2891.81" cy="1545.62" r="2"></circle>
<circle clip-path="url(#clip172)" style="fill:#e26f46; stroke:none; fill-opacity:1" cx="3365.91" cy="1545.62" r="2"></circle>
<circle clip-path="url(#clip172)" style="fill:#e26f46; stroke:none; fill-opacity:1" cx="3840" cy="1545.62" r="2"></circle>
<circle clip-path="url(#clip172)" style="fill:#e26f46; stroke:none; fill-opacity:1" cx="4314.09" cy="1545.62" r="2"></circle>
<circle clip-path="url(#clip172)" style="fill:#e26f46; stroke:none; fill-opacity:1" cx="4788.19" cy="1545.62" r="2"></circle>
<circle clip-path="url(#clip172)" style="fill:#e26f46; stroke:none; fill-opacity:1" cx="5262.28" cy="1545.62" r="2"></circle>
<circle clip-path="url(#clip172)" style="fill:#e26f46; stroke:none; fill-opacity:1" cx="5736.38" cy="1545.62" r="2"></circle>
<circle clip-path="url(#clip172)" style="fill:#e26f46; stroke:none; fill-opacity:1" cx="6210.47" cy="1545.62" r="2"></circle>
<circle clip-path="url(#clip172)" style="fill:#e26f46; stroke:none; fill-opacity:1" cx="6684.57" cy="1545.62" r="2"></circle>
<circle clip-path="url(#clip172)" style="fill:#e26f46; stroke:none; fill-opacity:1" cx="7158.66" cy="1545.62" r="2"></circle>
<path clip-path="url(#clip170)" d="M-72.6222 1512.46 L-72.6222 1595.42 L-79.5087 1595.42 L-79.5087 1512.46 L-72.6222 1512.46 Z" fill="#000000" fill-rule="nonzero" fill-opacity="1"></path><path clip-path="url(#clip170)" d="M-35.7184 1520.76 Q-42.0378 1520.76 -45.238 1527 Q-48.3978 1533.2 -48.3978 1545.68 Q-48.3978 1558.11 -45.238 1564.35 Q-42.0378 1570.55 -35.7184 1570.55 Q-29.3585 1570.55 -26.1988 1564.35 Q-22.9986 1558.11 -22.9986 1545.68 Q-22.9986 1533.2 -26.1988 1527 Q-29.3585 1520.76 -35.7184 1520.76 M-35.7184 1514.28 Q-25.5507 1514.28 -20.2035 1522.34 Q-14.8158 1530.36 -14.8158 1545.68 Q-14.8158 1560.95 -20.2035 1569.01 Q-25.5507 1577.03 -35.7184 1577.03 Q-45.8862 1577.03 -51.2739 1569.01 Q-56.6211 1560.95 -56.6211 1545.68 Q-56.6211 1530.36 -51.2739 1522.34 Q-45.8862 1514.28 -35.7184 1514.28 Z" fill="#000000" fill-rule="nonzero" fill-opacity="1"></path><path clip-path="url(#clip170)" d="M17.0649 1520.76 Q10.7454 1520.76 7.54523 1527 Q4.38553 1533.2 4.38553 1545.68 Q4.38553 1558.11 7.54523 1564.35 Q10.7454 1570.55 17.0649 1570.55 Q23.4248 1570.55 26.5845 1564.35 Q29.7847 1558.11 29.7847 1545.68 Q29.7847 1533.2 26.5845 1527 Q23.4248 1520.76 17.0649 1520.76 M17.0649 1514.28 Q27.2326 1514.28 32.5798 1522.34 Q37.9675 1530.36 37.9675 1545.68 Q37.9675 1560.95 32.5798 1569.01 Q27.2326 1577.03 17.0649 1577.03 Q6.89709 1577.03 1.50939 1569.01 Q-3.83781 1560.95 -3.83781 1545.68 Q-3.83781 1530.36 1.50939 1522.34 Q6.89709 1514.28 17.0649 1514.28 Z" fill="#000000" fill-rule="nonzero" fill-opacity="1"></path><path clip-path="url(#clip170)" d="M69.8481 1520.76 Q63.5287 1520.76 60.3285 1527 Q57.1688 1533.2 57.1688 1545.68 Q57.1688 1558.11 60.3285 1564.35 Q63.5287 1570.55 69.8481 1570.55 Q76.2081 1570.55 79.3678 1564.35 Q82.568 1558.11 82.568 1545.68 Q82.568 1533.2 79.3678 1527 Q76.2081 1520.76 69.8481 1520.76 M69.8481 1514.28 Q80.0159 1514.28 85.3631 1522.34 Q90.7508 1530.36 90.7508 1545.68 Q90.7508 1560.95 85.3631 1569.01 Q80.0159 1577.03 69.8481 1577.03 Q59.6804 1577.03 54.2927 1569.01 Q48.9455 1560.95 48.9455 1545.68 Q48.9455 1530.36 54.2927 1522.34 Q59.6804 1514.28 69.8481 1514.28 Z" fill="#000000" fill-rule="nonzero" fill-opacity="1"></path><path clip-path="url(#clip170)" d="M122.631 1520.76 Q116.312 1520.76 113.112 1527 Q109.952 1533.2 109.952 1545.68 Q109.952 1558.11 113.112 1564.35 Q116.312 1570.55 122.631 1570.55 Q128.991 1570.55 132.151 1564.35 Q135.351 1558.11 135.351 1545.68 Q135.351 1533.2 132.151 1527 Q128.991 1520.76 122.631 1520.76 M122.631 1514.28 Q132.799 1514.28 138.146 1522.34 Q143.534 1530.36 143.534 1545.68 Q143.534 1560.95 138.146 1569.01 Q132.799 1577.03 122.631 1577.03 Q112.464 1577.03 107.076 1569.01 Q101.729 1560.95 101.729 1545.68 Q101.729 1530.36 107.076 1522.34 Q112.464 1514.28 122.631 1514.28 Z" fill="#000000" fill-rule="nonzero" fill-opacity="1"></path><path clip-path="url(#clip170)" d="M173.997 1549.85 L162.573 1586.79 L155.687 1586.79 L167.11 1549.85 L155.687 1512.9 L162.573 1512.9 L173.997 1549.85 Z" fill="#000000" fill-rule="nonzero" fill-opacity="1"></path><path clip-path="url(#clip170)" d="M401.472 1512.46 L401.472 1595.42 L394.586 1595.42 L394.586 1512.46 L401.472 1512.46 Z" fill="#000000" fill-rule="nonzero" fill-opacity="1"></path><path clip-path="url(#clip170)" d="M438.376 1520.76 Q432.057 1520.76 428.856 1527 Q425.697 1533.2 425.697 1545.68 Q425.697 1558.11 428.856 1564.35 Q432.057 1570.55 438.376 1570.55 Q444.736 1570.55 447.896 1564.35 Q451.096 1558.11 451.096 1545.68 Q451.096 1533.2 447.896 1527 Q444.736 1520.76 438.376 1520.76 M438.376 1514.28 Q448.544 1514.28 453.891 1522.34 Q459.279 1530.36 459.279 1545.68 Q459.279 1560.95 453.891 1569.01 Q448.544 1577.03 438.376 1577.03 Q428.208 1577.03 422.821 1569.01 Q417.473 1560.95 417.473 1545.68 Q417.473 1530.36 422.821 1522.34 Q428.208 1514.28 438.376 1514.28 Z" fill="#000000" fill-rule="nonzero" fill-opacity="1"></path><path clip-path="url(#clip170)" d="M491.159 1520.76 Q484.84 1520.76 481.64 1527 Q478.48 1533.2 478.48 1545.68 Q478.48 1558.11 481.64 1564.35 Q484.84 1570.55 491.159 1570.55 Q497.519 1570.55 500.679 1564.35 Q503.879 1558.11 503.879 1545.68 Q503.879 1533.2 500.679 1527 Q497.519 1520.76 491.159 1520.76 M491.159 1514.28 Q501.327 1514.28 506.674 1522.34 Q512.062 1530.36 512.062 1545.68 Q512.062 1560.95 506.674 1569.01 Q501.327 1577.03 491.159 1577.03 Q480.992 1577.03 475.604 1569.01 Q470.257 1560.95 470.257 1545.68 Q470.257 1530.36 475.604 1522.34 Q480.992 1514.28 491.159 1514.28 Z" fill="#000000" fill-rule="nonzero" fill-opacity="1"></path><path clip-path="url(#clip170)" d="M543.943 1520.76 Q537.623 1520.76 534.423 1527 Q531.263 1533.2 531.263 1545.68 Q531.263 1558.11 534.423 1564.35 Q537.623 1570.55 543.943 1570.55 Q550.303 1570.55 553.462 1564.35 Q556.662 1558.11 556.662 1545.68 Q556.662 1533.2 553.462 1527 Q550.303 1520.76 543.943 1520.76 M543.943 1514.28 Q554.11 1514.28 559.458 1522.34 Q564.845 1530.36 564.845 1545.68 Q564.845 1560.95 559.458 1569.01 Q554.11 1577.03 543.943 1577.03 Q533.775 1577.03 528.387 1569.01 Q523.04 1560.95 523.04 1545.68 Q523.04 1530.36 528.387 1522.34 Q533.775 1514.28 543.943 1514.28 Z" fill="#000000" fill-rule="nonzero" fill-opacity="1"></path><path clip-path="url(#clip170)" d="M580.644 1568.97 L594.012 1568.97 L594.012 1522.83 L579.469 1525.75 L579.469 1518.29 L593.931 1515.38 L602.114 1515.38 L602.114 1568.97 L615.482 1568.97 L615.482 1575.86 L580.644 1575.86 L580.644 1568.97 Z" fill="#000000" fill-rule="nonzero" fill-opacity="1"></path><path clip-path="url(#clip170)" d="M648.091 1549.85 L636.668 1586.79 L629.781 1586.79 L641.205 1549.85 L629.781 1512.9 L636.668 1512.9 L648.091 1549.85 Z" fill="#000000" fill-rule="nonzero" fill-opacity="1"></path><path clip-path="url(#clip170)" d="M875.567 1512.46 L875.567 1595.42 L868.68 1595.42 L868.68 1512.46 L875.567 1512.46 Z" fill="#000000" fill-rule="nonzero" fill-opacity="1"></path><path clip-path="url(#clip170)" d="M912.471 1520.76 Q906.151 1520.76 902.951 1527 Q899.791 1533.2 899.791 1545.68 Q899.791 1558.11 902.951 1564.35 Q906.151 1570.55 912.471 1570.55 Q918.83 1570.55 921.99 1564.35 Q925.19 1558.11 925.19 1545.68 Q925.19 1533.2 921.99 1527 Q918.83 1520.76 912.471 1520.76 M912.471 1514.28 Q922.638 1514.28 927.986 1522.34 Q933.373 1530.36 933.373 1545.68 Q933.373 1560.95 927.986 1569.01 Q922.638 1577.03 912.471 1577.03 Q902.303 1577.03 896.915 1569.01 Q891.568 1560.95 891.568 1545.68 Q891.568 1530.36 896.915 1522.34 Q902.303 1514.28 912.471 1514.28 Z" fill="#000000" fill-rule="nonzero" fill-opacity="1"></path><path clip-path="url(#clip170)" d="M965.254 1520.76 Q958.934 1520.76 955.734 1527 Q952.575 1533.2 952.575 1545.68 Q952.575 1558.11 955.734 1564.35 Q958.934 1570.55 965.254 1570.55 Q971.614 1570.55 974.773 1564.35 Q977.974 1558.11 977.974 1545.68 Q977.974 1533.2 974.773 1527 Q971.614 1520.76 965.254 1520.76 M965.254 1514.28 Q975.422 1514.28 980.769 1522.34 Q986.157 1530.36 986.157 1545.68 Q986.157 1560.95 980.769 1569.01 Q975.422 1577.03 965.254 1577.03 Q955.086 1577.03 949.698 1569.01 Q944.351 1560.95 944.351 1545.68 Q944.351 1530.36 949.698 1522.34 Q955.086 1514.28 965.254 1514.28 Z" fill="#000000" fill-rule="nonzero" fill-opacity="1"></path><path clip-path="url(#clip170)" d="M1001.96 1568.97 L1015.32 1568.97 L1015.32 1522.83 L1000.78 1525.75 L1000.78 1518.29 L1015.24 1515.38 L1023.42 1515.38 L1023.42 1568.97 L1036.79 1568.97 L1036.79 1575.86 L1001.96 1575.86 L1001.96 1568.97 Z" fill="#000000" fill-rule="nonzero" fill-opacity="1"></path><path clip-path="url(#clip170)" d="M1070.82 1520.76 Q1064.5 1520.76 1061.3 1527 Q1058.14 1533.2 1058.14 1545.68 Q1058.14 1558.11 1061.3 1564.35 Q1064.5 1570.55 1070.82 1570.55 Q1077.18 1570.55 1080.34 1564.35 Q1083.54 1558.11 1083.54 1545.68 Q1083.54 1533.2 1080.34 1527 Q1077.18 1520.76 1070.82 1520.76 M1070.82 1514.28 Q1080.99 1514.28 1086.34 1522.34 Q1091.72 1530.36 1091.72 1545.68 Q1091.72 1560.95 1086.34 1569.01 Q1080.99 1577.03 1070.82 1577.03 Q1060.65 1577.03 1055.26 1569.01 Q1049.92 1560.95 1049.92 1545.68 Q1049.92 1530.36 1055.26 1522.34 Q1060.65 1514.28 1070.82 1514.28 Z" fill="#000000" fill-rule="nonzero" fill-opacity="1"></path><path clip-path="url(#clip170)" d="M1122.19 1549.85 L1110.76 1586.79 L1103.88 1586.79 L1115.3 1549.85 L1103.88 1512.9 L1110.76 1512.9 L1122.19 1549.85 Z" fill="#000000" fill-rule="nonzero" fill-opacity="1"></path><path clip-path="url(#clip170)" d="M1349.66 1512.46 L1349.66 1595.42 L1342.77 1595.42 L1342.77 1512.46 L1349.66 1512.46 Z" fill="#000000" fill-rule="nonzero" fill-opacity="1"></path><path clip-path="url(#clip170)" d="M1386.57 1520.76 Q1380.25 1520.76 1377.05 1527 Q1373.89 1533.2 1373.89 1545.68 Q1373.89 1558.11 1377.05 1564.35 Q1380.25 1570.55 1386.57 1570.55 Q1392.92 1570.55 1396.08 1564.35 Q1399.28 1558.11 1399.28 1545.68 Q1399.28 1533.2 1396.08 1527 Q1392.92 1520.76 1386.57 1520.76 M1386.57 1514.28 Q1396.73 1514.28 1402.08 1522.34 Q1407.47 1530.36 1407.47 1545.68 Q1407.47 1560.95 1402.08 1569.01 Q1396.73 1577.03 1386.57 1577.03 Q1376.4 1577.03 1371.01 1569.01 Q1365.66 1560.95 1365.66 1545.68 Q1365.66 1530.36 1371.01 1522.34 Q1376.4 1514.28 1386.57 1514.28 Z" fill="#000000" fill-rule="nonzero" fill-opacity="1"></path><path clip-path="url(#clip170)" d="M1439.35 1520.76 Q1433.03 1520.76 1429.83 1527 Q1426.67 1533.2 1426.67 1545.68 Q1426.67 1558.11 1429.83 1564.35 Q1433.03 1570.55 1439.35 1570.55 Q1445.71 1570.55 1448.87 1564.35 Q1452.07 1558.11 1452.07 1545.68 Q1452.07 1533.2 1448.87 1527 Q1445.71 1520.76 1439.35 1520.76 M1439.35 1514.28 Q1449.52 1514.28 1454.86 1522.34 Q1460.25 1530.36 1460.25 1545.68 Q1460.25 1560.95 1454.86 1569.01 Q1449.52 1577.03 1439.35 1577.03 Q1429.18 1577.03 1423.79 1569.01 Q1418.45 1560.95 1418.45 1545.68 Q1418.45 1530.36 1423.79 1522.34 Q1429.18 1514.28 1439.35 1514.28 Z" fill="#000000" fill-rule="nonzero" fill-opacity="1"></path><path clip-path="url(#clip170)" d="M1476.05 1568.97 L1489.42 1568.97 L1489.42 1522.83 L1474.87 1525.75 L1474.87 1518.29 L1489.34 1515.38 L1497.52 1515.38 L1497.52 1568.97 L1510.89 1568.97 L1510.89 1575.86 L1476.05 1575.86 L1476.05 1568.97 Z" fill="#000000" fill-rule="nonzero" fill-opacity="1"></path><path clip-path="url(#clip170)" d="M1528.83 1568.97 L1542.2 1568.97 L1542.2 1522.83 L1527.66 1525.75 L1527.66 1518.29 L1542.12 1515.38 L1550.3 1515.38 L1550.3 1568.97 L1563.67 1568.97 L1563.67 1575.86 L1528.83 1575.86 L1528.83 1568.97 Z" fill="#000000" fill-rule="nonzero" fill-opacity="1"></path><path clip-path="url(#clip170)" d="M1596.28 1549.85 L1584.86 1586.79 L1577.97 1586.79 L1589.39 1549.85 L1577.97 1512.9 L1584.86 1512.9 L1596.28 1549.85 Z" fill="#000000" fill-rule="nonzero" fill-opacity="1"></path><path clip-path="url(#clip170)" d="M1823.76 1512.46 L1823.76 1595.42 L1816.87 1595.42 L1816.87 1512.46 L1823.76 1512.46 Z" fill="#000000" fill-rule="nonzero" fill-opacity="1"></path><path clip-path="url(#clip170)" d="M1860.66 1520.76 Q1854.34 1520.76 1851.14 1527 Q1847.98 1533.2 1847.98 1545.68 Q1847.98 1558.11 1851.14 1564.35 Q1854.34 1570.55 1860.66 1570.55 Q1867.02 1570.55 1870.18 1564.35 Q1873.38 1558.11 1873.38 1545.68 Q1873.38 1533.2 1870.18 1527 Q1867.02 1520.76 1860.66 1520.76 M1860.66 1514.28 Q1870.83 1514.28 1876.17 1522.34 Q1881.56 1530.36 1881.56 1545.68 Q1881.56 1560.95 1876.17 1569.01 Q1870.83 1577.03 1860.66 1577.03 Q1850.49 1577.03 1845.1 1569.01 Q1839.76 1560.95 1839.76 1545.68 Q1839.76 1530.36 1845.1 1522.34 Q1850.49 1514.28 1860.66 1514.28 Z" fill="#000000" fill-rule="nonzero" fill-opacity="1"></path><path clip-path="url(#clip170)" d="M1897.36 1568.97 L1910.73 1568.97 L1910.73 1522.83 L1896.19 1525.75 L1896.19 1518.29 L1910.65 1515.38 L1918.83 1515.38 L1918.83 1568.97 L1932.2 1568.97 L1932.2 1575.86 L1897.36 1575.86 L1897.36 1568.97 Z" fill="#000000" fill-rule="nonzero" fill-opacity="1"></path><path clip-path="url(#clip170)" d="M1966.23 1520.76 Q1959.91 1520.76 1956.71 1527 Q1953.55 1533.2 1953.55 1545.68 Q1953.55 1558.11 1956.71 1564.35 Q1959.91 1570.55 1966.23 1570.55 Q1972.59 1570.55 1975.75 1564.35 Q1978.95 1558.11 1978.95 1545.68 Q1978.95 1533.2 1975.75 1527 Q1972.59 1520.76 1966.23 1520.76 M1966.23 1514.28 Q1976.39 1514.28 1981.74 1522.34 Q1987.13 1530.36 1987.13 1545.68 Q1987.13 1560.95 1981.74 1569.01 Q1976.39 1577.03 1966.23 1577.03 Q1956.06 1577.03 1950.67 1569.01 Q1945.32 1560.95 1945.32 1545.68 Q1945.32 1530.36 1950.67 1522.34 Q1956.06 1514.28 1966.23 1514.28 Z" fill="#000000" fill-rule="nonzero" fill-opacity="1"></path><path clip-path="url(#clip170)" d="M2019.01 1520.76 Q2012.69 1520.76 2009.49 1527 Q2006.33 1533.2 2006.33 1545.68 Q2006.33 1558.11 2009.49 1564.35 Q2012.69 1570.55 2019.01 1570.55 Q2025.37 1570.55 2028.53 1564.35 Q2031.73 1558.11 2031.73 1545.68 Q2031.73 1533.2 2028.53 1527 Q2025.37 1520.76 2019.01 1520.76 M2019.01 1514.28 Q2029.18 1514.28 2034.52 1522.34 Q2039.91 1530.36 2039.91 1545.68 Q2039.91 1560.95 2034.52 1569.01 Q2029.18 1577.03 2019.01 1577.03 Q2008.84 1577.03 2003.45 1569.01 Q1998.11 1560.95 1998.11 1545.68 Q1998.11 1530.36 2003.45 1522.34 Q2008.84 1514.28 2019.01 1514.28 Z" fill="#000000" fill-rule="nonzero" fill-opacity="1"></path><path clip-path="url(#clip170)" d="M2070.37 1549.85 L2058.95 1586.79 L2052.06 1586.79 L2063.49 1549.85 L2052.06 1512.9 L2058.95 1512.9 L2070.37 1549.85 Z" fill="#000000" fill-rule="nonzero" fill-opacity="1"></path><path clip-path="url(#clip170)" d="M2297.85 1512.46 L2297.85 1595.42 L2290.96 1595.42 L2290.96 1512.46 L2297.85 1512.46 Z" fill="#000000" fill-rule="nonzero" fill-opacity="1"></path><path clip-path="url(#clip170)" d="M2334.75 1520.76 Q2328.43 1520.76 2325.23 1527 Q2322.07 1533.2 2322.07 1545.68 Q2322.07 1558.11 2325.23 1564.35 Q2328.43 1570.55 2334.75 1570.55 Q2341.11 1570.55 2344.27 1564.35 Q2347.47 1558.11 2347.47 1545.68 Q2347.47 1533.2 2344.27 1527 Q2341.11 1520.76 2334.75 1520.76 M2334.75 1514.28 Q2344.92 1514.28 2350.27 1522.34 Q2355.66 1530.36 2355.66 1545.68 Q2355.66 1560.95 2350.27 1569.01 Q2344.92 1577.03 2334.75 1577.03 Q2324.59 1577.03 2319.2 1569.01 Q2313.85 1560.95 2313.85 1545.68 Q2313.85 1530.36 2319.2 1522.34 Q2324.59 1514.28 2334.75 1514.28 Z" fill="#000000" fill-rule="nonzero" fill-opacity="1"></path><path clip-path="url(#clip170)" d="M2371.46 1568.97 L2384.82 1568.97 L2384.82 1522.83 L2370.28 1525.75 L2370.28 1518.29 L2384.74 1515.38 L2392.93 1515.38 L2392.93 1568.97 L2406.29 1568.97 L2406.29 1575.86 L2371.46 1575.86 L2371.46 1568.97 Z" fill="#000000" fill-rule="nonzero" fill-opacity="1"></path><path clip-path="url(#clip170)" d="M2440.32 1520.76 Q2434 1520.76 2430.8 1527 Q2427.64 1533.2 2427.64 1545.68 Q2427.64 1558.11 2430.8 1564.35 Q2434 1570.55 2440.32 1570.55 Q2446.68 1570.55 2449.84 1564.35 Q2453.04 1558.11 2453.04 1545.68 Q2453.04 1533.2 2449.84 1527 Q2446.68 1520.76 2440.32 1520.76 M2440.32 1514.28 Q2450.49 1514.28 2455.84 1522.34 Q2461.22 1530.36 2461.22 1545.68 Q2461.22 1560.95 2455.84 1569.01 Q2450.49 1577.03 2440.32 1577.03 Q2430.15 1577.03 2424.77 1569.01 Q2419.42 1560.95 2419.42 1545.68 Q2419.42 1530.36 2424.77 1522.34 Q2430.15 1514.28 2440.32 1514.28 Z" fill="#000000" fill-rule="nonzero" fill-opacity="1"></path><path clip-path="url(#clip170)" d="M2477.02 1568.97 L2490.39 1568.97 L2490.39 1522.83 L2475.85 1525.75 L2475.85 1518.29 L2490.31 1515.38 L2498.49 1515.38 L2498.49 1568.97 L2511.86 1568.97 L2511.86 1575.86 L2477.02 1575.86 L2477.02 1568.97 Z" fill="#000000" fill-rule="nonzero" fill-opacity="1"></path><path clip-path="url(#clip170)" d="M2544.47 1549.85 L2533.05 1586.79 L2526.16 1586.79 L2537.58 1549.85 L2526.16 1512.9 L2533.05 1512.9 L2544.47 1549.85 Z" fill="#000000" fill-rule="nonzero" fill-opacity="1"></path><path clip-path="url(#clip170)" d="M2771.94 1512.46 L2771.94 1595.42 L2765.06 1595.42 L2765.06 1512.46 L2771.94 1512.46 Z" fill="#000000" fill-rule="nonzero" fill-opacity="1"></path><path clip-path="url(#clip170)" d="M2808.85 1520.76 Q2802.53 1520.76 2799.33 1527 Q2796.17 1533.2 2796.17 1545.68 Q2796.17 1558.11 2799.33 1564.35 Q2802.53 1570.55 2808.85 1570.55 Q2815.21 1570.55 2818.37 1564.35 Q2821.57 1558.11 2821.57 1545.68 Q2821.57 1533.2 2818.37 1527 Q2815.21 1520.76 2808.85 1520.76 M2808.85 1514.28 Q2819.02 1514.28 2824.36 1522.34 Q2829.75 1530.36 2829.75 1545.68 Q2829.75 1560.95 2824.36 1569.01 Q2819.02 1577.03 2808.85 1577.03 Q2798.68 1577.03 2793.29 1569.01 Q2787.95 1560.95 2787.95 1545.68 Q2787.95 1530.36 2793.29 1522.34 Q2798.68 1514.28 2808.85 1514.28 Z" fill="#000000" fill-rule="nonzero" fill-opacity="1"></path><path clip-path="url(#clip170)" d="M2845.55 1568.97 L2858.92 1568.97 L2858.92 1522.83 L2844.37 1525.75 L2844.37 1518.29 L2858.84 1515.38 L2867.02 1515.38 L2867.02 1568.97 L2880.39 1568.97 L2880.39 1575.86 L2845.55 1575.86 L2845.55 1568.97 Z" fill="#000000" fill-rule="nonzero" fill-opacity="1"></path><path clip-path="url(#clip170)" d="M2898.33 1568.97 L2911.7 1568.97 L2911.7 1522.83 L2897.16 1525.75 L2897.16 1518.29 L2911.62 1515.38 L2919.8 1515.38 L2919.8 1568.97 L2933.17 1568.97 L2933.17 1575.86 L2898.33 1575.86 L2898.33 1568.97 Z" fill="#000000" fill-rule="nonzero" fill-opacity="1"></path><path clip-path="url(#clip170)" d="M2967.2 1520.76 Q2960.88 1520.76 2957.68 1527 Q2954.52 1533.2 2954.52 1545.68 Q2954.52 1558.11 2957.68 1564.35 Q2960.88 1570.55 2967.2 1570.55 Q2973.56 1570.55 2976.72 1564.35 Q2979.92 1558.11 2979.92 1545.68 Q2979.92 1533.2 2976.72 1527 Q2973.56 1520.76 2967.2 1520.76 M2967.2 1514.28 Q2977.37 1514.28 2982.71 1522.34 Q2988.1 1530.36 2988.1 1545.68 Q2988.1 1560.95 2982.71 1569.01 Q2977.37 1577.03 2967.2 1577.03 Q2957.03 1577.03 2951.64 1569.01 Q2946.3 1560.95 2946.3 1545.68 Q2946.3 1530.36 2951.64 1522.34 Q2957.03 1514.28 2967.2 1514.28 Z" fill="#000000" fill-rule="nonzero" fill-opacity="1"></path><path clip-path="url(#clip170)" d="M3018.56 1549.85 L3007.14 1586.79 L3000.25 1586.79 L3011.68 1549.85 L3000.25 1512.9 L3007.14 1512.9 L3018.56 1549.85 Z" fill="#000000" fill-rule="nonzero" fill-opacity="1"></path><path clip-path="url(#clip170)" d="M3246.04 1512.46 L3246.04 1595.42 L3239.15 1595.42 L3239.15 1512.46 L3246.04 1512.46 Z" fill="#000000" fill-rule="nonzero" fill-opacity="1"></path><path clip-path="url(#clip170)" d="M3282.94 1520.76 Q3276.62 1520.76 3273.42 1527 Q3270.26 1533.2 3270.26 1545.68 Q3270.26 1558.11 3273.42 1564.35 Q3276.62 1570.55 3282.94 1570.55 Q3289.3 1570.55 3292.46 1564.35 Q3295.66 1558.11 3295.66 1545.68 Q3295.66 1533.2 3292.46 1527 Q3289.3 1520.76 3282.94 1520.76 M3282.94 1514.28 Q3293.11 1514.28 3298.46 1522.34 Q3303.85 1530.36 3303.85 1545.68 Q3303.85 1560.95 3298.46 1569.01 Q3293.11 1577.03 3282.94 1577.03 Q3272.78 1577.03 3267.39 1569.01 Q3262.04 1560.95 3262.04 1545.68 Q3262.04 1530.36 3267.39 1522.34 Q3272.78 1514.28 3282.94 1514.28 Z" fill="#000000" fill-rule="nonzero" fill-opacity="1"></path><path clip-path="url(#clip170)" d="M3319.64 1568.97 L3333.01 1568.97 L3333.01 1522.83 L3318.47 1525.75 L3318.47 1518.29 L3332.93 1515.38 L3341.11 1515.38 L3341.11 1568.97 L3354.48 1568.97 L3354.48 1575.86 L3319.64 1575.86 L3319.64 1568.97 Z" fill="#000000" fill-rule="nonzero" fill-opacity="1"></path><path clip-path="url(#clip170)" d="M3372.43 1568.97 L3385.8 1568.97 L3385.8 1522.83 L3371.25 1525.75 L3371.25 1518.29 L3385.71 1515.38 L3393.9 1515.38 L3393.9 1568.97 L3407.27 1568.97 L3407.27 1575.86 L3372.43 1575.86 L3372.43 1568.97 Z" fill="#000000" fill-rule="nonzero" fill-opacity="1"></path><path clip-path="url(#clip170)" d="M3425.21 1568.97 L3438.58 1568.97 L3438.58 1522.83 L3424.04 1525.75 L3424.04 1518.29 L3438.5 1515.38 L3446.68 1515.38 L3446.68 1568.97 L3460.05 1568.97 L3460.05 1575.86 L3425.21 1575.86 L3425.21 1568.97 Z" fill="#000000" fill-rule="nonzero" fill-opacity="1"></path><path clip-path="url(#clip170)" d="M3492.66 1549.85 L3481.23 1586.79 L3474.35 1586.79 L3485.77 1549.85 L3474.35 1512.9 L3481.23 1512.9 L3492.66 1549.85 Z" fill="#000000" fill-rule="nonzero" fill-opacity="1"></path><path clip-path="url(#clip170)" d="M3720.13 1512.46 L3720.13 1595.42 L3713.25 1595.42 L3713.25 1512.46 L3720.13 1512.46 Z" fill="#000000" fill-rule="nonzero" fill-opacity="1"></path><path clip-path="url(#clip170)" d="M3740.96 1568.97 L3754.32 1568.97 L3754.32 1522.83 L3739.78 1525.75 L3739.78 1518.29 L3754.24 1515.38 L3762.43 1515.38 L3762.43 1568.97 L3775.79 1568.97 L3775.79 1575.86 L3740.96 1575.86 L3740.96 1568.97 Z" fill="#000000" fill-rule="nonzero" fill-opacity="1"></path><path clip-path="url(#clip170)" d="M3809.82 1520.76 Q3803.5 1520.76 3800.3 1527 Q3797.14 1533.2 3797.14 1545.68 Q3797.14 1558.11 3800.3 1564.35 Q3803.5 1570.55 3809.82 1570.55 Q3816.18 1570.55 3819.34 1564.35 Q3822.54 1558.11 3822.54 1545.68 Q3822.54 1533.2 3819.34 1527 Q3816.18 1520.76 3809.82 1520.76 M3809.82 1514.28 Q3819.99 1514.28 3825.34 1522.34 Q3830.72 1530.36 3830.72 1545.68 Q3830.72 1560.95 3825.34 1569.01 Q3819.99 1577.03 3809.82 1577.03 Q3799.65 1577.03 3794.27 1569.01 Q3788.92 1560.95 3788.92 1545.68 Q3788.92 1530.36 3794.27 1522.34 Q3799.65 1514.28 3809.82 1514.28 Z" fill="#000000" fill-rule="nonzero" fill-opacity="1"></path><path clip-path="url(#clip170)" d="M3862.6 1520.76 Q3856.28 1520.76 3853.08 1527 Q3849.92 1533.2 3849.92 1545.68 Q3849.92 1558.11 3853.08 1564.35 Q3856.28 1570.55 3862.6 1570.55 Q3868.96 1570.55 3872.12 1564.35 Q3875.32 1558.11 3875.32 1545.68 Q3875.32 1533.2 3872.12 1527 Q3868.96 1520.76 3862.6 1520.76 M3862.6 1514.28 Q3872.77 1514.28 3878.12 1522.34 Q3883.51 1530.36 3883.51 1545.68 Q3883.51 1560.95 3878.12 1569.01 Q3872.77 1577.03 3862.6 1577.03 Q3852.44 1577.03 3847.05 1569.01 Q3841.7 1560.95 3841.7 1545.68 Q3841.7 1530.36 3847.05 1522.34 Q3852.44 1514.28 3862.6 1514.28 Z" fill="#000000" fill-rule="nonzero" fill-opacity="1"></path><path clip-path="url(#clip170)" d="M3915.39 1520.76 Q3909.07 1520.76 3905.87 1527 Q3902.71 1533.2 3902.71 1545.68 Q3902.71 1558.11 3905.87 1564.35 Q3909.07 1570.55 3915.39 1570.55 Q3921.75 1570.55 3924.91 1564.35 Q3928.11 1558.11 3928.11 1545.68 Q3928.11 1533.2 3924.91 1527 Q3921.75 1520.76 3915.39 1520.76 M3915.39 1514.28 Q3925.56 1514.28 3930.9 1522.34 Q3936.29 1530.36 3936.29 1545.68 Q3936.29 1560.95 3930.9 1569.01 Q3925.56 1577.03 3915.39 1577.03 Q3905.22 1577.03 3899.83 1569.01 Q3894.48 1560.95 3894.48 1545.68 Q3894.48 1530.36 3899.83 1522.34 Q3905.22 1514.28 3915.39 1514.28 Z" fill="#000000" fill-rule="nonzero" fill-opacity="1"></path><path clip-path="url(#clip170)" d="M3966.75 1549.85 L3955.33 1586.79 L3948.44 1586.79 L3959.87 1549.85 L3948.44 1512.9 L3955.33 1512.9 L3966.75 1549.85 Z" fill="#000000" fill-rule="nonzero" fill-opacity="1"></path><path clip-path="url(#clip170)" d="M4194.23 1512.46 L4194.23 1595.42 L4187.34 1595.42 L4187.34 1512.46 L4194.23 1512.46 Z" fill="#000000" fill-rule="nonzero" fill-opacity="1"></path><path clip-path="url(#clip170)" d="M4215.05 1568.97 L4228.42 1568.97 L4228.42 1522.83 L4213.88 1525.75 L4213.88 1518.29 L4228.34 1515.38 L4236.52 1515.38 L4236.52 1568.97 L4249.89 1568.97 L4249.89 1575.86 L4215.05 1575.86 L4215.05 1568.97 Z" fill="#000000" fill-rule="nonzero" fill-opacity="1"></path><path clip-path="url(#clip170)" d="M4283.92 1520.76 Q4277.6 1520.76 4274.4 1527 Q4271.24 1533.2 4271.24 1545.68 Q4271.24 1558.11 4274.4 1564.35 Q4277.6 1570.55 4283.92 1570.55 Q4290.28 1570.55 4293.43 1564.35 Q4296.64 1558.11 4296.64 1545.68 Q4296.64 1533.2 4293.43 1527 Q4290.28 1520.76 4283.92 1520.76 M4283.92 1514.28 Q4294.08 1514.28 4299.43 1522.34 Q4304.82 1530.36 4304.82 1545.68 Q4304.82 1560.95 4299.43 1569.01 Q4294.08 1577.03 4283.92 1577.03 Q4273.75 1577.03 4268.36 1569.01 Q4263.01 1560.95 4263.01 1545.68 Q4263.01 1530.36 4268.36 1522.34 Q4273.75 1514.28 4283.92 1514.28 Z" fill="#000000" fill-rule="nonzero" fill-opacity="1"></path><path clip-path="url(#clip170)" d="M4336.7 1520.76 Q4330.38 1520.76 4327.18 1527 Q4324.02 1533.2 4324.02 1545.68 Q4324.02 1558.11 4327.18 1564.35 Q4330.38 1570.55 4336.7 1570.55 Q4343.06 1570.55 4346.22 1564.35 Q4349.42 1558.11 4349.42 1545.68 Q4349.42 1533.2 4346.22 1527 Q4343.06 1520.76 4336.7 1520.76 M4336.7 1514.28 Q4346.87 1514.28 4352.21 1522.34 Q4357.6 1530.36 4357.6 1545.68 Q4357.6 1560.95 4352.21 1569.01 Q4346.87 1577.03 4336.7 1577.03 Q4326.53 1577.03 4321.14 1569.01 Q4315.8 1560.95 4315.8 1545.68 Q4315.8 1530.36 4321.14 1522.34 Q4326.53 1514.28 4336.7 1514.28 Z" fill="#000000" fill-rule="nonzero" fill-opacity="1"></path><path clip-path="url(#clip170)" d="M4373.4 1568.97 L4386.77 1568.97 L4386.77 1522.83 L4372.22 1525.75 L4372.22 1518.29 L4386.69 1515.38 L4394.87 1515.38 L4394.87 1568.97 L4408.24 1568.97 L4408.24 1575.86 L4373.4 1575.86 L4373.4 1568.97 Z" fill="#000000" fill-rule="nonzero" fill-opacity="1"></path><path clip-path="url(#clip170)" d="M4440.85 1549.85 L4429.42 1586.79 L4422.54 1586.79 L4433.96 1549.85 L4422.54 1512.9 L4429.42 1512.9 L4440.85 1549.85 Z" fill="#000000" fill-rule="nonzero" fill-opacity="1"></path><path clip-path="url(#clip170)" d="M4668.32 1512.46 L4668.32 1595.42 L4661.44 1595.42 L4661.44 1512.46 L4668.32 1512.46 Z" fill="#000000" fill-rule="nonzero" fill-opacity="1"></path><path clip-path="url(#clip170)" d="M4689.14 1568.97 L4702.51 1568.97 L4702.51 1522.83 L4687.97 1525.75 L4687.97 1518.29 L4702.43 1515.38 L4710.61 1515.38 L4710.61 1568.97 L4723.98 1568.97 L4723.98 1575.86 L4689.14 1575.86 L4689.14 1568.97 Z" fill="#000000" fill-rule="nonzero" fill-opacity="1"></path><path clip-path="url(#clip170)" d="M4758.01 1520.76 Q4751.69 1520.76 4748.49 1527 Q4745.33 1533.2 4745.33 1545.68 Q4745.33 1558.11 4748.49 1564.35 Q4751.69 1570.55 4758.01 1570.55 Q4764.37 1570.55 4767.53 1564.35 Q4770.73 1558.11 4770.73 1545.68 Q4770.73 1533.2 4767.53 1527 Q4764.37 1520.76 4758.01 1520.76 M4758.01 1514.28 Q4768.18 1514.28 4773.52 1522.34 Q4778.91 1530.36 4778.91 1545.68 Q4778.91 1560.95 4773.52 1569.01 Q4768.18 1577.03 4758.01 1577.03 Q4747.84 1577.03 4742.45 1569.01 Q4737.11 1560.95 4737.11 1545.68 Q4737.11 1530.36 4742.45 1522.34 Q4747.84 1514.28 4758.01 1514.28 Z" fill="#000000" fill-rule="nonzero" fill-opacity="1"></path><path clip-path="url(#clip170)" d="M4794.71 1568.97 L4808.08 1568.97 L4808.08 1522.83 L4793.54 1525.75 L4793.54 1518.29 L4808 1515.38 L4816.18 1515.38 L4816.18 1568.97 L4829.55 1568.97 L4829.55 1575.86 L4794.71 1575.86 L4794.71 1568.97 Z" fill="#000000" fill-rule="nonzero" fill-opacity="1"></path><path clip-path="url(#clip170)" d="M4863.58 1520.76 Q4857.26 1520.76 4854.06 1527 Q4850.9 1533.2 4850.9 1545.68 Q4850.9 1558.11 4854.06 1564.35 Q4857.26 1570.55 4863.58 1570.55 Q4869.94 1570.55 4873.1 1564.35 Q4876.3 1558.11 4876.3 1545.68 Q4876.3 1533.2 4873.1 1527 Q4869.94 1520.76 4863.58 1520.76 M4863.58 1514.28 Q4873.74 1514.28 4879.09 1522.34 Q4884.48 1530.36 4884.48 1545.68 Q4884.48 1560.95 4879.09 1569.01 Q4873.74 1577.03 4863.58 1577.03 Q4853.41 1577.03 4848.02 1569.01 Q4842.67 1560.95 4842.67 1545.68 Q4842.67 1530.36 4848.02 1522.34 Q4853.41 1514.28 4863.58 1514.28 Z" fill="#000000" fill-rule="nonzero" fill-opacity="1"></path><path clip-path="url(#clip170)" d="M4914.94 1549.85 L4903.52 1586.79 L4896.63 1586.79 L4908.06 1549.85 L4896.63 1512.9 L4903.52 1512.9 L4914.94 1549.85 Z" fill="#000000" fill-rule="nonzero" fill-opacity="1"></path><path clip-path="url(#clip170)" d="M5142.42 1512.46 L5142.42 1595.42 L5135.53 1595.42 L5135.53 1512.46 L5142.42 1512.46 Z" fill="#000000" fill-rule="nonzero" fill-opacity="1"></path><path clip-path="url(#clip170)" d="M5163.24 1568.97 L5176.61 1568.97 L5176.61 1522.83 L5162.06 1525.75 L5162.06 1518.29 L5176.53 1515.38 L5184.71 1515.38 L5184.71 1568.97 L5198.08 1568.97 L5198.08 1575.86 L5163.24 1575.86 L5163.24 1568.97 Z" fill="#000000" fill-rule="nonzero" fill-opacity="1"></path><path clip-path="url(#clip170)" d="M5232.1 1520.76 Q5225.78 1520.76 5222.58 1527 Q5219.42 1533.2 5219.42 1545.68 Q5219.42 1558.11 5222.58 1564.35 Q5225.78 1570.55 5232.1 1570.55 Q5238.46 1570.55 5241.62 1564.35 Q5244.82 1558.11 5244.82 1545.68 Q5244.82 1533.2 5241.62 1527 Q5238.46 1520.76 5232.1 1520.76 M5232.1 1514.28 Q5242.27 1514.28 5247.62 1522.34 Q5253.01 1530.36 5253.01 1545.68 Q5253.01 1560.95 5247.62 1569.01 Q5242.27 1577.03 5232.1 1577.03 Q5221.94 1577.03 5216.55 1569.01 Q5211.2 1560.95 5211.2 1545.68 Q5211.2 1530.36 5216.55 1522.34 Q5221.94 1514.28 5232.1 1514.28 Z" fill="#000000" fill-rule="nonzero" fill-opacity="1"></path><path clip-path="url(#clip170)" d="M5268.81 1568.97 L5282.17 1568.97 L5282.17 1522.83 L5267.63 1525.75 L5267.63 1518.29 L5282.09 1515.38 L5290.28 1515.38 L5290.28 1568.97 L5303.64 1568.97 L5303.64 1575.86 L5268.81 1575.86 L5268.81 1568.97 Z" fill="#000000" fill-rule="nonzero" fill-opacity="1"></path><path clip-path="url(#clip170)" d="M5321.59 1568.97 L5334.96 1568.97 L5334.96 1522.83 L5320.41 1525.75 L5320.41 1518.29 L5334.88 1515.38 L5343.06 1515.38 L5343.06 1568.97 L5356.43 1568.97 L5356.43 1575.86 L5321.59 1575.86 L5321.59 1568.97 Z" fill="#000000" fill-rule="nonzero" fill-opacity="1"></path><path clip-path="url(#clip170)" d="M5389.04 1549.85 L5377.61 1586.79 L5370.73 1586.79 L5382.15 1549.85 L5370.73 1512.9 L5377.61 1512.9 L5389.04 1549.85 Z" fill="#000000" fill-rule="nonzero" fill-opacity="1"></path><path clip-path="url(#clip170)" d="M5616.51 1512.46 L5616.51 1595.42 L5609.63 1595.42 L5609.63 1512.46 L5616.51 1512.46 Z" fill="#000000" fill-rule="nonzero" fill-opacity="1"></path><path clip-path="url(#clip170)" d="M5637.33 1568.97 L5650.7 1568.97 L5650.7 1522.83 L5636.16 1525.75 L5636.16 1518.29 L5650.62 1515.38 L5658.8 1515.38 L5658.8 1568.97 L5672.17 1568.97 L5672.17 1575.86 L5637.33 1575.86 L5637.33 1568.97 Z" fill="#000000" fill-rule="nonzero" fill-opacity="1"></path><path clip-path="url(#clip170)" d="M5690.12 1568.97 L5703.48 1568.97 L5703.48 1522.83 L5688.94 1525.75 L5688.94 1518.29 L5703.4 1515.38 L5711.59 1515.38 L5711.59 1568.97 L5724.95 1568.97 L5724.95 1575.86 L5690.12 1575.86 L5690.12 1568.97 Z" fill="#000000" fill-rule="nonzero" fill-opacity="1"></path><path clip-path="url(#clip170)" d="M5758.98 1520.76 Q5752.66 1520.76 5749.46 1527 Q5746.3 1533.2 5746.3 1545.68 Q5746.3 1558.11 5749.46 1564.35 Q5752.66 1570.55 5758.98 1570.55 Q5765.34 1570.55 5768.5 1564.35 Q5771.7 1558.11 5771.7 1545.68 Q5771.7 1533.2 5768.5 1527 Q5765.34 1520.76 5758.98 1520.76 M5758.98 1514.28 Q5769.15 1514.28 5774.5 1522.34 Q5779.88 1530.36 5779.88 1545.68 Q5779.88 1560.95 5774.5 1569.01 Q5769.15 1577.03 5758.98 1577.03 Q5748.81 1577.03 5743.43 1569.01 Q5738.08 1560.95 5738.08 1545.68 Q5738.08 1530.36 5743.43 1522.34 Q5748.81 1514.28 5758.98 1514.28 Z" fill="#000000" fill-rule="nonzero" fill-opacity="1"></path><path clip-path="url(#clip170)" d="M5811.77 1520.76 Q5805.45 1520.76 5802.25 1527 Q5799.09 1533.2 5799.09 1545.68 Q5799.09 1558.11 5802.25 1564.35 Q5805.45 1570.55 5811.77 1570.55 Q5818.13 1570.55 5821.28 1564.35 Q5824.49 1558.11 5824.49 1545.68 Q5824.49 1533.2 5821.28 1527 Q5818.13 1520.76 5811.77 1520.76 M5811.77 1514.28 Q5821.93 1514.28 5827.28 1522.34 Q5832.67 1530.36 5832.67 1545.68 Q5832.67 1560.95 5827.28 1569.01 Q5821.93 1577.03 5811.77 1577.03 Q5801.6 1577.03 5796.21 1569.01 Q5790.86 1560.95 5790.86 1545.68 Q5790.86 1530.36 5796.21 1522.34 Q5801.6 1514.28 5811.77 1514.28 Z" fill="#000000" fill-rule="nonzero" fill-opacity="1"></path><path clip-path="url(#clip170)" d="M5863.13 1549.85 L5851.71 1586.79 L5844.82 1586.79 L5856.24 1549.85 L5844.82 1512.9 L5851.71 1512.9 L5863.13 1549.85 Z" fill="#000000" fill-rule="nonzero" fill-opacity="1"></path><path clip-path="url(#clip170)" d="M6090.61 1512.46 L6090.61 1595.42 L6083.72 1595.42 L6083.72 1512.46 L6090.61 1512.46 Z" fill="#000000" fill-rule="nonzero" fill-opacity="1"></path><path clip-path="url(#clip170)" d="M6111.43 1568.97 L6124.8 1568.97 L6124.8 1522.83 L6110.25 1525.75 L6110.25 1518.29 L6124.71 1515.38 L6132.9 1515.38 L6132.9 1568.97 L6146.27 1568.97 L6146.27 1575.86 L6111.43 1575.86 L6111.43 1568.97 Z" fill="#000000" fill-rule="nonzero" fill-opacity="1"></path><path clip-path="url(#clip170)" d="M6164.21 1568.97 L6177.58 1568.97 L6177.58 1522.83 L6163.04 1525.75 L6163.04 1518.29 L6177.5 1515.38 L6185.68 1515.38 L6185.68 1568.97 L6199.05 1568.97 L6199.05 1575.86 L6164.21 1575.86 L6164.21 1568.97 Z" fill="#000000" fill-rule="nonzero" fill-opacity="1"></path><path clip-path="url(#clip170)" d="M6233.08 1520.76 Q6226.76 1520.76 6223.56 1527 Q6220.4 1533.2 6220.4 1545.68 Q6220.4 1558.11 6223.56 1564.35 Q6226.76 1570.55 6233.08 1570.55 Q6239.44 1570.55 6242.6 1564.35 Q6245.8 1558.11 6245.8 1545.68 Q6245.8 1533.2 6242.6 1527 Q6239.44 1520.76 6233.08 1520.76 M6233.08 1514.28 Q6243.24 1514.28 6248.59 1522.34 Q6253.98 1530.36 6253.98 1545.68 Q6253.98 1560.95 6248.59 1569.01 Q6243.24 1577.03 6233.08 1577.03 Q6222.91 1577.03 6217.52 1569.01 Q6212.17 1560.95 6212.17 1545.68 Q6212.17 1530.36 6217.52 1522.34 Q6222.91 1514.28 6233.08 1514.28 Z" fill="#000000" fill-rule="nonzero" fill-opacity="1"></path><path clip-path="url(#clip170)" d="M6269.78 1568.97 L6283.15 1568.97 L6283.15 1522.83 L6268.6 1525.75 L6268.6 1518.29 L6283.06 1515.38 L6291.25 1515.38 L6291.25 1568.97 L6304.62 1568.97 L6304.62 1575.86 L6269.78 1575.86 L6269.78 1568.97 Z" fill="#000000" fill-rule="nonzero" fill-opacity="1"></path><path clip-path="url(#clip170)" d="M6337.23 1549.85 L6325.8 1586.79 L6318.92 1586.79 L6330.34 1549.85 L6318.92 1512.9 L6325.8 1512.9 L6337.23 1549.85 Z" fill="#000000" fill-rule="nonzero" fill-opacity="1"></path><path clip-path="url(#clip170)" d="M6564.7 1512.46 L6564.7 1595.42 L6557.81 1595.42 L6557.81 1512.46 L6564.7 1512.46 Z" fill="#000000" fill-rule="nonzero" fill-opacity="1"></path><path clip-path="url(#clip170)" d="M6585.52 1568.97 L6598.89 1568.97 L6598.89 1522.83 L6584.35 1525.75 L6584.35 1518.29 L6598.81 1515.38 L6606.99 1515.38 L6606.99 1568.97 L6620.36 1568.97 L6620.36 1575.86 L6585.52 1575.86 L6585.52 1568.97 Z" fill="#000000" fill-rule="nonzero" fill-opacity="1"></path><path clip-path="url(#clip170)" d="M6638.31 1568.97 L6651.67 1568.97 L6651.67 1522.83 L6637.13 1525.75 L6637.13 1518.29 L6651.59 1515.38 L6659.78 1515.38 L6659.78 1568.97 L6673.14 1568.97 L6673.14 1575.86 L6638.31 1575.86 L6638.31 1568.97 Z" fill="#000000" fill-rule="nonzero" fill-opacity="1"></path><path clip-path="url(#clip170)" d="M6691.09 1568.97 L6704.46 1568.97 L6704.46 1522.83 L6689.91 1525.75 L6689.91 1518.29 L6704.38 1515.38 L6712.56 1515.38 L6712.56 1568.97 L6725.93 1568.97 L6725.93 1575.86 L6691.09 1575.86 L6691.09 1568.97 Z" fill="#000000" fill-rule="nonzero" fill-opacity="1"></path><path clip-path="url(#clip170)" d="M6759.95 1520.76 Q6753.63 1520.76 6750.43 1527 Q6747.27 1533.2 6747.27 1545.68 Q6747.27 1558.11 6750.43 1564.35 Q6753.63 1570.55 6759.95 1570.55 Q6766.31 1570.55 6769.47 1564.35 Q6772.67 1558.11 6772.67 1545.68 Q6772.67 1533.2 6769.47 1527 Q6766.31 1520.76 6759.95 1520.76 M6759.95 1514.28 Q6770.12 1514.28 6775.47 1522.34 Q6780.86 1530.36 6780.86 1545.68 Q6780.86 1560.95 6775.47 1569.01 Q6770.12 1577.03 6759.95 1577.03 Q6749.79 1577.03 6744.4 1569.01 Q6739.05 1560.95 6739.05 1545.68 Q6739.05 1530.36 6744.4 1522.34 Q6749.79 1514.28 6759.95 1514.28 Z" fill="#000000" fill-rule="nonzero" fill-opacity="1"></path><path clip-path="url(#clip170)" d="M6811.32 1549.85 L6799.9 1586.79 L6793.01 1586.79 L6804.43 1549.85 L6793.01 1512.9 L6799.9 1512.9 L6811.32 1549.85 Z" fill="#000000" fill-rule="nonzero" fill-opacity="1"></path><path clip-path="url(#clip170)" d="M7038.8 1512.46 L7038.8 1595.42 L7031.91 1595.42 L7031.91 1512.46 L7038.8 1512.46 Z" fill="#000000" fill-rule="nonzero" fill-opacity="1"></path><path clip-path="url(#clip170)" d="M7059.62 1568.97 L7072.98 1568.97 L7072.98 1522.83 L7058.44 1525.75 L7058.44 1518.29 L7072.9 1515.38 L7081.09 1515.38 L7081.09 1568.97 L7094.45 1568.97 L7094.45 1575.86 L7059.62 1575.86 L7059.62 1568.97 Z" fill="#000000" fill-rule="nonzero" fill-opacity="1"></path><path clip-path="url(#clip170)" d="M7112.4 1568.97 L7125.77 1568.97 L7125.77 1522.83 L7111.23 1525.75 L7111.23 1518.29 L7125.69 1515.38 L7133.87 1515.38 L7133.87 1568.97 L7147.24 1568.97 L7147.24 1575.86 L7112.4 1575.86 L7112.4 1568.97 Z" fill="#000000" fill-rule="nonzero" fill-opacity="1"></path><path clip-path="url(#clip170)" d="M7165.18 1568.97 L7178.55 1568.97 L7178.55 1522.83 L7164.01 1525.75 L7164.01 1518.29 L7178.47 1515.38 L7186.65 1515.38 L7186.65 1568.97 L7200.02 1568.97 L7200.02 1575.86 L7165.18 1575.86 L7165.18 1568.97 Z" fill="#000000" fill-rule="nonzero" fill-opacity="1"></path><path clip-path="url(#clip170)" d="M7217.97 1568.97 L7231.33 1568.97 L7231.33 1522.83 L7216.79 1525.75 L7216.79 1518.29 L7231.25 1515.38 L7239.44 1515.38 L7239.44 1568.97 L7252.8 1568.97 L7252.8 1575.86 L7217.97 1575.86 L7217.97 1568.97 Z" fill="#000000" fill-rule="nonzero" fill-opacity="1"></path><path clip-path="url(#clip170)" d="M7285.41 1549.85 L7273.99 1586.79 L7267.1 1586.79 L7278.53 1549.85 L7267.1 1512.9 L7273.99 1512.9 L7285.41 1549.85 Z" fill="#000000" fill-rule="nonzero" fill-opacity="1"></path><circle clip-path="url(#clip172)" style="fill:#3da44d; stroke:none; fill-opacity:1" cx="47.2441" cy="81.8921" r="2"></circle>
<circle clip-path="url(#clip172)" style="fill:#3da44d; stroke:none; fill-opacity:1" cx="521.339" cy="81.8921" r="2"></circle>
<circle clip-path="url(#clip172)" style="fill:#3da44d; stroke:none; fill-opacity:1" cx="995.433" cy="81.8921" r="2"></circle>
<circle clip-path="url(#clip172)" style="fill:#3da44d; stroke:none; fill-opacity:1" cx="1469.53" cy="81.8921" r="2"></circle>
<circle clip-path="url(#clip172)" style="fill:#3da44d; stroke:none; fill-opacity:1" cx="1943.62" cy="81.8921" r="2"></circle>
<circle clip-path="url(#clip172)" style="fill:#3da44d; stroke:none; fill-opacity:1" cx="2417.72" cy="81.8921" r="2"></circle>
<circle clip-path="url(#clip172)" style="fill:#3da44d; stroke:none; fill-opacity:1" cx="2891.81" cy="81.8921" r="2"></circle>
<circle clip-path="url(#clip172)" style="fill:#3da44d; stroke:none; fill-opacity:1" cx="3365.91" cy="81.8921" r="2"></circle>
<circle clip-path="url(#clip172)" style="fill:#3da44d; stroke:none; fill-opacity:1" cx="3840" cy="81.8921" r="2"></circle>
<circle clip-path="url(#clip172)" style="fill:#3da44d; stroke:none; fill-opacity:1" cx="4314.09" cy="81.8921" r="2"></circle>
<circle clip-path="url(#clip172)" style="fill:#3da44d; stroke:none; fill-opacity:1" cx="4788.19" cy="81.8921" r="2"></circle>
<circle clip-path="url(#clip172)" style="fill:#3da44d; stroke:none; fill-opacity:1" cx="5262.28" cy="81.8921" r="2"></circle>
<circle clip-path="url(#clip172)" style="fill:#3da44d; stroke:none; fill-opacity:1" cx="5736.38" cy="81.8921" r="2"></circle>
<circle clip-path="url(#clip172)" style="fill:#3da44d; stroke:none; fill-opacity:1" cx="6210.47" cy="81.8921" r="2"></circle>
<circle clip-path="url(#clip172)" style="fill:#3da44d; stroke:none; fill-opacity:1" cx="6684.57" cy="81.8921" r="2"></circle>
<circle clip-path="url(#clip172)" style="fill:#3da44d; stroke:none; fill-opacity:1" cx="7158.66" cy="81.8921" r="2"></circle>
<path clip-path="url(#clip170)" d="M47.2441 57.0398 Q40.9247 57.0398 37.7245 63.2782 Q34.5648 69.4761 34.5648 81.9529 Q34.5648 94.3892 37.7245 100.628 Q40.9247 106.825 47.2441 106.825 Q53.604 106.825 56.7637 100.628 Q59.9639 94.3892 59.9639 81.9529 Q59.9639 69.4761 56.7637 63.2782 Q53.604 57.0398 47.2441 57.0398 M47.2441 50.5584 Q57.4119 50.5584 62.7591 58.6197 Q68.1468 66.6405 68.1468 81.9529 Q68.1468 97.2248 62.7591 105.286 Q57.4119 113.307 47.2441 113.307 Q37.0763 113.307 31.6886 105.286 Q26.3414 97.2248 26.3414 81.9529 Q26.3414 66.6405 31.6886 58.6197 Q37.0763 50.5584 47.2441 50.5584 Z" fill="#000000" fill-rule="nonzero" fill-opacity="1"></path><path clip-path="url(#clip170)" d="M521.339 57.0398 Q515.019 57.0398 511.819 63.2782 Q508.659 69.4761 508.659 81.9529 Q508.659 94.3892 511.819 100.628 Q515.019 106.825 521.339 106.825 Q527.699 106.825 530.858 100.628 Q534.058 94.3892 534.058 81.9529 Q534.058 69.4761 530.858 63.2782 Q527.699 57.0398 521.339 57.0398 M521.339 50.5584 Q531.506 50.5584 536.854 58.6197 Q542.241 66.6405 542.241 81.9529 Q542.241 97.2248 536.854 105.286 Q531.506 113.307 521.339 113.307 Q511.171 113.307 505.783 105.286 Q500.436 97.2248 500.436 81.9529 Q500.436 66.6405 505.783 58.6197 Q511.171 50.5584 521.339 50.5584 Z" fill="#000000" fill-rule="nonzero" fill-opacity="1"></path><path clip-path="url(#clip170)" d="M995.433 57.0398 Q989.114 57.0398 985.913 63.2782 Q982.754 69.4761 982.754 81.9529 Q982.754 94.3892 985.913 100.628 Q989.114 106.825 995.433 106.825 Q1001.79 106.825 1004.95 100.628 Q1008.15 94.3892 1008.15 81.9529 Q1008.15 69.4761 1004.95 63.2782 Q1001.79 57.0398 995.433 57.0398 M995.433 50.5584 Q1005.6 50.5584 1010.95 58.6197 Q1016.34 66.6405 1016.34 81.9529 Q1016.34 97.2248 1010.95 105.286 Q1005.6 113.307 995.433 113.307 Q985.265 113.307 979.878 105.286 Q974.53 97.2248 974.53 81.9529 Q974.53 66.6405 979.878 58.6197 Q985.265 50.5584 995.433 50.5584 Z" fill="#000000" fill-rule="nonzero" fill-opacity="1"></path><path clip-path="url(#clip170)" d="M1405.85 105.246 L1434.41 105.246 L1434.41 112.132 L1396 112.132 L1396 105.246 Q1400.66 100.425 1408.68 92.3232 Q1416.74 84.1809 1418.81 81.8314 Q1422.74 77.4159 1424.28 74.3777 Q1425.86 71.299 1425.86 68.3419 Q1425.86 63.5213 1422.46 60.4831 Q1419.09 57.4449 1413.67 57.4449 Q1409.82 57.4449 1405.52 58.7817 Q1401.27 60.1185 1396.41 62.8326 L1396.41 54.5688 Q1401.35 52.5838 1405.64 51.5711 Q1409.94 50.5584 1413.5 50.5584 Q1422.9 50.5584 1428.49 55.2574 Q1434.08 59.9565 1434.08 67.8152 Q1434.08 71.5421 1432.66 74.9043 Q1431.29 78.2261 1427.6 82.7631 Q1426.59 83.9378 1421.16 89.5686 Q1415.73 95.1588 1405.85 105.246 Z" fill="#000000" fill-rule="nonzero" fill-opacity="1"></path><path clip-path="url(#clip170)" d="M1469.08 57.0398 Q1462.76 57.0398 1459.56 63.2782 Q1456.4 69.4761 1456.4 81.9529 Q1456.4 94.3892 1459.56 100.628 Q1462.76 106.825 1469.08 106.825 Q1475.44 106.825 1478.6 100.628 Q1481.8 94.3892 1481.8 81.9529 Q1481.8 69.4761 1478.6 63.2782 Q1475.44 57.0398 1469.08 57.0398 M1469.08 50.5584 Q1479.25 50.5584 1484.6 58.6197 Q1489.98 66.6405 1489.98 81.9529 Q1489.98 97.2248 1484.6 105.286 Q1479.25 113.307 1469.08 113.307 Q1458.91 113.307 1453.53 105.286 Q1448.18 97.2248 1448.18 81.9529 Q1448.18 66.6405 1453.53 58.6197 Q1458.91 50.5584 1469.08 50.5584 Z" fill="#000000" fill-rule="nonzero" fill-opacity="1"></path><path clip-path="url(#clip170)" d="M1522.88 78.6311 Q1517.37 78.6311 1514.13 82.3985 Q1510.93 86.1658 1510.93 92.7283 Q1510.93 99.2503 1514.13 103.058 Q1517.37 106.825 1522.88 106.825 Q1528.39 106.825 1531.59 103.058 Q1534.83 99.2503 1534.83 92.7283 Q1534.83 86.1658 1531.59 82.3985 Q1528.39 78.6311 1522.88 78.6311 M1539.12 52.9889 L1539.12 60.4426 Q1536.04 58.9843 1532.88 58.2146 Q1529.76 57.4449 1526.69 57.4449 Q1518.58 57.4449 1514.29 62.9136 Q1510.04 68.3824 1509.43 79.4413 Q1511.82 75.917 1515.42 74.0536 Q1519.03 72.1497 1523.36 72.1497 Q1532.48 72.1497 1537.74 77.6994 Q1543.05 83.2087 1543.05 92.7283 Q1543.05 102.045 1537.54 107.676 Q1532.03 113.307 1522.88 113.307 Q1512.39 113.307 1506.84 105.286 Q1501.29 97.2248 1501.29 81.9529 Q1501.29 67.6127 1508.09 59.1058 Q1514.9 50.5584 1526.36 50.5584 Q1529.44 50.5584 1532.56 51.166 Q1535.72 51.7737 1539.12 52.9889 Z" fill="#000000" fill-rule="nonzero" fill-opacity="1"></path><path clip-path="url(#clip170)" d="M1943.62 57.0398 Q1937.3 57.0398 1934.1 63.2782 Q1930.94 69.4761 1930.94 81.9529 Q1930.94 94.3892 1934.1 100.628 Q1937.3 106.825 1943.62 106.825 Q1949.98 106.825 1953.14 100.628 Q1956.34 94.3892 1956.34 81.9529 Q1956.34 69.4761 1953.14 63.2782 Q1949.98 57.0398 1943.62 57.0398 M1943.62 50.5584 Q1953.79 50.5584 1959.14 58.6197 Q1964.52 66.6405 1964.52 81.9529 Q1964.52 97.2248 1959.14 105.286 Q1953.79 113.307 1943.62 113.307 Q1933.45 113.307 1928.07 105.286 Q1922.72 97.2248 1922.72 81.9529 Q1922.72 66.6405 1928.07 58.6197 Q1933.45 50.5584 1943.62 50.5584 Z" fill="#000000" fill-rule="nonzero" fill-opacity="1"></path><path clip-path="url(#clip170)" d="M2348.1 105.246 L2361.47 105.246 L2361.47 59.1058 L2346.93 62.0224 L2346.93 54.5688 L2361.39 51.6521 L2369.57 51.6521 L2369.57 105.246 L2382.94 105.246 L2382.94 112.132 L2348.1 112.132 L2348.1 105.246 Z" fill="#000000" fill-rule="nonzero" fill-opacity="1"></path><path clip-path="url(#clip170)" d="M2400.89 105.246 L2414.25 105.246 L2414.25 59.1058 L2399.71 62.0224 L2399.71 54.5688 L2414.17 51.6521 L2422.35 51.6521 L2422.35 105.246 L2435.72 105.246 L2435.72 112.132 L2400.89 112.132 L2400.89 105.246 Z" fill="#000000" fill-rule="nonzero" fill-opacity="1"></path><path clip-path="url(#clip170)" d="M2453.67 105.246 L2467.04 105.246 L2467.04 59.1058 L2452.49 62.0224 L2452.49 54.5688 L2466.96 51.6521 L2475.14 51.6521 L2475.14 105.246 L2488.51 105.246 L2488.51 112.132 L2453.67 112.132 L2453.67 105.246 Z" fill="#000000" fill-rule="nonzero" fill-opacity="1"></path><path clip-path="url(#clip170)" d="M2891.81 57.0398 Q2885.49 57.0398 2882.29 63.2782 Q2879.13 69.4761 2879.13 81.9529 Q2879.13 94.3892 2882.29 100.628 Q2885.49 106.825 2891.81 106.825 Q2898.17 106.825 2901.33 100.628 Q2904.53 94.3892 2904.53 81.9529 Q2904.53 69.4761 2901.33 63.2782 Q2898.17 57.0398 2891.81 57.0398 M2891.81 50.5584 Q2901.98 50.5584 2907.33 58.6197 Q2912.71 66.6405 2912.71 81.9529 Q2912.71 97.2248 2907.33 105.286 Q2901.98 113.307 2891.81 113.307 Q2881.64 113.307 2876.26 105.286 Q2870.91 97.2248 2870.91 81.9529 Q2870.91 66.6405 2876.26 58.6197 Q2881.64 50.5584 2891.81 50.5584 Z" fill="#000000" fill-rule="nonzero" fill-opacity="1"></path><path clip-path="url(#clip170)" d="M3295.3 105.246 L3308.67 105.246 L3308.67 59.1058 L3294.12 62.0224 L3294.12 54.5688 L3308.59 51.6521 L3316.77 51.6521 L3316.77 105.246 L3330.14 105.246 L3330.14 112.132 L3295.3 112.132 L3295.3 105.246 Z" fill="#000000" fill-rule="nonzero" fill-opacity="1"></path><path clip-path="url(#clip170)" d="M3364.16 57.0398 Q3357.84 57.0398 3354.64 63.2782 Q3351.48 69.4761 3351.48 81.9529 Q3351.48 94.3892 3354.64 100.628 Q3357.84 106.825 3364.16 106.825 Q3370.52 106.825 3373.68 100.628 Q3376.88 94.3892 3376.88 81.9529 Q3376.88 69.4761 3373.68 63.2782 Q3370.52 57.0398 3364.16 57.0398 M3364.16 50.5584 Q3374.33 50.5584 3379.68 58.6197 Q3385.07 66.6405 3385.07 81.9529 Q3385.07 97.2248 3379.68 105.286 Q3374.33 113.307 3364.16 113.307 Q3354 113.307 3348.61 105.286 Q3343.26 97.2248 3343.26 81.9529 Q3343.26 66.6405 3348.61 58.6197 Q3354 50.5584 3364.16 50.5584 Z" fill="#000000" fill-rule="nonzero" fill-opacity="1"></path><path clip-path="url(#clip170)" d="M3416.95 83.4112 Q3411.11 83.4112 3407.75 86.5304 Q3404.43 89.6496 3404.43 95.1183 Q3404.43 100.587 3407.75 103.706 Q3411.11 106.825 3416.95 106.825 Q3422.78 106.825 3426.14 103.706 Q3429.5 100.547 3429.5 95.1183 Q3429.5 89.6496 3426.14 86.5304 Q3422.82 83.4112 3416.95 83.4112 M3408.76 79.9274 Q3403.5 78.6311 3400.54 75.0258 Q3397.62 71.4205 3397.62 66.2354 Q3397.62 58.9843 3402.77 54.7713 Q3407.95 50.5584 3416.95 50.5584 Q3425.98 50.5584 3431.13 54.7713 Q3436.27 58.9843 3436.27 66.2354 Q3436.27 71.4205 3433.31 75.0258 Q3430.4 78.6311 3425.17 79.9274 Q3431.08 81.3047 3434.37 85.3151 Q3437.69 89.3255 3437.69 95.1183 Q3437.69 103.909 3432.3 108.608 Q3426.95 113.307 3416.95 113.307 Q3406.94 113.307 3401.55 108.608 Q3396.21 103.909 3396.21 95.1183 Q3396.21 89.3255 3399.53 85.3151 Q3402.85 81.3047 3408.76 79.9274 M3405.77 67.0051 Q3405.77 71.7041 3408.68 74.3372 Q3411.64 76.9703 3416.95 76.9703 Q3422.21 76.9703 3425.17 74.3372 Q3428.17 71.7041 3428.17 67.0051 Q3428.17 62.306 3425.17 59.6729 Q3422.21 57.0398 3416.95 57.0398 Q3411.64 57.0398 3408.68 59.6729 Q3405.77 62.306 3405.77 67.0051 Z" fill="#000000" fill-rule="nonzero" fill-opacity="1"></path><path clip-path="url(#clip170)" d="M3840 57.0398 Q3833.68 57.0398 3830.48 63.2782 Q3827.32 69.4761 3827.32 81.9529 Q3827.32 94.3892 3830.48 100.628 Q3833.68 106.825 3840 106.825 Q3846.36 106.825 3849.52 100.628 Q3852.72 94.3892 3852.72 81.9529 Q3852.72 69.4761 3849.52 63.2782 Q3846.36 57.0398 3840 57.0398 M3840 50.5584 Q3850.17 50.5584 3855.51 58.6197 Q3860.9 66.6405 3860.9 81.9529 Q3860.9 97.2248 3855.51 105.286 Q3850.17 113.307 3840 113.307 Q3829.83 113.307 3824.44 105.286 Q3819.1 97.2248 3819.1 81.9529 Q3819.1 66.6405 3824.44 58.6197 Q3829.83 50.5584 3840 50.5584 Z" fill="#000000" fill-rule="nonzero" fill-opacity="1"></path><path clip-path="url(#clip170)" d="M4295.64 79.5223 Q4301.52 80.7781 4304.8 84.748 Q4308.12 88.7179 4308.12 94.5512 Q4308.12 103.504 4301.96 108.405 Q4295.8 113.307 4284.46 113.307 Q4280.65 113.307 4276.6 112.537 Q4272.59 111.808 4268.3 110.309 L4268.3 102.41 Q4271.7 104.395 4275.75 105.408 Q4279.8 106.42 4284.22 106.42 Q4291.92 106.42 4295.93 103.382 Q4299.98 100.344 4299.98 94.5512 Q4299.98 89.204 4296.21 86.2063 Q4292.48 83.1682 4285.8 83.1682 L4278.75 83.1682 L4278.75 76.4437 L4286.12 76.4437 Q4292.16 76.4437 4295.36 74.0536 Q4298.56 71.6231 4298.56 67.0861 Q4298.56 62.4275 4295.24 59.9565 Q4291.96 57.4449 4285.8 57.4449 Q4282.44 57.4449 4278.59 58.1741 Q4274.74 58.9032 4270.12 60.4426 L4270.12 53.151 Q4274.78 51.8547 4278.83 51.2065 Q4282.92 50.5584 4286.53 50.5584 Q4295.85 50.5584 4301.27 54.8118 Q4306.7 59.0248 4306.7 66.2354 Q4306.7 71.2585 4303.83 74.7423 Q4300.95 78.1855 4295.64 79.5223 Z" fill="#000000" fill-rule="nonzero" fill-opacity="1"></path><path clip-path="url(#clip170)" d="M4325.05 105.246 L4338.42 105.246 L4338.42 59.1058 L4323.88 62.0224 L4323.88 54.5688 L4338.34 51.6521 L4346.52 51.6521 L4346.52 105.246 L4359.89 105.246 L4359.89 112.132 L4325.05 112.132 L4325.05 105.246 Z" fill="#000000" fill-rule="nonzero" fill-opacity="1"></path><path clip-path="url(#clip170)" d="M4788.19 57.0398 Q4781.87 57.0398 4778.67 63.2782 Q4775.51 69.4761 4775.51 81.9529 Q4775.51 94.3892 4778.67 100.628 Q4781.87 106.825 4788.19 106.825 Q4794.55 106.825 4797.71 100.628 Q4800.91 94.3892 4800.91 81.9529 Q4800.91 69.4761 4797.71 63.2782 Q4794.55 57.0398 4788.19 57.0398 M4788.19 50.5584 Q4798.36 50.5584 4803.7 58.6197 Q4809.09 66.6405 4809.09 81.9529 Q4809.09 97.2248 4803.7 105.286 Q4798.36 113.307 4788.19 113.307 Q4778.02 113.307 4772.63 105.286 Q4767.29 97.2248 4767.29 81.9529 Q4767.29 66.6405 4772.63 58.6197 Q4778.02 50.5584 4788.19 50.5584 Z" fill="#000000" fill-rule="nonzero" fill-opacity="1"></path><path clip-path="url(#clip170)" d="M5192.39 105.246 L5205.75 105.246 L5205.75 59.1058 L5191.21 62.0224 L5191.21 54.5688 L5205.67 51.6521 L5213.85 51.6521 L5213.85 105.246 L5227.22 105.246 L5227.22 112.132 L5192.39 112.132 L5192.39 105.246 Z" fill="#000000" fill-rule="nonzero" fill-opacity="1"></path><path clip-path="url(#clip170)" d="M5262.26 78.6311 Q5256.75 78.6311 5253.51 82.3985 Q5250.31 86.1658 5250.31 92.7283 Q5250.31 99.2503 5253.51 103.058 Q5256.75 106.825 5262.26 106.825 Q5267.77 106.825 5270.97 103.058 Q5274.21 99.2503 5274.21 92.7283 Q5274.21 86.1658 5270.97 82.3985 Q5267.77 78.6311 5262.26 78.6311 M5278.51 52.9889 L5278.51 60.4426 Q5275.43 58.9843 5272.27 58.2146 Q5269.15 57.4449 5266.07 57.4449 Q5257.97 57.4449 5253.68 62.9136 Q5249.42 68.3824 5248.81 79.4413 Q5251.2 75.917 5254.81 74.0536 Q5258.41 72.1497 5262.75 72.1497 Q5271.86 72.1497 5277.13 77.6994 Q5282.44 83.2087 5282.44 92.7283 Q5282.44 102.045 5276.93 107.676 Q5271.42 113.307 5262.26 113.307 Q5251.77 113.307 5246.22 105.286 Q5240.67 97.2248 5240.67 81.9529 Q5240.67 67.6127 5247.48 59.1058 Q5254.28 50.5584 5265.75 50.5584 Q5268.83 50.5584 5271.94 51.166 Q5275.1 51.7737 5278.51 52.9889 Z" fill="#000000" fill-rule="nonzero" fill-opacity="1"></path><path clip-path="url(#clip170)" d="M5294.47 51.6521 L5333.36 51.6521 L5333.36 55.1359 L5311.4 112.132 L5302.85 112.132 L5323.51 58.5387 L5294.47 58.5387 L5294.47 51.6521 Z" fill="#000000" fill-rule="nonzero" fill-opacity="1"></path><path clip-path="url(#clip170)" d="M5736.38 57.0398 Q5730.06 57.0398 5726.86 63.2782 Q5723.7 69.4761 5723.7 81.9529 Q5723.7 94.3892 5726.86 100.628 Q5730.06 106.825 5736.38 106.825 Q5742.74 106.825 5745.9 100.628 Q5749.1 94.3892 5749.1 81.9529 Q5749.1 69.4761 5745.9 63.2782 Q5742.74 57.0398 5736.38 57.0398 M5736.38 50.5584 Q5746.55 50.5584 5751.89 58.6197 Q5757.28 66.6405 5757.28 81.9529 Q5757.28 97.2248 5751.89 105.286 Q5746.55 113.307 5736.38 113.307 Q5726.21 113.307 5720.82 105.286 Q5715.48 97.2248 5715.48 81.9529 Q5715.48 66.6405 5720.82 58.6197 Q5726.21 50.5584 5736.38 50.5584 Z" fill="#000000" fill-rule="nonzero" fill-opacity="1"></path><path clip-path="url(#clip170)" d="M6140.35 105.246 L6153.72 105.246 L6153.72 59.1058 L6139.18 62.0224 L6139.18 54.5688 L6153.64 51.6521 L6161.82 51.6521 L6161.82 105.246 L6175.19 105.246 L6175.19 112.132 L6140.35 112.132 L6140.35 105.246 Z" fill="#000000" fill-rule="nonzero" fill-opacity="1"></path><path clip-path="url(#clip170)" d="M6209.22 83.4112 Q6203.38 83.4112 6200.02 86.5304 Q6196.7 89.6496 6196.7 95.1183 Q6196.7 100.587 6200.02 103.706 Q6203.38 106.825 6209.22 106.825 Q6215.05 106.825 6218.41 103.706 Q6221.77 100.547 6221.77 95.1183 Q6221.77 89.6496 6218.41 86.5304 Q6215.09 83.4112 6209.22 83.4112 M6201.03 79.9274 Q6195.77 78.6311 6192.81 75.0258 Q6189.89 71.4205 6189.89 66.2354 Q6189.89 58.9843 6195.04 54.7713 Q6200.22 50.5584 6209.22 50.5584 Q6218.25 50.5584 6223.39 54.7713 Q6228.54 58.9843 6228.54 66.2354 Q6228.54 71.4205 6225.58 75.0258 Q6222.67 78.6311 6217.44 79.9274 Q6223.35 81.3047 6226.64 85.3151 Q6229.96 89.3255 6229.96 95.1183 Q6229.96 103.909 6224.57 108.608 Q6219.22 113.307 6209.22 113.307 Q6199.21 113.307 6193.82 108.608 Q6188.48 103.909 6188.48 95.1183 Q6188.48 89.3255 6191.8 85.3151 Q6195.12 81.3047 6201.03 79.9274 M6198.04 67.0051 Q6198.04 71.7041 6200.95 74.3372 Q6203.91 76.9703 6209.22 76.9703 Q6214.48 76.9703 6217.44 74.3372 Q6220.44 71.7041 6220.44 67.0051 Q6220.44 62.306 6217.44 59.6729 Q6214.48 57.0398 6209.22 57.0398 Q6203.91 57.0398 6200.95 59.6729 Q6198.04 62.306 6198.04 67.0051 Z" fill="#000000" fill-rule="nonzero" fill-opacity="1"></path><path clip-path="url(#clip170)" d="M6269.29 79.5223 Q6275.17 80.7781 6278.45 84.748 Q6281.77 88.7179 6281.77 94.5512 Q6281.77 103.504 6275.61 108.405 Q6269.45 113.307 6258.11 113.307 Q6254.3 113.307 6250.25 112.537 Q6246.24 111.808 6241.95 110.309 L6241.95 102.41 Q6245.35 104.395 6249.4 105.408 Q6253.45 106.42 6257.87 106.42 Q6265.56 106.42 6269.58 103.382 Q6273.63 100.344 6273.63 94.5512 Q6273.63 89.204 6269.86 86.2063 Q6266.13 83.1682 6259.45 83.1682 L6252.4 83.1682 L6252.4 76.4437 L6259.77 76.4437 Q6265.81 76.4437 6269.01 74.0536 Q6272.21 71.6231 6272.21 67.0861 Q6272.21 62.4275 6268.89 59.9565 Q6265.61 57.4449 6259.45 57.4449 Q6256.09 57.4449 6252.24 58.1741 Q6248.39 58.9032 6243.77 60.4426 L6243.77 53.151 Q6248.43 51.8547 6252.48 51.2065 Q6256.57 50.5584 6260.18 50.5584 Q6269.49 50.5584 6274.92 54.8118 Q6280.35 59.0248 6280.35 66.2354 Q6280.35 71.2585 6277.47 74.7423 Q6274.6 78.1855 6269.29 79.5223 Z" fill="#000000" fill-rule="nonzero" fill-opacity="1"></path><path clip-path="url(#clip170)" d="M6667.74 105.246 L6681.1 105.246 L6681.1 59.1058 L6666.56 62.0224 L6666.56 54.5688 L6681.02 51.6521 L6689.21 51.6521 L6689.21 105.246 L6702.57 105.246 L6702.57 112.132 L6667.74 112.132 L6667.74 105.246 Z" fill="#000000" fill-rule="nonzero" fill-opacity="1"></path><path clip-path="url(#clip170)" d="M7088.54 105.246 L7101.91 105.246 L7101.91 59.1058 L7087.37 62.0224 L7087.37 54.5688 L7101.83 51.6521 L7110.01 51.6521 L7110.01 105.246 L7123.38 105.246 L7123.38 112.132 L7088.54 112.132 L7088.54 105.246 Z" fill="#000000" fill-rule="nonzero" fill-opacity="1"></path><path clip-path="url(#clip170)" d="M7140.15 110.876 L7140.15 103.423 Q7143.23 104.881 7146.39 105.651 Q7149.55 106.42 7152.59 106.42 Q7160.69 106.42 7164.94 100.992 Q7169.23 95.5234 7169.84 84.4239 Q7167.49 87.9077 7163.89 89.7711 Q7160.28 91.6346 7155.91 91.6346 Q7146.83 91.6346 7141.53 86.1658 Q7136.26 80.6566 7136.26 71.137 Q7136.26 61.8199 7141.77 56.1891 Q7147.28 50.5584 7156.43 50.5584 Q7166.93 50.5584 7172.43 58.6197 Q7177.98 66.6405 7177.98 81.9529 Q7177.98 96.2526 7171.18 104.8 Q7164.41 113.307 7152.95 113.307 Q7149.87 113.307 7146.71 112.699 Q7143.55 112.092 7140.15 110.876 M7156.43 85.2341 Q7161.94 85.2341 7165.14 81.4668 Q7168.38 77.6994 7168.38 71.137 Q7168.38 64.615 7165.14 60.8477 Q7161.94 57.0398 7156.43 57.0398 Q7150.92 57.0398 7147.68 60.8477 Q7144.48 64.615 7144.48 71.137 Q7144.48 77.6994 7147.68 81.4668 Q7150.92 85.2341 7156.43 85.2341 Z" fill="#000000" fill-rule="nonzero" fill-opacity="1"></path><path clip-path="url(#clip170)" d="M7217.48 79.5223 Q7223.35 80.7781 7226.64 84.748 Q7229.96 88.7179 7229.96 94.5512 Q7229.96 103.504 7223.8 108.405 Q7217.64 113.307 7206.3 113.307 Q7202.49 113.307 7198.44 112.537 Q7194.43 111.808 7190.14 110.309 L7190.14 102.41 Q7193.54 104.395 7197.59 105.408 Q7201.64 106.42 7206.06 106.42 Q7213.75 106.42 7217.76 103.382 Q7221.82 100.344 7221.82 94.5512 Q7221.82 89.204 7218.05 86.2063 Q7214.32 83.1682 7207.64 83.1682 L7200.59 83.1682 L7200.59 76.4437 L7207.96 76.4437 Q7214 76.4437 7217.2 74.0536 Q7220.4 71.6231 7220.4 67.0861 Q7220.4 62.4275 7217.08 59.9565 Q7213.79 57.4449 7207.64 57.4449 Q7204.27 57.4449 7200.43 58.1741 Q7196.58 58.9032 7191.96 60.4426 L7191.96 53.151 Q7196.62 51.8547 7200.67 51.2065 Q7204.76 50.5584 7208.37 50.5584 Q7217.68 50.5584 7223.11 54.8118 Q7228.54 59.0248 7228.54 66.2354 Q7228.54 71.2585 7225.66 74.7423 Q7222.79 78.1855 7217.48 79.5223 Z" fill="#000000" fill-rule="nonzero" fill-opacity="1"></path><path clip-path="url(#clip170)" d="M300.094 234.601 L1429.71 234.601 L1429.71 130.921 L300.094 130.921  Z" fill="#000000" fill-rule="evenodd" fill-opacity="0"></path>
<polyline clip-path="url(#clip170)" style="stroke:#000000; stroke-linecap:round; stroke-linejoin:round; stroke-width:4; stroke-opacity:0; fill:none" points="300.094,234.601 1429.71,234.601 1429.71,130.921 300.094,130.921 300.094,234.601 "></polyline>
<path clip-path="url(#clip170)" d="M384.378 203.497 L890.079 203.497 L890.079 162.025 L384.378 162.025 L384.378 203.497  Z" fill="#add8e6" fill-rule="evenodd" fill-opacity="1"></path>
<polyline clip-path="url(#clip170)" style="stroke:#add8e6; stroke-linecap:round; stroke-linejoin:round; stroke-width:4; stroke-opacity:1; fill:none" points="384.378,203.497 890.079,203.497 890.079,162.025 384.378,162.025 384.378,203.497 "></polyline>
<path clip-path="url(#clip170)" d="M974.362 165.481 L994.223 165.481 L994.223 169.416 L979.038 169.416 L979.038 179.601 L992.742 179.601 L992.742 183.536 L979.038 183.536 L979.038 200.041 L974.362 200.041 L974.362 165.481 Z" fill="#000000" fill-rule="nonzero" fill-opacity="1"></path><path clip-path="url(#clip170)" d="M1009.8 177.101 Q1006.38 177.101 1004.39 179.786 Q1002.39 182.448 1002.39 187.101 Q1002.39 191.754 1004.36 194.439 Q1006.35 197.101 1009.8 197.101 Q1013.2 197.101 1015.2 194.416 Q1017.19 191.731 1017.19 187.101 Q1017.19 182.495 1015.2 179.81 Q1013.2 177.101 1009.8 177.101 M1009.8 173.49 Q1015.36 173.49 1018.53 177.101 Q1021.7 180.712 1021.7 187.101 Q1021.7 193.467 1018.53 197.101 Q1015.36 200.712 1009.8 200.712 Q1004.22 200.712 1001.05 197.101 Q997.904 193.467 997.904 187.101 Q997.904 180.712 1001.05 177.101 Q1004.22 173.49 1009.8 173.49 Z" fill="#000000" fill-rule="nonzero" fill-opacity="1"></path><path clip-path="url(#clip170)" d="M1028.32 189.809 L1028.32 174.115 L1032.58 174.115 L1032.58 189.647 Q1032.58 193.328 1034.01 195.18 Q1035.45 197.009 1038.32 197.009 Q1041.77 197.009 1043.76 194.809 Q1045.77 192.61 1045.77 188.814 L1045.77 174.115 L1050.03 174.115 L1050.03 200.041 L1045.77 200.041 L1045.77 196.059 Q1044.22 198.421 1042.16 199.578 Q1040.13 200.712 1037.42 200.712 Q1032.95 200.712 1030.64 197.934 Q1028.32 195.157 1028.32 189.809 M1039.04 173.49 L1039.04 173.49 Z" fill="#000000" fill-rule="nonzero" fill-opacity="1"></path><path clip-path="url(#clip170)" d="M1080.36 184.393 L1080.36 200.041 L1076.1 200.041 L1076.1 184.532 Q1076.1 180.851 1074.66 179.023 Q1073.23 177.194 1070.36 177.194 Q1066.91 177.194 1064.92 179.393 Q1062.93 181.592 1062.93 185.388 L1062.93 200.041 L1058.64 200.041 L1058.64 174.115 L1062.93 174.115 L1062.93 178.143 Q1064.45 175.805 1066.51 174.648 Q1068.6 173.49 1071.31 173.49 Q1075.77 173.49 1078.07 176.268 Q1080.36 179.023 1080.36 184.393 Z" fill="#000000" fill-rule="nonzero" fill-opacity="1"></path><path clip-path="url(#clip170)" d="M1105.91 178.05 L1105.91 164.023 L1110.17 164.023 L1110.17 200.041 L1105.91 200.041 L1105.91 196.152 Q1104.57 198.467 1102.51 199.601 Q1100.47 200.712 1097.6 200.712 Q1092.9 200.712 1089.94 196.962 Q1087 193.212 1087 187.101 Q1087 180.99 1089.94 177.24 Q1092.9 173.49 1097.6 173.49 Q1100.47 173.49 1102.51 174.624 Q1104.57 175.735 1105.91 178.05 M1091.4 187.101 Q1091.4 191.8 1093.32 194.485 Q1095.26 197.147 1098.64 197.147 Q1102.02 197.147 1103.97 194.485 Q1105.91 191.8 1105.91 187.101 Q1105.91 182.402 1103.97 179.74 Q1102.02 177.055 1098.64 177.055 Q1095.26 177.055 1093.32 179.74 Q1091.4 182.402 1091.4 187.101 Z" fill="#000000" fill-rule="nonzero" fill-opacity="1"></path><path clip-path="url(#clip170)" d="M1134.01 174.115 L1138.27 174.115 L1138.27 200.041 L1134.01 200.041 L1134.01 174.115 M1134.01 164.023 L1138.27 164.023 L1138.27 169.416 L1134.01 169.416 L1134.01 164.023 Z" fill="#000000" fill-rule="nonzero" fill-opacity="1"></path><path clip-path="url(#clip170)" d="M1168.74 184.393 L1168.74 200.041 L1164.48 200.041 L1164.48 184.532 Q1164.48 180.851 1163.04 179.023 Q1161.61 177.194 1158.74 177.194 Q1155.29 177.194 1153.3 179.393 Q1151.31 181.592 1151.31 185.388 L1151.31 200.041 L1147.02 200.041 L1147.02 174.115 L1151.31 174.115 L1151.31 178.143 Q1152.83 175.805 1154.89 174.648 Q1156.98 173.49 1159.69 173.49 Q1164.15 173.49 1166.44 176.268 Q1168.74 179.023 1168.74 184.393 Z" fill="#000000" fill-rule="nonzero" fill-opacity="1"></path><path clip-path="url(#clip170)" d="M1212.07 179.185 L1205.33 179.185 L1203.39 186.916 L1210.17 186.916 L1212.07 179.185 M1208.6 166.013 L1206.19 175.62 L1212.95 175.62 L1215.38 166.013 L1219.08 166.013 L1216.7 175.62 L1223.92 175.62 L1223.92 179.185 L1215.8 179.185 L1213.9 186.916 L1221.26 186.916 L1221.26 190.458 L1213 190.458 L1210.59 200.041 L1206.88 200.041 L1209.27 190.458 L1202.49 190.458 L1200.1 200.041 L1196.37 200.041 L1198.78 190.458 L1191.49 190.458 L1191.49 186.916 L1199.64 186.916 L1201.58 179.185 L1194.13 179.185 L1194.13 175.62 L1202.49 175.62 L1204.85 166.013 L1208.6 166.013 Z" fill="#000000" fill-rule="nonzero" fill-opacity="1"></path><path clip-path="url(#clip170)" d="M1251.31 166.754 L1251.31 174.115 L1260.08 174.115 L1260.08 177.425 L1251.31 177.425 L1251.31 191.499 Q1251.31 194.671 1252.16 195.573 Q1253.04 196.476 1255.7 196.476 L1260.08 196.476 L1260.08 200.041 L1255.7 200.041 Q1250.77 200.041 1248.9 198.212 Q1247.02 196.36 1247.02 191.499 L1247.02 177.425 L1243.9 177.425 L1243.9 174.115 L1247.02 174.115 L1247.02 166.754 L1251.31 166.754 Z" fill="#000000" fill-rule="nonzero" fill-opacity="1"></path><path clip-path="url(#clip170)" d="M1280.7 178.097 Q1279.99 177.68 1279.13 177.495 Q1278.3 177.286 1277.28 177.286 Q1273.67 177.286 1271.72 179.648 Q1269.8 181.985 1269.8 186.384 L1269.8 200.041 L1265.52 200.041 L1265.52 174.115 L1269.8 174.115 L1269.8 178.143 Q1271.14 175.782 1273.3 174.648 Q1275.45 173.49 1278.53 173.49 Q1278.97 173.49 1279.5 173.56 Q1280.03 173.606 1280.68 173.722 L1280.7 178.097 Z" fill="#000000" fill-rule="nonzero" fill-opacity="1"></path><path clip-path="url(#clip170)" d="M1285.17 174.115 L1289.43 174.115 L1289.43 200.041 L1285.17 200.041 L1285.17 174.115 M1285.17 164.023 L1289.43 164.023 L1289.43 169.416 L1285.17 169.416 L1285.17 164.023 Z" fill="#000000" fill-rule="nonzero" fill-opacity="1"></path><path clip-path="url(#clip170)" d="M1320.52 186.013 L1320.52 188.097 L1300.93 188.097 Q1301.21 192.495 1303.57 194.809 Q1305.96 197.101 1310.19 197.101 Q1312.65 197.101 1314.94 196.499 Q1317.25 195.897 1319.52 194.694 L1319.52 198.721 Q1317.23 199.694 1314.82 200.203 Q1312.42 200.712 1309.94 200.712 Q1303.74 200.712 1300.1 197.101 Q1296.49 193.49 1296.49 187.333 Q1296.49 180.967 1299.92 177.24 Q1303.37 173.49 1309.2 173.49 Q1314.43 173.49 1317.46 176.87 Q1320.52 180.226 1320.52 186.013 M1316.26 184.763 Q1316.21 181.268 1314.29 179.185 Q1312.39 177.101 1309.24 177.101 Q1305.68 177.101 1303.53 179.115 Q1301.4 181.129 1301.07 184.786 L1316.26 184.763 Z" fill="#000000" fill-rule="nonzero" fill-opacity="1"></path><path clip-path="url(#clip170)" d="M1344.04 174.879 L1344.04 178.907 Q1342.23 177.981 1340.29 177.518 Q1338.34 177.055 1336.26 177.055 Q1333.09 177.055 1331.49 178.027 Q1329.92 178.999 1329.92 180.944 Q1329.92 182.425 1331.05 183.282 Q1332.18 184.115 1335.61 184.879 L1337.07 185.203 Q1341.61 186.175 1343.5 187.958 Q1345.43 189.717 1345.43 192.888 Q1345.43 196.499 1342.55 198.606 Q1339.71 200.712 1334.71 200.712 Q1332.62 200.712 1330.36 200.296 Q1328.11 199.902 1325.61 199.092 L1325.61 194.694 Q1327.97 195.921 1330.26 196.546 Q1332.55 197.147 1334.8 197.147 Q1337.81 197.147 1339.43 196.129 Q1341.05 195.087 1341.05 193.212 Q1341.05 191.476 1339.87 190.55 Q1338.71 189.624 1334.75 188.768 L1333.27 188.421 Q1329.31 187.587 1327.55 185.874 Q1325.8 184.138 1325.8 181.129 Q1325.8 177.472 1328.39 175.481 Q1330.98 173.49 1335.75 173.49 Q1338.11 173.49 1340.19 173.837 Q1342.28 174.185 1344.04 174.879 Z" fill="#000000" fill-rule="nonzero" fill-opacity="1"></path></svg>