<svg xmlns="http://www.w3.org/2000/svg" xmlns:xlink="http://www.w3.org/1999/xlink" width="1920" height="400" viewBox="0 0 7680 1600">
<defs>
  <clipPath id="clip830">
    <rect x="0" y="0" width="7680" height="1600"></rect>
  </clipPath>
</defs>
<path clip-path="url(#clip830)" d="M0 1600 L7680 1600 L7680 0 L0 0  Z" fill="#ffffff" fill-rule="evenodd" fill-opacity="1"></path>
<defs>
  <clipPath id="clip831">
    <rect x="1536" y="0" width="5377" height="1600"></rect>
  </clipPath>
</defs>
<path clip-path="url(#clip830)" d="M47.2441 1552.76 L7632.76 1552.76 L7632.76 81.8921 L47.2441 81.8921  Z" fill="#ffffff" fill-rule="evenodd" fill-opacity="1"></path>
<defs>
  <clipPath id="clip832">
    <rect x="47" y="81" width="7587" height="1472"></rect>
  </clipPath>
</defs>
<path clip-path="url(#clip830)" d="M3632.41 12.096 L3640.59 12.096 L3640.59 36.8875 L3670.33 36.8875 L3670.33 12.096 L3678.51 12.096 L3678.51 72.576 L3670.33 72.576 L3670.33 43.7741 L3640.59 43.7741 L3640.59 72.576 L3632.41 72.576 L3632.41 12.096 Z" fill="#000000" fill-rule="nonzero" fill-opacity="1"></path><path clip-path="url(#clip830)" d="M3694.47 27.2059 L3701.92 27.2059 L3701.92 72.576 L3694.47 72.576 L3694.47 27.2059 M3694.47 9.54393 L3701.92 9.54393 L3701.92 18.9825 L3694.47 18.9825 L3694.47 9.54393 Z" fill="#000000" fill-rule="nonzero" fill-opacity="1"></path><path clip-path="url(#clip830)" d="M3746.44 28.5427 L3746.44 35.5912 Q3743.28 33.9709 3739.88 33.1607 Q3736.48 32.3505 3732.83 32.3505 Q3727.28 32.3505 3724.49 34.0519 Q3721.73 35.7533 3721.73 39.156 Q3721.73 41.7486 3723.72 43.2475 Q3725.7 44.7058 3731.7 46.0426 L3734.25 46.6097 Q3742.19 48.3111 3745.51 51.4303 Q3748.87 54.509 3748.87 60.0587 Q3748.87 66.3781 3743.85 70.0644 Q3738.87 73.7508 3730.12 73.7508 Q3726.47 73.7508 3722.5 73.0216 Q3718.57 72.3329 3714.2 70.9151 L3714.2 63.2184 Q3718.33 65.3654 3722.34 66.4591 Q3726.35 67.5124 3730.28 67.5124 Q3735.55 67.5124 3738.38 65.73 Q3741.22 63.9071 3741.22 60.6258 Q3741.22 57.5877 3739.15 55.9673 Q3737.13 54.3469 3730.2 52.8481 L3727.61 52.2405 Q3720.68 50.7821 3717.6 47.7845 Q3714.52 44.7463 3714.52 39.4801 Q3714.52 33.0797 3719.06 29.5959 Q3723.6 26.1121 3731.94 26.1121 Q3736.07 26.1121 3739.72 26.7198 Q3743.37 27.3274 3746.44 28.5427 Z" fill="#000000" fill-rule="nonzero" fill-opacity="1"></path><path clip-path="url(#clip830)" d="M3768.12 14.324 L3768.12 27.2059 L3783.47 27.2059 L3783.47 32.9987 L3768.12 32.9987 L3768.12 57.6282 Q3768.12 63.1779 3769.62 64.7578 Q3771.15 66.3376 3775.81 66.3376 L3783.47 66.3376 L3783.47 72.576 L3775.81 72.576 Q3767.18 72.576 3763.9 69.3758 Q3760.62 66.1351 3760.62 57.6282 L3760.62 32.9987 L3755.15 32.9987 L3755.15 27.2059 L3760.62 27.2059 L3760.62 14.324 L3768.12 14.324 Z" fill="#000000" fill-rule="nonzero" fill-opacity="1"></path><path clip-path="url(#clip830)" d="M3810.85 32.4315 Q3804.86 32.4315 3801.37 37.1306 Q3797.89 41.7891 3797.89 49.9314 Q3797.89 58.0738 3801.33 62.7728 Q3804.82 67.4314 3810.85 67.4314 Q3816.81 67.4314 3820.29 62.7323 Q3823.78 58.0333 3823.78 49.9314 Q3823.78 41.8701 3820.29 37.1711 Q3816.81 32.4315 3810.85 32.4315 M3810.85 26.1121 Q3820.58 26.1121 3826.13 32.4315 Q3831.68 38.7509 3831.68 49.9314 Q3831.68 61.0714 3826.13 67.4314 Q3820.58 73.7508 3810.85 73.7508 Q3801.09 73.7508 3795.54 67.4314 Q3790.03 61.0714 3790.03 49.9314 Q3790.03 38.7509 3795.54 32.4315 Q3801.09 26.1121 3810.85 26.1121 Z" fill="#000000" fill-rule="nonzero" fill-opacity="1"></path><path clip-path="url(#clip830)" d="M3873.89 49.3643 Q3873.89 41.2625 3870.52 36.8065 Q3867.2 32.3505 3861.17 32.3505 Q3855.17 32.3505 3851.81 36.8065 Q3848.49 41.2625 3848.49 49.3643 Q3848.49 57.4256 3851.81 61.8816 Q3855.17 66.3376 3861.17 66.3376 Q3867.2 66.3376 3870.52 61.8816 Q3873.89 57.4256 3873.89 49.3643 M3881.34 66.9452 Q3881.34 78.5308 3876.19 84.1616 Q3871.05 89.8329 3860.44 89.8329 Q3856.51 89.8329 3853.02 89.2252 Q3849.54 88.6581 3846.26 87.4428 L3846.26 80.1917 Q3849.54 81.9741 3852.74 82.8248 Q3855.94 83.6755 3859.26 83.6755 Q3866.59 83.6755 3870.24 79.8271 Q3873.89 76.0193 3873.89 68.282 L3873.89 64.5957 Q3871.58 68.6061 3867.97 70.5911 Q3864.37 72.576 3859.34 72.576 Q3851 72.576 3845.89 66.2161 Q3840.79 59.8562 3840.79 49.3643 Q3840.79 38.832 3845.89 32.472 Q3851 26.1121 3859.34 26.1121 Q3864.37 26.1121 3867.97 28.0971 Q3871.58 30.082 3873.89 34.0924 L3873.89 27.2059 L3881.34 27.2059 L3881.34 66.9452 Z" fill="#000000" fill-rule="nonzero" fill-opacity="1"></path><path clip-path="url(#clip830)" d="M3922.98 34.1734 Q3921.73 33.4443 3920.23 33.1202 Q3918.77 32.7556 3916.99 32.7556 Q3910.67 32.7556 3907.27 36.8875 Q3903.9 40.9789 3903.9 48.6757 L3903.9 72.576 L3896.41 72.576 L3896.41 27.2059 L3903.9 27.2059 L3903.9 34.2544 Q3906.25 30.1225 3910.02 28.1376 Q3913.79 26.1121 3919.17 26.1121 Q3919.94 26.1121 3920.88 26.2337 Q3921.81 26.3147 3922.94 26.5172 L3922.98 34.1734 Z" fill="#000000" fill-rule="nonzero" fill-opacity="1"></path><path clip-path="url(#clip830)" d="M3951.42 49.7694 Q3942.39 49.7694 3938.9 51.8354 Q3935.42 53.9013 3935.42 58.8839 Q3935.42 62.8538 3938.01 65.2034 Q3940.64 67.5124 3945.14 67.5124 Q3951.34 67.5124 3955.07 63.1374 Q3958.83 58.7219 3958.83 51.4303 L3958.83 49.7694 L3951.42 49.7694 M3966.29 46.6907 L3966.29 72.576 L3958.83 72.576 L3958.83 65.6895 Q3956.28 69.8214 3952.47 71.8063 Q3948.67 73.7508 3943.16 73.7508 Q3936.19 73.7508 3932.06 69.8619 Q3927.97 65.9325 3927.97 59.3701 Q3927.97 51.7138 3933.07 47.825 Q3938.21 43.9361 3948.38 43.9361 L3958.83 43.9361 L3958.83 43.2069 Q3958.83 38.0623 3955.43 35.2672 Q3952.07 32.4315 3945.95 32.4315 Q3942.06 32.4315 3938.38 33.3632 Q3934.69 34.295 3931.29 36.1584 L3931.29 29.2718 Q3935.38 27.692 3939.23 26.9223 Q3943.08 26.1121 3946.72 26.1121 Q3956.56 26.1121 3961.43 31.2163 Q3966.29 36.3204 3966.29 46.6907 Z" fill="#000000" fill-rule="nonzero" fill-opacity="1"></path><path clip-path="url(#clip830)" d="M4016.96 35.9153 Q4019.76 30.8922 4023.65 28.5022 Q4027.54 26.1121 4032.8 26.1121 Q4039.89 26.1121 4043.74 31.0947 Q4047.59 36.0368 4047.59 45.1919 L4047.59 72.576 L4040.09 72.576 L4040.09 45.4349 Q4040.09 38.913 4037.79 35.7533 Q4035.48 32.5936 4030.74 32.5936 Q4024.94 32.5936 4021.58 36.4419 Q4018.22 40.2903 4018.22 46.9338 L4018.22 72.576 L4010.73 72.576 L4010.73 45.4349 Q4010.73 38.8725 4008.42 35.7533 Q4006.11 32.5936 4001.29 32.5936 Q3995.57 32.5936 3992.21 36.4824 Q3988.85 40.3308 3988.85 46.9338 L3988.85 72.576 L3981.36 72.576 L3981.36 27.2059 L3988.85 27.2059 L3988.85 34.2544 Q3991.4 30.082 3994.97 28.0971 Q3998.53 26.1121 4003.43 26.1121 Q4008.38 26.1121 4011.82 28.6237 Q4015.3 31.1352 4016.96 35.9153 Z" fill="#000000" fill-rule="nonzero" fill-opacity="1"></path><path clip-path="url(#clip832)" d="M94.6535 287.607 L94.6535 1552.76 L473.929 1552.76 L473.929 287.607 L94.6535 287.607 L94.6535 287.607  Z" fill="#add8e6" fill-rule="evenodd" fill-opacity="1"></path>
<polyline clip-path="url(#clip832)" style="stroke:#add8e6; stroke-linecap:round; stroke-linejoin:round; stroke-width:4; stroke-opacity:1; fill:none" points="94.6535,287.607 94.6535,1552.76 473.929,1552.76 473.929,287.607 94.6535,287.607 "></polyline>
<path clip-path="url(#clip832)" d="M568.748 1552.76 L568.748 1552.76 L948.024 1552.76 L948.024 1552.76 L568.748 1552.76 L568.748 1552.76  Z" fill="#ff0000" fill-rule="evenodd" fill-opacity="1"></path>
<polyline clip-path="url(#clip832)" style="stroke:#add8e6; stroke-linecap:round; stroke-linejoin:round; stroke-width:4; stroke-opacity:1; fill:none" points="568.748,1552.76 568.748,1552.76 948.024,1552.76 568.748,1552.76 "></polyline>
<path clip-path="url(#clip832)" d="M1042.84 1552.76 L1042.84 1552.76 L1422.12 1552.76 L1422.12 1552.76 L1042.84 1552.76 L1042.84 1552.76  Z" fill="#add8e6" fill-rule="evenodd" fill-opacity="1"></path>
<polyline clip-path="url(#clip832)" style="stroke:#add8e6; stroke-linecap:round; stroke-linejoin:round; stroke-width:4; stroke-opacity:1; fill:none" points="1042.84,1552.76 1042.84,1552.76 1422.12,1552.76 1042.84,1552.76 "></polyline>
<path clip-path="url(#clip832)" d="M1516.94 81.8921 L1516.94 1552.76 L1896.21 1552.76 L1896.21 81.8921 L1516.94 81.8921 L1516.94 81.8921  Z" fill="#ff0000" fill-rule="evenodd" fill-opacity="1"></path>
<polyline clip-path="url(#clip832)" style="stroke:#add8e6; stroke-linecap:round; stroke-linejoin:round; stroke-width:4; stroke-opacity:1; fill:none" points="1516.94,81.8921 1516.94,1552.76 1896.21,1552.76 1896.21,81.8921 1516.94,81.8921 "></polyline>
<path clip-path="url(#clip832)" d="M1991.03 925.325 L1991.03 1552.76 L2370.31 1552.76 L2370.31 925.325 L1991.03 925.325 L1991.03 925.325  Z" fill="#add8e6" fill-rule="evenodd" fill-opacity="1"></path>
<polyline clip-path="url(#clip832)" style="stroke:#add8e6; stroke-linecap:round; stroke-linejoin:round; stroke-width:4; stroke-opacity:1; fill:none" points="1991.03,925.325 1991.03,1552.76 2370.31,1552.76 2370.31,925.325 1991.03,925.325 "></polyline>
<path clip-path="url(#clip832)" d="M2465.13 976.753 L2465.13 1552.76 L2844.4 1552.76 L2844.4 976.753 L2465.13 976.753 L2465.13 976.753  Z" fill="#ff0000" fill-rule="evenodd" fill-opacity="1"></path>
<polyline clip-path="url(#clip832)" style="stroke:#add8e6; stroke-linecap:round; stroke-linejoin:round; stroke-width:4; stroke-opacity:1; fill:none" points="2465.13,976.753 2465.13,1552.76 2844.4,1552.76 2844.4,976.753 2465.13,976.753 "></polyline>
<path clip-path="url(#clip832)" d="M2939.22 1059.04 L2939.22 1552.76 L3318.5 1552.76 L3318.5 1059.04 L2939.22 1059.04 L2939.22 1059.04  Z" fill="#add8e6" fill-rule="evenodd" fill-opacity="1"></path>
<polyline clip-path="url(#clip832)" style="stroke:#add8e6; stroke-linecap:round; stroke-linejoin:round; stroke-width:4; stroke-opacity:1; fill:none" points="2939.22,1059.04 2939.22,1552.76 3318.5,1552.76 3318.5,1059.04 2939.22,1059.04 "></polyline>
<path clip-path="url(#clip832)" d="M3413.31 801.895 L3413.31 1552.76 L3792.59 1552.76 L3792.59 801.895 L3413.31 801.895 L3413.31 801.895  Z" fill="#ff0000" fill-rule="evenodd" fill-opacity="1"></path>
<polyline clip-path="url(#clip832)" style="stroke:#add8e6; stroke-linecap:round; stroke-linejoin:round; stroke-width:4; stroke-opacity:1; fill:none" points="3413.31,801.895 3413.31,1552.76 3792.59,1552.76 3792.59,801.895 3413.31,801.895 "></polyline>
<path clip-path="url(#clip832)" d="M3887.41 462.465 L3887.41 1552.76 L4266.69 1552.76 L4266.69 462.465 L3887.41 462.465 L3887.41 462.465  Z" fill="#add8e6" fill-rule="evenodd" fill-opacity="1"></path>
<polyline clip-path="url(#clip832)" style="stroke:#add8e6; stroke-linecap:round; stroke-linejoin:round; stroke-width:4; stroke-opacity:1; fill:none" points="3887.41,462.465 3887.41,1552.76 4266.69,1552.76 4266.69,462.465 3887.41,462.465 "></polyline>
<path clip-path="url(#clip832)" d="M4361.5 1429.33 L4361.5 1552.76 L4740.78 1552.76 L4740.78 1429.33 L4361.5 1429.33 L4361.5 1429.33  Z" fill="#ff0000" fill-rule="evenodd" fill-opacity="1"></path>
<polyline clip-path="url(#clip832)" style="stroke:#add8e6; stroke-linecap:round; stroke-linejoin:round; stroke-width:4; stroke-opacity:1; fill:none" points="4361.5,1429.33 4361.5,1552.76 4740.78,1552.76 4740.78,1429.33 4361.5,1429.33 "></polyline>
<path clip-path="url(#clip832)" d="M4835.6 1398.47 L4835.6 1552.76 L5214.87 1552.76 L5214.87 1398.47 L4835.6 1398.47 L4835.6 1398.47  Z" fill="#add8e6" fill-rule="evenodd" fill-opacity="1"></path>
<polyline clip-path="url(#clip832)" style="stroke:#add8e6; stroke-linecap:round; stroke-linejoin:round; stroke-width:4; stroke-opacity:1; fill:none" points="4835.6,1398.47 4835.6,1552.76 5214.87,1552.76 5214.87,1398.47 4835.6,1398.47 "></polyline>
<path clip-path="url(#clip832)" d="M5309.69 472.751 L5309.69 1552.76 L5688.97 1552.76 L5688.97 472.751 L5309.69 472.751 L5309.69 472.751  Z" fill="#ff0000" fill-rule="evenodd" fill-opacity="1"></path>
<polyline clip-path="url(#clip832)" style="stroke:#add8e6; stroke-linecap:round; stroke-linejoin:round; stroke-width:4; stroke-opacity:1; fill:none" points="5309.69,472.751 5309.69,1552.76 5688.97,1552.76 5688.97,472.751 5309.69,472.751 "></polyline>
<path clip-path="url(#clip832)" d="M5783.79 1357.33 L5783.79 1552.76 L6163.06 1552.76 L6163.06 1357.33 L5783.79 1357.33 L5783.79 1357.33  Z" fill="#add8e6" fill-rule="evenodd" fill-opacity="1"></path>
<polyline clip-path="url(#clip832)" style="stroke:#add8e6; stroke-linecap:round; stroke-linejoin:round; stroke-width:4; stroke-opacity:1; fill:none" points="5783.79,1357.33 5783.79,1552.76 6163.06,1552.76 6163.06,1357.33 5783.79,1357.33 "></polyline>
<path clip-path="url(#clip832)" d="M6257.88 555.037 L6257.88 1552.76 L6637.16 1552.76 L6637.16 555.037 L6257.88 555.037 L6257.88 555.037  Z" fill="#ff0000" fill-rule="evenodd" fill-opacity="1"></path>
<polyline clip-path="url(#clip832)" style="stroke:#add8e6; stroke-linecap:round; stroke-linejoin:round; stroke-width:4; stroke-opacity:1; fill:none" points="6257.88,555.037 6257.88,1552.76 6637.16,1552.76 6637.16,555.037 6257.88,555.037 "></polyline>
<path clip-path="url(#clip832)" d="M6731.98 1295.61 L6731.98 1552.76 L7111.25 1552.76 L7111.25 1295.61 L6731.98 1295.61 L6731.98 1295.61  Z" fill="#add8e6" fill-rule="evenodd" fill-opacity="1"></path>
<polyline clip-path="url(#clip832)" style="stroke:#add8e6; stroke-linecap:round; stroke-linejoin:round; stroke-width:4; stroke-opacity:1; fill:none" points="6731.98,1295.61 6731.98,1552.76 7111.25,1552.76 7111.25,1295.61 6731.98,1295.61 "></polyline>
<path clip-path="url(#clip832)" d="M7206.07 349.322 L7206.07 1552.76 L7585.35 1552.76 L7585.35 349.322 L7206.07 349.322 L7206.07 349.322  Z" fill="#ff0000" fill-rule="evenodd" fill-opacity="1"></path>
<polyline clip-path="url(#clip832)" style="stroke:#add8e6; stroke-linecap:round; stroke-linejoin:round; stroke-width:4; stroke-opacity:1; fill:none" points="7206.07,349.322 7206.07,1552.76 7585.35,1552.76 7585.35,349.322 7206.07,349.322 "></polyline>
<circle clip-path="url(#clip832)" style="fill:#add8e6; stroke:none; fill-opacity:0" cx="284.291" cy="287.607" r="2"></circle>
<circle clip-path="url(#clip832)" style="fill:#ff0000; stroke:none; fill-opacity:0" cx="758.386" cy="1552.76" r="2"></circle>
<circle clip-path="url(#clip832)" style="fill:#add8e6; stroke:none; fill-opacity:0" cx="1232.48" cy="1552.76" r="2"></circle>
<circle clip-path="url(#clip832)" style="fill:#ff0000; stroke:none; fill-opacity:0" cx="1706.57" cy="81.8921" r="2"></circle>
<circle clip-path="url(#clip832)" style="fill:#add8e6; stroke:none; fill-opacity:0" cx="2180.67" cy="925.325" r="2"></circle>
<circle clip-path="url(#clip832)" style="fill:#ff0000; stroke:none; fill-opacity:0" cx="2654.76" cy="976.753" r="2"></circle>
<circle clip-path="url(#clip832)" style="fill:#add8e6; stroke:none; fill-opacity:0" cx="3128.86" cy="1059.04" r="2"></circle>
<circle clip-path="url(#clip832)" style="fill:#ff0000; stroke:none; fill-opacity:0" cx="3602.95" cy="801.895" r="2"></circle>
<circle clip-path="url(#clip832)" style="fill:#add8e6; stroke:none; fill-opacity:0" cx="4077.05" cy="462.465" r="2"></circle>
<circle clip-path="url(#clip832)" style="fill:#ff0000; stroke:none; fill-opacity:0" cx="4551.14" cy="1429.33" r="2"></circle>
<circle clip-path="url(#clip832)" style="fill:#add8e6; stroke:none; fill-opacity:0" cx="5025.24" cy="1398.47" r="2"></circle>
<circle clip-path="url(#clip832)" style="fill:#ff0000; stroke:none; fill-opacity:0" cx="5499.33" cy="472.751" r="2"></circle>
<circle clip-path="url(#clip832)" style="fill:#add8e6; stroke:none; fill-opacity:0" cx="5973.43" cy="1357.33" r="2"></circle>
<circle clip-path="url(#clip832)" style="fill:#ff0000; stroke:none; fill-opacity:0" cx="6447.52" cy="555.037" r="2"></circle>
<circle clip-path="url(#clip832)" style="fill:#add8e6; stroke:none; fill-opacity:0" cx="6921.61" cy="1295.61" r="2"></circle>
<circle clip-path="url(#clip832)" style="fill:#ff0000; stroke:none; fill-opacity:0" cx="7395.71" cy="349.322" r="2"></circle>
<circle clip-path="url(#clip832)" style="fill:#e26f46; stroke:none; fill-opacity:1" cx="284.291" cy="1542.47" r="2"></circle>
<circle clip-path="url(#clip832)" style="fill:#e26f46; stroke:none; fill-opacity:1" cx="758.386" cy="1542.47" r="2"></circle>
<circle clip-path="url(#clip832)" style="fill:#e26f46; stroke:none; fill-opacity:1" cx="1232.48" cy="1542.47" r="2"></circle>
<circle clip-path="url(#clip832)" style="fill:#e26f46; stroke:none; fill-opacity:1" cx="1706.57" cy="1542.47" r="2"></circle>
<circle clip-path="url(#clip832)" style="fill:#e26f46; stroke:none; fill-opacity:1" cx="2180.67" cy="1542.47" r="2"></circle>
<circle clip-path="url(#clip832)" style="fill:#e26f46; stroke:none; fill-opacity:1" cx="2654.76" cy="1542.47" r="2"></circle>
<circle clip-path="url(#clip832)" style="fill:#e26f46; stroke:none; fill-opacity:1" cx="3128.86" cy="1542.47" r="2"></circle>
<circle clip-path="url(#clip832)" style="fill:#e26f46; stroke:none; fill-opacity:1" cx="3602.95" cy="1542.47" r="2"></circle>
<circle clip-path="url(#clip832)" style="fill:#e26f46; stroke:none; fill-opacity:1" cx="4077.05" cy="1542.47" r="2"></circle>
<circle clip-path="url(#clip832)" style="fill:#e26f46; stroke:none; fill-opacity:1" cx="4551.14" cy="1542.47" r="2"></circle>
<circle clip-path="url(#clip832)" style="fill:#e26f46; stroke:none; fill-opacity:1" cx="5025.24" cy="1542.47" r="2"></circle>
<circle clip-path="url(#clip832)" style="fill:#e26f46; stroke:none; fill-opacity:1" cx="5499.33" cy="1542.47" r="2"></circle>
<circle clip-path="url(#clip832)" style="fill:#e26f46; stroke:none; fill-opacity:1" cx="5973.43" cy="1542.47" r="2"></circle>
<circle clip-path="url(#clip832)" style="fill:#e26f46; stroke:none; fill-opacity:1" cx="6447.52" cy="1542.47" r="2"></circle>
<circle clip-path="url(#clip832)" style="fill:#e26f46; stroke:none; fill-opacity:1" cx="6921.61" cy="1542.47" r="2"></circle>
<circle clip-path="url(#clip832)" style="fill:#e26f46; stroke:none; fill-opacity:1" cx="7395.71" cy="1542.47" r="2"></circle>
<path clip-path="url(#clip830)" d="M164.425 1509.31 L164.425 1592.28 L157.539 1592.28 L157.539 1509.31 L164.425 1509.31 Z" fill="#000000" fill-rule="nonzero" fill-opacity="1"></path><path clip-path="url(#clip830)" d="M201.329 1517.62 Q195.009 1517.62 191.809 1523.86 Q188.649 1530.05 188.649 1542.53 Q188.649 1554.97 191.809 1561.21 Q195.009 1567.4 201.329 1567.4 Q207.689 1567.4 210.848 1561.21 Q214.049 1554.97 214.049 1542.53 Q214.049 1530.05 210.848 1523.86 Q207.689 1517.62 201.329 1517.62 M201.329 1511.14 Q211.497 1511.14 216.844 1519.2 Q222.231 1527.22 222.231 1542.53 Q222.231 1557.8 216.844 1565.86 Q211.497 1573.88 201.329 1573.88 Q191.161 1573.88 185.773 1565.86 Q180.426 1557.8 180.426 1542.53 Q180.426 1527.22 185.773 1519.2 Q191.161 1511.14 201.329 1511.14 Z" fill="#000000" fill-rule="nonzero" fill-opacity="1"></path><path clip-path="url(#clip830)" d="M254.112 1517.62 Q247.793 1517.62 244.592 1523.86 Q241.433 1530.05 241.433 1542.53 Q241.433 1554.97 244.592 1561.21 Q247.793 1567.4 254.112 1567.4 Q260.472 1567.4 263.632 1561.21 Q266.832 1554.97 266.832 1542.53 Q266.832 1530.05 263.632 1523.86 Q260.472 1517.62 254.112 1517.62 M254.112 1511.14 Q264.28 1511.14 269.627 1519.2 Q275.015 1527.22 275.015 1542.53 Q275.015 1557.8 269.627 1565.86 Q264.28 1573.88 254.112 1573.88 Q243.944 1573.88 238.557 1565.86 Q233.209 1557.8 233.209 1542.53 Q233.209 1527.22 238.557 1519.2 Q243.944 1511.14 254.112 1511.14 Z" fill="#000000" fill-rule="nonzero" fill-opacity="1"></path><path clip-path="url(#clip830)" d="M306.895 1517.62 Q300.576 1517.62 297.376 1523.86 Q294.216 1530.05 294.216 1542.53 Q294.216 1554.97 297.376 1561.21 Q300.576 1567.4 306.895 1567.4 Q313.255 1567.4 316.415 1561.21 Q319.615 1554.97 319.615 1542.53 Q319.615 1530.05 316.415 1523.86 Q313.255 1517.62 306.895 1517.62 M306.895 1511.14 Q317.063 1511.14 322.41 1519.2 Q327.798 1527.22 327.798 1542.53 Q327.798 1557.8 322.41 1565.86 Q317.063 1573.88 306.895 1573.88 Q296.728 1573.88 291.34 1565.86 Q285.993 1557.8 285.993 1542.53 Q285.993 1527.22 291.34 1519.2 Q296.728 1511.14 306.895 1511.14 Z" fill="#000000" fill-rule="nonzero" fill-opacity="1"></path><path clip-path="url(#clip830)" d="M359.679 1517.62 Q353.359 1517.62 350.159 1523.86 Q346.999 1530.05 346.999 1542.53 Q346.999 1554.97 350.159 1561.21 Q353.359 1567.4 359.679 1567.4 Q366.039 1567.4 369.198 1561.21 Q372.399 1554.97 372.399 1542.53 Q372.399 1530.05 369.198 1523.86 Q366.039 1517.62 359.679 1517.62 M359.679 1511.14 Q369.846 1511.14 375.194 1519.2 Q380.581 1527.22 380.581 1542.53 Q380.581 1557.8 375.194 1565.86 Q369.846 1573.88 359.679 1573.88 Q349.511 1573.88 344.123 1565.86 Q338.776 1557.8 338.776 1542.53 Q338.776 1527.22 344.123 1519.2 Q349.511 1511.14 359.679 1511.14 Z" fill="#000000" fill-rule="nonzero" fill-opacity="1"></path><path clip-path="url(#clip830)" d="M411.044 1546.7 L399.621 1583.65 L392.734 1583.65 L404.158 1546.7 L392.734 1509.76 L399.621 1509.76 L411.044 1546.7 Z" fill="#000000" fill-rule="nonzero" fill-opacity="1"></path><path clip-path="url(#clip830)" d="M638.52 1509.31 L638.52 1592.28 L631.633 1592.28 L631.633 1509.31 L638.52 1509.31 Z" fill="#000000" fill-rule="nonzero" fill-opacity="1"></path><path clip-path="url(#clip830)" d="M675.423 1517.62 Q669.104 1517.62 665.904 1523.86 Q662.744 1530.05 662.744 1542.53 Q662.744 1554.97 665.904 1561.21 Q669.104 1567.4 675.423 1567.4 Q681.783 1567.4 684.943 1561.21 Q688.143 1554.97 688.143 1542.53 Q688.143 1530.05 684.943 1523.86 Q681.783 1517.62 675.423 1517.62 M675.423 1511.14 Q685.591 1511.14 690.938 1519.2 Q696.326 1527.22 696.326 1542.53 Q696.326 1557.8 690.938 1565.86 Q685.591 1573.88 675.423 1573.88 Q665.256 1573.88 659.868 1565.86 Q654.521 1557.8 654.521 1542.53 Q654.521 1527.22 659.868 1519.2 Q665.256 1511.14 675.423 1511.14 Z" fill="#000000" fill-rule="nonzero" fill-opacity="1"></path><path clip-path="url(#clip830)" d="M728.207 1517.62 Q721.887 1517.62 718.687 1523.86 Q715.527 1530.05 715.527 1542.53 Q715.527 1554.97 718.687 1561.21 Q721.887 1567.4 728.207 1567.4 Q734.567 1567.4 737.726 1561.21 Q740.926 1554.97 740.926 1542.53 Q740.926 1530.05 737.726 1523.86 Q734.567 1517.62 728.207 1517.62 M728.207 1511.14 Q738.374 1511.14 743.722 1519.2 Q749.109 1527.22 749.109 1542.53 Q749.109 1557.8 743.722 1565.86 Q738.374 1573.88 728.207 1573.88 Q718.039 1573.88 712.651 1565.86 Q707.304 1557.8 707.304 1542.53 Q707.304 1527.22 712.651 1519.2 Q718.039 1511.14 728.207 1511.14 Z" fill="#000000" fill-rule="nonzero" fill-opacity="1"></path><path clip-path="url(#clip830)" d="M780.99 1517.62 Q774.67 1517.62 771.47 1523.86 Q768.311 1530.05 768.311 1542.53 Q768.311 1554.97 771.47 1561.21 Q774.67 1567.4 780.99 1567.4 Q787.35 1567.4 790.509 1561.21 Q793.71 1554.97 793.71 1542.53 Q793.71 1530.05 790.509 1523.86 Q787.35 1517.62 780.99 1517.62 M780.99 1511.14 Q791.158 1511.14 796.505 1519.2 Q801.893 1527.22 801.893 1542.53 Q801.893 1557.8 796.505 1565.86 Q791.158 1573.88 780.99 1573.88 Q770.822 1573.88 765.434 1565.86 Q760.087 1557.8 760.087 1542.53 Q760.087 1527.22 765.434 1519.2 Q770.822 1511.14 780.99 1511.14 Z" fill="#000000" fill-rule="nonzero" fill-opacity="1"></path><path clip-path="url(#clip830)" d="M817.691 1565.82 L831.059 1565.82 L831.059 1519.68 L816.516 1522.6 L816.516 1515.15 L830.978 1512.23 L839.161 1512.23 L839.161 1565.82 L852.529 1565.82 L852.529 1572.71 L817.691 1572.71 L817.691 1565.82 Z" fill="#000000" fill-rule="nonzero" fill-opacity="1"></path><path clip-path="url(#clip830)" d="M885.139 1546.7 L873.715 1583.65 L866.829 1583.65 L878.252 1546.7 L866.829 1509.76 L873.715 1509.76 L885.139 1546.7 Z" fill="#000000" fill-rule="nonzero" fill-opacity="1"></path><path clip-path="url(#clip830)" d="M1112.61 1509.31 L1112.61 1592.28 L1105.73 1592.28 L1105.73 1509.31 L1112.61 1509.31 Z" fill="#000000" fill-rule="nonzero" fill-opacity="1"></path><path clip-path="url(#clip830)" d="M1149.52 1517.62 Q1143.2 1517.62 1140 1523.86 Q1136.84 1530.05 1136.84 1542.53 Q1136.84 1554.97 1140 1561.21 Q1143.2 1567.4 1149.52 1567.4 Q1155.88 1567.4 1159.04 1561.21 Q1162.24 1554.97 1162.24 1542.53 Q1162.24 1530.05 1159.04 1523.86 Q1155.88 1517.62 1149.52 1517.62 M1149.52 1511.14 Q1159.69 1511.14 1165.03 1519.2 Q1170.42 1527.22 1170.42 1542.53 Q1170.42 1557.8 1165.03 1565.86 Q1159.69 1573.88 1149.52 1573.88 Q1139.35 1573.88 1133.96 1565.86 Q1128.62 1557.8 1128.62 1542.53 Q1128.62 1527.22 1133.96 1519.2 Q1139.35 1511.14 1149.52 1511.14 Z" fill="#000000" fill-rule="nonzero" fill-opacity="1"></path><path clip-path="url(#clip830)" d="M1202.3 1517.62 Q1195.98 1517.62 1192.78 1523.86 Q1189.62 1530.05 1189.62 1542.53 Q1189.62 1554.97 1192.78 1561.21 Q1195.98 1567.4 1202.3 1567.4 Q1208.66 1567.4 1211.82 1561.21 Q1215.02 1554.97 1215.02 1542.53 Q1215.02 1530.05 1211.82 1523.86 Q1208.66 1517.62 1202.3 1517.62 M1202.3 1511.14 Q1212.47 1511.14 1217.82 1519.2 Q1223.2 1527.22 1223.2 1542.53 Q1223.2 1557.8 1217.82 1565.86 Q1212.47 1573.88 1202.3 1573.88 Q1192.13 1573.88 1186.75 1565.86 Q1181.4 1557.8 1181.4 1542.53 Q1181.4 1527.22 1186.75 1519.2 Q1192.13 1511.14 1202.3 1511.14 Z" fill="#000000" fill-rule="nonzero" fill-opacity="1"></path><path clip-path="url(#clip830)" d="M1239 1565.82 L1252.37 1565.82 L1252.37 1519.68 L1237.83 1522.6 L1237.83 1515.15 L1252.29 1512.23 L1260.47 1512.23 L1260.47 1565.82 L1273.84 1565.82 L1273.84 1572.71 L1239 1572.71 L1239 1565.82 Z" fill="#000000" fill-rule="nonzero" fill-opacity="1"></path><path clip-path="url(#clip830)" d="M1307.87 1517.62 Q1301.55 1517.62 1298.35 1523.86 Q1295.19 1530.05 1295.19 1542.53 Q1295.19 1554.97 1298.35 1561.21 Q1301.55 1567.4 1307.87 1567.4 Q1314.23 1567.4 1317.39 1561.21 Q1320.59 1554.97 1320.59 1542.53 Q1320.59 1530.05 1317.39 1523.86 Q1314.23 1517.62 1307.87 1517.62 M1307.87 1511.14 Q1318.04 1511.14 1323.38 1519.2 Q1328.77 1527.22 1328.77 1542.53 Q1328.77 1557.8 1323.38 1565.86 Q1318.04 1573.88 1307.87 1573.88 Q1297.7 1573.88 1292.31 1565.86 Q1286.96 1557.8 1286.96 1542.53 Q1286.96 1527.22 1292.31 1519.2 Q1297.7 1511.14 1307.87 1511.14 Z" fill="#000000" fill-rule="nonzero" fill-opacity="1"></path><path clip-path="url(#clip830)" d="M1359.23 1546.7 L1347.81 1583.65 L1340.92 1583.65 L1352.35 1546.7 L1340.92 1509.76 L1347.81 1509.76 L1359.23 1546.7 Z" fill="#000000" fill-rule="nonzero" fill-opacity="1"></path><path clip-path="url(#clip830)" d="M1586.71 1509.31 L1586.71 1592.28 L1579.82 1592.28 L1579.82 1509.31 L1586.71 1509.31 Z" fill="#000000" fill-rule="nonzero" fill-opacity="1"></path><path clip-path="url(#clip830)" d="M1623.61 1517.62 Q1617.29 1517.62 1614.09 1523.86 Q1610.93 1530.05 1610.93 1542.53 Q1610.93 1554.97 1614.09 1561.21 Q1617.29 1567.4 1623.61 1567.4 Q1629.97 1567.4 1633.13 1561.21 Q1636.33 1554.97 1636.33 1542.53 Q1636.33 1530.05 1633.13 1523.86 Q1629.97 1517.62 1623.61 1517.62 M1623.61 1511.14 Q1633.78 1511.14 1639.13 1519.2 Q1644.51 1527.22 1644.51 1542.53 Q1644.51 1557.8 1639.13 1565.86 Q1633.78 1573.88 1623.61 1573.88 Q1613.44 1573.88 1608.06 1565.86 Q1602.71 1557.8 1602.71 1542.53 Q1602.71 1527.22 1608.06 1519.2 Q1613.44 1511.14 1623.61 1511.14 Z" fill="#000000" fill-rule="nonzero" fill-opacity="1"></path><path clip-path="url(#clip830)" d="M1676.4 1517.62 Q1670.08 1517.62 1666.88 1523.86 Q1663.72 1530.05 1663.72 1542.53 Q1663.72 1554.97 1666.88 1561.21 Q1670.08 1567.4 1676.4 1567.4 Q1682.76 1567.4 1685.92 1561.21 Q1689.12 1554.97 1689.12 1542.53 Q1689.12 1530.05 1685.92 1523.86 Q1682.76 1517.62 1676.4 1517.62 M1676.4 1511.14 Q1686.56 1511.14 1691.91 1519.2 Q1697.3 1527.22 1697.3 1542.53 Q1697.3 1557.8 1691.91 1565.86 Q1686.56 1573.88 1676.4 1573.88 Q1666.23 1573.88 1660.84 1565.86 Q1655.49 1557.8 1655.49 1542.53 Q1655.49 1527.22 1660.84 1519.2 Q1666.23 1511.14 1676.4 1511.14 Z" fill="#000000" fill-rule="nonzero" fill-opacity="1"></path><path clip-path="url(#clip830)" d="M1713.1 1565.82 L1726.46 1565.82 L1726.46 1519.68 L1711.92 1522.6 L1711.92 1515.15 L1726.38 1512.23 L1734.57 1512.23 L1734.57 1565.82 L1747.93 1565.82 L1747.93 1572.71 L1713.1 1572.71 L1713.1 1565.82 Z" fill="#000000" fill-rule="nonzero" fill-opacity="1"></path><path clip-path="url(#clip830)" d="M1765.88 1565.82 L1779.25 1565.82 L1779.25 1519.68 L1764.71 1522.6 L1764.71 1515.15 L1779.17 1512.23 L1787.35 1512.23 L1787.35 1565.82 L1800.72 1565.82 L1800.72 1572.71 L1765.88 1572.71 L1765.88 1565.82 Z" fill="#000000" fill-rule="nonzero" fill-opacity="1"></path><path clip-path="url(#clip830)" d="M1833.33 1546.7 L1821.9 1583.65 L1815.02 1583.65 L1826.44 1546.7 L1815.02 1509.76 L1821.9 1509.76 L1833.33 1546.7 Z" fill="#000000" fill-rule="nonzero" fill-opacity="1"></path><path clip-path="url(#clip830)" d="M2060.8 1509.31 L2060.8 1592.28 L2053.92 1592.28 L2053.92 1509.31 L2060.8 1509.31 Z" fill="#000000" fill-rule="nonzero" fill-opacity="1"></path><path clip-path="url(#clip830)" d="M2097.71 1517.62 Q2091.39 1517.62 2088.19 1523.86 Q2085.03 1530.05 2085.03 1542.53 Q2085.03 1554.97 2088.19 1561.21 Q2091.39 1567.4 2097.71 1567.4 Q2104.07 1567.4 2107.23 1561.21 Q2110.43 1554.97 2110.43 1542.53 Q2110.43 1530.05 2107.23 1523.86 Q2104.07 1517.62 2097.71 1517.62 M2097.71 1511.14 Q2107.87 1511.14 2113.22 1519.2 Q2118.61 1527.22 2118.61 1542.53 Q2118.61 1557.8 2113.22 1565.86 Q2107.87 1573.88 2097.71 1573.88 Q2087.54 1573.88 2082.15 1565.86 Q2076.8 1557.8 2076.8 1542.53 Q2076.8 1527.22 2082.15 1519.2 Q2087.54 1511.14 2097.71 1511.14 Z" fill="#000000" fill-rule="nonzero" fill-opacity="1"></path><path clip-path="url(#clip830)" d="M2134.41 1565.82 L2147.78 1565.82 L2147.78 1519.68 L2133.23 1522.6 L2133.23 1515.15 L2147.69 1512.23 L2155.88 1512.23 L2155.88 1565.82 L2169.25 1565.82 L2169.25 1572.71 L2134.41 1572.71 L2134.41 1565.82 Z" fill="#000000" fill-rule="nonzero" fill-opacity="1"></path><path clip-path="url(#clip830)" d="M2203.27 1517.62 Q2196.95 1517.62 2193.75 1523.86 Q2190.59 1530.05 2190.59 1542.53 Q2190.59 1554.97 2193.75 1561.21 Q2196.95 1567.4 2203.27 1567.4 Q2209.63 1567.4 2212.79 1561.21 Q2215.99 1554.97 2215.99 1542.53 Q2215.99 1530.05 2212.79 1523.86 Q2209.63 1517.62 2203.27 1517.62 M2203.27 1511.14 Q2213.44 1511.14 2218.79 1519.2 Q2224.18 1527.22 2224.18 1542.53 Q2224.18 1557.8 2218.79 1565.86 Q2213.44 1573.88 2203.27 1573.88 Q2193.11 1573.88 2187.72 1565.86 Q2182.37 1557.8 2182.37 1542.53 Q2182.37 1527.22 2187.72 1519.2 Q2193.11 1511.14 2203.27 1511.14 Z" fill="#000000" fill-rule="nonzero" fill-opacity="1"></path><path clip-path="url(#clip830)" d="M2256.06 1517.62 Q2249.74 1517.62 2246.54 1523.86 Q2243.38 1530.05 2243.38 1542.53 Q2243.38 1554.97 2246.54 1561.21 Q2249.74 1567.4 2256.06 1567.4 Q2262.42 1567.4 2265.58 1561.21 Q2268.78 1554.97 2268.78 1542.53 Q2268.78 1530.05 2265.58 1523.86 Q2262.42 1517.62 2256.06 1517.62 M2256.06 1511.14 Q2266.22 1511.14 2271.57 1519.2 Q2276.96 1527.22 2276.96 1542.53 Q2276.96 1557.8 2271.57 1565.86 Q2266.22 1573.88 2256.06 1573.88 Q2245.89 1573.88 2240.5 1565.86 Q2235.15 1557.8 2235.15 1542.53 Q2235.15 1527.22 2240.5 1519.2 Q2245.89 1511.14 2256.06 1511.14 Z" fill="#000000" fill-rule="nonzero" fill-opacity="1"></path><path clip-path="url(#clip830)" d="M2307.42 1546.7 L2296 1583.65 L2289.11 1583.65 L2300.54 1546.7 L2289.11 1509.76 L2296 1509.76 L2307.42 1546.7 Z" fill="#000000" fill-rule="nonzero" fill-opacity="1"></path><path clip-path="url(#clip830)" d="M2534.9 1509.31 L2534.9 1592.28 L2528.01 1592.28 L2528.01 1509.31 L2534.9 1509.31 Z" fill="#000000" fill-rule="nonzero" fill-opacity="1"></path><path clip-path="url(#clip830)" d="M2571.8 1517.62 Q2565.48 1517.62 2562.28 1523.86 Q2559.12 1530.05 2559.12 1542.53 Q2559.12 1554.97 2562.28 1561.21 Q2565.48 1567.4 2571.8 1567.4 Q2578.16 1567.4 2581.32 1561.21 Q2584.52 1554.97 2584.52 1542.53 Q2584.52 1530.05 2581.32 1523.86 Q2578.16 1517.62 2571.8 1517.62 M2571.8 1511.14 Q2581.97 1511.14 2587.32 1519.2 Q2592.7 1527.22 2592.7 1542.53 Q2592.7 1557.8 2587.32 1565.86 Q2581.97 1573.88 2571.8 1573.88 Q2561.63 1573.88 2556.25 1565.86 Q2550.9 1557.8 2550.9 1542.53 Q2550.9 1527.22 2556.25 1519.2 Q2561.63 1511.14 2571.8 1511.14 Z" fill="#000000" fill-rule="nonzero" fill-opacity="1"></path><path clip-path="url(#clip830)" d="M2608.5 1565.82 L2621.87 1565.82 L2621.87 1519.68 L2607.33 1522.6 L2607.33 1515.15 L2621.79 1512.23 L2629.97 1512.23 L2629.97 1565.82 L2643.34 1565.82 L2643.34 1572.71 L2608.5 1572.71 L2608.5 1565.82 Z" fill="#000000" fill-rule="nonzero" fill-opacity="1"></path><path clip-path="url(#clip830)" d="M2677.37 1517.62 Q2671.05 1517.62 2667.85 1523.86 Q2664.69 1530.05 2664.69 1542.53 Q2664.69 1554.97 2667.85 1561.21 Q2671.05 1567.4 2677.37 1567.4 Q2683.73 1567.4 2686.89 1561.21 Q2690.09 1554.97 2690.09 1542.53 Q2690.09 1530.05 2686.89 1523.86 Q2683.73 1517.62 2677.37 1517.62 M2677.37 1511.14 Q2687.54 1511.14 2692.88 1519.2 Q2698.27 1527.22 2698.27 1542.53 Q2698.27 1557.8 2692.88 1565.86 Q2687.54 1573.88 2677.37 1573.88 Q2667.2 1573.88 2661.81 1565.86 Q2656.47 1557.8 2656.47 1542.53 Q2656.47 1527.22 2661.81 1519.2 Q2667.2 1511.14 2677.37 1511.14 Z" fill="#000000" fill-rule="nonzero" fill-opacity="1"></path><path clip-path="url(#clip830)" d="M2714.07 1565.82 L2727.44 1565.82 L2727.44 1519.68 L2712.89 1522.6 L2712.89 1515.15 L2727.36 1512.23 L2735.54 1512.23 L2735.54 1565.82 L2748.91 1565.82 L2748.91 1572.71 L2714.07 1572.71 L2714.07 1565.82 Z" fill="#000000" fill-rule="nonzero" fill-opacity="1"></path><path clip-path="url(#clip830)" d="M2781.52 1546.7 L2770.09 1583.65 L2763.21 1583.65 L2774.63 1546.7 L2763.21 1509.76 L2770.09 1509.76 L2781.52 1546.7 Z" fill="#000000" fill-rule="nonzero" fill-opacity="1"></path><path clip-path="url(#clip830)" d="M3008.99 1509.31 L3008.99 1592.28 L3002.11 1592.28 L3002.11 1509.31 L3008.99 1509.31 Z" fill="#000000" fill-rule="nonzero" fill-opacity="1"></path><path clip-path="url(#clip830)" d="M3045.9 1517.62 Q3039.58 1517.62 3036.38 1523.86 Q3033.22 1530.05 3033.22 1542.53 Q3033.22 1554.97 3036.38 1561.21 Q3039.58 1567.4 3045.9 1567.4 Q3052.26 1567.4 3055.42 1561.21 Q3058.62 1554.97 3058.62 1542.53 Q3058.62 1530.05 3055.42 1523.86 Q3052.26 1517.62 3045.9 1517.62 M3045.9 1511.14 Q3056.06 1511.14 3061.41 1519.2 Q3066.8 1527.22 3066.8 1542.53 Q3066.8 1557.8 3061.41 1565.86 Q3056.06 1573.88 3045.9 1573.88 Q3035.73 1573.88 3030.34 1565.86 Q3024.99 1557.8 3024.99 1542.53 Q3024.99 1527.22 3030.34 1519.2 Q3035.73 1511.14 3045.9 1511.14 Z" fill="#000000" fill-rule="nonzero" fill-opacity="1"></path><path clip-path="url(#clip830)" d="M3082.6 1565.82 L3095.96 1565.82 L3095.96 1519.68 L3081.42 1522.6 L3081.42 1515.15 L3095.88 1512.23 L3104.07 1512.23 L3104.07 1565.82 L3117.43 1565.82 L3117.43 1572.71 L3082.6 1572.71 L3082.6 1565.82 Z" fill="#000000" fill-rule="nonzero" fill-opacity="1"></path><path clip-path="url(#clip830)" d="M3135.38 1565.82 L3148.75 1565.82 L3148.75 1519.68 L3134.21 1522.6 L3134.21 1515.15 L3148.67 1512.23 L3156.85 1512.23 L3156.85 1565.82 L3170.22 1565.82 L3170.22 1572.71 L3135.38 1572.71 L3135.38 1565.82 Z" fill="#000000" fill-rule="nonzero" fill-opacity="1"></path><path clip-path="url(#clip830)" d="M3204.25 1517.62 Q3197.93 1517.62 3194.73 1523.86 Q3191.57 1530.05 3191.57 1542.53 Q3191.57 1554.97 3194.73 1561.21 Q3197.93 1567.4 3204.25 1567.4 Q3210.61 1567.4 3213.77 1561.21 Q3216.97 1554.97 3216.97 1542.53 Q3216.97 1530.05 3213.77 1523.86 Q3210.61 1517.62 3204.25 1517.62 M3204.25 1511.14 Q3214.41 1511.14 3219.76 1519.2 Q3225.15 1527.22 3225.15 1542.53 Q3225.15 1557.8 3219.76 1565.86 Q3214.41 1573.88 3204.25 1573.88 Q3194.08 1573.88 3188.69 1565.86 Q3183.34 1557.8 3183.34 1542.53 Q3183.34 1527.22 3188.69 1519.2 Q3194.08 1511.14 3204.25 1511.14 Z" fill="#000000" fill-rule="nonzero" fill-opacity="1"></path><path clip-path="url(#clip830)" d="M3255.61 1546.7 L3244.19 1583.65 L3237.3 1583.65 L3248.72 1546.7 L3237.3 1509.76 L3244.19 1509.76 L3255.61 1546.7 Z" fill="#000000" fill-rule="nonzero" fill-opacity="1"></path><path clip-path="url(#clip830)" d="M3483.09 1509.31 L3483.09 1592.28 L3476.2 1592.28 L3476.2 1509.31 L3483.09 1509.31 Z" fill="#000000" fill-rule="nonzero" fill-opacity="1"></path><path clip-path="url(#clip830)" d="M3519.99 1517.62 Q3513.67 1517.62 3510.47 1523.86 Q3507.31 1530.05 3507.31 1542.53 Q3507.31 1554.97 3510.47 1561.21 Q3513.67 1567.4 3519.99 1567.4 Q3526.35 1567.4 3529.51 1561.21 Q3532.71 1554.97 3532.71 1542.53 Q3532.71 1530.05 3529.51 1523.86 Q3526.35 1517.62 3519.99 1517.62 M3519.99 1511.14 Q3530.16 1511.14 3535.51 1519.2 Q3540.89 1527.22 3540.89 1542.53 Q3540.89 1557.8 3535.51 1565.86 Q3530.16 1573.88 3519.99 1573.88 Q3509.82 1573.88 3504.43 1565.86 Q3499.09 1557.8 3499.09 1542.53 Q3499.09 1527.22 3504.43 1519.2 Q3509.82 1511.14 3519.99 1511.14 Z" fill="#000000" fill-rule="nonzero" fill-opacity="1"></path><path clip-path="url(#clip830)" d="M3556.69 1565.82 L3570.06 1565.82 L3570.06 1519.68 L3555.52 1522.6 L3555.52 1515.15 L3569.98 1512.23 L3578.16 1512.23 L3578.16 1565.82 L3591.53 1565.82 L3591.53 1572.71 L3556.69 1572.71 L3556.69 1565.82 Z" fill="#000000" fill-rule="nonzero" fill-opacity="1"></path><path clip-path="url(#clip830)" d="M3609.47 1565.82 L3622.84 1565.82 L3622.84 1519.68 L3608.3 1522.6 L3608.3 1515.15 L3622.76 1512.23 L3630.94 1512.23 L3630.94 1565.82 L3644.31 1565.82 L3644.31 1572.71 L3609.47 1572.71 L3609.47 1565.82 Z" fill="#000000" fill-rule="nonzero" fill-opacity="1"></path><path clip-path="url(#clip830)" d="M3662.26 1565.82 L3675.63 1565.82 L3675.63 1519.68 L3661.08 1522.6 L3661.08 1515.15 L3675.54 1512.23 L3683.73 1512.23 L3683.73 1565.82 L3697.1 1565.82 L3697.1 1572.71 L3662.26 1572.71 L3662.26 1565.82 Z" fill="#000000" fill-rule="nonzero" fill-opacity="1"></path><path clip-path="url(#clip830)" d="M3729.71 1546.7 L3718.28 1583.65 L3711.4 1583.65 L3722.82 1546.7 L3711.4 1509.76 L3718.28 1509.76 L3729.71 1546.7 Z" fill="#000000" fill-rule="nonzero" fill-opacity="1"></path><path clip-path="url(#clip830)" d="M3957.18 1509.31 L3957.18 1592.28 L3950.29 1592.28 L3950.29 1509.31 L3957.18 1509.31 Z" fill="#000000" fill-rule="nonzero" fill-opacity="1"></path><path clip-path="url(#clip830)" d="M3978 1565.82 L3991.37 1565.82 L3991.37 1519.68 L3976.83 1522.6 L3976.83 1515.15 L3991.29 1512.23 L3999.47 1512.23 L3999.47 1565.82 L4012.84 1565.82 L4012.84 1572.71 L3978 1572.71 L3978 1565.82 Z" fill="#000000" fill-rule="nonzero" fill-opacity="1"></path><path clip-path="url(#clip830)" d="M4046.87 1517.62 Q4040.55 1517.62 4037.35 1523.86 Q4034.19 1530.05 4034.19 1542.53 Q4034.19 1554.97 4037.35 1561.21 Q4040.55 1567.4 4046.87 1567.4 Q4053.23 1567.4 4056.39 1561.21 Q4059.59 1554.97 4059.59 1542.53 Q4059.59 1530.05 4056.39 1523.86 Q4053.23 1517.62 4046.87 1517.62 M4046.87 1511.14 Q4057.04 1511.14 4062.38 1519.2 Q4067.77 1527.22 4067.77 1542.53 Q4067.77 1557.8 4062.38 1565.86 Q4057.04 1573.88 4046.87 1573.88 Q4036.7 1573.88 4031.31 1565.86 Q4025.97 1557.8 4025.97 1542.53 Q4025.97 1527.22 4031.31 1519.2 Q4036.7 1511.14 4046.87 1511.14 Z" fill="#000000" fill-rule="nonzero" fill-opacity="1"></path><path clip-path="url(#clip830)" d="M4099.65 1517.62 Q4093.33 1517.62 4090.13 1523.86 Q4086.97 1530.05 4086.97 1542.53 Q4086.97 1554.97 4090.13 1561.21 Q4093.33 1567.4 4099.65 1567.4 Q4106.01 1567.4 4109.17 1561.21 Q4112.37 1554.97 4112.37 1542.53 Q4112.37 1530.05 4109.17 1523.86 Q4106.01 1517.62 4099.65 1517.62 M4099.65 1511.14 Q4109.82 1511.14 4115.17 1519.2 Q4120.55 1527.22 4120.55 1542.53 Q4120.55 1557.8 4115.17 1565.86 Q4109.82 1573.88 4099.65 1573.88 Q4089.48 1573.88 4084.1 1565.86 Q4078.75 1557.8 4078.75 1542.53 Q4078.75 1527.22 4084.1 1519.2 Q4089.48 1511.14 4099.65 1511.14 Z" fill="#000000" fill-rule="nonzero" fill-opacity="1"></path><path clip-path="url(#clip830)" d="M4152.43 1517.62 Q4146.12 1517.62 4142.91 1523.86 Q4139.76 1530.05 4139.76 1542.53 Q4139.76 1554.97 4142.91 1561.21 Q4146.12 1567.4 4152.43 1567.4 Q4158.79 1567.4 4161.95 1561.21 Q4165.15 1554.97 4165.15 1542.53 Q4165.15 1530.05 4161.95 1523.86 Q4158.79 1517.62 4152.43 1517.62 M4152.43 1511.14 Q4162.6 1511.14 4167.95 1519.2 Q4173.34 1527.22 4173.34 1542.53 Q4173.34 1557.8 4167.95 1565.86 Q4162.6 1573.88 4152.43 1573.88 Q4142.27 1573.88 4136.88 1565.86 Q4131.53 1557.8 4131.53 1542.53 Q4131.53 1527.22 4136.88 1519.2 Q4142.27 1511.14 4152.43 1511.14 Z" fill="#000000" fill-rule="nonzero" fill-opacity="1"></path><path clip-path="url(#clip830)" d="M4203.8 1546.7 L4192.38 1583.65 L4185.49 1583.65 L4196.91 1546.7 L4185.49 1509.76 L4192.38 1509.76 L4203.8 1546.7 Z" fill="#000000" fill-rule="nonzero" fill-opacity="1"></path><path clip-path="url(#clip830)" d="M4431.28 1509.31 L4431.28 1592.28 L4424.39 1592.28 L4424.39 1509.31 L4431.28 1509.31 Z" fill="#000000" fill-rule="nonzero" fill-opacity="1"></path><path clip-path="url(#clip830)" d="M4452.1 1565.82 L4465.47 1565.82 L4465.47 1519.68 L4450.92 1522.6 L4450.92 1515.15 L4465.38 1512.23 L4473.57 1512.23 L4473.57 1565.82 L4486.93 1565.82 L4486.93 1572.71 L4452.1 1572.71 L4452.1 1565.82 Z" fill="#000000" fill-rule="nonzero" fill-opacity="1"></path><path clip-path="url(#clip830)" d="M4520.96 1517.62 Q4514.64 1517.62 4511.44 1523.86 Q4508.28 1530.05 4508.28 1542.53 Q4508.28 1554.97 4511.44 1561.21 Q4514.64 1567.4 4520.96 1567.4 Q4527.32 1567.4 4530.48 1561.21 Q4533.68 1554.97 4533.68 1542.53 Q4533.68 1530.05 4530.48 1523.86 Q4527.32 1517.62 4520.96 1517.62 M4520.96 1511.14 Q4531.13 1511.14 4536.48 1519.2 Q4541.87 1527.22 4541.87 1542.53 Q4541.87 1557.8 4536.48 1565.86 Q4531.13 1573.88 4520.96 1573.88 Q4510.79 1573.88 4505.41 1565.86 Q4500.06 1557.8 4500.06 1542.53 Q4500.06 1527.22 4505.41 1519.2 Q4510.79 1511.14 4520.96 1511.14 Z" fill="#000000" fill-rule="nonzero" fill-opacity="1"></path><path clip-path="url(#clip830)" d="M4573.75 1517.62 Q4567.43 1517.62 4564.23 1523.86 Q4561.07 1530.05 4561.07 1542.53 Q4561.07 1554.97 4564.23 1561.21 Q4567.43 1567.4 4573.75 1567.4 Q4580.11 1567.4 4583.27 1561.21 Q4586.47 1554.97 4586.47 1542.53 Q4586.47 1530.05 4583.27 1523.86 Q4580.11 1517.62 4573.75 1517.62 M4573.75 1511.14 Q4583.91 1511.14 4589.26 1519.2 Q4594.65 1527.22 4594.65 1542.53 Q4594.65 1557.8 4589.26 1565.86 Q4583.91 1573.88 4573.75 1573.88 Q4563.58 1573.88 4558.19 1565.86 Q4552.84 1557.8 4552.84 1542.53 Q4552.84 1527.22 4558.19 1519.2 Q4563.58 1511.14 4573.75 1511.14 Z" fill="#000000" fill-rule="nonzero" fill-opacity="1"></path><path clip-path="url(#clip830)" d="M4610.45 1565.82 L4623.81 1565.82 L4623.81 1519.68 L4609.27 1522.6 L4609.27 1515.15 L4623.73 1512.23 L4631.92 1512.23 L4631.92 1565.82 L4645.28 1565.82 L4645.28 1572.71 L4610.45 1572.71 L4610.45 1565.82 Z" fill="#000000" fill-rule="nonzero" fill-opacity="1"></path><path clip-path="url(#clip830)" d="M4677.89 1546.7 L4666.47 1583.65 L4659.58 1583.65 L4671.01 1546.7 L4659.58 1509.76 L4666.47 1509.76 L4677.89 1546.7 Z" fill="#000000" fill-rule="nonzero" fill-opacity="1"></path><path clip-path="url(#clip830)" d="M4905.37 1509.31 L4905.37 1592.28 L4898.48 1592.28 L4898.48 1509.31 L4905.37 1509.31 Z" fill="#000000" fill-rule="nonzero" fill-opacity="1"></path><path clip-path="url(#clip830)" d="M4926.19 1565.82 L4939.56 1565.82 L4939.56 1519.68 L4925.02 1522.6 L4925.02 1515.15 L4939.48 1512.23 L4947.66 1512.23 L4947.66 1565.82 L4961.03 1565.82 L4961.03 1572.71 L4926.19 1572.71 L4926.19 1565.82 Z" fill="#000000" fill-rule="nonzero" fill-opacity="1"></path><path clip-path="url(#clip830)" d="M4995.06 1517.62 Q4988.74 1517.62 4985.54 1523.86 Q4982.38 1530.05 4982.38 1542.53 Q4982.38 1554.97 4985.54 1561.21 Q4988.74 1567.4 4995.06 1567.4 Q5001.42 1567.4 5004.58 1561.21 Q5007.78 1554.97 5007.78 1542.53 Q5007.78 1530.05 5004.58 1523.86 Q5001.42 1517.62 4995.06 1517.62 M4995.06 1511.14 Q5005.22 1511.14 5010.57 1519.2 Q5015.96 1527.22 5015.96 1542.53 Q5015.96 1557.8 5010.57 1565.86 Q5005.22 1573.88 4995.06 1573.88 Q4984.89 1573.88 4979.5 1565.86 Q4974.15 1557.8 4974.15 1542.53 Q4974.15 1527.22 4979.5 1519.2 Q4984.89 1511.14 4995.06 1511.14 Z" fill="#000000" fill-rule="nonzero" fill-opacity="1"></path><path clip-path="url(#clip830)" d="M5031.76 1565.82 L5045.13 1565.82 L5045.13 1519.68 L5030.58 1522.6 L5030.58 1515.15 L5045.05 1512.23 L5053.23 1512.23 L5053.23 1565.82 L5066.6 1565.82 L5066.6 1572.71 L5031.76 1572.71 L5031.76 1565.82 Z" fill="#000000" fill-rule="nonzero" fill-opacity="1"></path><path clip-path="url(#clip830)" d="M5100.62 1517.62 Q5094.3 1517.62 5091.1 1523.86 Q5087.94 1530.05 5087.94 1542.53 Q5087.94 1554.97 5091.1 1561.21 Q5094.3 1567.4 5100.62 1567.4 Q5106.98 1567.4 5110.14 1561.21 Q5113.34 1554.97 5113.34 1542.53 Q5113.34 1530.05 5110.14 1523.86 Q5106.98 1517.62 5100.62 1517.62 M5100.62 1511.14 Q5110.79 1511.14 5116.14 1519.2 Q5121.53 1527.22 5121.53 1542.53 Q5121.53 1557.8 5116.14 1565.86 Q5110.79 1573.88 5100.62 1573.88 Q5090.46 1573.88 5085.07 1565.86 Q5079.72 1557.8 5079.72 1542.53 Q5079.72 1527.22 5085.07 1519.2 Q5090.46 1511.14 5100.62 1511.14 Z" fill="#000000" fill-rule="nonzero" fill-opacity="1"></path><path clip-path="url(#clip830)" d="M5151.99 1546.7 L5140.57 1583.65 L5133.68 1583.65 L5145.1 1546.7 L5133.68 1509.76 L5140.57 1509.76 L5151.99 1546.7 Z" fill="#000000" fill-rule="nonzero" fill-opacity="1"></path><path clip-path="url(#clip830)" d="M5379.46 1509.31 L5379.46 1592.28 L5372.58 1592.28 L5372.58 1509.31 L5379.46 1509.31 Z" fill="#000000" fill-rule="nonzero" fill-opacity="1"></path><path clip-path="url(#clip830)" d="M5400.29 1565.82 L5413.65 1565.82 L5413.65 1519.68 L5399.11 1522.6 L5399.11 1515.15 L5413.57 1512.23 L5421.76 1512.23 L5421.76 1565.82 L5435.12 1565.82 L5435.12 1572.71 L5400.29 1572.71 L5400.29 1565.82 Z" fill="#000000" fill-rule="nonzero" fill-opacity="1"></path><path clip-path="url(#clip830)" d="M5469.15 1517.62 Q5462.83 1517.62 5459.63 1523.86 Q5456.47 1530.05 5456.47 1542.53 Q5456.47 1554.97 5459.63 1561.21 Q5462.83 1567.4 5469.15 1567.4 Q5475.51 1567.4 5478.67 1561.21 Q5481.87 1554.97 5481.87 1542.53 Q5481.87 1530.05 5478.67 1523.86 Q5475.51 1517.62 5469.15 1517.62 M5469.15 1511.14 Q5479.32 1511.14 5484.67 1519.2 Q5490.05 1527.22 5490.05 1542.53 Q5490.05 1557.8 5484.67 1565.86 Q5479.32 1573.88 5469.15 1573.88 Q5458.98 1573.88 5453.6 1565.86 Q5448.25 1557.8 5448.25 1542.53 Q5448.25 1527.22 5453.6 1519.2 Q5458.98 1511.14 5469.15 1511.14 Z" fill="#000000" fill-rule="nonzero" fill-opacity="1"></path><path clip-path="url(#clip830)" d="M5505.85 1565.82 L5519.22 1565.82 L5519.22 1519.68 L5504.68 1522.6 L5504.68 1515.15 L5519.14 1512.23 L5527.32 1512.23 L5527.32 1565.82 L5540.69 1565.82 L5540.69 1572.71 L5505.85 1572.71 L5505.85 1565.82 Z" fill="#000000" fill-rule="nonzero" fill-opacity="1"></path><path clip-path="url(#clip830)" d="M5558.64 1565.82 L5572 1565.82 L5572 1519.68 L5557.46 1522.6 L5557.46 1515.15 L5571.92 1512.23 L5580.11 1512.23 L5580.11 1565.82 L5593.47 1565.82 L5593.47 1572.71 L5558.64 1572.71 L5558.64 1565.82 Z" fill="#000000" fill-rule="nonzero" fill-opacity="1"></path><path clip-path="url(#clip830)" d="M5626.08 1546.7 L5614.66 1583.65 L5607.77 1583.65 L5619.2 1546.7 L5607.77 1509.76 L5614.66 1509.76 L5626.08 1546.7 Z" fill="#000000" fill-rule="nonzero" fill-opacity="1"></path><path clip-path="url(#clip830)" d="M5853.56 1509.31 L5853.56 1592.28 L5846.67 1592.28 L5846.67 1509.31 L5853.56 1509.31 Z" fill="#000000" fill-rule="nonzero" fill-opacity="1"></path><path clip-path="url(#clip830)" d="M5874.38 1565.82 L5887.75 1565.82 L5887.75 1519.68 L5873.21 1522.6 L5873.21 1515.15 L5887.67 1512.23 L5895.85 1512.23 L5895.85 1565.82 L5909.22 1565.82 L5909.22 1572.71 L5874.38 1572.71 L5874.38 1565.82 Z" fill="#000000" fill-rule="nonzero" fill-opacity="1"></path><path clip-path="url(#clip830)" d="M5927.16 1565.82 L5940.53 1565.82 L5940.53 1519.68 L5925.99 1522.6 L5925.99 1515.15 L5940.45 1512.23 L5948.63 1512.23 L5948.63 1565.82 L5962 1565.82 L5962 1572.71 L5927.16 1572.71 L5927.16 1565.82 Z" fill="#000000" fill-rule="nonzero" fill-opacity="1"></path><path clip-path="url(#clip830)" d="M5996.03 1517.62 Q5989.71 1517.62 5986.51 1523.86 Q5983.35 1530.05 5983.35 1542.53 Q5983.35 1554.97 5986.51 1561.21 Q5989.71 1567.4 5996.03 1567.4 Q6002.39 1567.4 6005.55 1561.21 Q6008.75 1554.97 6008.75 1542.53 Q6008.75 1530.05 6005.55 1523.86 Q6002.39 1517.62 5996.03 1517.62 M5996.03 1511.14 Q6006.2 1511.14 6011.54 1519.2 Q6016.93 1527.22 6016.93 1542.53 Q6016.93 1557.8 6011.54 1565.86 Q6006.2 1573.88 5996.03 1573.88 Q5985.86 1573.88 5980.47 1565.86 Q5975.13 1557.8 5975.13 1542.53 Q5975.13 1527.22 5980.47 1519.2 Q5985.86 1511.14 5996.03 1511.14 Z" fill="#000000" fill-rule="nonzero" fill-opacity="1"></path><path clip-path="url(#clip830)" d="M6048.81 1517.62 Q6042.49 1517.62 6039.29 1523.86 Q6036.13 1530.05 6036.13 1542.53 Q6036.13 1554.97 6039.29 1561.21 Q6042.49 1567.4 6048.81 1567.4 Q6055.17 1567.4 6058.33 1561.21 Q6061.53 1554.97 6061.53 1542.53 Q6061.53 1530.05 6058.33 1523.86 Q6055.17 1517.62 6048.81 1517.62 M6048.81 1511.14 Q6058.98 1511.14 6064.33 1519.2 Q6069.72 1527.22 6069.72 1542.53 Q6069.72 1557.8 6064.33 1565.86 Q6058.98 1573.88 6048.81 1573.88 Q6038.64 1573.88 6033.26 1565.86 Q6027.91 1557.8 6027.91 1542.53 Q6027.91 1527.22 6033.26 1519.2 Q6038.64 1511.14 6048.81 1511.14 Z" fill="#000000" fill-rule="nonzero" fill-opacity="1"></path><path clip-path="url(#clip830)" d="M6100.18 1546.7 L6088.75 1583.65 L6081.87 1583.65 L6093.29 1546.7 L6081.87 1509.76 L6088.75 1509.76 L6100.18 1546.7 Z" fill="#000000" fill-rule="nonzero" fill-opacity="1"></path><path clip-path="url(#clip830)" d="M6327.65 1509.31 L6327.65 1592.28 L6320.77 1592.28 L6320.77 1509.31 L6327.65 1509.31 Z" fill="#000000" fill-rule="nonzero" fill-opacity="1"></path><path clip-path="url(#clip830)" d="M6348.48 1565.82 L6361.84 1565.82 L6361.84 1519.68 L6347.3 1522.6 L6347.3 1515.15 L6361.76 1512.23 L6369.94 1512.23 L6369.94 1565.82 L6383.31 1565.82 L6383.31 1572.71 L6348.48 1572.71 L6348.48 1565.82 Z" fill="#000000" fill-rule="nonzero" fill-opacity="1"></path><path clip-path="url(#clip830)" d="M6401.26 1565.82 L6414.63 1565.82 L6414.63 1519.68 L6400.08 1522.6 L6400.08 1515.15 L6414.55 1512.23 L6422.73 1512.23 L6422.73 1565.82 L6436.1 1565.82 L6436.1 1572.71 L6401.26 1572.71 L6401.26 1565.82 Z" fill="#000000" fill-rule="nonzero" fill-opacity="1"></path><path clip-path="url(#clip830)" d="M6470.12 1517.62 Q6463.8 1517.62 6460.6 1523.86 Q6457.44 1530.05 6457.44 1542.53 Q6457.44 1554.97 6460.6 1561.21 Q6463.8 1567.4 6470.12 1567.4 Q6476.48 1567.4 6479.64 1561.21 Q6482.84 1554.97 6482.84 1542.53 Q6482.84 1530.05 6479.64 1523.86 Q6476.48 1517.62 6470.12 1517.62 M6470.12 1511.14 Q6480.29 1511.14 6485.64 1519.2 Q6491.03 1527.22 6491.03 1542.53 Q6491.03 1557.8 6485.64 1565.86 Q6480.29 1573.88 6470.12 1573.88 Q6459.96 1573.88 6454.57 1565.86 Q6449.22 1557.8 6449.22 1542.53 Q6449.22 1527.22 6454.57 1519.2 Q6459.96 1511.14 6470.12 1511.14 Z" fill="#000000" fill-rule="nonzero" fill-opacity="1"></path><path clip-path="url(#clip830)" d="M6506.82 1565.82 L6520.19 1565.82 L6520.19 1519.68 L6505.65 1522.6 L6505.65 1515.15 L6520.11 1512.23 L6528.29 1512.23 L6528.29 1565.82 L6541.66 1565.82 L6541.66 1572.71 L6506.82 1572.71 L6506.82 1565.82 Z" fill="#000000" fill-rule="nonzero" fill-opacity="1"></path><path clip-path="url(#clip830)" d="M6574.27 1546.7 L6562.85 1583.65 L6555.96 1583.65 L6567.39 1546.7 L6555.96 1509.76 L6562.85 1509.76 L6574.27 1546.7 Z" fill="#000000" fill-rule="nonzero" fill-opacity="1"></path><path clip-path="url(#clip830)" d="M6801.75 1509.31 L6801.75 1592.28 L6794.86 1592.28 L6794.86 1509.31 L6801.75 1509.31 Z" fill="#000000" fill-rule="nonzero" fill-opacity="1"></path><path clip-path="url(#clip830)" d="M6822.57 1565.82 L6835.94 1565.82 L6835.94 1519.68 L6821.39 1522.6 L6821.39 1515.15 L6835.86 1512.23 L6844.04 1512.23 L6844.04 1565.82 L6857.41 1565.82 L6857.41 1572.71 L6822.57 1572.71 L6822.57 1565.82 Z" fill="#000000" fill-rule="nonzero" fill-opacity="1"></path><path clip-path="url(#clip830)" d="M6875.35 1565.82 L6888.72 1565.82 L6888.72 1519.68 L6874.18 1522.6 L6874.18 1515.15 L6888.64 1512.23 L6896.82 1512.23 L6896.82 1565.82 L6910.19 1565.82 L6910.19 1572.71 L6875.35 1572.71 L6875.35 1565.82 Z" fill="#000000" fill-rule="nonzero" fill-opacity="1"></path><path clip-path="url(#clip830)" d="M6928.14 1565.82 L6941.5 1565.82 L6941.5 1519.68 L6926.96 1522.6 L6926.96 1515.15 L6941.42 1512.23 L6949.61 1512.23 L6949.61 1565.82 L6962.97 1565.82 L6962.97 1572.71 L6928.14 1572.71 L6928.14 1565.82 Z" fill="#000000" fill-rule="nonzero" fill-opacity="1"></path><path clip-path="url(#clip830)" d="M6997 1517.62 Q6990.68 1517.62 6987.48 1523.86 Q6984.32 1530.05 6984.32 1542.53 Q6984.32 1554.97 6987.48 1561.21 Q6990.68 1567.4 6997 1567.4 Q7003.36 1567.4 7006.52 1561.21 Q7009.72 1554.97 7009.72 1542.53 Q7009.72 1530.05 7006.52 1523.86 Q7003.36 1517.62 6997 1517.62 M6997 1511.14 Q7007.17 1511.14 7012.52 1519.2 Q7017.9 1527.22 7017.9 1542.53 Q7017.9 1557.8 7012.52 1565.86 Q7007.17 1573.88 6997 1573.88 Q6986.83 1573.88 6981.45 1565.86 Q6976.1 1557.8 6976.1 1542.53 Q6976.1 1527.22 6981.45 1519.2 Q6986.83 1511.14 6997 1511.14 Z" fill="#000000" fill-rule="nonzero" fill-opacity="1"></path><path clip-path="url(#clip830)" d="M7048.37 1546.7 L7036.94 1583.65 L7030.06 1583.65 L7041.48 1546.7 L7030.06 1509.76 L7036.94 1509.76 L7048.37 1546.7 Z" fill="#000000" fill-rule="nonzero" fill-opacity="1"></path><path clip-path="url(#clip830)" d="M7275.84 1509.31 L7275.84 1592.28 L7268.96 1592.28 L7268.96 1509.31 L7275.84 1509.31 Z" fill="#000000" fill-rule="nonzero" fill-opacity="1"></path><path clip-path="url(#clip830)" d="M7296.66 1565.82 L7310.03 1565.82 L7310.03 1519.68 L7295.49 1522.6 L7295.49 1515.15 L7309.95 1512.23 L7318.13 1512.23 L7318.13 1565.82 L7331.5 1565.82 L7331.5 1572.71 L7296.66 1572.71 L7296.66 1565.82 Z" fill="#000000" fill-rule="nonzero" fill-opacity="1"></path><path clip-path="url(#clip830)" d="M7349.45 1565.82 L7362.82 1565.82 L7362.82 1519.68 L7348.27 1522.6 L7348.27 1515.15 L7362.73 1512.23 L7370.92 1512.23 L7370.92 1565.82 L7384.29 1565.82 L7384.29 1572.71 L7349.45 1572.71 L7349.45 1565.82 Z" fill="#000000" fill-rule="nonzero" fill-opacity="1"></path><path clip-path="url(#clip830)" d="M7402.23 1565.82 L7415.6 1565.82 L7415.6 1519.68 L7401.06 1522.6 L7401.06 1515.15 L7415.52 1512.23 L7423.7 1512.23 L7423.7 1565.82 L7437.07 1565.82 L7437.07 1572.71 L7402.23 1572.71 L7402.23 1565.82 Z" fill="#000000" fill-rule="nonzero" fill-opacity="1"></path><path clip-path="url(#clip830)" d="M7455.01 1565.82 L7468.38 1565.82 L7468.38 1519.68 L7453.84 1522.6 L7453.84 1515.15 L7468.3 1512.23 L7476.48 1512.23 L7476.48 1565.82 L7489.85 1565.82 L7489.85 1572.71 L7455.01 1572.71 L7455.01 1565.82 Z" fill="#000000" fill-rule="nonzero" fill-opacity="1"></path><path clip-path="url(#clip830)" d="M7522.46 1546.7 L7511.04 1583.65 L7504.15 1583.65 L7515.57 1546.7 L7504.15 1509.76 L7511.04 1509.76 L7522.46 1546.7 Z" fill="#000000" fill-rule="nonzero" fill-opacity="1"></path><circle clip-path="url(#clip832)" style="fill:#3da44d; stroke:none; fill-opacity:1" cx="284.291" cy="81.8921" r="2"></circle>
<circle clip-path="url(#clip832)" style="fill:#3da44d; stroke:none; fill-opacity:1" cx="758.386" cy="81.8921" r="2"></circle>
<circle clip-path="url(#clip832)" style="fill:#3da44d; stroke:none; fill-opacity:1" cx="1232.48" cy="81.8921" r="2"></circle>
<circle clip-path="url(#clip832)" style="fill:#3da44d; stroke:none; fill-opacity:1" cx="1706.57" cy="81.8921" r="2"></circle>
<circle clip-path="url(#clip832)" style="fill:#3da44d; stroke:none; fill-opacity:1" cx="2180.67" cy="81.8921" r="2"></circle>
<circle clip-path="url(#clip832)" style="fill:#3da44d; stroke:none; fill-opacity:1" cx="2654.76" cy="81.8921" r="2"></circle>
<circle clip-path="url(#clip832)" style="fill:#3da44d; stroke:none; fill-opacity:1" cx="3128.86" cy="81.8921" r="2"></circle>
<circle clip-path="url(#clip832)" style="fill:#3da44d; stroke:none; fill-opacity:1" cx="3602.95" cy="81.8921" r="2"></circle>
<circle clip-path="url(#clip832)" style="fill:#3da44d; stroke:none; fill-opacity:1" cx="4077.05" cy="81.8921" r="2"></circle>
<circle clip-path="url(#clip832)" style="fill:#3da44d; stroke:none; fill-opacity:1" cx="4551.14" cy="81.8921" r="2"></circle>
<circle clip-path="url(#clip832)" style="fill:#3da44d; stroke:none; fill-opacity:1" cx="5025.24" cy="81.8921" r="2"></circle>
<circle clip-path="url(#clip832)" style="fill:#3da44d; stroke:none; fill-opacity:1" cx="5499.33" cy="81.8921" r="2"></circle>
<circle clip-path="url(#clip832)" style="fill:#3da44d; stroke:none; fill-opacity:1" cx="5973.43" cy="81.8921" r="2"></circle>
<circle clip-path="url(#clip832)" style="fill:#3da44d; stroke:none; fill-opacity:1" cx="6447.52" cy="81.8921" r="2"></circle>
<circle clip-path="url(#clip832)" style="fill:#3da44d; stroke:none; fill-opacity:1" cx="6921.61" cy="81.8921" r="2"></circle>
<circle clip-path="url(#clip832)" style="fill:#3da44d; stroke:none; fill-opacity:1" cx="7395.71" cy="81.8921" r="2"></circle>
<path clip-path="url(#clip830)" d="M214.17 105.246 L227.538 105.246 L227.538 59.1058 L212.995 62.0224 L212.995 54.5688 L227.457 51.6521 L235.64 51.6521 L235.64 105.246 L249.008 105.246 L249.008 112.132 L214.17 112.132 L214.17 105.246 Z" fill="#000000" fill-rule="nonzero" fill-opacity="1"></path><path clip-path="url(#clip830)" d="M272.584 105.246 L301.143 105.246 L301.143 112.132 L262.741 112.132 L262.741 105.246 Q267.399 100.425 275.42 92.3232 Q283.481 84.1809 285.547 81.8314 Q289.476 77.4159 291.016 74.3777 Q292.596 71.299 292.596 68.3419 Q292.596 63.5213 289.193 60.4831 Q285.831 57.4449 280.402 57.4449 Q276.554 57.4449 272.26 58.7817 Q268.007 60.1185 263.146 62.8326 L263.146 54.5688 Q268.088 52.5838 272.382 51.5711 Q276.676 50.5584 280.24 50.5584 Q289.639 50.5584 295.229 55.2574 Q300.819 59.9565 300.819 67.8152 Q300.819 71.5421 299.401 74.9043 Q298.024 78.2261 294.338 82.7631 Q293.325 83.9378 287.897 89.5686 Q282.468 95.1588 272.584 105.246 Z" fill="#000000" fill-rule="nonzero" fill-opacity="1"></path><path clip-path="url(#clip830)" d="M343.11 79.5223 Q348.984 80.7781 352.266 84.748 Q355.587 88.7179 355.587 94.5512 Q355.587 103.504 349.43 108.405 Q343.273 113.307 331.93 113.307 Q328.122 113.307 324.071 112.537 Q320.061 111.808 315.767 110.309 L315.767 102.41 Q319.17 104.395 323.221 105.408 Q327.271 106.42 331.687 106.42 Q339.384 106.42 343.394 103.382 Q347.445 100.344 347.445 94.5512 Q347.445 89.204 343.678 86.2063 Q339.951 83.1682 333.267 83.1682 L326.218 83.1682 L326.218 76.4437 L333.591 76.4437 Q339.627 76.4437 342.827 74.0536 Q346.027 71.6231 346.027 67.0861 Q346.027 62.4275 342.705 59.9565 Q339.424 57.4449 333.267 57.4449 Q329.905 57.4449 326.056 58.1741 Q322.208 58.9032 317.59 60.4426 L317.59 53.151 Q322.248 51.8547 326.299 51.2065 Q330.391 50.5584 333.996 50.5584 Q343.313 50.5584 348.741 54.8118 Q354.169 59.0248 354.169 66.2354 Q354.169 71.2585 351.293 74.7423 Q348.417 78.1855 343.11 79.5223 Z" fill="#000000" fill-rule="nonzero" fill-opacity="1"></path><path clip-path="url(#clip830)" d="M758.386 57.0398 Q752.066 57.0398 748.866 63.2782 Q745.706 69.4761 745.706 81.9529 Q745.706 94.3892 748.866 100.628 Q752.066 106.825 758.386 106.825 Q764.746 106.825 767.905 100.628 Q771.106 94.3892 771.106 81.9529 Q771.106 69.4761 767.905 63.2782 Q764.746 57.0398 758.386 57.0398 M758.386 50.5584 Q768.554 50.5584 773.901 58.6197 Q779.288 66.6405 779.288 81.9529 Q779.288 97.2248 773.901 105.286 Q768.554 113.307 758.386 113.307 Q748.218 113.307 742.83 105.286 Q737.483 97.2248 737.483 81.9529 Q737.483 66.6405 742.83 58.6197 Q748.218 50.5584 758.386 50.5584 Z" fill="#000000" fill-rule="nonzero" fill-opacity="1"></path><path clip-path="url(#clip830)" d="M1232.48 57.0398 Q1226.16 57.0398 1222.96 63.2782 Q1219.8 69.4761 1219.8 81.9529 Q1219.8 94.3892 1222.96 100.628 Q1226.16 106.825 1232.48 106.825 Q1238.84 106.825 1242 100.628 Q1245.2 94.3892 1245.2 81.9529 Q1245.2 69.4761 1242 63.2782 Q1238.84 57.0398 1232.48 57.0398 M1232.48 50.5584 Q1242.65 50.5584 1248 58.6197 Q1253.38 66.6405 1253.38 81.9529 Q1253.38 97.2248 1248 105.286 Q1242.65 113.307 1232.48 113.307 Q1222.31 113.307 1216.92 105.286 Q1211.58 97.2248 1211.58 81.9529 Q1211.58 66.6405 1216.92 58.6197 Q1222.31 50.5584 1232.48 50.5584 Z" fill="#000000" fill-rule="nonzero" fill-opacity="1"></path><path clip-path="url(#clip830)" d="M1636.45 105.246 L1649.82 105.246 L1649.82 59.1058 L1635.28 62.0224 L1635.28 54.5688 L1649.74 51.6521 L1657.92 51.6521 L1657.92 105.246 L1671.29 105.246 L1671.29 112.132 L1636.45 112.132 L1636.45 105.246 Z" fill="#000000" fill-rule="nonzero" fill-opacity="1"></path><path clip-path="url(#clip830)" d="M1710.3 58.7817 L1689.64 91.0674 L1710.3 91.0674 L1710.3 58.7817 M1708.15 51.6521 L1718.44 51.6521 L1718.44 91.0674 L1727.07 91.0674 L1727.07 97.8729 L1718.44 97.8729 L1718.44 112.132 L1710.3 112.132 L1710.3 97.8729 L1683 97.8729 L1683 89.9737 L1708.15 51.6521 Z" fill="#000000" fill-rule="nonzero" fill-opacity="1"></path><path clip-path="url(#clip830)" d="M1765.39 79.5223 Q1771.27 80.7781 1774.55 84.748 Q1777.87 88.7179 1777.87 94.5512 Q1777.87 103.504 1771.71 108.405 Q1765.56 113.307 1754.21 113.307 Q1750.41 113.307 1746.35 112.537 Q1742.34 111.808 1738.05 110.309 L1738.05 102.41 Q1741.45 104.395 1745.5 105.408 Q1749.55 106.42 1753.97 106.42 Q1761.67 106.42 1765.68 103.382 Q1769.73 100.344 1769.73 94.5512 Q1769.73 89.204 1765.96 86.2063 Q1762.23 83.1682 1755.55 83.1682 L1748.5 83.1682 L1748.5 76.4437 L1755.87 76.4437 Q1761.91 76.4437 1765.11 74.0536 Q1768.31 71.6231 1768.31 67.0861 Q1768.31 62.4275 1764.99 59.9565 Q1761.71 57.4449 1755.55 57.4449 Q1752.19 57.4449 1748.34 58.1741 Q1744.49 58.9032 1739.87 60.4426 L1739.87 53.151 Q1744.53 51.8547 1748.58 51.2065 Q1752.67 50.5584 1756.28 50.5584 Q1765.6 50.5584 1771.02 54.8118 Q1776.45 59.0248 1776.45 66.2354 Q1776.45 71.2585 1773.58 74.7423 Q1770.7 78.1855 1765.39 79.5223 Z" fill="#000000" fill-rule="nonzero" fill-opacity="1"></path><path clip-path="url(#clip830)" d="M2156.2 78.6311 Q2150.69 78.6311 2147.45 82.3985 Q2144.25 86.1658 2144.25 92.7283 Q2144.25 99.2503 2147.45 103.058 Q2150.69 106.825 2156.2 106.825 Q2161.71 106.825 2164.91 103.058 Q2168.15 99.2503 2168.15 92.7283 Q2168.15 86.1658 2164.91 82.3985 Q2161.71 78.6311 2156.2 78.6311 M2172.45 52.9889 L2172.45 60.4426 Q2169.37 58.9843 2166.21 58.2146 Q2163.09 57.4449 2160.01 57.4449 Q2151.91 57.4449 2147.61 62.9136 Q2143.36 68.3824 2142.75 79.4413 Q2145.14 75.917 2148.75 74.0536 Q2152.35 72.1497 2156.69 72.1497 Q2165.8 72.1497 2171.07 77.6994 Q2176.38 83.2087 2176.38 92.7283 Q2176.38 102.045 2170.87 107.676 Q2165.36 113.307 2156.2 113.307 Q2145.71 113.307 2140.16 105.286 Q2134.61 97.2248 2134.61 81.9529 Q2134.61 67.6127 2141.42 59.1058 Q2148.22 50.5584 2159.69 50.5584 Q2162.76 50.5584 2165.88 51.166 Q2169.04 51.7737 2172.45 52.9889 Z" fill="#000000" fill-rule="nonzero" fill-opacity="1"></path><path clip-path="url(#clip830)" d="M2191.89 105.246 L2205.26 105.246 L2205.26 59.1058 L2190.72 62.0224 L2190.72 54.5688 L2205.18 51.6521 L2213.36 51.6521 L2213.36 105.246 L2226.73 105.246 L2226.73 112.132 L2191.89 112.132 L2191.89 105.246 Z" fill="#000000" fill-rule="nonzero" fill-opacity="1"></path><path clip-path="url(#clip830)" d="M2610.35 51.6521 L2642.47 51.6521 L2642.47 58.5387 L2617.84 58.5387 L2617.84 73.365 Q2619.62 72.7573 2621.4 72.4738 Q2623.19 72.1497 2624.97 72.1497 Q2635.1 72.1497 2641.01 77.6994 Q2646.93 83.2492 2646.93 92.7283 Q2646.93 102.491 2640.85 107.919 Q2634.77 113.307 2623.71 113.307 Q2619.91 113.307 2615.94 112.659 Q2612.01 112.011 2607.79 110.714 L2607.79 102.491 Q2611.44 104.476 2615.33 105.448 Q2619.22 106.42 2623.55 106.42 Q2630.56 106.42 2634.65 102.734 Q2638.74 99.0477 2638.74 92.7283 Q2638.74 86.4089 2634.65 82.7226 Q2630.56 79.0362 2623.55 79.0362 Q2620.27 79.0362 2616.99 79.7654 Q2613.75 80.4946 2610.35 82.0339 L2610.35 51.6521 Z" fill="#000000" fill-rule="nonzero" fill-opacity="1"></path><path clip-path="url(#clip830)" d="M2681.56 78.6311 Q2676.05 78.6311 2672.81 82.3985 Q2669.61 86.1658 2669.61 92.7283 Q2669.61 99.2503 2672.81 103.058 Q2676.05 106.825 2681.56 106.825 Q2687.07 106.825 2690.27 103.058 Q2693.51 99.2503 2693.51 92.7283 Q2693.51 86.1658 2690.27 82.3985 Q2687.07 78.6311 2681.56 78.6311 M2697.8 52.9889 L2697.8 60.4426 Q2694.73 58.9843 2691.57 58.2146 Q2688.45 57.4449 2685.37 57.4449 Q2677.27 57.4449 2672.97 62.9136 Q2668.72 68.3824 2668.11 79.4413 Q2670.5 75.917 2674.11 74.0536 Q2677.71 72.1497 2682.05 72.1497 Q2691.16 72.1497 2696.43 77.6994 Q2701.73 83.2087 2701.73 92.7283 Q2701.73 102.045 2696.22 107.676 Q2690.72 113.307 2681.56 113.307 Q2671.07 113.307 2665.52 105.286 Q2659.97 97.2248 2659.97 81.9529 Q2659.97 67.6127 2666.77 59.1058 Q2673.58 50.5584 2685.04 50.5584 Q2688.12 50.5584 2691.24 51.166 Q2694.4 51.7737 2697.8 52.9889 Z" fill="#000000" fill-rule="nonzero" fill-opacity="1"></path><path clip-path="url(#clip830)" d="M3108.24 58.7817 L3087.58 91.0674 L3108.24 91.0674 L3108.24 58.7817 M3106.09 51.6521 L3116.38 51.6521 L3116.38 91.0674 L3125.01 91.0674 L3125.01 97.8729 L3116.38 97.8729 L3116.38 112.132 L3108.24 112.132 L3108.24 97.8729 L3080.94 97.8729 L3080.94 89.9737 L3106.09 51.6521 Z" fill="#000000" fill-rule="nonzero" fill-opacity="1"></path><path clip-path="url(#clip830)" d="M3156.04 83.4112 Q3150.21 83.4112 3146.84 86.5304 Q3143.52 89.6496 3143.52 95.1183 Q3143.52 100.587 3146.84 103.706 Q3150.21 106.825 3156.04 106.825 Q3161.87 106.825 3165.24 103.706 Q3168.6 100.547 3168.6 95.1183 Q3168.6 89.6496 3165.24 86.5304 Q3161.91 83.4112 3156.04 83.4112 M3147.86 79.9274 Q3142.59 78.6311 3139.63 75.0258 Q3136.72 71.4205 3136.72 66.2354 Q3136.72 58.9843 3141.86 54.7713 Q3147.05 50.5584 3156.04 50.5584 Q3165.07 50.5584 3170.22 54.7713 Q3175.36 58.9843 3175.36 66.2354 Q3175.36 71.4205 3172.41 75.0258 Q3169.49 78.6311 3164.26 79.9274 Q3170.18 81.3047 3173.46 85.3151 Q3176.78 89.3255 3176.78 95.1183 Q3176.78 103.909 3171.39 108.608 Q3166.05 113.307 3156.04 113.307 Q3146.03 113.307 3140.65 108.608 Q3135.3 103.909 3135.3 95.1183 Q3135.3 89.3255 3138.62 85.3151 Q3141.94 81.3047 3147.86 79.9274 M3144.86 67.0051 Q3144.86 71.7041 3147.78 74.3372 Q3150.73 76.9703 3156.04 76.9703 Q3161.31 76.9703 3164.26 74.3372 Q3167.26 71.7041 3167.26 67.0051 Q3167.26 62.306 3164.26 59.6729 Q3161.31 57.0398 3156.04 57.0398 Q3150.73 57.0398 3147.78 59.6729 Q3144.86 62.306 3144.86 67.0051 Z" fill="#000000" fill-rule="nonzero" fill-opacity="1"></path><path clip-path="url(#clip830)" d="M3556.89 51.6521 L3595.78 51.6521 L3595.78 55.1359 L3573.83 112.132 L3565.28 112.132 L3585.94 58.5387 L3556.89 58.5387 L3556.89 51.6521 Z" fill="#000000" fill-rule="nonzero" fill-opacity="1"></path><path clip-path="url(#clip830)" d="M3636.53 79.5223 Q3642.41 80.7781 3645.69 84.748 Q3649.01 88.7179 3649.01 94.5512 Q3649.01 103.504 3642.85 108.405 Q3636.7 113.307 3625.35 113.307 Q3621.55 113.307 3617.5 112.537 Q3613.49 111.808 3609.19 110.309 L3609.19 102.41 Q3612.59 104.395 3616.64 105.408 Q3620.7 106.42 3625.11 106.42 Q3632.81 106.42 3636.82 103.382 Q3640.87 100.344 3640.87 94.5512 Q3640.87 89.204 3637.1 86.2063 Q3633.38 83.1682 3626.69 83.1682 L3619.64 83.1682 L3619.64 76.4437 L3627.02 76.4437 Q3633.05 76.4437 3636.25 74.0536 Q3639.45 71.6231 3639.45 67.0861 Q3639.45 62.4275 3636.13 59.9565 Q3632.85 57.4449 3626.69 57.4449 Q3623.33 57.4449 3619.48 58.1741 Q3615.63 58.9032 3611.01 60.4426 L3611.01 53.151 Q3615.67 51.8547 3619.72 51.2065 Q3623.81 50.5584 3627.42 50.5584 Q3636.74 50.5584 3642.17 54.8118 Q3647.59 59.0248 3647.59 66.2354 Q3647.59 71.2585 3644.72 74.7423 Q3641.84 78.1855 3636.53 79.5223 Z" fill="#000000" fill-rule="nonzero" fill-opacity="1"></path><path clip-path="url(#clip830)" d="M4006.22 105.246 L4019.59 105.246 L4019.59 59.1058 L4005.04 62.0224 L4005.04 54.5688 L4019.5 51.6521 L4027.69 51.6521 L4027.69 105.246 L4041.05 105.246 L4041.05 112.132 L4006.22 112.132 L4006.22 105.246 Z" fill="#000000" fill-rule="nonzero" fill-opacity="1"></path><path clip-path="url(#clip830)" d="M4075.08 57.0398 Q4068.76 57.0398 4065.56 63.2782 Q4062.4 69.4761 4062.4 81.9529 Q4062.4 94.3892 4065.56 100.628 Q4068.76 106.825 4075.08 106.825 Q4081.44 106.825 4084.6 100.628 Q4087.8 94.3892 4087.8 81.9529 Q4087.8 69.4761 4084.6 63.2782 Q4081.44 57.0398 4075.08 57.0398 M4075.08 50.5584 Q4085.25 50.5584 4090.6 58.6197 Q4095.99 66.6405 4095.99 81.9529 Q4095.99 97.2248 4090.6 105.286 Q4085.25 113.307 4075.08 113.307 Q4064.91 113.307 4059.53 105.286 Q4054.18 97.2248 4054.18 81.9529 Q4054.18 66.6405 4059.53 58.6197 Q4064.91 50.5584 4075.08 50.5584 Z" fill="#000000" fill-rule="nonzero" fill-opacity="1"></path><path clip-path="url(#clip830)" d="M4128.88 78.6311 Q4123.37 78.6311 4120.13 82.3985 Q4116.93 86.1658 4116.93 92.7283 Q4116.93 99.2503 4120.13 103.058 Q4123.37 106.825 4128.88 106.825 Q4134.39 106.825 4137.59 103.058 Q4140.83 99.2503 4140.83 92.7283 Q4140.83 86.1658 4137.59 82.3985 Q4134.39 78.6311 4128.88 78.6311 M4145.12 52.9889 L4145.12 60.4426 Q4142.04 58.9843 4138.88 58.2146 Q4135.77 57.4449 4132.69 57.4449 Q4124.58 57.4449 4120.29 62.9136 Q4116.04 68.3824 4115.43 79.4413 Q4117.82 75.917 4121.42 74.0536 Q4125.03 72.1497 4129.36 72.1497 Q4138.48 72.1497 4143.75 77.6994 Q4149.05 83.2087 4149.05 92.7283 Q4149.05 102.045 4143.54 107.676 Q4138.03 113.307 4128.88 113.307 Q4118.39 113.307 4112.84 105.286 Q4107.29 97.2248 4107.29 81.9529 Q4107.29 67.6127 4114.09 59.1058 Q4120.9 50.5584 4132.36 50.5584 Q4135.44 50.5584 4138.56 51.166 Q4141.72 51.7737 4145.12 52.9889 Z" fill="#000000" fill-rule="nonzero" fill-opacity="1"></path><path clip-path="url(#clip830)" d="M4508.24 105.246 L4521.61 105.246 L4521.61 59.1058 L4507.07 62.0224 L4507.07 54.5688 L4521.53 51.6521 L4529.71 51.6521 L4529.71 105.246 L4543.08 105.246 L4543.08 112.132 L4508.24 112.132 L4508.24 105.246 Z" fill="#000000" fill-rule="nonzero" fill-opacity="1"></path><path clip-path="url(#clip830)" d="M4566.66 105.246 L4595.22 105.246 L4595.22 112.132 L4556.81 112.132 L4556.81 105.246 Q4561.47 100.425 4569.49 92.3232 Q4577.55 84.1809 4579.62 81.8314 Q4583.55 77.4159 4585.09 74.3777 Q4586.67 71.299 4586.67 68.3419 Q4586.67 63.5213 4583.27 60.4831 Q4579.9 57.4449 4574.47 57.4449 Q4570.63 57.4449 4566.33 58.7817 Q4562.08 60.1185 4557.22 62.8326 L4557.22 54.5688 Q4562.16 52.5838 4566.45 51.5711 Q4570.75 50.5584 4574.31 50.5584 Q4583.71 50.5584 4589.3 55.2574 Q4594.89 59.9565 4594.89 67.8152 Q4594.89 71.5421 4593.47 74.9043 Q4592.1 78.2261 4588.41 82.7631 Q4587.4 83.9378 4581.97 89.5686 Q4576.54 95.1588 4566.66 105.246 Z" fill="#000000" fill-rule="nonzero" fill-opacity="1"></path><path clip-path="url(#clip830)" d="M4981.81 105.246 L4995.18 105.246 L4995.18 59.1058 L4980.64 62.0224 L4980.64 54.5688 L4995.1 51.6521 L5003.28 51.6521 L5003.28 105.246 L5016.65 105.246 L5016.65 112.132 L4981.81 112.132 L4981.81 105.246 Z" fill="#000000" fill-rule="nonzero" fill-opacity="1"></path><path clip-path="url(#clip830)" d="M5033.26 51.6521 L5065.38 51.6521 L5065.38 58.5387 L5040.75 58.5387 L5040.75 73.365 Q5042.53 72.7573 5044.32 72.4738 Q5046.1 72.1497 5047.88 72.1497 Q5058.01 72.1497 5063.92 77.6994 Q5069.84 83.2492 5069.84 92.7283 Q5069.84 102.491 5063.76 107.919 Q5057.68 113.307 5046.62 113.307 Q5042.82 113.307 5038.85 112.659 Q5034.92 112.011 5030.7 110.714 L5030.7 102.491 Q5034.35 104.476 5038.24 105.448 Q5042.13 106.42 5046.46 106.42 Q5053.47 106.42 5057.56 102.734 Q5061.65 99.0477 5061.65 92.7283 Q5061.65 86.4089 5057.56 82.7226 Q5053.47 79.0362 5046.46 79.0362 Q5043.18 79.0362 5039.9 79.7654 Q5036.66 80.4946 5033.26 82.0339 L5033.26 51.6521 Z" fill="#000000" fill-rule="nonzero" fill-opacity="1"></path><path clip-path="url(#clip830)" d="M5429.51 105.246 L5442.88 105.246 L5442.88 59.1058 L5428.34 62.0224 L5428.34 54.5688 L5442.8 51.6521 L5450.98 51.6521 L5450.98 105.246 L5464.35 105.246 L5464.35 112.132 L5429.51 112.132 L5429.51 105.246 Z" fill="#000000" fill-rule="nonzero" fill-opacity="1"></path><path clip-path="url(#clip830)" d="M5498.38 57.0398 Q5492.06 57.0398 5488.86 63.2782 Q5485.7 69.4761 5485.7 81.9529 Q5485.7 94.3892 5488.86 100.628 Q5492.06 106.825 5498.38 106.825 Q5504.74 106.825 5507.9 100.628 Q5511.1 94.3892 5511.1 81.9529 Q5511.1 69.4761 5507.9 63.2782 Q5504.74 57.0398 5498.38 57.0398 M5498.38 50.5584 Q5508.55 50.5584 5513.89 58.6197 Q5519.28 66.6405 5519.28 81.9529 Q5519.28 97.2248 5513.89 105.286 Q5508.55 113.307 5498.38 113.307 Q5488.21 113.307 5482.82 105.286 Q5477.48 97.2248 5477.48 81.9529 Q5477.48 66.6405 5482.82 58.6197 Q5488.21 50.5584 5498.38 50.5584 Z" fill="#000000" fill-rule="nonzero" fill-opacity="1"></path><path clip-path="url(#clip830)" d="M5533.74 51.6521 L5565.87 51.6521 L5565.87 58.5387 L5541.24 58.5387 L5541.24 73.365 Q5543.02 72.7573 5544.8 72.4738 Q5546.58 72.1497 5548.37 72.1497 Q5558.49 72.1497 5564.41 77.6994 Q5570.32 83.2492 5570.32 92.7283 Q5570.32 102.491 5564.25 107.919 Q5558.17 113.307 5547.11 113.307 Q5543.3 113.307 5539.33 112.659 Q5535.4 112.011 5531.19 110.714 L5531.19 102.491 Q5534.84 104.476 5538.73 105.448 Q5542.61 106.42 5546.95 106.42 Q5553.96 106.42 5558.05 102.734 Q5562.14 99.0477 5562.14 92.7283 Q5562.14 86.4089 5558.05 82.7226 Q5553.96 79.0362 5546.95 79.0362 Q5543.67 79.0362 5540.39 79.7654 Q5537.15 80.4946 5533.74 82.0339 L5533.74 51.6521 Z" fill="#000000" fill-rule="nonzero" fill-opacity="1"></path><path clip-path="url(#clip830)" d="M5929.29 105.246 L5942.66 105.246 L5942.66 59.1058 L5928.12 62.0224 L5928.12 54.5688 L5942.58 51.6521 L5950.76 51.6521 L5950.76 105.246 L5964.13 105.246 L5964.13 112.132 L5929.29 112.132 L5929.29 105.246 Z" fill="#000000" fill-rule="nonzero" fill-opacity="1"></path><path clip-path="url(#clip830)" d="M5980.9 110.876 L5980.9 103.423 Q5983.98 104.881 5987.14 105.651 Q5990.3 106.42 5993.34 106.42 Q6001.44 106.42 6005.69 100.992 Q6009.98 95.5234 6010.59 84.4239 Q6008.24 87.9077 6004.64 89.7711 Q6001.03 91.6346 5996.66 91.6346 Q5987.58 91.6346 5982.28 86.1658 Q5977.01 80.6566 5977.01 71.137 Q5977.01 61.8199 5982.52 56.1891 Q5988.03 50.5584 5997.18 50.5584 Q6007.68 50.5584 6013.18 58.6197 Q6018.73 66.6405 6018.73 81.9529 Q6018.73 96.2526 6011.93 104.8 Q6005.16 113.307 5993.7 113.307 Q5990.62 113.307 5987.46 112.699 Q5984.3 112.092 5980.9 110.876 M5997.18 85.2341 Q6002.69 85.2341 6005.89 81.4668 Q6009.13 77.6994 6009.13 71.137 Q6009.13 64.615 6005.89 60.8477 Q6002.69 57.0398 5997.18 57.0398 Q5991.67 57.0398 5988.43 60.8477 Q5985.23 64.615 5985.23 71.137 Q5985.23 77.6994 5988.43 81.4668 Q5991.67 85.2341 5997.18 85.2341 Z" fill="#000000" fill-rule="nonzero" fill-opacity="1"></path><path clip-path="url(#clip830)" d="M6404.78 110.876 L6404.78 103.423 Q6407.86 104.881 6411.02 105.651 Q6414.18 106.42 6417.22 106.42 Q6425.32 106.42 6429.57 100.992 Q6433.87 95.5234 6434.48 84.4239 Q6432.13 87.9077 6428.52 89.7711 Q6424.92 91.6346 6420.54 91.6346 Q6411.47 91.6346 6406.16 86.1658 Q6400.89 80.6566 6400.89 71.137 Q6400.89 61.8199 6406.4 56.1891 Q6411.91 50.5584 6421.07 50.5584 Q6431.56 50.5584 6437.07 58.6197 Q6442.62 66.6405 6442.62 81.9529 Q6442.62 96.2526 6435.81 104.8 Q6429.05 113.307 6417.58 113.307 Q6414.5 113.307 6411.35 112.699 Q6408.19 112.092 6404.78 110.876 M6421.07 85.2341 Q6426.58 85.2341 6429.78 81.4668 Q6433.02 77.6994 6433.02 71.137 Q6433.02 64.615 6429.78 60.8477 Q6426.58 57.0398 6421.07 57.0398 Q6415.56 57.0398 6412.32 60.8477 Q6409.12 64.615 6409.12 71.137 Q6409.12 77.6994 6412.32 81.4668 Q6415.56 85.2341 6421.07 85.2341 Z" fill="#000000" fill-rule="nonzero" fill-opacity="1"></path><path clip-path="url(#clip830)" d="M6455.26 51.6521 L6494.15 51.6521 L6494.15 55.1359 L6472.19 112.132 L6463.64 112.132 L6484.3 58.5387 L6455.26 58.5387 L6455.26 51.6521 Z" fill="#000000" fill-rule="nonzero" fill-opacity="1"></path><path clip-path="url(#clip830)" d="M6885.34 105.246 L6913.9 105.246 L6913.9 112.132 L6875.49 112.132 L6875.49 105.246 Q6880.15 100.425 6888.17 92.3232 Q6896.24 84.1809 6898.3 81.8314 Q6902.23 77.4159 6903.77 74.3777 Q6905.35 71.299 6905.35 68.3419 Q6905.35 63.5213 6901.95 60.4831 Q6898.58 57.4449 6893.16 57.4449 Q6889.31 57.4449 6885.01 58.7817 Q6880.76 60.1185 6875.9 62.8326 L6875.9 54.5688 Q6880.84 52.5838 6885.14 51.5711 Q6889.43 50.5584 6892.99 50.5584 Q6902.39 50.5584 6907.98 55.2574 Q6913.57 59.9565 6913.57 67.8152 Q6913.57 71.5421 6912.16 74.9043 Q6910.78 78.2261 6907.09 82.7631 Q6906.08 83.9378 6900.65 89.5686 Q6895.22 95.1588 6885.34 105.246 Z" fill="#000000" fill-rule="nonzero" fill-opacity="1"></path><path clip-path="url(#clip830)" d="M6931.15 51.6521 L6963.28 51.6521 L6963.28 58.5387 L6938.65 58.5387 L6938.65 73.365 Q6940.43 72.7573 6942.21 72.4738 Q6944 72.1497 6945.78 72.1497 Q6955.91 72.1497 6961.82 77.6994 Q6967.73 83.2492 6967.73 92.7283 Q6967.73 102.491 6961.66 107.919 Q6955.58 113.307 6944.52 113.307 Q6940.71 113.307 6936.74 112.659 Q6932.81 112.011 6928.6 110.714 L6928.6 102.491 Q6932.25 104.476 6936.14 105.448 Q6940.03 106.42 6944.36 106.42 Q6951.37 106.42 6955.46 102.734 Q6959.55 99.0477 6959.55 92.7283 Q6959.55 86.4089 6955.46 82.7226 Q6951.37 79.0362 6944.36 79.0362 Q6941.08 79.0362 6937.8 79.7654 Q6934.56 80.4946 6931.15 82.0339 L6931.15 51.6521 Z" fill="#000000" fill-rule="nonzero" fill-opacity="1"></path><path clip-path="url(#clip830)" d="M7325.81 105.246 L7339.18 105.246 L7339.18 59.1058 L7324.64 62.0224 L7324.64 54.5688 L7339.1 51.6521 L7347.28 51.6521 L7347.28 105.246 L7360.65 105.246 L7360.65 112.132 L7325.81 112.132 L7325.81 105.246 Z" fill="#000000" fill-rule="nonzero" fill-opacity="1"></path><path clip-path="url(#clip830)" d="M7378.59 105.246 L7391.96 105.246 L7391.96 59.1058 L7377.42 62.0224 L7377.42 54.5688 L7391.88 51.6521 L7400.06 51.6521 L7400.06 105.246 L7413.43 105.246 L7413.43 112.132 L7378.59 112.132 L7378.59 105.246 Z" fill="#000000" fill-rule="nonzero" fill-opacity="1"></path><path clip-path="url(#clip830)" d="M7427.89 51.6521 L7466.78 51.6521 L7466.78 55.1359 L7444.83 112.132 L7436.28 112.132 L7456.94 58.5387 L7427.89 58.5387 L7427.89 51.6521 Z" fill="#000000" fill-rule="nonzero" fill-opacity="1"></path><path clip-path="url(#clip830)" d="M6169.37 234.601 L7379.91 234.601 L7379.91 130.921 L6169.37 130.921  Z" fill="#000000" fill-rule="evenodd" fill-opacity="0"></path>
<polyline clip-path="url(#clip830)" style="stroke:#000000; stroke-linecap:round; stroke-linejoin:round; stroke-width:4; stroke-opacity:0; fill:none" points="6169.37,234.601 7379.91,234.601 7379.91,130.921 6169.37,130.921 6169.37,234.601 "></polyline>
<path clip-path="url(#clip830)" d="M6253.65 203.497 L6759.35 203.497 L6759.35 162.025 L6253.65 162.025 L6253.65 203.497  Z" fill="#add8e6" fill-rule="evenodd" fill-opacity="1"></path>
<polyline clip-path="url(#clip830)" style="stroke:#add8e6; stroke-linecap:round; stroke-linejoin:round; stroke-width:4; stroke-opacity:1; fill:none" points="6253.65,203.497 6759.35,203.497 6759.35,162.025 6253.65,162.025 6253.65,203.497 "></polyline>
<path clip-path="url(#clip830)" d="M6843.63 165.481 L6863.49 165.481 L6863.49 169.416 L6848.31 169.416 L6848.31 179.601 L6862.01 179.601 L6862.01 183.536 L6848.31 183.536 L6848.31 200.041 L6843.63 200.041 L6843.63 165.481 Z" fill="#000000" fill-rule="nonzero" fill-opacity="1"></path><path clip-path="url(#clip830)" d="M6879.07 177.101 Q6875.65 177.101 6873.66 179.786 Q6871.67 182.448 6871.67 187.101 Q6871.67 191.754 6873.63 194.439 Q6875.62 197.101 6879.07 197.101 Q6882.48 197.101 6884.47 194.416 Q6886.46 191.731 6886.46 187.101 Q6886.46 182.495 6884.47 179.81 Q6882.48 177.101 6879.07 177.101 M6879.07 173.49 Q6884.63 173.49 6887.8 177.101 Q6890.97 180.712 6890.97 187.101 Q6890.97 193.467 6887.8 197.101 Q6884.63 200.712 6879.07 200.712 Q6873.49 200.712 6870.32 197.101 Q6867.18 193.467 6867.18 187.101 Q6867.18 180.712 6870.32 177.101 Q6873.49 173.49 6879.07 173.49 Z" fill="#000000" fill-rule="nonzero" fill-opacity="1"></path><path clip-path="url(#clip830)" d="M6897.59 189.809 L6897.59 174.115 L6901.85 174.115 L6901.85 189.647 Q6901.85 193.328 6903.29 195.18 Q6904.72 197.009 6907.59 197.009 Q6911.04 197.009 6913.03 194.809 Q6915.05 192.61 6915.05 188.814 L6915.05 174.115 L6919.3 174.115 L6919.3 200.041 L6915.05 200.041 L6915.05 196.059 Q6913.49 198.421 6911.43 199.578 Q6909.4 200.712 6906.69 200.712 Q6902.22 200.712 6899.91 197.934 Q6897.59 195.157 6897.59 189.809 M6908.31 173.49 L6908.31 173.49 Z" fill="#000000" fill-rule="nonzero" fill-opacity="1"></path><path clip-path="url(#clip830)" d="M6949.63 184.393 L6949.63 200.041 L6945.37 200.041 L6945.37 184.532 Q6945.37 180.851 6943.93 179.023 Q6942.5 177.194 6939.63 177.194 Q6936.18 177.194 6934.19 179.393 Q6932.2 181.592 6932.2 185.388 L6932.2 200.041 L6927.92 200.041 L6927.92 174.115 L6932.2 174.115 L6932.2 178.143 Q6933.73 175.805 6935.79 174.648 Q6937.87 173.49 6940.58 173.49 Q6945.05 173.49 6947.34 176.268 Q6949.63 179.023 6949.63 184.393 Z" fill="#000000" fill-rule="nonzero" fill-opacity="1"></path><path clip-path="url(#clip830)" d="M6975.18 178.05 L6975.18 164.023 L6979.44 164.023 L6979.44 200.041 L6975.18 200.041 L6975.18 196.152 Q6973.84 198.467 6971.78 199.601 Q6969.74 200.712 6966.87 200.712 Q6962.17 200.712 6959.21 196.962 Q6956.27 193.212 6956.27 187.101 Q6956.27 180.99 6959.21 177.24 Q6962.17 173.49 6966.87 173.49 Q6969.74 173.49 6971.78 174.624 Q6973.84 175.735 6975.18 178.05 M6960.67 187.101 Q6960.67 191.8 6962.59 194.485 Q6964.54 197.147 6967.92 197.147 Q6971.3 197.147 6973.24 194.485 Q6975.18 191.8 6975.18 187.101 Q6975.18 182.402 6973.24 179.74 Q6971.3 177.055 6967.92 177.055 Q6964.54 177.055 6962.59 179.74 Q6960.67 182.402 6960.67 187.101 Z" fill="#000000" fill-rule="nonzero" fill-opacity="1"></path><path clip-path="url(#clip830)" d="M7003.29 174.115 L7007.54 174.115 L7007.54 200.041 L7003.29 200.041 L7003.29 174.115 M7003.29 164.023 L7007.54 164.023 L7007.54 169.416 L7003.29 169.416 L7003.29 164.023 Z" fill="#000000" fill-rule="nonzero" fill-opacity="1"></path><path clip-path="url(#clip830)" d="M7038.01 184.393 L7038.01 200.041 L7033.75 200.041 L7033.75 184.532 Q7033.75 180.851 7032.31 179.023 Q7030.88 177.194 7028.01 177.194 Q7024.56 177.194 7022.57 179.393 Q7020.58 181.592 7020.58 185.388 L7020.58 200.041 L7016.29 200.041 L7016.29 174.115 L7020.58 174.115 L7020.58 178.143 Q7022.1 175.805 7024.17 174.648 Q7026.25 173.49 7028.96 173.49 Q7033.42 173.49 7035.72 176.268 Q7038.01 179.023 7038.01 184.393 Z" fill="#000000" fill-rule="nonzero" fill-opacity="1"></path><path clip-path="url(#clip830)" d="M7062.98 196.106 L7070.62 196.106 L7070.62 169.74 L7062.31 171.407 L7062.31 167.148 L7070.58 165.481 L7075.25 165.481 L7075.25 196.106 L7082.89 196.106 L7082.89 200.041 L7062.98 200.041 L7062.98 196.106 Z" fill="#000000" fill-rule="nonzero" fill-opacity="1"></path><path clip-path="url(#clip830)" d="M7102.34 168.56 Q7098.72 168.56 7096.9 172.124 Q7095.09 175.666 7095.09 182.796 Q7095.09 189.902 7096.9 193.467 Q7098.72 197.009 7102.34 197.009 Q7105.97 197.009 7107.78 193.467 Q7109.6 189.902 7109.6 182.796 Q7109.6 175.666 7107.78 172.124 Q7105.97 168.56 7102.34 168.56 M7102.34 164.856 Q7108.15 164.856 7111.2 169.462 Q7114.28 174.046 7114.28 182.796 Q7114.28 191.522 7111.2 196.129 Q7108.15 200.712 7102.34 200.712 Q7096.53 200.712 7093.45 196.129 Q7090.39 191.522 7090.39 182.796 Q7090.39 174.046 7093.45 169.462 Q7096.53 164.856 7102.34 164.856 Z" fill="#000000" fill-rule="nonzero" fill-opacity="1"></path><path clip-path="url(#clip830)" d="M7132.5 168.56 Q7128.89 168.56 7127.06 172.124 Q7125.25 175.666 7125.25 182.796 Q7125.25 189.902 7127.06 193.467 Q7128.89 197.009 7132.5 197.009 Q7136.13 197.009 7137.94 193.467 Q7139.77 189.902 7139.77 182.796 Q7139.77 175.666 7137.94 172.124 Q7136.13 168.56 7132.5 168.56 M7132.5 164.856 Q7138.31 164.856 7141.36 169.462 Q7144.44 174.046 7144.44 182.796 Q7144.44 191.522 7141.36 196.129 Q7138.31 200.712 7132.5 200.712 Q7126.69 200.712 7123.61 196.129 Q7120.55 191.522 7120.55 182.796 Q7120.55 174.046 7123.61 169.462 Q7126.69 164.856 7132.5 164.856 Z" fill="#000000" fill-rule="nonzero" fill-opacity="1"></path><path clip-path="url(#clip830)" d="M7162.66 168.56 Q7159.05 168.56 7157.22 172.124 Q7155.41 175.666 7155.41 182.796 Q7155.41 189.902 7157.22 193.467 Q7159.05 197.009 7162.66 197.009 Q7166.29 197.009 7168.1 193.467 Q7169.93 189.902 7169.93 182.796 Q7169.93 175.666 7168.1 172.124 Q7166.29 168.56 7162.66 168.56 M7162.66 164.856 Q7168.47 164.856 7171.53 169.462 Q7174.6 174.046 7174.6 182.796 Q7174.6 191.522 7171.53 196.129 Q7168.47 200.712 7162.66 200.712 Q7156.85 200.712 7153.77 196.129 Q7150.72 191.522 7150.72 182.796 Q7150.72 174.046 7153.77 169.462 Q7156.85 164.856 7162.66 164.856 Z" fill="#000000" fill-rule="nonzero" fill-opacity="1"></path><path clip-path="url(#clip830)" d="M7201.5 166.754 L7201.5 174.115 L7210.28 174.115 L7210.28 177.425 L7201.5 177.425 L7201.5 191.499 Q7201.5 194.671 7202.36 195.573 Q7203.24 196.476 7205.9 196.476 L7210.28 196.476 L7210.28 200.041 L7205.9 200.041 Q7200.97 200.041 7199.09 198.212 Q7197.22 196.36 7197.22 191.499 L7197.22 177.425 L7194.09 177.425 L7194.09 174.115 L7197.22 174.115 L7197.22 166.754 L7201.5 166.754 Z" fill="#000000" fill-rule="nonzero" fill-opacity="1"></path><path clip-path="url(#clip830)" d="M7230.9 178.097 Q7230.18 177.68 7229.33 177.495 Q7228.49 177.286 7227.47 177.286 Q7223.86 177.286 7221.92 179.648 Q7220 181.985 7220 186.384 L7220 200.041 L7215.72 200.041 L7215.72 174.115 L7220 174.115 L7220 178.143 Q7221.34 175.782 7223.49 174.648 Q7225.65 173.49 7228.72 173.49 Q7229.16 173.49 7229.7 173.56 Q7230.23 173.606 7230.88 173.722 L7230.9 178.097 Z" fill="#000000" fill-rule="nonzero" fill-opacity="1"></path><path clip-path="url(#clip830)" d="M7235.37 174.115 L7239.63 174.115 L7239.63 200.041 L7235.37 200.041 L7235.37 174.115 M7235.37 164.023 L7239.63 164.023 L7239.63 169.416 L7235.37 169.416 L7235.37 164.023 Z" fill="#000000" fill-rule="nonzero" fill-opacity="1"></path><path clip-path="url(#clip830)" d="M7270.71 186.013 L7270.71 188.097 L7251.13 188.097 Q7251.41 192.495 7253.77 194.809 Q7256.15 197.101 7260.39 197.101 Q7262.84 197.101 7265.14 196.499 Q7267.45 195.897 7269.72 194.694 L7269.72 198.721 Q7267.43 199.694 7265.02 200.203 Q7262.61 200.712 7260.14 200.712 Q7253.93 200.712 7250.3 197.101 Q7246.69 193.49 7246.69 187.333 Q7246.69 180.967 7250.11 177.24 Q7253.56 173.49 7259.4 173.49 Q7264.63 173.49 7267.66 176.87 Q7270.71 180.226 7270.71 186.013 M7266.46 184.763 Q7266.41 181.268 7264.49 179.185 Q7262.59 177.101 7259.44 177.101 Q7255.88 177.101 7253.72 179.115 Q7251.59 181.129 7251.27 184.786 L7266.46 184.763 Z" fill="#000000" fill-rule="nonzero" fill-opacity="1"></path><path clip-path="url(#clip830)" d="M7294.23 174.879 L7294.23 178.907 Q7292.43 177.981 7290.48 177.518 Q7288.54 177.055 7286.46 177.055 Q7283.28 177.055 7281.69 178.027 Q7280.11 178.999 7280.11 180.944 Q7280.11 182.425 7281.25 183.282 Q7282.38 184.115 7285.81 184.879 L7287.27 185.203 Q7291.8 186.175 7293.7 187.958 Q7295.62 189.717 7295.62 192.888 Q7295.62 196.499 7292.75 198.606 Q7289.9 200.712 7284.9 200.712 Q7282.82 200.712 7280.55 200.296 Q7278.31 199.902 7275.81 199.092 L7275.81 194.694 Q7278.17 195.921 7280.46 196.546 Q7282.75 197.147 7285 197.147 Q7288.01 197.147 7289.63 196.129 Q7291.25 195.087 7291.25 193.212 Q7291.25 191.476 7290.07 190.55 Q7288.91 189.624 7284.95 188.768 L7283.47 188.421 Q7279.51 187.587 7277.75 185.874 Q7275.99 184.138 7275.99 181.129 Q7275.99 177.472 7278.59 175.481 Q7281.18 173.49 7285.95 173.49 Q7288.31 173.49 7290.39 173.837 Q7292.47 174.185 7294.23 174.879 Z" fill="#000000" fill-rule="nonzero" fill-opacity="1"></path></svg>