<svg xmlns="http://www.w3.org/2000/svg" xmlns:xlink="http://www.w3.org/1999/xlink" width="1920" height="400" viewBox="0 0 7680 1600">
<defs>
  <clipPath id="clip910">
    <rect x="0" y="0" width="7680" height="1600"></rect>
  </clipPath>
</defs>
<path clip-path="url(#clip910)" d="M0 1600 L7680 1600 L7680 0 L0 0  Z" fill="#ffffff" fill-rule="evenodd" fill-opacity="1"></path>
<defs>
  <clipPath id="clip911">
    <rect x="1536" y="0" width="5377" height="1600"></rect>
  </clipPath>
</defs>
<path clip-path="url(#clip910)" d="M47.2441 1552.76 L7632.76 1552.76 L7632.76 81.8921 L47.2441 81.8921  Z" fill="#ffffff" fill-rule="evenodd" fill-opacity="1"></path>
<defs>
  <clipPath id="clip912">
    <rect x="47" y="81" width="7587" height="1472"></rect>
  </clipPath>
</defs>
<path clip-path="url(#clip910)" d="M3632.41 12.096 L3640.59 12.096 L3640.59 36.8875 L3670.33 36.8875 L3670.33 12.096 L3678.51 12.096 L3678.51 72.576 L3670.33 72.576 L3670.33 43.7741 L3640.59 43.7741 L3640.59 72.576 L3632.41 72.576 L3632.41 12.096 Z" fill="#000000" fill-rule="nonzero" fill-opacity="1"></path><path clip-path="url(#clip910)" d="M3694.47 27.2059 L3701.92 27.2059 L3701.92 72.576 L3694.47 72.576 L3694.47 27.2059 M3694.47 9.54393 L3701.92 9.54393 L3701.92 18.9825 L3694.47 18.9825 L3694.47 9.54393 Z" fill="#000000" fill-rule="nonzero" fill-opacity="1"></path><path clip-path="url(#clip910)" d="M3746.44 28.5427 L3746.44 35.5912 Q3743.28 33.9709 3739.88 33.1607 Q3736.48 32.3505 3732.83 32.3505 Q3727.28 32.3505 3724.49 34.0519 Q3721.73 35.7533 3721.73 39.156 Q3721.73 41.7486 3723.72 43.2475 Q3725.7 44.7058 3731.7 46.0426 L3734.25 46.6097 Q3742.19 48.3111 3745.51 51.4303 Q3748.87 54.509 3748.87 60.0587 Q3748.87 66.3781 3743.85 70.0644 Q3738.87 73.7508 3730.12 73.7508 Q3726.47 73.7508 3722.5 73.0216 Q3718.57 72.3329 3714.2 70.9151 L3714.2 63.2184 Q3718.33 65.3654 3722.34 66.4591 Q3726.35 67.5124 3730.28 67.5124 Q3735.55 67.5124 3738.38 65.73 Q3741.22 63.9071 3741.22 60.6258 Q3741.22 57.5877 3739.15 55.9673 Q3737.13 54.3469 3730.2 52.8481 L3727.61 52.2405 Q3720.68 50.7821 3717.6 47.7845 Q3714.52 44.7463 3714.52 39.4801 Q3714.52 33.0797 3719.06 29.5959 Q3723.6 26.1121 3731.94 26.1121 Q3736.07 26.1121 3739.72 26.7198 Q3743.37 27.3274 3746.44 28.5427 Z" fill="#000000" fill-rule="nonzero" fill-opacity="1"></path><path clip-path="url(#clip910)" d="M3768.12 14.324 L3768.12 27.2059 L3783.47 27.2059 L3783.47 32.9987 L3768.12 32.9987 L3768.12 57.6282 Q3768.12 63.1779 3769.62 64.7578 Q3771.15 66.3376 3775.81 66.3376 L3783.47 66.3376 L3783.47 72.576 L3775.81 72.576 Q3767.18 72.576 3763.9 69.3758 Q3760.62 66.1351 3760.62 57.6282 L3760.62 32.9987 L3755.15 32.9987 L3755.15 27.2059 L3760.62 27.2059 L3760.62 14.324 L3768.12 14.324 Z" fill="#000000" fill-rule="nonzero" fill-opacity="1"></path><path clip-path="url(#clip910)" d="M3810.85 32.4315 Q3804.86 32.4315 3801.37 37.1306 Q3797.89 41.7891 3797.89 49.9314 Q3797.89 58.0738 3801.33 62.7728 Q3804.82 67.4314 3810.85 67.4314 Q3816.81 67.4314 3820.29 62.7323 Q3823.78 58.0333 3823.78 49.9314 Q3823.78 41.8701 3820.29 37.1711 Q3816.81 32.4315 3810.85 32.4315 M3810.85 26.1121 Q3820.58 26.1121 3826.13 32.4315 Q3831.68 38.7509 3831.68 49.9314 Q3831.68 61.0714 3826.13 67.4314 Q3820.58 73.7508 3810.85 73.7508 Q3801.09 73.7508 3795.54 67.4314 Q3790.03 61.0714 3790.03 49.9314 Q3790.03 38.7509 3795.54 32.4315 Q3801.09 26.1121 3810.85 26.1121 Z" fill="#000000" fill-rule="nonzero" fill-opacity="1"></path><path clip-path="url(#clip910)" d="M3873.89 49.3643 Q3873.89 41.2625 3870.52 36.8065 Q3867.2 32.3505 3861.17 32.3505 Q3855.17 32.3505 3851.81 36.8065 Q3848.49 41.2625 3848.49 49.3643 Q3848.49 57.4256 3851.81 61.8816 Q3855.17 66.3376 3861.17 66.3376 Q3867.2 66.3376 3870.52 61.8816 Q3873.89 57.4256 3873.89 49.3643 M3881.34 66.9452 Q3881.34 78.5308 3876.19 84.1616 Q3871.05 89.8329 3860.44 89.8329 Q3856.51 89.8329 3853.02 89.2252 Q3849.54 88.6581 3846.26 87.4428 L3846.26 80.1917 Q3849.54 81.9741 3852.74 82.8248 Q3855.94 83.6755 3859.26 83.6755 Q3866.59 83.6755 3870.24 79.8271 Q3873.89 76.0193 3873.89 68.282 L3873.89 64.5957 Q3871.58 68.6061 3867.97 70.5911 Q3864.37 72.576 3859.34 72.576 Q3851 72.576 3845.89 66.2161 Q3840.79 59.8562 3840.79 49.3643 Q3840.79 38.832 3845.89 32.472 Q3851 26.1121 3859.34 26.1121 Q3864.37 26.1121 3867.97 28.0971 Q3871.58 30.082 3873.89 34.0924 L3873.89 27.2059 L3881.34 27.2059 L3881.34 66.9452 Z" fill="#000000" fill-rule="nonzero" fill-opacity="1"></path><path clip-path="url(#clip910)" d="M3922.98 34.1734 Q3921.73 33.4443 3920.23 33.1202 Q3918.77 32.7556 3916.99 32.7556 Q3910.67 32.7556 3907.27 36.8875 Q3903.9 40.9789 3903.9 48.6757 L3903.9 72.576 L3896.41 72.576 L3896.41 27.2059 L3903.9 27.2059 L3903.9 34.2544 Q3906.25 30.1225 3910.02 28.1376 Q3913.79 26.1121 3919.17 26.1121 Q3919.94 26.1121 3920.88 26.2337 Q3921.81 26.3147 3922.94 26.5172 L3922.98 34.1734 Z" fill="#000000" fill-rule="nonzero" fill-opacity="1"></path><path clip-path="url(#clip910)" d="M3951.42 49.7694 Q3942.39 49.7694 3938.9 51.8354 Q3935.42 53.9013 3935.42 58.8839 Q3935.42 62.8538 3938.01 65.2034 Q3940.64 67.5124 3945.14 67.5124 Q3951.34 67.5124 3955.07 63.1374 Q3958.83 58.7219 3958.83 51.4303 L3958.83 49.7694 L3951.42 49.7694 M3966.29 46.6907 L3966.29 72.576 L3958.83 72.576 L3958.83 65.6895 Q3956.28 69.8214 3952.47 71.8063 Q3948.67 73.7508 3943.16 73.7508 Q3936.19 73.7508 3932.06 69.8619 Q3927.97 65.9325 3927.97 59.3701 Q3927.97 51.7138 3933.07 47.825 Q3938.21 43.9361 3948.38 43.9361 L3958.83 43.9361 L3958.83 43.2069 Q3958.83 38.0623 3955.43 35.2672 Q3952.07 32.4315 3945.95 32.4315 Q3942.06 32.4315 3938.38 33.3632 Q3934.69 34.295 3931.29 36.1584 L3931.29 29.2718 Q3935.38 27.692 3939.23 26.9223 Q3943.08 26.1121 3946.72 26.1121 Q3956.56 26.1121 3961.43 31.2163 Q3966.29 36.3204 3966.29 46.6907 Z" fill="#000000" fill-rule="nonzero" fill-opacity="1"></path><path clip-path="url(#clip910)" d="M4016.96 35.9153 Q4019.76 30.8922 4023.65 28.5022 Q4027.54 26.1121 4032.8 26.1121 Q4039.89 26.1121 4043.74 31.0947 Q4047.59 36.0368 4047.59 45.1919 L4047.59 72.576 L4040.09 72.576 L4040.09 45.4349 Q4040.09 38.913 4037.79 35.7533 Q4035.48 32.5936 4030.74 32.5936 Q4024.94 32.5936 4021.58 36.4419 Q4018.22 40.2903 4018.22 46.9338 L4018.22 72.576 L4010.73 72.576 L4010.73 45.4349 Q4010.73 38.8725 4008.42 35.7533 Q4006.11 32.5936 4001.29 32.5936 Q3995.57 32.5936 3992.21 36.4824 Q3988.85 40.3308 3988.85 46.9338 L3988.85 72.576 L3981.36 72.576 L3981.36 27.2059 L3988.85 27.2059 L3988.85 34.2544 Q3991.4 30.082 3994.97 28.0971 Q3998.53 26.1121 4003.43 26.1121 Q4008.38 26.1121 4011.82 28.6237 Q4015.3 31.1352 4016.96 35.9153 Z" fill="#000000" fill-rule="nonzero" fill-opacity="1"></path><path clip-path="url(#clip912)" d="M94.6535 1552.76 L94.6535 1552.76 L473.929 1552.76 L473.929 1552.76 L94.6535 1552.76 L94.6535 1552.76  Z" fill="#add8e6" fill-rule="evenodd" fill-opacity="1"></path>
<polyline clip-path="url(#clip912)" style="stroke:#add8e6; stroke-linecap:round; stroke-linejoin:round; stroke-width:4; stroke-opacity:1; fill:none" points="94.6535,1552.76 94.6535,1552.76 473.929,1552.76 94.6535,1552.76 "></polyline>
<path clip-path="url(#clip912)" d="M568.748 1552.76 L568.748 1552.76 L948.024 1552.76 L948.024 1552.76 L568.748 1552.76 L568.748 1552.76  Z" fill="#ff0000" fill-rule="evenodd" fill-opacity="1"></path>
<polyline clip-path="url(#clip912)" style="stroke:#add8e6; stroke-linecap:round; stroke-linejoin:round; stroke-width:4; stroke-opacity:1; fill:none" points="568.748,1552.76 568.748,1552.76 948.024,1552.76 568.748,1552.76 "></polyline>
<path clip-path="url(#clip912)" d="M1042.84 1552.76 L1042.84 1552.76 L1422.12 1552.76 L1422.12 1552.76 L1042.84 1552.76 L1042.84 1552.76  Z" fill="#add8e6" fill-rule="evenodd" fill-opacity="1"></path>
<polyline clip-path="url(#clip912)" style="stroke:#add8e6; stroke-linecap:round; stroke-linejoin:round; stroke-width:4; stroke-opacity:1; fill:none" points="1042.84,1552.76 1042.84,1552.76 1422.12,1552.76 1042.84,1552.76 "></polyline>
<path clip-path="url(#clip912)" d="M1516.94 81.8921 L1516.94 1552.76 L1896.21 1552.76 L1896.21 81.8921 L1516.94 81.8921 L1516.94 81.8921  Z" fill="#ff0000" fill-rule="evenodd" fill-opacity="1"></path>
<polyline clip-path="url(#clip912)" style="stroke:#add8e6; stroke-linecap:round; stroke-linejoin:round; stroke-width:4; stroke-opacity:1; fill:none" points="1516.94,81.8921 1516.94,1552.76 1896.21,1552.76 1896.21,81.8921 1516.94,81.8921 "></polyline>
<path clip-path="url(#clip912)" d="M1991.03 1552.76 L1991.03 1552.76 L2370.31 1552.76 L2370.31 1552.76 L1991.03 1552.76 L1991.03 1552.76  Z" fill="#add8e6" fill-rule="evenodd" fill-opacity="1"></path>
<polyline clip-path="url(#clip912)" style="stroke:#add8e6; stroke-linecap:round; stroke-linejoin:round; stroke-width:4; stroke-opacity:1; fill:none" points="1991.03,1552.76 1991.03,1552.76 2370.31,1552.76 1991.03,1552.76 "></polyline>
<path clip-path="url(#clip912)" d="M2465.13 873.388 L2465.13 1552.76 L2844.4 1552.76 L2844.4 873.388 L2465.13 873.388 L2465.13 873.388  Z" fill="#ff0000" fill-rule="evenodd" fill-opacity="1"></path>
<polyline clip-path="url(#clip912)" style="stroke:#add8e6; stroke-linecap:round; stroke-linejoin:round; stroke-width:4; stroke-opacity:1; fill:none" points="2465.13,873.388 2465.13,1552.76 2844.4,1552.76 2844.4,873.388 2465.13,873.388 "></polyline>
<path clip-path="url(#clip912)" d="M2939.22 1552.76 L2939.22 1552.76 L3318.5 1552.76 L3318.5 1552.76 L2939.22 1552.76 L2939.22 1552.76  Z" fill="#add8e6" fill-rule="evenodd" fill-opacity="1"></path>
<polyline clip-path="url(#clip912)" style="stroke:#add8e6; stroke-linecap:round; stroke-linejoin:round; stroke-width:4; stroke-opacity:1; fill:none" points="2939.22,1552.76 2939.22,1552.76 3318.5,1552.76 2939.22,1552.76 "></polyline>
<path clip-path="url(#clip912)" d="M3413.31 761.26 L3413.31 1552.76 L3792.59 1552.76 L3792.59 761.26 L3413.31 761.26 L3413.31 761.26  Z" fill="#ff0000" fill-rule="evenodd" fill-opacity="1"></path>
<polyline clip-path="url(#clip912)" style="stroke:#add8e6; stroke-linecap:round; stroke-linejoin:round; stroke-width:4; stroke-opacity:1; fill:none" points="3413.31,761.26 3413.31,1552.76 3792.59,1552.76 3792.59,761.26 3413.31,761.26 "></polyline>
<path clip-path="url(#clip912)" d="M3887.41 1552.76 L3887.41 1552.76 L4266.69 1552.76 L4266.69 1552.76 L3887.41 1552.76 L3887.41 1552.76  Z" fill="#add8e6" fill-rule="evenodd" fill-opacity="1"></path>
<polyline clip-path="url(#clip912)" style="stroke:#add8e6; stroke-linecap:round; stroke-linejoin:round; stroke-width:4; stroke-opacity:1; fill:none" points="3887.41,1552.76 3887.41,1552.76 4266.69,1552.76 3887.41,1552.76 "></polyline>
<path clip-path="url(#clip912)" d="M4361.5 1341.69 L4361.5 1552.76 L4740.78 1552.76 L4740.78 1341.69 L4361.5 1341.69 L4361.5 1341.69  Z" fill="#ff0000" fill-rule="evenodd" fill-opacity="1"></path>
<polyline clip-path="url(#clip912)" style="stroke:#add8e6; stroke-linecap:round; stroke-linejoin:round; stroke-width:4; stroke-opacity:1; fill:none" points="4361.5,1341.69 4361.5,1552.76 4740.78,1552.76 4740.78,1341.69 4361.5,1341.69 "></polyline>
<path clip-path="url(#clip912)" d="M4835.6 1552.76 L4835.6 1552.76 L5214.87 1552.76 L5214.87 1552.76 L4835.6 1552.76 L4835.6 1552.76  Z" fill="#add8e6" fill-rule="evenodd" fill-opacity="1"></path>
<polyline clip-path="url(#clip912)" style="stroke:#add8e6; stroke-linecap:round; stroke-linejoin:round; stroke-width:4; stroke-opacity:1; fill:none" points="4835.6,1552.76 4835.6,1552.76 5214.87,1552.76 4835.6,1552.76 "></polyline>
<path clip-path="url(#clip912)" d="M5309.69 385.299 L5309.69 1552.76 L5688.97 1552.76 L5688.97 385.299 L5309.69 385.299 L5309.69 385.299  Z" fill="#ff0000" fill-rule="evenodd" fill-opacity="1"></path>
<polyline clip-path="url(#clip912)" style="stroke:#add8e6; stroke-linecap:round; stroke-linejoin:round; stroke-width:4; stroke-opacity:1; fill:none" points="5309.69,385.299 5309.69,1552.76 5688.97,1552.76 5688.97,385.299 5309.69,385.299 "></polyline>
<path clip-path="url(#clip912)" d="M5783.79 1552.76 L5783.79 1552.76 L6163.06 1552.76 L6163.06 1552.76 L5783.79 1552.76 L5783.79 1552.76  Z" fill="#add8e6" fill-rule="evenodd" fill-opacity="1"></path>
<polyline clip-path="url(#clip912)" style="stroke:#add8e6; stroke-linecap:round; stroke-linejoin:round; stroke-width:4; stroke-opacity:1; fill:none" points="5783.79,1552.76 5783.79,1552.76 6163.06,1552.76 5783.79,1552.76 "></polyline>
<path clip-path="url(#clip912)" d="M6257.88 457.853 L6257.88 1552.76 L6637.16 1552.76 L6637.16 457.853 L6257.88 457.853 L6257.88 457.853  Z" fill="#ff0000" fill-rule="evenodd" fill-opacity="1"></path>
<polyline clip-path="url(#clip912)" style="stroke:#add8e6; stroke-linecap:round; stroke-linejoin:round; stroke-width:4; stroke-opacity:1; fill:none" points="6257.88,457.853 6257.88,1552.76 6637.16,1552.76 6637.16,457.853 6257.88,457.853 "></polyline>
<path clip-path="url(#clip912)" d="M6731.98 1552.76 L6731.98 1552.76 L7111.25 1552.76 L7111.25 1552.76 L6731.98 1552.76 L6731.98 1552.76  Z" fill="#add8e6" fill-rule="evenodd" fill-opacity="1"></path>
<polyline clip-path="url(#clip912)" style="stroke:#add8e6; stroke-linecap:round; stroke-linejoin:round; stroke-width:4; stroke-opacity:1; fill:none" points="6731.98,1552.76 6731.98,1552.76 7111.25,1552.76 6731.98,1552.76 "></polyline>
<path clip-path="url(#clip912)" d="M7206.07 372.107 L7206.07 1552.76 L7585.35 1552.76 L7585.35 372.107 L7206.07 372.107 L7206.07 372.107  Z" fill="#ff0000" fill-rule="evenodd" fill-opacity="1"></path>
<polyline clip-path="url(#clip912)" style="stroke:#add8e6; stroke-linecap:round; stroke-linejoin:round; stroke-width:4; stroke-opacity:1; fill:none" points="7206.07,372.107 7206.07,1552.76 7585.35,1552.76 7585.35,372.107 7206.07,372.107 "></polyline>
<circle clip-path="url(#clip912)" style="fill:#add8e6; stroke:none; fill-opacity:0" cx="284.291" cy="1552.76" r="2"></circle>
<circle clip-path="url(#clip912)" style="fill:#ff0000; stroke:none; fill-opacity:0" cx="758.386" cy="1552.76" r="2"></circle>
<circle clip-path="url(#clip912)" style="fill:#add8e6; stroke:none; fill-opacity:0" cx="1232.48" cy="1552.76" r="2"></circle>
<circle clip-path="url(#clip912)" style="fill:#ff0000; stroke:none; fill-opacity:0" cx="1706.57" cy="81.8921" r="2"></circle>
<circle clip-path="url(#clip912)" style="fill:#add8e6; stroke:none; fill-opacity:0" cx="2180.67" cy="1552.76" r="2"></circle>
<circle clip-path="url(#clip912)" style="fill:#ff0000; stroke:none; fill-opacity:0" cx="2654.76" cy="873.388" r="2"></circle>
<circle clip-path="url(#clip912)" style="fill:#add8e6; stroke:none; fill-opacity:0" cx="3128.86" cy="1552.76" r="2"></circle>
<circle clip-path="url(#clip912)" style="fill:#ff0000; stroke:none; fill-opacity:0" cx="3602.95" cy="761.26" r="2"></circle>
<circle clip-path="url(#clip912)" style="fill:#add8e6; stroke:none; fill-opacity:0" cx="4077.05" cy="1552.76" r="2"></circle>
<circle clip-path="url(#clip912)" style="fill:#ff0000; stroke:none; fill-opacity:0" cx="4551.14" cy="1341.69" r="2"></circle>
<circle clip-path="url(#clip912)" style="fill:#add8e6; stroke:none; fill-opacity:0" cx="5025.24" cy="1552.76" r="2"></circle>
<circle clip-path="url(#clip912)" style="fill:#ff0000; stroke:none; fill-opacity:0" cx="5499.33" cy="385.299" r="2"></circle>
<circle clip-path="url(#clip912)" style="fill:#add8e6; stroke:none; fill-opacity:0" cx="5973.43" cy="1552.76" r="2"></circle>
<circle clip-path="url(#clip912)" style="fill:#ff0000; stroke:none; fill-opacity:0" cx="6447.52" cy="457.853" r="2"></circle>
<circle clip-path="url(#clip912)" style="fill:#add8e6; stroke:none; fill-opacity:0" cx="6921.61" cy="1552.76" r="2"></circle>
<circle clip-path="url(#clip912)" style="fill:#ff0000; stroke:none; fill-opacity:0" cx="7395.71" cy="372.107" r="2"></circle>
<circle clip-path="url(#clip912)" style="fill:#e26f46; stroke:none; fill-opacity:1" cx="284.291" cy="1546.16" r="2"></circle>
<circle clip-path="url(#clip912)" style="fill:#e26f46; stroke:none; fill-opacity:1" cx="758.386" cy="1546.16" r="2"></circle>
<circle clip-path="url(#clip912)" style="fill:#e26f46; stroke:none; fill-opacity:1" cx="1232.48" cy="1546.16" r="2"></circle>
<circle clip-path="url(#clip912)" style="fill:#e26f46; stroke:none; fill-opacity:1" cx="1706.57" cy="1546.16" r="2"></circle>
<circle clip-path="url(#clip912)" style="fill:#e26f46; stroke:none; fill-opacity:1" cx="2180.67" cy="1546.16" r="2"></circle>
<circle clip-path="url(#clip912)" style="fill:#e26f46; stroke:none; fill-opacity:1" cx="2654.76" cy="1546.16" r="2"></circle>
<circle clip-path="url(#clip912)" style="fill:#e26f46; stroke:none; fill-opacity:1" cx="3128.86" cy="1546.16" r="2"></circle>
<circle clip-path="url(#clip912)" style="fill:#e26f46; stroke:none; fill-opacity:1" cx="3602.95" cy="1546.16" r="2"></circle>
<circle clip-path="url(#clip912)" style="fill:#e26f46; stroke:none; fill-opacity:1" cx="4077.05" cy="1546.16" r="2"></circle>
<circle clip-path="url(#clip912)" style="fill:#e26f46; stroke:none; fill-opacity:1" cx="4551.14" cy="1546.16" r="2"></circle>
<circle clip-path="url(#clip912)" style="fill:#e26f46; stroke:none; fill-opacity:1" cx="5025.24" cy="1546.16" r="2"></circle>
<circle clip-path="url(#clip912)" style="fill:#e26f46; stroke:none; fill-opacity:1" cx="5499.33" cy="1546.16" r="2"></circle>
<circle clip-path="url(#clip912)" style="fill:#e26f46; stroke:none; fill-opacity:1" cx="5973.43" cy="1546.16" r="2"></circle>
<circle clip-path="url(#clip912)" style="fill:#e26f46; stroke:none; fill-opacity:1" cx="6447.52" cy="1546.16" r="2"></circle>
<circle clip-path="url(#clip912)" style="fill:#e26f46; stroke:none; fill-opacity:1" cx="6921.61" cy="1546.16" r="2"></circle>
<circle clip-path="url(#clip912)" style="fill:#e26f46; stroke:none; fill-opacity:1" cx="7395.71" cy="1546.16" r="2"></circle>
<path clip-path="url(#clip910)" d="M164.425 1513 L164.425 1595.97 L157.539 1595.97 L157.539 1513 L164.425 1513 Z" fill="#000000" fill-rule="nonzero" fill-opacity="1"></path><path clip-path="url(#clip910)" d="M201.329 1521.31 Q195.009 1521.31 191.809 1527.55 Q188.649 1533.74 188.649 1546.22 Q188.649 1558.66 191.809 1564.9 Q195.009 1571.09 201.329 1571.09 Q207.689 1571.09 210.848 1564.9 Q214.049 1558.66 214.049 1546.22 Q214.049 1533.74 210.848 1527.55 Q207.689 1521.31 201.329 1521.31 M201.329 1514.83 Q211.497 1514.83 216.844 1522.89 Q222.231 1530.91 222.231 1546.22 Q222.231 1561.49 216.844 1569.55 Q211.497 1577.57 201.329 1577.57 Q191.161 1577.57 185.773 1569.55 Q180.426 1561.49 180.426 1546.22 Q180.426 1530.91 185.773 1522.89 Q191.161 1514.83 201.329 1514.83 Z" fill="#000000" fill-rule="nonzero" fill-opacity="1"></path><path clip-path="url(#clip910)" d="M254.112 1521.31 Q247.793 1521.31 244.592 1527.55 Q241.433 1533.74 241.433 1546.22 Q241.433 1558.66 244.592 1564.9 Q247.793 1571.09 254.112 1571.09 Q260.472 1571.09 263.632 1564.9 Q266.832 1558.66 266.832 1546.22 Q266.832 1533.74 263.632 1527.55 Q260.472 1521.31 254.112 1521.31 M254.112 1514.83 Q264.28 1514.83 269.627 1522.89 Q275.015 1530.91 275.015 1546.22 Q275.015 1561.49 269.627 1569.55 Q264.28 1577.57 254.112 1577.57 Q243.944 1577.57 238.557 1569.55 Q233.209 1561.49 233.209 1546.22 Q233.209 1530.91 238.557 1522.89 Q243.944 1514.83 254.112 1514.83 Z" fill="#000000" fill-rule="nonzero" fill-opacity="1"></path><path clip-path="url(#clip910)" d="M306.895 1521.31 Q300.576 1521.31 297.376 1527.55 Q294.216 1533.74 294.216 1546.22 Q294.216 1558.66 297.376 1564.9 Q300.576 1571.09 306.895 1571.09 Q313.255 1571.09 316.415 1564.9 Q319.615 1558.66 319.615 1546.22 Q319.615 1533.74 316.415 1527.55 Q313.255 1521.31 306.895 1521.31 M306.895 1514.83 Q317.063 1514.83 322.41 1522.89 Q327.798 1530.91 327.798 1546.22 Q327.798 1561.49 322.41 1569.55 Q317.063 1577.57 306.895 1577.57 Q296.728 1577.57 291.34 1569.55 Q285.993 1561.49 285.993 1546.22 Q285.993 1530.91 291.34 1522.89 Q296.728 1514.83 306.895 1514.83 Z" fill="#000000" fill-rule="nonzero" fill-opacity="1"></path><path clip-path="url(#clip910)" d="M359.679 1521.31 Q353.359 1521.31 350.159 1527.55 Q346.999 1533.74 346.999 1546.22 Q346.999 1558.66 350.159 1564.9 Q353.359 1571.09 359.679 1571.09 Q366.039 1571.09 369.198 1564.9 Q372.399 1558.66 372.399 1546.22 Q372.399 1533.74 369.198 1527.55 Q366.039 1521.31 359.679 1521.31 M359.679 1514.83 Q369.846 1514.83 375.194 1522.89 Q380.581 1530.91 380.581 1546.22 Q380.581 1561.49 375.194 1569.55 Q369.846 1577.57 359.679 1577.57 Q349.511 1577.57 344.123 1569.55 Q338.776 1561.49 338.776 1546.22 Q338.776 1530.91 344.123 1522.89 Q349.511 1514.83 359.679 1514.83 Z" fill="#000000" fill-rule="nonzero" fill-opacity="1"></path><path clip-path="url(#clip910)" d="M411.044 1550.39 L399.621 1587.34 L392.734 1587.34 L404.158 1550.39 L392.734 1513.45 L399.621 1513.45 L411.044 1550.39 Z" fill="#000000" fill-rule="nonzero" fill-opacity="1"></path><path clip-path="url(#clip910)" d="M638.52 1513 L638.52 1595.97 L631.633 1595.97 L631.633 1513 L638.52 1513 Z" fill="#000000" fill-rule="nonzero" fill-opacity="1"></path><path clip-path="url(#clip910)" d="M675.423 1521.31 Q669.104 1521.31 665.904 1527.55 Q662.744 1533.74 662.744 1546.22 Q662.744 1558.66 665.904 1564.9 Q669.104 1571.09 675.423 1571.09 Q681.783 1571.09 684.943 1564.9 Q688.143 1558.66 688.143 1546.22 Q688.143 1533.74 684.943 1527.55 Q681.783 1521.31 675.423 1521.31 M675.423 1514.83 Q685.591 1514.83 690.938 1522.89 Q696.326 1530.91 696.326 1546.22 Q696.326 1561.49 690.938 1569.55 Q685.591 1577.57 675.423 1577.57 Q665.256 1577.57 659.868 1569.55 Q654.521 1561.49 654.521 1546.22 Q654.521 1530.91 659.868 1522.89 Q665.256 1514.83 675.423 1514.83 Z" fill="#000000" fill-rule="nonzero" fill-opacity="1"></path><path clip-path="url(#clip910)" d="M728.207 1521.31 Q721.887 1521.31 718.687 1527.55 Q715.527 1533.74 715.527 1546.22 Q715.527 1558.66 718.687 1564.9 Q721.887 1571.09 728.207 1571.09 Q734.567 1571.09 737.726 1564.9 Q740.926 1558.66 740.926 1546.22 Q740.926 1533.74 737.726 1527.55 Q734.567 1521.31 728.207 1521.31 M728.207 1514.83 Q738.374 1514.83 743.722 1522.89 Q749.109 1530.91 749.109 1546.22 Q749.109 1561.49 743.722 1569.55 Q738.374 1577.57 728.207 1577.57 Q718.039 1577.57 712.651 1569.55 Q707.304 1561.49 707.304 1546.22 Q707.304 1530.91 712.651 1522.89 Q718.039 1514.83 728.207 1514.83 Z" fill="#000000" fill-rule="nonzero" fill-opacity="1"></path><path clip-path="url(#clip910)" d="M780.99 1521.31 Q774.67 1521.31 771.47 1527.55 Q768.311 1533.74 768.311 1546.22 Q768.311 1558.66 771.47 1564.9 Q774.67 1571.09 780.99 1571.09 Q787.35 1571.09 790.509 1564.9 Q793.71 1558.66 793.71 1546.22 Q793.71 1533.74 790.509 1527.55 Q787.35 1521.31 780.99 1521.31 M780.99 1514.83 Q791.158 1514.83 796.505 1522.89 Q801.893 1530.91 801.893 1546.22 Q801.893 1561.49 796.505 1569.55 Q791.158 1577.57 780.99 1577.57 Q770.822 1577.57 765.434 1569.55 Q760.087 1561.49 760.087 1546.22 Q760.087 1530.91 765.434 1522.89 Q770.822 1514.83 780.99 1514.83 Z" fill="#000000" fill-rule="nonzero" fill-opacity="1"></path><path clip-path="url(#clip910)" d="M817.691 1569.51 L831.059 1569.51 L831.059 1523.37 L816.516 1526.29 L816.516 1518.84 L830.978 1515.92 L839.161 1515.92 L839.161 1569.51 L852.529 1569.51 L852.529 1576.4 L817.691 1576.4 L817.691 1569.51 Z" fill="#000000" fill-rule="nonzero" fill-opacity="1"></path><path clip-path="url(#clip910)" d="M885.139 1550.39 L873.715 1587.34 L866.829 1587.34 L878.252 1550.39 L866.829 1513.45 L873.715 1513.45 L885.139 1550.39 Z" fill="#000000" fill-rule="nonzero" fill-opacity="1"></path><path clip-path="url(#clip910)" d="M1112.61 1513 L1112.61 1595.97 L1105.73 1595.97 L1105.73 1513 L1112.61 1513 Z" fill="#000000" fill-rule="nonzero" fill-opacity="1"></path><path clip-path="url(#clip910)" d="M1149.52 1521.31 Q1143.2 1521.31 1140 1527.55 Q1136.84 1533.74 1136.84 1546.22 Q1136.84 1558.66 1140 1564.9 Q1143.2 1571.09 1149.52 1571.09 Q1155.88 1571.09 1159.04 1564.9 Q1162.24 1558.66 1162.24 1546.22 Q1162.24 1533.74 1159.04 1527.55 Q1155.88 1521.31 1149.52 1521.31 M1149.52 1514.83 Q1159.69 1514.83 1165.03 1522.89 Q1170.42 1530.91 1170.42 1546.22 Q1170.42 1561.49 1165.03 1569.55 Q1159.69 1577.57 1149.52 1577.57 Q1139.35 1577.57 1133.96 1569.55 Q1128.62 1561.49 1128.62 1546.22 Q1128.62 1530.91 1133.96 1522.89 Q1139.35 1514.83 1149.52 1514.83 Z" fill="#000000" fill-rule="nonzero" fill-opacity="1"></path><path clip-path="url(#clip910)" d="M1202.3 1521.31 Q1195.98 1521.31 1192.78 1527.55 Q1189.62 1533.74 1189.62 1546.22 Q1189.62 1558.66 1192.78 1564.9 Q1195.98 1571.09 1202.3 1571.09 Q1208.66 1571.09 1211.82 1564.9 Q1215.02 1558.66 1215.02 1546.22 Q1215.02 1533.74 1211.82 1527.55 Q1208.66 1521.31 1202.3 1521.31 M1202.3 1514.83 Q1212.47 1514.83 1217.82 1522.89 Q1223.2 1530.91 1223.2 1546.22 Q1223.2 1561.49 1217.82 1569.55 Q1212.47 1577.57 1202.3 1577.57 Q1192.13 1577.57 1186.75 1569.55 Q1181.4 1561.49 1181.4 1546.22 Q1181.4 1530.91 1186.75 1522.89 Q1192.13 1514.83 1202.3 1514.83 Z" fill="#000000" fill-rule="nonzero" fill-opacity="1"></path><path clip-path="url(#clip910)" d="M1239 1569.51 L1252.37 1569.51 L1252.37 1523.37 L1237.83 1526.29 L1237.83 1518.84 L1252.29 1515.92 L1260.47 1515.92 L1260.47 1569.51 L1273.84 1569.51 L1273.84 1576.4 L1239 1576.4 L1239 1569.51 Z" fill="#000000" fill-rule="nonzero" fill-opacity="1"></path><path clip-path="url(#clip910)" d="M1307.87 1521.31 Q1301.55 1521.31 1298.35 1527.55 Q1295.19 1533.74 1295.19 1546.22 Q1295.19 1558.66 1298.35 1564.9 Q1301.55 1571.09 1307.87 1571.09 Q1314.23 1571.09 1317.39 1564.9 Q1320.59 1558.66 1320.59 1546.22 Q1320.59 1533.74 1317.39 1527.55 Q1314.23 1521.31 1307.87 1521.31 M1307.87 1514.83 Q1318.04 1514.83 1323.38 1522.89 Q1328.77 1530.91 1328.77 1546.22 Q1328.77 1561.49 1323.38 1569.55 Q1318.04 1577.57 1307.87 1577.57 Q1297.7 1577.57 1292.31 1569.55 Q1286.96 1561.49 1286.96 1546.22 Q1286.96 1530.91 1292.31 1522.89 Q1297.7 1514.83 1307.87 1514.83 Z" fill="#000000" fill-rule="nonzero" fill-opacity="1"></path><path clip-path="url(#clip910)" d="M1359.23 1550.39 L1347.81 1587.34 L1340.92 1587.34 L1352.35 1550.39 L1340.92 1513.45 L1347.81 1513.45 L1359.23 1550.39 Z" fill="#000000" fill-rule="nonzero" fill-opacity="1"></path><path clip-path="url(#clip910)" d="M1586.71 1513 L1586.71 1595.97 L1579.82 1595.97 L1579.82 1513 L1586.71 1513 Z" fill="#000000" fill-rule="nonzero" fill-opacity="1"></path><path clip-path="url(#clip910)" d="M1623.61 1521.31 Q1617.29 1521.31 1614.09 1527.55 Q1610.93 1533.74 1610.93 1546.22 Q1610.93 1558.66 1614.09 1564.9 Q1617.29 1571.09 1623.61 1571.09 Q1629.97 1571.09 1633.13 1564.9 Q1636.33 1558.66 1636.33 1546.22 Q1636.33 1533.74 1633.13 1527.55 Q1629.97 1521.31 1623.61 1521.31 M1623.61 1514.83 Q1633.78 1514.83 1639.13 1522.89 Q1644.51 1530.91 1644.51 1546.22 Q1644.51 1561.49 1639.13 1569.55 Q1633.78 1577.57 1623.61 1577.57 Q1613.44 1577.57 1608.06 1569.55 Q1602.71 1561.49 1602.71 1546.22 Q1602.71 1530.91 1608.06 1522.89 Q1613.44 1514.83 1623.61 1514.83 Z" fill="#000000" fill-rule="nonzero" fill-opacity="1"></path><path clip-path="url(#clip910)" d="M1676.4 1521.31 Q1670.08 1521.31 1666.88 1527.55 Q1663.72 1533.74 1663.72 1546.22 Q1663.72 1558.66 1666.88 1564.9 Q1670.08 1571.09 1676.4 1571.09 Q1682.76 1571.09 1685.92 1564.9 Q1689.12 1558.66 1689.12 1546.22 Q1689.12 1533.74 1685.92 1527.55 Q1682.76 1521.31 1676.4 1521.31 M1676.4 1514.83 Q1686.56 1514.83 1691.91 1522.89 Q1697.3 1530.91 1697.3 1546.22 Q1697.3 1561.49 1691.91 1569.55 Q1686.56 1577.57 1676.4 1577.57 Q1666.23 1577.57 1660.84 1569.55 Q1655.49 1561.49 1655.49 1546.22 Q1655.49 1530.91 1660.84 1522.89 Q1666.23 1514.83 1676.4 1514.83 Z" fill="#000000" fill-rule="nonzero" fill-opacity="1"></path><path clip-path="url(#clip910)" d="M1713.1 1569.51 L1726.46 1569.51 L1726.46 1523.37 L1711.92 1526.29 L1711.92 1518.84 L1726.38 1515.92 L1734.57 1515.92 L1734.57 1569.51 L1747.93 1569.51 L1747.93 1576.4 L1713.1 1576.4 L1713.1 1569.51 Z" fill="#000000" fill-rule="nonzero" fill-opacity="1"></path><path clip-path="url(#clip910)" d="M1765.88 1569.51 L1779.25 1569.51 L1779.25 1523.37 L1764.71 1526.29 L1764.71 1518.84 L1779.17 1515.92 L1787.35 1515.92 L1787.35 1569.51 L1800.72 1569.51 L1800.72 1576.4 L1765.88 1576.4 L1765.88 1569.51 Z" fill="#000000" fill-rule="nonzero" fill-opacity="1"></path><path clip-path="url(#clip910)" d="M1833.33 1550.39 L1821.9 1587.34 L1815.02 1587.34 L1826.44 1550.39 L1815.02 1513.45 L1821.9 1513.45 L1833.33 1550.39 Z" fill="#000000" fill-rule="nonzero" fill-opacity="1"></path><path clip-path="url(#clip910)" d="M2060.8 1513 L2060.8 1595.97 L2053.92 1595.97 L2053.92 1513 L2060.8 1513 Z" fill="#000000" fill-rule="nonzero" fill-opacity="1"></path><path clip-path="url(#clip910)" d="M2097.71 1521.31 Q2091.39 1521.31 2088.19 1527.55 Q2085.03 1533.74 2085.03 1546.22 Q2085.03 1558.66 2088.19 1564.9 Q2091.39 1571.09 2097.71 1571.09 Q2104.07 1571.09 2107.23 1564.9 Q2110.43 1558.66 2110.43 1546.22 Q2110.43 1533.74 2107.23 1527.55 Q2104.07 1521.31 2097.71 1521.31 M2097.71 1514.83 Q2107.87 1514.83 2113.22 1522.89 Q2118.61 1530.91 2118.61 1546.22 Q2118.61 1561.49 2113.22 1569.55 Q2107.87 1577.57 2097.71 1577.57 Q2087.54 1577.57 2082.15 1569.55 Q2076.8 1561.49 2076.8 1546.22 Q2076.8 1530.91 2082.15 1522.89 Q2087.54 1514.83 2097.71 1514.83 Z" fill="#000000" fill-rule="nonzero" fill-opacity="1"></path><path clip-path="url(#clip910)" d="M2134.41 1569.51 L2147.78 1569.51 L2147.78 1523.37 L2133.23 1526.29 L2133.23 1518.84 L2147.69 1515.92 L2155.88 1515.92 L2155.88 1569.51 L2169.25 1569.51 L2169.25 1576.4 L2134.41 1576.4 L2134.41 1569.51 Z" fill="#000000" fill-rule="nonzero" fill-opacity="1"></path><path clip-path="url(#clip910)" d="M2203.27 1521.31 Q2196.95 1521.31 2193.75 1527.55 Q2190.59 1533.74 2190.59 1546.22 Q2190.59 1558.66 2193.75 1564.9 Q2196.95 1571.09 2203.27 1571.09 Q2209.63 1571.09 2212.79 1564.9 Q2215.99 1558.66 2215.99 1546.22 Q2215.99 1533.74 2212.79 1527.55 Q2209.63 1521.31 2203.27 1521.31 M2203.27 1514.83 Q2213.44 1514.83 2218.79 1522.89 Q2224.18 1530.91 2224.18 1546.22 Q2224.18 1561.49 2218.79 1569.55 Q2213.44 1577.57 2203.27 1577.57 Q2193.11 1577.57 2187.72 1569.55 Q2182.37 1561.49 2182.37 1546.22 Q2182.37 1530.91 2187.72 1522.89 Q2193.11 1514.83 2203.27 1514.83 Z" fill="#000000" fill-rule="nonzero" fill-opacity="1"></path><path clip-path="url(#clip910)" d="M2256.06 1521.31 Q2249.74 1521.31 2246.54 1527.55 Q2243.38 1533.74 2243.38 1546.22 Q2243.38 1558.66 2246.54 1564.9 Q2249.74 1571.09 2256.06 1571.09 Q2262.42 1571.09 2265.58 1564.9 Q2268.78 1558.66 2268.78 1546.22 Q2268.78 1533.74 2265.58 1527.55 Q2262.42 1521.31 2256.06 1521.31 M2256.06 1514.83 Q2266.22 1514.83 2271.57 1522.89 Q2276.96 1530.91 2276.96 1546.22 Q2276.96 1561.49 2271.57 1569.55 Q2266.22 1577.57 2256.06 1577.57 Q2245.89 1577.57 2240.5 1569.55 Q2235.15 1561.49 2235.15 1546.22 Q2235.15 1530.91 2240.5 1522.89 Q2245.89 1514.83 2256.06 1514.83 Z" fill="#000000" fill-rule="nonzero" fill-opacity="1"></path><path clip-path="url(#clip910)" d="M2307.42 1550.39 L2296 1587.34 L2289.11 1587.34 L2300.54 1550.39 L2289.11 1513.45 L2296 1513.45 L2307.42 1550.39 Z" fill="#000000" fill-rule="nonzero" fill-opacity="1"></path><path clip-path="url(#clip910)" d="M2534.9 1513 L2534.9 1595.97 L2528.01 1595.97 L2528.01 1513 L2534.9 1513 Z" fill="#000000" fill-rule="nonzero" fill-opacity="1"></path><path clip-path="url(#clip910)" d="M2571.8 1521.31 Q2565.48 1521.31 2562.28 1527.55 Q2559.12 1533.74 2559.12 1546.22 Q2559.12 1558.66 2562.28 1564.9 Q2565.48 1571.09 2571.8 1571.09 Q2578.16 1571.09 2581.32 1564.9 Q2584.52 1558.66 2584.52 1546.22 Q2584.52 1533.74 2581.32 1527.55 Q2578.16 1521.31 2571.8 1521.31 M2571.8 1514.83 Q2581.97 1514.83 2587.32 1522.89 Q2592.7 1530.91 2592.7 1546.22 Q2592.7 1561.49 2587.32 1569.55 Q2581.97 1577.57 2571.8 1577.57 Q2561.63 1577.57 2556.25 1569.55 Q2550.9 1561.49 2550.9 1546.22 Q2550.9 1530.91 2556.25 1522.89 Q2561.63 1514.83 2571.8 1514.83 Z" fill="#000000" fill-rule="nonzero" fill-opacity="1"></path><path clip-path="url(#clip910)" d="M2608.5 1569.51 L2621.87 1569.51 L2621.87 1523.37 L2607.33 1526.29 L2607.33 1518.84 L2621.79 1515.92 L2629.97 1515.92 L2629.97 1569.51 L2643.34 1569.51 L2643.34 1576.4 L2608.5 1576.4 L2608.5 1569.51 Z" fill="#000000" fill-rule="nonzero" fill-opacity="1"></path><path clip-path="url(#clip910)" d="M2677.37 1521.31 Q2671.05 1521.31 2667.85 1527.55 Q2664.69 1533.74 2664.69 1546.22 Q2664.69 1558.66 2667.85 1564.9 Q2671.05 1571.09 2677.37 1571.09 Q2683.73 1571.09 2686.89 1564.9 Q2690.09 1558.66 2690.09 1546.22 Q2690.09 1533.74 2686.89 1527.55 Q2683.73 1521.31 2677.37 1521.31 M2677.37 1514.83 Q2687.54 1514.83 2692.88 1522.89 Q2698.27 1530.91 2698.27 1546.22 Q2698.27 1561.49 2692.88 1569.55 Q2687.54 1577.57 2677.37 1577.57 Q2667.2 1577.57 2661.81 1569.55 Q2656.47 1561.49 2656.47 1546.22 Q2656.47 1530.91 2661.81 1522.89 Q2667.2 1514.83 2677.37 1514.83 Z" fill="#000000" fill-rule="nonzero" fill-opacity="1"></path><path clip-path="url(#clip910)" d="M2714.07 1569.51 L2727.44 1569.51 L2727.44 1523.37 L2712.89 1526.29 L2712.89 1518.84 L2727.36 1515.92 L2735.54 1515.92 L2735.54 1569.51 L2748.91 1569.51 L2748.91 1576.4 L2714.07 1576.4 L2714.07 1569.51 Z" fill="#000000" fill-rule="nonzero" fill-opacity="1"></path><path clip-path="url(#clip910)" d="M2781.52 1550.39 L2770.09 1587.34 L2763.21 1587.34 L2774.63 1550.39 L2763.21 1513.45 L2770.09 1513.45 L2781.52 1550.39 Z" fill="#000000" fill-rule="nonzero" fill-opacity="1"></path><path clip-path="url(#clip910)" d="M3008.99 1513 L3008.99 1595.97 L3002.11 1595.97 L3002.11 1513 L3008.99 1513 Z" fill="#000000" fill-rule="nonzero" fill-opacity="1"></path><path clip-path="url(#clip910)" d="M3045.9 1521.31 Q3039.58 1521.31 3036.38 1527.55 Q3033.22 1533.74 3033.22 1546.22 Q3033.22 1558.66 3036.38 1564.9 Q3039.58 1571.09 3045.9 1571.09 Q3052.26 1571.09 3055.42 1564.9 Q3058.62 1558.66 3058.62 1546.22 Q3058.62 1533.74 3055.42 1527.55 Q3052.26 1521.31 3045.9 1521.31 M3045.9 1514.83 Q3056.06 1514.83 3061.41 1522.89 Q3066.8 1530.91 3066.8 1546.22 Q3066.8 1561.49 3061.41 1569.55 Q3056.06 1577.57 3045.9 1577.57 Q3035.73 1577.57 3030.34 1569.55 Q3024.99 1561.49 3024.99 1546.22 Q3024.99 1530.91 3030.34 1522.89 Q3035.73 1514.83 3045.9 1514.83 Z" fill="#000000" fill-rule="nonzero" fill-opacity="1"></path><path clip-path="url(#clip910)" d="M3082.6 1569.51 L3095.96 1569.51 L3095.96 1523.37 L3081.42 1526.29 L3081.42 1518.84 L3095.88 1515.92 L3104.07 1515.92 L3104.07 1569.51 L3117.43 1569.51 L3117.43 1576.4 L3082.6 1576.4 L3082.6 1569.51 Z" fill="#000000" fill-rule="nonzero" fill-opacity="1"></path><path clip-path="url(#clip910)" d="M3135.38 1569.51 L3148.75 1569.51 L3148.75 1523.37 L3134.21 1526.29 L3134.21 1518.84 L3148.67 1515.92 L3156.85 1515.92 L3156.85 1569.51 L3170.22 1569.51 L3170.22 1576.4 L3135.38 1576.4 L3135.38 1569.51 Z" fill="#000000" fill-rule="nonzero" fill-opacity="1"></path><path clip-path="url(#clip910)" d="M3204.25 1521.31 Q3197.93 1521.31 3194.73 1527.55 Q3191.57 1533.74 3191.57 1546.22 Q3191.57 1558.66 3194.73 1564.9 Q3197.93 1571.09 3204.25 1571.09 Q3210.61 1571.09 3213.77 1564.9 Q3216.97 1558.66 3216.97 1546.22 Q3216.97 1533.74 3213.77 1527.55 Q3210.61 1521.31 3204.25 1521.31 M3204.25 1514.83 Q3214.41 1514.83 3219.76 1522.89 Q3225.15 1530.91 3225.15 1546.22 Q3225.15 1561.49 3219.76 1569.55 Q3214.41 1577.57 3204.25 1577.57 Q3194.08 1577.57 3188.69 1569.55 Q3183.34 1561.49 3183.34 1546.22 Q3183.34 1530.91 3188.69 1522.89 Q3194.08 1514.83 3204.25 1514.83 Z" fill="#000000" fill-rule="nonzero" fill-opacity="1"></path><path clip-path="url(#clip910)" d="M3255.61 1550.39 L3244.19 1587.34 L3237.3 1587.34 L3248.72 1550.39 L3237.3 1513.45 L3244.19 1513.45 L3255.61 1550.39 Z" fill="#000000" fill-rule="nonzero" fill-opacity="1"></path><path clip-path="url(#clip910)" d="M3483.09 1513 L3483.09 1595.97 L3476.2 1595.97 L3476.2 1513 L3483.09 1513 Z" fill="#000000" fill-rule="nonzero" fill-opacity="1"></path><path clip-path="url(#clip910)" d="M3519.99 1521.31 Q3513.67 1521.31 3510.47 1527.55 Q3507.31 1533.74 3507.31 1546.22 Q3507.31 1558.66 3510.47 1564.9 Q3513.67 1571.09 3519.99 1571.09 Q3526.35 1571.09 3529.51 1564.9 Q3532.71 1558.66 3532.71 1546.22 Q3532.71 1533.74 3529.51 1527.55 Q3526.35 1521.31 3519.99 1521.31 M3519.99 1514.83 Q3530.16 1514.83 3535.51 1522.89 Q3540.89 1530.91 3540.89 1546.22 Q3540.89 1561.49 3535.51 1569.55 Q3530.16 1577.57 3519.99 1577.57 Q3509.82 1577.57 3504.43 1569.55 Q3499.09 1561.49 3499.09 1546.22 Q3499.09 1530.91 3504.43 1522.89 Q3509.82 1514.83 3519.99 1514.83 Z" fill="#000000" fill-rule="nonzero" fill-opacity="1"></path><path clip-path="url(#clip910)" d="M3556.69 1569.51 L3570.06 1569.51 L3570.06 1523.37 L3555.52 1526.29 L3555.52 1518.84 L3569.98 1515.92 L3578.16 1515.92 L3578.16 1569.51 L3591.53 1569.51 L3591.53 1576.4 L3556.69 1576.4 L3556.69 1569.51 Z" fill="#000000" fill-rule="nonzero" fill-opacity="1"></path><path clip-path="url(#clip910)" d="M3609.47 1569.51 L3622.84 1569.51 L3622.84 1523.37 L3608.3 1526.29 L3608.3 1518.84 L3622.76 1515.92 L3630.94 1515.92 L3630.94 1569.51 L3644.31 1569.51 L3644.31 1576.4 L3609.47 1576.4 L3609.47 1569.51 Z" fill="#000000" fill-rule="nonzero" fill-opacity="1"></path><path clip-path="url(#clip910)" d="M3662.26 1569.51 L3675.63 1569.51 L3675.63 1523.37 L3661.08 1526.29 L3661.08 1518.84 L3675.54 1515.92 L3683.73 1515.92 L3683.73 1569.51 L3697.1 1569.51 L3697.1 1576.4 L3662.26 1576.4 L3662.26 1569.51 Z" fill="#000000" fill-rule="nonzero" fill-opacity="1"></path><path clip-path="url(#clip910)" d="M3729.71 1550.39 L3718.28 1587.34 L3711.4 1587.34 L3722.82 1550.39 L3711.4 1513.45 L3718.28 1513.45 L3729.71 1550.39 Z" fill="#000000" fill-rule="nonzero" fill-opacity="1"></path><path clip-path="url(#clip910)" d="M3957.18 1513 L3957.18 1595.97 L3950.29 1595.97 L3950.29 1513 L3957.18 1513 Z" fill="#000000" fill-rule="nonzero" fill-opacity="1"></path><path clip-path="url(#clip910)" d="M3978 1569.51 L3991.37 1569.51 L3991.37 1523.37 L3976.83 1526.29 L3976.83 1518.84 L3991.29 1515.92 L3999.47 1515.92 L3999.47 1569.51 L4012.84 1569.51 L4012.84 1576.4 L3978 1576.4 L3978 1569.51 Z" fill="#000000" fill-rule="nonzero" fill-opacity="1"></path><path clip-path="url(#clip910)" d="M4046.87 1521.31 Q4040.55 1521.31 4037.35 1527.55 Q4034.19 1533.74 4034.19 1546.22 Q4034.19 1558.66 4037.35 1564.9 Q4040.55 1571.09 4046.87 1571.09 Q4053.23 1571.09 4056.39 1564.9 Q4059.59 1558.66 4059.59 1546.22 Q4059.59 1533.74 4056.39 1527.55 Q4053.23 1521.31 4046.87 1521.31 M4046.87 1514.83 Q4057.04 1514.83 4062.38 1522.89 Q4067.77 1530.91 4067.77 1546.22 Q4067.77 1561.49 4062.38 1569.55 Q4057.04 1577.57 4046.87 1577.57 Q4036.7 1577.57 4031.31 1569.55 Q4025.97 1561.49 4025.97 1546.22 Q4025.97 1530.91 4031.31 1522.89 Q4036.7 1514.83 4046.87 1514.83 Z" fill="#000000" fill-rule="nonzero" fill-opacity="1"></path><path clip-path="url(#clip910)" d="M4099.65 1521.31 Q4093.33 1521.31 4090.13 1527.55 Q4086.97 1533.74 4086.97 1546.22 Q4086.97 1558.66 4090.13 1564.9 Q4093.33 1571.09 4099.65 1571.09 Q4106.01 1571.09 4109.17 1564.9 Q4112.37 1558.66 4112.37 1546.22 Q4112.37 1533.74 4109.17 1527.55 Q4106.01 1521.31 4099.65 1521.31 M4099.65 1514.83 Q4109.82 1514.83 4115.17 1522.89 Q4120.55 1530.91 4120.55 1546.22 Q4120.55 1561.49 4115.17 1569.55 Q4109.82 1577.57 4099.65 1577.57 Q4089.48 1577.57 4084.1 1569.55 Q4078.75 1561.49 4078.75 1546.22 Q4078.75 1530.91 4084.1 1522.89 Q4089.48 1514.83 4099.65 1514.83 Z" fill="#000000" fill-rule="nonzero" fill-opacity="1"></path><path clip-path="url(#clip910)" d="M4152.43 1521.31 Q4146.12 1521.31 4142.91 1527.55 Q4139.76 1533.74 4139.76 1546.22 Q4139.76 1558.66 4142.91 1564.9 Q4146.12 1571.09 4152.43 1571.09 Q4158.79 1571.09 4161.95 1564.9 Q4165.15 1558.66 4165.15 1546.22 Q4165.15 1533.74 4161.95 1527.55 Q4158.79 1521.31 4152.43 1521.31 M4152.43 1514.83 Q4162.6 1514.83 4167.95 1522.89 Q4173.34 1530.91 4173.34 1546.22 Q4173.34 1561.49 4167.95 1569.55 Q4162.6 1577.57 4152.43 1577.57 Q4142.27 1577.57 4136.88 1569.55 Q4131.53 1561.49 4131.53 1546.22 Q4131.53 1530.91 4136.88 1522.89 Q4142.27 1514.83 4152.43 1514.83 Z" fill="#000000" fill-rule="nonzero" fill-opacity="1"></path><path clip-path="url(#clip910)" d="M4203.8 1550.39 L4192.38 1587.34 L4185.49 1587.34 L4196.91 1550.39 L4185.49 1513.45 L4192.38 1513.45 L4203.8 1550.39 Z" fill="#000000" fill-rule="nonzero" fill-opacity="1"></path><path clip-path="url(#clip910)" d="M4431.28 1513 L4431.28 1595.97 L4424.39 1595.97 L4424.39 1513 L4431.28 1513 Z" fill="#000000" fill-rule="nonzero" fill-opacity="1"></path><path clip-path="url(#clip910)" d="M4452.1 1569.51 L4465.47 1569.51 L4465.47 1523.37 L4450.92 1526.29 L4450.92 1518.84 L4465.38 1515.92 L4473.57 1515.92 L4473.57 1569.51 L4486.93 1569.51 L4486.93 1576.4 L4452.1 1576.4 L4452.1 1569.51 Z" fill="#000000" fill-rule="nonzero" fill-opacity="1"></path><path clip-path="url(#clip910)" d="M4520.96 1521.31 Q4514.64 1521.31 4511.44 1527.55 Q4508.28 1533.74 4508.28 1546.22 Q4508.28 1558.66 4511.44 1564.9 Q4514.64 1571.09 4520.96 1571.09 Q4527.32 1571.09 4530.48 1564.9 Q4533.68 1558.66 4533.68 1546.22 Q4533.68 1533.74 4530.48 1527.55 Q4527.32 1521.31 4520.96 1521.31 M4520.96 1514.83 Q4531.13 1514.83 4536.48 1522.89 Q4541.87 1530.91 4541.87 1546.22 Q4541.87 1561.49 4536.48 1569.55 Q4531.13 1577.57 4520.96 1577.57 Q4510.79 1577.57 4505.41 1569.55 Q4500.06 1561.49 4500.06 1546.22 Q4500.06 1530.91 4505.41 1522.89 Q4510.79 1514.83 4520.96 1514.83 Z" fill="#000000" fill-rule="nonzero" fill-opacity="1"></path><path clip-path="url(#clip910)" d="M4573.75 1521.31 Q4567.43 1521.31 4564.23 1527.55 Q4561.07 1533.74 4561.07 1546.22 Q4561.07 1558.66 4564.23 1564.9 Q4567.43 1571.09 4573.75 1571.09 Q4580.11 1571.09 4583.27 1564.9 Q4586.47 1558.66 4586.47 1546.22 Q4586.47 1533.74 4583.27 1527.55 Q4580.11 1521.31 4573.75 1521.31 M4573.75 1514.83 Q4583.91 1514.83 4589.26 1522.89 Q4594.65 1530.91 4594.65 1546.22 Q4594.65 1561.49 4589.26 1569.55 Q4583.91 1577.57 4573.75 1577.57 Q4563.58 1577.57 4558.19 1569.55 Q4552.84 1561.49 4552.84 1546.22 Q4552.84 1530.91 4558.19 1522.89 Q4563.58 1514.83 4573.75 1514.83 Z" fill="#000000" fill-rule="nonzero" fill-opacity="1"></path><path clip-path="url(#clip910)" d="M4610.45 1569.51 L4623.81 1569.51 L4623.81 1523.37 L4609.27 1526.29 L4609.27 1518.84 L4623.73 1515.92 L4631.92 1515.92 L4631.92 1569.51 L4645.28 1569.51 L4645.28 1576.4 L4610.45 1576.4 L4610.45 1569.51 Z" fill="#000000" fill-rule="nonzero" fill-opacity="1"></path><path clip-path="url(#clip910)" d="M4677.89 1550.39 L4666.47 1587.34 L4659.58 1587.34 L4671.01 1550.39 L4659.58 1513.45 L4666.47 1513.45 L4677.89 1550.39 Z" fill="#000000" fill-rule="nonzero" fill-opacity="1"></path><path clip-path="url(#clip910)" d="M4905.37 1513 L4905.37 1595.97 L4898.48 1595.97 L4898.48 1513 L4905.37 1513 Z" fill="#000000" fill-rule="nonzero" fill-opacity="1"></path><path clip-path="url(#clip910)" d="M4926.19 1569.51 L4939.56 1569.51 L4939.56 1523.37 L4925.02 1526.29 L4925.02 1518.84 L4939.48 1515.92 L4947.66 1515.92 L4947.66 1569.51 L4961.03 1569.51 L4961.03 1576.4 L4926.19 1576.4 L4926.19 1569.51 Z" fill="#000000" fill-rule="nonzero" fill-opacity="1"></path><path clip-path="url(#clip910)" d="M4995.06 1521.31 Q4988.74 1521.31 4985.54 1527.55 Q4982.38 1533.74 4982.38 1546.22 Q4982.38 1558.66 4985.54 1564.9 Q4988.74 1571.09 4995.06 1571.09 Q5001.42 1571.09 5004.58 1564.9 Q5007.78 1558.66 5007.78 1546.22 Q5007.78 1533.74 5004.58 1527.55 Q5001.42 1521.31 4995.06 1521.31 M4995.06 1514.83 Q5005.22 1514.83 5010.57 1522.89 Q5015.96 1530.91 5015.96 1546.22 Q5015.96 1561.49 5010.57 1569.55 Q5005.22 1577.57 4995.06 1577.57 Q4984.89 1577.57 4979.5 1569.55 Q4974.15 1561.49 4974.15 1546.22 Q4974.15 1530.91 4979.5 1522.89 Q4984.89 1514.83 4995.06 1514.83 Z" fill="#000000" fill-rule="nonzero" fill-opacity="1"></path><path clip-path="url(#clip910)" d="M5031.76 1569.51 L5045.13 1569.51 L5045.13 1523.37 L5030.58 1526.29 L5030.58 1518.84 L5045.05 1515.92 L5053.23 1515.92 L5053.23 1569.51 L5066.6 1569.51 L5066.6 1576.4 L5031.76 1576.4 L5031.76 1569.51 Z" fill="#000000" fill-rule="nonzero" fill-opacity="1"></path><path clip-path="url(#clip910)" d="M5100.62 1521.31 Q5094.3 1521.31 5091.1 1527.55 Q5087.94 1533.74 5087.94 1546.22 Q5087.94 1558.66 5091.1 1564.9 Q5094.3 1571.09 5100.62 1571.09 Q5106.98 1571.09 5110.14 1564.9 Q5113.34 1558.66 5113.34 1546.22 Q5113.34 1533.74 5110.14 1527.55 Q5106.98 1521.31 5100.62 1521.31 M5100.62 1514.83 Q5110.79 1514.83 5116.14 1522.89 Q5121.53 1530.91 5121.53 1546.22 Q5121.53 1561.49 5116.14 1569.55 Q5110.79 1577.57 5100.62 1577.57 Q5090.46 1577.57 5085.07 1569.55 Q5079.72 1561.49 5079.72 1546.22 Q5079.72 1530.91 5085.07 1522.89 Q5090.46 1514.83 5100.62 1514.83 Z" fill="#000000" fill-rule="nonzero" fill-opacity="1"></path><path clip-path="url(#clip910)" d="M5151.99 1550.39 L5140.57 1587.34 L5133.68 1587.34 L5145.1 1550.39 L5133.68 1513.45 L5140.57 1513.45 L5151.99 1550.39 Z" fill="#000000" fill-rule="nonzero" fill-opacity="1"></path><path clip-path="url(#clip910)" d="M5379.46 1513 L5379.46 1595.97 L5372.58 1595.97 L5372.58 1513 L5379.46 1513 Z" fill="#000000" fill-rule="nonzero" fill-opacity="1"></path><path clip-path="url(#clip910)" d="M5400.29 1569.51 L5413.65 1569.51 L5413.65 1523.37 L5399.11 1526.29 L5399.11 1518.84 L5413.57 1515.92 L5421.76 1515.92 L5421.76 1569.51 L5435.12 1569.51 L5435.12 1576.4 L5400.29 1576.4 L5400.29 1569.51 Z" fill="#000000" fill-rule="nonzero" fill-opacity="1"></path><path clip-path="url(#clip910)" d="M5469.15 1521.31 Q5462.83 1521.31 5459.63 1527.55 Q5456.47 1533.74 5456.47 1546.22 Q5456.47 1558.66 5459.63 1564.9 Q5462.83 1571.09 5469.15 1571.09 Q5475.51 1571.09 5478.67 1564.9 Q5481.87 1558.66 5481.87 1546.22 Q5481.87 1533.74 5478.67 1527.55 Q5475.51 1521.31 5469.15 1521.31 M5469.15 1514.83 Q5479.32 1514.83 5484.67 1522.89 Q5490.05 1530.91 5490.05 1546.22 Q5490.05 1561.49 5484.67 1569.55 Q5479.32 1577.57 5469.15 1577.57 Q5458.98 1577.57 5453.6 1569.55 Q5448.25 1561.49 5448.25 1546.22 Q5448.25 1530.91 5453.6 1522.89 Q5458.98 1514.83 5469.15 1514.83 Z" fill="#000000" fill-rule="nonzero" fill-opacity="1"></path><path clip-path="url(#clip910)" d="M5505.85 1569.51 L5519.22 1569.51 L5519.22 1523.37 L5504.68 1526.29 L5504.68 1518.84 L5519.14 1515.92 L5527.32 1515.92 L5527.32 1569.51 L5540.69 1569.51 L5540.69 1576.4 L5505.85 1576.4 L5505.85 1569.51 Z" fill="#000000" fill-rule="nonzero" fill-opacity="1"></path><path clip-path="url(#clip910)" d="M5558.64 1569.51 L5572 1569.51 L5572 1523.37 L5557.46 1526.29 L5557.46 1518.84 L5571.92 1515.92 L5580.11 1515.92 L5580.11 1569.51 L5593.47 1569.51 L5593.47 1576.4 L5558.64 1576.4 L5558.64 1569.51 Z" fill="#000000" fill-rule="nonzero" fill-opacity="1"></path><path clip-path="url(#clip910)" d="M5626.08 1550.39 L5614.66 1587.34 L5607.77 1587.34 L5619.2 1550.39 L5607.77 1513.45 L5614.66 1513.45 L5626.08 1550.39 Z" fill="#000000" fill-rule="nonzero" fill-opacity="1"></path><path clip-path="url(#clip910)" d="M5853.56 1513 L5853.56 1595.97 L5846.67 1595.97 L5846.67 1513 L5853.56 1513 Z" fill="#000000" fill-rule="nonzero" fill-opacity="1"></path><path clip-path="url(#clip910)" d="M5874.38 1569.51 L5887.75 1569.51 L5887.75 1523.37 L5873.21 1526.29 L5873.21 1518.84 L5887.67 1515.92 L5895.85 1515.92 L5895.85 1569.51 L5909.22 1569.51 L5909.22 1576.4 L5874.38 1576.4 L5874.38 1569.51 Z" fill="#000000" fill-rule="nonzero" fill-opacity="1"></path><path clip-path="url(#clip910)" d="M5927.16 1569.51 L5940.53 1569.51 L5940.53 1523.37 L5925.99 1526.29 L5925.99 1518.84 L5940.45 1515.92 L5948.63 1515.92 L5948.63 1569.51 L5962 1569.51 L5962 1576.4 L5927.16 1576.4 L5927.16 1569.51 Z" fill="#000000" fill-rule="nonzero" fill-opacity="1"></path><path clip-path="url(#clip910)" d="M5996.03 1521.31 Q5989.71 1521.31 5986.51 1527.55 Q5983.35 1533.74 5983.35 1546.22 Q5983.35 1558.66 5986.51 1564.9 Q5989.71 1571.09 5996.03 1571.09 Q6002.39 1571.09 6005.55 1564.9 Q6008.75 1558.66 6008.75 1546.22 Q6008.75 1533.74 6005.55 1527.55 Q6002.39 1521.31 5996.03 1521.31 M5996.03 1514.83 Q6006.2 1514.83 6011.54 1522.89 Q6016.93 1530.91 6016.93 1546.22 Q6016.93 1561.49 6011.54 1569.55 Q6006.2 1577.57 5996.03 1577.57 Q5985.86 1577.57 5980.47 1569.55 Q5975.13 1561.49 5975.13 1546.22 Q5975.13 1530.91 5980.47 1522.89 Q5985.86 1514.83 5996.03 1514.83 Z" fill="#000000" fill-rule="nonzero" fill-opacity="1"></path><path clip-path="url(#clip910)" d="M6048.81 1521.31 Q6042.49 1521.31 6039.29 1527.55 Q6036.13 1533.74 6036.13 1546.22 Q6036.13 1558.66 6039.29 1564.9 Q6042.49 1571.09 6048.81 1571.09 Q6055.17 1571.09 6058.33 1564.9 Q6061.53 1558.66 6061.53 1546.22 Q6061.53 1533.74 6058.33 1527.55 Q6055.17 1521.31 6048.81 1521.31 M6048.81 1514.83 Q6058.98 1514.83 6064.33 1522.89 Q6069.72 1530.91 6069.72 1546.22 Q6069.72 1561.49 6064.33 1569.55 Q6058.98 1577.57 6048.81 1577.57 Q6038.64 1577.57 6033.26 1569.55 Q6027.91 1561.49 6027.91 1546.22 Q6027.91 1530.91 6033.26 1522.89 Q6038.64 1514.83 6048.81 1514.83 Z" fill="#000000" fill-rule="nonzero" fill-opacity="1"></path><path clip-path="url(#clip910)" d="M6100.18 1550.39 L6088.75 1587.34 L6081.87 1587.34 L6093.29 1550.39 L6081.87 1513.45 L6088.75 1513.45 L6100.18 1550.39 Z" fill="#000000" fill-rule="nonzero" fill-opacity="1"></path><path clip-path="url(#clip910)" d="M6327.65 1513 L6327.65 1595.97 L6320.77 1595.97 L6320.77 1513 L6327.65 1513 Z" fill="#000000" fill-rule="nonzero" fill-opacity="1"></path><path clip-path="url(#clip910)" d="M6348.48 1569.51 L6361.84 1569.51 L6361.84 1523.37 L6347.3 1526.29 L6347.3 1518.84 L6361.76 1515.92 L6369.94 1515.92 L6369.94 1569.51 L6383.31 1569.51 L6383.31 1576.4 L6348.48 1576.4 L6348.48 1569.51 Z" fill="#000000" fill-rule="nonzero" fill-opacity="1"></path><path clip-path="url(#clip910)" d="M6401.26 1569.51 L6414.63 1569.51 L6414.63 1523.37 L6400.08 1526.29 L6400.08 1518.84 L6414.55 1515.92 L6422.73 1515.92 L6422.73 1569.51 L6436.1 1569.51 L6436.1 1576.4 L6401.26 1576.4 L6401.26 1569.51 Z" fill="#000000" fill-rule="nonzero" fill-opacity="1"></path><path clip-path="url(#clip910)" d="M6470.12 1521.31 Q6463.8 1521.31 6460.6 1527.55 Q6457.44 1533.74 6457.44 1546.22 Q6457.44 1558.66 6460.6 1564.9 Q6463.8 1571.09 6470.12 1571.09 Q6476.48 1571.09 6479.64 1564.9 Q6482.84 1558.66 6482.84 1546.22 Q6482.84 1533.74 6479.64 1527.55 Q6476.48 1521.31 6470.12 1521.31 M6470.12 1514.83 Q6480.29 1514.83 6485.64 1522.89 Q6491.03 1530.91 6491.03 1546.22 Q6491.03 1561.49 6485.64 1569.55 Q6480.29 1577.57 6470.12 1577.57 Q6459.96 1577.57 6454.57 1569.55 Q6449.22 1561.49 6449.22 1546.22 Q6449.22 1530.91 6454.57 1522.89 Q6459.96 1514.83 6470.12 1514.83 Z" fill="#000000" fill-rule="nonzero" fill-opacity="1"></path><path clip-path="url(#clip910)" d="M6506.82 1569.51 L6520.19 1569.51 L6520.19 1523.37 L6505.65 1526.29 L6505.65 1518.84 L6520.11 1515.92 L6528.29 1515.92 L6528.29 1569.51 L6541.66 1569.51 L6541.66 1576.4 L6506.82 1576.4 L6506.82 1569.51 Z" fill="#000000" fill-rule="nonzero" fill-opacity="1"></path><path clip-path="url(#clip910)" d="M6574.27 1550.39 L6562.85 1587.34 L6555.96 1587.34 L6567.39 1550.39 L6555.96 1513.45 L6562.85 1513.45 L6574.27 1550.39 Z" fill="#000000" fill-rule="nonzero" fill-opacity="1"></path><path clip-path="url(#clip910)" d="M6801.75 1513 L6801.75 1595.97 L6794.86 1595.97 L6794.86 1513 L6801.75 1513 Z" fill="#000000" fill-rule="nonzero" fill-opacity="1"></path><path clip-path="url(#clip910)" d="M6822.57 1569.51 L6835.94 1569.51 L6835.94 1523.37 L6821.39 1526.29 L6821.39 1518.84 L6835.86 1515.92 L6844.04 1515.92 L6844.04 1569.51 L6857.41 1569.51 L6857.41 1576.4 L6822.57 1576.4 L6822.57 1569.51 Z" fill="#000000" fill-rule="nonzero" fill-opacity="1"></path><path clip-path="url(#clip910)" d="M6875.35 1569.51 L6888.72 1569.51 L6888.72 1523.37 L6874.18 1526.29 L6874.18 1518.84 L6888.64 1515.92 L6896.82 1515.92 L6896.82 1569.51 L6910.19 1569.51 L6910.19 1576.4 L6875.35 1576.4 L6875.35 1569.51 Z" fill="#000000" fill-rule="nonzero" fill-opacity="1"></path><path clip-path="url(#clip910)" d="M6928.14 1569.51 L6941.5 1569.51 L6941.5 1523.37 L6926.96 1526.29 L6926.96 1518.84 L6941.42 1515.92 L6949.61 1515.92 L6949.61 1569.51 L6962.97 1569.51 L6962.97 1576.4 L6928.14 1576.4 L6928.14 1569.51 Z" fill="#000000" fill-rule="nonzero" fill-opacity="1"></path><path clip-path="url(#clip910)" d="M6997 1521.31 Q6990.68 1521.31 6987.48 1527.55 Q6984.32 1533.74 6984.32 1546.22 Q6984.32 1558.66 6987.48 1564.9 Q6990.68 1571.09 6997 1571.09 Q7003.36 1571.09 7006.52 1564.9 Q7009.72 1558.66 7009.72 1546.22 Q7009.72 1533.74 7006.52 1527.55 Q7003.36 1521.31 6997 1521.31 M6997 1514.83 Q7007.17 1514.83 7012.52 1522.89 Q7017.9 1530.91 7017.9 1546.22 Q7017.9 1561.49 7012.52 1569.55 Q7007.17 1577.57 6997 1577.57 Q6986.83 1577.57 6981.45 1569.55 Q6976.1 1561.49 6976.1 1546.22 Q6976.1 1530.91 6981.45 1522.89 Q6986.83 1514.83 6997 1514.83 Z" fill="#000000" fill-rule="nonzero" fill-opacity="1"></path><path clip-path="url(#clip910)" d="M7048.37 1550.39 L7036.94 1587.34 L7030.06 1587.34 L7041.48 1550.39 L7030.06 1513.45 L7036.94 1513.45 L7048.37 1550.39 Z" fill="#000000" fill-rule="nonzero" fill-opacity="1"></path><path clip-path="url(#clip910)" d="M7275.84 1513 L7275.84 1595.97 L7268.96 1595.97 L7268.96 1513 L7275.84 1513 Z" fill="#000000" fill-rule="nonzero" fill-opacity="1"></path><path clip-path="url(#clip910)" d="M7296.66 1569.51 L7310.03 1569.51 L7310.03 1523.37 L7295.49 1526.29 L7295.49 1518.84 L7309.95 1515.92 L7318.13 1515.92 L7318.13 1569.51 L7331.5 1569.51 L7331.5 1576.4 L7296.66 1576.4 L7296.66 1569.51 Z" fill="#000000" fill-rule="nonzero" fill-opacity="1"></path><path clip-path="url(#clip910)" d="M7349.45 1569.51 L7362.82 1569.51 L7362.82 1523.37 L7348.27 1526.29 L7348.27 1518.84 L7362.73 1515.92 L7370.92 1515.92 L7370.92 1569.51 L7384.29 1569.51 L7384.29 1576.4 L7349.45 1576.4 L7349.45 1569.51 Z" fill="#000000" fill-rule="nonzero" fill-opacity="1"></path><path clip-path="url(#clip910)" d="M7402.23 1569.51 L7415.6 1569.51 L7415.6 1523.37 L7401.06 1526.29 L7401.06 1518.84 L7415.52 1515.92 L7423.7 1515.92 L7423.7 1569.51 L7437.07 1569.51 L7437.07 1576.4 L7402.23 1576.4 L7402.23 1569.51 Z" fill="#000000" fill-rule="nonzero" fill-opacity="1"></path><path clip-path="url(#clip910)" d="M7455.01 1569.51 L7468.38 1569.51 L7468.38 1523.37 L7453.84 1526.29 L7453.84 1518.84 L7468.3 1515.92 L7476.48 1515.92 L7476.48 1569.51 L7489.85 1569.51 L7489.85 1576.4 L7455.01 1576.4 L7455.01 1569.51 Z" fill="#000000" fill-rule="nonzero" fill-opacity="1"></path><path clip-path="url(#clip910)" d="M7522.46 1550.39 L7511.04 1587.34 L7504.15 1587.34 L7515.57 1550.39 L7504.15 1513.45 L7511.04 1513.45 L7522.46 1550.39 Z" fill="#000000" fill-rule="nonzero" fill-opacity="1"></path><circle clip-path="url(#clip912)" style="fill:#3da44d; stroke:none; fill-opacity:1" cx="284.291" cy="81.8921" r="2"></circle>
<circle clip-path="url(#clip912)" style="fill:#3da44d; stroke:none; fill-opacity:1" cx="758.386" cy="81.8921" r="2"></circle>
<circle clip-path="url(#clip912)" style="fill:#3da44d; stroke:none; fill-opacity:1" cx="1232.48" cy="81.8921" r="2"></circle>
<circle clip-path="url(#clip912)" style="fill:#3da44d; stroke:none; fill-opacity:1" cx="1706.57" cy="81.8921" r="2"></circle>
<circle clip-path="url(#clip912)" style="fill:#3da44d; stroke:none; fill-opacity:1" cx="2180.67" cy="81.8921" r="2"></circle>
<circle clip-path="url(#clip912)" style="fill:#3da44d; stroke:none; fill-opacity:1" cx="2654.76" cy="81.8921" r="2"></circle>
<circle clip-path="url(#clip912)" style="fill:#3da44d; stroke:none; fill-opacity:1" cx="3128.86" cy="81.8921" r="2"></circle>
<circle clip-path="url(#clip912)" style="fill:#3da44d; stroke:none; fill-opacity:1" cx="3602.95" cy="81.8921" r="2"></circle>
<circle clip-path="url(#clip912)" style="fill:#3da44d; stroke:none; fill-opacity:1" cx="4077.05" cy="81.8921" r="2"></circle>
<circle clip-path="url(#clip912)" style="fill:#3da44d; stroke:none; fill-opacity:1" cx="4551.14" cy="81.8921" r="2"></circle>
<circle clip-path="url(#clip912)" style="fill:#3da44d; stroke:none; fill-opacity:1" cx="5025.24" cy="81.8921" r="2"></circle>
<circle clip-path="url(#clip912)" style="fill:#3da44d; stroke:none; fill-opacity:1" cx="5499.33" cy="81.8921" r="2"></circle>
<circle clip-path="url(#clip912)" style="fill:#3da44d; stroke:none; fill-opacity:1" cx="5973.43" cy="81.8921" r="2"></circle>
<circle clip-path="url(#clip912)" style="fill:#3da44d; stroke:none; fill-opacity:1" cx="6447.52" cy="81.8921" r="2"></circle>
<circle clip-path="url(#clip912)" style="fill:#3da44d; stroke:none; fill-opacity:1" cx="6921.61" cy="81.8921" r="2"></circle>
<circle clip-path="url(#clip912)" style="fill:#3da44d; stroke:none; fill-opacity:1" cx="7395.71" cy="81.8921" r="2"></circle>
<path clip-path="url(#clip910)" d="M284.291 57.0398 Q277.972 57.0398 274.772 63.2782 Q271.612 69.4761 271.612 81.9529 Q271.612 94.3892 274.772 100.628 Q277.972 106.825 284.291 106.825 Q290.651 106.825 293.811 100.628 Q297.011 94.3892 297.011 81.9529 Q297.011 69.4761 293.811 63.2782 Q290.651 57.0398 284.291 57.0398 M284.291 50.5584 Q294.459 50.5584 299.806 58.6197 Q305.194 66.6405 305.194 81.9529 Q305.194 97.2248 299.806 105.286 Q294.459 113.307 284.291 113.307 Q274.124 113.307 268.736 105.286 Q263.389 97.2248 263.389 81.9529 Q263.389 66.6405 268.736 58.6197 Q274.124 50.5584 284.291 50.5584 Z" fill="#000000" fill-rule="nonzero" fill-opacity="1"></path><path clip-path="url(#clip910)" d="M758.386 57.0398 Q752.066 57.0398 748.866 63.2782 Q745.706 69.4761 745.706 81.9529 Q745.706 94.3892 748.866 100.628 Q752.066 106.825 758.386 106.825 Q764.746 106.825 767.905 100.628 Q771.106 94.3892 771.106 81.9529 Q771.106 69.4761 767.905 63.2782 Q764.746 57.0398 758.386 57.0398 M758.386 50.5584 Q768.554 50.5584 773.901 58.6197 Q779.288 66.6405 779.288 81.9529 Q779.288 97.2248 773.901 105.286 Q768.554 113.307 758.386 113.307 Q748.218 113.307 742.83 105.286 Q737.483 97.2248 737.483 81.9529 Q737.483 66.6405 742.83 58.6197 Q748.218 50.5584 758.386 50.5584 Z" fill="#000000" fill-rule="nonzero" fill-opacity="1"></path><path clip-path="url(#clip910)" d="M1232.48 57.0398 Q1226.16 57.0398 1222.96 63.2782 Q1219.8 69.4761 1219.8 81.9529 Q1219.8 94.3892 1222.96 100.628 Q1226.16 106.825 1232.48 106.825 Q1238.84 106.825 1242 100.628 Q1245.2 94.3892 1245.2 81.9529 Q1245.2 69.4761 1242 63.2782 Q1238.84 57.0398 1232.48 57.0398 M1232.48 50.5584 Q1242.65 50.5584 1248 58.6197 Q1253.38 66.6405 1253.38 81.9529 Q1253.38 97.2248 1248 105.286 Q1242.65 113.307 1232.48 113.307 Q1222.31 113.307 1216.92 105.286 Q1211.58 97.2248 1211.58 81.9529 Q1211.58 66.6405 1216.92 58.6197 Q1222.31 50.5584 1232.48 50.5584 Z" fill="#000000" fill-rule="nonzero" fill-opacity="1"></path><path clip-path="url(#clip910)" d="M1643.6 105.246 L1672.16 105.246 L1672.16 112.132 L1633.76 112.132 L1633.76 105.246 Q1638.42 100.425 1646.44 92.3232 Q1654.5 84.1809 1656.57 81.8314 Q1660.5 77.4159 1662.04 74.3777 Q1663.61 71.299 1663.61 68.3419 Q1663.61 63.5213 1660.21 60.4831 Q1656.85 57.4449 1651.42 57.4449 Q1647.57 57.4449 1643.28 58.7817 Q1639.03 60.1185 1634.16 62.8326 L1634.16 54.5688 Q1639.11 52.5838 1643.4 51.5711 Q1647.69 50.5584 1651.26 50.5584 Q1660.66 50.5584 1666.25 55.2574 Q1671.84 59.9565 1671.84 67.8152 Q1671.84 71.5421 1670.42 74.9043 Q1669.04 78.2261 1665.36 82.7631 Q1664.34 83.9378 1658.92 89.5686 Q1653.49 95.1588 1643.6 105.246 Z" fill="#000000" fill-rule="nonzero" fill-opacity="1"></path><path clip-path="url(#clip910)" d="M1696.39 105.246 L1724.95 105.246 L1724.95 112.132 L1686.54 112.132 L1686.54 105.246 Q1691.2 100.425 1699.22 92.3232 Q1707.28 84.1809 1709.35 81.8314 Q1713.28 77.4159 1714.82 74.3777 Q1716.4 71.299 1716.4 68.3419 Q1716.4 63.5213 1713 60.4831 Q1709.63 57.4449 1704.21 57.4449 Q1700.36 57.4449 1696.06 58.7817 Q1691.81 60.1185 1686.95 62.8326 L1686.95 54.5688 Q1691.89 52.5838 1696.18 51.5711 Q1700.48 50.5584 1704.04 50.5584 Q1713.44 50.5584 1719.03 55.2574 Q1724.62 59.9565 1724.62 67.8152 Q1724.62 71.5421 1723.2 74.9043 Q1721.83 78.2261 1718.14 82.7631 Q1717.13 83.9378 1711.7 89.5686 Q1706.27 95.1588 1696.39 105.246 Z" fill="#000000" fill-rule="nonzero" fill-opacity="1"></path><path clip-path="url(#clip910)" d="M1766.91 79.5223 Q1772.79 80.7781 1776.07 84.748 Q1779.39 88.7179 1779.39 94.5512 Q1779.39 103.504 1773.23 108.405 Q1767.08 113.307 1755.73 113.307 Q1751.92 113.307 1747.87 112.537 Q1743.86 111.808 1739.57 110.309 L1739.57 102.41 Q1742.97 104.395 1747.02 105.408 Q1751.07 106.42 1755.49 106.42 Q1763.19 106.42 1767.2 103.382 Q1771.25 100.344 1771.25 94.5512 Q1771.25 89.204 1767.48 86.2063 Q1763.75 83.1682 1757.07 83.1682 L1750.02 83.1682 L1750.02 76.4437 L1757.39 76.4437 Q1763.43 76.4437 1766.63 74.0536 Q1769.83 71.6231 1769.83 67.0861 Q1769.83 62.4275 1766.51 59.9565 Q1763.23 57.4449 1757.07 57.4449 Q1753.71 57.4449 1749.86 58.1741 Q1746.01 58.9032 1741.39 60.4426 L1741.39 53.151 Q1746.05 51.8547 1750.1 51.2065 Q1754.19 50.5584 1757.8 50.5584 Q1767.12 50.5584 1772.54 54.8118 Q1777.97 59.0248 1777.97 66.2354 Q1777.97 71.2585 1775.1 74.7423 Q1772.22 78.1855 1766.91 79.5223 Z" fill="#000000" fill-rule="nonzero" fill-opacity="1"></path><path clip-path="url(#clip910)" d="M2180.67 57.0398 Q2174.35 57.0398 2171.15 63.2782 Q2167.99 69.4761 2167.99 81.9529 Q2167.99 94.3892 2171.15 100.628 Q2174.35 106.825 2180.67 106.825 Q2187.03 106.825 2190.19 100.628 Q2193.39 94.3892 2193.39 81.9529 Q2193.39 69.4761 2190.19 63.2782 Q2187.03 57.0398 2180.67 57.0398 M2180.67 50.5584 Q2190.84 50.5584 2196.18 58.6197 Q2201.57 66.6405 2201.57 81.9529 Q2201.57 97.2248 2196.18 105.286 Q2190.84 113.307 2180.67 113.307 Q2170.5 113.307 2165.11 105.286 Q2159.77 97.2248 2159.77 81.9529 Q2159.77 66.6405 2165.11 58.6197 Q2170.5 50.5584 2180.67 50.5584 Z" fill="#000000" fill-rule="nonzero" fill-opacity="1"></path><path clip-path="url(#clip910)" d="M2584.64 105.246 L2598.01 105.246 L2598.01 59.1058 L2583.47 62.0224 L2583.47 54.5688 L2597.93 51.6521 L2606.11 51.6521 L2606.11 105.246 L2619.48 105.246 L2619.48 112.132 L2584.64 112.132 L2584.64 105.246 Z" fill="#000000" fill-rule="nonzero" fill-opacity="1"></path><path clip-path="url(#clip910)" d="M2653.51 57.0398 Q2647.19 57.0398 2643.99 63.2782 Q2640.83 69.4761 2640.83 81.9529 Q2640.83 94.3892 2643.99 100.628 Q2647.19 106.825 2653.51 106.825 Q2659.87 106.825 2663.03 100.628 Q2666.23 94.3892 2666.23 81.9529 Q2666.23 69.4761 2663.03 63.2782 Q2659.87 57.0398 2653.51 57.0398 M2653.51 50.5584 Q2663.68 50.5584 2669.02 58.6197 Q2674.41 66.6405 2674.41 81.9529 Q2674.41 97.2248 2669.02 105.286 Q2663.68 113.307 2653.51 113.307 Q2643.34 113.307 2637.95 105.286 Q2632.61 97.2248 2632.61 81.9529 Q2632.61 66.6405 2637.95 58.6197 Q2643.34 50.5584 2653.51 50.5584 Z" fill="#000000" fill-rule="nonzero" fill-opacity="1"></path><path clip-path="url(#clip910)" d="M2713.58 79.5223 Q2719.46 80.7781 2722.74 84.748 Q2726.06 88.7179 2726.06 94.5512 Q2726.06 103.504 2719.9 108.405 Q2713.74 113.307 2702.4 113.307 Q2698.59 113.307 2694.54 112.537 Q2690.53 111.808 2686.24 110.309 L2686.24 102.41 Q2689.64 104.395 2693.69 105.408 Q2697.74 106.42 2702.16 106.42 Q2709.86 106.42 2713.87 103.382 Q2717.92 100.344 2717.92 94.5512 Q2717.92 89.204 2714.15 86.2063 Q2710.42 83.1682 2703.74 83.1682 L2696.69 83.1682 L2696.69 76.4437 L2704.06 76.4437 Q2710.1 76.4437 2713.3 74.0536 Q2716.5 71.6231 2716.5 67.0861 Q2716.5 62.4275 2713.18 59.9565 Q2709.9 57.4449 2703.74 57.4449 Q2700.38 57.4449 2696.53 58.1741 Q2692.68 58.9032 2688.06 60.4426 L2688.06 53.151 Q2692.72 51.8547 2696.77 51.2065 Q2700.86 50.5584 2704.47 50.5584 Q2713.79 50.5584 2719.21 54.8118 Q2724.64 59.0248 2724.64 66.2354 Q2724.64 71.2585 2721.77 74.7423 Q2718.89 78.1855 2713.58 79.5223 Z" fill="#000000" fill-rule="nonzero" fill-opacity="1"></path><path clip-path="url(#clip910)" d="M3128.86 57.0398 Q3122.54 57.0398 3119.34 63.2782 Q3116.18 69.4761 3116.18 81.9529 Q3116.18 94.3892 3119.34 100.628 Q3122.54 106.825 3128.86 106.825 Q3135.22 106.825 3138.38 100.628 Q3141.58 94.3892 3141.58 81.9529 Q3141.58 69.4761 3138.38 63.2782 Q3135.22 57.0398 3128.86 57.0398 M3128.86 50.5584 Q3139.03 50.5584 3144.37 58.6197 Q3149.76 66.6405 3149.76 81.9529 Q3149.76 97.2248 3144.37 105.286 Q3139.03 113.307 3128.86 113.307 Q3118.69 113.307 3113.3 105.286 Q3107.96 97.2248 3107.96 81.9529 Q3107.96 66.6405 3113.3 58.6197 Q3118.69 50.5584 3128.86 50.5584 Z" fill="#000000" fill-rule="nonzero" fill-opacity="1"></path><path clip-path="url(#clip910)" d="M3532.26 105.246 L3545.63 105.246 L3545.63 59.1058 L3531.09 62.0224 L3531.09 54.5688 L3545.55 51.6521 L3553.73 51.6521 L3553.73 105.246 L3567.1 105.246 L3567.1 112.132 L3532.26 112.132 L3532.26 105.246 Z" fill="#000000" fill-rule="nonzero" fill-opacity="1"></path><path clip-path="url(#clip910)" d="M3590.68 105.246 L3619.24 105.246 L3619.24 112.132 L3580.83 112.132 L3580.83 105.246 Q3585.49 100.425 3593.51 92.3232 Q3601.58 84.1809 3603.64 81.8314 Q3607.57 77.4159 3609.11 74.3777 Q3610.69 71.299 3610.69 68.3419 Q3610.69 63.5213 3607.29 60.4831 Q3603.92 57.4449 3598.5 57.4449 Q3594.65 57.4449 3590.35 58.7817 Q3586.1 60.1185 3581.24 62.8326 L3581.24 54.5688 Q3586.18 52.5838 3590.48 51.5711 Q3594.77 50.5584 3598.33 50.5584 Q3607.73 50.5584 3613.32 55.2574 Q3618.91 59.9565 3618.91 67.8152 Q3618.91 71.5421 3617.5 74.9043 Q3616.12 78.2261 3612.43 82.7631 Q3611.42 83.9378 3605.99 89.5686 Q3600.56 95.1588 3590.68 105.246 Z" fill="#000000" fill-rule="nonzero" fill-opacity="1"></path><path clip-path="url(#clip910)" d="M3653.91 57.0398 Q3647.59 57.0398 3644.39 63.2782 Q3641.23 69.4761 3641.23 81.9529 Q3641.23 94.3892 3644.39 100.628 Q3647.59 106.825 3653.91 106.825 Q3660.27 106.825 3663.43 100.628 Q3666.63 94.3892 3666.63 81.9529 Q3666.63 69.4761 3663.43 63.2782 Q3660.27 57.0398 3653.91 57.0398 M3653.91 50.5584 Q3664.08 50.5584 3669.43 58.6197 Q3674.82 66.6405 3674.82 81.9529 Q3674.82 97.2248 3669.43 105.286 Q3664.08 113.307 3653.91 113.307 Q3643.75 113.307 3638.36 105.286 Q3633.01 97.2248 3633.01 81.9529 Q3633.01 66.6405 3638.36 58.6197 Q3643.75 50.5584 3653.91 50.5584 Z" fill="#000000" fill-rule="nonzero" fill-opacity="1"></path><path clip-path="url(#clip910)" d="M4077.05 57.0398 Q4070.73 57.0398 4067.53 63.2782 Q4064.37 69.4761 4064.37 81.9529 Q4064.37 94.3892 4067.53 100.628 Q4070.73 106.825 4077.05 106.825 Q4083.41 106.825 4086.57 100.628 Q4089.77 94.3892 4089.77 81.9529 Q4089.77 69.4761 4086.57 63.2782 Q4083.41 57.0398 4077.05 57.0398 M4077.05 50.5584 Q4087.22 50.5584 4092.56 58.6197 Q4097.95 66.6405 4097.95 81.9529 Q4097.95 97.2248 4092.56 105.286 Q4087.22 113.307 4077.05 113.307 Q4066.88 113.307 4061.49 105.286 Q4056.14 97.2248 4056.14 81.9529 Q4056.14 66.6405 4061.49 58.6197 Q4066.88 50.5584 4077.05 50.5584 Z" fill="#000000" fill-rule="nonzero" fill-opacity="1"></path><path clip-path="url(#clip910)" d="M4533.01 79.5223 Q4538.89 80.7781 4542.17 84.748 Q4545.49 88.7179 4545.49 94.5512 Q4545.49 103.504 4539.33 108.405 Q4533.18 113.307 4521.83 113.307 Q4518.03 113.307 4513.97 112.537 Q4509.96 111.808 4505.67 110.309 L4505.67 102.41 Q4509.07 104.395 4513.12 105.408 Q4517.17 106.42 4521.59 106.42 Q4529.29 106.42 4533.3 103.382 Q4537.35 100.344 4537.35 94.5512 Q4537.35 89.204 4533.58 86.2063 Q4529.85 83.1682 4523.17 83.1682 L4516.12 83.1682 L4516.12 76.4437 L4523.49 76.4437 Q4529.53 76.4437 4532.73 74.0536 Q4535.93 71.6231 4535.93 67.0861 Q4535.93 62.4275 4532.61 59.9565 Q4529.33 57.4449 4523.17 57.4449 Q4519.81 57.4449 4515.96 58.1741 Q4512.11 58.9032 4507.49 60.4426 L4507.49 53.151 Q4512.15 51.8547 4516.2 51.2065 Q4520.29 50.5584 4523.9 50.5584 Q4533.22 50.5584 4538.64 54.8118 Q4544.07 59.0248 4544.07 66.2354 Q4544.07 71.2585 4541.2 74.7423 Q4538.32 78.1855 4533.01 79.5223 Z" fill="#000000" fill-rule="nonzero" fill-opacity="1"></path><path clip-path="url(#clip910)" d="M4568.05 105.246 L4596.61 105.246 L4596.61 112.132 L4558.21 112.132 L4558.21 105.246 Q4562.87 100.425 4570.89 92.3232 Q4578.95 84.1809 4581.02 81.8314 Q4584.95 77.4159 4586.49 74.3777 Q4588.07 71.299 4588.07 68.3419 Q4588.07 63.5213 4584.66 60.4831 Q4581.3 57.4449 4575.87 57.4449 Q4572.02 57.4449 4567.73 58.7817 Q4563.48 60.1185 4558.62 62.8326 L4558.62 54.5688 Q4563.56 52.5838 4567.85 51.5711 Q4572.15 50.5584 4575.71 50.5584 Q4585.11 50.5584 4590.7 55.2574 Q4596.29 59.9565 4596.29 67.8152 Q4596.29 71.5421 4594.87 74.9043 Q4593.49 78.2261 4589.81 82.7631 Q4588.79 83.9378 4583.37 89.5686 Q4577.94 95.1588 4568.05 105.246 Z" fill="#000000" fill-rule="nonzero" fill-opacity="1"></path><path clip-path="url(#clip910)" d="M5025.24 57.0398 Q5018.92 57.0398 5015.72 63.2782 Q5012.56 69.4761 5012.56 81.9529 Q5012.56 94.3892 5015.72 100.628 Q5018.92 106.825 5025.24 106.825 Q5031.6 106.825 5034.76 100.628 Q5037.96 94.3892 5037.96 81.9529 Q5037.96 69.4761 5034.76 63.2782 Q5031.6 57.0398 5025.24 57.0398 M5025.24 50.5584 Q5035.4 50.5584 5040.75 58.6197 Q5046.14 66.6405 5046.14 81.9529 Q5046.14 97.2248 5040.75 105.286 Q5035.4 113.307 5025.24 113.307 Q5015.07 113.307 5009.68 105.286 Q5004.33 97.2248 5004.33 81.9529 Q5004.33 66.6405 5009.68 58.6197 Q5015.07 50.5584 5025.24 50.5584 Z" fill="#000000" fill-rule="nonzero" fill-opacity="1"></path><path clip-path="url(#clip910)" d="M5429.43 105.246 L5442.8 105.246 L5442.8 59.1058 L5428.26 62.0224 L5428.26 54.5688 L5442.72 51.6521 L5450.9 51.6521 L5450.9 105.246 L5464.27 105.246 L5464.27 112.132 L5429.43 112.132 L5429.43 105.246 Z" fill="#000000" fill-rule="nonzero" fill-opacity="1"></path><path clip-path="url(#clip910)" d="M5478.73 51.6521 L5517.62 51.6521 L5517.62 55.1359 L5495.66 112.132 L5487.12 112.132 L5507.78 58.5387 L5478.73 58.5387 L5478.73 51.6521 Z" fill="#000000" fill-rule="nonzero" fill-opacity="1"></path><path clip-path="url(#clip910)" d="M5531.52 51.6521 L5570.4 51.6521 L5570.4 55.1359 L5548.45 112.132 L5539.9 112.132 L5560.56 58.5387 L5531.52 58.5387 L5531.52 51.6521 Z" fill="#000000" fill-rule="nonzero" fill-opacity="1"></path><path clip-path="url(#clip910)" d="M5973.43 57.0398 Q5967.11 57.0398 5963.91 63.2782 Q5960.75 69.4761 5960.75 81.9529 Q5960.75 94.3892 5963.91 100.628 Q5967.11 106.825 5973.43 106.825 Q5979.79 106.825 5982.94 100.628 Q5986.15 94.3892 5986.15 81.9529 Q5986.15 69.4761 5982.94 63.2782 Q5979.79 57.0398 5973.43 57.0398 M5973.43 50.5584 Q5983.59 50.5584 5988.94 58.6197 Q5994.33 66.6405 5994.33 81.9529 Q5994.33 97.2248 5988.94 105.286 Q5983.59 113.307 5973.43 113.307 Q5963.26 113.307 5957.87 105.286 Q5952.52 97.2248 5952.52 81.9529 Q5952.52 66.6405 5957.87 58.6197 Q5963.26 50.5584 5973.43 50.5584 Z" fill="#000000" fill-rule="nonzero" fill-opacity="1"></path><path clip-path="url(#clip910)" d="M6376.69 105.246 L6390.06 105.246 L6390.06 59.1058 L6375.51 62.0224 L6375.51 54.5688 L6389.98 51.6521 L6398.16 51.6521 L6398.16 105.246 L6411.53 105.246 L6411.53 112.132 L6376.69 112.132 L6376.69 105.246 Z" fill="#000000" fill-rule="nonzero" fill-opacity="1"></path><path clip-path="url(#clip910)" d="M6446.57 78.6311 Q6441.06 78.6311 6437.82 82.3985 Q6434.62 86.1658 6434.62 92.7283 Q6434.62 99.2503 6437.82 103.058 Q6441.06 106.825 6446.57 106.825 Q6452.08 106.825 6455.28 103.058 Q6458.52 99.2503 6458.52 92.7283 Q6458.52 86.1658 6455.28 82.3985 Q6452.08 78.6311 6446.57 78.6311 M6462.81 52.9889 L6462.81 60.4426 Q6459.73 58.9843 6456.57 58.2146 Q6453.45 57.4449 6450.38 57.4449 Q6442.27 57.4449 6437.98 62.9136 Q6433.73 68.3824 6433.12 79.4413 Q6435.51 75.917 6439.11 74.0536 Q6442.72 72.1497 6447.05 72.1497 Q6456.17 72.1497 6461.43 77.6994 Q6466.74 83.2087 6466.74 92.7283 Q6466.74 102.045 6461.23 107.676 Q6455.72 113.307 6446.57 113.307 Q6436.08 113.307 6430.53 105.286 Q6424.98 97.2248 6424.98 81.9529 Q6424.98 67.6127 6431.78 59.1058 Q6438.59 50.5584 6450.05 50.5584 Q6453.13 50.5584 6456.25 51.166 Q6459.41 51.7737 6462.81 52.9889 Z" fill="#000000" fill-rule="nonzero" fill-opacity="1"></path><path clip-path="url(#clip910)" d="M6499.35 78.6311 Q6493.84 78.6311 6490.6 82.3985 Q6487.4 86.1658 6487.4 92.7283 Q6487.4 99.2503 6490.6 103.058 Q6493.84 106.825 6499.35 106.825 Q6504.86 106.825 6508.06 103.058 Q6511.3 99.2503 6511.3 92.7283 Q6511.3 86.1658 6508.06 82.3985 Q6504.86 78.6311 6499.35 78.6311 M6515.6 52.9889 L6515.6 60.4426 Q6512.52 58.9843 6509.36 58.2146 Q6506.24 57.4449 6503.16 57.4449 Q6495.06 57.4449 6490.76 62.9136 Q6486.51 68.3824 6485.9 79.4413 Q6488.29 75.917 6491.9 74.0536 Q6495.5 72.1497 6499.84 72.1497 Q6508.95 72.1497 6514.22 77.6994 Q6519.52 83.2087 6519.52 92.7283 Q6519.52 102.045 6514.02 107.676 Q6508.51 113.307 6499.35 113.307 Q6488.86 113.307 6483.31 105.286 Q6477.76 97.2248 6477.76 81.9529 Q6477.76 67.6127 6484.57 59.1058 Q6491.37 50.5584 6502.83 50.5584 Q6505.91 50.5584 6509.03 51.166 Q6512.19 51.7737 6515.6 52.9889 Z" fill="#000000" fill-rule="nonzero" fill-opacity="1"></path><path clip-path="url(#clip910)" d="M6921.61 57.0398 Q6915.29 57.0398 6912.09 63.2782 Q6908.93 69.4761 6908.93 81.9529 Q6908.93 94.3892 6912.09 100.628 Q6915.29 106.825 6921.61 106.825 Q6927.97 106.825 6931.13 100.628 Q6934.33 94.3892 6934.33 81.9529 Q6934.33 69.4761 6931.13 63.2782 Q6927.97 57.0398 6921.61 57.0398 M6921.61 50.5584 Q6931.78 50.5584 6937.13 58.6197 Q6942.52 66.6405 6942.52 81.9529 Q6942.52 97.2248 6937.13 105.286 Q6931.78 113.307 6921.61 113.307 Q6911.45 113.307 6906.06 105.286 Q6900.71 97.2248 6900.71 81.9529 Q6900.71 66.6405 6906.06 58.6197 Q6911.45 50.5584 6921.61 50.5584 Z" fill="#000000" fill-rule="nonzero" fill-opacity="1"></path><path clip-path="url(#clip910)" d="M7325.18 105.246 L7338.55 105.246 L7338.55 59.1058 L7324.01 62.0224 L7324.01 54.5688 L7338.47 51.6521 L7346.65 51.6521 L7346.65 105.246 L7360.02 105.246 L7360.02 112.132 L7325.18 112.132 L7325.18 105.246 Z" fill="#000000" fill-rule="nonzero" fill-opacity="1"></path><path clip-path="url(#clip910)" d="M7374.48 51.6521 L7413.37 51.6521 L7413.37 55.1359 L7391.41 112.132 L7382.87 112.132 L7403.53 58.5387 L7374.48 58.5387 L7374.48 51.6521 Z" fill="#000000" fill-rule="nonzero" fill-opacity="1"></path><path clip-path="url(#clip910)" d="M7429.57 110.876 L7429.57 103.423 Q7432.65 104.881 7435.81 105.651 Q7438.97 106.42 7442.01 106.42 Q7450.11 106.42 7454.37 100.992 Q7458.66 95.5234 7459.27 84.4239 Q7456.92 87.9077 7453.31 89.7711 Q7449.71 91.6346 7445.33 91.6346 Q7436.26 91.6346 7430.95 86.1658 Q7425.69 80.6566 7425.69 71.137 Q7425.69 61.8199 7431.19 56.1891 Q7436.7 50.5584 7445.86 50.5584 Q7456.35 50.5584 7461.86 58.6197 Q7467.41 66.6405 7467.41 81.9529 Q7467.41 96.2526 7460.6 104.8 Q7453.84 113.307 7442.38 113.307 Q7439.3 113.307 7436.14 112.699 Q7432.98 112.092 7429.57 110.876 M7445.86 85.2341 Q7451.37 85.2341 7454.57 81.4668 Q7457.81 77.6994 7457.81 71.137 Q7457.81 64.615 7454.57 60.8477 Q7451.37 57.0398 7445.86 57.0398 Q7440.35 57.0398 7437.11 60.8477 Q7433.91 64.615 7433.91 71.137 Q7433.91 77.6994 7437.11 81.4668 Q7440.35 85.2341 7445.86 85.2341 Z" fill="#000000" fill-rule="nonzero" fill-opacity="1"></path><path clip-path="url(#clip910)" d="M300.094 234.601 L1510.63 234.601 L1510.63 130.921 L300.094 130.921  Z" fill="#000000" fill-rule="evenodd" fill-opacity="0"></path>
<polyline clip-path="url(#clip910)" style="stroke:#000000; stroke-linecap:round; stroke-linejoin:round; stroke-width:4; stroke-opacity:0; fill:none" points="300.094,234.601 1510.63,234.601 1510.63,130.921 300.094,130.921 300.094,234.601 "></polyline>
<path clip-path="url(#clip910)" d="M384.378 203.497 L890.079 203.497 L890.079 162.025 L384.378 162.025 L384.378 203.497  Z" fill="#add8e6" fill-rule="evenodd" fill-opacity="1"></path>
<polyline clip-path="url(#clip910)" style="stroke:#add8e6; stroke-linecap:round; stroke-linejoin:round; stroke-width:4; stroke-opacity:1; fill:none" points="384.378,203.497 890.079,203.497 890.079,162.025 384.378,162.025 384.378,203.497 "></polyline>
<path clip-path="url(#clip910)" d="M974.362 165.481 L994.223 165.481 L994.223 169.416 L979.038 169.416 L979.038 179.601 L992.742 179.601 L992.742 183.536 L979.038 183.536 L979.038 200.041 L974.362 200.041 L974.362 165.481 Z" fill="#000000" fill-rule="nonzero" fill-opacity="1"></path><path clip-path="url(#clip910)" d="M1009.8 177.101 Q1006.38 177.101 1004.39 179.786 Q1002.39 182.448 1002.39 187.101 Q1002.39 191.754 1004.36 194.439 Q1006.35 197.101 1009.8 197.101 Q1013.2 197.101 1015.2 194.416 Q1017.19 191.731 1017.19 187.101 Q1017.19 182.495 1015.2 179.81 Q1013.2 177.101 1009.8 177.101 M1009.8 173.49 Q1015.36 173.49 1018.53 177.101 Q1021.7 180.712 1021.7 187.101 Q1021.7 193.467 1018.53 197.101 Q1015.36 200.712 1009.8 200.712 Q1004.22 200.712 1001.05 197.101 Q997.904 193.467 997.904 187.101 Q997.904 180.712 1001.05 177.101 Q1004.22 173.49 1009.8 173.49 Z" fill="#000000" fill-rule="nonzero" fill-opacity="1"></path><path clip-path="url(#clip910)" d="M1028.32 189.809 L1028.32 174.115 L1032.58 174.115 L1032.58 189.647 Q1032.58 193.328 1034.01 195.18 Q1035.45 197.009 1038.32 197.009 Q1041.77 197.009 1043.76 194.809 Q1045.77 192.61 1045.77 188.814 L1045.77 174.115 L1050.03 174.115 L1050.03 200.041 L1045.77 200.041 L1045.77 196.059 Q1044.22 198.421 1042.16 199.578 Q1040.13 200.712 1037.42 200.712 Q1032.95 200.712 1030.64 197.934 Q1028.32 195.157 1028.32 189.809 M1039.04 173.49 L1039.04 173.49 Z" fill="#000000" fill-rule="nonzero" fill-opacity="1"></path><path clip-path="url(#clip910)" d="M1080.36 184.393 L1080.36 200.041 L1076.1 200.041 L1076.1 184.532 Q1076.1 180.851 1074.66 179.023 Q1073.23 177.194 1070.36 177.194 Q1066.91 177.194 1064.92 179.393 Q1062.93 181.592 1062.93 185.388 L1062.93 200.041 L1058.64 200.041 L1058.64 174.115 L1062.93 174.115 L1062.93 178.143 Q1064.45 175.805 1066.51 174.648 Q1068.6 173.49 1071.31 173.49 Q1075.77 173.49 1078.07 176.268 Q1080.36 179.023 1080.36 184.393 Z" fill="#000000" fill-rule="nonzero" fill-opacity="1"></path><path clip-path="url(#clip910)" d="M1105.91 178.05 L1105.91 164.023 L1110.17 164.023 L1110.17 200.041 L1105.91 200.041 L1105.91 196.152 Q1104.57 198.467 1102.51 199.601 Q1100.47 200.712 1097.6 200.712 Q1092.9 200.712 1089.94 196.962 Q1087 193.212 1087 187.101 Q1087 180.99 1089.94 177.24 Q1092.9 173.49 1097.6 173.49 Q1100.47 173.49 1102.51 174.624 Q1104.57 175.735 1105.91 178.05 M1091.4 187.101 Q1091.4 191.8 1093.32 194.485 Q1095.26 197.147 1098.64 197.147 Q1102.02 197.147 1103.97 194.485 Q1105.91 191.8 1105.91 187.101 Q1105.91 182.402 1103.97 179.74 Q1102.02 177.055 1098.64 177.055 Q1095.26 177.055 1093.32 179.74 Q1091.4 182.402 1091.4 187.101 Z" fill="#000000" fill-rule="nonzero" fill-opacity="1"></path><path clip-path="url(#clip910)" d="M1134.01 174.115 L1138.27 174.115 L1138.27 200.041 L1134.01 200.041 L1134.01 174.115 M1134.01 164.023 L1138.27 164.023 L1138.27 169.416 L1134.01 169.416 L1134.01 164.023 Z" fill="#000000" fill-rule="nonzero" fill-opacity="1"></path><path clip-path="url(#clip910)" d="M1168.74 184.393 L1168.74 200.041 L1164.48 200.041 L1164.48 184.532 Q1164.48 180.851 1163.04 179.023 Q1161.61 177.194 1158.74 177.194 Q1155.29 177.194 1153.3 179.393 Q1151.31 181.592 1151.31 185.388 L1151.31 200.041 L1147.02 200.041 L1147.02 174.115 L1151.31 174.115 L1151.31 178.143 Q1152.83 175.805 1154.89 174.648 Q1156.98 173.49 1159.69 173.49 Q1164.15 173.49 1166.44 176.268 Q1168.74 179.023 1168.74 184.393 Z" fill="#000000" fill-rule="nonzero" fill-opacity="1"></path><path clip-path="url(#clip910)" d="M1193.71 196.106 L1201.35 196.106 L1201.35 169.74 L1193.04 171.407 L1193.04 167.148 L1201.31 165.481 L1205.98 165.481 L1205.98 196.106 L1213.62 196.106 L1213.62 200.041 L1193.71 200.041 L1193.71 196.106 Z" fill="#000000" fill-rule="nonzero" fill-opacity="1"></path><path clip-path="url(#clip910)" d="M1233.06 168.56 Q1229.45 168.56 1227.62 172.124 Q1225.82 175.666 1225.82 182.796 Q1225.82 189.902 1227.62 193.467 Q1229.45 197.009 1233.06 197.009 Q1236.7 197.009 1238.5 193.467 Q1240.33 189.902 1240.33 182.796 Q1240.33 175.666 1238.5 172.124 Q1236.7 168.56 1233.06 168.56 M1233.06 164.856 Q1238.87 164.856 1241.93 169.462 Q1245.01 174.046 1245.01 182.796 Q1245.01 191.522 1241.93 196.129 Q1238.87 200.712 1233.06 200.712 Q1227.25 200.712 1224.18 196.129 Q1221.12 191.522 1221.12 182.796 Q1221.12 174.046 1224.18 169.462 Q1227.25 164.856 1233.06 164.856 Z" fill="#000000" fill-rule="nonzero" fill-opacity="1"></path><path clip-path="url(#clip910)" d="M1263.23 168.56 Q1259.62 168.56 1257.79 172.124 Q1255.98 175.666 1255.98 182.796 Q1255.98 189.902 1257.79 193.467 Q1259.62 197.009 1263.23 197.009 Q1266.86 197.009 1268.67 193.467 Q1270.49 189.902 1270.49 182.796 Q1270.49 175.666 1268.67 172.124 Q1266.86 168.56 1263.23 168.56 M1263.23 164.856 Q1269.04 164.856 1272.09 169.462 Q1275.17 174.046 1275.17 182.796 Q1275.17 191.522 1272.09 196.129 Q1269.04 200.712 1263.23 200.712 Q1257.42 200.712 1254.34 196.129 Q1251.28 191.522 1251.28 182.796 Q1251.28 174.046 1254.34 169.462 Q1257.42 164.856 1263.23 164.856 Z" fill="#000000" fill-rule="nonzero" fill-opacity="1"></path><path clip-path="url(#clip910)" d="M1293.39 168.56 Q1289.78 168.56 1287.95 172.124 Q1286.14 175.666 1286.14 182.796 Q1286.14 189.902 1287.95 193.467 Q1289.78 197.009 1293.39 197.009 Q1297.02 197.009 1298.83 193.467 Q1300.66 189.902 1300.66 182.796 Q1300.66 175.666 1298.83 172.124 Q1297.02 168.56 1293.39 168.56 M1293.39 164.856 Q1299.2 164.856 1302.25 169.462 Q1305.33 174.046 1305.33 182.796 Q1305.33 191.522 1302.25 196.129 Q1299.2 200.712 1293.39 200.712 Q1287.58 200.712 1284.5 196.129 Q1281.44 191.522 1281.44 182.796 Q1281.44 174.046 1284.5 169.462 Q1287.58 164.856 1293.39 164.856 Z" fill="#000000" fill-rule="nonzero" fill-opacity="1"></path><path clip-path="url(#clip910)" d="M1332.23 166.754 L1332.23 174.115 L1341 174.115 L1341 177.425 L1332.23 177.425 L1332.23 191.499 Q1332.23 194.671 1333.09 195.573 Q1333.97 196.476 1336.63 196.476 L1341 196.476 L1341 200.041 L1336.63 200.041 Q1331.7 200.041 1329.82 198.212 Q1327.95 196.36 1327.95 191.499 L1327.95 177.425 L1324.82 177.425 L1324.82 174.115 L1327.95 174.115 L1327.95 166.754 L1332.23 166.754 Z" fill="#000000" fill-rule="nonzero" fill-opacity="1"></path><path clip-path="url(#clip910)" d="M1361.63 178.097 Q1360.91 177.68 1360.05 177.495 Q1359.22 177.286 1358.2 177.286 Q1354.59 177.286 1352.65 179.648 Q1350.73 181.985 1350.73 186.384 L1350.73 200.041 L1346.44 200.041 L1346.44 174.115 L1350.73 174.115 L1350.73 178.143 Q1352.07 175.782 1354.22 174.648 Q1356.37 173.49 1359.45 173.49 Q1359.89 173.49 1360.42 173.56 Q1360.96 173.606 1361.61 173.722 L1361.63 178.097 Z" fill="#000000" fill-rule="nonzero" fill-opacity="1"></path><path clip-path="url(#clip910)" d="M1366.1 174.115 L1370.36 174.115 L1370.36 200.041 L1366.1 200.041 L1366.1 174.115 M1366.1 164.023 L1370.36 164.023 L1370.36 169.416 L1366.1 169.416 L1366.1 164.023 Z" fill="#000000" fill-rule="nonzero" fill-opacity="1"></path><path clip-path="url(#clip910)" d="M1401.44 186.013 L1401.44 188.097 L1381.86 188.097 Q1382.14 192.495 1384.5 194.809 Q1386.88 197.101 1391.12 197.101 Q1393.57 197.101 1395.86 196.499 Q1398.18 195.897 1400.45 194.694 L1400.45 198.721 Q1398.16 199.694 1395.75 200.203 Q1393.34 200.712 1390.86 200.712 Q1384.66 200.712 1381.03 197.101 Q1377.42 193.49 1377.42 187.333 Q1377.42 180.967 1380.84 177.24 Q1384.29 173.49 1390.12 173.49 Q1395.36 173.49 1398.39 176.87 Q1401.44 180.226 1401.44 186.013 M1397.18 184.763 Q1397.14 181.268 1395.22 179.185 Q1393.32 177.101 1390.17 177.101 Q1386.61 177.101 1384.45 179.115 Q1382.32 181.129 1382 184.786 L1397.18 184.763 Z" fill="#000000" fill-rule="nonzero" fill-opacity="1"></path><path clip-path="url(#clip910)" d="M1424.96 174.879 L1424.96 178.907 Q1423.16 177.981 1421.21 177.518 Q1419.27 177.055 1417.18 177.055 Q1414.01 177.055 1412.42 178.027 Q1410.84 178.999 1410.84 180.944 Q1410.84 182.425 1411.98 183.282 Q1413.11 184.115 1416.54 184.879 L1417.99 185.203 Q1422.53 186.175 1424.43 187.958 Q1426.35 189.717 1426.35 192.888 Q1426.35 196.499 1423.48 198.606 Q1420.63 200.712 1415.63 200.712 Q1413.55 200.712 1411.28 200.296 Q1409.04 199.902 1406.54 199.092 L1406.54 194.694 Q1408.9 195.921 1411.19 196.546 Q1413.48 197.147 1415.73 197.147 Q1418.73 197.147 1420.36 196.129 Q1421.98 195.087 1421.98 193.212 Q1421.98 191.476 1420.79 190.55 Q1419.64 189.624 1415.68 188.768 L1414.2 188.421 Q1410.24 187.587 1408.48 185.874 Q1406.72 184.138 1406.72 181.129 Q1406.72 177.472 1409.31 175.481 Q1411.91 173.49 1416.67 173.49 Q1419.04 173.49 1421.12 173.837 Q1423.2 174.185 1424.96 174.879 Z" fill="#000000" fill-rule="nonzero" fill-opacity="1"></path></svg>