<svg xmlns="http://www.w3.org/2000/svg" xmlns:xlink="http://www.w3.org/1999/xlink" width="1920" height="400" viewBox="0 0 7680 1600">
<defs>
  <clipPath id="clip890">
    <rect x="0" y="0" width="7680" height="1600"></rect>
  </clipPath>
</defs>
<path clip-path="url(#clip890)" d="M0 1600 L7680 1600 L7680 0 L0 0  Z" fill="#ffffff" fill-rule="evenodd" fill-opacity="1"></path>
<defs>
  <clipPath id="clip891">
    <rect x="1536" y="0" width="5377" height="1600"></rect>
  </clipPath>
</defs>
<path clip-path="url(#clip890)" d="M47.2441 1552.76 L7632.76 1552.76 L7632.76 81.8921 L47.2441 81.8921  Z" fill="#ffffff" fill-rule="evenodd" fill-opacity="1"></path>
<defs>
  <clipPath id="clip892">
    <rect x="47" y="81" width="7587" height="1472"></rect>
  </clipPath>
</defs>
<path clip-path="url(#clip890)" d="M3632.41 12.096 L3640.59 12.096 L3640.59 36.8875 L3670.33 36.8875 L3670.33 12.096 L3678.51 12.096 L3678.51 72.576 L3670.33 72.576 L3670.33 43.7741 L3640.59 43.7741 L3640.59 72.576 L3632.41 72.576 L3632.41 12.096 Z" fill="#000000" fill-rule="nonzero" fill-opacity="1"></path><path clip-path="url(#clip890)" d="M3694.47 27.2059 L3701.92 27.2059 L3701.92 72.576 L3694.47 72.576 L3694.47 27.2059 M3694.47 9.54393 L3701.92 9.54393 L3701.92 18.9825 L3694.47 18.9825 L3694.47 9.54393 Z" fill="#000000" fill-rule="nonzero" fill-opacity="1"></path><path clip-path="url(#clip890)" d="M3746.44 28.5427 L3746.44 35.5912 Q3743.28 33.9709 3739.88 33.1607 Q3736.48 32.3505 3732.83 32.3505 Q3727.28 32.3505 3724.49 34.0519 Q3721.73 35.7533 3721.73 39.156 Q3721.73 41.7486 3723.72 43.2475 Q3725.7 44.7058 3731.7 46.0426 L3734.25 46.6097 Q3742.19 48.3111 3745.51 51.4303 Q3748.87 54.509 3748.87 60.0587 Q3748.87 66.3781 3743.85 70.0644 Q3738.87 73.7508 3730.12 73.7508 Q3726.47 73.7508 3722.5 73.0216 Q3718.57 72.3329 3714.2 70.9151 L3714.2 63.2184 Q3718.33 65.3654 3722.34 66.4591 Q3726.35 67.5124 3730.28 67.5124 Q3735.55 67.5124 3738.38 65.73 Q3741.22 63.9071 3741.22 60.6258 Q3741.22 57.5877 3739.15 55.9673 Q3737.13 54.3469 3730.2 52.8481 L3727.61 52.2405 Q3720.68 50.7821 3717.6 47.7845 Q3714.52 44.7463 3714.52 39.4801 Q3714.52 33.0797 3719.06 29.5959 Q3723.6 26.1121 3731.94 26.1121 Q3736.07 26.1121 3739.72 26.7198 Q3743.37 27.3274 3746.44 28.5427 Z" fill="#000000" fill-rule="nonzero" fill-opacity="1"></path><path clip-path="url(#clip890)" d="M3768.12 14.324 L3768.12 27.2059 L3783.47 27.2059 L3783.47 32.9987 L3768.12 32.9987 L3768.12 57.6282 Q3768.12 63.1779 3769.62 64.7578 Q3771.15 66.3376 3775.81 66.3376 L3783.47 66.3376 L3783.47 72.576 L3775.81 72.576 Q3767.18 72.576 3763.9 69.3758 Q3760.62 66.1351 3760.62 57.6282 L3760.62 32.9987 L3755.15 32.9987 L3755.15 27.2059 L3760.62 27.2059 L3760.62 14.324 L3768.12 14.324 Z" fill="#000000" fill-rule="nonzero" fill-opacity="1"></path><path clip-path="url(#clip890)" d="M3810.85 32.4315 Q3804.86 32.4315 3801.37 37.1306 Q3797.89 41.7891 3797.89 49.9314 Q3797.89 58.0738 3801.33 62.7728 Q3804.82 67.4314 3810.85 67.4314 Q3816.81 67.4314 3820.29 62.7323 Q3823.78 58.0333 3823.78 49.9314 Q3823.78 41.8701 3820.29 37.1711 Q3816.81 32.4315 3810.85 32.4315 M3810.85 26.1121 Q3820.58 26.1121 3826.13 32.4315 Q3831.68 38.7509 3831.68 49.9314 Q3831.68 61.0714 3826.13 67.4314 Q3820.58 73.7508 3810.85 73.7508 Q3801.09 73.7508 3795.54 67.4314 Q3790.03 61.0714 3790.03 49.9314 Q3790.03 38.7509 3795.54 32.4315 Q3801.09 26.1121 3810.85 26.1121 Z" fill="#000000" fill-rule="nonzero" fill-opacity="1"></path><path clip-path="url(#clip890)" d="M3873.89 49.3643 Q3873.89 41.2625 3870.52 36.8065 Q3867.2 32.3505 3861.17 32.3505 Q3855.17 32.3505 3851.81 36.8065 Q3848.49 41.2625 3848.49 49.3643 Q3848.49 57.4256 3851.81 61.8816 Q3855.17 66.3376 3861.17 66.3376 Q3867.2 66.3376 3870.52 61.8816 Q3873.89 57.4256 3873.89 49.3643 M3881.34 66.9452 Q3881.34 78.5308 3876.19 84.1616 Q3871.05 89.8329 3860.44 89.8329 Q3856.51 89.8329 3853.02 89.2252 Q3849.54 88.6581 3846.26 87.4428 L3846.26 80.1917 Q3849.54 81.9741 3852.74 82.8248 Q3855.94 83.6755 3859.26 83.6755 Q3866.59 83.6755 3870.24 79.8271 Q3873.89 76.0193 3873.89 68.282 L3873.89 64.5957 Q3871.58 68.6061 3867.97 70.5911 Q3864.37 72.576 3859.34 72.576 Q3851 72.576 3845.89 66.2161 Q3840.79 59.8562 3840.79 49.3643 Q3840.79 38.832 3845.89 32.472 Q3851 26.1121 3859.34 26.1121 Q3864.37 26.1121 3867.97 28.0971 Q3871.58 30.082 3873.89 34.0924 L3873.89 27.2059 L3881.34 27.2059 L3881.34 66.9452 Z" fill="#000000" fill-rule="nonzero" fill-opacity="1"></path><path clip-path="url(#clip890)" d="M3922.98 34.1734 Q3921.73 33.4443 3920.23 33.1202 Q3918.77 32.7556 3916.99 32.7556 Q3910.67 32.7556 3907.27 36.8875 Q3903.9 40.9789 3903.9 48.6757 L3903.9 72.576 L3896.41 72.576 L3896.41 27.2059 L3903.9 27.2059 L3903.9 34.2544 Q3906.25 30.1225 3910.02 28.1376 Q3913.79 26.1121 3919.17 26.1121 Q3919.94 26.1121 3920.88 26.2337 Q3921.81 26.3147 3922.94 26.5172 L3922.98 34.1734 Z" fill="#000000" fill-rule="nonzero" fill-opacity="1"></path><path clip-path="url(#clip890)" d="M3951.42 49.7694 Q3942.39 49.7694 3938.9 51.8354 Q3935.42 53.9013 3935.42 58.8839 Q3935.42 62.8538 3938.01 65.2034 Q3940.64 67.5124 3945.14 67.5124 Q3951.34 67.5124 3955.07 63.1374 Q3958.83 58.7219 3958.83 51.4303 L3958.83 49.7694 L3951.42 49.7694 M3966.29 46.6907 L3966.29 72.576 L3958.83 72.576 L3958.83 65.6895 Q3956.28 69.8214 3952.47 71.8063 Q3948.67 73.7508 3943.16 73.7508 Q3936.19 73.7508 3932.06 69.8619 Q3927.97 65.9325 3927.97 59.3701 Q3927.97 51.7138 3933.07 47.825 Q3938.21 43.9361 3948.38 43.9361 L3958.83 43.9361 L3958.83 43.2069 Q3958.83 38.0623 3955.43 35.2672 Q3952.07 32.4315 3945.95 32.4315 Q3942.06 32.4315 3938.38 33.3632 Q3934.69 34.295 3931.29 36.1584 L3931.29 29.2718 Q3935.38 27.692 3939.23 26.9223 Q3943.08 26.1121 3946.72 26.1121 Q3956.56 26.1121 3961.43 31.2163 Q3966.29 36.3204 3966.29 46.6907 Z" fill="#000000" fill-rule="nonzero" fill-opacity="1"></path><path clip-path="url(#clip890)" d="M4016.96 35.9153 Q4019.76 30.8922 4023.65 28.5022 Q4027.54 26.1121 4032.8 26.1121 Q4039.89 26.1121 4043.74 31.0947 Q4047.59 36.0368 4047.59 45.1919 L4047.59 72.576 L4040.09 72.576 L4040.09 45.4349 Q4040.09 38.913 4037.79 35.7533 Q4035.48 32.5936 4030.74 32.5936 Q4024.94 32.5936 4021.58 36.4419 Q4018.22 40.2903 4018.22 46.9338 L4018.22 72.576 L4010.73 72.576 L4010.73 45.4349 Q4010.73 38.8725 4008.42 35.7533 Q4006.11 32.5936 4001.29 32.5936 Q3995.57 32.5936 3992.21 36.4824 Q3988.85 40.3308 3988.85 46.9338 L3988.85 72.576 L3981.36 72.576 L3981.36 27.2059 L3988.85 27.2059 L3988.85 34.2544 Q3991.4 30.082 3994.97 28.0971 Q3998.53 26.1121 4003.43 26.1121 Q4008.38 26.1121 4011.82 28.6237 Q4015.3 31.1352 4016.96 35.9153 Z" fill="#000000" fill-rule="nonzero" fill-opacity="1"></path><path clip-path="url(#clip892)" d="M-142.394 217.664 L-142.394 1552.76 L236.882 1552.76 L236.882 217.664 L-142.394 217.664 L-142.394 217.664  Z" fill="#add8e6" fill-rule="evenodd" fill-opacity="1"></path>
<polyline clip-path="url(#clip892)" style="stroke:#add8e6; stroke-linecap:round; stroke-linejoin:round; stroke-width:4; stroke-opacity:1; fill:none" points="-142.394,217.664 -142.394,1552.76 236.882,1552.76 236.882,217.664 -142.394,217.664 "></polyline>
<path clip-path="url(#clip892)" d="M331.701 1552.76 L331.701 1552.76 L710.976 1552.76 L710.976 1552.76 L331.701 1552.76 L331.701 1552.76  Z" fill="#add8e6" fill-rule="evenodd" fill-opacity="1"></path>
<polyline clip-path="url(#clip892)" style="stroke:#add8e6; stroke-linecap:round; stroke-linejoin:round; stroke-width:4; stroke-opacity:1; fill:none" points="331.701,1552.76 331.701,1552.76 710.976,1552.76 331.701,1552.76 "></polyline>
<path clip-path="url(#clip892)" d="M805.795 1552.76 L805.795 1552.76 L1185.07 1552.76 L1185.07 1552.76 L805.795 1552.76 L805.795 1552.76  Z" fill="#add8e6" fill-rule="evenodd" fill-opacity="1"></path>
<polyline clip-path="url(#clip892)" style="stroke:#add8e6; stroke-linecap:round; stroke-linejoin:round; stroke-width:4; stroke-opacity:1; fill:none" points="805.795,1552.76 805.795,1552.76 1185.07,1552.76 805.795,1552.76 "></polyline>
<path clip-path="url(#clip892)" d="M1279.89 81.8921 L1279.89 1552.76 L1659.17 1552.76 L1659.17 81.8921 L1279.89 81.8921 L1279.89 81.8921  Z" fill="#add8e6" fill-rule="evenodd" fill-opacity="1"></path>
<polyline clip-path="url(#clip892)" style="stroke:#add8e6; stroke-linecap:round; stroke-linejoin:round; stroke-width:4; stroke-opacity:1; fill:none" points="1279.89,81.8921 1279.89,1552.76 1659.17,1552.76 1659.17,81.8921 1279.89,81.8921 "></polyline>
<path clip-path="url(#clip892)" d="M1753.98 930.467 L1753.98 1552.76 L2133.26 1552.76 L2133.26 930.467 L1753.98 930.467 L1753.98 930.467  Z" fill="#add8e6" fill-rule="evenodd" fill-opacity="1"></path>
<polyline clip-path="url(#clip892)" style="stroke:#add8e6; stroke-linecap:round; stroke-linejoin:round; stroke-width:4; stroke-opacity:1; fill:none" points="1753.98,930.467 1753.98,1552.76 2133.26,1552.76 2133.26,930.467 1753.98,930.467 "></polyline>
<path clip-path="url(#clip892)" d="M2228.08 715.495 L2228.08 1552.76 L2607.35 1552.76 L2607.35 715.495 L2228.08 715.495 L2228.08 715.495  Z" fill="#add8e6" fill-rule="evenodd" fill-opacity="1"></path>
<polyline clip-path="url(#clip892)" style="stroke:#add8e6; stroke-linecap:round; stroke-linejoin:round; stroke-width:4; stroke-opacity:1; fill:none" points="2228.08,715.495 2228.08,1552.76 2607.35,1552.76 2607.35,715.495 2228.08,715.495 "></polyline>
<path clip-path="url(#clip892)" d="M2702.17 760.752 L2702.17 1552.76 L3081.45 1552.76 L3081.45 760.752 L2702.17 760.752 L2702.17 760.752  Z" fill="#add8e6" fill-rule="evenodd" fill-opacity="1"></path>
<polyline clip-path="url(#clip892)" style="stroke:#add8e6; stroke-linecap:round; stroke-linejoin:round; stroke-width:4; stroke-opacity:1; fill:none" points="2702.17,760.752 2702.17,1552.76 3081.45,1552.76 3081.45,760.752 2702.17,760.752 "></polyline>
<path clip-path="url(#clip892)" d="M3176.27 839.953 L3176.27 1552.76 L3555.54 1552.76 L3555.54 839.953 L3176.27 839.953 L3176.27 839.953  Z" fill="#add8e6" fill-rule="evenodd" fill-opacity="1"></path>
<polyline clip-path="url(#clip892)" style="stroke:#add8e6; stroke-linecap:round; stroke-linejoin:round; stroke-width:4; stroke-opacity:1; fill:none" points="3176.27,839.953 3176.27,1552.76 3555.54,1552.76 3555.54,839.953 3176.27,839.953 "></polyline>
<path clip-path="url(#clip892)" d="M3650.36 387.379 L3650.36 1552.76 L4029.64 1552.76 L4029.64 387.379 L3650.36 387.379 L3650.36 387.379  Z" fill="#add8e6" fill-rule="evenodd" fill-opacity="1"></path>
<polyline clip-path="url(#clip892)" style="stroke:#add8e6; stroke-linecap:round; stroke-linejoin:round; stroke-width:4; stroke-opacity:1; fill:none" points="3650.36,387.379 3650.36,1552.76 4029.64,1552.76 4029.64,387.379 3650.36,387.379 "></polyline>
<path clip-path="url(#clip892)" d="M4124.46 1349.1 L4124.46 1552.76 L4503.73 1552.76 L4503.73 1349.1 L4124.46 1349.1 L4124.46 1349.1  Z" fill="#add8e6" fill-rule="evenodd" fill-opacity="1"></path>
<polyline clip-path="url(#clip892)" style="stroke:#add8e6; stroke-linecap:round; stroke-linejoin:round; stroke-width:4; stroke-opacity:1; fill:none" points="4124.46,1349.1 4124.46,1552.76 4503.73,1552.76 4503.73,1349.1 4124.46,1349.1 "></polyline>
<path clip-path="url(#clip892)" d="M4598.55 1416.98 L4598.55 1552.76 L4977.83 1552.76 L4977.83 1416.98 L4598.55 1416.98 L4598.55 1416.98  Z" fill="#add8e6" fill-rule="evenodd" fill-opacity="1"></path>
<polyline clip-path="url(#clip892)" style="stroke:#add8e6; stroke-linecap:round; stroke-linejoin:round; stroke-width:4; stroke-opacity:1; fill:none" points="4598.55,1416.98 4598.55,1552.76 4977.83,1552.76 4977.83,1416.98 4598.55,1416.98 "></polyline>
<path clip-path="url(#clip892)" d="M5072.65 195.035 L5072.65 1552.76 L5451.92 1552.76 L5451.92 195.035 L5072.65 195.035 L5072.65 195.035  Z" fill="#add8e6" fill-rule="evenodd" fill-opacity="1"></path>
<polyline clip-path="url(#clip892)" style="stroke:#add8e6; stroke-linecap:round; stroke-linejoin:round; stroke-width:4; stroke-opacity:1; fill:none" points="5072.65,195.035 5072.65,1552.76 5451.92,1552.76 5451.92,195.035 5072.65,195.035 "></polyline>
<path clip-path="url(#clip892)" d="M5546.74 1360.41 L5546.74 1552.76 L5926.02 1552.76 L5926.02 1360.41 L5546.74 1360.41 L5546.74 1360.41  Z" fill="#add8e6" fill-rule="evenodd" fill-opacity="1"></path>
<polyline clip-path="url(#clip892)" style="stroke:#add8e6; stroke-linecap:round; stroke-linejoin:round; stroke-width:4; stroke-opacity:1; fill:none" points="5546.74,1360.41 5546.74,1552.76 5926.02,1552.76 5926.02,1360.41 5546.74,1360.41 "></polyline>
<path clip-path="url(#clip892)" d="M6020.83 410.008 L6020.83 1552.76 L6400.11 1552.76 L6400.11 410.008 L6020.83 410.008 L6020.83 410.008  Z" fill="#add8e6" fill-rule="evenodd" fill-opacity="1"></path>
<polyline clip-path="url(#clip892)" style="stroke:#add8e6; stroke-linecap:round; stroke-linejoin:round; stroke-width:4; stroke-opacity:1; fill:none" points="6020.83,410.008 6020.83,1552.76 6400.11,1552.76 6400.11,410.008 6020.83,410.008 "></polyline>
<path clip-path="url(#clip892)" d="M6494.93 1337.78 L6494.93 1552.76 L6874.2 1552.76 L6874.2 1337.78 L6494.93 1337.78 L6494.93 1337.78  Z" fill="#add8e6" fill-rule="evenodd" fill-opacity="1"></path>
<polyline clip-path="url(#clip892)" style="stroke:#add8e6; stroke-linecap:round; stroke-linejoin:round; stroke-width:4; stroke-opacity:1; fill:none" points="6494.93,1337.78 6494.93,1552.76 6874.2,1552.76 6874.2,1337.78 6494.93,1337.78 "></polyline>
<path clip-path="url(#clip892)" d="M6969.02 421.322 L6969.02 1552.76 L7348.3 1552.76 L7348.3 421.322 L6969.02 421.322 L6969.02 421.322  Z" fill="#add8e6" fill-rule="evenodd" fill-opacity="1"></path>
<polyline clip-path="url(#clip892)" style="stroke:#add8e6; stroke-linecap:round; stroke-linejoin:round; stroke-width:4; stroke-opacity:1; fill:none" points="6969.02,421.322 6969.02,1552.76 7348.3,1552.76 7348.3,421.322 6969.02,421.322 "></polyline>
<circle clip-path="url(#clip892)" style="fill:#add8e6; stroke:none; fill-opacity:0" cx="47.2441" cy="217.664" r="2"></circle>
<circle clip-path="url(#clip892)" style="fill:#add8e6; stroke:none; fill-opacity:0" cx="521.339" cy="1552.76" r="2"></circle>
<circle clip-path="url(#clip892)" style="fill:#add8e6; stroke:none; fill-opacity:0" cx="995.433" cy="1552.76" r="2"></circle>
<circle clip-path="url(#clip892)" style="fill:#add8e6; stroke:none; fill-opacity:0" cx="1469.53" cy="81.8921" r="2"></circle>
<circle clip-path="url(#clip892)" style="fill:#add8e6; stroke:none; fill-opacity:0" cx="1943.62" cy="930.467" r="2"></circle>
<circle clip-path="url(#clip892)" style="fill:#add8e6; stroke:none; fill-opacity:0" cx="2417.72" cy="715.495" r="2"></circle>
<circle clip-path="url(#clip892)" style="fill:#add8e6; stroke:none; fill-opacity:0" cx="2891.81" cy="760.752" r="2"></circle>
<circle clip-path="url(#clip892)" style="fill:#add8e6; stroke:none; fill-opacity:0" cx="3365.91" cy="839.953" r="2"></circle>
<circle clip-path="url(#clip892)" style="fill:#add8e6; stroke:none; fill-opacity:0" cx="3840" cy="387.379" r="2"></circle>
<circle clip-path="url(#clip892)" style="fill:#add8e6; stroke:none; fill-opacity:0" cx="4314.09" cy="1349.1" r="2"></circle>
<circle clip-path="url(#clip892)" style="fill:#add8e6; stroke:none; fill-opacity:0" cx="4788.19" cy="1416.98" r="2"></circle>
<circle clip-path="url(#clip892)" style="fill:#add8e6; stroke:none; fill-opacity:0" cx="5262.28" cy="195.035" r="2"></circle>
<circle clip-path="url(#clip892)" style="fill:#add8e6; stroke:none; fill-opacity:0" cx="5736.38" cy="1360.41" r="2"></circle>
<circle clip-path="url(#clip892)" style="fill:#add8e6; stroke:none; fill-opacity:0" cx="6210.47" cy="410.008" r="2"></circle>
<circle clip-path="url(#clip892)" style="fill:#add8e6; stroke:none; fill-opacity:0" cx="6684.57" cy="1337.78" r="2"></circle>
<circle clip-path="url(#clip892)" style="fill:#add8e6; stroke:none; fill-opacity:0" cx="7158.66" cy="421.322" r="2"></circle>
<circle clip-path="url(#clip892)" style="fill:#e26f46; stroke:none; fill-opacity:1" cx="47.2441" cy="1541.44" r="2"></circle>
<circle clip-path="url(#clip892)" style="fill:#e26f46; stroke:none; fill-opacity:1" cx="521.339" cy="1541.44" r="2"></circle>
<circle clip-path="url(#clip892)" style="fill:#e26f46; stroke:none; fill-opacity:1" cx="995.433" cy="1541.44" r="2"></circle>
<circle clip-path="url(#clip892)" style="fill:#e26f46; stroke:none; fill-opacity:1" cx="1469.53" cy="1541.44" r="2"></circle>
<circle clip-path="url(#clip892)" style="fill:#e26f46; stroke:none; fill-opacity:1" cx="1943.62" cy="1541.44" r="2"></circle>
<circle clip-path="url(#clip892)" style="fill:#e26f46; stroke:none; fill-opacity:1" cx="2417.72" cy="1541.44" r="2"></circle>
<circle clip-path="url(#clip892)" style="fill:#e26f46; stroke:none; fill-opacity:1" cx="2891.81" cy="1541.44" r="2"></circle>
<circle clip-path="url(#clip892)" style="fill:#e26f46; stroke:none; fill-opacity:1" cx="3365.91" cy="1541.44" r="2"></circle>
<circle clip-path="url(#clip892)" style="fill:#e26f46; stroke:none; fill-opacity:1" cx="3840" cy="1541.44" r="2"></circle>
<circle clip-path="url(#clip892)" style="fill:#e26f46; stroke:none; fill-opacity:1" cx="4314.09" cy="1541.44" r="2"></circle>
<circle clip-path="url(#clip892)" style="fill:#e26f46; stroke:none; fill-opacity:1" cx="4788.19" cy="1541.44" r="2"></circle>
<circle clip-path="url(#clip892)" style="fill:#e26f46; stroke:none; fill-opacity:1" cx="5262.28" cy="1541.44" r="2"></circle>
<circle clip-path="url(#clip892)" style="fill:#e26f46; stroke:none; fill-opacity:1" cx="5736.38" cy="1541.44" r="2"></circle>
<circle clip-path="url(#clip892)" style="fill:#e26f46; stroke:none; fill-opacity:1" cx="6210.47" cy="1541.44" r="2"></circle>
<circle clip-path="url(#clip892)" style="fill:#e26f46; stroke:none; fill-opacity:1" cx="6684.57" cy="1541.44" r="2"></circle>
<circle clip-path="url(#clip892)" style="fill:#e26f46; stroke:none; fill-opacity:1" cx="7158.66" cy="1541.44" r="2"></circle>
<path clip-path="url(#clip890)" d="M-72.6222 1508.28 L-72.6222 1591.25 L-79.5087 1591.25 L-79.5087 1508.28 L-72.6222 1508.28 Z" fill="#000000" fill-rule="nonzero" fill-opacity="1"></path><path clip-path="url(#clip890)" d="M-35.7184 1516.59 Q-42.0378 1516.59 -45.238 1522.83 Q-48.3978 1529.03 -48.3978 1541.5 Q-48.3978 1553.94 -45.238 1560.18 Q-42.0378 1566.37 -35.7184 1566.37 Q-29.3585 1566.37 -26.1988 1560.18 Q-22.9986 1553.94 -22.9986 1541.5 Q-22.9986 1529.03 -26.1988 1522.83 Q-29.3585 1516.59 -35.7184 1516.59 M-35.7184 1510.11 Q-25.5507 1510.11 -20.2035 1518.17 Q-14.8158 1526.19 -14.8158 1541.5 Q-14.8158 1556.77 -20.2035 1564.84 Q-25.5507 1572.86 -35.7184 1572.86 Q-45.8862 1572.86 -51.2739 1564.84 Q-56.6211 1556.77 -56.6211 1541.5 Q-56.6211 1526.19 -51.2739 1518.17 Q-45.8862 1510.11 -35.7184 1510.11 Z" fill="#000000" fill-rule="nonzero" fill-opacity="1"></path><path clip-path="url(#clip890)" d="M17.0649 1516.59 Q10.7454 1516.59 7.54523 1522.83 Q4.38553 1529.03 4.38553 1541.5 Q4.38553 1553.94 7.54523 1560.18 Q10.7454 1566.37 17.0649 1566.37 Q23.4248 1566.37 26.5845 1560.18 Q29.7847 1553.94 29.7847 1541.5 Q29.7847 1529.03 26.5845 1522.83 Q23.4248 1516.59 17.0649 1516.59 M17.0649 1510.11 Q27.2326 1510.11 32.5798 1518.17 Q37.9675 1526.19 37.9675 1541.5 Q37.9675 1556.77 32.5798 1564.84 Q27.2326 1572.86 17.0649 1572.86 Q6.89709 1572.86 1.50939 1564.84 Q-3.83781 1556.77 -3.83781 1541.5 Q-3.83781 1526.19 1.50939 1518.17 Q6.89709 1510.11 17.0649 1510.11 Z" fill="#000000" fill-rule="nonzero" fill-opacity="1"></path><path clip-path="url(#clip890)" d="M69.8481 1516.59 Q63.5287 1516.59 60.3285 1522.83 Q57.1688 1529.03 57.1688 1541.5 Q57.1688 1553.94 60.3285 1560.18 Q63.5287 1566.37 69.8481 1566.37 Q76.2081 1566.37 79.3678 1560.18 Q82.568 1553.94 82.568 1541.5 Q82.568 1529.03 79.3678 1522.83 Q76.2081 1516.59 69.8481 1516.59 M69.8481 1510.11 Q80.0159 1510.11 85.3631 1518.17 Q90.7508 1526.19 90.7508 1541.5 Q90.7508 1556.77 85.3631 1564.84 Q80.0159 1572.86 69.8481 1572.86 Q59.6804 1572.86 54.2927 1564.84 Q48.9455 1556.77 48.9455 1541.5 Q48.9455 1526.19 54.2927 1518.17 Q59.6804 1510.11 69.8481 1510.11 Z" fill="#000000" fill-rule="nonzero" fill-opacity="1"></path><path clip-path="url(#clip890)" d="M122.631 1516.59 Q116.312 1516.59 113.112 1522.83 Q109.952 1529.03 109.952 1541.5 Q109.952 1553.94 113.112 1560.18 Q116.312 1566.37 122.631 1566.37 Q128.991 1566.37 132.151 1560.18 Q135.351 1553.94 135.351 1541.5 Q135.351 1529.03 132.151 1522.83 Q128.991 1516.59 122.631 1516.59 M122.631 1510.11 Q132.799 1510.11 138.146 1518.17 Q143.534 1526.19 143.534 1541.5 Q143.534 1556.77 138.146 1564.84 Q132.799 1572.86 122.631 1572.86 Q112.464 1572.86 107.076 1564.84 Q101.729 1556.77 101.729 1541.5 Q101.729 1526.19 107.076 1518.17 Q112.464 1510.11 122.631 1510.11 Z" fill="#000000" fill-rule="nonzero" fill-opacity="1"></path><path clip-path="url(#clip890)" d="M173.997 1545.67 L162.573 1582.62 L155.687 1582.62 L167.11 1545.67 L155.687 1508.73 L162.573 1508.73 L173.997 1545.67 Z" fill="#000000" fill-rule="nonzero" fill-opacity="1"></path><path clip-path="url(#clip890)" d="M401.472 1508.28 L401.472 1591.25 L394.586 1591.25 L394.586 1508.28 L401.472 1508.28 Z" fill="#000000" fill-rule="nonzero" fill-opacity="1"></path><path clip-path="url(#clip890)" d="M438.376 1516.59 Q432.057 1516.59 428.856 1522.83 Q425.697 1529.03 425.697 1541.5 Q425.697 1553.94 428.856 1560.18 Q432.057 1566.37 438.376 1566.37 Q444.736 1566.37 447.896 1560.18 Q451.096 1553.94 451.096 1541.5 Q451.096 1529.03 447.896 1522.83 Q444.736 1516.59 438.376 1516.59 M438.376 1510.11 Q448.544 1510.11 453.891 1518.17 Q459.279 1526.19 459.279 1541.5 Q459.279 1556.77 453.891 1564.84 Q448.544 1572.86 438.376 1572.86 Q428.208 1572.86 422.821 1564.84 Q417.473 1556.77 417.473 1541.5 Q417.473 1526.19 422.821 1518.17 Q428.208 1510.11 438.376 1510.11 Z" fill="#000000" fill-rule="nonzero" fill-opacity="1"></path><path clip-path="url(#clip890)" d="M491.159 1516.59 Q484.84 1516.59 481.64 1522.83 Q478.48 1529.03 478.48 1541.5 Q478.48 1553.94 481.64 1560.18 Q484.84 1566.37 491.159 1566.37 Q497.519 1566.37 500.679 1560.18 Q503.879 1553.94 503.879 1541.5 Q503.879 1529.03 500.679 1522.83 Q497.519 1516.59 491.159 1516.59 M491.159 1510.11 Q501.327 1510.11 506.674 1518.17 Q512.062 1526.19 512.062 1541.5 Q512.062 1556.77 506.674 1564.84 Q501.327 1572.86 491.159 1572.86 Q480.992 1572.86 475.604 1564.84 Q470.257 1556.77 470.257 1541.5 Q470.257 1526.19 475.604 1518.17 Q480.992 1510.11 491.159 1510.11 Z" fill="#000000" fill-rule="nonzero" fill-opacity="1"></path><path clip-path="url(#clip890)" d="M543.943 1516.59 Q537.623 1516.59 534.423 1522.83 Q531.263 1529.03 531.263 1541.5 Q531.263 1553.94 534.423 1560.18 Q537.623 1566.37 543.943 1566.37 Q550.303 1566.37 553.462 1560.18 Q556.662 1553.94 556.662 1541.5 Q556.662 1529.03 553.462 1522.83 Q550.303 1516.59 543.943 1516.59 M543.943 1510.11 Q554.11 1510.11 559.458 1518.17 Q564.845 1526.19 564.845 1541.5 Q564.845 1556.77 559.458 1564.84 Q554.11 1572.86 543.943 1572.86 Q533.775 1572.86 528.387 1564.84 Q523.04 1556.77 523.04 1541.5 Q523.04 1526.19 528.387 1518.17 Q533.775 1510.11 543.943 1510.11 Z" fill="#000000" fill-rule="nonzero" fill-opacity="1"></path><path clip-path="url(#clip890)" d="M580.644 1564.8 L594.012 1564.8 L594.012 1518.66 L579.469 1521.57 L579.469 1514.12 L593.931 1511.2 L602.114 1511.2 L602.114 1564.8 L615.482 1564.8 L615.482 1571.68 L580.644 1571.68 L580.644 1564.8 Z" fill="#000000" fill-rule="nonzero" fill-opacity="1"></path><path clip-path="url(#clip890)" d="M648.091 1545.67 L636.668 1582.62 L629.781 1582.62 L641.205 1545.67 L629.781 1508.73 L636.668 1508.73 L648.091 1545.67 Z" fill="#000000" fill-rule="nonzero" fill-opacity="1"></path><path clip-path="url(#clip890)" d="M875.567 1508.28 L875.567 1591.25 L868.68 1591.25 L868.68 1508.28 L875.567 1508.28 Z" fill="#000000" fill-rule="nonzero" fill-opacity="1"></path><path clip-path="url(#clip890)" d="M912.471 1516.59 Q906.151 1516.59 902.951 1522.83 Q899.791 1529.03 899.791 1541.5 Q899.791 1553.94 902.951 1560.18 Q906.151 1566.37 912.471 1566.37 Q918.83 1566.37 921.99 1560.18 Q925.19 1553.94 925.19 1541.5 Q925.19 1529.03 921.99 1522.83 Q918.83 1516.59 912.471 1516.59 M912.471 1510.11 Q922.638 1510.11 927.986 1518.17 Q933.373 1526.19 933.373 1541.5 Q933.373 1556.77 927.986 1564.84 Q922.638 1572.86 912.471 1572.86 Q902.303 1572.86 896.915 1564.84 Q891.568 1556.77 891.568 1541.5 Q891.568 1526.19 896.915 1518.17 Q902.303 1510.11 912.471 1510.11 Z" fill="#000000" fill-rule="nonzero" fill-opacity="1"></path><path clip-path="url(#clip890)" d="M965.254 1516.59 Q958.934 1516.59 955.734 1522.83 Q952.575 1529.03 952.575 1541.5 Q952.575 1553.94 955.734 1560.18 Q958.934 1566.37 965.254 1566.37 Q971.614 1566.37 974.773 1560.18 Q977.974 1553.94 977.974 1541.5 Q977.974 1529.03 974.773 1522.83 Q971.614 1516.59 965.254 1516.59 M965.254 1510.11 Q975.422 1510.11 980.769 1518.17 Q986.157 1526.19 986.157 1541.5 Q986.157 1556.77 980.769 1564.84 Q975.422 1572.86 965.254 1572.86 Q955.086 1572.86 949.698 1564.84 Q944.351 1556.77 944.351 1541.5 Q944.351 1526.19 949.698 1518.17 Q955.086 1510.11 965.254 1510.11 Z" fill="#000000" fill-rule="nonzero" fill-opacity="1"></path><path clip-path="url(#clip890)" d="M1001.96 1564.8 L1015.32 1564.8 L1015.32 1518.66 L1000.78 1521.57 L1000.78 1514.12 L1015.24 1511.2 L1023.42 1511.2 L1023.42 1564.8 L1036.79 1564.8 L1036.79 1571.68 L1001.96 1571.68 L1001.96 1564.8 Z" fill="#000000" fill-rule="nonzero" fill-opacity="1"></path><path clip-path="url(#clip890)" d="M1070.82 1516.59 Q1064.5 1516.59 1061.3 1522.83 Q1058.14 1529.03 1058.14 1541.5 Q1058.14 1553.94 1061.3 1560.18 Q1064.5 1566.37 1070.82 1566.37 Q1077.18 1566.37 1080.34 1560.18 Q1083.54 1553.94 1083.54 1541.5 Q1083.54 1529.03 1080.34 1522.83 Q1077.18 1516.59 1070.82 1516.59 M1070.82 1510.11 Q1080.99 1510.11 1086.34 1518.17 Q1091.72 1526.19 1091.72 1541.5 Q1091.72 1556.77 1086.34 1564.84 Q1080.99 1572.86 1070.82 1572.86 Q1060.65 1572.86 1055.26 1564.84 Q1049.92 1556.77 1049.92 1541.5 Q1049.92 1526.19 1055.26 1518.17 Q1060.65 1510.11 1070.82 1510.11 Z" fill="#000000" fill-rule="nonzero" fill-opacity="1"></path><path clip-path="url(#clip890)" d="M1122.19 1545.67 L1110.76 1582.62 L1103.88 1582.62 L1115.3 1545.67 L1103.88 1508.73 L1110.76 1508.73 L1122.19 1545.67 Z" fill="#000000" fill-rule="nonzero" fill-opacity="1"></path><path clip-path="url(#clip890)" d="M1349.66 1508.28 L1349.66 1591.25 L1342.77 1591.25 L1342.77 1508.28 L1349.66 1508.28 Z" fill="#000000" fill-rule="nonzero" fill-opacity="1"></path><path clip-path="url(#clip890)" d="M1386.57 1516.59 Q1380.25 1516.59 1377.05 1522.83 Q1373.89 1529.03 1373.89 1541.5 Q1373.89 1553.94 1377.05 1560.18 Q1380.25 1566.37 1386.57 1566.37 Q1392.92 1566.37 1396.08 1560.18 Q1399.28 1553.94 1399.28 1541.5 Q1399.28 1529.03 1396.08 1522.83 Q1392.92 1516.59 1386.57 1516.59 M1386.57 1510.11 Q1396.73 1510.11 1402.08 1518.17 Q1407.47 1526.19 1407.47 1541.5 Q1407.47 1556.77 1402.08 1564.84 Q1396.73 1572.86 1386.57 1572.86 Q1376.4 1572.86 1371.01 1564.84 Q1365.66 1556.77 1365.66 1541.5 Q1365.66 1526.19 1371.01 1518.17 Q1376.4 1510.11 1386.57 1510.11 Z" fill="#000000" fill-rule="nonzero" fill-opacity="1"></path><path clip-path="url(#clip890)" d="M1439.35 1516.59 Q1433.03 1516.59 1429.83 1522.83 Q1426.67 1529.03 1426.67 1541.5 Q1426.67 1553.94 1429.83 1560.18 Q1433.03 1566.37 1439.35 1566.37 Q1445.71 1566.37 1448.87 1560.18 Q1452.07 1553.94 1452.07 1541.5 Q1452.07 1529.03 1448.87 1522.83 Q1445.71 1516.59 1439.35 1516.59 M1439.35 1510.11 Q1449.52 1510.11 1454.86 1518.17 Q1460.25 1526.19 1460.25 1541.5 Q1460.25 1556.77 1454.86 1564.84 Q1449.52 1572.86 1439.35 1572.86 Q1429.18 1572.86 1423.79 1564.84 Q1418.45 1556.77 1418.45 1541.5 Q1418.45 1526.19 1423.79 1518.17 Q1429.18 1510.11 1439.35 1510.11 Z" fill="#000000" fill-rule="nonzero" fill-opacity="1"></path><path clip-path="url(#clip890)" d="M1476.05 1564.8 L1489.42 1564.8 L1489.42 1518.66 L1474.87 1521.57 L1474.87 1514.12 L1489.34 1511.2 L1497.52 1511.2 L1497.52 1564.8 L1510.89 1564.8 L1510.89 1571.68 L1476.05 1571.68 L1476.05 1564.8 Z" fill="#000000" fill-rule="nonzero" fill-opacity="1"></path><path clip-path="url(#clip890)" d="M1528.83 1564.8 L1542.2 1564.8 L1542.2 1518.66 L1527.66 1521.57 L1527.66 1514.12 L1542.12 1511.2 L1550.3 1511.2 L1550.3 1564.8 L1563.67 1564.8 L1563.67 1571.68 L1528.83 1571.68 L1528.83 1564.8 Z" fill="#000000" fill-rule="nonzero" fill-opacity="1"></path><path clip-path="url(#clip890)" d="M1596.28 1545.67 L1584.86 1582.62 L1577.97 1582.62 L1589.39 1545.67 L1577.97 1508.73 L1584.86 1508.73 L1596.28 1545.67 Z" fill="#000000" fill-rule="nonzero" fill-opacity="1"></path><path clip-path="url(#clip890)" d="M1823.76 1508.28 L1823.76 1591.25 L1816.87 1591.25 L1816.87 1508.28 L1823.76 1508.28 Z" fill="#000000" fill-rule="nonzero" fill-opacity="1"></path><path clip-path="url(#clip890)" d="M1860.66 1516.59 Q1854.34 1516.59 1851.14 1522.83 Q1847.98 1529.03 1847.98 1541.5 Q1847.98 1553.94 1851.14 1560.18 Q1854.34 1566.37 1860.66 1566.37 Q1867.02 1566.37 1870.18 1560.18 Q1873.38 1553.94 1873.38 1541.5 Q1873.38 1529.03 1870.18 1522.83 Q1867.02 1516.59 1860.66 1516.59 M1860.66 1510.11 Q1870.83 1510.11 1876.17 1518.17 Q1881.56 1526.19 1881.56 1541.5 Q1881.56 1556.77 1876.17 1564.84 Q1870.83 1572.86 1860.66 1572.86 Q1850.49 1572.86 1845.1 1564.84 Q1839.76 1556.77 1839.76 1541.5 Q1839.76 1526.19 1845.1 1518.17 Q1850.49 1510.11 1860.66 1510.11 Z" fill="#000000" fill-rule="nonzero" fill-opacity="1"></path><path clip-path="url(#clip890)" d="M1897.36 1564.8 L1910.73 1564.8 L1910.73 1518.66 L1896.19 1521.57 L1896.19 1514.12 L1910.65 1511.2 L1918.83 1511.2 L1918.83 1564.8 L1932.2 1564.8 L1932.2 1571.68 L1897.36 1571.68 L1897.36 1564.8 Z" fill="#000000" fill-rule="nonzero" fill-opacity="1"></path><path clip-path="url(#clip890)" d="M1966.23 1516.59 Q1959.91 1516.59 1956.71 1522.83 Q1953.55 1529.03 1953.55 1541.5 Q1953.55 1553.94 1956.71 1560.18 Q1959.91 1566.37 1966.23 1566.37 Q1972.59 1566.37 1975.75 1560.18 Q1978.95 1553.94 1978.95 1541.5 Q1978.95 1529.03 1975.75 1522.83 Q1972.59 1516.59 1966.23 1516.59 M1966.23 1510.11 Q1976.39 1510.11 1981.74 1518.17 Q1987.13 1526.19 1987.13 1541.5 Q1987.13 1556.77 1981.74 1564.84 Q1976.39 1572.86 1966.23 1572.86 Q1956.06 1572.86 1950.67 1564.84 Q1945.32 1556.77 1945.32 1541.5 Q1945.32 1526.19 1950.67 1518.17 Q1956.06 1510.11 1966.23 1510.11 Z" fill="#000000" fill-rule="nonzero" fill-opacity="1"></path><path clip-path="url(#clip890)" d="M2019.01 1516.59 Q2012.69 1516.59 2009.49 1522.83 Q2006.33 1529.03 2006.33 1541.5 Q2006.33 1553.94 2009.49 1560.18 Q2012.69 1566.37 2019.01 1566.37 Q2025.37 1566.37 2028.53 1560.18 Q2031.73 1553.94 2031.73 1541.5 Q2031.73 1529.03 2028.53 1522.83 Q2025.37 1516.59 2019.01 1516.59 M2019.01 1510.11 Q2029.18 1510.11 2034.52 1518.17 Q2039.91 1526.19 2039.91 1541.5 Q2039.91 1556.77 2034.52 1564.84 Q2029.18 1572.86 2019.01 1572.86 Q2008.84 1572.86 2003.45 1564.84 Q1998.11 1556.77 1998.11 1541.5 Q1998.11 1526.19 2003.45 1518.17 Q2008.84 1510.11 2019.01 1510.11 Z" fill="#000000" fill-rule="nonzero" fill-opacity="1"></path><path clip-path="url(#clip890)" d="M2070.37 1545.67 L2058.95 1582.62 L2052.06 1582.62 L2063.49 1545.67 L2052.06 1508.73 L2058.95 1508.73 L2070.37 1545.67 Z" fill="#000000" fill-rule="nonzero" fill-opacity="1"></path><path clip-path="url(#clip890)" d="M2297.85 1508.28 L2297.85 1591.25 L2290.96 1591.25 L2290.96 1508.28 L2297.85 1508.28 Z" fill="#000000" fill-rule="nonzero" fill-opacity="1"></path><path clip-path="url(#clip890)" d="M2334.75 1516.59 Q2328.43 1516.59 2325.23 1522.83 Q2322.07 1529.03 2322.07 1541.5 Q2322.07 1553.94 2325.23 1560.18 Q2328.43 1566.37 2334.75 1566.37 Q2341.11 1566.37 2344.27 1560.18 Q2347.47 1553.94 2347.47 1541.5 Q2347.47 1529.03 2344.27 1522.83 Q2341.11 1516.59 2334.75 1516.59 M2334.75 1510.11 Q2344.92 1510.11 2350.27 1518.17 Q2355.66 1526.19 2355.66 1541.5 Q2355.66 1556.77 2350.27 1564.84 Q2344.92 1572.86 2334.75 1572.86 Q2324.59 1572.86 2319.2 1564.84 Q2313.85 1556.77 2313.85 1541.5 Q2313.85 1526.19 2319.2 1518.17 Q2324.59 1510.11 2334.75 1510.11 Z" fill="#000000" fill-rule="nonzero" fill-opacity="1"></path><path clip-path="url(#clip890)" d="M2371.46 1564.8 L2384.82 1564.8 L2384.82 1518.66 L2370.28 1521.57 L2370.28 1514.12 L2384.74 1511.2 L2392.93 1511.2 L2392.93 1564.8 L2406.29 1564.8 L2406.29 1571.68 L2371.46 1571.68 L2371.46 1564.8 Z" fill="#000000" fill-rule="nonzero" fill-opacity="1"></path><path clip-path="url(#clip890)" d="M2440.32 1516.59 Q2434 1516.59 2430.8 1522.83 Q2427.64 1529.03 2427.64 1541.5 Q2427.64 1553.94 2430.8 1560.18 Q2434 1566.37 2440.32 1566.37 Q2446.68 1566.37 2449.84 1560.18 Q2453.04 1553.94 2453.04 1541.5 Q2453.04 1529.03 2449.84 1522.83 Q2446.68 1516.59 2440.32 1516.59 M2440.32 1510.11 Q2450.49 1510.11 2455.84 1518.17 Q2461.22 1526.19 2461.22 1541.5 Q2461.22 1556.77 2455.84 1564.84 Q2450.49 1572.86 2440.32 1572.86 Q2430.15 1572.86 2424.77 1564.84 Q2419.42 1556.77 2419.42 1541.5 Q2419.42 1526.19 2424.77 1518.17 Q2430.15 1510.11 2440.32 1510.11 Z" fill="#000000" fill-rule="nonzero" fill-opacity="1"></path><path clip-path="url(#clip890)" d="M2477.02 1564.8 L2490.39 1564.8 L2490.39 1518.66 L2475.85 1521.57 L2475.85 1514.12 L2490.31 1511.2 L2498.49 1511.2 L2498.49 1564.8 L2511.86 1564.8 L2511.86 1571.68 L2477.02 1571.68 L2477.02 1564.8 Z" fill="#000000" fill-rule="nonzero" fill-opacity="1"></path><path clip-path="url(#clip890)" d="M2544.47 1545.67 L2533.05 1582.62 L2526.16 1582.62 L2537.58 1545.67 L2526.16 1508.73 L2533.05 1508.73 L2544.47 1545.67 Z" fill="#000000" fill-rule="nonzero" fill-opacity="1"></path><path clip-path="url(#clip890)" d="M2771.94 1508.28 L2771.94 1591.25 L2765.06 1591.25 L2765.06 1508.28 L2771.94 1508.28 Z" fill="#000000" fill-rule="nonzero" fill-opacity="1"></path><path clip-path="url(#clip890)" d="M2808.85 1516.59 Q2802.53 1516.59 2799.33 1522.83 Q2796.17 1529.03 2796.17 1541.5 Q2796.17 1553.94 2799.33 1560.18 Q2802.53 1566.37 2808.85 1566.37 Q2815.21 1566.37 2818.37 1560.18 Q2821.57 1553.94 2821.57 1541.5 Q2821.57 1529.03 2818.37 1522.83 Q2815.21 1516.59 2808.85 1516.59 M2808.85 1510.11 Q2819.02 1510.11 2824.36 1518.17 Q2829.75 1526.19 2829.75 1541.5 Q2829.75 1556.77 2824.36 1564.84 Q2819.02 1572.86 2808.85 1572.86 Q2798.68 1572.86 2793.29 1564.84 Q2787.95 1556.77 2787.95 1541.5 Q2787.95 1526.19 2793.29 1518.17 Q2798.68 1510.11 2808.85 1510.11 Z" fill="#000000" fill-rule="nonzero" fill-opacity="1"></path><path clip-path="url(#clip890)" d="M2845.55 1564.8 L2858.92 1564.8 L2858.92 1518.66 L2844.37 1521.57 L2844.37 1514.12 L2858.84 1511.2 L2867.02 1511.2 L2867.02 1564.8 L2880.39 1564.8 L2880.39 1571.68 L2845.55 1571.68 L2845.55 1564.8 Z" fill="#000000" fill-rule="nonzero" fill-opacity="1"></path><path clip-path="url(#clip890)" d="M2898.33 1564.8 L2911.7 1564.8 L2911.7 1518.66 L2897.16 1521.57 L2897.16 1514.12 L2911.62 1511.2 L2919.8 1511.2 L2919.8 1564.8 L2933.17 1564.8 L2933.17 1571.68 L2898.33 1571.68 L2898.33 1564.8 Z" fill="#000000" fill-rule="nonzero" fill-opacity="1"></path><path clip-path="url(#clip890)" d="M2967.2 1516.59 Q2960.88 1516.59 2957.68 1522.83 Q2954.52 1529.03 2954.52 1541.5 Q2954.52 1553.94 2957.68 1560.18 Q2960.88 1566.37 2967.2 1566.37 Q2973.56 1566.37 2976.72 1560.18 Q2979.92 1553.94 2979.92 1541.5 Q2979.92 1529.03 2976.72 1522.83 Q2973.56 1516.59 2967.2 1516.59 M2967.2 1510.11 Q2977.37 1510.11 2982.71 1518.17 Q2988.1 1526.19 2988.1 1541.5 Q2988.1 1556.77 2982.71 1564.84 Q2977.37 1572.86 2967.2 1572.86 Q2957.03 1572.86 2951.64 1564.84 Q2946.3 1556.77 2946.3 1541.5 Q2946.3 1526.19 2951.64 1518.17 Q2957.03 1510.11 2967.2 1510.11 Z" fill="#000000" fill-rule="nonzero" fill-opacity="1"></path><path clip-path="url(#clip890)" d="M3018.56 1545.67 L3007.14 1582.62 L3000.25 1582.62 L3011.68 1545.67 L3000.25 1508.73 L3007.14 1508.73 L3018.56 1545.67 Z" fill="#000000" fill-rule="nonzero" fill-opacity="1"></path><path clip-path="url(#clip890)" d="M3246.04 1508.28 L3246.04 1591.25 L3239.15 1591.25 L3239.15 1508.28 L3246.04 1508.28 Z" fill="#000000" fill-rule="nonzero" fill-opacity="1"></path><path clip-path="url(#clip890)" d="M3282.94 1516.59 Q3276.62 1516.59 3273.42 1522.83 Q3270.26 1529.03 3270.26 1541.5 Q3270.26 1553.94 3273.42 1560.18 Q3276.62 1566.37 3282.94 1566.37 Q3289.3 1566.37 3292.46 1560.18 Q3295.66 1553.94 3295.66 1541.5 Q3295.66 1529.03 3292.46 1522.83 Q3289.3 1516.59 3282.94 1516.59 M3282.94 1510.11 Q3293.11 1510.11 3298.46 1518.17 Q3303.85 1526.19 3303.85 1541.5 Q3303.85 1556.77 3298.46 1564.84 Q3293.11 1572.86 3282.94 1572.86 Q3272.78 1572.86 3267.39 1564.84 Q3262.04 1556.77 3262.04 1541.5 Q3262.04 1526.19 3267.39 1518.17 Q3272.78 1510.11 3282.94 1510.11 Z" fill="#000000" fill-rule="nonzero" fill-opacity="1"></path><path clip-path="url(#clip890)" d="M3319.64 1564.8 L3333.01 1564.8 L3333.01 1518.66 L3318.47 1521.57 L3318.47 1514.12 L3332.93 1511.2 L3341.11 1511.2 L3341.11 1564.8 L3354.48 1564.8 L3354.48 1571.68 L3319.64 1571.68 L3319.64 1564.8 Z" fill="#000000" fill-rule="nonzero" fill-opacity="1"></path><path clip-path="url(#clip890)" d="M3372.43 1564.8 L3385.8 1564.8 L3385.8 1518.66 L3371.25 1521.57 L3371.25 1514.12 L3385.71 1511.2 L3393.9 1511.2 L3393.9 1564.8 L3407.27 1564.8 L3407.27 1571.68 L3372.43 1571.68 L3372.43 1564.8 Z" fill="#000000" fill-rule="nonzero" fill-opacity="1"></path><path clip-path="url(#clip890)" d="M3425.21 1564.8 L3438.58 1564.8 L3438.58 1518.66 L3424.04 1521.57 L3424.04 1514.12 L3438.5 1511.2 L3446.68 1511.2 L3446.68 1564.8 L3460.05 1564.8 L3460.05 1571.68 L3425.21 1571.68 L3425.21 1564.8 Z" fill="#000000" fill-rule="nonzero" fill-opacity="1"></path><path clip-path="url(#clip890)" d="M3492.66 1545.67 L3481.23 1582.62 L3474.35 1582.62 L3485.77 1545.67 L3474.35 1508.73 L3481.23 1508.73 L3492.66 1545.67 Z" fill="#000000" fill-rule="nonzero" fill-opacity="1"></path><path clip-path="url(#clip890)" d="M3720.13 1508.28 L3720.13 1591.25 L3713.25 1591.25 L3713.25 1508.28 L3720.13 1508.28 Z" fill="#000000" fill-rule="nonzero" fill-opacity="1"></path><path clip-path="url(#clip890)" d="M3740.96 1564.8 L3754.32 1564.8 L3754.32 1518.66 L3739.78 1521.57 L3739.78 1514.12 L3754.24 1511.2 L3762.43 1511.2 L3762.43 1564.8 L3775.79 1564.8 L3775.79 1571.68 L3740.96 1571.68 L3740.96 1564.8 Z" fill="#000000" fill-rule="nonzero" fill-opacity="1"></path><path clip-path="url(#clip890)" d="M3809.82 1516.59 Q3803.5 1516.59 3800.3 1522.83 Q3797.14 1529.03 3797.14 1541.5 Q3797.14 1553.94 3800.3 1560.18 Q3803.5 1566.37 3809.82 1566.37 Q3816.18 1566.37 3819.34 1560.18 Q3822.54 1553.94 3822.54 1541.5 Q3822.54 1529.03 3819.34 1522.83 Q3816.18 1516.59 3809.82 1516.59 M3809.82 1510.11 Q3819.99 1510.11 3825.34 1518.17 Q3830.72 1526.19 3830.72 1541.5 Q3830.72 1556.77 3825.34 1564.84 Q3819.99 1572.86 3809.82 1572.86 Q3799.65 1572.86 3794.27 1564.84 Q3788.92 1556.77 3788.92 1541.5 Q3788.92 1526.19 3794.27 1518.17 Q3799.65 1510.11 3809.82 1510.11 Z" fill="#000000" fill-rule="nonzero" fill-opacity="1"></path><path clip-path="url(#clip890)" d="M3862.6 1516.59 Q3856.28 1516.59 3853.08 1522.83 Q3849.92 1529.03 3849.92 1541.5 Q3849.92 1553.94 3853.08 1560.18 Q3856.28 1566.37 3862.6 1566.37 Q3868.96 1566.37 3872.12 1560.18 Q3875.32 1553.94 3875.32 1541.5 Q3875.32 1529.03 3872.12 1522.83 Q3868.96 1516.59 3862.6 1516.59 M3862.6 1510.11 Q3872.77 1510.11 3878.12 1518.17 Q3883.51 1526.19 3883.51 1541.5 Q3883.51 1556.77 3878.12 1564.84 Q3872.77 1572.86 3862.6 1572.86 Q3852.44 1572.86 3847.05 1564.84 Q3841.7 1556.77 3841.7 1541.5 Q3841.7 1526.19 3847.05 1518.17 Q3852.44 1510.11 3862.6 1510.11 Z" fill="#000000" fill-rule="nonzero" fill-opacity="1"></path><path clip-path="url(#clip890)" d="M3915.39 1516.59 Q3909.07 1516.59 3905.87 1522.83 Q3902.71 1529.03 3902.71 1541.5 Q3902.71 1553.94 3905.87 1560.18 Q3909.07 1566.37 3915.39 1566.37 Q3921.75 1566.37 3924.91 1560.18 Q3928.11 1553.94 3928.11 1541.5 Q3928.11 1529.03 3924.91 1522.83 Q3921.75 1516.59 3915.39 1516.59 M3915.39 1510.11 Q3925.56 1510.11 3930.9 1518.17 Q3936.29 1526.19 3936.29 1541.5 Q3936.29 1556.77 3930.9 1564.84 Q3925.56 1572.86 3915.39 1572.86 Q3905.22 1572.86 3899.83 1564.84 Q3894.48 1556.77 3894.48 1541.5 Q3894.48 1526.19 3899.83 1518.17 Q3905.22 1510.11 3915.39 1510.11 Z" fill="#000000" fill-rule="nonzero" fill-opacity="1"></path><path clip-path="url(#clip890)" d="M3966.75 1545.67 L3955.33 1582.62 L3948.44 1582.62 L3959.87 1545.67 L3948.44 1508.73 L3955.33 1508.73 L3966.75 1545.67 Z" fill="#000000" fill-rule="nonzero" fill-opacity="1"></path><path clip-path="url(#clip890)" d="M4194.23 1508.28 L4194.23 1591.25 L4187.34 1591.25 L4187.34 1508.28 L4194.23 1508.28 Z" fill="#000000" fill-rule="nonzero" fill-opacity="1"></path><path clip-path="url(#clip890)" d="M4215.05 1564.8 L4228.42 1564.8 L4228.42 1518.66 L4213.88 1521.57 L4213.88 1514.12 L4228.34 1511.2 L4236.52 1511.2 L4236.52 1564.8 L4249.89 1564.8 L4249.89 1571.68 L4215.05 1571.68 L4215.05 1564.8 Z" fill="#000000" fill-rule="nonzero" fill-opacity="1"></path><path clip-path="url(#clip890)" d="M4283.92 1516.59 Q4277.6 1516.59 4274.4 1522.83 Q4271.24 1529.03 4271.24 1541.5 Q4271.24 1553.94 4274.4 1560.18 Q4277.6 1566.37 4283.92 1566.37 Q4290.28 1566.37 4293.43 1560.18 Q4296.64 1553.94 4296.64 1541.5 Q4296.64 1529.03 4293.43 1522.83 Q4290.28 1516.59 4283.92 1516.59 M4283.92 1510.11 Q4294.08 1510.11 4299.43 1518.17 Q4304.82 1526.19 4304.82 1541.5 Q4304.82 1556.77 4299.43 1564.84 Q4294.08 1572.86 4283.92 1572.86 Q4273.75 1572.86 4268.36 1564.84 Q4263.01 1556.77 4263.01 1541.5 Q4263.01 1526.19 4268.36 1518.17 Q4273.75 1510.11 4283.92 1510.11 Z" fill="#000000" fill-rule="nonzero" fill-opacity="1"></path><path clip-path="url(#clip890)" d="M4336.7 1516.59 Q4330.38 1516.59 4327.18 1522.83 Q4324.02 1529.03 4324.02 1541.5 Q4324.02 1553.94 4327.18 1560.18 Q4330.38 1566.37 4336.7 1566.37 Q4343.06 1566.37 4346.22 1560.18 Q4349.42 1553.94 4349.42 1541.5 Q4349.42 1529.03 4346.22 1522.83 Q4343.06 1516.59 4336.7 1516.59 M4336.7 1510.11 Q4346.87 1510.11 4352.21 1518.17 Q4357.6 1526.19 4357.6 1541.5 Q4357.6 1556.77 4352.21 1564.84 Q4346.87 1572.86 4336.7 1572.86 Q4326.53 1572.86 4321.14 1564.84 Q4315.8 1556.77 4315.8 1541.5 Q4315.8 1526.19 4321.14 1518.17 Q4326.53 1510.11 4336.7 1510.11 Z" fill="#000000" fill-rule="nonzero" fill-opacity="1"></path><path clip-path="url(#clip890)" d="M4373.4 1564.8 L4386.77 1564.8 L4386.77 1518.66 L4372.22 1521.57 L4372.22 1514.12 L4386.69 1511.2 L4394.87 1511.2 L4394.87 1564.8 L4408.24 1564.8 L4408.24 1571.68 L4373.4 1571.68 L4373.4 1564.8 Z" fill="#000000" fill-rule="nonzero" fill-opacity="1"></path><path clip-path="url(#clip890)" d="M4440.85 1545.67 L4429.42 1582.62 L4422.54 1582.62 L4433.96 1545.67 L4422.54 1508.73 L4429.42 1508.73 L4440.85 1545.67 Z" fill="#000000" fill-rule="nonzero" fill-opacity="1"></path><path clip-path="url(#clip890)" d="M4668.32 1508.28 L4668.32 1591.25 L4661.44 1591.25 L4661.44 1508.28 L4668.32 1508.28 Z" fill="#000000" fill-rule="nonzero" fill-opacity="1"></path><path clip-path="url(#clip890)" d="M4689.14 1564.8 L4702.51 1564.8 L4702.51 1518.66 L4687.97 1521.57 L4687.97 1514.12 L4702.43 1511.2 L4710.61 1511.2 L4710.61 1564.8 L4723.98 1564.8 L4723.98 1571.68 L4689.14 1571.68 L4689.14 1564.8 Z" fill="#000000" fill-rule="nonzero" fill-opacity="1"></path><path clip-path="url(#clip890)" d="M4758.01 1516.59 Q4751.69 1516.59 4748.49 1522.83 Q4745.33 1529.03 4745.33 1541.5 Q4745.33 1553.94 4748.49 1560.18 Q4751.69 1566.37 4758.01 1566.37 Q4764.37 1566.37 4767.53 1560.18 Q4770.73 1553.94 4770.73 1541.5 Q4770.73 1529.03 4767.53 1522.83 Q4764.37 1516.59 4758.01 1516.59 M4758.01 1510.11 Q4768.18 1510.11 4773.52 1518.17 Q4778.91 1526.19 4778.91 1541.5 Q4778.91 1556.77 4773.52 1564.84 Q4768.18 1572.86 4758.01 1572.86 Q4747.84 1572.86 4742.45 1564.84 Q4737.11 1556.77 4737.11 1541.5 Q4737.11 1526.19 4742.45 1518.17 Q4747.84 1510.11 4758.01 1510.11 Z" fill="#000000" fill-rule="nonzero" fill-opacity="1"></path><path clip-path="url(#clip890)" d="M4794.71 1564.8 L4808.08 1564.8 L4808.08 1518.66 L4793.54 1521.57 L4793.54 1514.12 L4808 1511.2 L4816.18 1511.2 L4816.18 1564.8 L4829.55 1564.8 L4829.55 1571.68 L4794.71 1571.68 L4794.71 1564.8 Z" fill="#000000" fill-rule="nonzero" fill-opacity="1"></path><path clip-path="url(#clip890)" d="M4863.58 1516.59 Q4857.26 1516.59 4854.06 1522.83 Q4850.9 1529.03 4850.9 1541.5 Q4850.9 1553.94 4854.06 1560.18 Q4857.26 1566.37 4863.58 1566.37 Q4869.94 1566.37 4873.1 1560.18 Q4876.3 1553.94 4876.3 1541.5 Q4876.3 1529.03 4873.1 1522.83 Q4869.94 1516.59 4863.58 1516.59 M4863.58 1510.11 Q4873.74 1510.11 4879.09 1518.17 Q4884.48 1526.19 4884.48 1541.5 Q4884.48 1556.77 4879.09 1564.84 Q4873.74 1572.86 4863.58 1572.86 Q4853.41 1572.86 4848.02 1564.84 Q4842.67 1556.77 4842.67 1541.5 Q4842.67 1526.19 4848.02 1518.17 Q4853.41 1510.11 4863.58 1510.11 Z" fill="#000000" fill-rule="nonzero" fill-opacity="1"></path><path clip-path="url(#clip890)" d="M4914.94 1545.67 L4903.52 1582.62 L4896.63 1582.62 L4908.06 1545.67 L4896.63 1508.73 L4903.52 1508.73 L4914.94 1545.67 Z" fill="#000000" fill-rule="nonzero" fill-opacity="1"></path><path clip-path="url(#clip890)" d="M5142.42 1508.28 L5142.42 1591.25 L5135.53 1591.25 L5135.53 1508.28 L5142.42 1508.28 Z" fill="#000000" fill-rule="nonzero" fill-opacity="1"></path><path clip-path="url(#clip890)" d="M5163.24 1564.8 L5176.61 1564.8 L5176.61 1518.66 L5162.06 1521.57 L5162.06 1514.12 L5176.53 1511.2 L5184.71 1511.2 L5184.71 1564.8 L5198.08 1564.8 L5198.08 1571.68 L5163.24 1571.68 L5163.24 1564.8 Z" fill="#000000" fill-rule="nonzero" fill-opacity="1"></path><path clip-path="url(#clip890)" d="M5232.1 1516.59 Q5225.78 1516.59 5222.58 1522.83 Q5219.42 1529.03 5219.42 1541.5 Q5219.42 1553.94 5222.58 1560.18 Q5225.78 1566.37 5232.1 1566.37 Q5238.46 1566.37 5241.62 1560.18 Q5244.82 1553.94 5244.82 1541.5 Q5244.82 1529.03 5241.62 1522.83 Q5238.46 1516.59 5232.1 1516.59 M5232.1 1510.11 Q5242.27 1510.11 5247.62 1518.17 Q5253.01 1526.19 5253.01 1541.5 Q5253.01 1556.77 5247.62 1564.84 Q5242.27 1572.86 5232.1 1572.86 Q5221.94 1572.86 5216.55 1564.84 Q5211.2 1556.77 5211.2 1541.5 Q5211.2 1526.19 5216.55 1518.17 Q5221.94 1510.11 5232.1 1510.11 Z" fill="#000000" fill-rule="nonzero" fill-opacity="1"></path><path clip-path="url(#clip890)" d="M5268.81 1564.8 L5282.17 1564.8 L5282.17 1518.66 L5267.63 1521.57 L5267.63 1514.12 L5282.09 1511.2 L5290.28 1511.2 L5290.28 1564.8 L5303.64 1564.8 L5303.64 1571.68 L5268.81 1571.68 L5268.81 1564.8 Z" fill="#000000" fill-rule="nonzero" fill-opacity="1"></path><path clip-path="url(#clip890)" d="M5321.59 1564.8 L5334.96 1564.8 L5334.96 1518.66 L5320.41 1521.57 L5320.41 1514.12 L5334.88 1511.2 L5343.06 1511.2 L5343.06 1564.8 L5356.43 1564.8 L5356.43 1571.68 L5321.59 1571.68 L5321.59 1564.8 Z" fill="#000000" fill-rule="nonzero" fill-opacity="1"></path><path clip-path="url(#clip890)" d="M5389.04 1545.67 L5377.61 1582.62 L5370.73 1582.62 L5382.15 1545.67 L5370.73 1508.73 L5377.61 1508.73 L5389.04 1545.67 Z" fill="#000000" fill-rule="nonzero" fill-opacity="1"></path><path clip-path="url(#clip890)" d="M5616.51 1508.28 L5616.51 1591.25 L5609.63 1591.25 L5609.63 1508.28 L5616.51 1508.28 Z" fill="#000000" fill-rule="nonzero" fill-opacity="1"></path><path clip-path="url(#clip890)" d="M5637.33 1564.8 L5650.7 1564.8 L5650.7 1518.66 L5636.16 1521.57 L5636.16 1514.12 L5650.62 1511.2 L5658.8 1511.2 L5658.8 1564.8 L5672.17 1564.8 L5672.17 1571.68 L5637.33 1571.68 L5637.33 1564.8 Z" fill="#000000" fill-rule="nonzero" fill-opacity="1"></path><path clip-path="url(#clip890)" d="M5690.12 1564.8 L5703.48 1564.8 L5703.48 1518.66 L5688.94 1521.57 L5688.94 1514.12 L5703.4 1511.2 L5711.59 1511.2 L5711.59 1564.8 L5724.95 1564.8 L5724.95 1571.68 L5690.12 1571.68 L5690.12 1564.8 Z" fill="#000000" fill-rule="nonzero" fill-opacity="1"></path><path clip-path="url(#clip890)" d="M5758.98 1516.59 Q5752.66 1516.59 5749.46 1522.83 Q5746.3 1529.03 5746.3 1541.5 Q5746.3 1553.94 5749.46 1560.18 Q5752.66 1566.37 5758.98 1566.37 Q5765.34 1566.37 5768.5 1560.18 Q5771.7 1553.94 5771.7 1541.5 Q5771.7 1529.03 5768.5 1522.83 Q5765.34 1516.59 5758.98 1516.59 M5758.98 1510.11 Q5769.15 1510.11 5774.5 1518.17 Q5779.88 1526.19 5779.88 1541.5 Q5779.88 1556.77 5774.5 1564.84 Q5769.15 1572.86 5758.98 1572.86 Q5748.81 1572.86 5743.43 1564.84 Q5738.08 1556.77 5738.08 1541.5 Q5738.08 1526.19 5743.43 1518.17 Q5748.81 1510.11 5758.98 1510.11 Z" fill="#000000" fill-rule="nonzero" fill-opacity="1"></path><path clip-path="url(#clip890)" d="M5811.77 1516.59 Q5805.45 1516.59 5802.25 1522.83 Q5799.09 1529.03 5799.09 1541.5 Q5799.09 1553.94 5802.25 1560.18 Q5805.45 1566.37 5811.77 1566.37 Q5818.13 1566.37 5821.28 1560.18 Q5824.49 1553.94 5824.49 1541.5 Q5824.49 1529.03 5821.28 1522.83 Q5818.13 1516.59 5811.77 1516.59 M5811.77 1510.11 Q5821.93 1510.11 5827.28 1518.17 Q5832.67 1526.19 5832.67 1541.5 Q5832.67 1556.77 5827.28 1564.84 Q5821.93 1572.86 5811.77 1572.86 Q5801.6 1572.86 5796.21 1564.84 Q5790.86 1556.77 5790.86 1541.5 Q5790.86 1526.19 5796.21 1518.17 Q5801.6 1510.11 5811.77 1510.11 Z" fill="#000000" fill-rule="nonzero" fill-opacity="1"></path><path clip-path="url(#clip890)" d="M5863.13 1545.67 L5851.71 1582.62 L5844.82 1582.62 L5856.24 1545.67 L5844.82 1508.73 L5851.71 1508.73 L5863.13 1545.67 Z" fill="#000000" fill-rule="nonzero" fill-opacity="1"></path><path clip-path="url(#clip890)" d="M6090.61 1508.28 L6090.61 1591.25 L6083.72 1591.25 L6083.72 1508.28 L6090.61 1508.28 Z" fill="#000000" fill-rule="nonzero" fill-opacity="1"></path><path clip-path="url(#clip890)" d="M6111.43 1564.8 L6124.8 1564.8 L6124.8 1518.66 L6110.25 1521.57 L6110.25 1514.12 L6124.71 1511.2 L6132.9 1511.2 L6132.9 1564.8 L6146.27 1564.8 L6146.27 1571.68 L6111.43 1571.68 L6111.43 1564.8 Z" fill="#000000" fill-rule="nonzero" fill-opacity="1"></path><path clip-path="url(#clip890)" d="M6164.21 1564.8 L6177.58 1564.8 L6177.58 1518.66 L6163.04 1521.57 L6163.04 1514.12 L6177.5 1511.2 L6185.68 1511.2 L6185.68 1564.8 L6199.05 1564.8 L6199.05 1571.68 L6164.21 1571.68 L6164.21 1564.8 Z" fill="#000000" fill-rule="nonzero" fill-opacity="1"></path><path clip-path="url(#clip890)" d="M6233.08 1516.59 Q6226.76 1516.59 6223.56 1522.83 Q6220.4 1529.03 6220.4 1541.5 Q6220.4 1553.94 6223.56 1560.18 Q6226.76 1566.37 6233.08 1566.37 Q6239.44 1566.37 6242.6 1560.18 Q6245.8 1553.94 6245.8 1541.5 Q6245.8 1529.03 6242.6 1522.83 Q6239.44 1516.59 6233.08 1516.59 M6233.08 1510.11 Q6243.24 1510.11 6248.59 1518.17 Q6253.98 1526.19 6253.98 1541.5 Q6253.98 1556.77 6248.59 1564.84 Q6243.24 1572.86 6233.08 1572.86 Q6222.91 1572.86 6217.52 1564.84 Q6212.17 1556.77 6212.17 1541.5 Q6212.17 1526.19 6217.52 1518.17 Q6222.91 1510.11 6233.08 1510.11 Z" fill="#000000" fill-rule="nonzero" fill-opacity="1"></path><path clip-path="url(#clip890)" d="M6269.78 1564.8 L6283.15 1564.8 L6283.15 1518.66 L6268.6 1521.57 L6268.6 1514.12 L6283.06 1511.2 L6291.25 1511.2 L6291.25 1564.8 L6304.62 1564.8 L6304.62 1571.68 L6269.78 1571.68 L6269.78 1564.8 Z" fill="#000000" fill-rule="nonzero" fill-opacity="1"></path><path clip-path="url(#clip890)" d="M6337.23 1545.67 L6325.8 1582.62 L6318.92 1582.62 L6330.34 1545.67 L6318.92 1508.73 L6325.8 1508.73 L6337.23 1545.67 Z" fill="#000000" fill-rule="nonzero" fill-opacity="1"></path><path clip-path="url(#clip890)" d="M6564.7 1508.28 L6564.7 1591.25 L6557.81 1591.25 L6557.81 1508.28 L6564.7 1508.28 Z" fill="#000000" fill-rule="nonzero" fill-opacity="1"></path><path clip-path="url(#clip890)" d="M6585.52 1564.8 L6598.89 1564.8 L6598.89 1518.66 L6584.35 1521.57 L6584.35 1514.12 L6598.81 1511.2 L6606.99 1511.2 L6606.99 1564.8 L6620.36 1564.8 L6620.36 1571.68 L6585.52 1571.68 L6585.52 1564.8 Z" fill="#000000" fill-rule="nonzero" fill-opacity="1"></path><path clip-path="url(#clip890)" d="M6638.31 1564.8 L6651.67 1564.8 L6651.67 1518.66 L6637.13 1521.57 L6637.13 1514.12 L6651.59 1511.2 L6659.78 1511.2 L6659.78 1564.8 L6673.14 1564.8 L6673.14 1571.68 L6638.31 1571.68 L6638.31 1564.8 Z" fill="#000000" fill-rule="nonzero" fill-opacity="1"></path><path clip-path="url(#clip890)" d="M6691.09 1564.8 L6704.46 1564.8 L6704.46 1518.66 L6689.91 1521.57 L6689.91 1514.12 L6704.38 1511.2 L6712.56 1511.2 L6712.56 1564.8 L6725.93 1564.8 L6725.93 1571.68 L6691.09 1571.68 L6691.09 1564.8 Z" fill="#000000" fill-rule="nonzero" fill-opacity="1"></path><path clip-path="url(#clip890)" d="M6759.95 1516.59 Q6753.63 1516.59 6750.43 1522.83 Q6747.27 1529.03 6747.27 1541.5 Q6747.27 1553.94 6750.43 1560.18 Q6753.63 1566.37 6759.95 1566.37 Q6766.31 1566.37 6769.47 1560.18 Q6772.67 1553.94 6772.67 1541.5 Q6772.67 1529.03 6769.47 1522.83 Q6766.31 1516.59 6759.95 1516.59 M6759.95 1510.11 Q6770.12 1510.11 6775.47 1518.17 Q6780.86 1526.19 6780.86 1541.5 Q6780.86 1556.77 6775.47 1564.84 Q6770.12 1572.86 6759.95 1572.86 Q6749.79 1572.86 6744.4 1564.84 Q6739.05 1556.77 6739.05 1541.5 Q6739.05 1526.19 6744.4 1518.17 Q6749.79 1510.11 6759.95 1510.11 Z" fill="#000000" fill-rule="nonzero" fill-opacity="1"></path><path clip-path="url(#clip890)" d="M6811.32 1545.67 L6799.9 1582.62 L6793.01 1582.62 L6804.43 1545.67 L6793.01 1508.73 L6799.9 1508.73 L6811.32 1545.67 Z" fill="#000000" fill-rule="nonzero" fill-opacity="1"></path><path clip-path="url(#clip890)" d="M7038.8 1508.28 L7038.8 1591.25 L7031.91 1591.25 L7031.91 1508.28 L7038.8 1508.28 Z" fill="#000000" fill-rule="nonzero" fill-opacity="1"></path><path clip-path="url(#clip890)" d="M7059.62 1564.8 L7072.98 1564.8 L7072.98 1518.66 L7058.44 1521.57 L7058.44 1514.12 L7072.9 1511.2 L7081.09 1511.2 L7081.09 1564.8 L7094.45 1564.8 L7094.45 1571.68 L7059.62 1571.68 L7059.62 1564.8 Z" fill="#000000" fill-rule="nonzero" fill-opacity="1"></path><path clip-path="url(#clip890)" d="M7112.4 1564.8 L7125.77 1564.8 L7125.77 1518.66 L7111.23 1521.57 L7111.23 1514.12 L7125.69 1511.2 L7133.87 1511.2 L7133.87 1564.8 L7147.24 1564.8 L7147.24 1571.68 L7112.4 1571.68 L7112.4 1564.8 Z" fill="#000000" fill-rule="nonzero" fill-opacity="1"></path><path clip-path="url(#clip890)" d="M7165.18 1564.8 L7178.55 1564.8 L7178.55 1518.66 L7164.01 1521.57 L7164.01 1514.12 L7178.47 1511.2 L7186.65 1511.2 L7186.65 1564.8 L7200.02 1564.8 L7200.02 1571.68 L7165.18 1571.68 L7165.18 1564.8 Z" fill="#000000" fill-rule="nonzero" fill-opacity="1"></path><path clip-path="url(#clip890)" d="M7217.97 1564.8 L7231.33 1564.8 L7231.33 1518.66 L7216.79 1521.57 L7216.79 1514.12 L7231.25 1511.2 L7239.44 1511.2 L7239.44 1564.8 L7252.8 1564.8 L7252.8 1571.68 L7217.97 1571.68 L7217.97 1564.8 Z" fill="#000000" fill-rule="nonzero" fill-opacity="1"></path><path clip-path="url(#clip890)" d="M7285.41 1545.67 L7273.99 1582.62 L7267.1 1582.62 L7278.53 1545.67 L7267.1 1508.73 L7273.99 1508.73 L7285.41 1545.67 Z" fill="#000000" fill-rule="nonzero" fill-opacity="1"></path><circle clip-path="url(#clip892)" style="fill:#3da44d; stroke:none; fill-opacity:1" cx="47.2441" cy="81.8921" r="2"></circle>
<circle clip-path="url(#clip892)" style="fill:#3da44d; stroke:none; fill-opacity:1" cx="521.339" cy="81.8921" r="2"></circle>
<circle clip-path="url(#clip892)" style="fill:#3da44d; stroke:none; fill-opacity:1" cx="995.433" cy="81.8921" r="2"></circle>
<circle clip-path="url(#clip892)" style="fill:#3da44d; stroke:none; fill-opacity:1" cx="1469.53" cy="81.8921" r="2"></circle>
<circle clip-path="url(#clip892)" style="fill:#3da44d; stroke:none; fill-opacity:1" cx="1943.62" cy="81.8921" r="2"></circle>
<circle clip-path="url(#clip892)" style="fill:#3da44d; stroke:none; fill-opacity:1" cx="2417.72" cy="81.8921" r="2"></circle>
<circle clip-path="url(#clip892)" style="fill:#3da44d; stroke:none; fill-opacity:1" cx="2891.81" cy="81.8921" r="2"></circle>
<circle clip-path="url(#clip892)" style="fill:#3da44d; stroke:none; fill-opacity:1" cx="3365.91" cy="81.8921" r="2"></circle>
<circle clip-path="url(#clip892)" style="fill:#3da44d; stroke:none; fill-opacity:1" cx="3840" cy="81.8921" r="2"></circle>
<circle clip-path="url(#clip892)" style="fill:#3da44d; stroke:none; fill-opacity:1" cx="4314.09" cy="81.8921" r="2"></circle>
<circle clip-path="url(#clip892)" style="fill:#3da44d; stroke:none; fill-opacity:1" cx="4788.19" cy="81.8921" r="2"></circle>
<circle clip-path="url(#clip892)" style="fill:#3da44d; stroke:none; fill-opacity:1" cx="5262.28" cy="81.8921" r="2"></circle>
<circle clip-path="url(#clip892)" style="fill:#3da44d; stroke:none; fill-opacity:1" cx="5736.38" cy="81.8921" r="2"></circle>
<circle clip-path="url(#clip892)" style="fill:#3da44d; stroke:none; fill-opacity:1" cx="6210.47" cy="81.8921" r="2"></circle>
<circle clip-path="url(#clip892)" style="fill:#3da44d; stroke:none; fill-opacity:1" cx="6684.57" cy="81.8921" r="2"></circle>
<circle clip-path="url(#clip892)" style="fill:#3da44d; stroke:none; fill-opacity:1" cx="7158.66" cy="81.8921" r="2"></circle>
<path clip-path="url(#clip890)" d="M-23.3632 105.246 L-9.99518 105.246 L-9.99518 59.1058 L-24.5379 62.0224 L-24.5379 54.5688 L-10.0762 51.6521 L-1.89337 51.6521 L-1.89337 105.246 L11.4746 105.246 L11.4746 112.132 L-23.3632 112.132 L-23.3632 105.246 Z" fill="#000000" fill-rule="nonzero" fill-opacity="1"></path><path clip-path="url(#clip890)" d="M29.4201 105.246 L42.7881 105.246 L42.7881 59.1058 L28.2454 62.0224 L28.2454 54.5688 L42.7071 51.6521 L50.8899 51.6521 L50.8899 105.246 L64.2579 105.246 L64.2579 112.132 L29.4201 112.132 L29.4201 105.246 Z" fill="#000000" fill-rule="nonzero" fill-opacity="1"></path><path clip-path="url(#clip890)" d="M98.2855 83.4112 Q92.4522 83.4112 89.0899 86.5304 Q85.7682 89.6496 85.7682 95.1183 Q85.7682 100.587 89.0899 103.706 Q92.4522 106.825 98.2855 106.825 Q104.119 106.825 107.481 103.706 Q110.843 100.547 110.843 95.1183 Q110.843 89.6496 107.481 86.5304 Q104.159 83.4112 98.2855 83.4112 M90.1027 79.9274 Q84.8365 78.6311 81.8793 75.0258 Q78.9627 71.4205 78.9627 66.2354 Q78.9627 58.9843 84.1073 54.7713 Q89.2925 50.5584 98.2855 50.5584 Q107.319 50.5584 112.464 54.7713 Q117.608 58.9843 117.608 66.2354 Q117.608 71.4205 114.651 75.0258 Q111.734 78.6311 106.509 79.9274 Q112.423 81.3047 115.704 85.3151 Q119.026 89.3255 119.026 95.1183 Q119.026 103.909 113.638 108.608 Q108.291 113.307 98.2855 113.307 Q88.2798 113.307 82.8921 108.608 Q77.5449 103.909 77.5449 95.1183 Q77.5449 89.3255 80.8666 85.3151 Q84.1883 81.3047 90.1027 79.9274 M87.105 67.0051 Q87.105 71.7041 90.0216 74.3372 Q92.9788 76.9703 98.2855 76.9703 Q103.552 76.9703 106.509 74.3372 Q109.506 71.7041 109.506 67.0051 Q109.506 62.306 106.509 59.6729 Q103.552 57.0398 98.2855 57.0398 Q92.9788 57.0398 90.0216 59.6729 Q87.105 62.306 87.105 67.0051 Z" fill="#000000" fill-rule="nonzero" fill-opacity="1"></path><path clip-path="url(#clip890)" d="M521.339 57.0398 Q515.019 57.0398 511.819 63.2782 Q508.659 69.4761 508.659 81.9529 Q508.659 94.3892 511.819 100.628 Q515.019 106.825 521.339 106.825 Q527.699 106.825 530.858 100.628 Q534.058 94.3892 534.058 81.9529 Q534.058 69.4761 530.858 63.2782 Q527.699 57.0398 521.339 57.0398 M521.339 50.5584 Q531.506 50.5584 536.854 58.6197 Q542.241 66.6405 542.241 81.9529 Q542.241 97.2248 536.854 105.286 Q531.506 113.307 521.339 113.307 Q511.171 113.307 505.783 105.286 Q500.436 97.2248 500.436 81.9529 Q500.436 66.6405 505.783 58.6197 Q511.171 50.5584 521.339 50.5584 Z" fill="#000000" fill-rule="nonzero" fill-opacity="1"></path><path clip-path="url(#clip890)" d="M995.433 57.0398 Q989.114 57.0398 985.913 63.2782 Q982.754 69.4761 982.754 81.9529 Q982.754 94.3892 985.913 100.628 Q989.114 106.825 995.433 106.825 Q1001.79 106.825 1004.95 100.628 Q1008.15 94.3892 1008.15 81.9529 Q1008.15 69.4761 1004.95 63.2782 Q1001.79 57.0398 995.433 57.0398 M995.433 50.5584 Q1005.6 50.5584 1010.95 58.6197 Q1016.34 66.6405 1016.34 81.9529 Q1016.34 97.2248 1010.95 105.286 Q1005.6 113.307 995.433 113.307 Q985.265 113.307 979.878 105.286 Q974.53 97.2248 974.53 81.9529 Q974.53 66.6405 979.878 58.6197 Q985.265 50.5584 995.433 50.5584 Z" fill="#000000" fill-rule="nonzero" fill-opacity="1"></path><path clip-path="url(#clip890)" d="M1398.84 105.246 L1412.21 105.246 L1412.21 59.1058 L1397.66 62.0224 L1397.66 54.5688 L1412.13 51.6521 L1420.31 51.6521 L1420.31 105.246 L1433.68 105.246 L1433.68 112.132 L1398.84 112.132 L1398.84 105.246 Z" fill="#000000" fill-rule="nonzero" fill-opacity="1"></path><path clip-path="url(#clip890)" d="M1475 79.5223 Q1480.87 80.7781 1484.15 84.748 Q1487.47 88.7179 1487.47 94.5512 Q1487.47 103.504 1481.32 108.405 Q1475.16 113.307 1463.82 113.307 Q1460.01 113.307 1455.96 112.537 Q1451.95 111.808 1447.65 110.309 L1447.65 102.41 Q1451.06 104.395 1455.11 105.408 Q1459.16 106.42 1463.57 106.42 Q1471.27 106.42 1475.28 103.382 Q1479.33 100.344 1479.33 94.5512 Q1479.33 89.204 1475.56 86.2063 Q1471.84 83.1682 1465.15 83.1682 L1458.1 83.1682 L1458.1 76.4437 L1465.48 76.4437 Q1471.51 76.4437 1474.71 74.0536 Q1477.91 71.6231 1477.91 67.0861 Q1477.91 62.4275 1474.59 59.9565 Q1471.31 57.4449 1465.15 57.4449 Q1461.79 57.4449 1457.94 58.1741 Q1454.09 58.9032 1449.48 60.4426 L1449.48 53.151 Q1454.13 51.8547 1458.19 51.2065 Q1462.28 50.5584 1465.88 50.5584 Q1475.2 50.5584 1480.63 54.8118 Q1486.06 59.0248 1486.06 66.2354 Q1486.06 71.2585 1483.18 74.7423 Q1480.3 78.1855 1475 79.5223 Z" fill="#000000" fill-rule="nonzero" fill-opacity="1"></path><path clip-path="url(#clip890)" d="M1520.49 57.0398 Q1514.17 57.0398 1510.97 63.2782 Q1507.81 69.4761 1507.81 81.9529 Q1507.81 94.3892 1510.97 100.628 Q1514.17 106.825 1520.49 106.825 Q1526.85 106.825 1530.01 100.628 Q1533.21 94.3892 1533.21 81.9529 Q1533.21 69.4761 1530.01 63.2782 Q1526.85 57.0398 1520.49 57.0398 M1520.49 50.5584 Q1530.66 50.5584 1536 58.6197 Q1541.39 66.6405 1541.39 81.9529 Q1541.39 97.2248 1536 105.286 Q1530.66 113.307 1520.49 113.307 Q1510.32 113.307 1504.93 105.286 Q1499.59 97.2248 1499.59 81.9529 Q1499.59 66.6405 1504.93 58.6197 Q1510.32 50.5584 1520.49 50.5584 Z" fill="#000000" fill-rule="nonzero" fill-opacity="1"></path><path clip-path="url(#clip890)" d="M1900.22 51.6521 L1932.34 51.6521 L1932.34 58.5387 L1907.71 58.5387 L1907.71 73.365 Q1909.49 72.7573 1911.28 72.4738 Q1913.06 72.1497 1914.84 72.1497 Q1924.97 72.1497 1930.88 77.6994 Q1936.8 83.2492 1936.8 92.7283 Q1936.8 102.491 1930.72 107.919 Q1924.64 113.307 1913.58 113.307 Q1909.78 113.307 1905.81 112.659 Q1901.88 112.011 1897.66 110.714 L1897.66 102.491 Q1901.31 104.476 1905.2 105.448 Q1909.09 106.42 1913.42 106.42 Q1920.43 106.42 1924.52 102.734 Q1928.61 99.0477 1928.61 92.7283 Q1928.61 86.4089 1924.52 82.7226 Q1920.43 79.0362 1913.42 79.0362 Q1910.14 79.0362 1906.86 79.7654 Q1903.62 80.4946 1900.22 82.0339 L1900.22 51.6521 Z" fill="#000000" fill-rule="nonzero" fill-opacity="1"></path><path clip-path="url(#clip890)" d="M1953 51.6521 L1985.12 51.6521 L1985.12 58.5387 L1960.49 58.5387 L1960.49 73.365 Q1962.28 72.7573 1964.06 72.4738 Q1965.84 72.1497 1967.62 72.1497 Q1977.75 72.1497 1983.67 77.6994 Q1989.58 83.2492 1989.58 92.7283 Q1989.58 102.491 1983.5 107.919 Q1977.43 113.307 1966.37 113.307 Q1962.56 113.307 1958.59 112.659 Q1954.66 112.011 1950.45 110.714 L1950.45 102.491 Q1954.09 104.476 1957.98 105.448 Q1961.87 106.42 1966.21 106.42 Q1973.21 106.42 1977.31 102.734 Q1981.4 99.0477 1981.4 92.7283 Q1981.4 86.4089 1977.31 82.7226 Q1973.21 79.0362 1966.21 79.0362 Q1962.92 79.0362 1959.64 79.7654 Q1956.4 80.4946 1953 82.0339 L1953 51.6521 Z" fill="#000000" fill-rule="nonzero" fill-opacity="1"></path><path clip-path="url(#clip890)" d="M2370.67 51.6521 L2409.55 51.6521 L2409.55 55.1359 L2387.6 112.132 L2379.05 112.132 L2399.71 58.5387 L2370.67 58.5387 L2370.67 51.6521 Z" fill="#000000" fill-rule="nonzero" fill-opacity="1"></path><path clip-path="url(#clip890)" d="M2448 58.7817 L2427.34 91.0674 L2448 91.0674 L2448 58.7817 M2445.85 51.6521 L2456.14 51.6521 L2456.14 91.0674 L2464.77 91.0674 L2464.77 97.8729 L2456.14 97.8729 L2456.14 112.132 L2448 112.132 L2448 97.8729 L2420.69 97.8729 L2420.69 89.9737 L2445.85 51.6521 Z" fill="#000000" fill-rule="nonzero" fill-opacity="1"></path><path clip-path="url(#clip890)" d="M2845.19 51.6521 L2884.07 51.6521 L2884.07 55.1359 L2862.12 112.132 L2853.57 112.132 L2874.23 58.5387 L2845.19 58.5387 L2845.19 51.6521 Z" fill="#000000" fill-rule="nonzero" fill-opacity="1"></path><path clip-path="url(#clip890)" d="M2917.53 57.0398 Q2911.21 57.0398 2908.01 63.2782 Q2904.85 69.4761 2904.85 81.9529 Q2904.85 94.3892 2908.01 100.628 Q2911.21 106.825 2917.53 106.825 Q2923.89 106.825 2927.05 100.628 Q2930.25 94.3892 2930.25 81.9529 Q2930.25 69.4761 2927.05 63.2782 Q2923.89 57.0398 2917.53 57.0398 M2917.53 50.5584 Q2927.7 50.5584 2933.05 58.6197 Q2938.44 66.6405 2938.44 81.9529 Q2938.44 97.2248 2933.05 105.286 Q2927.7 113.307 2917.53 113.307 Q2907.37 113.307 2901.98 105.286 Q2896.63 97.2248 2896.63 81.9529 Q2896.63 66.6405 2901.98 58.6197 Q2907.37 50.5584 2917.53 50.5584 Z" fill="#000000" fill-rule="nonzero" fill-opacity="1"></path><path clip-path="url(#clip890)" d="M3340.93 78.6311 Q3335.42 78.6311 3332.18 82.3985 Q3328.98 86.1658 3328.98 92.7283 Q3328.98 99.2503 3332.18 103.058 Q3335.42 106.825 3340.93 106.825 Q3346.44 106.825 3349.64 103.058 Q3352.88 99.2503 3352.88 92.7283 Q3352.88 86.1658 3349.64 82.3985 Q3346.44 78.6311 3340.93 78.6311 M3357.18 52.9889 L3357.18 60.4426 Q3354.1 58.9843 3350.94 58.2146 Q3347.82 57.4449 3344.74 57.4449 Q3336.64 57.4449 3332.34 62.9136 Q3328.09 68.3824 3327.48 79.4413 Q3329.87 75.917 3333.48 74.0536 Q3337.08 72.1497 3341.42 72.1497 Q3350.53 72.1497 3355.8 77.6994 Q3361.11 83.2087 3361.11 92.7283 Q3361.11 102.045 3355.6 107.676 Q3350.09 113.307 3340.93 113.307 Q3330.44 113.307 3324.89 105.286 Q3319.34 97.2248 3319.34 81.9529 Q3319.34 67.6127 3326.15 59.1058 Q3332.95 50.5584 3344.42 50.5584 Q3347.49 50.5584 3350.61 51.166 Q3353.77 51.7737 3357.18 52.9889 Z" fill="#000000" fill-rule="nonzero" fill-opacity="1"></path><path clip-path="url(#clip890)" d="M3399.99 79.5223 Q3405.87 80.7781 3409.15 84.748 Q3412.47 88.7179 3412.47 94.5512 Q3412.47 103.504 3406.31 108.405 Q3400.16 113.307 3388.81 113.307 Q3385.01 113.307 3380.95 112.537 Q3376.94 111.808 3372.65 110.309 L3372.65 102.41 Q3376.05 104.395 3380.1 105.408 Q3384.15 106.42 3388.57 106.42 Q3396.27 106.42 3400.28 103.382 Q3404.33 100.344 3404.33 94.5512 Q3404.33 89.204 3400.56 86.2063 Q3396.83 83.1682 3390.15 83.1682 L3383.1 83.1682 L3383.1 76.4437 L3390.47 76.4437 Q3396.51 76.4437 3399.71 74.0536 Q3402.91 71.6231 3402.91 67.0861 Q3402.91 62.4275 3399.59 59.9565 Q3396.31 57.4449 3390.15 57.4449 Q3386.79 57.4449 3382.94 58.1741 Q3379.09 58.9032 3374.47 60.4426 L3374.47 53.151 Q3379.13 51.8547 3383.18 51.2065 Q3387.27 50.5584 3390.88 50.5584 Q3400.2 50.5584 3405.62 54.8118 Q3411.05 59.0248 3411.05 66.2354 Q3411.05 71.2585 3408.18 74.7423 Q3405.3 78.1855 3399.99 79.5223 Z" fill="#000000" fill-rule="nonzero" fill-opacity="1"></path><path clip-path="url(#clip890)" d="M3769.88 105.246 L3783.25 105.246 L3783.25 59.1058 L3768.7 62.0224 L3768.7 54.5688 L3783.17 51.6521 L3791.35 51.6521 L3791.35 105.246 L3804.72 105.246 L3804.72 112.132 L3769.88 112.132 L3769.88 105.246 Z" fill="#000000" fill-rule="nonzero" fill-opacity="1"></path><path clip-path="url(#clip890)" d="M3838.74 57.0398 Q3832.42 57.0398 3829.22 63.2782 Q3826.06 69.4761 3826.06 81.9529 Q3826.06 94.3892 3829.22 100.628 Q3832.42 106.825 3838.74 106.825 Q3845.1 106.825 3848.26 100.628 Q3851.46 94.3892 3851.46 81.9529 Q3851.46 69.4761 3848.26 63.2782 Q3845.1 57.0398 3838.74 57.0398 M3838.74 50.5584 Q3848.91 50.5584 3854.26 58.6197 Q3859.65 66.6405 3859.65 81.9529 Q3859.65 97.2248 3854.26 105.286 Q3848.91 113.307 3838.74 113.307 Q3828.58 113.307 3823.19 105.286 Q3817.84 97.2248 3817.84 81.9529 Q3817.84 66.6405 3823.19 58.6197 Q3828.58 50.5584 3838.74 50.5584 Z" fill="#000000" fill-rule="nonzero" fill-opacity="1"></path><path clip-path="url(#clip890)" d="M3898.82 79.5223 Q3904.69 80.7781 3907.97 84.748 Q3911.3 88.7179 3911.3 94.5512 Q3911.3 103.504 3905.14 108.405 Q3898.98 113.307 3887.64 113.307 Q3883.83 113.307 3879.78 112.537 Q3875.77 111.808 3871.48 110.309 L3871.48 102.41 Q3874.88 104.395 3878.93 105.408 Q3882.98 106.42 3887.4 106.42 Q3895.09 106.42 3899.1 103.382 Q3903.15 100.344 3903.15 94.5512 Q3903.15 89.204 3899.39 86.2063 Q3895.66 83.1682 3888.98 83.1682 L3881.93 83.1682 L3881.93 76.4437 L3889.3 76.4437 Q3895.34 76.4437 3898.54 74.0536 Q3901.74 71.6231 3901.74 67.0861 Q3901.74 62.4275 3898.41 59.9565 Q3895.13 57.4449 3888.98 57.4449 Q3885.61 57.4449 3881.76 58.1741 Q3877.92 58.9032 3873.3 60.4426 L3873.3 53.151 Q3877.96 51.8547 3882.01 51.2065 Q3886.1 50.5584 3889.7 50.5584 Q3899.02 50.5584 3904.45 54.8118 Q3909.88 59.0248 3909.88 66.2354 Q3909.88 71.2585 3907 74.7423 Q3904.13 78.1855 3898.82 79.5223 Z" fill="#000000" fill-rule="nonzero" fill-opacity="1"></path><path clip-path="url(#clip890)" d="M4269.88 105.246 L4283.25 105.246 L4283.25 59.1058 L4268.7 62.0224 L4268.7 54.5688 L4283.17 51.6521 L4291.35 51.6521 L4291.35 105.246 L4304.72 105.246 L4304.72 112.132 L4269.88 112.132 L4269.88 105.246 Z" fill="#000000" fill-rule="nonzero" fill-opacity="1"></path><path clip-path="url(#clip890)" d="M4338.74 83.4112 Q4332.91 83.4112 4329.55 86.5304 Q4326.23 89.6496 4326.23 95.1183 Q4326.23 100.587 4329.55 103.706 Q4332.91 106.825 4338.74 106.825 Q4344.58 106.825 4347.94 103.706 Q4351.3 100.547 4351.3 95.1183 Q4351.3 89.6496 4347.94 86.5304 Q4344.62 83.4112 4338.74 83.4112 M4330.56 79.9274 Q4325.3 78.6311 4322.34 75.0258 Q4319.42 71.4205 4319.42 66.2354 Q4319.42 58.9843 4324.57 54.7713 Q4329.75 50.5584 4338.74 50.5584 Q4347.78 50.5584 4352.92 54.7713 Q4358.07 58.9843 4358.07 66.2354 Q4358.07 71.4205 4355.11 75.0258 Q4352.19 78.6311 4346.97 79.9274 Q4352.88 81.3047 4356.16 85.3151 Q4359.48 89.3255 4359.48 95.1183 Q4359.48 103.909 4354.1 108.608 Q4348.75 113.307 4338.74 113.307 Q4328.74 113.307 4323.35 108.608 Q4318 103.909 4318 95.1183 Q4318 89.3255 4321.33 85.3151 Q4324.65 81.3047 4330.56 79.9274 M4327.56 67.0051 Q4327.56 71.7041 4330.48 74.3372 Q4333.44 76.9703 4338.74 76.9703 Q4344.01 76.9703 4346.97 74.3372 Q4349.97 71.7041 4349.97 67.0051 Q4349.97 62.306 4346.97 59.6729 Q4344.01 57.0398 4338.74 57.0398 Q4333.44 57.0398 4330.48 59.6729 Q4327.56 62.306 4327.56 67.0051 Z" fill="#000000" fill-rule="nonzero" fill-opacity="1"></path><path clip-path="url(#clip890)" d="M4745.29 105.246 L4758.66 105.246 L4758.66 59.1058 L4744.12 62.0224 L4744.12 54.5688 L4758.58 51.6521 L4766.76 51.6521 L4766.76 105.246 L4780.13 105.246 L4780.13 112.132 L4745.29 112.132 L4745.29 105.246 Z" fill="#000000" fill-rule="nonzero" fill-opacity="1"></path><path clip-path="url(#clip890)" d="M4803.7 105.246 L4832.26 105.246 L4832.26 112.132 L4793.86 112.132 L4793.86 105.246 Q4798.52 100.425 4806.54 92.3232 Q4814.6 84.1809 4816.67 81.8314 Q4820.6 77.4159 4822.14 74.3777 Q4823.72 71.299 4823.72 68.3419 Q4823.72 63.5213 4820.31 60.4831 Q4816.95 57.4449 4811.52 57.4449 Q4807.67 57.4449 4803.38 58.7817 Q4799.13 60.1185 4794.27 62.8326 L4794.27 54.5688 Q4799.21 52.5838 4803.5 51.5711 Q4807.8 50.5584 4811.36 50.5584 Q4820.76 50.5584 4826.35 55.2574 Q4831.94 59.9565 4831.94 67.8152 Q4831.94 71.5421 4830.52 74.9043 Q4829.14 78.2261 4825.46 82.7631 Q4824.44 83.9378 4819.02 89.5686 Q4813.59 95.1588 4803.7 105.246 Z" fill="#000000" fill-rule="nonzero" fill-opacity="1"></path><path clip-path="url(#clip890)" d="M5191.6 105.246 L5204.96 105.246 L5204.96 59.1058 L5190.42 62.0224 L5190.42 54.5688 L5204.88 51.6521 L5213.06 51.6521 L5213.06 105.246 L5226.43 105.246 L5226.43 112.132 L5191.6 112.132 L5191.6 105.246 Z" fill="#000000" fill-rule="nonzero" fill-opacity="1"></path><path clip-path="url(#clip890)" d="M5250.01 105.246 L5278.57 105.246 L5278.57 112.132 L5240.17 112.132 L5240.17 105.246 Q5244.82 100.425 5252.84 92.3232 Q5260.91 84.1809 5262.97 81.8314 Q5266.9 77.4159 5268.44 74.3777 Q5270.02 71.299 5270.02 68.3419 Q5270.02 63.5213 5266.62 60.4831 Q5263.26 57.4449 5257.83 57.4449 Q5253.98 57.4449 5249.69 58.7817 Q5245.43 60.1185 5240.57 62.8326 L5240.57 54.5688 Q5245.51 52.5838 5249.81 51.5711 Q5254.1 50.5584 5257.67 50.5584 Q5267.06 50.5584 5272.65 55.2574 Q5278.24 59.9565 5278.24 67.8152 Q5278.24 71.5421 5276.83 74.9043 Q5275.45 78.2261 5271.76 82.7631 Q5270.75 83.9378 5265.32 89.5686 Q5259.89 95.1588 5250.01 105.246 Z" fill="#000000" fill-rule="nonzero" fill-opacity="1"></path><path clip-path="url(#clip890)" d="M5313.24 57.0398 Q5306.92 57.0398 5303.72 63.2782 Q5300.56 69.4761 5300.56 81.9529 Q5300.56 94.3892 5303.72 100.628 Q5306.92 106.825 5313.24 106.825 Q5319.6 106.825 5322.76 100.628 Q5325.96 94.3892 5325.96 81.9529 Q5325.96 69.4761 5322.76 63.2782 Q5319.6 57.0398 5313.24 57.0398 M5313.24 50.5584 Q5323.41 50.5584 5328.76 58.6197 Q5334.15 66.6405 5334.15 81.9529 Q5334.15 97.2248 5328.76 105.286 Q5323.41 113.307 5313.24 113.307 Q5303.08 113.307 5297.69 105.286 Q5292.34 97.2248 5292.34 81.9529 Q5292.34 66.6405 5297.69 58.6197 Q5303.08 50.5584 5313.24 50.5584 Z" fill="#000000" fill-rule="nonzero" fill-opacity="1"></path><path clip-path="url(#clip890)" d="M5692.87 105.246 L5706.24 105.246 L5706.24 59.1058 L5691.7 62.0224 L5691.7 54.5688 L5706.16 51.6521 L5714.34 51.6521 L5714.34 105.246 L5727.71 105.246 L5727.71 112.132 L5692.87 112.132 L5692.87 105.246 Z" fill="#000000" fill-rule="nonzero" fill-opacity="1"></path><path clip-path="url(#clip890)" d="M5742.17 51.6521 L5781.06 51.6521 L5781.06 55.1359 L5759.1 112.132 L5750.56 112.132 L5771.22 58.5387 L5742.17 58.5387 L5742.17 51.6521 Z" fill="#000000" fill-rule="nonzero" fill-opacity="1"></path><path clip-path="url(#clip890)" d="M6140.86 105.246 L6154.23 105.246 L6154.23 59.1058 L6139.68 62.0224 L6139.68 54.5688 L6154.14 51.6521 L6162.33 51.6521 L6162.33 105.246 L6175.7 105.246 L6175.7 112.132 L6140.86 112.132 L6140.86 105.246 Z" fill="#000000" fill-rule="nonzero" fill-opacity="1"></path><path clip-path="url(#clip890)" d="M6209.72 57.0398 Q6203.4 57.0398 6200.2 63.2782 Q6197.04 69.4761 6197.04 81.9529 Q6197.04 94.3892 6200.2 100.628 Q6203.4 106.825 6209.72 106.825 Q6216.08 106.825 6219.24 100.628 Q6222.44 94.3892 6222.44 81.9529 Q6222.44 69.4761 6219.24 63.2782 Q6216.08 57.0398 6209.72 57.0398 M6209.72 50.5584 Q6219.89 50.5584 6225.24 58.6197 Q6230.63 66.6405 6230.63 81.9529 Q6230.63 97.2248 6225.24 105.286 Q6219.89 113.307 6209.72 113.307 Q6199.56 113.307 6194.17 105.286 Q6188.82 97.2248 6188.82 81.9529 Q6188.82 66.6405 6194.17 58.6197 Q6199.56 50.5584 6209.72 50.5584 Z" fill="#000000" fill-rule="nonzero" fill-opacity="1"></path><path clip-path="url(#clip890)" d="M6246.42 105.246 L6259.79 105.246 L6259.79 59.1058 L6245.25 62.0224 L6245.25 54.5688 L6259.71 51.6521 L6267.89 51.6521 L6267.89 105.246 L6281.26 105.246 L6281.26 112.132 L6246.42 112.132 L6246.42 105.246 Z" fill="#000000" fill-rule="nonzero" fill-opacity="1"></path><path clip-path="url(#clip890)" d="M6640.43 105.246 L6653.8 105.246 L6653.8 59.1058 L6639.26 62.0224 L6639.26 54.5688 L6653.72 51.6521 L6661.9 51.6521 L6661.9 105.246 L6675.27 105.246 L6675.27 112.132 L6640.43 112.132 L6640.43 105.246 Z" fill="#000000" fill-rule="nonzero" fill-opacity="1"></path><path clip-path="url(#clip890)" d="M6692.04 110.876 L6692.04 103.423 Q6695.12 104.881 6698.28 105.651 Q6701.44 106.42 6704.48 106.42 Q6712.58 106.42 6716.83 100.992 Q6721.13 95.5234 6721.73 84.4239 Q6719.38 87.9077 6715.78 89.7711 Q6712.17 91.6346 6707.8 91.6346 Q6698.72 91.6346 6693.42 86.1658 Q6688.15 80.6566 6688.15 71.137 Q6688.15 61.8199 6693.66 56.1891 Q6699.17 50.5584 6708.33 50.5584 Q6718.82 50.5584 6724.33 58.6197 Q6729.88 66.6405 6729.88 81.9529 Q6729.88 96.2526 6723.07 104.8 Q6716.31 113.307 6704.84 113.307 Q6701.76 113.307 6698.6 112.699 Q6695.44 112.092 6692.04 110.876 M6708.33 85.2341 Q6713.83 85.2341 6717.03 81.4668 Q6720.28 77.6994 6720.28 71.137 Q6720.28 64.615 6717.03 60.8477 Q6713.83 57.0398 6708.33 57.0398 Q6702.82 57.0398 6699.58 60.8477 Q6696.38 64.615 6696.38 71.137 Q6696.38 77.6994 6699.58 81.4668 Q6702.82 85.2341 6708.33 85.2341 Z" fill="#000000" fill-rule="nonzero" fill-opacity="1"></path><path clip-path="url(#clip890)" d="M7087.97 105.246 L7101.34 105.246 L7101.34 59.1058 L7086.8 62.0224 L7086.8 54.5688 L7101.26 51.6521 L7109.44 51.6521 L7109.44 105.246 L7122.81 105.246 L7122.81 112.132 L7087.97 112.132 L7087.97 105.246 Z" fill="#000000" fill-rule="nonzero" fill-opacity="1"></path><path clip-path="url(#clip890)" d="M7156.84 57.0398 Q7150.52 57.0398 7147.32 63.2782 Q7144.16 69.4761 7144.16 81.9529 Q7144.16 94.3892 7147.32 100.628 Q7150.52 106.825 7156.84 106.825 Q7163.2 106.825 7166.36 100.628 Q7169.56 94.3892 7169.56 81.9529 Q7169.56 69.4761 7166.36 63.2782 Q7163.2 57.0398 7156.84 57.0398 M7156.84 50.5584 Q7167.01 50.5584 7172.35 58.6197 Q7177.74 66.6405 7177.74 81.9529 Q7177.74 97.2248 7172.35 105.286 Q7167.01 113.307 7156.84 113.307 Q7146.67 113.307 7141.28 105.286 Q7135.94 97.2248 7135.94 81.9529 Q7135.94 66.6405 7141.28 58.6197 Q7146.67 50.5584 7156.84 50.5584 Z" fill="#000000" fill-rule="nonzero" fill-opacity="1"></path><path clip-path="url(#clip890)" d="M7209.62 57.0398 Q7203.3 57.0398 7200.1 63.2782 Q7196.94 69.4761 7196.94 81.9529 Q7196.94 94.3892 7200.1 100.628 Q7203.3 106.825 7209.62 106.825 Q7215.98 106.825 7219.14 100.628 Q7222.34 94.3892 7222.34 81.9529 Q7222.34 69.4761 7219.14 63.2782 Q7215.98 57.0398 7209.62 57.0398 M7209.62 50.5584 Q7219.79 50.5584 7225.14 58.6197 Q7230.52 66.6405 7230.52 81.9529 Q7230.52 97.2248 7225.14 105.286 Q7219.79 113.307 7209.62 113.307 Q7199.45 113.307 7194.07 105.286 Q7188.72 97.2248 7188.72 81.9529 Q7188.72 66.6405 7194.07 58.6197 Q7199.45 50.5584 7209.62 50.5584 Z" fill="#000000" fill-rule="nonzero" fill-opacity="1"></path><path clip-path="url(#clip890)" d="M6250.29 234.601 L7379.91 234.601 L7379.91 130.921 L6250.29 130.921  Z" fill="#000000" fill-rule="evenodd" fill-opacity="0"></path>
<polyline clip-path="url(#clip890)" style="stroke:#000000; stroke-linecap:round; stroke-linejoin:round; stroke-width:4; stroke-opacity:0; fill:none" points="6250.29,234.601 7379.91,234.601 7379.91,130.921 6250.29,130.921 6250.29,234.601 "></polyline>
<path clip-path="url(#clip890)" d="M6334.57 203.497 L6840.28 203.497 L6840.28 162.025 L6334.57 162.025 L6334.57 203.497  Z" fill="#add8e6" fill-rule="evenodd" fill-opacity="1"></path>
<polyline clip-path="url(#clip890)" style="stroke:#add8e6; stroke-linecap:round; stroke-linejoin:round; stroke-width:4; stroke-opacity:1; fill:none" points="6334.57,203.497 6840.28,203.497 6840.28,162.025 6334.57,162.025 6334.57,203.497 "></polyline>
<path clip-path="url(#clip890)" d="M6924.56 165.481 L6944.42 165.481 L6944.42 169.416 L6929.24 169.416 L6929.24 179.601 L6942.94 179.601 L6942.94 183.536 L6929.24 183.536 L6929.24 200.041 L6924.56 200.041 L6924.56 165.481 Z" fill="#000000" fill-rule="nonzero" fill-opacity="1"></path><path clip-path="url(#clip890)" d="M6960 177.101 Q6956.57 177.101 6954.58 179.786 Q6952.59 182.448 6952.59 187.101 Q6952.59 191.754 6954.56 194.439 Q6956.55 197.101 6960 197.101 Q6963.4 197.101 6965.39 194.416 Q6967.38 191.731 6967.38 187.101 Q6967.38 182.495 6965.39 179.81 Q6963.4 177.101 6960 177.101 M6960 173.49 Q6965.55 173.49 6968.73 177.101 Q6971.9 180.712 6971.9 187.101 Q6971.9 193.467 6968.73 197.101 Q6965.55 200.712 6960 200.712 Q6954.42 200.712 6951.25 197.101 Q6948.1 193.467 6948.1 187.101 Q6948.1 180.712 6951.25 177.101 Q6954.42 173.49 6960 173.49 Z" fill="#000000" fill-rule="nonzero" fill-opacity="1"></path><path clip-path="url(#clip890)" d="M6978.52 189.809 L6978.52 174.115 L6982.78 174.115 L6982.78 189.647 Q6982.78 193.328 6984.21 195.18 Q6985.65 197.009 6988.52 197.009 Q6991.97 197.009 6993.96 194.809 Q6995.97 192.61 6995.97 188.814 L6995.97 174.115 L7000.23 174.115 L7000.23 200.041 L6995.97 200.041 L6995.97 196.059 Q6994.42 198.421 6992.36 199.578 Q6990.32 200.712 6987.61 200.712 Q6983.15 200.712 6980.83 197.934 Q6978.52 195.157 6978.52 189.809 M6989.23 173.49 L6989.23 173.49 Z" fill="#000000" fill-rule="nonzero" fill-opacity="1"></path><path clip-path="url(#clip890)" d="M7030.55 184.393 L7030.55 200.041 L7026.29 200.041 L7026.29 184.532 Q7026.29 180.851 7024.86 179.023 Q7023.42 177.194 7020.55 177.194 Q7017.11 177.194 7015.11 179.393 Q7013.12 181.592 7013.12 185.388 L7013.12 200.041 L7008.84 200.041 L7008.84 174.115 L7013.12 174.115 L7013.12 178.143 Q7014.65 175.805 7016.71 174.648 Q7018.79 173.49 7021.5 173.49 Q7025.97 173.49 7028.26 176.268 Q7030.55 179.023 7030.55 184.393 Z" fill="#000000" fill-rule="nonzero" fill-opacity="1"></path><path clip-path="url(#clip890)" d="M7056.11 178.05 L7056.11 164.023 L7060.37 164.023 L7060.37 200.041 L7056.11 200.041 L7056.11 196.152 Q7054.77 198.467 7052.71 199.601 Q7050.67 200.712 7047.8 200.712 Q7043.1 200.712 7040.14 196.962 Q7037.2 193.212 7037.2 187.101 Q7037.2 180.99 7040.14 177.24 Q7043.1 173.49 7047.8 173.49 Q7050.67 173.49 7052.71 174.624 Q7054.77 175.735 7056.11 178.05 M7041.6 187.101 Q7041.6 191.8 7043.52 194.485 Q7045.46 197.147 7048.84 197.147 Q7052.22 197.147 7054.17 194.485 Q7056.11 191.8 7056.11 187.101 Q7056.11 182.402 7054.17 179.74 Q7052.22 177.055 7048.84 177.055 Q7045.46 177.055 7043.52 179.74 Q7041.6 182.402 7041.6 187.101 Z" fill="#000000" fill-rule="nonzero" fill-opacity="1"></path><path clip-path="url(#clip890)" d="M7084.21 174.115 L7088.47 174.115 L7088.47 200.041 L7084.21 200.041 L7084.21 174.115 M7084.21 164.023 L7088.47 164.023 L7088.47 169.416 L7084.21 169.416 L7084.21 164.023 Z" fill="#000000" fill-rule="nonzero" fill-opacity="1"></path><path clip-path="url(#clip890)" d="M7118.93 184.393 L7118.93 200.041 L7114.67 200.041 L7114.67 184.532 Q7114.67 180.851 7113.24 179.023 Q7111.8 177.194 7108.93 177.194 Q7105.48 177.194 7103.49 179.393 Q7101.5 181.592 7101.5 185.388 L7101.5 200.041 L7097.22 200.041 L7097.22 174.115 L7101.5 174.115 L7101.5 178.143 Q7103.03 175.805 7105.09 174.648 Q7107.17 173.49 7109.88 173.49 Q7114.35 173.49 7116.64 176.268 Q7118.93 179.023 7118.93 184.393 Z" fill="#000000" fill-rule="nonzero" fill-opacity="1"></path><path clip-path="url(#clip890)" d="M7162.27 179.185 L7155.53 179.185 L7153.59 186.916 L7160.37 186.916 L7162.27 179.185 M7158.79 166.013 L7156.39 175.62 L7163.15 175.62 L7165.58 166.013 L7169.28 166.013 L7166.9 175.62 L7174.12 175.62 L7174.12 179.185 L7165.99 179.185 L7164.09 186.916 L7171.46 186.916 L7171.46 190.458 L7163.19 190.458 L7160.78 200.041 L7157.08 200.041 L7159.47 190.458 L7152.68 190.458 L7150.3 200.041 L7146.57 200.041 L7148.98 190.458 L7141.69 190.458 L7141.69 186.916 L7149.84 186.916 L7151.78 179.185 L7144.33 179.185 L7144.33 175.62 L7152.68 175.62 L7155.04 166.013 L7158.79 166.013 Z" fill="#000000" fill-rule="nonzero" fill-opacity="1"></path><path clip-path="url(#clip890)" d="M7201.5 166.754 L7201.5 174.115 L7210.28 174.115 L7210.28 177.425 L7201.5 177.425 L7201.5 191.499 Q7201.5 194.671 7202.36 195.573 Q7203.24 196.476 7205.9 196.476 L7210.28 196.476 L7210.28 200.041 L7205.9 200.041 Q7200.97 200.041 7199.09 198.212 Q7197.22 196.36 7197.22 191.499 L7197.22 177.425 L7194.09 177.425 L7194.09 174.115 L7197.22 174.115 L7197.22 166.754 L7201.5 166.754 Z" fill="#000000" fill-rule="nonzero" fill-opacity="1"></path><path clip-path="url(#clip890)" d="M7230.9 178.097 Q7230.18 177.68 7229.33 177.495 Q7228.49 177.286 7227.47 177.286 Q7223.86 177.286 7221.92 179.648 Q7220 181.985 7220 186.384 L7220 200.041 L7215.72 200.041 L7215.72 174.115 L7220 174.115 L7220 178.143 Q7221.34 175.782 7223.49 174.648 Q7225.65 173.49 7228.72 173.49 Q7229.16 173.49 7229.7 173.56 Q7230.23 173.606 7230.88 173.722 L7230.9 178.097 Z" fill="#000000" fill-rule="nonzero" fill-opacity="1"></path><path clip-path="url(#clip890)" d="M7235.37 174.115 L7239.63 174.115 L7239.63 200.041 L7235.37 200.041 L7235.37 174.115 M7235.37 164.023 L7239.63 164.023 L7239.63 169.416 L7235.37 169.416 L7235.37 164.023 Z" fill="#000000" fill-rule="nonzero" fill-opacity="1"></path><path clip-path="url(#clip890)" d="M7270.71 186.013 L7270.71 188.097 L7251.13 188.097 Q7251.41 192.495 7253.77 194.809 Q7256.15 197.101 7260.39 197.101 Q7262.84 197.101 7265.14 196.499 Q7267.45 195.897 7269.72 194.694 L7269.72 198.721 Q7267.43 199.694 7265.02 200.203 Q7262.61 200.712 7260.14 200.712 Q7253.93 200.712 7250.3 197.101 Q7246.69 193.49 7246.69 187.333 Q7246.69 180.967 7250.11 177.24 Q7253.56 173.49 7259.4 173.49 Q7264.63 173.49 7267.66 176.87 Q7270.71 180.226 7270.71 186.013 M7266.46 184.763 Q7266.41 181.268 7264.49 179.185 Q7262.59 177.101 7259.44 177.101 Q7255.88 177.101 7253.72 179.115 Q7251.59 181.129 7251.27 184.786 L7266.46 184.763 Z" fill="#000000" fill-rule="nonzero" fill-opacity="1"></path><path clip-path="url(#clip890)" d="M7294.23 174.879 L7294.23 178.907 Q7292.43 177.981 7290.48 177.518 Q7288.54 177.055 7286.46 177.055 Q7283.28 177.055 7281.69 178.027 Q7280.11 178.999 7280.11 180.944 Q7280.11 182.425 7281.25 183.282 Q7282.38 184.115 7285.81 184.879 L7287.27 185.203 Q7291.8 186.175 7293.7 187.958 Q7295.62 189.717 7295.62 192.888 Q7295.62 196.499 7292.75 198.606 Q7289.9 200.712 7284.9 200.712 Q7282.82 200.712 7280.55 200.296 Q7278.31 199.902 7275.81 199.092 L7275.81 194.694 Q7278.17 195.921 7280.46 196.546 Q7282.75 197.147 7285 197.147 Q7288.01 197.147 7289.63 196.129 Q7291.25 195.087 7291.25 193.212 Q7291.25 191.476 7290.07 190.55 Q7288.91 189.624 7284.95 188.768 L7283.47 188.421 Q7279.51 187.587 7277.75 185.874 Q7275.99 184.138 7275.99 181.129 Q7275.99 177.472 7278.59 175.481 Q7281.18 173.49 7285.95 173.49 Q7288.31 173.49 7290.39 173.837 Q7292.47 174.185 7294.23 174.879 Z" fill="#000000" fill-rule="nonzero" fill-opacity="1"></path></svg>