<svg xmlns="http://www.w3.org/2000/svg" xmlns:xlink="http://www.w3.org/1999/xlink" version="1.2" width="127.5mm" height="93.75mm" viewBox="0 0 127.5 93.75" stroke="none" fill="#000000" stroke-width="0.3" font-size="3.88">
<rect width="100%" height="100%" fill="#dddddd"/>
<defs>
  <marker id="arrow" markerWidth="15" markerHeight="7" refX="5" refY="3.5" orient="auto" markerUnits="strokeWidth">
    <path d="M0,0 L15,3.5 L0,7 z" stroke="context-stroke" fill="context-stroke"></path>
  </marker>
</defs>
<g stroke-width="0" fill="#000000" id="img-7f7eb54d-1">
  <g transform="translate(108.12,62.5)">
    <circle cx="0" cy="0" r="0.83" class="primitive"></circle>
  </g>
</g>
<g stroke-width="0" fill="#000000" id="img-7f7eb54d-2">
  <g transform="translate(108.12,43.75)">
    <circle cx="0" cy="0" r="0.83" class="primitive"></circle>
  </g>
</g>
<g stroke-width="0.35" stroke="#000000" id="img-7f7eb54d-3">
  <g transform="translate(108.12,25)">
    <path d="M0,-3.5 L0,3.5  z" class="primitive"></path>
  </g>
</g>
<g stroke-width="0.35" stroke="#000000" id="img-7f7eb54d-4">
  <g transform="translate(108.12,25)">
    <path d="M-3.5,0 L3.5,0  z" class="primitive"></path>
  </g>
</g>
<g fill="#000000" fill-opacity="0.000" stroke-width="0.35" stroke="#000000" id="img-7f7eb54d-5">
  <g transform="translate(108.12,25)">
    <circle cx="0" cy="0" r="3.5" class="primitive"></circle>
  </g>
</g>
<g stroke-width="0" fill="#000000" id="img-7f7eb54d-6">
  <g transform="translate(86.88,81.25)">
    <circle cx="0" cy="0" r="0.83" class="primitive"></circle>
  </g>
</g>
<g stroke-width="0.35" stroke="#000000" fill="#FFFFFF" id="img-7f7eb54d-7">
  <g transform="translate(86.88,6.25)">
    <path d="M-8.31,-5 L8.31,-5 8.31,5 -8.31,5  z" class="primitive"></path>
  </g>
</g>
<g stroke-width="0" fill="#000000" id="img-7f7eb54d-8">
  <g transform="translate(65.63,62.5)">
    <circle cx="0" cy="0" r="0.83" class="primitive"></circle>
  </g>
</g>
<g stroke-width="0.35" stroke="#000000" fill="#FFFFFF" id="img-7f7eb54d-9">
  <g transform="translate(65.63,6.25)">
    <path d="M-8.31,-5 L8.31,-5 8.31,5 -8.31,5  z" class="primitive"></path>
  </g>
</g>
<g stroke-width="0" fill="#000000" id="img-7f7eb54d-10">
  <g transform="translate(44.38,43.75)">
    <circle cx="0" cy="0" r="0.83" class="primitive"></circle>
  </g>
</g>
<g stroke-width="0.35" stroke="#000000" fill="#FFFFFF" id="img-7f7eb54d-11">
  <g transform="translate(44.38,6.25)">
    <path d="M-6.1,-5 L6.1,-5 6.1,5 -6.1,5  z" class="primitive"></path>
  </g>
</g>
<g stroke-width="0.35" stroke="#000000" fill="#FFFFFF" id="img-7f7eb54d-12">
  <g transform="translate(23.12,81.25)">
    <path d="M-5,-5 L5,-5 5,5 -5,5  z" class="primitive"></path>
  </g>
</g>
<g stroke-width="0.35" stroke="#000000" fill="#FFFFFF" id="img-7f7eb54d-13">
  <g transform="translate(23.12,62.5)">
    <path d="M-5,-5 L5,-5 5,5 -5,5  z" class="primitive"></path>
  </g>
</g>
<g stroke-width="0.35" stroke="#000000" fill="#FFFFFF" id="img-7f7eb54d-14">
  <g transform="translate(23.12,43.75)">
    <path d="M-5,-5 L5,-5 5,5 -5,5  z" class="primitive"></path>
  </g>
</g>
<g stroke-width="0.35" stroke="#000000" id="img-7f7eb54d-15">
  <g transform="translate(108.13,81.25)">
    <path fill="none" d="M10.62,0 L-10.62,0 " class="primitive"></path>
  </g>
</g>
<g stroke-width="0.35" stroke="#000000" id="img-7f7eb54d-16">
  <g transform="translate(118.75,62.5)">
    <path fill="none" d="M0,0 L0,0 " class="primitive"></path>
  </g>
</g>
<g stroke-width="0.35" stroke="#000000" id="img-7f7eb54d-17">
  <g transform="translate(118.75,43.75)">
    <path fill="none" d="M0,0 L0,0 " class="primitive"></path>
  </g>
</g>
<g stroke-width="0.35" stroke="#000000" id="img-7f7eb54d-18">
  <g transform="translate(118.75,25)">
    <path fill="none" d="M0,0 L0,0 " class="primitive"></path>
  </g>
</g>
<g stroke-width="0.35" stroke="#000000" id="img-7f7eb54d-19">
  <g transform="translate(108.13,6.25)">
    <path fill="none" d="M10.62,0 L-10.62,0 " class="primitive"></path>
  </g>
</g>
<g stroke-width="0.35" stroke="#000000" id="img-7f7eb54d-20">
  <g transform="translate(113.85,62.5)">
    <path fill="none" d="M-4.9,0 L4.9,0 " class="primitive"></path>
  </g>
</g>
<g stroke-width="0.35" stroke="#000000" id="img-7f7eb54d-21">
  <g transform="translate(102.4,62.5)">
    <path fill="none" d="M-4.9,0 L4.9,0 " class="primitive"></path>
  </g>
</g>
<g stroke-width="0.35" stroke="#000000" id="img-7f7eb54d-22">
  <g transform="translate(113.85,43.75)">
    <path fill="none" d="M-4.9,0 L4.9,0 " class="primitive"></path>
  </g>
</g>
<g stroke-width="0.35" stroke="#000000" id="img-7f7eb54d-23">
  <g transform="translate(102.4,43.75)">
    <path fill="none" d="M-4.9,0 L4.9,0 " class="primitive"></path>
  </g>
</g>
<g stroke-width="0.35" stroke="#000000" id="img-7f7eb54d-24">
  <g transform="translate(115.19,25)">
    <path fill="none" d="M-3.56,0 L3.56,0 " class="primitive"></path>
  </g>
</g>
<g stroke-width="0.35" stroke="#000000" id="img-7f7eb54d-25">
  <g transform="translate(101.06,25)">
    <path fill="none" d="M-3.56,0 L3.56,0 " class="primitive"></path>
  </g>
</g>
<g stroke-width="0.35" stroke="#000000" id="img-7f7eb54d-26">
  <g transform="translate(108.12,53.12)">
    <path fill="none" d="M0,8.54 L0,-8.54 " class="primitive"></path>
  </g>
</g>
<g stroke-width="0.35" stroke="#000000" id="img-7f7eb54d-27">
  <g transform="translate(108.12,35.71)">
    <path fill="none" d="M0,7.21 L0,-7.21 " class="primitive"></path>
  </g>
</g>
<g stroke-width="0.35" stroke="#000000" id="img-7f7eb54d-28">
  <g transform="translate(86.88,62.5)">
    <path fill="none" d="M-10.62,0 L10.62,0 " class="primitive"></path>
  </g>
</g>
<g stroke-width="0.35" stroke="#000000" id="img-7f7eb54d-29">
  <g transform="translate(86.88,43.75)">
    <path fill="none" d="M-10.62,0 L10.62,0 " class="primitive"></path>
  </g>
</g>
<g stroke-width="0.35" stroke="#000000" id="img-7f7eb54d-30">
  <g transform="translate(86.88,25)">
    <path fill="none" d="M-10.62,0 L10.62,0 " class="primitive"></path>
  </g>
</g>
<g stroke-width="0.35" stroke="#000000" id="img-7f7eb54d-31">
  <g transform="translate(92.6,81.25)">
    <path fill="none" d="M-4.9,0 L4.9,0 " class="primitive"></path>
  </g>
</g>
<g stroke-width="0.35" stroke="#000000" id="img-7f7eb54d-32">
  <g transform="translate(59.9,81.25)">
    <path fill="none" d="M-26.15,0 L26.15,0 " class="primitive"></path>
  </g>
</g>
<g stroke-width="0.35" stroke="#000000" id="img-7f7eb54d-33">
  <g transform="translate(96.34,6.25)">
    <path fill="none" d="M-1.16,0 L1.16,0 " class="primitive"></path>
  </g>
</g>
<g stroke-width="0.35" stroke="#000000" id="img-7f7eb54d-34">
  <g transform="translate(77.41,6.25)">
    <path fill="none" d="M-1.16,0 L1.16,0 " class="primitive"></path>
  </g>
</g>
<g stroke-width="0.35" stroke="#000000" id="img-7f7eb54d-35">
  <g transform="translate(86.88,45.83)">
    <path fill="none" d="M0,34.58 L0,-34.58 " class="primitive"></path>
  </g>
</g>
<g stroke-width="0.35" stroke="#000000" id="img-7f7eb54d-36">
  <g transform="translate(65.63,43.75)">
    <path fill="none" d="M-10.63,0 L10.62,0 " class="primitive"></path>
  </g>
</g>
<g stroke-width="0.35" stroke="#000000" id="img-7f7eb54d-37">
  <g transform="translate(65.63,25)">
    <path fill="none" d="M-10.63,0 L10.62,0 " class="primitive"></path>
  </g>
</g>
<g stroke-width="0.35" stroke="#000000" id="img-7f7eb54d-38">
  <g transform="translate(71.35,62.5)">
    <path fill="none" d="M-4.9,0 L4.9,0 " class="primitive"></path>
  </g>
</g>
<g stroke-width="0.35" stroke="#000000" id="img-7f7eb54d-39">
  <g transform="translate(49.27,62.5)">
    <path fill="none" d="M-15.52,0 L15.52,0 " class="primitive"></path>
  </g>
</g>
<g stroke-width="0.35" stroke="#000000" id="img-7f7eb54d-40">
  <g transform="translate(75.09,6.25)">
    <path fill="none" d="M-1.16,0 L1.16,0 " class="primitive"></path>
  </g>
</g>
<g stroke-width="0.35" stroke="#000000" id="img-7f7eb54d-41">
  <g transform="translate(56.16,6.25)">
    <path fill="none" d="M-1.16,0 L1.16,0 " class="primitive"></path>
  </g>
</g>
<g stroke-width="0.35" stroke="#000000" id="img-7f7eb54d-42">
  <g transform="translate(65.63,36.46)">
    <path fill="none" d="M0,25.21 L0,-25.21 " class="primitive"></path>
  </g>
</g>
<g stroke-width="0.35" stroke="#000000" id="img-7f7eb54d-43">
  <g transform="translate(33.75,25)">
    <path fill="none" d="M-21.25,0 L21.25,0 " class="primitive"></path>
  </g>
</g>
<g stroke-width="0.35" stroke="#000000" id="img-7f7eb54d-44">
  <g transform="translate(50.1,43.75)">
    <path fill="none" d="M-4.9,0 L4.9,0 " class="primitive"></path>
  </g>
</g>
<g stroke-width="0.35" stroke="#000000" id="img-7f7eb54d-45">
  <g transform="translate(38.65,43.75)">
    <path fill="none" d="M-4.9,0 L4.9,0 " class="primitive"></path>
  </g>
</g>
<g stroke-width="0.35" stroke="#000000" id="img-7f7eb54d-46">
  <g transform="translate(52.74,6.25)">
    <path fill="none" d="M-2.26,0 L2.26,0 " class="primitive"></path>
  </g>
</g>
<g stroke-width="0.35" stroke="#000000" id="img-7f7eb54d-47">
  <g transform="translate(25.39,6.25)">
    <path fill="none" d="M-12.89,0 L12.89,0 " class="primitive"></path>
  </g>
</g>
<g stroke-width="0.35" stroke="#000000" id="img-7f7eb54d-48">
  <g transform="translate(44.38,27.08)">
    <path fill="none" d="M0,15.83 L0,-15.83 " class="primitive"></path>
  </g>
</g>
<g stroke-width="0.35" stroke="#000000" id="img-7f7eb54d-49">
  <g transform="translate(30.94,81.25)">
    <path fill="none" d="M-2.81,0 L2.81,0 " class="primitive"></path>
  </g>
</g>
<g stroke-width="0.35" stroke="#000000" id="img-7f7eb54d-50">
  <g transform="translate(15.31,81.25)">
    <path fill="none" d="M-2.81,0 L2.81,0 " class="primitive"></path>
  </g>
</g>
<g stroke-width="0.35" stroke="#000000" id="img-7f7eb54d-51">
  <g transform="translate(30.94,62.5)">
    <path fill="none" d="M-2.81,0 L2.81,0 " class="primitive"></path>
  </g>
</g>
<g stroke-width="0.35" stroke="#000000" id="img-7f7eb54d-52">
  <g transform="translate(15.31,62.5)">
    <path fill="none" d="M-2.81,0 L2.81,0 " class="primitive"></path>
  </g>
</g>
<g stroke-width="0.35" stroke="#000000" id="img-7f7eb54d-53">
  <g transform="translate(30.94,43.75)">
    <path fill="none" d="M-2.81,0 L2.81,0 " class="primitive"></path>
  </g>
</g>
<g stroke-width="0.35" stroke="#000000" id="img-7f7eb54d-54">
  <g transform="translate(15.31,43.75)">
    <path fill="none" d="M-2.81,0 L2.81,0 " class="primitive"></path>
  </g>
</g>
<g font-family="JuliaMono" fill="#000000" font-size="5.64" id="img-7f7eb54d-55">
  <g transform="translate(108.12,62.5)">
    <g class="primitive">
      <text text-anchor="middle" dy="0.35em"></text>
    </g>
  </g>
</g>
<g font-family="JuliaMono" fill="#000000" font-size="5.64" id="img-7f7eb54d-56">
  <g transform="translate(108.12,43.75)">
    <g class="primitive">
      <text text-anchor="middle" dy="0.35em"></text>
    </g>
  </g>
</g>
<g font-family="JuliaMono" fill="#000000" font-size="5.64" id="img-7f7eb54d-57">
  <g transform="translate(108.12,25)">
    <g class="primitive">
      <text text-anchor="middle" dy="0.35em"></text>
    </g>
  </g>
</g>
<g font-family="JuliaMono" fill="#000000" font-size="5.64" id="img-7f7eb54d-58">
  <g transform="translate(86.88,81.25)">
    <g class="primitive">
      <text text-anchor="middle" dy="0.35em"></text>
    </g>
  </g>
</g>
<g font-family="JuliaMono" fill="#000000" font-size="3.53" id="img-7f7eb54d-59">
  <g transform="translate(86.88,6.25)">
    <g class="primitive">
      <text text-anchor="middle" dy="0.35em">Ry(π/4)</text>
    </g>
  </g>
</g>
<g font-family="JuliaMono" fill="#000000" font-size="5.64" id="img-7f7eb54d-60">
  <g transform="translate(65.63,62.5)">
    <g class="primitive">
      <text text-anchor="middle" dy="0.35em"></text>
    </g>
  </g>
</g>
<g font-family="JuliaMono" fill="#000000" font-size="3.53" id="img-7f7eb54d-61">
  <g transform="translate(65.63,6.25)">
    <g class="primitive">
      <text text-anchor="middle" dy="0.35em">Ry(π/2)</text>
    </g>
  </g>
</g>
<g font-family="JuliaMono" fill="#000000" font-size="5.64" id="img-7f7eb54d-62">
  <g transform="translate(44.38,43.75)">
    <g class="primitive">
      <text text-anchor="middle" dy="0.35em"></text>
    </g>
  </g>
</g>
<g font-family="JuliaMono" fill="#000000" font-size="3.53" id="img-7f7eb54d-63">
  <g transform="translate(44.38,6.25)">
    <g class="primitive">
      <text text-anchor="middle" dy="0.35em">Ry(π)</text>
    </g>
  </g>
</g>
<g font-family="JuliaMono" fill="#000000" font-size="5.64" id="img-7f7eb54d-64">
  <g transform="translate(23.13,81.25)">
    <g class="primitive">
      <text text-anchor="middle" dy="0.35em">H</text>
    </g>
  </g>
</g>
<g font-family="JuliaMono" fill="#000000" font-size="5.64" id="img-7f7eb54d-65">
  <g transform="translate(23.13,62.5)">
    <g class="primitive">
      <text text-anchor="middle" dy="0.35em">H</text>
    </g>
  </g>
</g>
<g font-family="JuliaMono" fill="#000000" font-size="5.64" id="img-7f7eb54d-66">
  <g transform="translate(23.13,43.75)">
    <g class="primitive">
      <text text-anchor="middle" dy="0.35em">H</text>
    </g>
  </g>
</g>
</svg>