<svg xmlns="http://www.w3.org/2000/svg" xmlns:xlink="http://www.w3.org/1999/xlink" version="1.2" width="127.5mm" height="75mm" viewBox="0 0 127.5 75" stroke="none" fill="#000000" stroke-width="0.3" font-size="3.88">
<rect width="100%" height="100%" fill="#dddddd"/>
<defs>
  <marker id="arrow" markerWidth="15" markerHeight="7" refX="5" refY="3.5" orient="auto" markerUnits="strokeWidth">
    <path d="M0,0 L15,3.5 L0,7 z" stroke="context-stroke" fill="context-stroke"></path>
  </marker>
</defs>
<g stroke-width="0" fill="#000000" id="img-1674dcc0-1">
  <g transform="translate(108.12,43.75)">
    <circle cx="0" cy="0" r="0.83" class="primitive"></circle>
  </g>
</g>
<g stroke-width="0" fill="#000000" id="img-1674dcc0-2">
  <g transform="translate(108.12,25)">
    <circle cx="0" cy="0" r="0.83" class="primitive"></circle>
  </g>
</g>
<g stroke-width="0.35" stroke="#000000" id="img-1674dcc0-3">
  <g transform="translate(108.12,6.25)">
    <path d="M0,-3.5 L0,3.5  z" class="primitive"></path>
  </g>
</g>
<g stroke-width="0.35" stroke="#000000" id="img-1674dcc0-4">
  <g transform="translate(108.12,6.25)">
    <path d="M-3.5,0 L3.5,0  z" class="primitive"></path>
  </g>
</g>
<g fill="#000000" fill-opacity="0.000" stroke-width="0.35" stroke="#000000" id="img-1674dcc0-5">
  <g transform="translate(108.12,6.25)">
    <circle cx="0" cy="0" r="3.5" class="primitive"></circle>
  </g>
</g>
<g stroke-width="0" fill="#000000" id="img-1674dcc0-6">
  <g transform="translate(86.88,62.5)">
    <circle cx="0" cy="0" r="0.83" class="primitive"></circle>
  </g>
</g>
<g stroke-width="0.35" stroke="#000000" fill="#FFFFFF" id="img-1674dcc0-7">
  <g transform="translate(86.88,6.25)">
    <path d="M-8.31,-5 L8.31,-5 8.31,5 -8.31,5  z" class="primitive"></path>
  </g>
</g>
<g stroke-width="0" fill="#000000" id="img-1674dcc0-8">
  <g transform="translate(65.63,43.75)">
    <circle cx="0" cy="0" r="0.83" class="primitive"></circle>
  </g>
</g>
<g stroke-width="0.35" stroke="#000000" fill="#FFFFFF" id="img-1674dcc0-9">
  <g transform="translate(65.63,6.25)">
    <path d="M-8.31,-5 L8.31,-5 8.31,5 -8.31,5  z" class="primitive"></path>
  </g>
</g>
<g stroke-width="0" fill="#000000" id="img-1674dcc0-10">
  <g transform="translate(44.38,25)">
    <circle cx="0" cy="0" r="0.83" class="primitive"></circle>
  </g>
</g>
<g stroke-width="0.35" stroke="#000000" fill="#FFFFFF" id="img-1674dcc0-11">
  <g transform="translate(44.38,6.25)">
    <path d="M-6.1,-5 L6.1,-5 6.1,5 -6.1,5  z" class="primitive"></path>
  </g>
</g>
<g stroke-width="0.35" stroke="#000000" fill="#FFFFFF" id="img-1674dcc0-12">
  <g transform="translate(23.12,62.5)">
    <path d="M-5,-5 L5,-5 5,5 -5,5  z" class="primitive"></path>
  </g>
</g>
<g stroke-width="0.35" stroke="#000000" fill="#FFFFFF" id="img-1674dcc0-13">
  <g transform="translate(23.12,43.75)">
    <path d="M-5,-5 L5,-5 5,5 -5,5  z" class="primitive"></path>
  </g>
</g>
<g stroke-width="0.35" stroke="#000000" fill="#FFFFFF" id="img-1674dcc0-14">
  <g transform="translate(23.12,25)">
    <path d="M-5,-5 L5,-5 5,5 -5,5  z" class="primitive"></path>
  </g>
</g>
<g stroke-width="0.35" stroke="#000000" id="img-1674dcc0-15">
  <g transform="translate(108.13,62.5)">
    <path fill="none" d="M10.62,0 L-10.62,0 " class="primitive"></path>
  </g>
</g>
<g stroke-width="0.35" stroke="#000000" id="img-1674dcc0-16">
  <g transform="translate(118.75,43.75)">
    <path fill="none" d="M0,0 L0,0 " class="primitive"></path>
  </g>
</g>
<g stroke-width="0.35" stroke="#000000" id="img-1674dcc0-17">
  <g transform="translate(118.75,25)">
    <path fill="none" d="M0,0 L0,0 " class="primitive"></path>
  </g>
</g>
<g stroke-width="0.35" stroke="#000000" id="img-1674dcc0-18">
  <g transform="translate(118.75,6.25)">
    <path fill="none" d="M0,0 L0,0 " class="primitive"></path>
  </g>
</g>
<g stroke-width="0.35" stroke="#000000" id="img-1674dcc0-19">
  <g transform="translate(113.85,43.75)">
    <path fill="none" d="M-4.9,0 L4.9,0 " class="primitive"></path>
  </g>
</g>
<g stroke-width="0.35" stroke="#000000" id="img-1674dcc0-20">
  <g transform="translate(102.4,43.75)">
    <path fill="none" d="M-4.9,0 L4.9,0 " class="primitive"></path>
  </g>
</g>
<g stroke-width="0.35" stroke="#000000" id="img-1674dcc0-21">
  <g transform="translate(113.85,25)">
    <path fill="none" d="M-4.9,0 L4.9,0 " class="primitive"></path>
  </g>
</g>
<g stroke-width="0.35" stroke="#000000" id="img-1674dcc0-22">
  <g transform="translate(102.4,25)">
    <path fill="none" d="M-4.9,0 L4.9,0 " class="primitive"></path>
  </g>
</g>
<g stroke-width="0.35" stroke="#000000" id="img-1674dcc0-23">
  <g transform="translate(115.19,6.25)">
    <path fill="none" d="M-3.56,0 L3.56,0 " class="primitive"></path>
  </g>
</g>
<g stroke-width="0.35" stroke="#000000" id="img-1674dcc0-24">
  <g transform="translate(101.06,6.25)">
    <path fill="none" d="M-3.56,0 L3.56,0 " class="primitive"></path>
  </g>
</g>
<g stroke-width="0.35" stroke="#000000" id="img-1674dcc0-25">
  <g transform="translate(108.12,34.38)">
    <path fill="none" d="M0,8.54 L0,-8.54 " class="primitive"></path>
  </g>
</g>
<g stroke-width="0.35" stroke="#000000" id="img-1674dcc0-26">
  <g transform="translate(108.12,16.96)">
    <path fill="none" d="M0,7.21 L0,-7.21 " class="primitive"></path>
  </g>
</g>
<g stroke-width="0.35" stroke="#000000" id="img-1674dcc0-27">
  <g transform="translate(86.88,43.75)">
    <path fill="none" d="M-10.62,0 L10.62,0 " class="primitive"></path>
  </g>
</g>
<g stroke-width="0.35" stroke="#000000" id="img-1674dcc0-28">
  <g transform="translate(86.88,25)">
    <path fill="none" d="M-10.62,0 L10.62,0 " class="primitive"></path>
  </g>
</g>
<g stroke-width="0.35" stroke="#000000" id="img-1674dcc0-29">
  <g transform="translate(92.6,62.5)">
    <path fill="none" d="M-4.9,0 L4.9,0 " class="primitive"></path>
  </g>
</g>
<g stroke-width="0.35" stroke="#000000" id="img-1674dcc0-30">
  <g transform="translate(59.9,62.5)">
    <path fill="none" d="M-26.15,0 L26.15,0 " class="primitive"></path>
  </g>
</g>
<g stroke-width="0.35" stroke="#000000" id="img-1674dcc0-31">
  <g transform="translate(96.34,6.25)">
    <path fill="none" d="M-1.16,0 L1.16,0 " class="primitive"></path>
  </g>
</g>
<g stroke-width="0.35" stroke="#000000" id="img-1674dcc0-32">
  <g transform="translate(77.41,6.25)">
    <path fill="none" d="M-1.16,0 L1.16,0 " class="primitive"></path>
  </g>
</g>
<g stroke-width="0.35" stroke="#000000" id="img-1674dcc0-33">
  <g transform="translate(86.88,36.46)">
    <path fill="none" d="M0,25.21 L0,-25.21 " class="primitive"></path>
  </g>
</g>
<g stroke-width="0.35" stroke="#000000" id="img-1674dcc0-34">
  <g transform="translate(65.63,25)">
    <path fill="none" d="M-10.63,0 L10.62,0 " class="primitive"></path>
  </g>
</g>
<g stroke-width="0.35" stroke="#000000" id="img-1674dcc0-35">
  <g transform="translate(71.35,43.75)">
    <path fill="none" d="M-4.9,0 L4.9,0 " class="primitive"></path>
  </g>
</g>
<g stroke-width="0.35" stroke="#000000" id="img-1674dcc0-36">
  <g transform="translate(49.27,43.75)">
    <path fill="none" d="M-15.52,0 L15.52,0 " class="primitive"></path>
  </g>
</g>
<g stroke-width="0.35" stroke="#000000" id="img-1674dcc0-37">
  <g transform="translate(75.09,6.25)">
    <path fill="none" d="M-1.16,0 L1.16,0 " class="primitive"></path>
  </g>
</g>
<g stroke-width="0.35" stroke="#000000" id="img-1674dcc0-38">
  <g transform="translate(56.16,6.25)">
    <path fill="none" d="M-1.16,0 L1.16,0 " class="primitive"></path>
  </g>
</g>
<g stroke-width="0.35" stroke="#000000" id="img-1674dcc0-39">
  <g transform="translate(65.63,27.08)">
    <path fill="none" d="M0,15.83 L0,-15.83 " class="primitive"></path>
  </g>
</g>
<g stroke-width="0.35" stroke="#000000" id="img-1674dcc0-40">
  <g transform="translate(50.1,25)">
    <path fill="none" d="M-4.9,0 L4.9,0 " class="primitive"></path>
  </g>
</g>
<g stroke-width="0.35" stroke="#000000" id="img-1674dcc0-41">
  <g transform="translate(38.65,25)">
    <path fill="none" d="M-4.9,0 L4.9,0 " class="primitive"></path>
  </g>
</g>
<g stroke-width="0.35" stroke="#000000" id="img-1674dcc0-42">
  <g transform="translate(52.74,6.25)">
    <path fill="none" d="M-2.26,0 L2.26,0 " class="primitive"></path>
  </g>
</g>
<g stroke-width="0.35" stroke="#000000" id="img-1674dcc0-43">
  <g transform="translate(25.39,6.25)">
    <path fill="none" d="M-12.89,0 L12.89,0 " class="primitive"></path>
  </g>
</g>
<g stroke-width="0.35" stroke="#000000" id="img-1674dcc0-44">
  <g transform="translate(44.38,17.71)">
    <path fill="none" d="M0,6.46 L0,-6.46 " class="primitive"></path>
  </g>
</g>
<g stroke-width="0.35" stroke="#000000" id="img-1674dcc0-45">
  <g transform="translate(30.94,62.5)">
    <path fill="none" d="M-2.81,0 L2.81,0 " class="primitive"></path>
  </g>
</g>
<g stroke-width="0.35" stroke="#000000" id="img-1674dcc0-46">
  <g transform="translate(15.31,62.5)">
    <path fill="none" d="M-2.81,0 L2.81,0 " class="primitive"></path>
  </g>
</g>
<g stroke-width="0.35" stroke="#000000" id="img-1674dcc0-47">
  <g transform="translate(30.94,43.75)">
    <path fill="none" d="M-2.81,0 L2.81,0 " class="primitive"></path>
  </g>
</g>
<g stroke-width="0.35" stroke="#000000" id="img-1674dcc0-48">
  <g transform="translate(15.31,43.75)">
    <path fill="none" d="M-2.81,0 L2.81,0 " class="primitive"></path>
  </g>
</g>
<g stroke-width="0.35" stroke="#000000" id="img-1674dcc0-49">
  <g transform="translate(30.94,25)">
    <path fill="none" d="M-2.81,0 L2.81,0 " class="primitive"></path>
  </g>
</g>
<g stroke-width="0.35" stroke="#000000" id="img-1674dcc0-50">
  <g transform="translate(15.31,25)">
    <path fill="none" d="M-2.81,0 L2.81,0 " class="primitive"></path>
  </g>
</g>
<g font-family="JuliaMono" fill="#000000" font-size="5.64" id="img-1674dcc0-51">
  <g transform="translate(108.12,43.75)">
    <g class="primitive">
      <text text-anchor="middle" dy="0.35em"></text>
    </g>
  </g>
</g>
<g font-family="JuliaMono" fill="#000000" font-size="5.64" id="img-1674dcc0-52">
  <g transform="translate(108.12,25)">
    <g class="primitive">
      <text text-anchor="middle" dy="0.35em"></text>
    </g>
  </g>
</g>
<g font-family="JuliaMono" fill="#000000" font-size="5.64" id="img-1674dcc0-53">
  <g transform="translate(108.12,6.25)">
    <g class="primitive">
      <text text-anchor="middle" dy="0.35em"></text>
    </g>
  </g>
</g>
<g font-family="JuliaMono" fill="#000000" font-size="5.64" id="img-1674dcc0-54">
  <g transform="translate(86.88,62.5)">
    <g class="primitive">
      <text text-anchor="middle" dy="0.35em"></text>
    </g>
  </g>
</g>
<g font-family="JuliaMono" fill="#000000" font-size="3.53" id="img-1674dcc0-55">
  <g transform="translate(86.88,6.25)">
    <g class="primitive">
      <text text-anchor="middle" dy="0.35em">Ry(π/4)</text>
    </g>
  </g>
</g>
<g font-family="JuliaMono" fill="#000000" font-size="5.64" id="img-1674dcc0-56">
  <g transform="translate(65.63,43.75)">
    <g class="primitive">
      <text text-anchor="middle" dy="0.35em"></text>
    </g>
  </g>
</g>
<g font-family="JuliaMono" fill="#000000" font-size="3.53" id="img-1674dcc0-57">
  <g transform="translate(65.63,6.25)">
    <g class="primitive">
      <text text-anchor="middle" dy="0.35em">Ry(π/2)</text>
    </g>
  </g>
</g>
<g font-family="JuliaMono" fill="#000000" font-size="5.64" id="img-1674dcc0-58">
  <g transform="translate(44.38,25)">
    <g class="primitive">
      <text text-anchor="middle" dy="0.35em"></text>
    </g>
  </g>
</g>
<g font-family="JuliaMono" fill="#000000" font-size="3.53" id="img-1674dcc0-59">
  <g transform="translate(44.38,6.25)">
    <g class="primitive">
      <text text-anchor="middle" dy="0.35em">Ry(π)</text>
    </g>
  </g>
</g>
<g font-family="JuliaMono" fill="#000000" font-size="5.64" id="img-1674dcc0-60">
  <g transform="translate(23.13,62.5)">
    <g class="primitive">
      <text text-anchor="middle" dy="0.35em">H</text>
    </g>
  </g>
</g>
<g font-family="JuliaMono" fill="#000000" font-size="5.64" id="img-1674dcc0-61">
  <g transform="translate(23.13,43.75)">
    <g class="primitive">
      <text text-anchor="middle" dy="0.35em">H</text>
    </g>
  </g>
</g>
<g font-family="JuliaMono" fill="#000000" font-size="5.64" id="img-1674dcc0-62">
  <g transform="translate(23.13,25)">
    <g class="primitive">
      <text text-anchor="middle" dy="0.35em">H</text>
    </g>
  </g>
</g>
</svg>