<svg xmlns="http://www.w3.org/2000/svg" xmlns:xlink="http://www.w3.org/1999/xlink" version="1.2" width="63.75mm" height="112.5mm" viewBox="0 0 63.75 112.5" stroke="none" fill="#000000" stroke-width="0.3" font-size="3.88">
<rect width="100%" height="100%" fill="#dddddd"/>
<defs>
  <marker id="arrow" markerWidth="15" markerHeight="7" refX="5" refY="3.5" orient="auto" markerUnits="strokeWidth">
    <path d="M0,0 L15,3.5 L0,7 z" stroke="context-stroke" fill="context-stroke"></path>
  </marker>
</defs>
<g stroke-width="0" fill="#000000" id="img-d1f278c2-1">
  <g transform="translate(44.38,100)">
    <circle cx="0" cy="0" r="0.83" class="primitive"></circle>
  </g>
</g>
<g stroke-width="0" fill="#000000" id="img-d1f278c2-2">
  <g transform="translate(44.38,81.25)">
    <circle cx="0" cy="0" r="0.83" class="primitive"></circle>
  </g>
</g>
<g stroke-width="0" fill="#000000" id="img-d1f278c2-3">
  <g transform="translate(44.38,62.5)">
    <circle cx="0" cy="0" r="0.83" class="primitive"></circle>
  </g>
</g>
<g stroke-width="0.35" stroke="#000000" id="img-d1f278c2-4">
  <g transform="translate(44.38,25)">
    <path d="M0,-3.5 L0,3.5  z" class="primitive"></path>
  </g>
</g>
<g stroke-width="0.35" stroke="#000000" id="img-d1f278c2-5">
  <g transform="translate(44.38,25)">
    <path d="M-3.5,0 L3.5,0  z" class="primitive"></path>
  </g>
</g>
<g fill="#000000" fill-opacity="0.000" stroke-width="0.35" stroke="#000000" id="img-d1f278c2-6">
  <g transform="translate(44.38,25)">
    <circle cx="0" cy="0" r="3.5" class="primitive"></circle>
  </g>
</g>
<g stroke-width="0" fill="#000000" id="img-d1f278c2-7">
  <g transform="translate(23.13,43.75)">
    <circle cx="0" cy="0" r="0.83" class="primitive"></circle>
  </g>
</g>
<g stroke-width="0.35" stroke="#000000" id="img-d1f278c2-8">
  <g transform="translate(23.13,6.25)">
    <path d="M0,-3.5 L0,3.5  z" class="primitive"></path>
  </g>
</g>
<g stroke-width="0.35" stroke="#000000" id="img-d1f278c2-9">
  <g transform="translate(23.12,6.25)">
    <path d="M-3.5,0 L3.5,0  z" class="primitive"></path>
  </g>
</g>
<g fill="#000000" fill-opacity="0.000" stroke-width="0.35" stroke="#000000" id="img-d1f278c2-10">
  <g transform="translate(23.13,6.25)">
    <circle cx="0" cy="0" r="3.5" class="primitive"></circle>
  </g>
</g>
<g stroke-width="0.35" stroke="#000000" id="img-d1f278c2-11">
  <g transform="translate(55,100)">
    <path fill="none" d="M0,0 L0,0 " class="primitive"></path>
  </g>
</g>
<g stroke-width="0.35" stroke="#000000" id="img-d1f278c2-12">
  <g transform="translate(55,81.25)">
    <path fill="none" d="M0,0 L0,0 " class="primitive"></path>
  </g>
</g>
<g stroke-width="0.35" stroke="#000000" id="img-d1f278c2-13">
  <g transform="translate(55,62.5)">
    <path fill="none" d="M0,0 L0,0 " class="primitive"></path>
  </g>
</g>
<g stroke-width="0.35" stroke="#000000" id="img-d1f278c2-14">
  <g transform="translate(55,43.75)">
    <path fill="none" d="M0,0 L0,0 " class="primitive"></path>
  </g>
</g>
<g stroke-width="0.35" stroke="#000000" id="img-d1f278c2-15">
  <g transform="translate(55,25)">
    <path fill="none" d="M0,0 L0,0 " class="primitive"></path>
  </g>
</g>
<g stroke-width="0.35" stroke="#000000" id="img-d1f278c2-16">
  <g transform="translate(44.38,6.25)">
    <path fill="none" d="M10.62,0 L-10.62,0 " class="primitive"></path>
  </g>
</g>
<g stroke-width="0.35" stroke="#000000" id="img-d1f278c2-17">
  <g transform="translate(44.38,43.75)">
    <path fill="none" d="M-10.62,0 L10.62,0 " class="primitive"></path>
  </g>
</g>
<g stroke-width="0.35" stroke="#000000" id="img-d1f278c2-18">
  <g transform="translate(50.1,100)">
    <path fill="none" d="M-4.9,0 L4.9,0 " class="primitive"></path>
  </g>
</g>
<g stroke-width="0.35" stroke="#000000" id="img-d1f278c2-19">
  <g transform="translate(28.02,100)">
    <path fill="none" d="M-15.52,0 L15.52,0 " class="primitive"></path>
  </g>
</g>
<g stroke-width="0.35" stroke="#000000" id="img-d1f278c2-20">
  <g transform="translate(50.1,81.25)">
    <path fill="none" d="M-4.9,0 L4.9,0 " class="primitive"></path>
  </g>
</g>
<g stroke-width="0.35" stroke="#000000" id="img-d1f278c2-21">
  <g transform="translate(28.02,81.25)">
    <path fill="none" d="M-15.52,0 L15.52,0 " class="primitive"></path>
  </g>
</g>
<g stroke-width="0.35" stroke="#000000" id="img-d1f278c2-22">
  <g transform="translate(50.1,62.5)">
    <path fill="none" d="M-4.9,0 L4.9,0 " class="primitive"></path>
  </g>
</g>
<g stroke-width="0.35" stroke="#000000" id="img-d1f278c2-23">
  <g transform="translate(28.02,62.5)">
    <path fill="none" d="M-15.52,0 L15.52,0 " class="primitive"></path>
  </g>
</g>
<g stroke-width="0.35" stroke="#000000" id="img-d1f278c2-24">
  <g transform="translate(51.44,25)">
    <path fill="none" d="M-3.56,0 L3.56,0 " class="primitive"></path>
  </g>
</g>
<g stroke-width="0.35" stroke="#000000" id="img-d1f278c2-25">
  <g transform="translate(37.31,25)">
    <path fill="none" d="M-3.56,0 L3.56,0 " class="primitive"></path>
  </g>
</g>
<g stroke-width="0.35" stroke="#000000" id="img-d1f278c2-26">
  <g transform="translate(44.38,90.62)">
    <path fill="none" d="M0,8.54 L0,-8.54 " class="primitive"></path>
  </g>
</g>
<g stroke-width="0.35" stroke="#000000" id="img-d1f278c2-27">
  <g transform="translate(44.38,71.88)">
    <path fill="none" d="M0,8.54 L0,-8.54 " class="primitive"></path>
  </g>
</g>
<g stroke-width="0.35" stroke="#000000" id="img-d1f278c2-28">
  <g transform="translate(44.38,45.08)">
    <path fill="none" d="M0,16.58 L0,-16.58 " class="primitive"></path>
  </g>
</g>
<g stroke-width="0.35" stroke="#000000" id="img-d1f278c2-29">
  <g transform="translate(23.13,25)">
    <path fill="none" d="M-10.63,0 L10.63,0 " class="primitive"></path>
  </g>
</g>
<g stroke-width="0.35" stroke="#000000" id="img-d1f278c2-30">
  <g transform="translate(28.85,43.75)">
    <path fill="none" d="M-4.9,0 L4.9,0 " class="primitive"></path>
  </g>
</g>
<g stroke-width="0.35" stroke="#000000" id="img-d1f278c2-31">
  <g transform="translate(17.4,43.75)">
    <path fill="none" d="M-4.9,0 L4.9,0 " class="primitive"></path>
  </g>
</g>
<g stroke-width="0.35" stroke="#000000" id="img-d1f278c2-32">
  <g transform="translate(30.19,6.25)">
    <path fill="none" d="M-3.56,0 L3.56,0 " class="primitive"></path>
  </g>
</g>
<g stroke-width="0.35" stroke="#000000" id="img-d1f278c2-33">
  <g transform="translate(16.06,6.25)">
    <path fill="none" d="M-3.56,0 L3.56,0 " class="primitive"></path>
  </g>
</g>
<g stroke-width="0.35" stroke="#000000" id="img-d1f278c2-34">
  <g transform="translate(23.13,26.33)">
    <path fill="none" d="M0,16.58 L0,-16.58 " class="primitive"></path>
  </g>
</g>
<g font-family="JuliaMono" fill="#000000" font-size="5.64" id="img-d1f278c2-35">
  <g transform="translate(44.38,100)">
    <g class="primitive">
      <text text-anchor="middle" dy="0.35em"></text>
    </g>
  </g>
</g>
<g font-family="JuliaMono" fill="#000000" font-size="5.64" id="img-d1f278c2-36">
  <g transform="translate(44.38,81.25)">
    <g class="primitive">
      <text text-anchor="middle" dy="0.35em"></text>
    </g>
  </g>
</g>
<g font-family="JuliaMono" fill="#000000" font-size="5.64" id="img-d1f278c2-37">
  <g transform="translate(44.38,62.5)">
    <g class="primitive">
      <text text-anchor="middle" dy="0.35em"></text>
    </g>
  </g>
</g>
<g font-family="JuliaMono" fill="#000000" font-size="5.64" id="img-d1f278c2-38">
  <g transform="translate(44.38,25)">
    <g class="primitive">
      <text text-anchor="middle" dy="0.35em"></text>
    </g>
  </g>
</g>
<g font-family="JuliaMono" fill="#000000" font-size="5.64" id="img-d1f278c2-39">
  <g transform="translate(23.13,43.75)">
    <g class="primitive">
      <text text-anchor="middle" dy="0.35em"></text>
    </g>
  </g>
</g>
<g font-family="JuliaMono" fill="#000000" font-size="5.64" id="img-d1f278c2-40">
  <g transform="translate(23.13,6.25)">
    <g class="primitive">
      <text text-anchor="middle" dy="0.35em"></text>
    </g>
  </g>
</g>
</svg>