<svg xmlns="http://www.w3.org/2000/svg" xmlns:xlink="http://www.w3.org/1999/xlink" width="600" height="400" viewBox="0 0 2400 1600">
<defs>
  <clipPath id="clip710">
    <rect x="0" y="0" width="2400" height="1600"></rect>
  </clipPath>
</defs>
<path clip-path="url(#clip710)" d="M0 1600 L2400 1600 L2400 0 L0 0  Z" fill="#ffffff" fill-rule="evenodd" fill-opacity="1"></path>
<defs>
  <clipPath id="clip711">
    <rect x="480" y="0" width="1681" height="1600"></rect>
  </clipPath>
</defs>
<path clip-path="url(#clip710)" d="M47.2441 1552.76 L2352.76 1552.76 L2352.76 123.472 L47.2441 123.472  Z" fill="#ffffff" fill-rule="evenodd" fill-opacity="1"></path>
<defs>
  <clipPath id="clip712">
    <rect x="47" y="123" width="2307" height="1430"></rect>
  </clipPath>
</defs>
<path clip-path="url(#clip710)" d="M992.411 12.096 L1000.59 12.096 L1000.59 36.8875 L1030.33 36.8875 L1030.33 12.096 L1038.51 12.096 L1038.51 72.576 L1030.33 72.576 L1030.33 43.7741 L1000.59 43.7741 L1000.59 72.576 L992.411 72.576 L992.411 12.096 Z" fill="#000000" fill-rule="nonzero" fill-opacity="1"></path><path clip-path="url(#clip710)" d="M1054.47 27.2059 L1061.92 27.2059 L1061.92 72.576 L1054.47 72.576 L1054.47 27.2059 M1054.47 9.54393 L1061.92 9.54393 L1061.92 18.9825 L1054.47 18.9825 L1054.47 9.54393 Z" fill="#000000" fill-rule="nonzero" fill-opacity="1"></path><path clip-path="url(#clip710)" d="M1106.44 28.5427 L1106.44 35.5912 Q1103.28 33.9709 1099.88 33.1607 Q1096.48 32.3505 1092.83 32.3505 Q1087.28 32.3505 1084.49 34.0519 Q1081.73 35.7533 1081.73 39.156 Q1081.73 41.7486 1083.72 43.2475 Q1085.7 44.7058 1091.7 46.0426 L1094.25 46.6097 Q1102.19 48.3111 1105.51 51.4303 Q1108.87 54.509 1108.87 60.0587 Q1108.87 66.3781 1103.85 70.0644 Q1098.87 73.7508 1090.12 73.7508 Q1086.47 73.7508 1082.5 73.0216 Q1078.57 72.3329 1074.2 70.9151 L1074.2 63.2184 Q1078.33 65.3654 1082.34 66.4591 Q1086.35 67.5124 1090.28 67.5124 Q1095.55 67.5124 1098.38 65.73 Q1101.22 63.9071 1101.22 60.6258 Q1101.22 57.5877 1099.15 55.9673 Q1097.13 54.3469 1090.2 52.8481 L1087.61 52.2405 Q1080.68 50.7821 1077.6 47.7845 Q1074.52 44.7463 1074.52 39.4801 Q1074.52 33.0797 1079.06 29.5959 Q1083.6 26.1121 1091.94 26.1121 Q1096.07 26.1121 1099.72 26.7198 Q1103.37 27.3274 1106.44 28.5427 Z" fill="#000000" fill-rule="nonzero" fill-opacity="1"></path><path clip-path="url(#clip710)" d="M1128.12 14.324 L1128.12 27.2059 L1143.47 27.2059 L1143.47 32.9987 L1128.12 32.9987 L1128.12 57.6282 Q1128.12 63.1779 1129.62 64.7578 Q1131.15 66.3376 1135.81 66.3376 L1143.47 66.3376 L1143.47 72.576 L1135.81 72.576 Q1127.18 72.576 1123.9 69.3758 Q1120.62 66.1351 1120.62 57.6282 L1120.62 32.9987 L1115.15 32.9987 L1115.15 27.2059 L1120.62 27.2059 L1120.62 14.324 L1128.12 14.324 Z" fill="#000000" fill-rule="nonzero" fill-opacity="1"></path><path clip-path="url(#clip710)" d="M1170.85 32.4315 Q1164.86 32.4315 1161.37 37.1306 Q1157.89 41.7891 1157.89 49.9314 Q1157.89 58.0738 1161.33 62.7728 Q1164.82 67.4314 1170.85 67.4314 Q1176.81 67.4314 1180.29 62.7323 Q1183.78 58.0333 1183.78 49.9314 Q1183.78 41.8701 1180.29 37.1711 Q1176.81 32.4315 1170.85 32.4315 M1170.85 26.1121 Q1180.58 26.1121 1186.13 32.4315 Q1191.68 38.7509 1191.68 49.9314 Q1191.68 61.0714 1186.13 67.4314 Q1180.58 73.7508 1170.85 73.7508 Q1161.09 73.7508 1155.54 67.4314 Q1150.03 61.0714 1150.03 49.9314 Q1150.03 38.7509 1155.54 32.4315 Q1161.09 26.1121 1170.85 26.1121 Z" fill="#000000" fill-rule="nonzero" fill-opacity="1"></path><path clip-path="url(#clip710)" d="M1233.89 49.3643 Q1233.89 41.2625 1230.52 36.8065 Q1227.2 32.3505 1221.17 32.3505 Q1215.17 32.3505 1211.81 36.8065 Q1208.49 41.2625 1208.49 49.3643 Q1208.49 57.4256 1211.81 61.8816 Q1215.17 66.3376 1221.17 66.3376 Q1227.2 66.3376 1230.52 61.8816 Q1233.89 57.4256 1233.89 49.3643 M1241.34 66.9452 Q1241.34 78.5308 1236.19 84.1616 Q1231.05 89.8329 1220.44 89.8329 Q1216.51 89.8329 1213.02 89.2252 Q1209.54 88.6581 1206.26 87.4428 L1206.26 80.1917 Q1209.54 81.9741 1212.74 82.8248 Q1215.94 83.6755 1219.26 83.6755 Q1226.59 83.6755 1230.24 79.8271 Q1233.89 76.0193 1233.89 68.282 L1233.89 64.5957 Q1231.58 68.6061 1227.97 70.5911 Q1224.37 72.576 1219.34 72.576 Q1211 72.576 1205.89 66.2161 Q1200.79 59.8562 1200.79 49.3643 Q1200.79 38.832 1205.89 32.472 Q1211 26.1121 1219.34 26.1121 Q1224.37 26.1121 1227.97 28.0971 Q1231.58 30.082 1233.89 34.0924 L1233.89 27.2059 L1241.34 27.2059 L1241.34 66.9452 Z" fill="#000000" fill-rule="nonzero" fill-opacity="1"></path><path clip-path="url(#clip710)" d="M1282.98 34.1734 Q1281.73 33.4443 1280.23 33.1202 Q1278.77 32.7556 1276.99 32.7556 Q1270.67 32.7556 1267.27 36.8875 Q1263.9 40.9789 1263.9 48.6757 L1263.9 72.576 L1256.41 72.576 L1256.41 27.2059 L1263.9 27.2059 L1263.9 34.2544 Q1266.25 30.1225 1270.02 28.1376 Q1273.79 26.1121 1279.17 26.1121 Q1279.94 26.1121 1280.88 26.2337 Q1281.81 26.3147 1282.94 26.5172 L1282.98 34.1734 Z" fill="#000000" fill-rule="nonzero" fill-opacity="1"></path><path clip-path="url(#clip710)" d="M1311.42 49.7694 Q1302.39 49.7694 1298.9 51.8354 Q1295.42 53.9013 1295.42 58.8839 Q1295.42 62.8538 1298.01 65.2034 Q1300.64 67.5124 1305.14 67.5124 Q1311.34 67.5124 1315.07 63.1374 Q1318.83 58.7219 1318.83 51.4303 L1318.83 49.7694 L1311.42 49.7694 M1326.29 46.6907 L1326.29 72.576 L1318.83 72.576 L1318.83 65.6895 Q1316.28 69.8214 1312.47 71.8063 Q1308.67 73.7508 1303.16 73.7508 Q1296.19 73.7508 1292.06 69.8619 Q1287.97 65.9325 1287.97 59.3701 Q1287.97 51.7138 1293.07 47.825 Q1298.21 43.9361 1308.38 43.9361 L1318.83 43.9361 L1318.83 43.2069 Q1318.83 38.0623 1315.43 35.2672 Q1312.07 32.4315 1305.95 32.4315 Q1302.06 32.4315 1298.38 33.3632 Q1294.69 34.295 1291.29 36.1584 L1291.29 29.2718 Q1295.38 27.692 1299.23 26.9223 Q1303.08 26.1121 1306.72 26.1121 Q1316.56 26.1121 1321.43 31.2163 Q1326.29 36.3204 1326.29 46.6907 Z" fill="#000000" fill-rule="nonzero" fill-opacity="1"></path><path clip-path="url(#clip710)" d="M1376.96 35.9153 Q1379.76 30.8922 1383.65 28.5022 Q1387.54 26.1121 1392.8 26.1121 Q1399.89 26.1121 1403.74 31.0947 Q1407.59 36.0368 1407.59 45.1919 L1407.59 72.576 L1400.09 72.576 L1400.09 45.4349 Q1400.09 38.913 1397.79 35.7533 Q1395.48 32.5936 1390.74 32.5936 Q1384.94 32.5936 1381.58 36.4419 Q1378.22 40.2903 1378.22 46.9338 L1378.22 72.576 L1370.73 72.576 L1370.73 45.4349 Q1370.73 38.8725 1368.42 35.7533 Q1366.11 32.5936 1361.29 32.5936 Q1355.57 32.5936 1352.21 36.4824 Q1348.85 40.3308 1348.85 46.9338 L1348.85 72.576 L1341.36 72.576 L1341.36 27.2059 L1348.85 27.2059 L1348.85 34.2544 Q1351.4 30.082 1354.97 28.0971 Q1358.53 26.1121 1363.43 26.1121 Q1368.38 26.1121 1371.82 28.6237 Q1375.3 31.1352 1376.96 35.9153 Z" fill="#000000" fill-rule="nonzero" fill-opacity="1"></path><path clip-path="url(#clip712)" d="M76.063 123.472 L76.063 1552.76 L306.614 1552.76 L306.614 123.472 L76.063 123.472 L76.063 123.472  Z" fill="#ff0000" fill-rule="evenodd" fill-opacity="1"></path>
<polyline clip-path="url(#clip712)" style="stroke:#add8e6; stroke-linecap:round; stroke-linejoin:round; stroke-width:4; stroke-opacity:1; fill:none" points="76.063,123.472 76.063,1552.76 306.614,1552.76 306.614,123.472 76.063,123.472 "></polyline>
<path clip-path="url(#clip712)" d="M364.252 1552.76 L364.252 1552.76 L594.803 1552.76 L594.803 1552.76 L364.252 1552.76 L364.252 1552.76  Z" fill="#add8e6" fill-rule="evenodd" fill-opacity="1"></path>
<polyline clip-path="url(#clip712)" style="stroke:#add8e6; stroke-linecap:round; stroke-linejoin:round; stroke-width:4; stroke-opacity:1; fill:none" points="364.252,1552.76 364.252,1552.76 594.803,1552.76 364.252,1552.76 "></polyline>
<path clip-path="url(#clip712)" d="M652.441 1552.76 L652.441 1552.76 L882.992 1552.76 L882.992 1552.76 L652.441 1552.76 L652.441 1552.76  Z" fill="#add8e6" fill-rule="evenodd" fill-opacity="1"></path>
<polyline clip-path="url(#clip712)" style="stroke:#add8e6; stroke-linecap:round; stroke-linejoin:round; stroke-width:4; stroke-opacity:1; fill:none" points="652.441,1552.76 652.441,1552.76 882.992,1552.76 652.441,1552.76 "></polyline>
<path clip-path="url(#clip712)" d="M940.63 134.861 L940.63 1552.76 L1171.18 1552.76 L1171.18 134.861 L940.63 134.861 L940.63 134.861  Z" fill="#add8e6" fill-rule="evenodd" fill-opacity="1"></path>
<polyline clip-path="url(#clip712)" style="stroke:#add8e6; stroke-linecap:round; stroke-linejoin:round; stroke-width:4; stroke-opacity:1; fill:none" points="940.63,134.861 940.63,1552.76 1171.18,1552.76 1171.18,134.861 940.63,134.861 "></polyline>
<path clip-path="url(#clip712)" d="M1228.82 829.572 L1228.82 1552.76 L1459.37 1552.76 L1459.37 829.572 L1228.82 829.572 L1228.82 829.572  Z" fill="#ff0000" fill-rule="evenodd" fill-opacity="1"></path>
<polyline clip-path="url(#clip712)" style="stroke:#add8e6; stroke-linecap:round; stroke-linejoin:round; stroke-width:4; stroke-opacity:1; fill:none" points="1228.82,829.572 1228.82,1552.76 1459.37,1552.76 1459.37,829.572 1228.82,829.572 "></polyline>
<path clip-path="url(#clip712)" d="M1517.01 960.543 L1517.01 1552.76 L1747.56 1552.76 L1747.56 960.543 L1517.01 960.543 L1517.01 960.543  Z" fill="#add8e6" fill-rule="evenodd" fill-opacity="1"></path>
<polyline clip-path="url(#clip712)" style="stroke:#add8e6; stroke-linecap:round; stroke-linejoin:round; stroke-width:4; stroke-opacity:1; fill:none" points="1517.01,960.543 1517.01,1552.76 1747.56,1552.76 1747.56,960.543 1517.01,960.543 "></polyline>
<path clip-path="url(#clip712)" d="M1805.2 801.101 L1805.2 1552.76 L2035.75 1552.76 L2035.75 801.101 L1805.2 801.101 L1805.2 801.101  Z" fill="#add8e6" fill-rule="evenodd" fill-opacity="1"></path>
<polyline clip-path="url(#clip712)" style="stroke:#add8e6; stroke-linecap:round; stroke-linejoin:round; stroke-width:4; stroke-opacity:1; fill:none" points="1805.2,801.101 1805.2,1552.76 2035.75,1552.76 2035.75,801.101 1805.2,801.101 "></polyline>
<path clip-path="url(#clip712)" d="M2093.39 772.629 L2093.39 1552.76 L2323.94 1552.76 L2323.94 772.629 L2093.39 772.629 L2093.39 772.629  Z" fill="#add8e6" fill-rule="evenodd" fill-opacity="1"></path>
<polyline clip-path="url(#clip712)" style="stroke:#add8e6; stroke-linecap:round; stroke-linejoin:round; stroke-width:4; stroke-opacity:1; fill:none" points="2093.39,772.629 2093.39,1552.76 2323.94,1552.76 2323.94,772.629 2093.39,772.629 "></polyline>
<circle clip-path="url(#clip712)" style="fill:#ff0000; stroke:none; fill-opacity:0" cx="191.339" cy="123.472" r="2"></circle>
<circle clip-path="url(#clip712)" style="fill:#add8e6; stroke:none; fill-opacity:0" cx="479.528" cy="1552.76" r="2"></circle>
<circle clip-path="url(#clip712)" style="fill:#add8e6; stroke:none; fill-opacity:0" cx="767.717" cy="1552.76" r="2"></circle>
<circle clip-path="url(#clip712)" style="fill:#add8e6; stroke:none; fill-opacity:0" cx="1055.91" cy="134.861" r="2"></circle>
<circle clip-path="url(#clip712)" style="fill:#ff0000; stroke:none; fill-opacity:0" cx="1344.09" cy="829.572" r="2"></circle>
<circle clip-path="url(#clip712)" style="fill:#add8e6; stroke:none; fill-opacity:0" cx="1632.28" cy="960.543" r="2"></circle>
<circle clip-path="url(#clip712)" style="fill:#add8e6; stroke:none; fill-opacity:0" cx="1920.47" cy="801.101" r="2"></circle>
<circle clip-path="url(#clip712)" style="fill:#add8e6; stroke:none; fill-opacity:0" cx="2208.66" cy="772.629" r="2"></circle>
<circle clip-path="url(#clip712)" style="fill:#e26f46; stroke:none; fill-opacity:1" cx="191.339" cy="1547.06" r="2"></circle>
<circle clip-path="url(#clip712)" style="fill:#e26f46; stroke:none; fill-opacity:1" cx="479.528" cy="1547.06" r="2"></circle>
<circle clip-path="url(#clip712)" style="fill:#e26f46; stroke:none; fill-opacity:1" cx="767.717" cy="1547.06" r="2"></circle>
<circle clip-path="url(#clip712)" style="fill:#e26f46; stroke:none; fill-opacity:1" cx="1055.91" cy="1547.06" r="2"></circle>
<circle clip-path="url(#clip712)" style="fill:#e26f46; stroke:none; fill-opacity:1" cx="1344.09" cy="1547.06" r="2"></circle>
<circle clip-path="url(#clip712)" style="fill:#e26f46; stroke:none; fill-opacity:1" cx="1632.28" cy="1547.06" r="2"></circle>
<circle clip-path="url(#clip712)" style="fill:#e26f46; stroke:none; fill-opacity:1" cx="1920.47" cy="1547.06" r="2"></circle>
<circle clip-path="url(#clip712)" style="fill:#e26f46; stroke:none; fill-opacity:1" cx="2208.66" cy="1547.06" r="2"></circle>
<path clip-path="url(#clip710)" d="M97.864 1513.9 L97.864 1596.87 L90.9774 1596.87 L90.9774 1513.9 L97.864 1513.9 Z" fill="#000000" fill-rule="nonzero" fill-opacity="1"></path><path clip-path="url(#clip710)" d="M134.768 1522.21 Q128.448 1522.21 125.248 1528.45 Q122.088 1534.65 122.088 1547.12 Q122.088 1559.56 125.248 1565.8 Q128.448 1571.99 134.768 1571.99 Q141.128 1571.99 144.287 1565.8 Q147.488 1559.56 147.488 1547.12 Q147.488 1534.65 144.287 1528.45 Q141.128 1522.21 134.768 1522.21 M134.768 1515.73 Q144.935 1515.73 150.283 1523.79 Q155.67 1531.81 155.67 1547.12 Q155.67 1562.39 150.283 1570.46 Q144.935 1578.48 134.768 1578.48 Q124.6 1578.48 119.212 1570.46 Q113.865 1562.39 113.865 1547.12 Q113.865 1531.81 119.212 1523.79 Q124.6 1515.73 134.768 1515.73 Z" fill="#000000" fill-rule="nonzero" fill-opacity="1"></path><path clip-path="url(#clip710)" d="M187.551 1522.21 Q181.232 1522.21 178.031 1528.45 Q174.872 1534.65 174.872 1547.12 Q174.872 1559.56 178.031 1565.8 Q181.232 1571.99 187.551 1571.99 Q193.911 1571.99 197.071 1565.8 Q200.271 1559.56 200.271 1547.12 Q200.271 1534.65 197.071 1528.45 Q193.911 1522.21 187.551 1522.21 M187.551 1515.73 Q197.719 1515.73 203.066 1523.79 Q208.454 1531.81 208.454 1547.12 Q208.454 1562.39 203.066 1570.46 Q197.719 1578.48 187.551 1578.48 Q177.383 1578.48 171.996 1570.46 Q166.648 1562.39 166.648 1547.12 Q166.648 1531.81 171.996 1523.79 Q177.383 1515.73 187.551 1515.73 Z" fill="#000000" fill-rule="nonzero" fill-opacity="1"></path><path clip-path="url(#clip710)" d="M240.334 1522.21 Q234.015 1522.21 230.815 1528.45 Q227.655 1534.65 227.655 1547.12 Q227.655 1559.56 230.815 1565.8 Q234.015 1571.99 240.334 1571.99 Q246.694 1571.99 249.854 1565.8 Q253.054 1559.56 253.054 1547.12 Q253.054 1534.65 249.854 1528.45 Q246.694 1522.21 240.334 1522.21 M240.334 1515.73 Q250.502 1515.73 255.849 1523.79 Q261.237 1531.81 261.237 1547.12 Q261.237 1562.39 255.849 1570.46 Q250.502 1578.48 240.334 1578.48 Q230.166 1578.48 224.779 1570.46 Q219.432 1562.39 219.432 1547.12 Q219.432 1531.81 224.779 1523.79 Q230.166 1515.73 240.334 1515.73 Z" fill="#000000" fill-rule="nonzero" fill-opacity="1"></path><path clip-path="url(#clip710)" d="M291.7 1551.29 L280.276 1588.24 L273.39 1588.24 L284.813 1551.29 L273.39 1514.35 L280.276 1514.35 L291.7 1551.29 Z" fill="#000000" fill-rule="nonzero" fill-opacity="1"></path><path clip-path="url(#clip710)" d="M386.053 1513.9 L386.053 1596.87 L379.166 1596.87 L379.166 1513.9 L386.053 1513.9 Z" fill="#000000" fill-rule="nonzero" fill-opacity="1"></path><path clip-path="url(#clip710)" d="M422.957 1522.21 Q416.637 1522.21 413.437 1528.45 Q410.277 1534.65 410.277 1547.12 Q410.277 1559.56 413.437 1565.8 Q416.637 1571.99 422.957 1571.99 Q429.317 1571.99 432.476 1565.8 Q435.677 1559.56 435.677 1547.12 Q435.677 1534.65 432.476 1528.45 Q429.317 1522.21 422.957 1522.21 M422.957 1515.73 Q433.124 1515.73 438.472 1523.79 Q443.859 1531.81 443.859 1547.12 Q443.859 1562.39 438.472 1570.46 Q433.124 1578.48 422.957 1578.48 Q412.789 1578.48 407.401 1570.46 Q402.054 1562.39 402.054 1547.12 Q402.054 1531.81 407.401 1523.79 Q412.789 1515.73 422.957 1515.73 Z" fill="#000000" fill-rule="nonzero" fill-opacity="1"></path><path clip-path="url(#clip710)" d="M475.74 1522.21 Q469.421 1522.21 466.22 1528.45 Q463.061 1534.65 463.061 1547.12 Q463.061 1559.56 466.22 1565.8 Q469.421 1571.99 475.74 1571.99 Q482.1 1571.99 485.26 1565.8 Q488.46 1559.56 488.46 1547.12 Q488.46 1534.65 485.26 1528.45 Q482.1 1522.21 475.74 1522.21 M475.74 1515.73 Q485.908 1515.73 491.255 1523.79 Q496.643 1531.81 496.643 1547.12 Q496.643 1562.39 491.255 1570.46 Q485.908 1578.48 475.74 1578.48 Q465.572 1578.48 460.184 1570.46 Q454.837 1562.39 454.837 1547.12 Q454.837 1531.81 460.184 1523.79 Q465.572 1515.73 475.74 1515.73 Z" fill="#000000" fill-rule="nonzero" fill-opacity="1"></path><path clip-path="url(#clip710)" d="M512.441 1570.42 L525.809 1570.42 L525.809 1524.28 L511.266 1527.19 L511.266 1519.74 L525.728 1516.82 L533.911 1516.82 L533.911 1570.42 L547.279 1570.42 L547.279 1577.3 L512.441 1577.3 L512.441 1570.42 Z" fill="#000000" fill-rule="nonzero" fill-opacity="1"></path><path clip-path="url(#clip710)" d="M579.889 1551.29 L568.465 1588.24 L561.579 1588.24 L573.002 1551.29 L561.579 1514.35 L568.465 1514.35 L579.889 1551.29 Z" fill="#000000" fill-rule="nonzero" fill-opacity="1"></path><path clip-path="url(#clip710)" d="M674.242 1513.9 L674.242 1596.87 L667.355 1596.87 L667.355 1513.9 L674.242 1513.9 Z" fill="#000000" fill-rule="nonzero" fill-opacity="1"></path><path clip-path="url(#clip710)" d="M711.146 1522.21 Q704.826 1522.21 701.626 1528.45 Q698.466 1534.65 698.466 1547.12 Q698.466 1559.56 701.626 1565.8 Q704.826 1571.99 711.146 1571.99 Q717.506 1571.99 720.665 1565.8 Q723.865 1559.56 723.865 1547.12 Q723.865 1534.65 720.665 1528.45 Q717.506 1522.21 711.146 1522.21 M711.146 1515.73 Q721.313 1515.73 726.661 1523.79 Q732.048 1531.81 732.048 1547.12 Q732.048 1562.39 726.661 1570.46 Q721.313 1578.48 711.146 1578.48 Q700.978 1578.48 695.59 1570.46 Q690.243 1562.39 690.243 1547.12 Q690.243 1531.81 695.59 1523.79 Q700.978 1515.73 711.146 1515.73 Z" fill="#000000" fill-rule="nonzero" fill-opacity="1"></path><path clip-path="url(#clip710)" d="M747.847 1570.42 L761.215 1570.42 L761.215 1524.28 L746.672 1527.19 L746.672 1519.74 L761.134 1516.82 L769.317 1516.82 L769.317 1570.42 L782.685 1570.42 L782.685 1577.3 L747.847 1577.3 L747.847 1570.42 Z" fill="#000000" fill-rule="nonzero" fill-opacity="1"></path><path clip-path="url(#clip710)" d="M816.712 1522.21 Q810.393 1522.21 807.193 1528.45 Q804.033 1534.65 804.033 1547.12 Q804.033 1559.56 807.193 1565.8 Q810.393 1571.99 816.712 1571.99 Q823.072 1571.99 826.232 1565.8 Q829.432 1559.56 829.432 1547.12 Q829.432 1534.65 826.232 1528.45 Q823.072 1522.21 816.712 1522.21 M816.712 1515.73 Q826.88 1515.73 832.227 1523.79 Q837.615 1531.81 837.615 1547.12 Q837.615 1562.39 832.227 1570.46 Q826.88 1578.48 816.712 1578.48 Q806.544 1578.48 801.157 1570.46 Q795.81 1562.39 795.81 1547.12 Q795.81 1531.81 801.157 1523.79 Q806.544 1515.73 816.712 1515.73 Z" fill="#000000" fill-rule="nonzero" fill-opacity="1"></path><path clip-path="url(#clip710)" d="M868.078 1551.29 L856.654 1588.24 L849.768 1588.24 L861.191 1551.29 L849.768 1514.35 L856.654 1514.35 L868.078 1551.29 Z" fill="#000000" fill-rule="nonzero" fill-opacity="1"></path><path clip-path="url(#clip710)" d="M962.431 1513.9 L962.431 1596.87 L955.544 1596.87 L955.544 1513.9 L962.431 1513.9 Z" fill="#000000" fill-rule="nonzero" fill-opacity="1"></path><path clip-path="url(#clip710)" d="M999.335 1522.21 Q993.015 1522.21 989.815 1528.45 Q986.655 1534.65 986.655 1547.12 Q986.655 1559.56 989.815 1565.8 Q993.015 1571.99 999.335 1571.99 Q1005.69 1571.99 1008.85 1565.8 Q1012.05 1559.56 1012.05 1547.12 Q1012.05 1534.65 1008.85 1528.45 Q1005.69 1522.21 999.335 1522.21 M999.335 1515.73 Q1009.5 1515.73 1014.85 1523.79 Q1020.24 1531.81 1020.24 1547.12 Q1020.24 1562.39 1014.85 1570.46 Q1009.5 1578.48 999.335 1578.48 Q989.167 1578.48 983.779 1570.46 Q978.432 1562.39 978.432 1547.12 Q978.432 1531.81 983.779 1523.79 Q989.167 1515.73 999.335 1515.73 Z" fill="#000000" fill-rule="nonzero" fill-opacity="1"></path><path clip-path="url(#clip710)" d="M1036.04 1570.42 L1049.4 1570.42 L1049.4 1524.28 L1034.86 1527.19 L1034.86 1519.74 L1049.32 1516.82 L1057.51 1516.82 L1057.51 1570.42 L1070.87 1570.42 L1070.87 1577.3 L1036.04 1577.3 L1036.04 1570.42 Z" fill="#000000" fill-rule="nonzero" fill-opacity="1"></path><path clip-path="url(#clip710)" d="M1088.82 1570.42 L1102.19 1570.42 L1102.19 1524.28 L1087.64 1527.19 L1087.64 1519.74 L1102.11 1516.82 L1110.29 1516.82 L1110.29 1570.42 L1123.66 1570.42 L1123.66 1577.3 L1088.82 1577.3 L1088.82 1570.42 Z" fill="#000000" fill-rule="nonzero" fill-opacity="1"></path><path clip-path="url(#clip710)" d="M1156.27 1551.29 L1144.84 1588.24 L1137.96 1588.24 L1149.38 1551.29 L1137.96 1514.35 L1144.84 1514.35 L1156.27 1551.29 Z" fill="#000000" fill-rule="nonzero" fill-opacity="1"></path><path clip-path="url(#clip710)" d="M1250.62 1513.9 L1250.62 1596.87 L1243.73 1596.87 L1243.73 1513.9 L1250.62 1513.9 Z" fill="#000000" fill-rule="nonzero" fill-opacity="1"></path><path clip-path="url(#clip710)" d="M1271.44 1570.42 L1284.81 1570.42 L1284.81 1524.28 L1270.27 1527.19 L1270.27 1519.74 L1284.73 1516.82 L1292.91 1516.82 L1292.91 1570.42 L1306.28 1570.42 L1306.28 1577.3 L1271.44 1577.3 L1271.44 1570.42 Z" fill="#000000" fill-rule="nonzero" fill-opacity="1"></path><path clip-path="url(#clip710)" d="M1340.31 1522.21 Q1333.99 1522.21 1330.79 1528.45 Q1327.63 1534.65 1327.63 1547.12 Q1327.63 1559.56 1330.79 1565.8 Q1333.99 1571.99 1340.31 1571.99 Q1346.67 1571.99 1349.83 1565.8 Q1353.03 1559.56 1353.03 1547.12 Q1353.03 1534.65 1349.83 1528.45 Q1346.67 1522.21 1340.31 1522.21 M1340.31 1515.73 Q1350.47 1515.73 1355.82 1523.79 Q1361.21 1531.81 1361.21 1547.12 Q1361.21 1562.39 1355.82 1570.46 Q1350.47 1578.48 1340.31 1578.48 Q1330.14 1578.48 1324.75 1570.46 Q1319.4 1562.39 1319.4 1547.12 Q1319.4 1531.81 1324.75 1523.79 Q1330.14 1515.73 1340.31 1515.73 Z" fill="#000000" fill-rule="nonzero" fill-opacity="1"></path><path clip-path="url(#clip710)" d="M1393.09 1522.21 Q1386.77 1522.21 1383.57 1528.45 Q1380.41 1534.65 1380.41 1547.12 Q1380.41 1559.56 1383.57 1565.8 Q1386.77 1571.99 1393.09 1571.99 Q1399.45 1571.99 1402.61 1565.8 Q1405.81 1559.56 1405.81 1547.12 Q1405.81 1534.65 1402.61 1528.45 Q1399.45 1522.21 1393.09 1522.21 M1393.09 1515.73 Q1403.26 1515.73 1408.61 1523.79 Q1413.99 1531.81 1413.99 1547.12 Q1413.99 1562.39 1408.61 1570.46 Q1403.26 1578.48 1393.09 1578.48 Q1382.92 1578.48 1377.53 1570.46 Q1372.19 1562.39 1372.19 1547.12 Q1372.19 1531.81 1377.53 1523.79 Q1382.92 1515.73 1393.09 1515.73 Z" fill="#000000" fill-rule="nonzero" fill-opacity="1"></path><path clip-path="url(#clip710)" d="M1444.46 1551.29 L1433.03 1588.24 L1426.15 1588.24 L1437.57 1551.29 L1426.15 1514.35 L1433.03 1514.35 L1444.46 1551.29 Z" fill="#000000" fill-rule="nonzero" fill-opacity="1"></path><path clip-path="url(#clip710)" d="M1538.81 1513.9 L1538.81 1596.87 L1531.92 1596.87 L1531.92 1513.9 L1538.81 1513.9 Z" fill="#000000" fill-rule="nonzero" fill-opacity="1"></path><path clip-path="url(#clip710)" d="M1559.63 1570.42 L1573 1570.42 L1573 1524.28 L1558.46 1527.19 L1558.46 1519.74 L1572.92 1516.82 L1581.1 1516.82 L1581.1 1570.42 L1594.47 1570.42 L1594.47 1577.3 L1559.63 1577.3 L1559.63 1570.42 Z" fill="#000000" fill-rule="nonzero" fill-opacity="1"></path><path clip-path="url(#clip710)" d="M1628.5 1522.21 Q1622.18 1522.21 1618.98 1528.45 Q1615.82 1534.65 1615.82 1547.12 Q1615.82 1559.56 1618.98 1565.8 Q1622.18 1571.99 1628.5 1571.99 Q1634.86 1571.99 1638.02 1565.8 Q1641.22 1559.56 1641.22 1547.12 Q1641.22 1534.65 1638.02 1528.45 Q1634.86 1522.21 1628.5 1522.21 M1628.5 1515.73 Q1638.66 1515.73 1644.01 1523.79 Q1649.4 1531.81 1649.4 1547.12 Q1649.4 1562.39 1644.01 1570.46 Q1638.66 1578.48 1628.5 1578.48 Q1618.33 1578.48 1612.94 1570.46 Q1607.59 1562.39 1607.59 1547.12 Q1607.59 1531.81 1612.94 1523.79 Q1618.33 1515.73 1628.5 1515.73 Z" fill="#000000" fill-rule="nonzero" fill-opacity="1"></path><path clip-path="url(#clip710)" d="M1665.2 1570.42 L1678.57 1570.42 L1678.57 1524.28 L1664.02 1527.19 L1664.02 1519.74 L1678.48 1516.82 L1686.67 1516.82 L1686.67 1570.42 L1700.03 1570.42 L1700.03 1577.3 L1665.2 1577.3 L1665.2 1570.42 Z" fill="#000000" fill-rule="nonzero" fill-opacity="1"></path><path clip-path="url(#clip710)" d="M1732.64 1551.29 L1721.22 1588.24 L1714.33 1588.24 L1725.76 1551.29 L1714.33 1514.35 L1721.22 1514.35 L1732.64 1551.29 Z" fill="#000000" fill-rule="nonzero" fill-opacity="1"></path><path clip-path="url(#clip710)" d="M1827 1513.9 L1827 1596.87 L1820.11 1596.87 L1820.11 1513.9 L1827 1513.9 Z" fill="#000000" fill-rule="nonzero" fill-opacity="1"></path><path clip-path="url(#clip710)" d="M1847.82 1570.42 L1861.19 1570.42 L1861.19 1524.28 L1846.64 1527.19 L1846.64 1519.74 L1861.11 1516.82 L1869.29 1516.82 L1869.29 1570.42 L1882.66 1570.42 L1882.66 1577.3 L1847.82 1577.3 L1847.82 1570.42 Z" fill="#000000" fill-rule="nonzero" fill-opacity="1"></path><path clip-path="url(#clip710)" d="M1900.6 1570.42 L1913.97 1570.42 L1913.97 1524.28 L1899.43 1527.19 L1899.43 1519.74 L1913.89 1516.82 L1922.07 1516.82 L1922.07 1570.42 L1935.44 1570.42 L1935.44 1577.3 L1900.6 1577.3 L1900.6 1570.42 Z" fill="#000000" fill-rule="nonzero" fill-opacity="1"></path><path clip-path="url(#clip710)" d="M1969.47 1522.21 Q1963.15 1522.21 1959.95 1528.45 Q1956.79 1534.65 1956.79 1547.12 Q1956.79 1559.56 1959.95 1565.8 Q1963.15 1571.99 1969.47 1571.99 Q1975.83 1571.99 1978.99 1565.8 Q1982.19 1559.56 1982.19 1547.12 Q1982.19 1534.65 1978.99 1528.45 Q1975.83 1522.21 1969.47 1522.21 M1969.47 1515.73 Q1979.64 1515.73 1984.98 1523.79 Q1990.37 1531.81 1990.37 1547.12 Q1990.37 1562.39 1984.98 1570.46 Q1979.64 1578.48 1969.47 1578.48 Q1959.3 1578.48 1953.91 1570.46 Q1948.57 1562.39 1948.57 1547.12 Q1948.57 1531.81 1953.91 1523.79 Q1959.3 1515.73 1969.47 1515.73 Z" fill="#000000" fill-rule="nonzero" fill-opacity="1"></path><path clip-path="url(#clip710)" d="M2020.83 1551.29 L2009.41 1588.24 L2002.52 1588.24 L2013.95 1551.29 L2002.52 1514.35 L2009.41 1514.35 L2020.83 1551.29 Z" fill="#000000" fill-rule="nonzero" fill-opacity="1"></path><path clip-path="url(#clip710)" d="M2115.19 1513.9 L2115.19 1596.87 L2108.3 1596.87 L2108.3 1513.9 L2115.19 1513.9 Z" fill="#000000" fill-rule="nonzero" fill-opacity="1"></path><path clip-path="url(#clip710)" d="M2136.01 1570.42 L2149.38 1570.42 L2149.38 1524.28 L2134.83 1527.19 L2134.83 1519.74 L2149.3 1516.82 L2157.48 1516.82 L2157.48 1570.42 L2170.85 1570.42 L2170.85 1577.3 L2136.01 1577.3 L2136.01 1570.42 Z" fill="#000000" fill-rule="nonzero" fill-opacity="1"></path><path clip-path="url(#clip710)" d="M2188.79 1570.42 L2202.16 1570.42 L2202.16 1524.28 L2187.62 1527.19 L2187.62 1519.74 L2202.08 1516.82 L2210.26 1516.82 L2210.26 1570.42 L2223.63 1570.42 L2223.63 1577.3 L2188.79 1577.3 L2188.79 1570.42 Z" fill="#000000" fill-rule="nonzero" fill-opacity="1"></path><path clip-path="url(#clip710)" d="M2241.58 1570.42 L2254.94 1570.42 L2254.94 1524.28 L2240.4 1527.19 L2240.4 1519.74 L2254.86 1516.82 L2263.04 1516.82 L2263.04 1570.42 L2276.41 1570.42 L2276.41 1577.3 L2241.58 1577.3 L2241.58 1570.42 Z" fill="#000000" fill-rule="nonzero" fill-opacity="1"></path><path clip-path="url(#clip710)" d="M2309.02 1551.29 L2297.6 1588.24 L2290.71 1588.24 L2302.14 1551.29 L2290.71 1514.35 L2297.6 1514.35 L2309.02 1551.29 Z" fill="#000000" fill-rule="nonzero" fill-opacity="1"></path><circle clip-path="url(#clip712)" style="fill:#3da44d; stroke:none; fill-opacity:1" cx="191.339" cy="123.472" r="2"></circle>
<circle clip-path="url(#clip712)" style="fill:#3da44d; stroke:none; fill-opacity:1" cx="479.528" cy="123.472" r="2"></circle>
<circle clip-path="url(#clip712)" style="fill:#3da44d; stroke:none; fill-opacity:1" cx="767.717" cy="123.472" r="2"></circle>
<circle clip-path="url(#clip712)" style="fill:#3da44d; stroke:none; fill-opacity:1" cx="1055.91" cy="123.472" r="2"></circle>
<circle clip-path="url(#clip712)" style="fill:#3da44d; stroke:none; fill-opacity:1" cx="1344.09" cy="123.472" r="2"></circle>
<circle clip-path="url(#clip712)" style="fill:#3da44d; stroke:none; fill-opacity:1" cx="1632.28" cy="123.472" r="2"></circle>
<circle clip-path="url(#clip712)" style="fill:#3da44d; stroke:none; fill-opacity:1" cx="1920.47" cy="123.472" r="2"></circle>
<circle clip-path="url(#clip712)" style="fill:#3da44d; stroke:none; fill-opacity:1" cx="2208.66" cy="123.472" r="2"></circle>
<path clip-path="url(#clip710)" d="M128.874 146.826 L157.433 146.826 L157.433 153.712 L119.03 153.712 L119.03 146.826 Q123.688 142.005 131.709 133.903 Q139.771 125.761 141.837 123.411 Q145.766 118.996 147.305 115.958 Q148.885 112.879 148.885 109.922 Q148.885 105.101 145.482 102.063 Q142.12 99.0249 136.692 99.0249 Q132.844 99.0249 128.55 100.362 Q124.296 101.699 119.435 104.413 L119.435 96.1488 Q124.377 94.1638 128.671 93.1511 Q132.965 92.1384 136.53 92.1384 Q145.928 92.1384 151.518 96.8374 Q157.108 101.536 157.108 109.395 Q157.108 113.122 155.691 116.484 Q154.313 119.806 150.627 124.343 Q149.614 125.518 144.186 131.149 Q138.758 136.739 128.874 146.826 Z" fill="#000000" fill-rule="nonzero" fill-opacity="1"></path><path clip-path="url(#clip710)" d="M174.689 93.2321 L206.813 93.2321 L206.813 100.119 L182.184 100.119 L182.184 114.945 Q183.966 114.337 185.748 114.054 Q187.531 113.73 189.313 113.73 Q199.44 113.73 205.355 119.279 Q211.269 124.829 211.269 134.308 Q211.269 144.071 205.193 149.499 Q199.116 154.887 188.057 154.887 Q184.25 154.887 180.28 154.239 Q176.35 153.591 172.137 152.294 L172.137 144.071 Q175.783 146.056 179.672 147.028 Q183.561 148 187.895 148 Q194.903 148 198.995 144.314 Q203.086 140.628 203.086 134.308 Q203.086 127.989 198.995 124.303 Q194.903 120.616 187.895 120.616 Q184.614 120.616 181.333 121.345 Q178.092 122.075 174.689 123.614 L174.689 93.2321 Z" fill="#000000" fill-rule="nonzero" fill-opacity="1"></path><path clip-path="url(#clip710)" d="M228.809 146.826 L242.177 146.826 L242.177 100.686 L227.635 103.602 L227.635 96.1488 L242.096 93.2321 L250.279 93.2321 L250.279 146.826 L263.647 146.826 L263.647 153.712 L228.809 153.712 L228.809 146.826 Z" fill="#000000" fill-rule="nonzero" fill-opacity="1"></path><path clip-path="url(#clip710)" d="M479.528 98.6198 Q473.208 98.6198 470.008 104.858 Q466.848 111.056 466.848 123.533 Q466.848 135.969 470.008 142.208 Q473.208 148.405 479.528 148.405 Q485.887 148.405 489.047 142.208 Q492.247 135.969 492.247 123.533 Q492.247 111.056 489.047 104.858 Q485.887 98.6198 479.528 98.6198 M479.528 92.1384 Q489.695 92.1384 495.043 100.2 Q500.43 108.22 500.43 123.533 Q500.43 138.805 495.043 146.866 Q489.695 154.887 479.528 154.887 Q469.36 154.887 463.972 146.866 Q458.625 138.805 458.625 123.533 Q458.625 108.22 463.972 100.2 Q469.36 92.1384 479.528 92.1384 Z" fill="#000000" fill-rule="nonzero" fill-opacity="1"></path><path clip-path="url(#clip710)" d="M767.717 98.6198 Q761.397 98.6198 758.197 104.858 Q755.037 111.056 755.037 123.533 Q755.037 135.969 758.197 142.208 Q761.397 148.405 767.717 148.405 Q774.076 148.405 777.236 142.208 Q780.436 135.969 780.436 123.533 Q780.436 111.056 777.236 104.858 Q774.076 98.6198 767.717 98.6198 M767.717 92.1384 Q777.884 92.1384 783.231 100.2 Q788.619 108.22 788.619 123.533 Q788.619 138.805 783.231 146.866 Q777.884 154.887 767.717 154.887 Q757.549 154.887 752.161 146.866 Q746.814 138.805 746.814 123.533 Q746.814 108.22 752.161 100.2 Q757.549 92.1384 767.717 92.1384 Z" fill="#000000" fill-rule="nonzero" fill-opacity="1"></path><path clip-path="url(#clip710)" d="M992.529 146.826 L1021.09 146.826 L1021.09 153.712 L982.685 153.712 L982.685 146.826 Q987.344 142.005 995.365 133.903 Q1003.43 125.761 1005.49 123.411 Q1009.42 118.996 1010.96 115.958 Q1012.54 112.879 1012.54 109.922 Q1012.54 105.101 1009.14 102.063 Q1005.78 99.0249 1000.35 99.0249 Q996.499 99.0249 992.205 100.362 Q987.952 101.699 983.091 104.413 L983.091 96.1488 Q988.033 94.1638 992.327 93.1511 Q996.621 92.1384 1000.19 92.1384 Q1009.58 92.1384 1015.17 96.8374 Q1020.76 101.536 1020.76 109.395 Q1020.76 113.122 1019.35 116.484 Q1017.97 119.806 1014.28 124.343 Q1013.27 125.518 1007.84 131.149 Q1002.41 136.739 992.529 146.826 Z" fill="#000000" fill-rule="nonzero" fill-opacity="1"></path><path clip-path="url(#clip710)" d="M1060.75 100.362 L1040.09 132.647 L1060.75 132.647 L1060.75 100.362 M1058.6 93.2321 L1068.89 93.2321 L1068.89 132.647 L1077.52 132.647 L1077.52 139.453 L1068.89 139.453 L1068.89 153.712 L1060.75 153.712 L1060.75 139.453 L1033.44 139.453 L1033.44 131.554 L1058.6 93.2321 Z" fill="#000000" fill-rule="nonzero" fill-opacity="1"></path><path clip-path="url(#clip710)" d="M1091.29 152.456 L1091.29 145.003 Q1094.37 146.461 1097.53 147.231 Q1100.69 148 1103.73 148 Q1111.83 148 1116.08 142.572 Q1120.38 137.103 1120.98 126.004 Q1118.63 129.488 1115.03 131.351 Q1111.42 133.215 1107.05 133.215 Q1097.97 133.215 1092.67 127.746 Q1087.4 122.237 1087.4 112.717 Q1087.4 103.4 1092.91 97.7691 Q1098.42 92.1384 1107.57 92.1384 Q1118.07 92.1384 1123.58 100.2 Q1129.13 108.22 1129.13 123.533 Q1129.13 137.833 1122.32 146.38 Q1115.56 154.887 1104.09 154.887 Q1101.01 154.887 1097.85 154.279 Q1094.69 153.672 1091.29 152.456 M1107.57 126.814 Q1113.08 126.814 1116.28 123.047 Q1119.52 119.279 1119.52 112.717 Q1119.52 106.195 1116.28 102.428 Q1113.08 98.6198 1107.57 98.6198 Q1102.07 98.6198 1098.82 102.428 Q1095.62 106.195 1095.62 112.717 Q1095.62 119.279 1098.82 123.047 Q1102.07 126.814 1107.57 126.814 Z" fill="#000000" fill-rule="nonzero" fill-opacity="1"></path><path clip-path="url(#clip710)" d="M1274.2 146.826 L1287.56 146.826 L1287.56 100.686 L1273.02 103.602 L1273.02 96.1488 L1287.48 93.2321 L1295.67 93.2321 L1295.67 146.826 L1309.03 146.826 L1309.03 153.712 L1274.2 153.712 L1274.2 146.826 Z" fill="#000000" fill-rule="nonzero" fill-opacity="1"></path><path clip-path="url(#clip710)" d="M1332.61 146.826 L1361.17 146.826 L1361.17 153.712 L1322.77 153.712 L1322.77 146.826 Q1327.43 142.005 1335.45 133.903 Q1343.51 125.761 1345.57 123.411 Q1349.5 118.996 1351.04 115.958 Q1352.62 112.879 1352.62 109.922 Q1352.62 105.101 1349.22 102.063 Q1345.86 99.0249 1340.43 99.0249 Q1336.58 99.0249 1332.29 100.362 Q1328.03 101.699 1323.17 104.413 L1323.17 96.1488 Q1328.11 94.1638 1332.41 93.1511 Q1336.7 92.1384 1340.27 92.1384 Q1349.66 92.1384 1355.25 96.8374 Q1360.84 101.536 1360.84 109.395 Q1360.84 113.122 1359.43 116.484 Q1358.05 119.806 1354.36 124.343 Q1353.35 125.518 1347.92 131.149 Q1342.49 136.739 1332.61 146.826 Z" fill="#000000" fill-rule="nonzero" fill-opacity="1"></path><path clip-path="url(#clip710)" d="M1376.28 93.2321 L1415.17 93.2321 L1415.17 96.7159 L1393.21 153.712 L1384.66 153.712 L1405.32 100.119 L1376.28 100.119 L1376.28 93.2321 Z" fill="#000000" fill-rule="nonzero" fill-opacity="1"></path><path clip-path="url(#clip710)" d="M1561.17 146.826 L1574.54 146.826 L1574.54 100.686 L1560 103.602 L1560 96.1488 L1574.46 93.2321 L1582.64 93.2321 L1582.64 146.826 L1596.01 146.826 L1596.01 153.712 L1561.17 153.712 L1561.17 146.826 Z" fill="#000000" fill-rule="nonzero" fill-opacity="1"></path><path clip-path="url(#clip710)" d="M1630.04 98.6198 Q1623.72 98.6198 1620.52 104.858 Q1617.36 111.056 1617.36 123.533 Q1617.36 135.969 1620.52 142.208 Q1623.72 148.405 1630.04 148.405 Q1636.4 148.405 1639.55 142.208 Q1642.76 135.969 1642.76 123.533 Q1642.76 111.056 1639.55 104.858 Q1636.4 98.6198 1630.04 98.6198 M1630.04 92.1384 Q1640.2 92.1384 1645.55 100.2 Q1650.94 108.22 1650.94 123.533 Q1650.94 138.805 1645.55 146.866 Q1640.2 154.887 1630.04 154.887 Q1619.87 154.887 1614.48 146.866 Q1609.13 138.805 1609.13 123.533 Q1609.13 108.22 1614.48 100.2 Q1619.87 92.1384 1630.04 92.1384 Z" fill="#000000" fill-rule="nonzero" fill-opacity="1"></path><path clip-path="url(#clip710)" d="M1687.8 100.362 L1667.14 132.647 L1687.8 132.647 L1687.8 100.362 M1685.65 93.2321 L1695.94 93.2321 L1695.94 132.647 L1704.57 132.647 L1704.57 139.453 L1695.94 139.453 L1695.94 153.712 L1687.8 153.712 L1687.8 139.453 L1660.5 139.453 L1660.5 131.554 L1685.65 93.2321 Z" fill="#000000" fill-rule="nonzero" fill-opacity="1"></path><path clip-path="url(#clip710)" d="M1851.18 146.826 L1864.55 146.826 L1864.55 100.686 L1850.01 103.602 L1850.01 96.1488 L1864.47 93.2321 L1872.65 93.2321 L1872.65 146.826 L1886.02 146.826 L1886.02 153.712 L1851.18 153.712 L1851.18 146.826 Z" fill="#000000" fill-rule="nonzero" fill-opacity="1"></path><path clip-path="url(#clip710)" d="M1927.34 121.102 Q1933.21 122.358 1936.49 126.328 Q1939.82 130.298 1939.82 136.131 Q1939.82 145.084 1933.66 149.985 Q1927.5 154.887 1916.16 154.887 Q1912.35 154.887 1908.3 154.117 Q1904.29 153.388 1900 151.889 L1900 143.99 Q1903.4 145.975 1907.45 146.988 Q1911.5 148 1915.92 148 Q1923.61 148 1927.62 144.962 Q1931.67 141.924 1931.67 136.131 Q1931.67 130.784 1927.91 127.786 Q1924.18 124.748 1917.5 124.748 L1910.45 124.748 L1910.45 118.024 L1917.82 118.024 Q1923.85 118.024 1927.06 115.634 Q1930.26 113.203 1930.26 108.666 Q1930.26 104.008 1926.93 101.536 Q1923.65 99.0249 1917.5 99.0249 Q1914.13 99.0249 1910.28 99.7541 Q1906.44 100.483 1901.82 102.023 L1901.82 94.731 Q1906.48 93.4347 1910.53 92.7865 Q1914.62 92.1384 1918.22 92.1384 Q1927.54 92.1384 1932.97 96.3918 Q1938.4 100.605 1938.4 107.815 Q1938.4 112.839 1935.52 116.322 Q1932.65 119.766 1927.34 121.102 Z" fill="#000000" fill-rule="nonzero" fill-opacity="1"></path><path clip-path="url(#clip710)" d="M1962.38 146.826 L1990.94 146.826 L1990.94 153.712 L1952.54 153.712 L1952.54 146.826 Q1957.19 142.005 1965.21 133.903 Q1973.28 125.761 1975.34 123.411 Q1979.27 118.996 1980.81 115.958 Q1982.39 112.879 1982.39 109.922 Q1982.39 105.101 1978.99 102.063 Q1975.63 99.0249 1970.2 99.0249 Q1966.35 99.0249 1962.05 100.362 Q1957.8 101.699 1952.94 104.413 L1952.94 96.1488 Q1957.88 94.1638 1962.18 93.1511 Q1966.47 92.1384 1970.04 92.1384 Q1979.43 92.1384 1985.02 96.8374 Q1990.61 101.536 1990.61 109.395 Q1990.61 113.122 1989.2 116.484 Q1987.82 119.806 1984.13 124.343 Q1983.12 125.518 1977.69 131.149 Q1972.26 136.739 1962.38 146.826 Z" fill="#000000" fill-rule="nonzero" fill-opacity="1"></path><path clip-path="url(#clip710)" d="M2138.76 146.826 L2152.13 146.826 L2152.13 100.686 L2137.59 103.602 L2137.59 96.1488 L2152.05 93.2321 L2160.23 93.2321 L2160.23 146.826 L2173.6 146.826 L2173.6 153.712 L2138.76 153.712 L2138.76 146.826 Z" fill="#000000" fill-rule="nonzero" fill-opacity="1"></path><path clip-path="url(#clip710)" d="M2214.92 121.102 Q2220.79 122.358 2224.08 126.328 Q2227.4 130.298 2227.4 136.131 Q2227.4 145.084 2221.24 149.985 Q2215.08 154.887 2203.74 154.887 Q2199.93 154.887 2195.88 154.117 Q2191.87 153.388 2187.58 151.889 L2187.58 143.99 Q2190.98 145.975 2195.03 146.988 Q2199.08 148 2203.5 148 Q2211.19 148 2215.2 144.962 Q2219.25 141.924 2219.25 136.131 Q2219.25 130.784 2215.49 127.786 Q2211.76 124.748 2205.08 124.748 L2198.03 124.748 L2198.03 118.024 L2205.4 118.024 Q2211.44 118.024 2214.64 115.634 Q2217.84 113.203 2217.84 108.666 Q2217.84 104.008 2214.51 101.536 Q2211.23 99.0249 2205.08 99.0249 Q2201.71 99.0249 2197.87 99.7541 Q2194.02 100.483 2189.4 102.023 L2189.4 94.731 Q2194.06 93.4347 2198.11 92.7865 Q2202.2 92.1384 2205.81 92.1384 Q2215.12 92.1384 2220.55 96.3918 Q2225.98 100.605 2225.98 107.815 Q2225.98 112.839 2223.1 116.322 Q2220.23 119.766 2214.92 121.102 Z" fill="#000000" fill-rule="nonzero" fill-opacity="1"></path><path clip-path="url(#clip710)" d="M2240.85 93.2321 L2279.73 93.2321 L2279.73 96.7159 L2257.78 153.712 L2249.23 153.712 L2269.89 100.119 L2240.85 100.119 L2240.85 93.2321 Z" fill="#000000" fill-rule="nonzero" fill-opacity="1"></path><path clip-path="url(#clip710)" d="M1593.37 274.795 L2275.91 274.795 L2275.91 171.115 L1593.37 171.115  Z" fill="#000000" fill-rule="evenodd" fill-opacity="0"></path>
<polyline clip-path="url(#clip710)" style="stroke:#000000; stroke-linecap:round; stroke-linejoin:round; stroke-width:4; stroke-opacity:0; fill:none" points="1593.37,274.795 2275.91,274.795 2275.91,171.115 1593.37,171.115 1593.37,274.795 "></polyline>
<path clip-path="url(#clip710)" d="M1618.98 243.691 L1772.68 243.691 L1772.68 202.219 L1618.98 202.219 L1618.98 243.691  Z" fill="#ff0000" fill-rule="evenodd" fill-opacity="1"></path>
<polyline clip-path="url(#clip710)" style="stroke:#add8e6; stroke-linecap:round; stroke-linejoin:round; stroke-width:4; stroke-opacity:1; fill:none" points="1618.98,243.691 1772.68,243.691 1772.68,202.219 1618.98,202.219 1618.98,243.691 "></polyline>
<path clip-path="url(#clip710)" d="M1798.3 205.675 L1818.16 205.675 L1818.16 209.61 L1802.98 209.61 L1802.98 219.795 L1816.68 219.795 L1816.68 223.73 L1802.98 223.73 L1802.98 240.235 L1798.3 240.235 L1798.3 205.675 Z" fill="#000000" fill-rule="nonzero" fill-opacity="1"></path><path clip-path="url(#clip710)" d="M1833.74 217.295 Q1830.31 217.295 1828.32 219.98 Q1826.33 222.642 1826.33 227.295 Q1826.33 231.948 1828.3 234.633 Q1830.29 237.295 1833.74 237.295 Q1837.14 237.295 1839.13 234.61 Q1841.12 231.925 1841.12 227.295 Q1841.12 222.689 1839.13 220.004 Q1837.14 217.295 1833.74 217.295 M1833.74 213.684 Q1839.3 213.684 1842.47 217.295 Q1845.64 220.906 1845.64 227.295 Q1845.64 233.661 1842.47 237.295 Q1839.3 240.906 1833.74 240.906 Q1828.16 240.906 1824.99 237.295 Q1821.84 233.661 1821.84 227.295 Q1821.84 220.906 1824.99 217.295 Q1828.16 213.684 1833.74 213.684 Z" fill="#000000" fill-rule="nonzero" fill-opacity="1"></path><path clip-path="url(#clip710)" d="M1852.26 230.003 L1852.26 214.309 L1856.52 214.309 L1856.52 229.841 Q1856.52 233.522 1857.95 235.374 Q1859.39 237.203 1862.26 237.203 Q1865.71 237.203 1867.7 235.003 Q1869.71 232.804 1869.71 229.008 L1869.71 214.309 L1873.97 214.309 L1873.97 240.235 L1869.71 240.235 L1869.71 236.253 Q1868.16 238.615 1866.1 239.772 Q1864.06 240.906 1861.36 240.906 Q1856.89 240.906 1854.57 238.128 Q1852.26 235.351 1852.26 230.003 M1862.98 213.684 L1862.98 213.684 Z" fill="#000000" fill-rule="nonzero" fill-opacity="1"></path><path clip-path="url(#clip710)" d="M1904.3 224.587 L1904.3 240.235 L1900.04 240.235 L1900.04 224.726 Q1900.04 221.045 1898.6 219.217 Q1897.17 217.388 1894.3 217.388 Q1890.85 217.388 1888.86 219.587 Q1886.86 221.786 1886.86 225.582 L1886.86 240.235 L1882.58 240.235 L1882.58 214.309 L1886.86 214.309 L1886.86 218.337 Q1888.39 215.999 1890.45 214.842 Q1892.54 213.684 1895.24 213.684 Q1899.71 213.684 1902 216.462 Q1904.3 219.217 1904.3 224.587 Z" fill="#000000" fill-rule="nonzero" fill-opacity="1"></path><path clip-path="url(#clip710)" d="M1929.85 218.244 L1929.85 204.217 L1934.11 204.217 L1934.11 240.235 L1929.85 240.235 L1929.85 236.346 Q1928.51 238.661 1926.45 239.795 Q1924.41 240.906 1921.54 240.906 Q1916.84 240.906 1913.88 237.156 Q1910.94 233.406 1910.94 227.295 Q1910.94 221.184 1913.88 217.434 Q1916.84 213.684 1921.54 213.684 Q1924.41 213.684 1926.45 214.818 Q1928.51 215.929 1929.85 218.244 M1915.34 227.295 Q1915.34 231.994 1917.26 234.679 Q1919.2 237.341 1922.58 237.341 Q1925.96 237.341 1927.91 234.679 Q1929.85 231.994 1929.85 227.295 Q1929.85 222.596 1927.91 219.934 Q1925.96 217.249 1922.58 217.249 Q1919.2 217.249 1917.26 219.934 Q1915.34 222.596 1915.34 227.295 Z" fill="#000000" fill-rule="nonzero" fill-opacity="1"></path><path clip-path="url(#clip710)" d="M1957.95 214.309 L1962.21 214.309 L1962.21 240.235 L1957.95 240.235 L1957.95 214.309 M1957.95 204.217 L1962.21 204.217 L1962.21 209.61 L1957.95 209.61 L1957.95 204.217 Z" fill="#000000" fill-rule="nonzero" fill-opacity="1"></path><path clip-path="url(#clip710)" d="M1992.67 224.587 L1992.67 240.235 L1988.42 240.235 L1988.42 224.726 Q1988.42 221.045 1986.98 219.217 Q1985.54 217.388 1982.67 217.388 Q1979.23 217.388 1977.23 219.587 Q1975.24 221.786 1975.24 225.582 L1975.24 240.235 L1970.96 240.235 L1970.96 214.309 L1975.24 214.309 L1975.24 218.337 Q1976.77 215.999 1978.83 214.842 Q1980.92 213.684 1983.62 213.684 Q1988.09 213.684 1990.38 216.462 Q1992.67 219.217 1992.67 224.587 Z" fill="#000000" fill-rule="nonzero" fill-opacity="1"></path><path clip-path="url(#clip710)" d="M2017.65 236.3 L2025.29 236.3 L2025.29 209.934 L2016.98 211.601 L2016.98 207.342 L2025.24 205.675 L2029.92 205.675 L2029.92 236.3 L2037.56 236.3 L2037.56 240.235 L2017.65 240.235 L2017.65 236.3 Z" fill="#000000" fill-rule="nonzero" fill-opacity="1"></path><path clip-path="url(#clip710)" d="M2057 208.754 Q2053.39 208.754 2051.56 212.318 Q2049.76 215.86 2049.76 222.99 Q2049.76 230.096 2051.56 233.661 Q2053.39 237.203 2057 237.203 Q2060.64 237.203 2062.44 233.661 Q2064.27 230.096 2064.27 222.99 Q2064.27 215.86 2062.44 212.318 Q2060.64 208.754 2057 208.754 M2057 205.05 Q2062.81 205.05 2065.87 209.656 Q2068.95 214.24 2068.95 222.99 Q2068.95 231.716 2065.87 236.323 Q2062.81 240.906 2057 240.906 Q2051.19 240.906 2048.11 236.323 Q2045.06 231.716 2045.06 222.99 Q2045.06 214.24 2048.11 209.656 Q2051.19 205.05 2057 205.05 Z" fill="#000000" fill-rule="nonzero" fill-opacity="1"></path><path clip-path="url(#clip710)" d="M2087.16 208.754 Q2083.55 208.754 2081.72 212.318 Q2079.92 215.86 2079.92 222.99 Q2079.92 230.096 2081.72 233.661 Q2083.55 237.203 2087.16 237.203 Q2090.8 237.203 2092.6 233.661 Q2094.43 230.096 2094.43 222.99 Q2094.43 215.86 2092.6 212.318 Q2090.8 208.754 2087.16 208.754 M2087.16 205.05 Q2092.97 205.05 2096.03 209.656 Q2099.11 214.24 2099.11 222.99 Q2099.11 231.716 2096.03 236.323 Q2092.97 240.906 2087.16 240.906 Q2081.35 240.906 2078.28 236.323 Q2075.22 231.716 2075.22 222.99 Q2075.22 214.24 2078.28 209.656 Q2081.35 205.05 2087.16 205.05 Z" fill="#000000" fill-rule="nonzero" fill-opacity="1"></path><path clip-path="url(#clip710)" d="M2117.33 208.754 Q2113.72 208.754 2111.89 212.318 Q2110.08 215.86 2110.08 222.99 Q2110.08 230.096 2111.89 233.661 Q2113.72 237.203 2117.33 237.203 Q2120.96 237.203 2122.77 233.661 Q2124.59 230.096 2124.59 222.99 Q2124.59 215.86 2122.77 212.318 Q2120.96 208.754 2117.33 208.754 M2117.33 205.05 Q2123.14 205.05 2126.19 209.656 Q2129.27 214.24 2129.27 222.99 Q2129.27 231.716 2126.19 236.323 Q2123.14 240.906 2117.33 240.906 Q2111.52 240.906 2108.44 236.323 Q2105.38 231.716 2105.38 222.99 Q2105.38 214.24 2108.44 209.656 Q2111.52 205.05 2117.33 205.05 Z" fill="#000000" fill-rule="nonzero" fill-opacity="1"></path><path clip-path="url(#clip710)" d="M2156.17 206.948 L2156.17 214.309 L2164.94 214.309 L2164.94 217.619 L2156.17 217.619 L2156.17 231.693 Q2156.17 234.865 2157.03 235.767 Q2157.9 236.67 2160.57 236.67 L2164.94 236.67 L2164.94 240.235 L2160.57 240.235 Q2155.64 240.235 2153.76 238.406 Q2151.89 236.554 2151.89 231.693 L2151.89 217.619 L2148.76 217.619 L2148.76 214.309 L2151.89 214.309 L2151.89 206.948 L2156.17 206.948 Z" fill="#000000" fill-rule="nonzero" fill-opacity="1"></path><path clip-path="url(#clip710)" d="M2185.57 218.291 Q2184.85 217.874 2183.99 217.689 Q2183.16 217.48 2182.14 217.48 Q2178.53 217.48 2176.59 219.842 Q2174.66 222.179 2174.66 226.578 L2174.66 240.235 L2170.38 240.235 L2170.38 214.309 L2174.66 214.309 L2174.66 218.337 Q2176.01 215.976 2178.16 214.842 Q2180.31 213.684 2183.39 213.684 Q2183.83 213.684 2184.36 213.754 Q2184.9 213.8 2185.54 213.916 L2185.57 218.291 Z" fill="#000000" fill-rule="nonzero" fill-opacity="1"></path><path clip-path="url(#clip710)" d="M2190.03 214.309 L2194.29 214.309 L2194.29 240.235 L2190.03 240.235 L2190.03 214.309 M2190.03 204.217 L2194.29 204.217 L2194.29 209.61 L2190.03 209.61 L2190.03 204.217 Z" fill="#000000" fill-rule="nonzero" fill-opacity="1"></path><path clip-path="url(#clip710)" d="M2225.38 226.207 L2225.38 228.291 L2205.8 228.291 Q2206.08 232.689 2208.44 235.003 Q2210.82 237.295 2215.06 237.295 Q2217.51 237.295 2219.8 236.693 Q2222.12 236.091 2224.39 234.888 L2224.39 238.915 Q2222.09 239.888 2219.69 240.397 Q2217.28 240.906 2214.8 240.906 Q2208.6 240.906 2204.96 237.295 Q2201.35 233.684 2201.35 227.527 Q2201.35 221.161 2204.78 217.434 Q2208.23 213.684 2214.06 213.684 Q2219.29 213.684 2222.33 217.064 Q2225.38 220.42 2225.38 226.207 M2221.12 224.957 Q2221.08 221.462 2219.15 219.379 Q2217.26 217.295 2214.11 217.295 Q2210.54 217.295 2208.39 219.309 Q2206.26 221.323 2205.94 224.98 L2221.12 224.957 Z" fill="#000000" fill-rule="nonzero" fill-opacity="1"></path><path clip-path="url(#clip710)" d="M2248.9 215.073 L2248.9 219.101 Q2247.09 218.175 2245.15 217.712 Q2243.21 217.249 2241.12 217.249 Q2237.95 217.249 2236.35 218.221 Q2234.78 219.193 2234.78 221.138 Q2234.78 222.619 2235.91 223.476 Q2237.05 224.309 2240.47 225.073 L2241.93 225.397 Q2246.47 226.369 2248.37 228.152 Q2250.29 229.911 2250.29 233.082 Q2250.29 236.693 2247.42 238.8 Q2244.57 240.906 2239.57 240.906 Q2237.49 240.906 2235.22 240.49 Q2232.97 240.096 2230.47 239.286 L2230.47 234.888 Q2232.84 236.115 2235.13 236.74 Q2237.42 237.341 2239.66 237.341 Q2242.67 237.341 2244.29 236.323 Q2245.91 235.281 2245.91 233.406 Q2245.91 231.67 2244.73 230.744 Q2243.58 229.818 2239.62 228.962 L2238.14 228.615 Q2234.18 227.781 2232.42 226.068 Q2230.66 224.332 2230.66 221.323 Q2230.66 217.666 2233.25 215.675 Q2235.84 213.684 2240.61 213.684 Q2242.97 213.684 2245.06 214.031 Q2247.14 214.379 2248.9 215.073 Z" fill="#000000" fill-rule="nonzero" fill-opacity="1"></path></svg>