<svg xmlns="http://www.w3.org/2000/svg" xmlns:xlink="http://www.w3.org/1999/xlink" width="600" height="400" viewBox="0 0 2400 1600">
<defs>
  <clipPath id="clip650">
    <rect x="0" y="0" width="2400" height="1600"></rect>
  </clipPath>
</defs>
<path clip-path="url(#clip650)" d="M0 1600 L2400 1600 L2400 0 L0 0  Z" fill="#ffffff" fill-rule="evenodd" fill-opacity="1"></path>
<defs>
  <clipPath id="clip651">
    <rect x="480" y="0" width="1681" height="1600"></rect>
  </clipPath>
</defs>
<path clip-path="url(#clip650)" d="M47.2441 1552.76 L2352.76 1552.76 L2352.76 123.472 L47.2441 123.472  Z" fill="#ffffff" fill-rule="evenodd" fill-opacity="1"></path>
<defs>
  <clipPath id="clip652">
    <rect x="47" y="123" width="2307" height="1430"></rect>
  </clipPath>
</defs>
<path clip-path="url(#clip650)" d="M992.411 12.096 L1000.59 12.096 L1000.59 36.8875 L1030.33 36.8875 L1030.33 12.096 L1038.51 12.096 L1038.51 72.576 L1030.33 72.576 L1030.33 43.7741 L1000.59 43.7741 L1000.59 72.576 L992.411 72.576 L992.411 12.096 Z" fill="#000000" fill-rule="nonzero" fill-opacity="1"></path><path clip-path="url(#clip650)" d="M1054.47 27.2059 L1061.92 27.2059 L1061.92 72.576 L1054.47 72.576 L1054.47 27.2059 M1054.47 9.54393 L1061.92 9.54393 L1061.92 18.9825 L1054.47 18.9825 L1054.47 9.54393 Z" fill="#000000" fill-rule="nonzero" fill-opacity="1"></path><path clip-path="url(#clip650)" d="M1106.44 28.5427 L1106.44 35.5912 Q1103.28 33.9709 1099.88 33.1607 Q1096.48 32.3505 1092.83 32.3505 Q1087.28 32.3505 1084.49 34.0519 Q1081.73 35.7533 1081.73 39.156 Q1081.73 41.7486 1083.72 43.2475 Q1085.7 44.7058 1091.7 46.0426 L1094.25 46.6097 Q1102.19 48.3111 1105.51 51.4303 Q1108.87 54.509 1108.87 60.0587 Q1108.87 66.3781 1103.85 70.0644 Q1098.87 73.7508 1090.12 73.7508 Q1086.47 73.7508 1082.5 73.0216 Q1078.57 72.3329 1074.2 70.9151 L1074.2 63.2184 Q1078.33 65.3654 1082.34 66.4591 Q1086.35 67.5124 1090.28 67.5124 Q1095.55 67.5124 1098.38 65.73 Q1101.22 63.9071 1101.22 60.6258 Q1101.22 57.5877 1099.15 55.9673 Q1097.13 54.3469 1090.2 52.8481 L1087.61 52.2405 Q1080.68 50.7821 1077.6 47.7845 Q1074.52 44.7463 1074.52 39.4801 Q1074.52 33.0797 1079.06 29.5959 Q1083.6 26.1121 1091.94 26.1121 Q1096.07 26.1121 1099.72 26.7198 Q1103.37 27.3274 1106.44 28.5427 Z" fill="#000000" fill-rule="nonzero" fill-opacity="1"></path><path clip-path="url(#clip650)" d="M1128.12 14.324 L1128.12 27.2059 L1143.47 27.2059 L1143.47 32.9987 L1128.12 32.9987 L1128.12 57.6282 Q1128.12 63.1779 1129.62 64.7578 Q1131.15 66.3376 1135.81 66.3376 L1143.47 66.3376 L1143.47 72.576 L1135.81 72.576 Q1127.18 72.576 1123.9 69.3758 Q1120.62 66.1351 1120.62 57.6282 L1120.62 32.9987 L1115.15 32.9987 L1115.15 27.2059 L1120.62 27.2059 L1120.62 14.324 L1128.12 14.324 Z" fill="#000000" fill-rule="nonzero" fill-opacity="1"></path><path clip-path="url(#clip650)" d="M1170.85 32.4315 Q1164.86 32.4315 1161.37 37.1306 Q1157.89 41.7891 1157.89 49.9314 Q1157.89 58.0738 1161.33 62.7728 Q1164.82 67.4314 1170.85 67.4314 Q1176.81 67.4314 1180.29 62.7323 Q1183.78 58.0333 1183.78 49.9314 Q1183.78 41.8701 1180.29 37.1711 Q1176.81 32.4315 1170.85 32.4315 M1170.85 26.1121 Q1180.58 26.1121 1186.13 32.4315 Q1191.68 38.7509 1191.68 49.9314 Q1191.68 61.0714 1186.13 67.4314 Q1180.58 73.7508 1170.85 73.7508 Q1161.09 73.7508 1155.54 67.4314 Q1150.03 61.0714 1150.03 49.9314 Q1150.03 38.7509 1155.54 32.4315 Q1161.09 26.1121 1170.85 26.1121 Z" fill="#000000" fill-rule="nonzero" fill-opacity="1"></path><path clip-path="url(#clip650)" d="M1233.89 49.3643 Q1233.89 41.2625 1230.52 36.8065 Q1227.2 32.3505 1221.17 32.3505 Q1215.17 32.3505 1211.81 36.8065 Q1208.49 41.2625 1208.49 49.3643 Q1208.49 57.4256 1211.81 61.8816 Q1215.17 66.3376 1221.17 66.3376 Q1227.2 66.3376 1230.52 61.8816 Q1233.89 57.4256 1233.89 49.3643 M1241.34 66.9452 Q1241.34 78.5308 1236.19 84.1616 Q1231.05 89.8329 1220.44 89.8329 Q1216.51 89.8329 1213.02 89.2252 Q1209.54 88.6581 1206.26 87.4428 L1206.26 80.1917 Q1209.54 81.9741 1212.74 82.8248 Q1215.94 83.6755 1219.26 83.6755 Q1226.59 83.6755 1230.24 79.8271 Q1233.89 76.0193 1233.89 68.282 L1233.89 64.5957 Q1231.58 68.6061 1227.97 70.5911 Q1224.37 72.576 1219.34 72.576 Q1211 72.576 1205.89 66.2161 Q1200.79 59.8562 1200.79 49.3643 Q1200.79 38.832 1205.89 32.472 Q1211 26.1121 1219.34 26.1121 Q1224.37 26.1121 1227.97 28.0971 Q1231.58 30.082 1233.89 34.0924 L1233.89 27.2059 L1241.34 27.2059 L1241.34 66.9452 Z" fill="#000000" fill-rule="nonzero" fill-opacity="1"></path><path clip-path="url(#clip650)" d="M1282.98 34.1734 Q1281.73 33.4443 1280.23 33.1202 Q1278.77 32.7556 1276.99 32.7556 Q1270.67 32.7556 1267.27 36.8875 Q1263.9 40.9789 1263.9 48.6757 L1263.9 72.576 L1256.41 72.576 L1256.41 27.2059 L1263.9 27.2059 L1263.9 34.2544 Q1266.25 30.1225 1270.02 28.1376 Q1273.79 26.1121 1279.17 26.1121 Q1279.94 26.1121 1280.88 26.2337 Q1281.81 26.3147 1282.94 26.5172 L1282.98 34.1734 Z" fill="#000000" fill-rule="nonzero" fill-opacity="1"></path><path clip-path="url(#clip650)" d="M1311.42 49.7694 Q1302.39 49.7694 1298.9 51.8354 Q1295.42 53.9013 1295.42 58.8839 Q1295.42 62.8538 1298.01 65.2034 Q1300.64 67.5124 1305.14 67.5124 Q1311.34 67.5124 1315.07 63.1374 Q1318.83 58.7219 1318.83 51.4303 L1318.83 49.7694 L1311.42 49.7694 M1326.29 46.6907 L1326.29 72.576 L1318.83 72.576 L1318.83 65.6895 Q1316.28 69.8214 1312.47 71.8063 Q1308.67 73.7508 1303.16 73.7508 Q1296.19 73.7508 1292.06 69.8619 Q1287.97 65.9325 1287.97 59.3701 Q1287.97 51.7138 1293.07 47.825 Q1298.21 43.9361 1308.38 43.9361 L1318.83 43.9361 L1318.83 43.2069 Q1318.83 38.0623 1315.43 35.2672 Q1312.07 32.4315 1305.95 32.4315 Q1302.06 32.4315 1298.38 33.3632 Q1294.69 34.295 1291.29 36.1584 L1291.29 29.2718 Q1295.38 27.692 1299.23 26.9223 Q1303.08 26.1121 1306.72 26.1121 Q1316.56 26.1121 1321.43 31.2163 Q1326.29 36.3204 1326.29 46.6907 Z" fill="#000000" fill-rule="nonzero" fill-opacity="1"></path><path clip-path="url(#clip650)" d="M1376.96 35.9153 Q1379.76 30.8922 1383.65 28.5022 Q1387.54 26.1121 1392.8 26.1121 Q1399.89 26.1121 1403.74 31.0947 Q1407.59 36.0368 1407.59 45.1919 L1407.59 72.576 L1400.09 72.576 L1400.09 45.4349 Q1400.09 38.913 1397.79 35.7533 Q1395.48 32.5936 1390.74 32.5936 Q1384.94 32.5936 1381.58 36.4419 Q1378.22 40.2903 1378.22 46.9338 L1378.22 72.576 L1370.73 72.576 L1370.73 45.4349 Q1370.73 38.8725 1368.42 35.7533 Q1366.11 32.5936 1361.29 32.5936 Q1355.57 32.5936 1352.21 36.4824 Q1348.85 40.3308 1348.85 46.9338 L1348.85 72.576 L1341.36 72.576 L1341.36 27.2059 L1348.85 27.2059 L1348.85 34.2544 Q1351.4 30.082 1354.97 28.0971 Q1358.53 26.1121 1363.43 26.1121 Q1368.38 26.1121 1371.82 28.6237 Q1375.3 31.1352 1376.96 35.9153 Z" fill="#000000" fill-rule="nonzero" fill-opacity="1"></path><path clip-path="url(#clip652)" d="M76.063 175.827 L76.063 1552.76 L306.614 1552.76 L306.614 175.827 L76.063 175.827 L76.063 175.827  Z" fill="#add8e6" fill-rule="evenodd" fill-opacity="1"></path>
<polyline clip-path="url(#clip652)" style="stroke:#add8e6; stroke-linecap:round; stroke-linejoin:round; stroke-width:4; stroke-opacity:1; fill:none" points="76.063,175.827 76.063,1552.76 306.614,1552.76 306.614,175.827 76.063,175.827 "></polyline>
<path clip-path="url(#clip652)" d="M364.252 1552.76 L364.252 1552.76 L594.803 1552.76 L594.803 1552.76 L364.252 1552.76 L364.252 1552.76  Z" fill="#add8e6" fill-rule="evenodd" fill-opacity="1"></path>
<polyline clip-path="url(#clip652)" style="stroke:#add8e6; stroke-linecap:round; stroke-linejoin:round; stroke-width:4; stroke-opacity:1; fill:none" points="364.252,1552.76 364.252,1552.76 594.803,1552.76 364.252,1552.76 "></polyline>
<path clip-path="url(#clip652)" d="M652.441 123.472 L652.441 1552.76 L882.992 1552.76 L882.992 123.472 L652.441 123.472 L652.441 123.472  Z" fill="#add8e6" fill-rule="evenodd" fill-opacity="1"></path>
<polyline clip-path="url(#clip652)" style="stroke:#add8e6; stroke-linecap:round; stroke-linejoin:round; stroke-width:4; stroke-opacity:1; fill:none" points="652.441,123.472 652.441,1552.76 882.992,1552.76 882.992,123.472 652.441,123.472 "></polyline>
<path clip-path="url(#clip652)" d="M940.63 1552.76 L940.63 1552.76 L1171.18 1552.76 L1171.18 1552.76 L940.63 1552.76 L940.63 1552.76  Z" fill="#add8e6" fill-rule="evenodd" fill-opacity="1"></path>
<polyline clip-path="url(#clip652)" style="stroke:#add8e6; stroke-linecap:round; stroke-linejoin:round; stroke-width:4; stroke-opacity:1; fill:none" points="940.63,1552.76 940.63,1552.76 1171.18,1552.76 940.63,1552.76 "></polyline>
<path clip-path="url(#clip652)" d="M1228.82 338.126 L1228.82 1552.76 L1459.37 1552.76 L1459.37 338.126 L1228.82 338.126 L1228.82 338.126  Z" fill="#add8e6" fill-rule="evenodd" fill-opacity="1"></path>
<polyline clip-path="url(#clip652)" style="stroke:#add8e6; stroke-linecap:round; stroke-linejoin:round; stroke-width:4; stroke-opacity:1; fill:none" points="1228.82,338.126 1228.82,1552.76 1459.37,1552.76 1459.37,338.126 1228.82,338.126 "></polyline>
<path clip-path="url(#clip652)" d="M1517.01 1552.76 L1517.01 1552.76 L1747.56 1552.76 L1747.56 1552.76 L1517.01 1552.76 L1517.01 1552.76  Z" fill="#add8e6" fill-rule="evenodd" fill-opacity="1"></path>
<polyline clip-path="url(#clip652)" style="stroke:#add8e6; stroke-linecap:round; stroke-linejoin:round; stroke-width:4; stroke-opacity:1; fill:none" points="1517.01,1552.76 1517.01,1552.76 1747.56,1552.76 1517.01,1552.76 "></polyline>
<path clip-path="url(#clip652)" d="M1805.2 1552.76 L1805.2 1552.76 L2035.75 1552.76 L2035.75 1552.76 L1805.2 1552.76 L1805.2 1552.76  Z" fill="#add8e6" fill-rule="evenodd" fill-opacity="1"></path>
<polyline clip-path="url(#clip652)" style="stroke:#add8e6; stroke-linecap:round; stroke-linejoin:round; stroke-width:4; stroke-opacity:1; fill:none" points="1805.2,1552.76 1805.2,1552.76 2035.75,1552.76 1805.2,1552.76 "></polyline>
<path clip-path="url(#clip652)" d="M2093.39 338.126 L2093.39 1552.76 L2323.94 1552.76 L2323.94 338.126 L2093.39 338.126 L2093.39 338.126  Z" fill="#add8e6" fill-rule="evenodd" fill-opacity="1"></path>
<polyline clip-path="url(#clip652)" style="stroke:#add8e6; stroke-linecap:round; stroke-linejoin:round; stroke-width:4; stroke-opacity:1; fill:none" points="2093.39,338.126 2093.39,1552.76 2323.94,1552.76 2323.94,338.126 2093.39,338.126 "></polyline>
<circle clip-path="url(#clip652)" style="fill:#add8e6; stroke:none; fill-opacity:0" cx="191.339" cy="175.827" r="2"></circle>
<circle clip-path="url(#clip652)" style="fill:#add8e6; stroke:none; fill-opacity:0" cx="479.528" cy="1552.76" r="2"></circle>
<circle clip-path="url(#clip652)" style="fill:#add8e6; stroke:none; fill-opacity:0" cx="767.717" cy="123.472" r="2"></circle>
<circle clip-path="url(#clip652)" style="fill:#add8e6; stroke:none; fill-opacity:0" cx="1055.91" cy="1552.76" r="2"></circle>
<circle clip-path="url(#clip652)" style="fill:#add8e6; stroke:none; fill-opacity:0" cx="1344.09" cy="338.126" r="2"></circle>
<circle clip-path="url(#clip652)" style="fill:#add8e6; stroke:none; fill-opacity:0" cx="1632.28" cy="1552.76" r="2"></circle>
<circle clip-path="url(#clip652)" style="fill:#add8e6; stroke:none; fill-opacity:0" cx="1920.47" cy="1552.76" r="2"></circle>
<circle clip-path="url(#clip652)" style="fill:#add8e6; stroke:none; fill-opacity:0" cx="2208.66" cy="338.126" r="2"></circle>
<circle clip-path="url(#clip652)" style="fill:#e26f46; stroke:none; fill-opacity:1" cx="191.339" cy="1547.52" r="2"></circle>
<circle clip-path="url(#clip652)" style="fill:#e26f46; stroke:none; fill-opacity:1" cx="479.528" cy="1547.52" r="2"></circle>
<circle clip-path="url(#clip652)" style="fill:#e26f46; stroke:none; fill-opacity:1" cx="767.717" cy="1547.52" r="2"></circle>
<circle clip-path="url(#clip652)" style="fill:#e26f46; stroke:none; fill-opacity:1" cx="1055.91" cy="1547.52" r="2"></circle>
<circle clip-path="url(#clip652)" style="fill:#e26f46; stroke:none; fill-opacity:1" cx="1344.09" cy="1547.52" r="2"></circle>
<circle clip-path="url(#clip652)" style="fill:#e26f46; stroke:none; fill-opacity:1" cx="1632.28" cy="1547.52" r="2"></circle>
<circle clip-path="url(#clip652)" style="fill:#e26f46; stroke:none; fill-opacity:1" cx="1920.47" cy="1547.52" r="2"></circle>
<circle clip-path="url(#clip652)" style="fill:#e26f46; stroke:none; fill-opacity:1" cx="2208.66" cy="1547.52" r="2"></circle>
<path clip-path="url(#clip650)" d="M97.864 1514.36 L97.864 1597.33 L90.9774 1597.33 L90.9774 1514.36 L97.864 1514.36 Z" fill="#000000" fill-rule="nonzero" fill-opacity="1"></path><path clip-path="url(#clip650)" d="M134.768 1522.67 Q128.448 1522.67 125.248 1528.91 Q122.088 1535.1 122.088 1547.58 Q122.088 1560.02 125.248 1566.26 Q128.448 1572.45 134.768 1572.45 Q141.128 1572.45 144.287 1566.26 Q147.488 1560.02 147.488 1547.58 Q147.488 1535.1 144.287 1528.91 Q141.128 1522.67 134.768 1522.67 M134.768 1516.19 Q144.935 1516.19 150.283 1524.25 Q155.67 1532.27 155.67 1547.58 Q155.67 1562.85 150.283 1570.91 Q144.935 1578.94 134.768 1578.94 Q124.6 1578.94 119.212 1570.91 Q113.865 1562.85 113.865 1547.58 Q113.865 1532.27 119.212 1524.25 Q124.6 1516.19 134.768 1516.19 Z" fill="#000000" fill-rule="nonzero" fill-opacity="1"></path><path clip-path="url(#clip650)" d="M187.551 1522.67 Q181.232 1522.67 178.031 1528.91 Q174.872 1535.1 174.872 1547.58 Q174.872 1560.02 178.031 1566.26 Q181.232 1572.45 187.551 1572.45 Q193.911 1572.45 197.071 1566.26 Q200.271 1560.02 200.271 1547.58 Q200.271 1535.1 197.071 1528.91 Q193.911 1522.67 187.551 1522.67 M187.551 1516.19 Q197.719 1516.19 203.066 1524.25 Q208.454 1532.27 208.454 1547.58 Q208.454 1562.85 203.066 1570.91 Q197.719 1578.94 187.551 1578.94 Q177.383 1578.94 171.996 1570.91 Q166.648 1562.85 166.648 1547.58 Q166.648 1532.27 171.996 1524.25 Q177.383 1516.19 187.551 1516.19 Z" fill="#000000" fill-rule="nonzero" fill-opacity="1"></path><path clip-path="url(#clip650)" d="M240.334 1522.67 Q234.015 1522.67 230.815 1528.91 Q227.655 1535.1 227.655 1547.58 Q227.655 1560.02 230.815 1566.26 Q234.015 1572.45 240.334 1572.45 Q246.694 1572.45 249.854 1566.26 Q253.054 1560.02 253.054 1547.58 Q253.054 1535.1 249.854 1528.91 Q246.694 1522.67 240.334 1522.67 M240.334 1516.19 Q250.502 1516.19 255.849 1524.25 Q261.237 1532.27 261.237 1547.58 Q261.237 1562.85 255.849 1570.91 Q250.502 1578.94 240.334 1578.94 Q230.166 1578.94 224.779 1570.91 Q219.432 1562.85 219.432 1547.58 Q219.432 1532.27 224.779 1524.25 Q230.166 1516.19 240.334 1516.19 Z" fill="#000000" fill-rule="nonzero" fill-opacity="1"></path><path clip-path="url(#clip650)" d="M291.7 1551.75 L280.276 1588.7 L273.39 1588.7 L284.813 1551.75 L273.39 1514.81 L280.276 1514.81 L291.7 1551.75 Z" fill="#000000" fill-rule="nonzero" fill-opacity="1"></path><path clip-path="url(#clip650)" d="M386.053 1514.36 L386.053 1597.33 L379.166 1597.33 L379.166 1514.36 L386.053 1514.36 Z" fill="#000000" fill-rule="nonzero" fill-opacity="1"></path><path clip-path="url(#clip650)" d="M422.957 1522.67 Q416.637 1522.67 413.437 1528.91 Q410.277 1535.1 410.277 1547.58 Q410.277 1560.02 413.437 1566.26 Q416.637 1572.45 422.957 1572.45 Q429.317 1572.45 432.476 1566.26 Q435.677 1560.02 435.677 1547.58 Q435.677 1535.1 432.476 1528.91 Q429.317 1522.67 422.957 1522.67 M422.957 1516.19 Q433.124 1516.19 438.472 1524.25 Q443.859 1532.27 443.859 1547.58 Q443.859 1562.85 438.472 1570.91 Q433.124 1578.94 422.957 1578.94 Q412.789 1578.94 407.401 1570.91 Q402.054 1562.85 402.054 1547.58 Q402.054 1532.27 407.401 1524.25 Q412.789 1516.19 422.957 1516.19 Z" fill="#000000" fill-rule="nonzero" fill-opacity="1"></path><path clip-path="url(#clip650)" d="M475.74 1522.67 Q469.421 1522.67 466.22 1528.91 Q463.061 1535.1 463.061 1547.58 Q463.061 1560.02 466.22 1566.26 Q469.421 1572.45 475.74 1572.45 Q482.1 1572.45 485.26 1566.26 Q488.46 1560.02 488.46 1547.58 Q488.46 1535.1 485.26 1528.91 Q482.1 1522.67 475.74 1522.67 M475.74 1516.19 Q485.908 1516.19 491.255 1524.25 Q496.643 1532.27 496.643 1547.58 Q496.643 1562.85 491.255 1570.91 Q485.908 1578.94 475.74 1578.94 Q465.572 1578.94 460.184 1570.91 Q454.837 1562.85 454.837 1547.58 Q454.837 1532.27 460.184 1524.25 Q465.572 1516.19 475.74 1516.19 Z" fill="#000000" fill-rule="nonzero" fill-opacity="1"></path><path clip-path="url(#clip650)" d="M512.441 1570.87 L525.809 1570.87 L525.809 1524.73 L511.266 1527.65 L511.266 1520.2 L525.728 1517.28 L533.911 1517.28 L533.911 1570.87 L547.279 1570.87 L547.279 1577.76 L512.441 1577.76 L512.441 1570.87 Z" fill="#000000" fill-rule="nonzero" fill-opacity="1"></path><path clip-path="url(#clip650)" d="M579.889 1551.75 L568.465 1588.7 L561.579 1588.7 L573.002 1551.75 L561.579 1514.81 L568.465 1514.81 L579.889 1551.75 Z" fill="#000000" fill-rule="nonzero" fill-opacity="1"></path><path clip-path="url(#clip650)" d="M674.242 1514.36 L674.242 1597.33 L667.355 1597.33 L667.355 1514.36 L674.242 1514.36 Z" fill="#000000" fill-rule="nonzero" fill-opacity="1"></path><path clip-path="url(#clip650)" d="M711.146 1522.67 Q704.826 1522.67 701.626 1528.91 Q698.466 1535.1 698.466 1547.58 Q698.466 1560.02 701.626 1566.26 Q704.826 1572.45 711.146 1572.45 Q717.506 1572.45 720.665 1566.26 Q723.865 1560.02 723.865 1547.58 Q723.865 1535.1 720.665 1528.91 Q717.506 1522.67 711.146 1522.67 M711.146 1516.19 Q721.313 1516.19 726.661 1524.25 Q732.048 1532.27 732.048 1547.58 Q732.048 1562.85 726.661 1570.91 Q721.313 1578.94 711.146 1578.94 Q700.978 1578.94 695.59 1570.91 Q690.243 1562.85 690.243 1547.58 Q690.243 1532.27 695.59 1524.25 Q700.978 1516.19 711.146 1516.19 Z" fill="#000000" fill-rule="nonzero" fill-opacity="1"></path><path clip-path="url(#clip650)" d="M747.847 1570.87 L761.215 1570.87 L761.215 1524.73 L746.672 1527.65 L746.672 1520.2 L761.134 1517.28 L769.317 1517.28 L769.317 1570.87 L782.685 1570.87 L782.685 1577.76 L747.847 1577.76 L747.847 1570.87 Z" fill="#000000" fill-rule="nonzero" fill-opacity="1"></path><path clip-path="url(#clip650)" d="M816.712 1522.67 Q810.393 1522.67 807.193 1528.91 Q804.033 1535.1 804.033 1547.58 Q804.033 1560.02 807.193 1566.26 Q810.393 1572.45 816.712 1572.45 Q823.072 1572.45 826.232 1566.26 Q829.432 1560.02 829.432 1547.58 Q829.432 1535.1 826.232 1528.91 Q823.072 1522.67 816.712 1522.67 M816.712 1516.19 Q826.88 1516.19 832.227 1524.25 Q837.615 1532.27 837.615 1547.58 Q837.615 1562.85 832.227 1570.91 Q826.88 1578.94 816.712 1578.94 Q806.544 1578.94 801.157 1570.91 Q795.81 1562.85 795.81 1547.58 Q795.81 1532.27 801.157 1524.25 Q806.544 1516.19 816.712 1516.19 Z" fill="#000000" fill-rule="nonzero" fill-opacity="1"></path><path clip-path="url(#clip650)" d="M868.078 1551.75 L856.654 1588.7 L849.768 1588.7 L861.191 1551.75 L849.768 1514.81 L856.654 1514.81 L868.078 1551.75 Z" fill="#000000" fill-rule="nonzero" fill-opacity="1"></path><path clip-path="url(#clip650)" d="M962.431 1514.36 L962.431 1597.33 L955.544 1597.33 L955.544 1514.36 L962.431 1514.36 Z" fill="#000000" fill-rule="nonzero" fill-opacity="1"></path><path clip-path="url(#clip650)" d="M999.335 1522.67 Q993.015 1522.67 989.815 1528.91 Q986.655 1535.1 986.655 1547.58 Q986.655 1560.02 989.815 1566.26 Q993.015 1572.45 999.335 1572.45 Q1005.69 1572.45 1008.85 1566.26 Q1012.05 1560.02 1012.05 1547.58 Q1012.05 1535.1 1008.85 1528.91 Q1005.69 1522.67 999.335 1522.67 M999.335 1516.19 Q1009.5 1516.19 1014.85 1524.25 Q1020.24 1532.27 1020.24 1547.58 Q1020.24 1562.85 1014.85 1570.91 Q1009.5 1578.94 999.335 1578.94 Q989.167 1578.94 983.779 1570.91 Q978.432 1562.85 978.432 1547.58 Q978.432 1532.27 983.779 1524.25 Q989.167 1516.19 999.335 1516.19 Z" fill="#000000" fill-rule="nonzero" fill-opacity="1"></path><path clip-path="url(#clip650)" d="M1036.04 1570.87 L1049.4 1570.87 L1049.4 1524.73 L1034.86 1527.65 L1034.86 1520.2 L1049.32 1517.28 L1057.51 1517.28 L1057.51 1570.87 L1070.87 1570.87 L1070.87 1577.76 L1036.04 1577.76 L1036.04 1570.87 Z" fill="#000000" fill-rule="nonzero" fill-opacity="1"></path><path clip-path="url(#clip650)" d="M1088.82 1570.87 L1102.19 1570.87 L1102.19 1524.73 L1087.64 1527.65 L1087.64 1520.2 L1102.11 1517.28 L1110.29 1517.28 L1110.29 1570.87 L1123.66 1570.87 L1123.66 1577.76 L1088.82 1577.76 L1088.82 1570.87 Z" fill="#000000" fill-rule="nonzero" fill-opacity="1"></path><path clip-path="url(#clip650)" d="M1156.27 1551.75 L1144.84 1588.7 L1137.96 1588.7 L1149.38 1551.75 L1137.96 1514.81 L1144.84 1514.81 L1156.27 1551.75 Z" fill="#000000" fill-rule="nonzero" fill-opacity="1"></path><path clip-path="url(#clip650)" d="M1250.62 1514.36 L1250.62 1597.33 L1243.73 1597.33 L1243.73 1514.36 L1250.62 1514.36 Z" fill="#000000" fill-rule="nonzero" fill-opacity="1"></path><path clip-path="url(#clip650)" d="M1271.44 1570.87 L1284.81 1570.87 L1284.81 1524.73 L1270.27 1527.65 L1270.27 1520.2 L1284.73 1517.28 L1292.91 1517.28 L1292.91 1570.87 L1306.28 1570.87 L1306.28 1577.76 L1271.44 1577.76 L1271.44 1570.87 Z" fill="#000000" fill-rule="nonzero" fill-opacity="1"></path><path clip-path="url(#clip650)" d="M1340.31 1522.67 Q1333.99 1522.67 1330.79 1528.91 Q1327.63 1535.1 1327.63 1547.58 Q1327.63 1560.02 1330.79 1566.26 Q1333.99 1572.45 1340.31 1572.45 Q1346.67 1572.45 1349.83 1566.26 Q1353.03 1560.02 1353.03 1547.58 Q1353.03 1535.1 1349.83 1528.91 Q1346.67 1522.67 1340.31 1522.67 M1340.31 1516.19 Q1350.47 1516.19 1355.82 1524.25 Q1361.21 1532.27 1361.21 1547.58 Q1361.21 1562.85 1355.82 1570.91 Q1350.47 1578.94 1340.31 1578.94 Q1330.14 1578.94 1324.75 1570.91 Q1319.4 1562.85 1319.4 1547.58 Q1319.4 1532.27 1324.75 1524.25 Q1330.14 1516.19 1340.31 1516.19 Z" fill="#000000" fill-rule="nonzero" fill-opacity="1"></path><path clip-path="url(#clip650)" d="M1393.09 1522.67 Q1386.77 1522.67 1383.57 1528.91 Q1380.41 1535.1 1380.41 1547.58 Q1380.41 1560.02 1383.57 1566.26 Q1386.77 1572.45 1393.09 1572.45 Q1399.45 1572.45 1402.61 1566.26 Q1405.81 1560.02 1405.81 1547.58 Q1405.81 1535.1 1402.61 1528.91 Q1399.45 1522.67 1393.09 1522.67 M1393.09 1516.19 Q1403.26 1516.19 1408.61 1524.25 Q1413.99 1532.27 1413.99 1547.58 Q1413.99 1562.85 1408.61 1570.91 Q1403.26 1578.94 1393.09 1578.94 Q1382.92 1578.94 1377.53 1570.91 Q1372.19 1562.85 1372.19 1547.58 Q1372.19 1532.27 1377.53 1524.25 Q1382.92 1516.19 1393.09 1516.19 Z" fill="#000000" fill-rule="nonzero" fill-opacity="1"></path><path clip-path="url(#clip650)" d="M1444.46 1551.75 L1433.03 1588.7 L1426.15 1588.7 L1437.57 1551.75 L1426.15 1514.81 L1433.03 1514.81 L1444.46 1551.75 Z" fill="#000000" fill-rule="nonzero" fill-opacity="1"></path><path clip-path="url(#clip650)" d="M1538.81 1514.36 L1538.81 1597.33 L1531.92 1597.33 L1531.92 1514.36 L1538.81 1514.36 Z" fill="#000000" fill-rule="nonzero" fill-opacity="1"></path><path clip-path="url(#clip650)" d="M1559.63 1570.87 L1573 1570.87 L1573 1524.73 L1558.46 1527.65 L1558.46 1520.2 L1572.92 1517.28 L1581.1 1517.28 L1581.1 1570.87 L1594.47 1570.87 L1594.47 1577.76 L1559.63 1577.76 L1559.63 1570.87 Z" fill="#000000" fill-rule="nonzero" fill-opacity="1"></path><path clip-path="url(#clip650)" d="M1628.5 1522.67 Q1622.18 1522.67 1618.98 1528.91 Q1615.82 1535.1 1615.82 1547.58 Q1615.82 1560.02 1618.98 1566.26 Q1622.18 1572.45 1628.5 1572.45 Q1634.86 1572.45 1638.02 1566.26 Q1641.22 1560.02 1641.22 1547.58 Q1641.22 1535.1 1638.02 1528.91 Q1634.86 1522.67 1628.5 1522.67 M1628.5 1516.19 Q1638.66 1516.19 1644.01 1524.25 Q1649.4 1532.27 1649.4 1547.58 Q1649.4 1562.85 1644.01 1570.91 Q1638.66 1578.94 1628.5 1578.94 Q1618.33 1578.94 1612.94 1570.91 Q1607.59 1562.85 1607.59 1547.58 Q1607.59 1532.27 1612.94 1524.25 Q1618.33 1516.19 1628.5 1516.19 Z" fill="#000000" fill-rule="nonzero" fill-opacity="1"></path><path clip-path="url(#clip650)" d="M1665.2 1570.87 L1678.57 1570.87 L1678.57 1524.73 L1664.02 1527.65 L1664.02 1520.2 L1678.48 1517.28 L1686.67 1517.28 L1686.67 1570.87 L1700.03 1570.87 L1700.03 1577.76 L1665.2 1577.76 L1665.2 1570.87 Z" fill="#000000" fill-rule="nonzero" fill-opacity="1"></path><path clip-path="url(#clip650)" d="M1732.64 1551.75 L1721.22 1588.7 L1714.33 1588.7 L1725.76 1551.75 L1714.33 1514.81 L1721.22 1514.81 L1732.64 1551.75 Z" fill="#000000" fill-rule="nonzero" fill-opacity="1"></path><path clip-path="url(#clip650)" d="M1827 1514.36 L1827 1597.33 L1820.11 1597.33 L1820.11 1514.36 L1827 1514.36 Z" fill="#000000" fill-rule="nonzero" fill-opacity="1"></path><path clip-path="url(#clip650)" d="M1847.82 1570.87 L1861.19 1570.87 L1861.19 1524.73 L1846.64 1527.65 L1846.64 1520.2 L1861.11 1517.28 L1869.29 1517.28 L1869.29 1570.87 L1882.66 1570.87 L1882.66 1577.76 L1847.82 1577.76 L1847.82 1570.87 Z" fill="#000000" fill-rule="nonzero" fill-opacity="1"></path><path clip-path="url(#clip650)" d="M1900.6 1570.87 L1913.97 1570.87 L1913.97 1524.73 L1899.43 1527.65 L1899.43 1520.2 L1913.89 1517.28 L1922.07 1517.28 L1922.07 1570.87 L1935.44 1570.87 L1935.44 1577.76 L1900.6 1577.76 L1900.6 1570.87 Z" fill="#000000" fill-rule="nonzero" fill-opacity="1"></path><path clip-path="url(#clip650)" d="M1969.47 1522.67 Q1963.15 1522.67 1959.95 1528.91 Q1956.79 1535.1 1956.79 1547.58 Q1956.79 1560.02 1959.95 1566.26 Q1963.15 1572.45 1969.47 1572.45 Q1975.83 1572.45 1978.99 1566.26 Q1982.19 1560.02 1982.19 1547.58 Q1982.19 1535.1 1978.99 1528.91 Q1975.83 1522.67 1969.47 1522.67 M1969.47 1516.19 Q1979.64 1516.19 1984.98 1524.25 Q1990.37 1532.27 1990.37 1547.58 Q1990.37 1562.85 1984.98 1570.91 Q1979.64 1578.94 1969.47 1578.94 Q1959.3 1578.94 1953.91 1570.91 Q1948.57 1562.85 1948.57 1547.58 Q1948.57 1532.27 1953.91 1524.25 Q1959.3 1516.19 1969.47 1516.19 Z" fill="#000000" fill-rule="nonzero" fill-opacity="1"></path><path clip-path="url(#clip650)" d="M2020.83 1551.75 L2009.41 1588.7 L2002.52 1588.7 L2013.95 1551.75 L2002.52 1514.81 L2009.41 1514.81 L2020.83 1551.75 Z" fill="#000000" fill-rule="nonzero" fill-opacity="1"></path><path clip-path="url(#clip650)" d="M2115.19 1514.36 L2115.19 1597.33 L2108.3 1597.33 L2108.3 1514.36 L2115.19 1514.36 Z" fill="#000000" fill-rule="nonzero" fill-opacity="1"></path><path clip-path="url(#clip650)" d="M2136.01 1570.87 L2149.38 1570.87 L2149.38 1524.73 L2134.83 1527.65 L2134.83 1520.2 L2149.3 1517.28 L2157.48 1517.28 L2157.48 1570.87 L2170.85 1570.87 L2170.85 1577.76 L2136.01 1577.76 L2136.01 1570.87 Z" fill="#000000" fill-rule="nonzero" fill-opacity="1"></path><path clip-path="url(#clip650)" d="M2188.79 1570.87 L2202.16 1570.87 L2202.16 1524.73 L2187.62 1527.65 L2187.62 1520.2 L2202.08 1517.28 L2210.26 1517.28 L2210.26 1570.87 L2223.63 1570.87 L2223.63 1577.76 L2188.79 1577.76 L2188.79 1570.87 Z" fill="#000000" fill-rule="nonzero" fill-opacity="1"></path><path clip-path="url(#clip650)" d="M2241.58 1570.87 L2254.94 1570.87 L2254.94 1524.73 L2240.4 1527.65 L2240.4 1520.2 L2254.86 1517.28 L2263.04 1517.28 L2263.04 1570.87 L2276.41 1570.87 L2276.41 1577.76 L2241.58 1577.76 L2241.58 1570.87 Z" fill="#000000" fill-rule="nonzero" fill-opacity="1"></path><path clip-path="url(#clip650)" d="M2309.02 1551.75 L2297.6 1588.7 L2290.71 1588.7 L2302.14 1551.75 L2290.71 1514.81 L2297.6 1514.81 L2309.02 1551.75 Z" fill="#000000" fill-rule="nonzero" fill-opacity="1"></path><circle clip-path="url(#clip652)" style="fill:#3da44d; stroke:none; fill-opacity:1" cx="191.339" cy="123.472" r="2"></circle>
<circle clip-path="url(#clip652)" style="fill:#3da44d; stroke:none; fill-opacity:1" cx="479.528" cy="123.472" r="2"></circle>
<circle clip-path="url(#clip652)" style="fill:#3da44d; stroke:none; fill-opacity:1" cx="767.717" cy="123.472" r="2"></circle>
<circle clip-path="url(#clip652)" style="fill:#3da44d; stroke:none; fill-opacity:1" cx="1055.91" cy="123.472" r="2"></circle>
<circle clip-path="url(#clip652)" style="fill:#3da44d; stroke:none; fill-opacity:1" cx="1344.09" cy="123.472" r="2"></circle>
<circle clip-path="url(#clip652)" style="fill:#3da44d; stroke:none; fill-opacity:1" cx="1632.28" cy="123.472" r="2"></circle>
<circle clip-path="url(#clip652)" style="fill:#3da44d; stroke:none; fill-opacity:1" cx="1920.47" cy="123.472" r="2"></circle>
<circle clip-path="url(#clip652)" style="fill:#3da44d; stroke:none; fill-opacity:1" cx="2208.66" cy="123.472" r="2"></circle>
<path clip-path="url(#clip650)" d="M128.367 146.826 L156.926 146.826 L156.926 153.712 L118.524 153.712 L118.524 146.826 Q123.182 142.005 131.203 133.903 Q139.264 125.761 141.33 123.411 Q145.26 118.996 146.799 115.958 Q148.379 112.879 148.379 109.922 Q148.379 105.101 144.976 102.063 Q141.614 99.0249 136.186 99.0249 Q132.337 99.0249 128.043 100.362 Q123.79 101.699 118.929 104.413 L118.929 96.1488 Q123.871 94.1638 128.165 93.1511 Q132.459 92.1384 136.023 92.1384 Q145.422 92.1384 151.012 96.8374 Q156.602 101.536 156.602 109.395 Q156.602 113.122 155.184 116.484 Q153.807 119.806 150.121 124.343 Q149.108 125.518 143.68 131.149 Q138.251 136.739 128.367 146.826 Z" fill="#000000" fill-rule="nonzero" fill-opacity="1"></path><path clip-path="url(#clip650)" d="M192.615 120.211 Q187.105 120.211 183.865 123.978 Q180.664 127.746 180.664 134.308 Q180.664 140.83 183.865 144.638 Q187.105 148.405 192.615 148.405 Q198.124 148.405 201.324 144.638 Q204.565 140.83 204.565 134.308 Q204.565 127.746 201.324 123.978 Q198.124 120.211 192.615 120.211 M208.859 94.5689 L208.859 102.023 Q205.78 100.564 202.62 99.7946 Q199.501 99.0249 196.422 99.0249 Q188.321 99.0249 184.027 104.494 Q179.773 109.962 179.166 121.021 Q181.556 117.497 185.161 115.634 Q188.766 113.73 193.101 113.73 Q202.215 113.73 207.481 119.279 Q212.788 124.789 212.788 134.308 Q212.788 143.625 207.279 149.256 Q201.77 154.887 192.615 154.887 Q182.123 154.887 176.573 146.866 Q171.023 138.805 171.023 123.533 Q171.023 109.193 177.829 100.686 Q184.634 92.1384 196.098 92.1384 Q199.177 92.1384 202.296 92.746 Q205.456 93.3537 208.859 94.5689 Z" fill="#000000" fill-rule="nonzero" fill-opacity="1"></path><path clip-path="url(#clip650)" d="M251.677 121.102 Q257.551 122.358 260.832 126.328 Q264.154 130.298 264.154 136.131 Q264.154 145.084 257.996 149.985 Q251.839 154.887 240.496 154.887 Q236.688 154.887 232.638 154.117 Q228.627 153.388 224.333 151.889 L224.333 143.99 Q227.736 145.975 231.787 146.988 Q235.838 148 240.253 148 Q247.95 148 251.96 144.962 Q256.011 141.924 256.011 136.131 Q256.011 130.784 252.244 127.786 Q248.517 124.748 241.833 124.748 L234.785 124.748 L234.785 118.024 L242.157 118.024 Q248.193 118.024 251.393 115.634 Q254.593 113.203 254.593 108.666 Q254.593 104.008 251.272 101.536 Q247.99 99.0249 241.833 99.0249 Q238.471 99.0249 234.622 99.7541 Q230.774 100.483 226.156 102.023 L226.156 94.731 Q230.815 93.4347 234.866 92.7865 Q238.957 92.1384 242.562 92.1384 Q251.879 92.1384 257.308 96.3918 Q262.736 100.605 262.736 107.815 Q262.736 112.839 259.86 116.322 Q256.983 119.766 251.677 121.102 Z" fill="#000000" fill-rule="nonzero" fill-opacity="1"></path><path clip-path="url(#clip650)" d="M479.528 98.6198 Q473.208 98.6198 470.008 104.858 Q466.848 111.056 466.848 123.533 Q466.848 135.969 470.008 142.208 Q473.208 148.405 479.528 148.405 Q485.887 148.405 489.047 142.208 Q492.247 135.969 492.247 123.533 Q492.247 111.056 489.047 104.858 Q485.887 98.6198 479.528 98.6198 M479.528 92.1384 Q489.695 92.1384 495.043 100.2 Q500.43 108.22 500.43 123.533 Q500.43 138.805 495.043 146.866 Q489.695 154.887 479.528 154.887 Q469.36 154.887 463.972 146.866 Q458.625 138.805 458.625 123.533 Q458.625 108.22 463.972 100.2 Q469.36 92.1384 479.528 92.1384 Z" fill="#000000" fill-rule="nonzero" fill-opacity="1"></path><path clip-path="url(#clip650)" d="M704.745 146.826 L733.304 146.826 L733.304 153.712 L694.902 153.712 L694.902 146.826 Q699.56 142.005 707.581 133.903 Q715.642 125.761 717.708 123.411 Q721.637 118.996 723.177 115.958 Q724.757 112.879 724.757 109.922 Q724.757 105.101 721.354 102.063 Q717.992 99.0249 712.563 99.0249 Q708.715 99.0249 704.421 100.362 Q700.168 101.699 695.307 104.413 L695.307 96.1488 Q700.249 94.1638 704.543 93.1511 Q708.837 92.1384 712.401 92.1384 Q721.8 92.1384 727.39 96.8374 Q732.98 101.536 732.98 109.395 Q732.98 113.122 731.562 116.484 Q730.185 119.806 726.499 124.343 Q725.486 125.518 720.058 131.149 Q714.629 136.739 704.745 146.826 Z" fill="#000000" fill-rule="nonzero" fill-opacity="1"></path><path clip-path="url(#clip650)" d="M748.414 93.2321 L787.303 93.2321 L787.303 96.7159 L765.347 153.712 L756.799 153.712 L777.459 100.119 L748.414 100.119 L748.414 93.2321 Z" fill="#000000" fill-rule="nonzero" fill-opacity="1"></path><path clip-path="url(#clip650)" d="M828.055 121.102 Q833.929 122.358 837.21 126.328 Q840.532 130.298 840.532 136.131 Q840.532 145.084 834.374 149.985 Q828.217 154.887 816.874 154.887 Q813.066 154.887 809.016 154.117 Q805.005 153.388 800.711 151.889 L800.711 143.99 Q804.114 145.975 808.165 146.988 Q812.216 148 816.631 148 Q824.328 148 828.338 144.962 Q832.389 141.924 832.389 136.131 Q832.389 130.784 828.622 127.786 Q824.895 124.748 818.211 124.748 L811.162 124.748 L811.162 118.024 L818.535 118.024 Q824.571 118.024 827.771 115.634 Q830.971 113.203 830.971 108.666 Q830.971 104.008 827.65 101.536 Q824.368 99.0249 818.211 99.0249 Q814.849 99.0249 811 99.7541 Q807.152 100.483 802.534 102.023 L802.534 94.731 Q807.193 93.4347 811.244 92.7865 Q815.335 92.1384 818.94 92.1384 Q828.257 92.1384 833.686 96.3918 Q839.114 100.605 839.114 107.815 Q839.114 112.839 836.238 116.322 Q833.361 119.766 828.055 121.102 Z" fill="#000000" fill-rule="nonzero" fill-opacity="1"></path><path clip-path="url(#clip650)" d="M1055.91 98.6198 Q1049.59 98.6198 1046.39 104.858 Q1043.23 111.056 1043.23 123.533 Q1043.23 135.969 1046.39 142.208 Q1049.59 148.405 1055.91 148.405 Q1062.27 148.405 1065.43 142.208 Q1068.63 135.969 1068.63 123.533 Q1068.63 111.056 1065.43 104.858 Q1062.27 98.6198 1055.91 98.6198 M1055.91 92.1384 Q1066.07 92.1384 1071.42 100.2 Q1076.81 108.22 1076.81 123.533 Q1076.81 138.805 1071.42 146.866 Q1066.07 154.887 1055.91 154.887 Q1045.74 154.887 1040.35 146.866 Q1035 138.805 1035 123.533 Q1035 108.22 1040.35 100.2 Q1045.74 92.1384 1055.91 92.1384 Z" fill="#000000" fill-rule="nonzero" fill-opacity="1"></path><path clip-path="url(#clip650)" d="M1281.95 146.826 L1310.51 146.826 L1310.51 153.712 L1272.11 153.712 L1272.11 146.826 Q1276.77 142.005 1284.79 133.903 Q1292.85 125.761 1294.92 123.411 Q1298.85 118.996 1300.39 115.958 Q1301.97 112.879 1301.97 109.922 Q1301.97 105.101 1298.56 102.063 Q1295.2 99.0249 1289.77 99.0249 Q1285.92 99.0249 1281.63 100.362 Q1277.38 101.699 1272.52 104.413 L1272.52 96.1488 Q1277.46 94.1638 1281.75 93.1511 Q1286.05 92.1384 1289.61 92.1384 Q1299.01 92.1384 1304.6 96.8374 Q1310.19 101.536 1310.19 109.395 Q1310.19 113.122 1308.77 116.484 Q1307.39 119.806 1303.71 124.343 Q1302.69 125.518 1297.27 131.149 Q1291.84 136.739 1281.95 146.826 Z" fill="#000000" fill-rule="nonzero" fill-opacity="1"></path><path clip-path="url(#clip650)" d="M1352.48 121.102 Q1358.35 122.358 1361.63 126.328 Q1364.96 130.298 1364.96 136.131 Q1364.96 145.084 1358.8 149.985 Q1352.64 154.887 1341.3 154.887 Q1337.49 154.887 1333.44 154.117 Q1329.43 153.388 1325.14 151.889 L1325.14 143.99 Q1328.54 145.975 1332.59 146.988 Q1336.64 148 1341.06 148 Q1348.75 148 1352.76 144.962 Q1356.81 141.924 1356.81 136.131 Q1356.81 130.784 1353.05 127.786 Q1349.32 124.748 1342.64 124.748 L1335.59 124.748 L1335.59 118.024 L1342.96 118.024 Q1349 118.024 1352.2 115.634 Q1355.4 113.203 1355.4 108.666 Q1355.4 104.008 1352.07 101.536 Q1348.79 99.0249 1342.64 99.0249 Q1339.27 99.0249 1335.43 99.7541 Q1331.58 100.483 1326.96 102.023 L1326.96 94.731 Q1331.62 93.4347 1335.67 92.7865 Q1339.76 92.1384 1343.37 92.1384 Q1352.68 92.1384 1358.11 96.3918 Q1363.54 100.605 1363.54 107.815 Q1363.54 112.839 1360.66 116.322 Q1357.79 119.766 1352.48 121.102 Z" fill="#000000" fill-rule="nonzero" fill-opacity="1"></path><path clip-path="url(#clip650)" d="M1387.52 146.826 L1416.08 146.826 L1416.08 153.712 L1377.68 153.712 L1377.68 146.826 Q1382.34 142.005 1390.36 133.903 Q1398.42 125.761 1400.48 123.411 Q1404.41 118.996 1405.95 115.958 Q1407.53 112.879 1407.53 109.922 Q1407.53 105.101 1404.13 102.063 Q1400.77 99.0249 1395.34 99.0249 Q1391.49 99.0249 1387.2 100.362 Q1382.94 101.699 1378.08 104.413 L1378.08 96.1488 Q1383.02 94.1638 1387.32 93.1511 Q1391.61 92.1384 1395.18 92.1384 Q1404.57 92.1384 1410.16 96.8374 Q1415.75 101.536 1415.75 109.395 Q1415.75 113.122 1414.34 116.484 Q1412.96 119.806 1409.27 124.343 Q1408.26 125.518 1402.83 131.149 Q1397.4 136.739 1387.52 146.826 Z" fill="#000000" fill-rule="nonzero" fill-opacity="1"></path><path clip-path="url(#clip650)" d="M1632.28 98.6198 Q1625.96 98.6198 1622.76 104.858 Q1619.6 111.056 1619.6 123.533 Q1619.6 135.969 1622.76 142.208 Q1625.96 148.405 1632.28 148.405 Q1638.64 148.405 1641.8 142.208 Q1645 135.969 1645 123.533 Q1645 111.056 1641.8 104.858 Q1638.64 98.6198 1632.28 98.6198 M1632.28 92.1384 Q1642.45 92.1384 1647.8 100.2 Q1653.19 108.22 1653.19 123.533 Q1653.19 138.805 1647.8 146.866 Q1642.45 154.887 1632.28 154.887 Q1622.12 154.887 1616.73 146.866 Q1611.38 138.805 1611.38 123.533 Q1611.38 108.22 1616.73 100.2 Q1622.12 92.1384 1632.28 92.1384 Z" fill="#000000" fill-rule="nonzero" fill-opacity="1"></path><path clip-path="url(#clip650)" d="M1920.47 98.6198 Q1914.15 98.6198 1910.95 104.858 Q1907.79 111.056 1907.79 123.533 Q1907.79 135.969 1910.95 142.208 Q1914.15 148.405 1920.47 148.405 Q1926.83 148.405 1929.99 142.208 Q1933.19 135.969 1933.19 123.533 Q1933.19 111.056 1929.99 104.858 Q1926.83 98.6198 1920.47 98.6198 M1920.47 92.1384 Q1930.64 92.1384 1935.99 100.2 Q1941.38 108.22 1941.38 123.533 Q1941.38 138.805 1935.99 146.866 Q1930.64 154.887 1920.47 154.887 Q1910.3 154.887 1904.92 146.866 Q1899.57 138.805 1899.57 123.533 Q1899.57 108.22 1904.92 100.2 Q1910.3 92.1384 1920.47 92.1384 Z" fill="#000000" fill-rule="nonzero" fill-opacity="1"></path><path clip-path="url(#clip650)" d="M2146.52 146.826 L2175.08 146.826 L2175.08 153.712 L2136.68 153.712 L2136.68 146.826 Q2141.34 142.005 2149.36 133.903 Q2157.42 125.761 2159.48 123.411 Q2163.41 118.996 2164.95 115.958 Q2166.53 112.879 2166.53 109.922 Q2166.53 105.101 2163.13 102.063 Q2159.77 99.0249 2154.34 99.0249 Q2150.49 99.0249 2146.2 100.362 Q2141.94 101.699 2137.08 104.413 L2137.08 96.1488 Q2142.02 94.1638 2146.32 93.1511 Q2150.61 92.1384 2154.18 92.1384 Q2163.57 92.1384 2169.17 96.8374 Q2174.76 101.536 2174.76 109.395 Q2174.76 113.122 2173.34 116.484 Q2171.96 119.806 2168.27 124.343 Q2167.26 125.518 2161.83 131.149 Q2156.4 136.739 2146.52 146.826 Z" fill="#000000" fill-rule="nonzero" fill-opacity="1"></path><path clip-path="url(#clip650)" d="M2217.05 121.102 Q2222.92 122.358 2226.2 126.328 Q2229.52 130.298 2229.52 136.131 Q2229.52 145.084 2223.37 149.985 Q2217.21 154.887 2205.87 154.887 Q2202.06 154.887 2198.01 154.117 Q2194 153.388 2189.7 151.889 L2189.7 143.99 Q2193.11 145.975 2197.16 146.988 Q2201.21 148 2205.62 148 Q2213.32 148 2217.33 144.962 Q2221.38 141.924 2221.38 136.131 Q2221.38 130.784 2217.61 127.786 Q2213.89 124.748 2207.2 124.748 L2200.15 124.748 L2200.15 118.024 L2207.53 118.024 Q2213.56 118.024 2216.76 115.634 Q2219.96 113.203 2219.96 108.666 Q2219.96 104.008 2216.64 101.536 Q2213.36 99.0249 2207.2 99.0249 Q2203.84 99.0249 2199.99 99.7541 Q2196.14 100.483 2191.53 102.023 L2191.53 94.731 Q2196.18 93.4347 2200.24 92.7865 Q2204.33 92.1384 2207.93 92.1384 Q2217.25 92.1384 2222.68 96.3918 Q2228.11 100.605 2228.11 107.815 Q2228.11 112.839 2225.23 116.322 Q2222.35 119.766 2217.05 121.102 Z" fill="#000000" fill-rule="nonzero" fill-opacity="1"></path><path clip-path="url(#clip650)" d="M2252.09 146.826 L2280.65 146.826 L2280.65 153.712 L2242.24 153.712 L2242.24 146.826 Q2246.9 142.005 2254.92 133.903 Q2262.98 125.761 2265.05 123.411 Q2268.98 118.996 2270.52 115.958 Q2272.1 112.879 2272.1 109.922 Q2272.1 105.101 2268.7 102.063 Q2265.33 99.0249 2259.91 99.0249 Q2256.06 99.0249 2251.76 100.362 Q2247.51 101.699 2242.65 104.413 L2242.65 96.1488 Q2247.59 94.1638 2251.88 93.1511 Q2256.18 92.1384 2259.74 92.1384 Q2269.14 92.1384 2274.73 96.8374 Q2280.32 101.536 2280.32 109.395 Q2280.32 113.122 2278.9 116.484 Q2277.53 119.806 2273.84 124.343 Q2272.83 125.518 2267.4 131.149 Q2261.97 136.739 2252.09 146.826 Z" fill="#000000" fill-rule="nonzero" fill-opacity="1"></path><path clip-path="url(#clip650)" d="M1593.37 274.795 L2275.91 274.795 L2275.91 171.115 L1593.37 171.115  Z" fill="#000000" fill-rule="evenodd" fill-opacity="0"></path>
<polyline clip-path="url(#clip650)" style="stroke:#000000; stroke-linecap:round; stroke-linejoin:round; stroke-width:4; stroke-opacity:0; fill:none" points="1593.37,274.795 2275.91,274.795 2275.91,171.115 1593.37,171.115 1593.37,274.795 "></polyline>
<path clip-path="url(#clip650)" d="M1618.98 243.691 L1772.68 243.691 L1772.68 202.219 L1618.98 202.219 L1618.98 243.691  Z" fill="#add8e6" fill-rule="evenodd" fill-opacity="1"></path>
<polyline clip-path="url(#clip650)" style="stroke:#add8e6; stroke-linecap:round; stroke-linejoin:round; stroke-width:4; stroke-opacity:1; fill:none" points="1618.98,243.691 1772.68,243.691 1772.68,202.219 1618.98,202.219 1618.98,243.691 "></polyline>
<path clip-path="url(#clip650)" d="M1798.3 205.675 L1818.16 205.675 L1818.16 209.61 L1802.98 209.61 L1802.98 219.795 L1816.68 219.795 L1816.68 223.73 L1802.98 223.73 L1802.98 240.235 L1798.3 240.235 L1798.3 205.675 Z" fill="#000000" fill-rule="nonzero" fill-opacity="1"></path><path clip-path="url(#clip650)" d="M1833.74 217.295 Q1830.31 217.295 1828.32 219.98 Q1826.33 222.642 1826.33 227.295 Q1826.33 231.948 1828.3 234.633 Q1830.29 237.295 1833.74 237.295 Q1837.14 237.295 1839.13 234.61 Q1841.12 231.925 1841.12 227.295 Q1841.12 222.689 1839.13 220.004 Q1837.14 217.295 1833.74 217.295 M1833.74 213.684 Q1839.3 213.684 1842.47 217.295 Q1845.64 220.906 1845.64 227.295 Q1845.64 233.661 1842.47 237.295 Q1839.3 240.906 1833.74 240.906 Q1828.16 240.906 1824.99 237.295 Q1821.84 233.661 1821.84 227.295 Q1821.84 220.906 1824.99 217.295 Q1828.16 213.684 1833.74 213.684 Z" fill="#000000" fill-rule="nonzero" fill-opacity="1"></path><path clip-path="url(#clip650)" d="M1852.26 230.003 L1852.26 214.309 L1856.52 214.309 L1856.52 229.841 Q1856.52 233.522 1857.95 235.374 Q1859.39 237.203 1862.26 237.203 Q1865.71 237.203 1867.7 235.003 Q1869.71 232.804 1869.71 229.008 L1869.71 214.309 L1873.97 214.309 L1873.97 240.235 L1869.71 240.235 L1869.71 236.253 Q1868.16 238.615 1866.1 239.772 Q1864.06 240.906 1861.36 240.906 Q1856.89 240.906 1854.57 238.128 Q1852.26 235.351 1852.26 230.003 M1862.98 213.684 L1862.98 213.684 Z" fill="#000000" fill-rule="nonzero" fill-opacity="1"></path><path clip-path="url(#clip650)" d="M1904.3 224.587 L1904.3 240.235 L1900.04 240.235 L1900.04 224.726 Q1900.04 221.045 1898.6 219.217 Q1897.17 217.388 1894.3 217.388 Q1890.85 217.388 1888.86 219.587 Q1886.86 221.786 1886.86 225.582 L1886.86 240.235 L1882.58 240.235 L1882.58 214.309 L1886.86 214.309 L1886.86 218.337 Q1888.39 215.999 1890.45 214.842 Q1892.54 213.684 1895.24 213.684 Q1899.71 213.684 1902 216.462 Q1904.3 219.217 1904.3 224.587 Z" fill="#000000" fill-rule="nonzero" fill-opacity="1"></path><path clip-path="url(#clip650)" d="M1929.85 218.244 L1929.85 204.217 L1934.11 204.217 L1934.11 240.235 L1929.85 240.235 L1929.85 236.346 Q1928.51 238.661 1926.45 239.795 Q1924.41 240.906 1921.54 240.906 Q1916.84 240.906 1913.88 237.156 Q1910.94 233.406 1910.94 227.295 Q1910.94 221.184 1913.88 217.434 Q1916.84 213.684 1921.54 213.684 Q1924.41 213.684 1926.45 214.818 Q1928.51 215.929 1929.85 218.244 M1915.34 227.295 Q1915.34 231.994 1917.26 234.679 Q1919.2 237.341 1922.58 237.341 Q1925.96 237.341 1927.91 234.679 Q1929.85 231.994 1929.85 227.295 Q1929.85 222.596 1927.91 219.934 Q1925.96 217.249 1922.58 217.249 Q1919.2 217.249 1917.26 219.934 Q1915.34 222.596 1915.34 227.295 Z" fill="#000000" fill-rule="nonzero" fill-opacity="1"></path><path clip-path="url(#clip650)" d="M1957.95 214.309 L1962.21 214.309 L1962.21 240.235 L1957.95 240.235 L1957.95 214.309 M1957.95 204.217 L1962.21 204.217 L1962.21 209.61 L1957.95 209.61 L1957.95 204.217 Z" fill="#000000" fill-rule="nonzero" fill-opacity="1"></path><path clip-path="url(#clip650)" d="M1992.67 224.587 L1992.67 240.235 L1988.42 240.235 L1988.42 224.726 Q1988.42 221.045 1986.98 219.217 Q1985.54 217.388 1982.67 217.388 Q1979.23 217.388 1977.23 219.587 Q1975.24 221.786 1975.24 225.582 L1975.24 240.235 L1970.96 240.235 L1970.96 214.309 L1975.24 214.309 L1975.24 218.337 Q1976.77 215.999 1978.83 214.842 Q1980.92 213.684 1983.62 213.684 Q1988.09 213.684 1990.38 216.462 Q1992.67 219.217 1992.67 224.587 Z" fill="#000000" fill-rule="nonzero" fill-opacity="1"></path><path clip-path="url(#clip650)" d="M2017.65 236.3 L2025.29 236.3 L2025.29 209.934 L2016.98 211.601 L2016.98 207.342 L2025.24 205.675 L2029.92 205.675 L2029.92 236.3 L2037.56 236.3 L2037.56 240.235 L2017.65 240.235 L2017.65 236.3 Z" fill="#000000" fill-rule="nonzero" fill-opacity="1"></path><path clip-path="url(#clip650)" d="M2057 208.754 Q2053.39 208.754 2051.56 212.318 Q2049.76 215.86 2049.76 222.99 Q2049.76 230.096 2051.56 233.661 Q2053.39 237.203 2057 237.203 Q2060.64 237.203 2062.44 233.661 Q2064.27 230.096 2064.27 222.99 Q2064.27 215.86 2062.44 212.318 Q2060.64 208.754 2057 208.754 M2057 205.05 Q2062.81 205.05 2065.87 209.656 Q2068.95 214.24 2068.95 222.99 Q2068.95 231.716 2065.87 236.323 Q2062.81 240.906 2057 240.906 Q2051.19 240.906 2048.11 236.323 Q2045.06 231.716 2045.06 222.99 Q2045.06 214.24 2048.11 209.656 Q2051.19 205.05 2057 205.05 Z" fill="#000000" fill-rule="nonzero" fill-opacity="1"></path><path clip-path="url(#clip650)" d="M2087.16 208.754 Q2083.55 208.754 2081.72 212.318 Q2079.92 215.86 2079.92 222.99 Q2079.92 230.096 2081.72 233.661 Q2083.55 237.203 2087.16 237.203 Q2090.8 237.203 2092.6 233.661 Q2094.43 230.096 2094.43 222.99 Q2094.43 215.86 2092.6 212.318 Q2090.8 208.754 2087.16 208.754 M2087.16 205.05 Q2092.97 205.05 2096.03 209.656 Q2099.11 214.24 2099.11 222.99 Q2099.11 231.716 2096.03 236.323 Q2092.97 240.906 2087.16 240.906 Q2081.35 240.906 2078.28 236.323 Q2075.22 231.716 2075.22 222.99 Q2075.22 214.24 2078.28 209.656 Q2081.35 205.05 2087.16 205.05 Z" fill="#000000" fill-rule="nonzero" fill-opacity="1"></path><path clip-path="url(#clip650)" d="M2117.33 208.754 Q2113.72 208.754 2111.89 212.318 Q2110.08 215.86 2110.08 222.99 Q2110.08 230.096 2111.89 233.661 Q2113.72 237.203 2117.33 237.203 Q2120.96 237.203 2122.77 233.661 Q2124.59 230.096 2124.59 222.99 Q2124.59 215.86 2122.77 212.318 Q2120.96 208.754 2117.33 208.754 M2117.33 205.05 Q2123.14 205.05 2126.19 209.656 Q2129.27 214.24 2129.27 222.99 Q2129.27 231.716 2126.19 236.323 Q2123.14 240.906 2117.33 240.906 Q2111.52 240.906 2108.44 236.323 Q2105.38 231.716 2105.38 222.99 Q2105.38 214.24 2108.44 209.656 Q2111.52 205.05 2117.33 205.05 Z" fill="#000000" fill-rule="nonzero" fill-opacity="1"></path><path clip-path="url(#clip650)" d="M2156.17 206.948 L2156.17 214.309 L2164.94 214.309 L2164.94 217.619 L2156.17 217.619 L2156.17 231.693 Q2156.17 234.865 2157.03 235.767 Q2157.9 236.67 2160.57 236.67 L2164.94 236.67 L2164.94 240.235 L2160.57 240.235 Q2155.64 240.235 2153.76 238.406 Q2151.89 236.554 2151.89 231.693 L2151.89 217.619 L2148.76 217.619 L2148.76 214.309 L2151.89 214.309 L2151.89 206.948 L2156.17 206.948 Z" fill="#000000" fill-rule="nonzero" fill-opacity="1"></path><path clip-path="url(#clip650)" d="M2185.57 218.291 Q2184.85 217.874 2183.99 217.689 Q2183.16 217.48 2182.14 217.48 Q2178.53 217.48 2176.59 219.842 Q2174.66 222.179 2174.66 226.578 L2174.66 240.235 L2170.38 240.235 L2170.38 214.309 L2174.66 214.309 L2174.66 218.337 Q2176.01 215.976 2178.16 214.842 Q2180.31 213.684 2183.39 213.684 Q2183.83 213.684 2184.36 213.754 Q2184.9 213.8 2185.54 213.916 L2185.57 218.291 Z" fill="#000000" fill-rule="nonzero" fill-opacity="1"></path><path clip-path="url(#clip650)" d="M2190.03 214.309 L2194.29 214.309 L2194.29 240.235 L2190.03 240.235 L2190.03 214.309 M2190.03 204.217 L2194.29 204.217 L2194.29 209.61 L2190.03 209.61 L2190.03 204.217 Z" fill="#000000" fill-rule="nonzero" fill-opacity="1"></path><path clip-path="url(#clip650)" d="M2225.38 226.207 L2225.38 228.291 L2205.8 228.291 Q2206.08 232.689 2208.44 235.003 Q2210.82 237.295 2215.06 237.295 Q2217.51 237.295 2219.8 236.693 Q2222.12 236.091 2224.39 234.888 L2224.39 238.915 Q2222.09 239.888 2219.69 240.397 Q2217.28 240.906 2214.8 240.906 Q2208.6 240.906 2204.96 237.295 Q2201.35 233.684 2201.35 227.527 Q2201.35 221.161 2204.78 217.434 Q2208.23 213.684 2214.06 213.684 Q2219.29 213.684 2222.33 217.064 Q2225.38 220.42 2225.38 226.207 M2221.12 224.957 Q2221.08 221.462 2219.15 219.379 Q2217.26 217.295 2214.11 217.295 Q2210.54 217.295 2208.39 219.309 Q2206.26 221.323 2205.94 224.98 L2221.12 224.957 Z" fill="#000000" fill-rule="nonzero" fill-opacity="1"></path><path clip-path="url(#clip650)" d="M2248.9 215.073 L2248.9 219.101 Q2247.09 218.175 2245.15 217.712 Q2243.21 217.249 2241.12 217.249 Q2237.95 217.249 2236.35 218.221 Q2234.78 219.193 2234.78 221.138 Q2234.78 222.619 2235.91 223.476 Q2237.05 224.309 2240.47 225.073 L2241.93 225.397 Q2246.47 226.369 2248.37 228.152 Q2250.29 229.911 2250.29 233.082 Q2250.29 236.693 2247.42 238.8 Q2244.57 240.906 2239.57 240.906 Q2237.49 240.906 2235.22 240.49 Q2232.97 240.096 2230.47 239.286 L2230.47 234.888 Q2232.84 236.115 2235.13 236.74 Q2237.42 237.341 2239.66 237.341 Q2242.67 237.341 2244.29 236.323 Q2245.91 235.281 2245.91 233.406 Q2245.91 231.67 2244.73 230.744 Q2243.58 229.818 2239.62 228.962 L2238.14 228.615 Q2234.18 227.781 2232.42 226.068 Q2230.66 224.332 2230.66 221.323 Q2230.66 217.666 2233.25 215.675 Q2235.84 213.684 2240.61 213.684 Q2242.97 213.684 2245.06 214.031 Q2247.14 214.379 2248.9 215.073 Z" fill="#000000" fill-rule="nonzero" fill-opacity="1"></path></svg>