<svg xmlns="http://www.w3.org/2000/svg" xmlns:xlink="http://www.w3.org/1999/xlink" width="600" height="400" viewBox="0 0 2400 1600">
<defs>
  <clipPath id="clip670">
    <rect x="0" y="0" width="2400" height="1600"></rect>
  </clipPath>
</defs>
<path clip-path="url(#clip670)" d="M0 1600 L2400 1600 L2400 0 L0 0  Z" fill="#ffffff" fill-rule="evenodd" fill-opacity="1"></path>
<defs>
  <clipPath id="clip671">
    <rect x="480" y="0" width="1681" height="1600"></rect>
  </clipPath>
</defs>
<path clip-path="url(#clip670)" d="M47.2441 1552.76 L2352.76 1552.76 L2352.76 123.472 L47.2441 123.472  Z" fill="#ffffff" fill-rule="evenodd" fill-opacity="1"></path>
<defs>
  <clipPath id="clip672">
    <rect x="47" y="123" width="2307" height="1430"></rect>
  </clipPath>
</defs>
<path clip-path="url(#clip670)" d="M992.411 12.096 L1000.59 12.096 L1000.59 36.8875 L1030.33 36.8875 L1030.33 12.096 L1038.51 12.096 L1038.51 72.576 L1030.33 72.576 L1030.33 43.7741 L1000.59 43.7741 L1000.59 72.576 L992.411 72.576 L992.411 12.096 Z" fill="#000000" fill-rule="nonzero" fill-opacity="1"></path><path clip-path="url(#clip670)" d="M1054.47 27.2059 L1061.92 27.2059 L1061.92 72.576 L1054.47 72.576 L1054.47 27.2059 M1054.47 9.54393 L1061.92 9.54393 L1061.92 18.9825 L1054.47 18.9825 L1054.47 9.54393 Z" fill="#000000" fill-rule="nonzero" fill-opacity="1"></path><path clip-path="url(#clip670)" d="M1106.44 28.5427 L1106.44 35.5912 Q1103.28 33.9709 1099.88 33.1607 Q1096.48 32.3505 1092.83 32.3505 Q1087.28 32.3505 1084.49 34.0519 Q1081.73 35.7533 1081.73 39.156 Q1081.73 41.7486 1083.72 43.2475 Q1085.7 44.7058 1091.7 46.0426 L1094.25 46.6097 Q1102.19 48.3111 1105.51 51.4303 Q1108.87 54.509 1108.87 60.0587 Q1108.87 66.3781 1103.85 70.0644 Q1098.87 73.7508 1090.12 73.7508 Q1086.47 73.7508 1082.5 73.0216 Q1078.57 72.3329 1074.2 70.9151 L1074.2 63.2184 Q1078.33 65.3654 1082.34 66.4591 Q1086.35 67.5124 1090.28 67.5124 Q1095.55 67.5124 1098.38 65.73 Q1101.22 63.9071 1101.22 60.6258 Q1101.22 57.5877 1099.15 55.9673 Q1097.13 54.3469 1090.2 52.8481 L1087.61 52.2405 Q1080.68 50.7821 1077.6 47.7845 Q1074.52 44.7463 1074.52 39.4801 Q1074.52 33.0797 1079.06 29.5959 Q1083.6 26.1121 1091.94 26.1121 Q1096.07 26.1121 1099.72 26.7198 Q1103.37 27.3274 1106.44 28.5427 Z" fill="#000000" fill-rule="nonzero" fill-opacity="1"></path><path clip-path="url(#clip670)" d="M1128.12 14.324 L1128.12 27.2059 L1143.47 27.2059 L1143.47 32.9987 L1128.12 32.9987 L1128.12 57.6282 Q1128.12 63.1779 1129.62 64.7578 Q1131.15 66.3376 1135.81 66.3376 L1143.47 66.3376 L1143.47 72.576 L1135.81 72.576 Q1127.18 72.576 1123.9 69.3758 Q1120.62 66.1351 1120.62 57.6282 L1120.62 32.9987 L1115.15 32.9987 L1115.15 27.2059 L1120.62 27.2059 L1120.62 14.324 L1128.12 14.324 Z" fill="#000000" fill-rule="nonzero" fill-opacity="1"></path><path clip-path="url(#clip670)" d="M1170.85 32.4315 Q1164.86 32.4315 1161.37 37.1306 Q1157.89 41.7891 1157.89 49.9314 Q1157.89 58.0738 1161.33 62.7728 Q1164.82 67.4314 1170.85 67.4314 Q1176.81 67.4314 1180.29 62.7323 Q1183.78 58.0333 1183.78 49.9314 Q1183.78 41.8701 1180.29 37.1711 Q1176.81 32.4315 1170.85 32.4315 M1170.85 26.1121 Q1180.58 26.1121 1186.13 32.4315 Q1191.68 38.7509 1191.68 49.9314 Q1191.68 61.0714 1186.13 67.4314 Q1180.58 73.7508 1170.85 73.7508 Q1161.09 73.7508 1155.54 67.4314 Q1150.03 61.0714 1150.03 49.9314 Q1150.03 38.7509 1155.54 32.4315 Q1161.09 26.1121 1170.85 26.1121 Z" fill="#000000" fill-rule="nonzero" fill-opacity="1"></path><path clip-path="url(#clip670)" d="M1233.89 49.3643 Q1233.89 41.2625 1230.52 36.8065 Q1227.2 32.3505 1221.17 32.3505 Q1215.17 32.3505 1211.81 36.8065 Q1208.49 41.2625 1208.49 49.3643 Q1208.49 57.4256 1211.81 61.8816 Q1215.17 66.3376 1221.17 66.3376 Q1227.2 66.3376 1230.52 61.8816 Q1233.89 57.4256 1233.89 49.3643 M1241.34 66.9452 Q1241.34 78.5308 1236.19 84.1616 Q1231.05 89.8329 1220.44 89.8329 Q1216.51 89.8329 1213.02 89.2252 Q1209.54 88.6581 1206.26 87.4428 L1206.26 80.1917 Q1209.54 81.9741 1212.74 82.8248 Q1215.94 83.6755 1219.26 83.6755 Q1226.59 83.6755 1230.24 79.8271 Q1233.89 76.0193 1233.89 68.282 L1233.89 64.5957 Q1231.58 68.6061 1227.97 70.5911 Q1224.37 72.576 1219.34 72.576 Q1211 72.576 1205.89 66.2161 Q1200.79 59.8562 1200.79 49.3643 Q1200.79 38.832 1205.89 32.472 Q1211 26.1121 1219.34 26.1121 Q1224.37 26.1121 1227.97 28.0971 Q1231.58 30.082 1233.89 34.0924 L1233.89 27.2059 L1241.34 27.2059 L1241.34 66.9452 Z" fill="#000000" fill-rule="nonzero" fill-opacity="1"></path><path clip-path="url(#clip670)" d="M1282.98 34.1734 Q1281.73 33.4443 1280.23 33.1202 Q1278.77 32.7556 1276.99 32.7556 Q1270.67 32.7556 1267.27 36.8875 Q1263.9 40.9789 1263.9 48.6757 L1263.9 72.576 L1256.41 72.576 L1256.41 27.2059 L1263.9 27.2059 L1263.9 34.2544 Q1266.25 30.1225 1270.02 28.1376 Q1273.79 26.1121 1279.17 26.1121 Q1279.94 26.1121 1280.88 26.2337 Q1281.81 26.3147 1282.94 26.5172 L1282.98 34.1734 Z" fill="#000000" fill-rule="nonzero" fill-opacity="1"></path><path clip-path="url(#clip670)" d="M1311.42 49.7694 Q1302.39 49.7694 1298.9 51.8354 Q1295.42 53.9013 1295.42 58.8839 Q1295.42 62.8538 1298.01 65.2034 Q1300.64 67.5124 1305.14 67.5124 Q1311.34 67.5124 1315.07 63.1374 Q1318.83 58.7219 1318.83 51.4303 L1318.83 49.7694 L1311.42 49.7694 M1326.29 46.6907 L1326.29 72.576 L1318.83 72.576 L1318.83 65.6895 Q1316.28 69.8214 1312.47 71.8063 Q1308.67 73.7508 1303.16 73.7508 Q1296.19 73.7508 1292.06 69.8619 Q1287.97 65.9325 1287.97 59.3701 Q1287.97 51.7138 1293.07 47.825 Q1298.21 43.9361 1308.38 43.9361 L1318.83 43.9361 L1318.83 43.2069 Q1318.83 38.0623 1315.43 35.2672 Q1312.07 32.4315 1305.95 32.4315 Q1302.06 32.4315 1298.38 33.3632 Q1294.69 34.295 1291.29 36.1584 L1291.29 29.2718 Q1295.38 27.692 1299.23 26.9223 Q1303.08 26.1121 1306.72 26.1121 Q1316.56 26.1121 1321.43 31.2163 Q1326.29 36.3204 1326.29 46.6907 Z" fill="#000000" fill-rule="nonzero" fill-opacity="1"></path><path clip-path="url(#clip670)" d="M1376.96 35.9153 Q1379.76 30.8922 1383.65 28.5022 Q1387.54 26.1121 1392.8 26.1121 Q1399.89 26.1121 1403.74 31.0947 Q1407.59 36.0368 1407.59 45.1919 L1407.59 72.576 L1400.09 72.576 L1400.09 45.4349 Q1400.09 38.913 1397.79 35.7533 Q1395.48 32.5936 1390.74 32.5936 Q1384.94 32.5936 1381.58 36.4419 Q1378.22 40.2903 1378.22 46.9338 L1378.22 72.576 L1370.73 72.576 L1370.73 45.4349 Q1370.73 38.8725 1368.42 35.7533 Q1366.11 32.5936 1361.29 32.5936 Q1355.57 32.5936 1352.21 36.4824 Q1348.85 40.3308 1348.85 46.9338 L1348.85 72.576 L1341.36 72.576 L1341.36 27.2059 L1348.85 27.2059 L1348.85 34.2544 Q1351.4 30.082 1354.97 28.0971 Q1358.53 26.1121 1363.43 26.1121 Q1368.38 26.1121 1371.82 28.6237 Q1375.3 31.1352 1376.96 35.9153 Z" fill="#000000" fill-rule="nonzero" fill-opacity="1"></path><path clip-path="url(#clip672)" d="M76.063 123.472 L76.063 1552.76 L306.614 1552.76 L306.614 123.472 L76.063 123.472 L76.063 123.472  Z" fill="#add8e6" fill-rule="evenodd" fill-opacity="1"></path>
<polyline clip-path="url(#clip672)" style="stroke:#add8e6; stroke-linecap:round; stroke-linejoin:round; stroke-width:4; stroke-opacity:1; fill:none" points="76.063,123.472 76.063,1552.76 306.614,1552.76 306.614,123.472 76.063,123.472 "></polyline>
<path clip-path="url(#clip672)" d="M364.252 1552.76 L364.252 1552.76 L594.803 1552.76 L594.803 1552.76 L364.252 1552.76 L364.252 1552.76  Z" fill="#add8e6" fill-rule="evenodd" fill-opacity="1"></path>
<polyline clip-path="url(#clip672)" style="stroke:#add8e6; stroke-linecap:round; stroke-linejoin:round; stroke-width:4; stroke-opacity:1; fill:none" points="364.252,1552.76 364.252,1552.76 594.803,1552.76 364.252,1552.76 "></polyline>
<path clip-path="url(#clip672)" d="M652.441 1552.76 L652.441 1552.76 L882.992 1552.76 L882.992 1552.76 L652.441 1552.76 L652.441 1552.76  Z" fill="#add8e6" fill-rule="evenodd" fill-opacity="1"></path>
<polyline clip-path="url(#clip672)" style="stroke:#add8e6; stroke-linecap:round; stroke-linejoin:round; stroke-width:4; stroke-opacity:1; fill:none" points="652.441,1552.76 652.441,1552.76 882.992,1552.76 652.441,1552.76 "></polyline>
<path clip-path="url(#clip672)" d="M940.63 293.135 L940.63 1552.76 L1171.18 1552.76 L1171.18 293.135 L940.63 293.135 L940.63 293.135  Z" fill="#add8e6" fill-rule="evenodd" fill-opacity="1"></path>
<polyline clip-path="url(#clip672)" style="stroke:#add8e6; stroke-linecap:round; stroke-linejoin:round; stroke-width:4; stroke-opacity:1; fill:none" points="940.63,293.135 940.63,1552.76 1171.18,1552.76 1171.18,293.135 940.63,293.135 "></polyline>
<path clip-path="url(#clip672)" d="M1228.82 1007.78 L1228.82 1552.76 L1459.37 1552.76 L1459.37 1007.78 L1228.82 1007.78 L1228.82 1007.78  Z" fill="#add8e6" fill-rule="evenodd" fill-opacity="1"></path>
<polyline clip-path="url(#clip672)" style="stroke:#add8e6; stroke-linecap:round; stroke-linejoin:round; stroke-width:4; stroke-opacity:1; fill:none" points="1228.82,1007.78 1228.82,1552.76 1459.37,1552.76 1459.37,1007.78 1228.82,1007.78 "></polyline>
<path clip-path="url(#clip672)" d="M1517.01 925.516 L1517.01 1552.76 L1747.56 1552.76 L1747.56 925.516 L1517.01 925.516 L1517.01 925.516  Z" fill="#add8e6" fill-rule="evenodd" fill-opacity="1"></path>
<polyline clip-path="url(#clip672)" style="stroke:#add8e6; stroke-linecap:round; stroke-linejoin:round; stroke-width:4; stroke-opacity:1; fill:none" points="1517.01,925.516 1517.01,1552.76 1747.56,1552.76 1747.56,925.516 1517.01,925.516 "></polyline>
<path clip-path="url(#clip672)" d="M1805.2 930.658 L1805.2 1552.76 L2035.75 1552.76 L2035.75 930.658 L1805.2 930.658 L1805.2 930.658  Z" fill="#add8e6" fill-rule="evenodd" fill-opacity="1"></path>
<polyline clip-path="url(#clip672)" style="stroke:#add8e6; stroke-linecap:round; stroke-linejoin:round; stroke-width:4; stroke-opacity:1; fill:none" points="1805.2,930.658 1805.2,1552.76 2035.75,1552.76 2035.75,930.658 1805.2,930.658 "></polyline>
<path clip-path="url(#clip672)" d="M2093.39 894.668 L2093.39 1552.76 L2323.94 1552.76 L2323.94 894.668 L2093.39 894.668 L2093.39 894.668  Z" fill="#add8e6" fill-rule="evenodd" fill-opacity="1"></path>
<polyline clip-path="url(#clip672)" style="stroke:#add8e6; stroke-linecap:round; stroke-linejoin:round; stroke-width:4; stroke-opacity:1; fill:none" points="2093.39,894.668 2093.39,1552.76 2323.94,1552.76 2323.94,894.668 2093.39,894.668 "></polyline>
<circle clip-path="url(#clip672)" style="fill:#add8e6; stroke:none; fill-opacity:0" cx="191.339" cy="123.472" r="2"></circle>
<circle clip-path="url(#clip672)" style="fill:#add8e6; stroke:none; fill-opacity:0" cx="479.528" cy="1552.76" r="2"></circle>
<circle clip-path="url(#clip672)" style="fill:#add8e6; stroke:none; fill-opacity:0" cx="767.717" cy="1552.76" r="2"></circle>
<circle clip-path="url(#clip672)" style="fill:#add8e6; stroke:none; fill-opacity:0" cx="1055.91" cy="293.135" r="2"></circle>
<circle clip-path="url(#clip672)" style="fill:#add8e6; stroke:none; fill-opacity:0" cx="1344.09" cy="1007.78" r="2"></circle>
<circle clip-path="url(#clip672)" style="fill:#add8e6; stroke:none; fill-opacity:0" cx="1632.28" cy="925.516" r="2"></circle>
<circle clip-path="url(#clip672)" style="fill:#add8e6; stroke:none; fill-opacity:0" cx="1920.47" cy="930.658" r="2"></circle>
<circle clip-path="url(#clip672)" style="fill:#add8e6; stroke:none; fill-opacity:0" cx="2208.66" cy="894.668" r="2"></circle>
<circle clip-path="url(#clip672)" style="fill:#e26f46; stroke:none; fill-opacity:1" cx="191.339" cy="1547.61" r="2"></circle>
<circle clip-path="url(#clip672)" style="fill:#e26f46; stroke:none; fill-opacity:1" cx="479.528" cy="1547.61" r="2"></circle>
<circle clip-path="url(#clip672)" style="fill:#e26f46; stroke:none; fill-opacity:1" cx="767.717" cy="1547.61" r="2"></circle>
<circle clip-path="url(#clip672)" style="fill:#e26f46; stroke:none; fill-opacity:1" cx="1055.91" cy="1547.61" r="2"></circle>
<circle clip-path="url(#clip672)" style="fill:#e26f46; stroke:none; fill-opacity:1" cx="1344.09" cy="1547.61" r="2"></circle>
<circle clip-path="url(#clip672)" style="fill:#e26f46; stroke:none; fill-opacity:1" cx="1632.28" cy="1547.61" r="2"></circle>
<circle clip-path="url(#clip672)" style="fill:#e26f46; stroke:none; fill-opacity:1" cx="1920.47" cy="1547.61" r="2"></circle>
<circle clip-path="url(#clip672)" style="fill:#e26f46; stroke:none; fill-opacity:1" cx="2208.66" cy="1547.61" r="2"></circle>
<path clip-path="url(#clip670)" d="M97.864 1514.46 L97.864 1597.42 L90.9774 1597.42 L90.9774 1514.46 L97.864 1514.46 Z" fill="#000000" fill-rule="nonzero" fill-opacity="1"></path><path clip-path="url(#clip670)" d="M134.768 1522.76 Q128.448 1522.76 125.248 1529 Q122.088 1535.2 122.088 1547.68 Q122.088 1560.11 125.248 1566.35 Q128.448 1572.55 134.768 1572.55 Q141.128 1572.55 144.287 1566.35 Q147.488 1560.11 147.488 1547.68 Q147.488 1535.2 144.287 1529 Q141.128 1522.76 134.768 1522.76 M134.768 1516.28 Q144.935 1516.28 150.283 1524.34 Q155.67 1532.36 155.67 1547.68 Q155.67 1562.95 150.283 1571.01 Q144.935 1579.03 134.768 1579.03 Q124.6 1579.03 119.212 1571.01 Q113.865 1562.95 113.865 1547.68 Q113.865 1532.36 119.212 1524.34 Q124.6 1516.28 134.768 1516.28 Z" fill="#000000" fill-rule="nonzero" fill-opacity="1"></path><path clip-path="url(#clip670)" d="M187.551 1522.76 Q181.232 1522.76 178.031 1529 Q174.872 1535.2 174.872 1547.68 Q174.872 1560.11 178.031 1566.35 Q181.232 1572.55 187.551 1572.55 Q193.911 1572.55 197.071 1566.35 Q200.271 1560.11 200.271 1547.68 Q200.271 1535.2 197.071 1529 Q193.911 1522.76 187.551 1522.76 M187.551 1516.28 Q197.719 1516.28 203.066 1524.34 Q208.454 1532.36 208.454 1547.68 Q208.454 1562.95 203.066 1571.01 Q197.719 1579.03 187.551 1579.03 Q177.383 1579.03 171.996 1571.01 Q166.648 1562.95 166.648 1547.68 Q166.648 1532.36 171.996 1524.34 Q177.383 1516.28 187.551 1516.28 Z" fill="#000000" fill-rule="nonzero" fill-opacity="1"></path><path clip-path="url(#clip670)" d="M240.334 1522.76 Q234.015 1522.76 230.815 1529 Q227.655 1535.2 227.655 1547.68 Q227.655 1560.11 230.815 1566.35 Q234.015 1572.55 240.334 1572.55 Q246.694 1572.55 249.854 1566.35 Q253.054 1560.11 253.054 1547.68 Q253.054 1535.2 249.854 1529 Q246.694 1522.76 240.334 1522.76 M240.334 1516.28 Q250.502 1516.28 255.849 1524.34 Q261.237 1532.36 261.237 1547.68 Q261.237 1562.95 255.849 1571.01 Q250.502 1579.03 240.334 1579.03 Q230.166 1579.03 224.779 1571.01 Q219.432 1562.95 219.432 1547.68 Q219.432 1532.36 224.779 1524.34 Q230.166 1516.28 240.334 1516.28 Z" fill="#000000" fill-rule="nonzero" fill-opacity="1"></path><path clip-path="url(#clip670)" d="M291.7 1551.85 L280.276 1588.79 L273.39 1588.79 L284.813 1551.85 L273.39 1514.9 L280.276 1514.9 L291.7 1551.85 Z" fill="#000000" fill-rule="nonzero" fill-opacity="1"></path><path clip-path="url(#clip670)" d="M386.053 1514.46 L386.053 1597.42 L379.166 1597.42 L379.166 1514.46 L386.053 1514.46 Z" fill="#000000" fill-rule="nonzero" fill-opacity="1"></path><path clip-path="url(#clip670)" d="M422.957 1522.76 Q416.637 1522.76 413.437 1529 Q410.277 1535.2 410.277 1547.68 Q410.277 1560.11 413.437 1566.35 Q416.637 1572.55 422.957 1572.55 Q429.317 1572.55 432.476 1566.35 Q435.677 1560.11 435.677 1547.68 Q435.677 1535.2 432.476 1529 Q429.317 1522.76 422.957 1522.76 M422.957 1516.28 Q433.124 1516.28 438.472 1524.34 Q443.859 1532.36 443.859 1547.68 Q443.859 1562.95 438.472 1571.01 Q433.124 1579.03 422.957 1579.03 Q412.789 1579.03 407.401 1571.01 Q402.054 1562.95 402.054 1547.68 Q402.054 1532.36 407.401 1524.34 Q412.789 1516.28 422.957 1516.28 Z" fill="#000000" fill-rule="nonzero" fill-opacity="1"></path><path clip-path="url(#clip670)" d="M475.74 1522.76 Q469.421 1522.76 466.22 1529 Q463.061 1535.2 463.061 1547.68 Q463.061 1560.11 466.22 1566.35 Q469.421 1572.55 475.74 1572.55 Q482.1 1572.55 485.26 1566.35 Q488.46 1560.11 488.46 1547.68 Q488.46 1535.2 485.26 1529 Q482.1 1522.76 475.74 1522.76 M475.74 1516.28 Q485.908 1516.28 491.255 1524.34 Q496.643 1532.36 496.643 1547.68 Q496.643 1562.95 491.255 1571.01 Q485.908 1579.03 475.74 1579.03 Q465.572 1579.03 460.184 1571.01 Q454.837 1562.95 454.837 1547.68 Q454.837 1532.36 460.184 1524.34 Q465.572 1516.28 475.74 1516.28 Z" fill="#000000" fill-rule="nonzero" fill-opacity="1"></path><path clip-path="url(#clip670)" d="M512.441 1570.97 L525.809 1570.97 L525.809 1524.83 L511.266 1527.74 L511.266 1520.29 L525.728 1517.37 L533.911 1517.37 L533.911 1570.97 L547.279 1570.97 L547.279 1577.85 L512.441 1577.85 L512.441 1570.97 Z" fill="#000000" fill-rule="nonzero" fill-opacity="1"></path><path clip-path="url(#clip670)" d="M579.889 1551.85 L568.465 1588.79 L561.579 1588.79 L573.002 1551.85 L561.579 1514.9 L568.465 1514.9 L579.889 1551.85 Z" fill="#000000" fill-rule="nonzero" fill-opacity="1"></path><path clip-path="url(#clip670)" d="M674.242 1514.46 L674.242 1597.42 L667.355 1597.42 L667.355 1514.46 L674.242 1514.46 Z" fill="#000000" fill-rule="nonzero" fill-opacity="1"></path><path clip-path="url(#clip670)" d="M711.146 1522.76 Q704.826 1522.76 701.626 1529 Q698.466 1535.2 698.466 1547.68 Q698.466 1560.11 701.626 1566.35 Q704.826 1572.55 711.146 1572.55 Q717.506 1572.55 720.665 1566.35 Q723.865 1560.11 723.865 1547.68 Q723.865 1535.2 720.665 1529 Q717.506 1522.76 711.146 1522.76 M711.146 1516.28 Q721.313 1516.28 726.661 1524.34 Q732.048 1532.36 732.048 1547.68 Q732.048 1562.95 726.661 1571.01 Q721.313 1579.03 711.146 1579.03 Q700.978 1579.03 695.59 1571.01 Q690.243 1562.95 690.243 1547.68 Q690.243 1532.36 695.59 1524.34 Q700.978 1516.28 711.146 1516.28 Z" fill="#000000" fill-rule="nonzero" fill-opacity="1"></path><path clip-path="url(#clip670)" d="M747.847 1570.97 L761.215 1570.97 L761.215 1524.83 L746.672 1527.74 L746.672 1520.29 L761.134 1517.37 L769.317 1517.37 L769.317 1570.97 L782.685 1570.97 L782.685 1577.85 L747.847 1577.85 L747.847 1570.97 Z" fill="#000000" fill-rule="nonzero" fill-opacity="1"></path><path clip-path="url(#clip670)" d="M816.712 1522.76 Q810.393 1522.76 807.193 1529 Q804.033 1535.2 804.033 1547.68 Q804.033 1560.11 807.193 1566.35 Q810.393 1572.55 816.712 1572.55 Q823.072 1572.55 826.232 1566.35 Q829.432 1560.11 829.432 1547.68 Q829.432 1535.2 826.232 1529 Q823.072 1522.76 816.712 1522.76 M816.712 1516.28 Q826.88 1516.28 832.227 1524.34 Q837.615 1532.36 837.615 1547.68 Q837.615 1562.95 832.227 1571.01 Q826.88 1579.03 816.712 1579.03 Q806.544 1579.03 801.157 1571.01 Q795.81 1562.95 795.81 1547.68 Q795.81 1532.36 801.157 1524.34 Q806.544 1516.28 816.712 1516.28 Z" fill="#000000" fill-rule="nonzero" fill-opacity="1"></path><path clip-path="url(#clip670)" d="M868.078 1551.85 L856.654 1588.79 L849.768 1588.79 L861.191 1551.85 L849.768 1514.9 L856.654 1514.9 L868.078 1551.85 Z" fill="#000000" fill-rule="nonzero" fill-opacity="1"></path><path clip-path="url(#clip670)" d="M962.431 1514.46 L962.431 1597.42 L955.544 1597.42 L955.544 1514.46 L962.431 1514.46 Z" fill="#000000" fill-rule="nonzero" fill-opacity="1"></path><path clip-path="url(#clip670)" d="M999.335 1522.76 Q993.015 1522.76 989.815 1529 Q986.655 1535.2 986.655 1547.68 Q986.655 1560.11 989.815 1566.35 Q993.015 1572.55 999.335 1572.55 Q1005.69 1572.55 1008.85 1566.35 Q1012.05 1560.11 1012.05 1547.68 Q1012.05 1535.2 1008.85 1529 Q1005.69 1522.76 999.335 1522.76 M999.335 1516.28 Q1009.5 1516.28 1014.85 1524.34 Q1020.24 1532.36 1020.24 1547.68 Q1020.24 1562.95 1014.85 1571.01 Q1009.5 1579.03 999.335 1579.03 Q989.167 1579.03 983.779 1571.01 Q978.432 1562.95 978.432 1547.68 Q978.432 1532.36 983.779 1524.34 Q989.167 1516.28 999.335 1516.28 Z" fill="#000000" fill-rule="nonzero" fill-opacity="1"></path><path clip-path="url(#clip670)" d="M1036.04 1570.97 L1049.4 1570.97 L1049.4 1524.83 L1034.86 1527.74 L1034.86 1520.29 L1049.32 1517.37 L1057.51 1517.37 L1057.51 1570.97 L1070.87 1570.97 L1070.87 1577.85 L1036.04 1577.85 L1036.04 1570.97 Z" fill="#000000" fill-rule="nonzero" fill-opacity="1"></path><path clip-path="url(#clip670)" d="M1088.82 1570.97 L1102.19 1570.97 L1102.19 1524.83 L1087.64 1527.74 L1087.64 1520.29 L1102.11 1517.37 L1110.29 1517.37 L1110.29 1570.97 L1123.66 1570.97 L1123.66 1577.85 L1088.82 1577.85 L1088.82 1570.97 Z" fill="#000000" fill-rule="nonzero" fill-opacity="1"></path><path clip-path="url(#clip670)" d="M1156.27 1551.85 L1144.84 1588.79 L1137.96 1588.79 L1149.38 1551.85 L1137.96 1514.9 L1144.84 1514.9 L1156.27 1551.85 Z" fill="#000000" fill-rule="nonzero" fill-opacity="1"></path><path clip-path="url(#clip670)" d="M1250.62 1514.46 L1250.62 1597.42 L1243.73 1597.42 L1243.73 1514.46 L1250.62 1514.46 Z" fill="#000000" fill-rule="nonzero" fill-opacity="1"></path><path clip-path="url(#clip670)" d="M1271.44 1570.97 L1284.81 1570.97 L1284.81 1524.83 L1270.27 1527.74 L1270.27 1520.29 L1284.73 1517.37 L1292.91 1517.37 L1292.91 1570.97 L1306.28 1570.97 L1306.28 1577.85 L1271.44 1577.85 L1271.44 1570.97 Z" fill="#000000" fill-rule="nonzero" fill-opacity="1"></path><path clip-path="url(#clip670)" d="M1340.31 1522.76 Q1333.99 1522.76 1330.79 1529 Q1327.63 1535.2 1327.63 1547.68 Q1327.63 1560.11 1330.79 1566.35 Q1333.99 1572.55 1340.31 1572.55 Q1346.67 1572.55 1349.83 1566.35 Q1353.03 1560.11 1353.03 1547.68 Q1353.03 1535.2 1349.83 1529 Q1346.67 1522.76 1340.31 1522.76 M1340.31 1516.28 Q1350.47 1516.28 1355.82 1524.34 Q1361.21 1532.36 1361.21 1547.68 Q1361.21 1562.95 1355.82 1571.01 Q1350.47 1579.03 1340.31 1579.03 Q1330.14 1579.03 1324.75 1571.01 Q1319.4 1562.95 1319.4 1547.68 Q1319.4 1532.36 1324.75 1524.34 Q1330.14 1516.28 1340.31 1516.28 Z" fill="#000000" fill-rule="nonzero" fill-opacity="1"></path><path clip-path="url(#clip670)" d="M1393.09 1522.76 Q1386.77 1522.76 1383.57 1529 Q1380.41 1535.2 1380.41 1547.68 Q1380.41 1560.11 1383.57 1566.35 Q1386.77 1572.55 1393.09 1572.55 Q1399.45 1572.55 1402.61 1566.35 Q1405.81 1560.11 1405.81 1547.68 Q1405.81 1535.2 1402.61 1529 Q1399.45 1522.76 1393.09 1522.76 M1393.09 1516.28 Q1403.26 1516.28 1408.61 1524.34 Q1413.99 1532.36 1413.99 1547.68 Q1413.99 1562.95 1408.61 1571.01 Q1403.26 1579.03 1393.09 1579.03 Q1382.92 1579.03 1377.53 1571.01 Q1372.19 1562.95 1372.19 1547.68 Q1372.19 1532.36 1377.53 1524.34 Q1382.92 1516.28 1393.09 1516.28 Z" fill="#000000" fill-rule="nonzero" fill-opacity="1"></path><path clip-path="url(#clip670)" d="M1444.46 1551.85 L1433.03 1588.79 L1426.15 1588.79 L1437.57 1551.85 L1426.15 1514.9 L1433.03 1514.9 L1444.46 1551.85 Z" fill="#000000" fill-rule="nonzero" fill-opacity="1"></path><path clip-path="url(#clip670)" d="M1538.81 1514.46 L1538.81 1597.42 L1531.92 1597.42 L1531.92 1514.46 L1538.81 1514.46 Z" fill="#000000" fill-rule="nonzero" fill-opacity="1"></path><path clip-path="url(#clip670)" d="M1559.63 1570.97 L1573 1570.97 L1573 1524.83 L1558.46 1527.74 L1558.46 1520.29 L1572.92 1517.37 L1581.1 1517.37 L1581.1 1570.97 L1594.47 1570.97 L1594.47 1577.85 L1559.63 1577.85 L1559.63 1570.97 Z" fill="#000000" fill-rule="nonzero" fill-opacity="1"></path><path clip-path="url(#clip670)" d="M1628.5 1522.76 Q1622.18 1522.76 1618.98 1529 Q1615.82 1535.2 1615.82 1547.68 Q1615.82 1560.11 1618.98 1566.35 Q1622.18 1572.55 1628.5 1572.55 Q1634.86 1572.55 1638.02 1566.35 Q1641.22 1560.11 1641.22 1547.68 Q1641.22 1535.2 1638.02 1529 Q1634.86 1522.76 1628.5 1522.76 M1628.5 1516.28 Q1638.66 1516.28 1644.01 1524.34 Q1649.4 1532.36 1649.4 1547.68 Q1649.4 1562.95 1644.01 1571.01 Q1638.66 1579.03 1628.5 1579.03 Q1618.33 1579.03 1612.94 1571.01 Q1607.59 1562.95 1607.59 1547.68 Q1607.59 1532.36 1612.94 1524.34 Q1618.33 1516.28 1628.5 1516.28 Z" fill="#000000" fill-rule="nonzero" fill-opacity="1"></path><path clip-path="url(#clip670)" d="M1665.2 1570.97 L1678.57 1570.97 L1678.57 1524.83 L1664.02 1527.74 L1664.02 1520.29 L1678.48 1517.37 L1686.67 1517.37 L1686.67 1570.97 L1700.03 1570.97 L1700.03 1577.85 L1665.2 1577.85 L1665.2 1570.97 Z" fill="#000000" fill-rule="nonzero" fill-opacity="1"></path><path clip-path="url(#clip670)" d="M1732.64 1551.85 L1721.22 1588.79 L1714.33 1588.79 L1725.76 1551.85 L1714.33 1514.9 L1721.22 1514.9 L1732.64 1551.85 Z" fill="#000000" fill-rule="nonzero" fill-opacity="1"></path><path clip-path="url(#clip670)" d="M1827 1514.46 L1827 1597.42 L1820.11 1597.42 L1820.11 1514.46 L1827 1514.46 Z" fill="#000000" fill-rule="nonzero" fill-opacity="1"></path><path clip-path="url(#clip670)" d="M1847.82 1570.97 L1861.19 1570.97 L1861.19 1524.83 L1846.64 1527.74 L1846.64 1520.29 L1861.11 1517.37 L1869.29 1517.37 L1869.29 1570.97 L1882.66 1570.97 L1882.66 1577.85 L1847.82 1577.85 L1847.82 1570.97 Z" fill="#000000" fill-rule="nonzero" fill-opacity="1"></path><path clip-path="url(#clip670)" d="M1900.6 1570.97 L1913.97 1570.97 L1913.97 1524.83 L1899.43 1527.74 L1899.43 1520.29 L1913.89 1517.37 L1922.07 1517.37 L1922.07 1570.97 L1935.44 1570.97 L1935.44 1577.85 L1900.6 1577.85 L1900.6 1570.97 Z" fill="#000000" fill-rule="nonzero" fill-opacity="1"></path><path clip-path="url(#clip670)" d="M1969.47 1522.76 Q1963.15 1522.76 1959.95 1529 Q1956.79 1535.2 1956.79 1547.68 Q1956.79 1560.11 1959.95 1566.35 Q1963.15 1572.55 1969.47 1572.55 Q1975.83 1572.55 1978.99 1566.35 Q1982.19 1560.11 1982.19 1547.68 Q1982.19 1535.2 1978.99 1529 Q1975.83 1522.76 1969.47 1522.76 M1969.47 1516.28 Q1979.64 1516.28 1984.98 1524.34 Q1990.37 1532.36 1990.37 1547.68 Q1990.37 1562.95 1984.98 1571.01 Q1979.64 1579.03 1969.47 1579.03 Q1959.3 1579.03 1953.91 1571.01 Q1948.57 1562.95 1948.57 1547.68 Q1948.57 1532.36 1953.91 1524.34 Q1959.3 1516.28 1969.47 1516.28 Z" fill="#000000" fill-rule="nonzero" fill-opacity="1"></path><path clip-path="url(#clip670)" d="M2020.83 1551.85 L2009.41 1588.79 L2002.52 1588.79 L2013.95 1551.85 L2002.52 1514.9 L2009.41 1514.9 L2020.83 1551.85 Z" fill="#000000" fill-rule="nonzero" fill-opacity="1"></path><path clip-path="url(#clip670)" d="M2115.19 1514.46 L2115.19 1597.42 L2108.3 1597.42 L2108.3 1514.46 L2115.19 1514.46 Z" fill="#000000" fill-rule="nonzero" fill-opacity="1"></path><path clip-path="url(#clip670)" d="M2136.01 1570.97 L2149.38 1570.97 L2149.38 1524.83 L2134.83 1527.74 L2134.83 1520.29 L2149.3 1517.37 L2157.48 1517.37 L2157.48 1570.97 L2170.85 1570.97 L2170.85 1577.85 L2136.01 1577.85 L2136.01 1570.97 Z" fill="#000000" fill-rule="nonzero" fill-opacity="1"></path><path clip-path="url(#clip670)" d="M2188.79 1570.97 L2202.16 1570.97 L2202.16 1524.83 L2187.62 1527.74 L2187.62 1520.29 L2202.08 1517.37 L2210.26 1517.37 L2210.26 1570.97 L2223.63 1570.97 L2223.63 1577.85 L2188.79 1577.85 L2188.79 1570.97 Z" fill="#000000" fill-rule="nonzero" fill-opacity="1"></path><path clip-path="url(#clip670)" d="M2241.58 1570.97 L2254.94 1570.97 L2254.94 1524.83 L2240.4 1527.74 L2240.4 1520.29 L2254.86 1517.37 L2263.04 1517.37 L2263.04 1570.97 L2276.41 1570.97 L2276.41 1577.85 L2241.58 1577.85 L2241.58 1570.97 Z" fill="#000000" fill-rule="nonzero" fill-opacity="1"></path><path clip-path="url(#clip670)" d="M2309.02 1551.85 L2297.6 1588.79 L2290.71 1588.79 L2302.14 1551.85 L2290.71 1514.9 L2297.6 1514.9 L2309.02 1551.85 Z" fill="#000000" fill-rule="nonzero" fill-opacity="1"></path><circle clip-path="url(#clip672)" style="fill:#3da44d; stroke:none; fill-opacity:1" cx="191.339" cy="123.472" r="2"></circle>
<circle clip-path="url(#clip672)" style="fill:#3da44d; stroke:none; fill-opacity:1" cx="479.528" cy="123.472" r="2"></circle>
<circle clip-path="url(#clip672)" style="fill:#3da44d; stroke:none; fill-opacity:1" cx="767.717" cy="123.472" r="2"></circle>
<circle clip-path="url(#clip672)" style="fill:#3da44d; stroke:none; fill-opacity:1" cx="1055.91" cy="123.472" r="2"></circle>
<circle clip-path="url(#clip672)" style="fill:#3da44d; stroke:none; fill-opacity:1" cx="1344.09" cy="123.472" r="2"></circle>
<circle clip-path="url(#clip672)" style="fill:#3da44d; stroke:none; fill-opacity:1" cx="1632.28" cy="123.472" r="2"></circle>
<circle clip-path="url(#clip672)" style="fill:#3da44d; stroke:none; fill-opacity:1" cx="1920.47" cy="123.472" r="2"></circle>
<circle clip-path="url(#clip672)" style="fill:#3da44d; stroke:none; fill-opacity:1" cx="2208.66" cy="123.472" r="2"></circle>
<path clip-path="url(#clip670)" d="M127.881 146.826 L156.44 146.826 L156.44 153.712 L118.037 153.712 L118.037 146.826 Q122.696 142.005 130.717 133.903 Q138.778 125.761 140.844 123.411 Q144.773 118.996 146.313 115.958 Q147.893 112.879 147.893 109.922 Q147.893 105.101 144.49 102.063 Q141.128 99.0249 135.699 99.0249 Q131.851 99.0249 127.557 100.362 Q123.304 101.699 118.443 104.413 L118.443 96.1488 Q123.385 94.1638 127.679 93.1511 Q131.973 92.1384 135.537 92.1384 Q144.935 92.1384 150.526 96.8374 Q156.116 101.536 156.116 109.395 Q156.116 113.122 154.698 116.484 Q153.321 119.806 149.635 124.343 Q148.622 125.518 143.194 131.149 Q137.765 136.739 127.881 146.826 Z" fill="#000000" fill-rule="nonzero" fill-opacity="1"></path><path clip-path="url(#clip670)" d="M171.55 93.2321 L210.439 93.2321 L210.439 96.7159 L188.483 153.712 L179.935 153.712 L200.595 100.119 L171.55 100.119 L171.55 93.2321 Z" fill="#000000" fill-rule="nonzero" fill-opacity="1"></path><path clip-path="url(#clip670)" d="M243.899 124.991 Q238.066 124.991 234.704 128.11 Q231.382 131.23 231.382 136.698 Q231.382 142.167 234.704 145.286 Q238.066 148.405 243.899 148.405 Q249.732 148.405 253.095 145.286 Q256.457 142.127 256.457 136.698 Q256.457 131.23 253.095 128.11 Q249.773 124.991 243.899 124.991 M235.716 121.507 Q230.45 120.211 227.493 116.606 Q224.576 113.001 224.576 107.815 Q224.576 100.564 229.721 96.3513 Q234.906 92.1384 243.899 92.1384 Q252.933 92.1384 258.077 96.3513 Q263.222 100.564 263.222 107.815 Q263.222 113.001 260.265 116.606 Q257.348 120.211 252.122 121.507 Q258.037 122.885 261.318 126.895 Q264.64 130.906 264.64 136.698 Q264.64 145.489 259.252 150.188 Q253.905 154.887 243.899 154.887 Q233.893 154.887 228.506 150.188 Q223.158 145.489 223.158 136.698 Q223.158 130.906 226.48 126.895 Q229.802 122.885 235.716 121.507 M232.719 108.585 Q232.719 113.284 235.635 115.917 Q238.592 118.55 243.899 118.55 Q249.165 118.55 252.122 115.917 Q255.12 113.284 255.12 108.585 Q255.12 103.886 252.122 101.253 Q249.165 98.6198 243.899 98.6198 Q238.592 98.6198 235.635 101.253 Q232.719 103.886 232.719 108.585 Z" fill="#000000" fill-rule="nonzero" fill-opacity="1"></path><path clip-path="url(#clip670)" d="M479.528 98.6198 Q473.208 98.6198 470.008 104.858 Q466.848 111.056 466.848 123.533 Q466.848 135.969 470.008 142.208 Q473.208 148.405 479.528 148.405 Q485.887 148.405 489.047 142.208 Q492.247 135.969 492.247 123.533 Q492.247 111.056 489.047 104.858 Q485.887 98.6198 479.528 98.6198 M479.528 92.1384 Q489.695 92.1384 495.043 100.2 Q500.43 108.22 500.43 123.533 Q500.43 138.805 495.043 146.866 Q489.695 154.887 479.528 154.887 Q469.36 154.887 463.972 146.866 Q458.625 138.805 458.625 123.533 Q458.625 108.22 463.972 100.2 Q469.36 92.1384 479.528 92.1384 Z" fill="#000000" fill-rule="nonzero" fill-opacity="1"></path><path clip-path="url(#clip670)" d="M767.717 98.6198 Q761.397 98.6198 758.197 104.858 Q755.037 111.056 755.037 123.533 Q755.037 135.969 758.197 142.208 Q761.397 148.405 767.717 148.405 Q774.076 148.405 777.236 142.208 Q780.436 135.969 780.436 123.533 Q780.436 111.056 777.236 104.858 Q774.076 98.6198 767.717 98.6198 M767.717 92.1384 Q777.884 92.1384 783.231 100.2 Q788.619 108.22 788.619 123.533 Q788.619 138.805 783.231 146.866 Q777.884 154.887 767.717 154.887 Q757.549 154.887 752.161 146.866 Q746.814 138.805 746.814 123.533 Q746.814 108.22 752.161 100.2 Q757.549 92.1384 767.717 92.1384 Z" fill="#000000" fill-rule="nonzero" fill-opacity="1"></path><path clip-path="url(#clip670)" d="M993.238 146.826 L1021.8 146.826 L1021.8 153.712 L983.394 153.712 L983.394 146.826 Q988.053 142.005 996.074 133.903 Q1004.13 125.761 1006.2 123.411 Q1010.13 118.996 1011.67 115.958 Q1013.25 112.879 1013.25 109.922 Q1013.25 105.101 1009.85 102.063 Q1006.48 99.0249 1001.06 99.0249 Q997.208 99.0249 992.914 100.362 Q988.661 101.699 983.799 104.413 L983.799 96.1488 Q988.742 94.1638 993.035 93.1511 Q997.329 92.1384 1000.89 92.1384 Q1010.29 92.1384 1015.88 96.8374 Q1021.47 101.536 1021.47 109.395 Q1021.47 113.122 1020.06 116.484 Q1018.68 119.806 1014.99 124.343 Q1013.98 125.518 1008.55 131.149 Q1003.12 136.739 993.238 146.826 Z" fill="#000000" fill-rule="nonzero" fill-opacity="1"></path><path clip-path="url(#clip670)" d="M1061.46 100.362 L1040.8 132.647 L1061.46 132.647 L1061.46 100.362 M1059.31 93.2321 L1069.6 93.2321 L1069.6 132.647 L1078.23 132.647 L1078.23 139.453 L1069.6 139.453 L1069.6 153.712 L1061.46 153.712 L1061.46 139.453 L1034.15 139.453 L1034.15 131.554 L1059.31 93.2321 Z" fill="#000000" fill-rule="nonzero" fill-opacity="1"></path><path clip-path="url(#clip670)" d="M1091.84 93.2321 L1123.96 93.2321 L1123.96 100.119 L1099.33 100.119 L1099.33 114.945 Q1101.11 114.337 1102.9 114.054 Q1104.68 113.73 1106.46 113.73 Q1116.59 113.73 1122.5 119.279 Q1128.42 124.829 1128.42 134.308 Q1128.42 144.071 1122.34 149.499 Q1116.26 154.887 1105.21 154.887 Q1101.4 154.887 1097.43 154.239 Q1093.5 153.591 1089.28 152.294 L1089.28 144.071 Q1092.93 146.056 1096.82 147.028 Q1100.71 148 1105.04 148 Q1112.05 148 1116.14 144.314 Q1120.23 140.628 1120.23 134.308 Q1120.23 127.989 1116.14 124.303 Q1112.05 120.616 1105.04 120.616 Q1101.76 120.616 1098.48 121.345 Q1095.24 122.075 1091.84 123.614 L1091.84 93.2321 Z" fill="#000000" fill-rule="nonzero" fill-opacity="1"></path><path clip-path="url(#clip670)" d="M1273.26 146.826 L1286.63 146.826 L1286.63 100.686 L1272.09 103.602 L1272.09 96.1488 L1286.55 93.2321 L1294.73 93.2321 L1294.73 146.826 L1308.1 146.826 L1308.1 153.712 L1273.26 153.712 L1273.26 146.826 Z" fill="#000000" fill-rule="nonzero" fill-opacity="1"></path><path clip-path="url(#clip670)" d="M1342.13 98.6198 Q1335.81 98.6198 1332.61 104.858 Q1329.45 111.056 1329.45 123.533 Q1329.45 135.969 1332.61 142.208 Q1335.81 148.405 1342.13 148.405 Q1348.49 148.405 1351.65 142.208 Q1354.85 135.969 1354.85 123.533 Q1354.85 111.056 1351.65 104.858 Q1348.49 98.6198 1342.13 98.6198 M1342.13 92.1384 Q1352.3 92.1384 1357.64 100.2 Q1363.03 108.22 1363.03 123.533 Q1363.03 138.805 1357.64 146.866 Q1352.3 154.887 1342.13 154.887 Q1331.96 154.887 1326.57 146.866 Q1321.23 138.805 1321.23 123.533 Q1321.23 108.22 1326.57 100.2 Q1331.96 92.1384 1342.13 92.1384 Z" fill="#000000" fill-rule="nonzero" fill-opacity="1"></path><path clip-path="url(#clip670)" d="M1395.93 120.211 Q1390.42 120.211 1387.18 123.978 Q1383.98 127.746 1383.98 134.308 Q1383.98 140.83 1387.18 144.638 Q1390.42 148.405 1395.93 148.405 Q1401.44 148.405 1404.64 144.638 Q1407.88 140.83 1407.88 134.308 Q1407.88 127.746 1404.64 123.978 Q1401.44 120.211 1395.93 120.211 M1412.17 94.5689 L1412.17 102.023 Q1409.09 100.564 1405.93 99.7946 Q1402.81 99.0249 1399.73 99.0249 Q1391.63 99.0249 1387.34 104.494 Q1383.08 109.962 1382.48 121.021 Q1384.87 117.497 1388.47 115.634 Q1392.08 113.73 1396.41 113.73 Q1405.53 113.73 1410.79 119.279 Q1416.1 124.789 1416.1 134.308 Q1416.1 143.625 1410.59 149.256 Q1405.08 154.887 1395.93 154.887 Q1385.43 154.887 1379.88 146.866 Q1374.33 138.805 1374.33 123.533 Q1374.33 109.193 1381.14 100.686 Q1387.95 92.1384 1399.41 92.1384 Q1402.49 92.1384 1405.61 92.746 Q1408.77 93.3537 1412.17 94.5689 Z" fill="#000000" fill-rule="nonzero" fill-opacity="1"></path><path clip-path="url(#clip670)" d="M1562.99 146.826 L1576.36 146.826 L1576.36 100.686 L1561.82 103.602 L1561.82 96.1488 L1576.28 93.2321 L1584.46 93.2321 L1584.46 146.826 L1597.83 146.826 L1597.83 153.712 L1562.99 153.712 L1562.99 146.826 Z" fill="#000000" fill-rule="nonzero" fill-opacity="1"></path><path clip-path="url(#clip670)" d="M1621.41 146.826 L1649.97 146.826 L1649.97 153.712 L1611.56 153.712 L1611.56 146.826 Q1616.22 142.005 1624.24 133.903 Q1632.3 125.761 1634.37 123.411 Q1638.3 118.996 1639.84 115.958 Q1641.42 112.879 1641.42 109.922 Q1641.42 105.101 1638.02 102.063 Q1634.65 99.0249 1629.23 99.0249 Q1625.38 99.0249 1621.08 100.362 Q1616.83 101.699 1611.97 104.413 L1611.97 96.1488 Q1616.91 94.1638 1621.2 93.1511 Q1625.5 92.1384 1629.06 92.1384 Q1638.46 92.1384 1644.05 96.8374 Q1649.64 101.536 1649.64 109.395 Q1649.64 113.122 1648.22 116.484 Q1646.85 119.806 1643.16 124.343 Q1642.15 125.518 1636.72 131.149 Q1631.29 136.739 1621.41 146.826 Z" fill="#000000" fill-rule="nonzero" fill-opacity="1"></path><path clip-path="url(#clip670)" d="M1674.19 146.826 L1702.75 146.826 L1702.75 153.712 L1664.35 153.712 L1664.35 146.826 Q1669 142.005 1677.03 133.903 Q1685.09 125.761 1687.15 123.411 Q1691.08 118.996 1692.62 115.958 Q1694.2 112.879 1694.2 109.922 Q1694.2 105.101 1690.8 102.063 Q1687.44 99.0249 1682.01 99.0249 Q1678.16 99.0249 1673.87 100.362 Q1669.61 101.699 1664.75 104.413 L1664.75 96.1488 Q1669.69 94.1638 1673.99 93.1511 Q1678.28 92.1384 1681.85 92.1384 Q1691.24 92.1384 1696.83 96.8374 Q1702.42 101.536 1702.42 109.395 Q1702.42 113.122 1701.01 116.484 Q1699.63 119.806 1695.94 124.343 Q1694.93 125.518 1689.5 131.149 Q1684.07 136.739 1674.19 146.826 Z" fill="#000000" fill-rule="nonzero" fill-opacity="1"></path><path clip-path="url(#clip670)" d="M1850.86 146.826 L1864.23 146.826 L1864.23 100.686 L1849.68 103.602 L1849.68 96.1488 L1864.14 93.2321 L1872.33 93.2321 L1872.33 146.826 L1885.7 146.826 L1885.7 153.712 L1850.86 153.712 L1850.86 146.826 Z" fill="#000000" fill-rule="nonzero" fill-opacity="1"></path><path clip-path="url(#clip670)" d="M1909.27 146.826 L1937.83 146.826 L1937.83 153.712 L1899.43 153.712 L1899.43 146.826 Q1904.09 142.005 1912.11 133.903 Q1920.17 125.761 1922.23 123.411 Q1926.16 118.996 1927.7 115.958 Q1929.28 112.879 1929.28 109.922 Q1929.28 105.101 1925.88 102.063 Q1922.52 99.0249 1917.09 99.0249 Q1913.24 99.0249 1908.95 100.362 Q1904.69 101.699 1899.83 104.413 L1899.83 96.1488 Q1904.78 94.1638 1909.07 93.1511 Q1913.36 92.1384 1916.93 92.1384 Q1926.33 92.1384 1931.92 96.8374 Q1937.51 101.536 1937.51 109.395 Q1937.51 113.122 1936.09 116.484 Q1934.71 119.806 1931.03 124.343 Q1930.01 125.518 1924.58 131.149 Q1919.16 136.739 1909.27 146.826 Z" fill="#000000" fill-rule="nonzero" fill-opacity="1"></path><path clip-path="url(#clip670)" d="M1956.42 146.826 L1969.79 146.826 L1969.79 100.686 L1955.25 103.602 L1955.25 96.1488 L1969.71 93.2321 L1977.89 93.2321 L1977.89 146.826 L1991.26 146.826 L1991.26 153.712 L1956.42 153.712 L1956.42 146.826 Z" fill="#000000" fill-rule="nonzero" fill-opacity="1"></path><path clip-path="url(#clip670)" d="M2138.05 146.826 L2151.42 146.826 L2151.42 100.686 L2136.88 103.602 L2136.88 96.1488 L2151.34 93.2321 L2159.52 93.2321 L2159.52 146.826 L2172.89 146.826 L2172.89 153.712 L2138.05 153.712 L2138.05 146.826 Z" fill="#000000" fill-rule="nonzero" fill-opacity="1"></path><path clip-path="url(#clip670)" d="M2196.47 146.826 L2225.03 146.826 L2225.03 153.712 L2186.62 153.712 L2186.62 146.826 Q2191.28 142.005 2199.3 133.903 Q2207.37 125.761 2209.43 123.411 Q2213.36 118.996 2214.9 115.958 Q2216.48 112.879 2216.48 109.922 Q2216.48 105.101 2213.08 102.063 Q2209.71 99.0249 2204.29 99.0249 Q2200.44 99.0249 2196.14 100.362 Q2191.89 101.699 2187.03 104.413 L2187.03 96.1488 Q2191.97 94.1638 2196.27 93.1511 Q2200.56 92.1384 2204.12 92.1384 Q2213.52 92.1384 2219.11 96.8374 Q2224.7 101.536 2224.7 109.395 Q2224.7 113.122 2223.29 116.484 Q2221.91 119.806 2218.22 124.343 Q2217.21 125.518 2211.78 131.149 Q2206.35 136.739 2196.47 146.826 Z" fill="#000000" fill-rule="nonzero" fill-opacity="1"></path><path clip-path="url(#clip670)" d="M2259.7 124.991 Q2253.87 124.991 2250.51 128.11 Q2247.19 131.23 2247.19 136.698 Q2247.19 142.167 2250.51 145.286 Q2253.87 148.405 2259.7 148.405 Q2265.54 148.405 2268.9 145.286 Q2272.26 142.127 2272.26 136.698 Q2272.26 131.23 2268.9 128.11 Q2265.58 124.991 2259.7 124.991 M2251.52 121.507 Q2246.25 120.211 2243.3 116.606 Q2240.38 113.001 2240.38 107.815 Q2240.38 100.564 2245.52 96.3513 Q2250.71 92.1384 2259.7 92.1384 Q2268.74 92.1384 2273.88 96.3513 Q2279.03 100.564 2279.03 107.815 Q2279.03 113.001 2276.07 116.606 Q2273.15 120.211 2267.93 121.507 Q2273.84 122.885 2277.12 126.895 Q2280.44 130.906 2280.44 136.698 Q2280.44 145.489 2275.06 150.188 Q2269.71 154.887 2259.7 154.887 Q2249.7 154.887 2244.31 150.188 Q2238.96 145.489 2238.96 136.698 Q2238.96 130.906 2242.28 126.895 Q2245.61 122.885 2251.52 121.507 M2248.52 108.585 Q2248.52 113.284 2251.44 115.917 Q2254.4 118.55 2259.7 118.55 Q2264.97 118.55 2267.93 115.917 Q2270.92 113.284 2270.92 108.585 Q2270.92 103.886 2267.93 101.253 Q2264.97 98.6198 2259.7 98.6198 Q2254.4 98.6198 2251.44 101.253 Q2248.52 103.886 2248.52 108.585 Z" fill="#000000" fill-rule="nonzero" fill-opacity="1"></path><path clip-path="url(#clip670)" d="M1593.37 274.795 L2275.91 274.795 L2275.91 171.115 L1593.37 171.115  Z" fill="#000000" fill-rule="evenodd" fill-opacity="0"></path>
<polyline clip-path="url(#clip670)" style="stroke:#000000; stroke-linecap:round; stroke-linejoin:round; stroke-width:4; stroke-opacity:0; fill:none" points="1593.37,274.795 2275.91,274.795 2275.91,171.115 1593.37,171.115 1593.37,274.795 "></polyline>
<path clip-path="url(#clip670)" d="M1618.98 243.691 L1772.68 243.691 L1772.68 202.219 L1618.98 202.219 L1618.98 243.691  Z" fill="#add8e6" fill-rule="evenodd" fill-opacity="1"></path>
<polyline clip-path="url(#clip670)" style="stroke:#add8e6; stroke-linecap:round; stroke-linejoin:round; stroke-width:4; stroke-opacity:1; fill:none" points="1618.98,243.691 1772.68,243.691 1772.68,202.219 1618.98,202.219 1618.98,243.691 "></polyline>
<path clip-path="url(#clip670)" d="M1798.3 205.675 L1818.16 205.675 L1818.16 209.61 L1802.98 209.61 L1802.98 219.795 L1816.68 219.795 L1816.68 223.73 L1802.98 223.73 L1802.98 240.235 L1798.3 240.235 L1798.3 205.675 Z" fill="#000000" fill-rule="nonzero" fill-opacity="1"></path><path clip-path="url(#clip670)" d="M1833.74 217.295 Q1830.31 217.295 1828.32 219.98 Q1826.33 222.642 1826.33 227.295 Q1826.33 231.948 1828.3 234.633 Q1830.29 237.295 1833.74 237.295 Q1837.14 237.295 1839.13 234.61 Q1841.12 231.925 1841.12 227.295 Q1841.12 222.689 1839.13 220.004 Q1837.14 217.295 1833.74 217.295 M1833.74 213.684 Q1839.3 213.684 1842.47 217.295 Q1845.64 220.906 1845.64 227.295 Q1845.64 233.661 1842.47 237.295 Q1839.3 240.906 1833.74 240.906 Q1828.16 240.906 1824.99 237.295 Q1821.84 233.661 1821.84 227.295 Q1821.84 220.906 1824.99 217.295 Q1828.16 213.684 1833.74 213.684 Z" fill="#000000" fill-rule="nonzero" fill-opacity="1"></path><path clip-path="url(#clip670)" d="M1852.26 230.003 L1852.26 214.309 L1856.52 214.309 L1856.52 229.841 Q1856.52 233.522 1857.95 235.374 Q1859.39 237.203 1862.26 237.203 Q1865.71 237.203 1867.7 235.003 Q1869.71 232.804 1869.71 229.008 L1869.71 214.309 L1873.97 214.309 L1873.97 240.235 L1869.71 240.235 L1869.71 236.253 Q1868.16 238.615 1866.1 239.772 Q1864.06 240.906 1861.36 240.906 Q1856.89 240.906 1854.57 238.128 Q1852.26 235.351 1852.26 230.003 M1862.98 213.684 L1862.98 213.684 Z" fill="#000000" fill-rule="nonzero" fill-opacity="1"></path><path clip-path="url(#clip670)" d="M1904.3 224.587 L1904.3 240.235 L1900.04 240.235 L1900.04 224.726 Q1900.04 221.045 1898.6 219.217 Q1897.17 217.388 1894.3 217.388 Q1890.85 217.388 1888.86 219.587 Q1886.86 221.786 1886.86 225.582 L1886.86 240.235 L1882.58 240.235 L1882.58 214.309 L1886.86 214.309 L1886.86 218.337 Q1888.39 215.999 1890.45 214.842 Q1892.54 213.684 1895.24 213.684 Q1899.71 213.684 1902 216.462 Q1904.3 219.217 1904.3 224.587 Z" fill="#000000" fill-rule="nonzero" fill-opacity="1"></path><path clip-path="url(#clip670)" d="M1929.85 218.244 L1929.85 204.217 L1934.11 204.217 L1934.11 240.235 L1929.85 240.235 L1929.85 236.346 Q1928.51 238.661 1926.45 239.795 Q1924.41 240.906 1921.54 240.906 Q1916.84 240.906 1913.88 237.156 Q1910.94 233.406 1910.94 227.295 Q1910.94 221.184 1913.88 217.434 Q1916.84 213.684 1921.54 213.684 Q1924.41 213.684 1926.45 214.818 Q1928.51 215.929 1929.85 218.244 M1915.34 227.295 Q1915.34 231.994 1917.26 234.679 Q1919.2 237.341 1922.58 237.341 Q1925.96 237.341 1927.91 234.679 Q1929.85 231.994 1929.85 227.295 Q1929.85 222.596 1927.91 219.934 Q1925.96 217.249 1922.58 217.249 Q1919.2 217.249 1917.26 219.934 Q1915.34 222.596 1915.34 227.295 Z" fill="#000000" fill-rule="nonzero" fill-opacity="1"></path><path clip-path="url(#clip670)" d="M1957.95 214.309 L1962.21 214.309 L1962.21 240.235 L1957.95 240.235 L1957.95 214.309 M1957.95 204.217 L1962.21 204.217 L1962.21 209.61 L1957.95 209.61 L1957.95 204.217 Z" fill="#000000" fill-rule="nonzero" fill-opacity="1"></path><path clip-path="url(#clip670)" d="M1992.67 224.587 L1992.67 240.235 L1988.42 240.235 L1988.42 224.726 Q1988.42 221.045 1986.98 219.217 Q1985.54 217.388 1982.67 217.388 Q1979.23 217.388 1977.23 219.587 Q1975.24 221.786 1975.24 225.582 L1975.24 240.235 L1970.96 240.235 L1970.96 214.309 L1975.24 214.309 L1975.24 218.337 Q1976.77 215.999 1978.83 214.842 Q1980.92 213.684 1983.62 213.684 Q1988.09 213.684 1990.38 216.462 Q1992.67 219.217 1992.67 224.587 Z" fill="#000000" fill-rule="nonzero" fill-opacity="1"></path><path clip-path="url(#clip670)" d="M2017.65 236.3 L2025.29 236.3 L2025.29 209.934 L2016.98 211.601 L2016.98 207.342 L2025.24 205.675 L2029.92 205.675 L2029.92 236.3 L2037.56 236.3 L2037.56 240.235 L2017.65 240.235 L2017.65 236.3 Z" fill="#000000" fill-rule="nonzero" fill-opacity="1"></path><path clip-path="url(#clip670)" d="M2057 208.754 Q2053.39 208.754 2051.56 212.318 Q2049.76 215.86 2049.76 222.99 Q2049.76 230.096 2051.56 233.661 Q2053.39 237.203 2057 237.203 Q2060.64 237.203 2062.44 233.661 Q2064.27 230.096 2064.27 222.99 Q2064.27 215.86 2062.44 212.318 Q2060.64 208.754 2057 208.754 M2057 205.05 Q2062.81 205.05 2065.87 209.656 Q2068.95 214.24 2068.95 222.99 Q2068.95 231.716 2065.87 236.323 Q2062.81 240.906 2057 240.906 Q2051.19 240.906 2048.11 236.323 Q2045.06 231.716 2045.06 222.99 Q2045.06 214.24 2048.11 209.656 Q2051.19 205.05 2057 205.05 Z" fill="#000000" fill-rule="nonzero" fill-opacity="1"></path><path clip-path="url(#clip670)" d="M2087.16 208.754 Q2083.55 208.754 2081.72 212.318 Q2079.92 215.86 2079.92 222.99 Q2079.92 230.096 2081.72 233.661 Q2083.55 237.203 2087.16 237.203 Q2090.8 237.203 2092.6 233.661 Q2094.43 230.096 2094.43 222.99 Q2094.43 215.86 2092.6 212.318 Q2090.8 208.754 2087.16 208.754 M2087.16 205.05 Q2092.97 205.05 2096.03 209.656 Q2099.11 214.24 2099.11 222.99 Q2099.11 231.716 2096.03 236.323 Q2092.97 240.906 2087.16 240.906 Q2081.35 240.906 2078.28 236.323 Q2075.22 231.716 2075.22 222.99 Q2075.22 214.24 2078.28 209.656 Q2081.35 205.05 2087.16 205.05 Z" fill="#000000" fill-rule="nonzero" fill-opacity="1"></path><path clip-path="url(#clip670)" d="M2117.33 208.754 Q2113.72 208.754 2111.89 212.318 Q2110.08 215.86 2110.08 222.99 Q2110.08 230.096 2111.89 233.661 Q2113.72 237.203 2117.33 237.203 Q2120.96 237.203 2122.77 233.661 Q2124.59 230.096 2124.59 222.99 Q2124.59 215.86 2122.77 212.318 Q2120.96 208.754 2117.33 208.754 M2117.33 205.05 Q2123.14 205.05 2126.19 209.656 Q2129.27 214.24 2129.27 222.99 Q2129.27 231.716 2126.19 236.323 Q2123.14 240.906 2117.33 240.906 Q2111.52 240.906 2108.44 236.323 Q2105.38 231.716 2105.38 222.99 Q2105.38 214.24 2108.44 209.656 Q2111.52 205.05 2117.33 205.05 Z" fill="#000000" fill-rule="nonzero" fill-opacity="1"></path><path clip-path="url(#clip670)" d="M2156.17 206.948 L2156.17 214.309 L2164.94 214.309 L2164.94 217.619 L2156.17 217.619 L2156.17 231.693 Q2156.17 234.865 2157.03 235.767 Q2157.9 236.67 2160.57 236.67 L2164.94 236.67 L2164.94 240.235 L2160.57 240.235 Q2155.64 240.235 2153.76 238.406 Q2151.89 236.554 2151.89 231.693 L2151.89 217.619 L2148.76 217.619 L2148.76 214.309 L2151.89 214.309 L2151.89 206.948 L2156.17 206.948 Z" fill="#000000" fill-rule="nonzero" fill-opacity="1"></path><path clip-path="url(#clip670)" d="M2185.57 218.291 Q2184.85 217.874 2183.99 217.689 Q2183.16 217.48 2182.14 217.48 Q2178.53 217.48 2176.59 219.842 Q2174.66 222.179 2174.66 226.578 L2174.66 240.235 L2170.38 240.235 L2170.38 214.309 L2174.66 214.309 L2174.66 218.337 Q2176.01 215.976 2178.16 214.842 Q2180.31 213.684 2183.39 213.684 Q2183.83 213.684 2184.36 213.754 Q2184.9 213.8 2185.54 213.916 L2185.57 218.291 Z" fill="#000000" fill-rule="nonzero" fill-opacity="1"></path><path clip-path="url(#clip670)" d="M2190.03 214.309 L2194.29 214.309 L2194.29 240.235 L2190.03 240.235 L2190.03 214.309 M2190.03 204.217 L2194.29 204.217 L2194.29 209.61 L2190.03 209.61 L2190.03 204.217 Z" fill="#000000" fill-rule="nonzero" fill-opacity="1"></path><path clip-path="url(#clip670)" d="M2225.38 226.207 L2225.38 228.291 L2205.8 228.291 Q2206.08 232.689 2208.44 235.003 Q2210.82 237.295 2215.06 237.295 Q2217.51 237.295 2219.8 236.693 Q2222.12 236.091 2224.39 234.888 L2224.39 238.915 Q2222.09 239.888 2219.69 240.397 Q2217.28 240.906 2214.8 240.906 Q2208.6 240.906 2204.96 237.295 Q2201.35 233.684 2201.35 227.527 Q2201.35 221.161 2204.78 217.434 Q2208.23 213.684 2214.06 213.684 Q2219.29 213.684 2222.33 217.064 Q2225.38 220.42 2225.38 226.207 M2221.12 224.957 Q2221.08 221.462 2219.15 219.379 Q2217.26 217.295 2214.11 217.295 Q2210.54 217.295 2208.39 219.309 Q2206.26 221.323 2205.94 224.98 L2221.12 224.957 Z" fill="#000000" fill-rule="nonzero" fill-opacity="1"></path><path clip-path="url(#clip670)" d="M2248.9 215.073 L2248.9 219.101 Q2247.09 218.175 2245.15 217.712 Q2243.21 217.249 2241.12 217.249 Q2237.95 217.249 2236.35 218.221 Q2234.78 219.193 2234.78 221.138 Q2234.78 222.619 2235.91 223.476 Q2237.05 224.309 2240.47 225.073 L2241.93 225.397 Q2246.47 226.369 2248.37 228.152 Q2250.29 229.911 2250.29 233.082 Q2250.29 236.693 2247.42 238.8 Q2244.57 240.906 2239.57 240.906 Q2237.49 240.906 2235.22 240.49 Q2232.97 240.096 2230.47 239.286 L2230.47 234.888 Q2232.84 236.115 2235.13 236.74 Q2237.42 237.341 2239.66 237.341 Q2242.67 237.341 2244.29 236.323 Q2245.91 235.281 2245.91 233.406 Q2245.91 231.67 2244.73 230.744 Q2243.58 229.818 2239.62 228.962 L2238.14 228.615 Q2234.18 227.781 2232.42 226.068 Q2230.66 224.332 2230.66 221.323 Q2230.66 217.666 2233.25 215.675 Q2235.84 213.684 2240.61 213.684 Q2242.97 213.684 2245.06 214.031 Q2247.14 214.379 2248.9 215.073 Z" fill="#000000" fill-rule="nonzero" fill-opacity="1"></path></svg>