<svg xmlns="http://www.w3.org/2000/svg" xmlns:xlink="http://www.w3.org/1999/xlink" width="375" height="400" viewBox="0 0 1500 1600">
<defs>
  <clipPath id="clip790">
    <rect x="0" y="0" width="1500" height="1600"></rect>
  </clipPath>
</defs>
<path clip-path="url(#clip790)" d="M0 1600 L1500 1600 L1500 0 L0 0  Z" fill="#ffffff" fill-rule="evenodd" fill-opacity="1"></path>
<defs>
  <clipPath id="clip791">
    <rect x="320" y="160" width="1121" height="1121"></rect>
  </clipPath>
</defs>
<path clip-path="url(#clip790)" d="M47.2441 1552.76 L1452.76 1552.76 L1452.76 153.712 L47.2441 153.712  Z" fill="#ffffff" fill-rule="evenodd" fill-opacity="1"></path>
<defs>
  <clipPath id="clip792">
    <rect x="47" y="153" width="1407" height="1400"></rect>
  </clipPath>
</defs>
<path clip-path="url(#clip790)" d="M542.411 12.096 L550.594 12.096 L550.594 36.8875 L580.328 36.8875 L580.328 12.096 L588.511 12.096 L588.511 72.576 L580.328 72.576 L580.328 43.7741 L550.594 43.7741 L550.594 72.576 L542.411 72.576 L542.411 12.096 Z" fill="#000000" fill-rule="nonzero" fill-opacity="1"></path><path clip-path="url(#clip790)" d="M604.471 27.2059 L611.925 27.2059 L611.925 72.576 L604.471 72.576 L604.471 27.2059 M604.471 9.54393 L611.925 9.54393 L611.925 18.9825 L604.471 18.9825 L604.471 9.54393 Z" fill="#000000" fill-rule="nonzero" fill-opacity="1"></path><path clip-path="url(#clip790)" d="M656.444 28.5427 L656.444 35.5912 Q653.285 33.9709 649.882 33.1607 Q646.479 32.3505 642.833 32.3505 Q637.284 32.3505 634.488 34.0519 Q631.734 35.7533 631.734 39.156 Q631.734 41.7486 633.719 43.2475 Q635.704 44.7058 641.699 46.0426 L644.251 46.6097 Q652.191 48.3111 655.513 51.4303 Q658.875 54.509 658.875 60.0587 Q658.875 66.3781 653.852 70.0644 Q648.869 73.7508 640.119 73.7508 Q636.473 73.7508 632.504 73.0216 Q628.574 72.3329 624.199 70.9151 L624.199 63.2184 Q628.331 65.3654 632.341 66.4591 Q636.352 67.5124 640.281 67.5124 Q645.547 67.5124 648.383 65.73 Q651.219 63.9071 651.219 60.6258 Q651.219 57.5877 649.153 55.9673 Q647.127 54.3469 640.2 52.8481 L637.608 52.2405 Q630.681 50.7821 627.602 47.7845 Q624.523 44.7463 624.523 39.4801 Q624.523 33.0797 629.06 29.5959 Q633.597 26.1121 641.942 26.1121 Q646.074 26.1121 649.72 26.7198 Q653.366 27.3274 656.444 28.5427 Z" fill="#000000" fill-rule="nonzero" fill-opacity="1"></path><path clip-path="url(#clip790)" d="M678.117 14.324 L678.117 27.2059 L693.47 27.2059 L693.47 32.9987 L678.117 32.9987 L678.117 57.6282 Q678.117 63.1779 679.616 64.7578 Q681.155 66.3376 685.813 66.3376 L693.47 66.3376 L693.47 72.576 L685.813 72.576 Q677.185 72.576 673.904 69.3758 Q670.623 66.1351 670.623 57.6282 L670.623 32.9987 L665.154 32.9987 L665.154 27.2059 L670.623 27.2059 L670.623 14.324 L678.117 14.324 Z" fill="#000000" fill-rule="nonzero" fill-opacity="1"></path><path clip-path="url(#clip790)" d="M720.854 32.4315 Q714.858 32.4315 711.375 37.1306 Q707.891 41.7891 707.891 49.9314 Q707.891 58.0738 711.334 62.7728 Q714.818 67.4314 720.854 67.4314 Q726.809 67.4314 730.292 62.7323 Q733.776 58.0333 733.776 49.9314 Q733.776 41.8701 730.292 37.1711 Q726.809 32.4315 720.854 32.4315 M720.854 26.1121 Q730.576 26.1121 736.126 32.4315 Q741.675 38.7509 741.675 49.9314 Q741.675 61.0714 736.126 67.4314 Q730.576 73.7508 720.854 73.7508 Q711.091 73.7508 705.541 67.4314 Q700.032 61.0714 700.032 49.9314 Q700.032 38.7509 705.541 32.4315 Q711.091 26.1121 720.854 26.1121 Z" fill="#000000" fill-rule="nonzero" fill-opacity="1"></path><path clip-path="url(#clip790)" d="M783.886 49.3643 Q783.886 41.2625 780.524 36.8065 Q777.202 32.3505 771.166 32.3505 Q765.171 32.3505 761.808 36.8065 Q758.487 41.2625 758.487 49.3643 Q758.487 57.4256 761.808 61.8816 Q765.171 66.3376 771.166 66.3376 Q777.202 66.3376 780.524 61.8816 Q783.886 57.4256 783.886 49.3643 M791.339 66.9452 Q791.339 78.5308 786.195 84.1616 Q781.05 89.8329 770.437 89.8329 Q766.507 89.8329 763.024 89.2252 Q759.54 88.6581 756.259 87.4428 L756.259 80.1917 Q759.54 81.9741 762.74 82.8248 Q765.94 83.6755 769.262 83.6755 Q776.594 83.6755 780.24 79.8271 Q783.886 76.0193 783.886 68.282 L783.886 64.5957 Q781.577 68.6061 777.971 70.5911 Q774.366 72.576 769.343 72.576 Q760.998 72.576 755.894 66.2161 Q750.79 59.8562 750.79 49.3643 Q750.79 38.832 755.894 32.472 Q760.998 26.1121 769.343 26.1121 Q774.366 26.1121 777.971 28.0971 Q781.577 30.082 783.886 34.0924 L783.886 27.2059 L791.339 27.2059 L791.339 66.9452 Z" fill="#000000" fill-rule="nonzero" fill-opacity="1"></path><path clip-path="url(#clip790)" d="M832.983 34.1734 Q831.727 33.4443 830.228 33.1202 Q828.77 32.7556 826.987 32.7556 Q820.668 32.7556 817.265 36.8875 Q813.903 40.9789 813.903 48.6757 L813.903 72.576 L806.409 72.576 L806.409 27.2059 L813.903 27.2059 L813.903 34.2544 Q816.253 30.1225 820.02 28.1376 Q823.787 26.1121 829.175 26.1121 Q829.945 26.1121 830.876 26.2337 Q831.808 26.3147 832.942 26.5172 L832.983 34.1734 Z" fill="#000000" fill-rule="nonzero" fill-opacity="1"></path><path clip-path="url(#clip790)" d="M861.42 49.7694 Q852.387 49.7694 848.903 51.8354 Q845.419 53.9013 845.419 58.8839 Q845.419 62.8538 848.012 65.2034 Q850.645 67.5124 855.141 67.5124 Q861.339 67.5124 865.066 63.1374 Q868.833 58.7219 868.833 51.4303 L868.833 49.7694 L861.42 49.7694 M876.287 46.6907 L876.287 72.576 L868.833 72.576 L868.833 65.6895 Q866.281 69.8214 862.473 71.8063 Q858.666 73.7508 853.156 73.7508 Q846.189 73.7508 842.057 69.8619 Q837.965 65.9325 837.965 59.3701 Q837.965 51.7138 843.07 47.825 Q848.214 43.9361 858.382 43.9361 L868.833 43.9361 L868.833 43.2069 Q868.833 38.0623 865.431 35.2672 Q862.068 32.4315 855.951 32.4315 Q852.063 32.4315 848.376 33.3632 Q844.69 34.295 841.287 36.1584 L841.287 29.2718 Q845.379 27.692 849.227 26.9223 Q853.075 26.1121 856.721 26.1121 Q866.565 26.1121 871.426 31.2163 Q876.287 36.3204 876.287 46.6907 Z" fill="#000000" fill-rule="nonzero" fill-opacity="1"></path><path clip-path="url(#clip790)" d="M926.964 35.9153 Q929.759 30.8922 933.648 28.5022 Q937.537 26.1121 942.803 26.1121 Q949.892 26.1121 953.74 31.0947 Q957.589 36.0368 957.589 45.1919 L957.589 72.576 L950.094 72.576 L950.094 45.4349 Q950.094 38.913 947.785 35.7533 Q945.476 32.5936 940.737 32.5936 Q934.944 32.5936 931.582 36.4419 Q928.22 40.2903 928.22 46.9338 L928.22 72.576 L920.725 72.576 L920.725 45.4349 Q920.725 38.8725 918.416 35.7533 Q916.107 32.5936 911.287 32.5936 Q905.575 32.5936 902.213 36.4824 Q898.85 40.3308 898.85 46.9338 L898.85 72.576 L891.356 72.576 L891.356 27.2059 L898.85 27.2059 L898.85 34.2544 Q901.403 30.082 904.967 28.0971 Q908.532 26.1121 913.434 26.1121 Q918.376 26.1121 921.819 28.6237 Q925.303 31.1352 926.964 35.9153 Z" fill="#000000" fill-rule="nonzero" fill-opacity="1"></path><path clip-path="url(#clip792)" d="M75.3543 153.712 L75.3543 1552.76 L300.236 1552.76 L300.236 153.712 L75.3543 153.712 L75.3543 153.712  Z" fill="#add8e6" fill-rule="evenodd" fill-opacity="1"></path>
<polyline clip-path="url(#clip792)" style="stroke:#add8e6; stroke-linecap:round; stroke-linejoin:round; stroke-width:4; stroke-opacity:1; fill:none" points="75.3543,153.712 75.3543,1552.76 300.236,1552.76 300.236,153.712 75.3543,153.712 "></polyline>
<path clip-path="url(#clip792)" d="M356.457 375.182 L356.457 1552.76 L581.339 1552.76 L581.339 375.182 L356.457 375.182 L356.457 375.182  Z" fill="#ff0000" fill-rule="evenodd" fill-opacity="1"></path>
<polyline clip-path="url(#clip792)" style="stroke:#add8e6; stroke-linecap:round; stroke-linejoin:round; stroke-width:4; stroke-opacity:1; fill:none" points="356.457,375.182 356.457,1552.76 581.339,1552.76 581.339,375.182 356.457,375.182 "></polyline>
<path clip-path="url(#clip792)" d="M637.559 780.311 L637.559 1552.76 L862.441 1552.76 L862.441 780.311 L637.559 780.311 L637.559 780.311  Z" fill="#add8e6" fill-rule="evenodd" fill-opacity="1"></path>
<polyline clip-path="url(#clip792)" style="stroke:#add8e6; stroke-linecap:round; stroke-linejoin:round; stroke-width:4; stroke-opacity:1; fill:none" points="637.559,780.311 637.559,1552.76 862.441,1552.76 862.441,780.311 637.559,780.311 "></polyline>
<path clip-path="url(#clip792)" d="M918.661 818.123 L918.661 1552.76 L1143.54 1552.76 L1143.54 818.123 L918.661 818.123 L918.661 818.123  Z" fill="#add8e6" fill-rule="evenodd" fill-opacity="1"></path>
<polyline clip-path="url(#clip792)" style="stroke:#add8e6; stroke-linecap:round; stroke-linejoin:round; stroke-width:4; stroke-opacity:1; fill:none" points="918.661,818.123 918.661,1552.76 1143.54,1552.76 1143.54,818.123 918.661,818.123 "></polyline>
<path clip-path="url(#clip792)" d="M1199.76 866.738 L1199.76 1552.76 L1424.65 1552.76 L1424.65 866.738 L1199.76 866.738 L1199.76 866.738  Z" fill="#add8e6" fill-rule="evenodd" fill-opacity="1"></path>
<polyline clip-path="url(#clip792)" style="stroke:#add8e6; stroke-linecap:round; stroke-linejoin:round; stroke-width:4; stroke-opacity:1; fill:none" points="1199.76,866.738 1199.76,1552.76 1424.65,1552.76 1424.65,866.738 1199.76,866.738 "></polyline>
<circle clip-path="url(#clip792)" style="fill:#add8e6; stroke:none; fill-opacity:0" cx="187.795" cy="153.712" r="2"></circle>
<circle clip-path="url(#clip792)" style="fill:#ff0000; stroke:none; fill-opacity:0" cx="468.898" cy="375.182" r="2"></circle>
<circle clip-path="url(#clip792)" style="fill:#add8e6; stroke:none; fill-opacity:0" cx="750" cy="780.311" r="2"></circle>
<circle clip-path="url(#clip792)" style="fill:#add8e6; stroke:none; fill-opacity:0" cx="1031.1" cy="818.123" r="2"></circle>
<circle clip-path="url(#clip792)" style="fill:#add8e6; stroke:none; fill-opacity:0" cx="1312.2" cy="866.738" r="2"></circle>
<circle clip-path="url(#clip792)" style="fill:#e26f46; stroke:none; fill-opacity:1" cx="187.795" cy="1547.35" r="2"></circle>
<circle clip-path="url(#clip792)" style="fill:#e26f46; stroke:none; fill-opacity:1" cx="468.898" cy="1547.35" r="2"></circle>
<circle clip-path="url(#clip792)" style="fill:#e26f46; stroke:none; fill-opacity:1" cx="750" cy="1547.35" r="2"></circle>
<circle clip-path="url(#clip792)" style="fill:#e26f46; stroke:none; fill-opacity:1" cx="1031.1" cy="1547.35" r="2"></circle>
<circle clip-path="url(#clip792)" style="fill:#e26f46; stroke:none; fill-opacity:1" cx="1312.2" cy="1547.35" r="2"></circle>
<path clip-path="url(#clip790)" d="M94.3207 1514.2 L94.3207 1597.16 L87.4341 1597.16 L87.4341 1514.2 L94.3207 1514.2 Z" fill="#000000" fill-rule="nonzero" fill-opacity="1"></path><path clip-path="url(#clip790)" d="M131.224 1522.5 Q124.905 1522.5 121.705 1528.74 Q118.545 1534.94 118.545 1547.41 Q118.545 1559.85 121.705 1566.09 Q124.905 1572.29 131.224 1572.29 Q137.584 1572.29 140.744 1566.09 Q143.944 1559.85 143.944 1547.41 Q143.944 1534.94 140.744 1528.74 Q137.584 1522.5 131.224 1522.5 M131.224 1516.02 Q141.392 1516.02 146.739 1524.08 Q152.127 1532.1 152.127 1547.41 Q152.127 1562.69 146.739 1570.75 Q141.392 1578.77 131.224 1578.77 Q121.057 1578.77 115.669 1570.75 Q110.322 1562.69 110.322 1547.41 Q110.322 1532.1 115.669 1524.08 Q121.057 1516.02 131.224 1516.02 Z" fill="#000000" fill-rule="nonzero" fill-opacity="1"></path><path clip-path="url(#clip790)" d="M167.926 1570.71 L181.294 1570.71 L181.294 1524.57 L166.751 1527.48 L166.751 1520.03 L181.213 1517.11 L189.395 1517.11 L189.395 1570.71 L202.763 1570.71 L202.763 1577.59 L167.926 1577.59 L167.926 1570.71 Z" fill="#000000" fill-rule="nonzero" fill-opacity="1"></path><path clip-path="url(#clip790)" d="M220.709 1570.71 L234.077 1570.71 L234.077 1524.57 L219.534 1527.48 L219.534 1520.03 L233.996 1517.11 L242.179 1517.11 L242.179 1570.71 L255.547 1570.71 L255.547 1577.59 L220.709 1577.59 L220.709 1570.71 Z" fill="#000000" fill-rule="nonzero" fill-opacity="1"></path><path clip-path="url(#clip790)" d="M288.156 1551.59 L276.733 1588.53 L269.846 1588.53 L281.27 1551.59 L269.846 1514.64 L276.733 1514.64 L288.156 1551.59 Z" fill="#000000" fill-rule="nonzero" fill-opacity="1"></path><path clip-path="url(#clip790)" d="M375.423 1514.2 L375.423 1597.16 L368.536 1597.16 L368.536 1514.2 L375.423 1514.2 Z" fill="#000000" fill-rule="nonzero" fill-opacity="1"></path><path clip-path="url(#clip790)" d="M412.327 1522.5 Q406.007 1522.5 402.807 1528.74 Q399.647 1534.94 399.647 1547.41 Q399.647 1559.85 402.807 1566.09 Q406.007 1572.29 412.327 1572.29 Q418.687 1572.29 421.846 1566.09 Q425.047 1559.85 425.047 1547.41 Q425.047 1534.94 421.846 1528.74 Q418.687 1522.5 412.327 1522.5 M412.327 1516.02 Q422.495 1516.02 427.842 1524.08 Q433.229 1532.1 433.229 1547.41 Q433.229 1562.69 427.842 1570.75 Q422.495 1578.77 412.327 1578.77 Q402.159 1578.77 396.771 1570.75 Q391.424 1562.69 391.424 1547.41 Q391.424 1532.1 396.771 1524.08 Q402.159 1516.02 412.327 1516.02 Z" fill="#000000" fill-rule="nonzero" fill-opacity="1"></path><path clip-path="url(#clip790)" d="M465.11 1522.5 Q458.791 1522.5 455.59 1528.74 Q452.431 1534.94 452.431 1547.41 Q452.431 1559.85 455.59 1566.09 Q458.791 1572.29 465.11 1572.29 Q471.47 1572.29 474.63 1566.09 Q477.83 1559.85 477.83 1547.41 Q477.83 1534.94 474.63 1528.74 Q471.47 1522.5 465.11 1522.5 M465.11 1516.02 Q475.278 1516.02 480.625 1524.08 Q486.013 1532.1 486.013 1547.41 Q486.013 1562.69 480.625 1570.75 Q475.278 1578.77 465.11 1578.77 Q454.942 1578.77 449.555 1570.75 Q444.207 1562.69 444.207 1547.41 Q444.207 1532.1 449.555 1524.08 Q454.942 1516.02 465.11 1516.02 Z" fill="#000000" fill-rule="nonzero" fill-opacity="1"></path><path clip-path="url(#clip790)" d="M517.893 1522.5 Q511.574 1522.5 508.374 1528.74 Q505.214 1534.94 505.214 1547.41 Q505.214 1559.85 508.374 1566.09 Q511.574 1572.29 517.893 1572.29 Q524.253 1572.29 527.413 1566.09 Q530.613 1559.85 530.613 1547.41 Q530.613 1534.94 527.413 1528.74 Q524.253 1522.5 517.893 1522.5 M517.893 1516.02 Q528.061 1516.02 533.408 1524.08 Q538.796 1532.1 538.796 1547.41 Q538.796 1562.69 533.408 1570.75 Q528.061 1578.77 517.893 1578.77 Q507.726 1578.77 502.338 1570.75 Q496.991 1562.69 496.991 1547.41 Q496.991 1532.1 502.338 1524.08 Q507.726 1516.02 517.893 1516.02 Z" fill="#000000" fill-rule="nonzero" fill-opacity="1"></path><path clip-path="url(#clip790)" d="M569.259 1551.59 L557.835 1588.53 L550.949 1588.53 L562.372 1551.59 L550.949 1514.64 L557.835 1514.64 L569.259 1551.59 Z" fill="#000000" fill-rule="nonzero" fill-opacity="1"></path><path clip-path="url(#clip790)" d="M656.525 1514.2 L656.525 1597.16 L649.639 1597.16 L649.639 1514.2 L656.525 1514.2 Z" fill="#000000" fill-rule="nonzero" fill-opacity="1"></path><path clip-path="url(#clip790)" d="M677.347 1570.71 L690.715 1570.71 L690.715 1524.57 L676.172 1527.48 L676.172 1520.03 L690.634 1517.11 L698.817 1517.11 L698.817 1570.71 L712.185 1570.71 L712.185 1577.59 L677.347 1577.59 L677.347 1570.71 Z" fill="#000000" fill-rule="nonzero" fill-opacity="1"></path><path clip-path="url(#clip790)" d="M730.13 1570.71 L743.498 1570.71 L743.498 1524.57 L728.956 1527.48 L728.956 1520.03 L743.417 1517.11 L751.6 1517.11 L751.6 1570.71 L764.968 1570.71 L764.968 1577.59 L730.13 1577.59 L730.13 1570.71 Z" fill="#000000" fill-rule="nonzero" fill-opacity="1"></path><path clip-path="url(#clip790)" d="M782.914 1570.71 L796.282 1570.71 L796.282 1524.57 L781.739 1527.48 L781.739 1520.03 L796.201 1517.11 L804.383 1517.11 L804.383 1570.71 L817.751 1570.71 L817.751 1577.59 L782.914 1577.59 L782.914 1570.71 Z" fill="#000000" fill-rule="nonzero" fill-opacity="1"></path><path clip-path="url(#clip790)" d="M850.361 1551.59 L838.938 1588.53 L832.051 1588.53 L843.475 1551.59 L832.051 1514.64 L838.938 1514.64 L850.361 1551.59 Z" fill="#000000" fill-rule="nonzero" fill-opacity="1"></path><path clip-path="url(#clip790)" d="M937.628 1514.2 L937.628 1597.16 L930.741 1597.16 L930.741 1514.2 L937.628 1514.2 Z" fill="#000000" fill-rule="nonzero" fill-opacity="1"></path><path clip-path="url(#clip790)" d="M958.449 1570.71 L971.817 1570.71 L971.817 1524.57 L957.275 1527.48 L957.275 1520.03 L971.736 1517.11 L979.919 1517.11 L979.919 1570.71 L993.287 1570.71 L993.287 1577.59 L958.449 1577.59 L958.449 1570.71 Z" fill="#000000" fill-rule="nonzero" fill-opacity="1"></path><path clip-path="url(#clip790)" d="M1027.31 1522.5 Q1021 1522.5 1017.8 1528.74 Q1014.64 1534.94 1014.64 1547.41 Q1014.64 1559.85 1017.8 1566.09 Q1021 1572.29 1027.31 1572.29 Q1033.67 1572.29 1036.83 1566.09 Q1040.03 1559.85 1040.03 1547.41 Q1040.03 1534.94 1036.83 1528.74 Q1033.67 1522.5 1027.31 1522.5 M1027.31 1516.02 Q1037.48 1516.02 1042.83 1524.08 Q1048.22 1532.1 1048.22 1547.41 Q1048.22 1562.69 1042.83 1570.75 Q1037.48 1578.77 1027.31 1578.77 Q1017.15 1578.77 1011.76 1570.75 Q1006.41 1562.69 1006.41 1547.41 Q1006.41 1532.1 1011.76 1524.08 Q1017.15 1516.02 1027.31 1516.02 Z" fill="#000000" fill-rule="nonzero" fill-opacity="1"></path><path clip-path="url(#clip790)" d="M1064.02 1570.71 L1077.38 1570.71 L1077.38 1524.57 L1062.84 1527.48 L1062.84 1520.03 L1077.3 1517.11 L1085.49 1517.11 L1085.49 1570.71 L1098.85 1570.71 L1098.85 1577.59 L1064.02 1577.59 L1064.02 1570.71 Z" fill="#000000" fill-rule="nonzero" fill-opacity="1"></path><path clip-path="url(#clip790)" d="M1131.46 1551.59 L1120.04 1588.53 L1113.15 1588.53 L1124.58 1551.59 L1113.15 1514.64 L1120.04 1514.64 L1131.46 1551.59 Z" fill="#000000" fill-rule="nonzero" fill-opacity="1"></path><path clip-path="url(#clip790)" d="M1218.73 1514.2 L1218.73 1597.16 L1211.84 1597.16 L1211.84 1514.2 L1218.73 1514.2 Z" fill="#000000" fill-rule="nonzero" fill-opacity="1"></path><path clip-path="url(#clip790)" d="M1239.55 1570.71 L1252.92 1570.71 L1252.92 1524.57 L1238.38 1527.48 L1238.38 1520.03 L1252.84 1517.11 L1261.02 1517.11 L1261.02 1570.71 L1274.39 1570.71 L1274.39 1577.59 L1239.55 1577.59 L1239.55 1570.71 Z" fill="#000000" fill-rule="nonzero" fill-opacity="1"></path><path clip-path="url(#clip790)" d="M1292.34 1570.71 L1305.7 1570.71 L1305.7 1524.57 L1291.16 1527.48 L1291.16 1520.03 L1305.62 1517.11 L1313.8 1517.11 L1313.8 1570.71 L1327.17 1570.71 L1327.17 1577.59 L1292.34 1577.59 L1292.34 1570.71 Z" fill="#000000" fill-rule="nonzero" fill-opacity="1"></path><path clip-path="url(#clip790)" d="M1361.2 1522.5 Q1354.88 1522.5 1351.68 1528.74 Q1348.52 1534.94 1348.52 1547.41 Q1348.52 1559.85 1351.68 1566.09 Q1354.88 1572.29 1361.2 1572.29 Q1367.56 1572.29 1370.72 1566.09 Q1373.92 1559.85 1373.92 1547.41 Q1373.92 1534.94 1370.72 1528.74 Q1367.56 1522.5 1361.2 1522.5 M1361.2 1516.02 Q1371.37 1516.02 1376.72 1524.08 Q1382.1 1532.1 1382.1 1547.41 Q1382.1 1562.69 1376.72 1570.75 Q1371.37 1578.77 1361.2 1578.77 Q1351.03 1578.77 1345.64 1570.75 Q1340.3 1562.69 1340.3 1547.41 Q1340.3 1532.1 1345.64 1524.08 Q1351.03 1516.02 1361.2 1516.02 Z" fill="#000000" fill-rule="nonzero" fill-opacity="1"></path><path clip-path="url(#clip790)" d="M1412.57 1551.59 L1401.14 1588.53 L1394.26 1588.53 L1405.68 1551.59 L1394.26 1514.64 L1401.14 1514.64 L1412.57 1551.59 Z" fill="#000000" fill-rule="nonzero" fill-opacity="1"></path><circle clip-path="url(#clip792)" style="fill:#3da44d; stroke:none; fill-opacity:1" cx="187.795" cy="153.712" r="2"></circle>
<circle clip-path="url(#clip792)" style="fill:#3da44d; stroke:none; fill-opacity:1" cx="468.898" cy="153.712" r="2"></circle>
<circle clip-path="url(#clip792)" style="fill:#3da44d; stroke:none; fill-opacity:1" cx="750" cy="153.712" r="2"></circle>
<circle clip-path="url(#clip792)" style="fill:#3da44d; stroke:none; fill-opacity:1" cx="1031.1" cy="153.712" r="2"></circle>
<circle clip-path="url(#clip792)" style="fill:#3da44d; stroke:none; fill-opacity:1" cx="1312.2" cy="153.712" r="2"></circle>
<path clip-path="url(#clip790)" d="M124.419 177.066 L152.978 177.066 L152.978 183.952 L114.575 183.952 L114.575 177.066 Q119.234 172.245 127.255 164.143 Q135.316 156.001 137.382 153.651 Q141.311 149.236 142.85 146.198 Q144.43 143.119 144.43 140.162 Q144.43 135.341 141.028 132.303 Q137.665 129.265 132.237 129.265 Q128.389 129.265 124.095 130.602 Q119.841 131.939 114.98 134.653 L114.98 126.389 Q119.922 124.404 124.216 123.391 Q128.51 122.378 132.075 122.378 Q141.473 122.378 147.063 127.077 Q152.654 131.776 152.654 139.635 Q152.654 143.362 151.236 146.724 Q149.859 150.046 146.172 154.583 Q145.16 155.758 139.731 161.389 Q134.303 166.979 124.419 177.066 Z" fill="#000000" fill-rule="nonzero" fill-opacity="1"></path><path clip-path="url(#clip790)" d="M170.235 123.472 L202.358 123.472 L202.358 130.359 L177.729 130.359 L177.729 145.185 Q179.511 144.577 181.294 144.294 Q183.076 143.97 184.858 143.97 Q194.986 143.97 200.9 149.519 Q206.814 155.069 206.814 164.548 Q206.814 174.311 200.738 179.739 Q194.662 185.127 183.603 185.127 Q179.795 185.127 175.825 184.479 Q171.895 183.831 167.683 182.534 L167.683 174.311 Q171.328 176.296 175.217 177.268 Q179.106 178.24 183.441 178.24 Q190.449 178.24 194.54 174.554 Q198.631 170.868 198.631 164.548 Q198.631 158.229 194.54 154.543 Q190.449 150.856 183.441 150.856 Q180.159 150.856 176.878 151.585 Q173.637 152.315 170.235 153.854 L170.235 123.472 Z" fill="#000000" fill-rule="nonzero" fill-opacity="1"></path><path clip-path="url(#clip790)" d="M223.18 182.696 L223.18 175.243 Q226.259 176.701 229.418 177.471 Q232.578 178.24 235.616 178.24 Q243.718 178.24 247.971 172.812 Q252.265 167.343 252.873 156.244 Q250.524 159.728 246.918 161.591 Q243.313 163.455 238.938 163.455 Q229.864 163.455 224.557 157.986 Q219.291 152.477 219.291 142.957 Q219.291 133.64 224.8 128.009 Q230.31 122.378 239.465 122.378 Q249.956 122.378 255.466 130.44 Q261.015 138.46 261.015 153.773 Q261.015 168.073 254.21 176.62 Q247.445 185.127 235.981 185.127 Q232.902 185.127 229.742 184.519 Q226.583 183.912 223.18 182.696 M239.465 157.054 Q244.974 157.054 248.174 153.287 Q251.415 149.519 251.415 142.957 Q251.415 136.435 248.174 132.668 Q244.974 128.86 239.465 128.86 Q233.955 128.86 230.715 132.668 Q227.514 136.435 227.514 142.957 Q227.514 149.519 230.715 153.287 Q233.955 157.054 239.465 157.054 Z" fill="#000000" fill-rule="nonzero" fill-opacity="1"></path><path clip-path="url(#clip790)" d="M405.44 177.066 L433.999 177.066 L433.999 183.952 L395.597 183.952 L395.597 177.066 Q400.255 172.245 408.276 164.143 Q416.337 156.001 418.403 153.651 Q422.332 149.236 423.872 146.198 Q425.452 143.119 425.452 140.162 Q425.452 135.341 422.049 132.303 Q418.687 129.265 413.258 129.265 Q409.41 129.265 405.116 130.602 Q400.863 131.939 396.002 134.653 L396.002 126.389 Q400.944 124.404 405.238 123.391 Q409.532 122.378 413.096 122.378 Q422.495 122.378 428.085 127.077 Q433.675 131.776 433.675 139.635 Q433.675 143.362 432.257 146.724 Q430.88 150.046 427.194 154.583 Q426.181 155.758 420.753 161.389 Q415.324 166.979 405.44 177.066 Z" fill="#000000" fill-rule="nonzero" fill-opacity="1"></path><path clip-path="url(#clip790)" d="M452.593 177.066 L465.961 177.066 L465.961 130.926 L451.418 133.842 L451.418 126.389 L465.88 123.472 L474.063 123.472 L474.063 177.066 L487.431 177.066 L487.431 183.952 L452.593 183.952 L452.593 177.066 Z" fill="#000000" fill-rule="nonzero" fill-opacity="1"></path><path clip-path="url(#clip790)" d="M521.458 155.231 Q515.625 155.231 512.263 158.35 Q508.941 161.47 508.941 166.938 Q508.941 172.407 512.263 175.526 Q515.625 178.645 521.458 178.645 Q527.291 178.645 530.654 175.526 Q534.016 172.367 534.016 166.938 Q534.016 161.47 530.654 158.35 Q527.332 155.231 521.458 155.231 M513.275 151.747 Q508.009 150.451 505.052 146.846 Q502.135 143.241 502.135 138.055 Q502.135 130.804 507.28 126.591 Q512.465 122.378 521.458 122.378 Q530.492 122.378 535.636 126.591 Q540.781 130.804 540.781 138.055 Q540.781 143.241 537.824 146.846 Q534.907 150.451 529.681 151.747 Q535.596 153.125 538.877 157.135 Q542.199 161.146 542.199 166.938 Q542.199 175.729 536.811 180.428 Q531.464 185.127 521.458 185.127 Q511.452 185.127 506.065 180.428 Q500.717 175.729 500.717 166.938 Q500.717 161.146 504.039 157.135 Q507.361 153.125 513.275 151.747 M510.278 138.825 Q510.278 143.524 513.194 146.157 Q516.151 148.79 521.458 148.79 Q526.724 148.79 529.681 146.157 Q532.679 143.524 532.679 138.825 Q532.679 134.126 529.681 131.493 Q526.724 128.86 521.458 128.86 Q516.151 128.86 513.194 131.493 Q510.278 134.126 510.278 138.825 Z" fill="#000000" fill-rule="nonzero" fill-opacity="1"></path><path clip-path="url(#clip790)" d="M679.879 177.066 L693.247 177.066 L693.247 130.926 L678.704 133.842 L678.704 126.389 L693.166 123.472 L701.349 123.472 L701.349 177.066 L714.717 177.066 L714.717 183.952 L679.879 183.952 L679.879 177.066 Z" fill="#000000" fill-rule="nonzero" fill-opacity="1"></path><path clip-path="url(#clip790)" d="M753.727 130.602 L733.067 162.887 L753.727 162.887 L753.727 130.602 M751.58 123.472 L761.869 123.472 L761.869 162.887 L770.498 162.887 L770.498 169.693 L761.869 169.693 L761.869 183.952 L753.727 183.952 L753.727 169.693 L726.424 169.693 L726.424 161.794 L751.58 123.472 Z" fill="#000000" fill-rule="nonzero" fill-opacity="1"></path><path clip-path="url(#clip790)" d="M808.819 151.342 Q814.693 152.598 817.974 156.568 Q821.296 160.538 821.296 166.371 Q821.296 175.324 815.139 180.225 Q808.981 185.127 797.639 185.127 Q793.831 185.127 789.78 184.357 Q785.769 183.628 781.476 182.129 L781.476 174.23 Q784.878 176.215 788.929 177.228 Q792.98 178.24 797.396 178.24 Q805.092 178.24 809.103 175.202 Q813.154 172.164 813.154 166.371 Q813.154 161.024 809.386 158.026 Q805.659 154.988 798.975 154.988 L791.927 154.988 L791.927 148.264 L799.3 148.264 Q805.335 148.264 808.536 145.874 Q811.736 143.443 811.736 138.906 Q811.736 134.248 808.414 131.776 Q805.133 129.265 798.975 129.265 Q795.613 129.265 791.765 129.994 Q787.916 130.723 783.298 132.263 L783.298 124.971 Q787.957 123.675 792.008 123.027 Q796.099 122.378 799.705 122.378 Q809.022 122.378 814.45 126.632 Q819.878 130.845 819.878 138.055 Q819.878 143.079 817.002 146.562 Q814.126 150.006 808.819 151.342 Z" fill="#000000" fill-rule="nonzero" fill-opacity="1"></path><path clip-path="url(#clip790)" d="M960.272 177.066 L973.64 177.066 L973.64 130.926 L959.098 133.842 L959.098 126.389 L973.559 123.472 L981.742 123.472 L981.742 177.066 L995.11 177.066 L995.11 183.952 L960.272 183.952 L960.272 177.066 Z" fill="#000000" fill-rule="nonzero" fill-opacity="1"></path><path clip-path="url(#clip790)" d="M1036.43 151.342 Q1042.3 152.598 1045.58 156.568 Q1048.91 160.538 1048.91 166.371 Q1048.91 175.324 1042.75 180.225 Q1036.59 185.127 1025.25 185.127 Q1021.44 185.127 1017.39 184.357 Q1013.38 183.628 1009.09 182.129 L1009.09 174.23 Q1012.49 176.215 1016.54 177.228 Q1020.59 178.24 1025.01 178.24 Q1032.7 178.24 1036.71 175.202 Q1040.76 172.164 1040.76 166.371 Q1040.76 161.024 1037 158.026 Q1033.27 154.988 1026.59 154.988 L1019.54 154.988 L1019.54 148.264 L1026.91 148.264 Q1032.95 148.264 1036.15 145.874 Q1039.35 143.443 1039.35 138.906 Q1039.35 134.248 1036.02 131.776 Q1032.74 129.265 1026.59 129.265 Q1023.22 129.265 1019.37 129.994 Q1015.53 130.723 1010.91 132.263 L1010.91 124.971 Q1015.57 123.675 1019.62 123.027 Q1023.71 122.378 1027.31 122.378 Q1036.63 122.378 1042.06 126.632 Q1047.49 130.845 1047.49 138.055 Q1047.49 143.079 1044.61 146.562 Q1041.74 150.006 1036.43 151.342 Z" fill="#000000" fill-rule="nonzero" fill-opacity="1"></path><path clip-path="url(#clip790)" d="M1082.93 150.451 Q1077.42 150.451 1074.18 154.218 Q1070.98 157.986 1070.98 164.548 Q1070.98 171.07 1074.18 174.878 Q1077.42 178.645 1082.93 178.645 Q1088.44 178.645 1091.64 174.878 Q1094.88 171.07 1094.88 164.548 Q1094.88 157.986 1091.64 154.218 Q1088.44 150.451 1082.93 150.451 M1099.18 124.809 L1099.18 132.263 Q1096.1 130.804 1092.94 130.035 Q1089.82 129.265 1086.74 129.265 Q1078.64 129.265 1074.35 134.734 Q1070.09 140.202 1069.48 151.261 Q1071.87 147.737 1075.48 145.874 Q1079.09 143.97 1083.42 143.97 Q1092.53 143.97 1097.8 149.519 Q1103.11 155.029 1103.11 164.548 Q1103.11 173.865 1097.6 179.496 Q1092.09 185.127 1082.93 185.127 Q1072.44 185.127 1066.89 177.106 Q1061.34 169.045 1061.34 153.773 Q1061.34 139.433 1068.15 130.926 Q1074.95 122.378 1086.42 122.378 Q1089.5 122.378 1092.62 122.986 Q1095.78 123.594 1099.18 124.809 Z" fill="#000000" fill-rule="nonzero" fill-opacity="1"></path><path clip-path="url(#clip790)" d="M1242.31 177.066 L1255.67 177.066 L1255.67 130.926 L1241.13 133.842 L1241.13 126.389 L1255.59 123.472 L1263.78 123.472 L1263.78 177.066 L1277.14 177.066 L1277.14 183.952 L1242.31 183.952 L1242.31 177.066 Z" fill="#000000" fill-rule="nonzero" fill-opacity="1"></path><path clip-path="url(#clip790)" d="M1300.72 177.066 L1329.28 177.066 L1329.28 183.952 L1290.88 183.952 L1290.88 177.066 Q1295.54 172.245 1303.56 164.143 Q1311.62 156.001 1313.68 153.651 Q1317.61 149.236 1319.15 146.198 Q1320.73 143.119 1320.73 140.162 Q1320.73 135.341 1317.33 132.303 Q1313.97 129.265 1308.54 129.265 Q1304.69 129.265 1300.4 130.602 Q1296.14 131.939 1291.28 134.653 L1291.28 126.389 Q1296.22 124.404 1300.52 123.391 Q1304.81 122.378 1308.38 122.378 Q1317.77 122.378 1323.36 127.077 Q1328.96 131.776 1328.96 139.635 Q1328.96 143.362 1327.54 146.724 Q1326.16 150.046 1322.47 154.583 Q1321.46 155.758 1316.03 161.389 Q1310.6 166.979 1300.72 177.066 Z" fill="#000000" fill-rule="nonzero" fill-opacity="1"></path><path clip-path="url(#clip790)" d="M1344.39 123.472 L1383.28 123.472 L1383.28 126.956 L1361.32 183.952 L1352.77 183.952 L1373.43 130.359 L1344.39 130.359 L1344.39 123.472 Z" fill="#000000" fill-rule="nonzero" fill-opacity="1"></path><path clip-path="url(#clip790)" d="M813.366 304.027 L1405.91 304.027 L1405.91 200.347 L813.366 200.347  Z" fill="#000000" fill-rule="evenodd" fill-opacity="0"></path>
<polyline clip-path="url(#clip790)" style="stroke:#000000; stroke-linecap:round; stroke-linejoin:round; stroke-width:4; stroke-opacity:0; fill:none" points="813.366,304.027 1405.91,304.027 1405.91,200.347 813.366,200.347 813.366,304.027 "></polyline>
<path clip-path="url(#clip790)" d="M828.983 272.923 L922.684 272.923 L922.684 231.451 L828.983 231.451 L828.983 272.923  Z" fill="#add8e6" fill-rule="evenodd" fill-opacity="1"></path>
<polyline clip-path="url(#clip790)" style="stroke:#add8e6; stroke-linecap:round; stroke-linejoin:round; stroke-width:4; stroke-opacity:1; fill:none" points="828.983,272.923 922.684,272.923 922.684,231.451 828.983,231.451 828.983,272.923 "></polyline>
<path clip-path="url(#clip790)" d="M938.3 234.907 L958.161 234.907 L958.161 238.842 L942.976 238.842 L942.976 249.027 L956.68 249.027 L956.68 252.962 L942.976 252.962 L942.976 269.467 L938.3 269.467 L938.3 234.907 Z" fill="#000000" fill-rule="nonzero" fill-opacity="1"></path><path clip-path="url(#clip790)" d="M973.74 246.527 Q970.314 246.527 968.323 249.212 Q966.333 251.874 966.333 256.527 Q966.333 261.18 968.3 263.865 Q970.291 266.527 973.74 266.527 Q977.143 266.527 979.134 263.842 Q981.124 261.157 981.124 256.527 Q981.124 251.921 979.134 249.236 Q977.143 246.527 973.74 246.527 M973.74 242.916 Q979.296 242.916 982.467 246.527 Q985.638 250.138 985.638 256.527 Q985.638 262.893 982.467 266.527 Q979.296 270.138 973.74 270.138 Q968.161 270.138 964.99 266.527 Q961.842 262.893 961.842 256.527 Q961.842 250.138 964.99 246.527 Q968.161 242.916 973.74 242.916 Z" fill="#000000" fill-rule="nonzero" fill-opacity="1"></path><path clip-path="url(#clip790)" d="M992.258 259.235 L992.258 243.541 L996.518 243.541 L996.518 259.073 Q996.518 262.754 997.953 264.606 Q999.388 266.435 1002.26 266.435 Q1005.71 266.435 1007.7 264.235 Q1009.71 262.036 1009.71 258.24 L1009.71 243.541 L1013.97 243.541 L1013.97 269.467 L1009.71 269.467 L1009.71 265.485 Q1008.16 267.847 1006.1 269.004 Q1004.06 270.138 1001.36 270.138 Q996.888 270.138 994.573 267.36 Q992.258 264.583 992.258 259.235 M1002.98 242.916 L1002.98 242.916 Z" fill="#000000" fill-rule="nonzero" fill-opacity="1"></path><path clip-path="url(#clip790)" d="M1044.3 253.819 L1044.3 269.467 L1040.04 269.467 L1040.04 253.958 Q1040.04 250.277 1038.6 248.449 Q1037.17 246.62 1034.3 246.62 Q1030.85 246.62 1028.86 248.819 Q1026.86 251.018 1026.86 254.814 L1026.86 269.467 L1022.58 269.467 L1022.58 243.541 L1026.86 243.541 L1026.86 247.569 Q1028.39 245.231 1030.45 244.074 Q1032.54 242.916 1035.24 242.916 Q1039.71 242.916 1042 245.694 Q1044.3 248.449 1044.3 253.819 Z" fill="#000000" fill-rule="nonzero" fill-opacity="1"></path><path clip-path="url(#clip790)" d="M1069.85 247.476 L1069.85 233.449 L1074.11 233.449 L1074.11 269.467 L1069.85 269.467 L1069.85 265.578 Q1068.51 267.893 1066.45 269.027 Q1064.41 270.138 1061.54 270.138 Q1056.84 270.138 1053.88 266.388 Q1050.94 262.638 1050.94 256.527 Q1050.94 250.416 1053.88 246.666 Q1056.84 242.916 1061.54 242.916 Q1064.41 242.916 1066.45 244.05 Q1068.51 245.161 1069.85 247.476 M1055.34 256.527 Q1055.34 261.226 1057.26 263.911 Q1059.2 266.573 1062.58 266.573 Q1065.96 266.573 1067.91 263.911 Q1069.85 261.226 1069.85 256.527 Q1069.85 251.828 1067.91 249.166 Q1065.96 246.481 1062.58 246.481 Q1059.2 246.481 1057.26 249.166 Q1055.34 251.828 1055.34 256.527 Z" fill="#000000" fill-rule="nonzero" fill-opacity="1"></path><path clip-path="url(#clip790)" d="M1097.95 243.541 L1102.21 243.541 L1102.21 269.467 L1097.95 269.467 L1097.95 243.541 M1097.95 233.449 L1102.21 233.449 L1102.21 238.842 L1097.95 238.842 L1097.95 233.449 Z" fill="#000000" fill-rule="nonzero" fill-opacity="1"></path><path clip-path="url(#clip790)" d="M1132.67 253.819 L1132.67 269.467 L1128.42 269.467 L1128.42 253.958 Q1128.42 250.277 1126.98 248.449 Q1125.54 246.62 1122.67 246.62 Q1119.23 246.62 1117.23 248.819 Q1115.24 251.018 1115.24 254.814 L1115.24 269.467 L1110.96 269.467 L1110.96 243.541 L1115.24 243.541 L1115.24 247.569 Q1116.77 245.231 1118.83 244.074 Q1120.92 242.916 1123.62 242.916 Q1128.09 242.916 1130.38 245.694 Q1132.67 248.449 1132.67 253.819 Z" fill="#000000" fill-rule="nonzero" fill-opacity="1"></path><path clip-path="url(#clip790)" d="M1157.65 265.532 L1165.29 265.532 L1165.29 239.166 L1156.98 240.833 L1156.98 236.574 L1165.24 234.907 L1169.92 234.907 L1169.92 265.532 L1177.56 265.532 L1177.56 269.467 L1157.65 269.467 L1157.65 265.532 Z" fill="#000000" fill-rule="nonzero" fill-opacity="1"></path><path clip-path="url(#clip790)" d="M1197 237.986 Q1193.39 237.986 1191.56 241.55 Q1189.76 245.092 1189.76 252.222 Q1189.76 259.328 1191.56 262.893 Q1193.39 266.435 1197 266.435 Q1200.64 266.435 1202.44 262.893 Q1204.27 259.328 1204.27 252.222 Q1204.27 245.092 1202.44 241.55 Q1200.64 237.986 1197 237.986 M1197 234.282 Q1202.81 234.282 1205.87 238.888 Q1208.95 243.472 1208.95 252.222 Q1208.95 260.948 1205.87 265.555 Q1202.81 270.138 1197 270.138 Q1191.19 270.138 1188.11 265.555 Q1185.06 260.948 1185.06 252.222 Q1185.06 243.472 1188.11 238.888 Q1191.19 234.282 1197 234.282 Z" fill="#000000" fill-rule="nonzero" fill-opacity="1"></path><path clip-path="url(#clip790)" d="M1227.16 237.986 Q1223.55 237.986 1221.72 241.55 Q1219.92 245.092 1219.92 252.222 Q1219.92 259.328 1221.72 262.893 Q1223.55 266.435 1227.16 266.435 Q1230.8 266.435 1232.6 262.893 Q1234.43 259.328 1234.43 252.222 Q1234.43 245.092 1232.6 241.55 Q1230.8 237.986 1227.16 237.986 M1227.16 234.282 Q1232.97 234.282 1236.03 238.888 Q1239.11 243.472 1239.11 252.222 Q1239.11 260.948 1236.03 265.555 Q1232.97 270.138 1227.16 270.138 Q1221.35 270.138 1218.28 265.555 Q1215.22 260.948 1215.22 252.222 Q1215.22 243.472 1218.28 238.888 Q1221.35 234.282 1227.16 234.282 Z" fill="#000000" fill-rule="nonzero" fill-opacity="1"></path><path clip-path="url(#clip790)" d="M1257.33 237.986 Q1253.72 237.986 1251.89 241.55 Q1250.08 245.092 1250.08 252.222 Q1250.08 259.328 1251.89 262.893 Q1253.72 266.435 1257.33 266.435 Q1260.96 266.435 1262.77 262.893 Q1264.59 259.328 1264.59 252.222 Q1264.59 245.092 1262.77 241.55 Q1260.96 237.986 1257.33 237.986 M1257.33 234.282 Q1263.14 234.282 1266.19 238.888 Q1269.27 243.472 1269.27 252.222 Q1269.27 260.948 1266.19 265.555 Q1263.14 270.138 1257.33 270.138 Q1251.52 270.138 1248.44 265.555 Q1245.38 260.948 1245.38 252.222 Q1245.38 243.472 1248.44 238.888 Q1251.52 234.282 1257.33 234.282 Z" fill="#000000" fill-rule="nonzero" fill-opacity="1"></path><path clip-path="url(#clip790)" d="M1296.17 236.18 L1296.17 243.541 L1304.94 243.541 L1304.94 246.851 L1296.17 246.851 L1296.17 260.925 Q1296.17 264.097 1297.03 264.999 Q1297.9 265.902 1300.57 265.902 L1304.94 265.902 L1304.94 269.467 L1300.57 269.467 Q1295.64 269.467 1293.76 267.638 Q1291.89 265.786 1291.89 260.925 L1291.89 246.851 L1288.76 246.851 L1288.76 243.541 L1291.89 243.541 L1291.89 236.18 L1296.17 236.18 Z" fill="#000000" fill-rule="nonzero" fill-opacity="1"></path><path clip-path="url(#clip790)" d="M1325.57 247.523 Q1324.85 247.106 1323.99 246.921 Q1323.16 246.712 1322.14 246.712 Q1318.53 246.712 1316.59 249.074 Q1314.66 251.411 1314.66 255.81 L1314.66 269.467 L1310.38 269.467 L1310.38 243.541 L1314.66 243.541 L1314.66 247.569 Q1316.01 245.208 1318.16 244.074 Q1320.31 242.916 1323.39 242.916 Q1323.83 242.916 1324.36 242.986 Q1324.9 243.032 1325.54 243.148 L1325.57 247.523 Z" fill="#000000" fill-rule="nonzero" fill-opacity="1"></path><path clip-path="url(#clip790)" d="M1330.03 243.541 L1334.29 243.541 L1334.29 269.467 L1330.03 269.467 L1330.03 243.541 M1330.03 233.449 L1334.29 233.449 L1334.29 238.842 L1330.03 238.842 L1330.03 233.449 Z" fill="#000000" fill-rule="nonzero" fill-opacity="1"></path><path clip-path="url(#clip790)" d="M1365.38 255.439 L1365.38 257.523 L1345.8 257.523 Q1346.08 261.921 1348.44 264.235 Q1350.82 266.527 1355.06 266.527 Q1357.51 266.527 1359.8 265.925 Q1362.12 265.323 1364.39 264.12 L1364.39 268.147 Q1362.09 269.12 1359.69 269.629 Q1357.28 270.138 1354.8 270.138 Q1348.6 270.138 1344.96 266.527 Q1341.35 262.916 1341.35 256.759 Q1341.35 250.393 1344.78 246.666 Q1348.23 242.916 1354.06 242.916 Q1359.29 242.916 1362.33 246.296 Q1365.38 249.652 1365.38 255.439 M1361.12 254.189 Q1361.08 250.694 1359.15 248.611 Q1357.26 246.527 1354.11 246.527 Q1350.54 246.527 1348.39 248.541 Q1346.26 250.555 1345.94 254.212 L1361.12 254.189 Z" fill="#000000" fill-rule="nonzero" fill-opacity="1"></path><path clip-path="url(#clip790)" d="M1388.9 244.305 L1388.9 248.333 Q1387.09 247.407 1385.15 246.944 Q1383.21 246.481 1381.12 246.481 Q1377.95 246.481 1376.35 247.453 Q1374.78 248.425 1374.78 250.37 Q1374.78 251.851 1375.91 252.708 Q1377.05 253.541 1380.47 254.305 L1381.93 254.629 Q1386.47 255.601 1388.37 257.384 Q1390.29 259.143 1390.29 262.314 Q1390.29 265.925 1387.42 268.032 Q1384.57 270.138 1379.57 270.138 Q1377.49 270.138 1375.22 269.722 Q1372.97 269.328 1370.47 268.518 L1370.47 264.12 Q1372.84 265.347 1375.13 265.972 Q1377.42 266.573 1379.66 266.573 Q1382.67 266.573 1384.29 265.555 Q1385.91 264.513 1385.91 262.638 Q1385.91 260.902 1384.73 259.976 Q1383.58 259.05 1379.62 258.194 L1378.14 257.847 Q1374.18 257.013 1372.42 255.3 Q1370.66 253.564 1370.66 250.555 Q1370.66 246.898 1373.25 244.907 Q1375.84 242.916 1380.61 242.916 Q1382.97 242.916 1385.06 243.263 Q1387.14 243.611 1388.9 244.305 Z" fill="#000000" fill-rule="nonzero" fill-opacity="1"></path></svg>