<svg xmlns="http://www.w3.org/2000/svg" xmlns:xlink="http://www.w3.org/1999/xlink" width="600" height="400" viewBox="0 0 2400 1600">
<defs>
  <clipPath id="clip750">
    <rect x="0" y="0" width="2400" height="1600"></rect>
  </clipPath>
</defs>
<path clip-path="url(#clip750)" d="M0 1600 L2400 1600 L2400 0 L0 0  Z" fill="#ffffff" fill-rule="evenodd" fill-opacity="1"></path>
<defs>
  <clipPath id="clip751">
    <rect x="480" y="0" width="1681" height="1600"></rect>
  </clipPath>
</defs>
<path clip-path="url(#clip750)" d="M47.2441 1552.76 L2352.76 1552.76 L2352.76 123.472 L47.2441 123.472  Z" fill="#ffffff" fill-rule="evenodd" fill-opacity="1"></path>
<defs>
  <clipPath id="clip752">
    <rect x="47" y="123" width="2307" height="1430"></rect>
  </clipPath>
</defs>
<path clip-path="url(#clip750)" d="M992.411 12.096 L1000.59 12.096 L1000.59 36.8875 L1030.33 36.8875 L1030.33 12.096 L1038.51 12.096 L1038.51 72.576 L1030.33 72.576 L1030.33 43.7741 L1000.59 43.7741 L1000.59 72.576 L992.411 72.576 L992.411 12.096 Z" fill="#000000" fill-rule="nonzero" fill-opacity="1"></path><path clip-path="url(#clip750)" d="M1054.47 27.2059 L1061.92 27.2059 L1061.92 72.576 L1054.47 72.576 L1054.47 27.2059 M1054.47 9.54393 L1061.92 9.54393 L1061.92 18.9825 L1054.47 18.9825 L1054.47 9.54393 Z" fill="#000000" fill-rule="nonzero" fill-opacity="1"></path><path clip-path="url(#clip750)" d="M1106.44 28.5427 L1106.44 35.5912 Q1103.28 33.9709 1099.88 33.1607 Q1096.48 32.3505 1092.83 32.3505 Q1087.28 32.3505 1084.49 34.0519 Q1081.73 35.7533 1081.73 39.156 Q1081.73 41.7486 1083.72 43.2475 Q1085.7 44.7058 1091.7 46.0426 L1094.25 46.6097 Q1102.19 48.3111 1105.51 51.4303 Q1108.87 54.509 1108.87 60.0587 Q1108.87 66.3781 1103.85 70.0644 Q1098.87 73.7508 1090.12 73.7508 Q1086.47 73.7508 1082.5 73.0216 Q1078.57 72.3329 1074.2 70.9151 L1074.2 63.2184 Q1078.33 65.3654 1082.34 66.4591 Q1086.35 67.5124 1090.28 67.5124 Q1095.55 67.5124 1098.38 65.73 Q1101.22 63.9071 1101.22 60.6258 Q1101.22 57.5877 1099.15 55.9673 Q1097.13 54.3469 1090.2 52.8481 L1087.61 52.2405 Q1080.68 50.7821 1077.6 47.7845 Q1074.52 44.7463 1074.52 39.4801 Q1074.52 33.0797 1079.06 29.5959 Q1083.6 26.1121 1091.94 26.1121 Q1096.07 26.1121 1099.72 26.7198 Q1103.37 27.3274 1106.44 28.5427 Z" fill="#000000" fill-rule="nonzero" fill-opacity="1"></path><path clip-path="url(#clip750)" d="M1128.12 14.324 L1128.12 27.2059 L1143.47 27.2059 L1143.47 32.9987 L1128.12 32.9987 L1128.12 57.6282 Q1128.12 63.1779 1129.62 64.7578 Q1131.15 66.3376 1135.81 66.3376 L1143.47 66.3376 L1143.47 72.576 L1135.81 72.576 Q1127.18 72.576 1123.9 69.3758 Q1120.62 66.1351 1120.62 57.6282 L1120.62 32.9987 L1115.15 32.9987 L1115.15 27.2059 L1120.62 27.2059 L1120.62 14.324 L1128.12 14.324 Z" fill="#000000" fill-rule="nonzero" fill-opacity="1"></path><path clip-path="url(#clip750)" d="M1170.85 32.4315 Q1164.86 32.4315 1161.37 37.1306 Q1157.89 41.7891 1157.89 49.9314 Q1157.89 58.0738 1161.33 62.7728 Q1164.82 67.4314 1170.85 67.4314 Q1176.81 67.4314 1180.29 62.7323 Q1183.78 58.0333 1183.78 49.9314 Q1183.78 41.8701 1180.29 37.1711 Q1176.81 32.4315 1170.85 32.4315 M1170.85 26.1121 Q1180.58 26.1121 1186.13 32.4315 Q1191.68 38.7509 1191.68 49.9314 Q1191.68 61.0714 1186.13 67.4314 Q1180.58 73.7508 1170.85 73.7508 Q1161.09 73.7508 1155.54 67.4314 Q1150.03 61.0714 1150.03 49.9314 Q1150.03 38.7509 1155.54 32.4315 Q1161.09 26.1121 1170.85 26.1121 Z" fill="#000000" fill-rule="nonzero" fill-opacity="1"></path><path clip-path="url(#clip750)" d="M1233.89 49.3643 Q1233.89 41.2625 1230.52 36.8065 Q1227.2 32.3505 1221.17 32.3505 Q1215.17 32.3505 1211.81 36.8065 Q1208.49 41.2625 1208.49 49.3643 Q1208.49 57.4256 1211.81 61.8816 Q1215.17 66.3376 1221.17 66.3376 Q1227.2 66.3376 1230.52 61.8816 Q1233.89 57.4256 1233.89 49.3643 M1241.34 66.9452 Q1241.34 78.5308 1236.19 84.1616 Q1231.05 89.8329 1220.44 89.8329 Q1216.51 89.8329 1213.02 89.2252 Q1209.54 88.6581 1206.26 87.4428 L1206.26 80.1917 Q1209.54 81.9741 1212.74 82.8248 Q1215.94 83.6755 1219.26 83.6755 Q1226.59 83.6755 1230.24 79.8271 Q1233.89 76.0193 1233.89 68.282 L1233.89 64.5957 Q1231.58 68.6061 1227.97 70.5911 Q1224.37 72.576 1219.34 72.576 Q1211 72.576 1205.89 66.2161 Q1200.79 59.8562 1200.79 49.3643 Q1200.79 38.832 1205.89 32.472 Q1211 26.1121 1219.34 26.1121 Q1224.37 26.1121 1227.97 28.0971 Q1231.58 30.082 1233.89 34.0924 L1233.89 27.2059 L1241.34 27.2059 L1241.34 66.9452 Z" fill="#000000" fill-rule="nonzero" fill-opacity="1"></path><path clip-path="url(#clip750)" d="M1282.98 34.1734 Q1281.73 33.4443 1280.23 33.1202 Q1278.77 32.7556 1276.99 32.7556 Q1270.67 32.7556 1267.27 36.8875 Q1263.9 40.9789 1263.9 48.6757 L1263.9 72.576 L1256.41 72.576 L1256.41 27.2059 L1263.9 27.2059 L1263.9 34.2544 Q1266.25 30.1225 1270.02 28.1376 Q1273.79 26.1121 1279.17 26.1121 Q1279.94 26.1121 1280.88 26.2337 Q1281.81 26.3147 1282.94 26.5172 L1282.98 34.1734 Z" fill="#000000" fill-rule="nonzero" fill-opacity="1"></path><path clip-path="url(#clip750)" d="M1311.42 49.7694 Q1302.39 49.7694 1298.9 51.8354 Q1295.42 53.9013 1295.42 58.8839 Q1295.42 62.8538 1298.01 65.2034 Q1300.64 67.5124 1305.14 67.5124 Q1311.34 67.5124 1315.07 63.1374 Q1318.83 58.7219 1318.83 51.4303 L1318.83 49.7694 L1311.42 49.7694 M1326.29 46.6907 L1326.29 72.576 L1318.83 72.576 L1318.83 65.6895 Q1316.28 69.8214 1312.47 71.8063 Q1308.67 73.7508 1303.16 73.7508 Q1296.19 73.7508 1292.06 69.8619 Q1287.97 65.9325 1287.97 59.3701 Q1287.97 51.7138 1293.07 47.825 Q1298.21 43.9361 1308.38 43.9361 L1318.83 43.9361 L1318.83 43.2069 Q1318.83 38.0623 1315.43 35.2672 Q1312.07 32.4315 1305.95 32.4315 Q1302.06 32.4315 1298.38 33.3632 Q1294.69 34.295 1291.29 36.1584 L1291.29 29.2718 Q1295.38 27.692 1299.23 26.9223 Q1303.08 26.1121 1306.72 26.1121 Q1316.56 26.1121 1321.43 31.2163 Q1326.29 36.3204 1326.29 46.6907 Z" fill="#000000" fill-rule="nonzero" fill-opacity="1"></path><path clip-path="url(#clip750)" d="M1376.96 35.9153 Q1379.76 30.8922 1383.65 28.5022 Q1387.54 26.1121 1392.8 26.1121 Q1399.89 26.1121 1403.74 31.0947 Q1407.59 36.0368 1407.59 45.1919 L1407.59 72.576 L1400.09 72.576 L1400.09 45.4349 Q1400.09 38.913 1397.79 35.7533 Q1395.48 32.5936 1390.74 32.5936 Q1384.94 32.5936 1381.58 36.4419 Q1378.22 40.2903 1378.22 46.9338 L1378.22 72.576 L1370.73 72.576 L1370.73 45.4349 Q1370.73 38.8725 1368.42 35.7533 Q1366.11 32.5936 1361.29 32.5936 Q1355.57 32.5936 1352.21 36.4824 Q1348.85 40.3308 1348.85 46.9338 L1348.85 72.576 L1341.36 72.576 L1341.36 27.2059 L1348.85 27.2059 L1348.85 34.2544 Q1351.4 30.082 1354.97 28.0971 Q1358.53 26.1121 1363.43 26.1121 Q1368.38 26.1121 1371.82 28.6237 Q1375.3 31.1352 1376.96 35.9153 Z" fill="#000000" fill-rule="nonzero" fill-opacity="1"></path><path clip-path="url(#clip752)" d="M76.063 123.472 L76.063 1552.76 L306.614 1552.76 L306.614 123.472 L76.063 123.472 L76.063 123.472  Z" fill="#ff0000" fill-rule="evenodd" fill-opacity="1"></path>
<polyline clip-path="url(#clip752)" style="stroke:#add8e6; stroke-linecap:round; stroke-linejoin:round; stroke-width:4; stroke-opacity:1; fill:none" points="76.063,123.472 76.063,1552.76 306.614,1552.76 306.614,123.472 76.063,123.472 "></polyline>
<path clip-path="url(#clip752)" d="M364.252 244.878 L364.252 1552.76 L594.803 1552.76 L594.803 244.878 L364.252 244.878 L364.252 244.878  Z" fill="#add8e6" fill-rule="evenodd" fill-opacity="1"></path>
<polyline clip-path="url(#clip752)" style="stroke:#add8e6; stroke-linecap:round; stroke-linejoin:round; stroke-width:4; stroke-opacity:1; fill:none" points="364.252,244.878 364.252,1552.76 594.803,1552.76 594.803,244.878 364.252,244.878 "></polyline>
<path clip-path="url(#clip752)" d="M652.441 840.873 L652.441 1552.76 L882.992 1552.76 L882.992 840.873 L652.441 840.873 L652.441 840.873  Z" fill="#add8e6" fill-rule="evenodd" fill-opacity="1"></path>
<polyline clip-path="url(#clip752)" style="stroke:#add8e6; stroke-linecap:round; stroke-linejoin:round; stroke-width:4; stroke-opacity:1; fill:none" points="652.441,840.873 652.441,1552.76 882.992,1552.76 882.992,840.873 652.441,840.873 "></polyline>
<path clip-path="url(#clip752)" d="M940.63 851.91 L940.63 1552.76 L1171.18 1552.76 L1171.18 851.91 L940.63 851.91 L940.63 851.91  Z" fill="#add8e6" fill-rule="evenodd" fill-opacity="1"></path>
<polyline clip-path="url(#clip752)" style="stroke:#add8e6; stroke-linecap:round; stroke-linejoin:round; stroke-width:4; stroke-opacity:1; fill:none" points="940.63,851.91 940.63,1552.76 1171.18,1552.76 1171.18,851.91 940.63,851.91 "></polyline>
<path clip-path="url(#clip752)" d="M1228.82 857.429 L1228.82 1552.76 L1459.37 1552.76 L1459.37 857.429 L1228.82 857.429 L1228.82 857.429  Z" fill="#add8e6" fill-rule="evenodd" fill-opacity="1"></path>
<polyline clip-path="url(#clip752)" style="stroke:#add8e6; stroke-linecap:round; stroke-linejoin:round; stroke-width:4; stroke-opacity:1; fill:none" points="1228.82,857.429 1228.82,1552.76 1459.37,1552.76 1459.37,857.429 1228.82,857.429 "></polyline>
<path clip-path="url(#clip752)" d="M1517.01 879.503 L1517.01 1552.76 L1747.56 1552.76 L1747.56 879.503 L1517.01 879.503 L1517.01 879.503  Z" fill="#ff0000" fill-rule="evenodd" fill-opacity="1"></path>
<polyline clip-path="url(#clip752)" style="stroke:#add8e6; stroke-linecap:round; stroke-linejoin:round; stroke-width:4; stroke-opacity:1; fill:none" points="1517.01,879.503 1517.01,1552.76 1747.56,1552.76 1747.56,879.503 1517.01,879.503 "></polyline>
<path clip-path="url(#clip752)" d="M1805.2 1552.76 L1805.2 1552.76 L2035.75 1552.76 L2035.75 1552.76 L1805.2 1552.76 L1805.2 1552.76  Z" fill="#add8e6" fill-rule="evenodd" fill-opacity="1"></path>
<polyline clip-path="url(#clip752)" style="stroke:#add8e6; stroke-linecap:round; stroke-linejoin:round; stroke-width:4; stroke-opacity:1; fill:none" points="1805.2,1552.76 1805.2,1552.76 2035.75,1552.76 1805.2,1552.76 "></polyline>
<path clip-path="url(#clip752)" d="M2093.39 1552.76 L2093.39 1552.76 L2323.94 1552.76 L2323.94 1552.76 L2093.39 1552.76 L2093.39 1552.76  Z" fill="#add8e6" fill-rule="evenodd" fill-opacity="1"></path>
<polyline clip-path="url(#clip752)" style="stroke:#add8e6; stroke-linecap:round; stroke-linejoin:round; stroke-width:4; stroke-opacity:1; fill:none" points="2093.39,1552.76 2093.39,1552.76 2323.94,1552.76 2093.39,1552.76 "></polyline>
<circle clip-path="url(#clip752)" style="fill:#ff0000; stroke:none; fill-opacity:0" cx="191.339" cy="123.472" r="2"></circle>
<circle clip-path="url(#clip752)" style="fill:#add8e6; stroke:none; fill-opacity:0" cx="479.528" cy="244.878" r="2"></circle>
<circle clip-path="url(#clip752)" style="fill:#add8e6; stroke:none; fill-opacity:0" cx="767.717" cy="840.873" r="2"></circle>
<circle clip-path="url(#clip752)" style="fill:#add8e6; stroke:none; fill-opacity:0" cx="1055.91" cy="851.91" r="2"></circle>
<circle clip-path="url(#clip752)" style="fill:#add8e6; stroke:none; fill-opacity:0" cx="1344.09" cy="857.429" r="2"></circle>
<circle clip-path="url(#clip752)" style="fill:#ff0000; stroke:none; fill-opacity:0" cx="1632.28" cy="879.503" r="2"></circle>
<circle clip-path="url(#clip752)" style="fill:#add8e6; stroke:none; fill-opacity:0" cx="1920.47" cy="1552.76" r="2"></circle>
<circle clip-path="url(#clip752)" style="fill:#add8e6; stroke:none; fill-opacity:0" cx="2208.66" cy="1552.76" r="2"></circle>
<circle clip-path="url(#clip752)" style="fill:#e26f46; stroke:none; fill-opacity:1" cx="191.339" cy="1547.24" r="2"></circle>
<circle clip-path="url(#clip752)" style="fill:#e26f46; stroke:none; fill-opacity:1" cx="479.528" cy="1547.24" r="2"></circle>
<circle clip-path="url(#clip752)" style="fill:#e26f46; stroke:none; fill-opacity:1" cx="767.717" cy="1547.24" r="2"></circle>
<circle clip-path="url(#clip752)" style="fill:#e26f46; stroke:none; fill-opacity:1" cx="1055.91" cy="1547.24" r="2"></circle>
<circle clip-path="url(#clip752)" style="fill:#e26f46; stroke:none; fill-opacity:1" cx="1344.09" cy="1547.24" r="2"></circle>
<circle clip-path="url(#clip752)" style="fill:#e26f46; stroke:none; fill-opacity:1" cx="1632.28" cy="1547.24" r="2"></circle>
<circle clip-path="url(#clip752)" style="fill:#e26f46; stroke:none; fill-opacity:1" cx="1920.47" cy="1547.24" r="2"></circle>
<circle clip-path="url(#clip752)" style="fill:#e26f46; stroke:none; fill-opacity:1" cx="2208.66" cy="1547.24" r="2"></circle>
<path clip-path="url(#clip750)" d="M97.864 1514.08 L97.864 1597.04 L90.9774 1597.04 L90.9774 1514.08 L97.864 1514.08 Z" fill="#000000" fill-rule="nonzero" fill-opacity="1"></path><path clip-path="url(#clip750)" d="M134.768 1522.39 Q128.448 1522.39 125.248 1528.62 Q122.088 1534.82 122.088 1547.3 Q122.088 1559.73 125.248 1565.97 Q128.448 1572.17 134.768 1572.17 Q141.128 1572.17 144.287 1565.97 Q147.488 1559.73 147.488 1547.3 Q147.488 1534.82 144.287 1528.62 Q141.128 1522.39 134.768 1522.39 M134.768 1515.9 Q144.935 1515.9 150.283 1523.96 Q155.67 1531.99 155.67 1547.3 Q155.67 1562.57 150.283 1570.63 Q144.935 1578.65 134.768 1578.65 Q124.6 1578.65 119.212 1570.63 Q113.865 1562.57 113.865 1547.3 Q113.865 1531.99 119.212 1523.96 Q124.6 1515.9 134.768 1515.9 Z" fill="#000000" fill-rule="nonzero" fill-opacity="1"></path><path clip-path="url(#clip750)" d="M187.551 1522.39 Q181.232 1522.39 178.031 1528.62 Q174.872 1534.82 174.872 1547.3 Q174.872 1559.73 178.031 1565.97 Q181.232 1572.17 187.551 1572.17 Q193.911 1572.17 197.071 1565.97 Q200.271 1559.73 200.271 1547.3 Q200.271 1534.82 197.071 1528.62 Q193.911 1522.39 187.551 1522.39 M187.551 1515.9 Q197.719 1515.9 203.066 1523.96 Q208.454 1531.99 208.454 1547.3 Q208.454 1562.57 203.066 1570.63 Q197.719 1578.65 187.551 1578.65 Q177.383 1578.65 171.996 1570.63 Q166.648 1562.57 166.648 1547.3 Q166.648 1531.99 171.996 1523.96 Q177.383 1515.9 187.551 1515.9 Z" fill="#000000" fill-rule="nonzero" fill-opacity="1"></path><path clip-path="url(#clip750)" d="M240.334 1522.39 Q234.015 1522.39 230.815 1528.62 Q227.655 1534.82 227.655 1547.3 Q227.655 1559.73 230.815 1565.97 Q234.015 1572.17 240.334 1572.17 Q246.694 1572.17 249.854 1565.97 Q253.054 1559.73 253.054 1547.3 Q253.054 1534.82 249.854 1528.62 Q246.694 1522.39 240.334 1522.39 M240.334 1515.9 Q250.502 1515.9 255.849 1523.96 Q261.237 1531.99 261.237 1547.3 Q261.237 1562.57 255.849 1570.63 Q250.502 1578.65 240.334 1578.65 Q230.166 1578.65 224.779 1570.63 Q219.432 1562.57 219.432 1547.3 Q219.432 1531.99 224.779 1523.96 Q230.166 1515.9 240.334 1515.9 Z" fill="#000000" fill-rule="nonzero" fill-opacity="1"></path><path clip-path="url(#clip750)" d="M291.7 1551.47 L280.276 1588.41 L273.39 1588.41 L284.813 1551.47 L273.39 1514.53 L280.276 1514.53 L291.7 1551.47 Z" fill="#000000" fill-rule="nonzero" fill-opacity="1"></path><path clip-path="url(#clip750)" d="M386.053 1514.08 L386.053 1597.04 L379.166 1597.04 L379.166 1514.08 L386.053 1514.08 Z" fill="#000000" fill-rule="nonzero" fill-opacity="1"></path><path clip-path="url(#clip750)" d="M422.957 1522.39 Q416.637 1522.39 413.437 1528.62 Q410.277 1534.82 410.277 1547.3 Q410.277 1559.73 413.437 1565.97 Q416.637 1572.17 422.957 1572.17 Q429.317 1572.17 432.476 1565.97 Q435.677 1559.73 435.677 1547.3 Q435.677 1534.82 432.476 1528.62 Q429.317 1522.39 422.957 1522.39 M422.957 1515.9 Q433.124 1515.9 438.472 1523.96 Q443.859 1531.99 443.859 1547.3 Q443.859 1562.57 438.472 1570.63 Q433.124 1578.65 422.957 1578.65 Q412.789 1578.65 407.401 1570.63 Q402.054 1562.57 402.054 1547.3 Q402.054 1531.99 407.401 1523.96 Q412.789 1515.9 422.957 1515.9 Z" fill="#000000" fill-rule="nonzero" fill-opacity="1"></path><path clip-path="url(#clip750)" d="M459.658 1570.59 L473.026 1570.59 L473.026 1524.45 L458.483 1527.37 L458.483 1519.91 L472.945 1517 L481.128 1517 L481.128 1570.59 L494.496 1570.59 L494.496 1577.48 L459.658 1577.48 L459.658 1570.59 Z" fill="#000000" fill-rule="nonzero" fill-opacity="1"></path><path clip-path="url(#clip750)" d="M512.441 1570.59 L525.809 1570.59 L525.809 1524.45 L511.266 1527.37 L511.266 1519.91 L525.728 1517 L533.911 1517 L533.911 1570.59 L547.279 1570.59 L547.279 1577.48 L512.441 1577.48 L512.441 1570.59 Z" fill="#000000" fill-rule="nonzero" fill-opacity="1"></path><path clip-path="url(#clip750)" d="M579.889 1551.47 L568.465 1588.41 L561.579 1588.41 L573.002 1551.47 L561.579 1514.53 L568.465 1514.53 L579.889 1551.47 Z" fill="#000000" fill-rule="nonzero" fill-opacity="1"></path><path clip-path="url(#clip750)" d="M674.242 1514.08 L674.242 1597.04 L667.355 1597.04 L667.355 1514.08 L674.242 1514.08 Z" fill="#000000" fill-rule="nonzero" fill-opacity="1"></path><path clip-path="url(#clip750)" d="M695.064 1570.59 L708.432 1570.59 L708.432 1524.45 L693.889 1527.37 L693.889 1519.91 L708.351 1517 L716.533 1517 L716.533 1570.59 L729.901 1570.59 L729.901 1577.48 L695.064 1577.48 L695.064 1570.59 Z" fill="#000000" fill-rule="nonzero" fill-opacity="1"></path><path clip-path="url(#clip750)" d="M763.929 1522.39 Q757.61 1522.39 754.409 1528.62 Q751.25 1534.82 751.25 1547.3 Q751.25 1559.73 754.409 1565.97 Q757.61 1572.17 763.929 1572.17 Q770.289 1572.17 773.449 1565.97 Q776.649 1559.73 776.649 1547.3 Q776.649 1534.82 773.449 1528.62 Q770.289 1522.39 763.929 1522.39 M763.929 1515.9 Q774.097 1515.9 779.444 1523.96 Q784.832 1531.99 784.832 1547.3 Q784.832 1562.57 779.444 1570.63 Q774.097 1578.65 763.929 1578.65 Q753.761 1578.65 748.373 1570.63 Q743.026 1562.57 743.026 1547.3 Q743.026 1531.99 748.373 1523.96 Q753.761 1515.9 763.929 1515.9 Z" fill="#000000" fill-rule="nonzero" fill-opacity="1"></path><path clip-path="url(#clip750)" d="M800.63 1570.59 L813.998 1570.59 L813.998 1524.45 L799.455 1527.37 L799.455 1519.91 L813.917 1517 L822.1 1517 L822.1 1570.59 L835.468 1570.59 L835.468 1577.48 L800.63 1577.48 L800.63 1570.59 Z" fill="#000000" fill-rule="nonzero" fill-opacity="1"></path><path clip-path="url(#clip750)" d="M868.078 1551.47 L856.654 1588.41 L849.768 1588.41 L861.191 1551.47 L849.768 1514.53 L856.654 1514.53 L868.078 1551.47 Z" fill="#000000" fill-rule="nonzero" fill-opacity="1"></path><path clip-path="url(#clip750)" d="M962.431 1514.08 L962.431 1597.04 L955.544 1597.04 L955.544 1514.08 L962.431 1514.08 Z" fill="#000000" fill-rule="nonzero" fill-opacity="1"></path><path clip-path="url(#clip750)" d="M983.253 1570.59 L996.621 1570.59 L996.621 1524.45 L982.078 1527.37 L982.078 1519.91 L996.54 1517 L1004.72 1517 L1004.72 1570.59 L1018.09 1570.59 L1018.09 1577.48 L983.253 1577.48 L983.253 1570.59 Z" fill="#000000" fill-rule="nonzero" fill-opacity="1"></path><path clip-path="url(#clip750)" d="M1036.04 1570.59 L1049.4 1570.59 L1049.4 1524.45 L1034.86 1527.37 L1034.86 1519.91 L1049.32 1517 L1057.51 1517 L1057.51 1570.59 L1070.87 1570.59 L1070.87 1577.48 L1036.04 1577.48 L1036.04 1570.59 Z" fill="#000000" fill-rule="nonzero" fill-opacity="1"></path><path clip-path="url(#clip750)" d="M1104.9 1522.39 Q1098.58 1522.39 1095.38 1528.62 Q1092.22 1534.82 1092.22 1547.3 Q1092.22 1559.73 1095.38 1565.97 Q1098.58 1572.17 1104.9 1572.17 Q1111.26 1572.17 1114.42 1565.97 Q1117.62 1559.73 1117.62 1547.3 Q1117.62 1534.82 1114.42 1528.62 Q1111.26 1522.39 1104.9 1522.39 M1104.9 1515.9 Q1115.07 1515.9 1120.42 1523.96 Q1125.8 1531.99 1125.8 1547.3 Q1125.8 1562.57 1120.42 1570.63 Q1115.07 1578.65 1104.9 1578.65 Q1094.73 1578.65 1089.35 1570.63 Q1084 1562.57 1084 1547.3 Q1084 1531.99 1089.35 1523.96 Q1094.73 1515.9 1104.9 1515.9 Z" fill="#000000" fill-rule="nonzero" fill-opacity="1"></path><path clip-path="url(#clip750)" d="M1156.27 1551.47 L1144.84 1588.41 L1137.96 1588.41 L1149.38 1551.47 L1137.96 1514.53 L1144.84 1514.53 L1156.27 1551.47 Z" fill="#000000" fill-rule="nonzero" fill-opacity="1"></path><path clip-path="url(#clip750)" d="M1250.62 1514.08 L1250.62 1597.04 L1243.73 1597.04 L1243.73 1514.08 L1250.62 1514.08 Z" fill="#000000" fill-rule="nonzero" fill-opacity="1"></path><path clip-path="url(#clip750)" d="M1271.44 1570.59 L1284.81 1570.59 L1284.81 1524.45 L1270.27 1527.37 L1270.27 1519.91 L1284.73 1517 L1292.91 1517 L1292.91 1570.59 L1306.28 1570.59 L1306.28 1577.48 L1271.44 1577.48 L1271.44 1570.59 Z" fill="#000000" fill-rule="nonzero" fill-opacity="1"></path><path clip-path="url(#clip750)" d="M1324.22 1570.59 L1337.59 1570.59 L1337.59 1524.45 L1323.05 1527.37 L1323.05 1519.91 L1337.51 1517 L1345.69 1517 L1345.69 1570.59 L1359.06 1570.59 L1359.06 1577.48 L1324.22 1577.48 L1324.22 1570.59 Z" fill="#000000" fill-rule="nonzero" fill-opacity="1"></path><path clip-path="url(#clip750)" d="M1377.01 1570.59 L1390.38 1570.59 L1390.38 1524.45 L1375.83 1527.37 L1375.83 1519.91 L1390.3 1517 L1398.48 1517 L1398.48 1570.59 L1411.85 1570.59 L1411.85 1577.48 L1377.01 1577.48 L1377.01 1570.59 Z" fill="#000000" fill-rule="nonzero" fill-opacity="1"></path><path clip-path="url(#clip750)" d="M1444.46 1551.47 L1433.03 1588.41 L1426.15 1588.41 L1437.57 1551.47 L1426.15 1514.53 L1433.03 1514.53 L1444.46 1551.47 Z" fill="#000000" fill-rule="nonzero" fill-opacity="1"></path><path clip-path="url(#clip750)" d="M1538.81 1514.08 L1538.81 1597.04 L1531.92 1597.04 L1531.92 1514.08 L1538.81 1514.08 Z" fill="#000000" fill-rule="nonzero" fill-opacity="1"></path><path clip-path="url(#clip750)" d="M1559.63 1570.59 L1573 1570.59 L1573 1524.45 L1558.46 1527.37 L1558.46 1519.91 L1572.92 1517 L1581.1 1517 L1581.1 1570.59 L1594.47 1570.59 L1594.47 1577.48 L1559.63 1577.48 L1559.63 1570.59 Z" fill="#000000" fill-rule="nonzero" fill-opacity="1"></path><path clip-path="url(#clip750)" d="M1628.5 1522.39 Q1622.18 1522.39 1618.98 1528.62 Q1615.82 1534.82 1615.82 1547.3 Q1615.82 1559.73 1618.98 1565.97 Q1622.18 1572.17 1628.5 1572.17 Q1634.86 1572.17 1638.02 1565.97 Q1641.22 1559.73 1641.22 1547.3 Q1641.22 1534.82 1638.02 1528.62 Q1634.86 1522.39 1628.5 1522.39 M1628.5 1515.9 Q1638.66 1515.9 1644.01 1523.96 Q1649.4 1531.99 1649.4 1547.3 Q1649.4 1562.57 1644.01 1570.63 Q1638.66 1578.65 1628.5 1578.65 Q1618.33 1578.65 1612.94 1570.63 Q1607.59 1562.57 1607.59 1547.3 Q1607.59 1531.99 1612.94 1523.96 Q1618.33 1515.9 1628.5 1515.9 Z" fill="#000000" fill-rule="nonzero" fill-opacity="1"></path><path clip-path="url(#clip750)" d="M1681.28 1522.39 Q1674.96 1522.39 1671.76 1528.62 Q1668.6 1534.82 1668.6 1547.3 Q1668.6 1559.73 1671.76 1565.97 Q1674.96 1572.17 1681.28 1572.17 Q1687.64 1572.17 1690.8 1565.97 Q1694 1559.73 1694 1547.3 Q1694 1534.82 1690.8 1528.62 Q1687.64 1522.39 1681.28 1522.39 M1681.28 1515.9 Q1691.45 1515.9 1696.79 1523.96 Q1702.18 1531.99 1702.18 1547.3 Q1702.18 1562.57 1696.79 1570.63 Q1691.45 1578.65 1681.28 1578.65 Q1671.11 1578.65 1665.72 1570.63 Q1660.38 1562.57 1660.38 1547.3 Q1660.38 1531.99 1665.72 1523.96 Q1671.11 1515.9 1681.28 1515.9 Z" fill="#000000" fill-rule="nonzero" fill-opacity="1"></path><path clip-path="url(#clip750)" d="M1732.64 1551.47 L1721.22 1588.41 L1714.33 1588.41 L1725.76 1551.47 L1714.33 1514.53 L1721.22 1514.53 L1732.64 1551.47 Z" fill="#000000" fill-rule="nonzero" fill-opacity="1"></path><path clip-path="url(#clip750)" d="M1827 1514.08 L1827 1597.04 L1820.11 1597.04 L1820.11 1514.08 L1827 1514.08 Z" fill="#000000" fill-rule="nonzero" fill-opacity="1"></path><path clip-path="url(#clip750)" d="M1863.9 1522.39 Q1857.58 1522.39 1854.38 1528.62 Q1851.22 1534.82 1851.22 1547.3 Q1851.22 1559.73 1854.38 1565.97 Q1857.58 1572.17 1863.9 1572.17 Q1870.26 1572.17 1873.42 1565.97 Q1876.62 1559.73 1876.62 1547.3 Q1876.62 1534.82 1873.42 1528.62 Q1870.26 1522.39 1863.9 1522.39 M1863.9 1515.9 Q1874.07 1515.9 1879.42 1523.96 Q1884.8 1531.99 1884.8 1547.3 Q1884.8 1562.57 1879.42 1570.63 Q1874.07 1578.65 1863.9 1578.65 Q1853.73 1578.65 1848.35 1570.63 Q1843 1562.57 1843 1547.3 Q1843 1531.99 1848.35 1523.96 Q1853.73 1515.9 1863.9 1515.9 Z" fill="#000000" fill-rule="nonzero" fill-opacity="1"></path><path clip-path="url(#clip750)" d="M1916.68 1522.39 Q1910.37 1522.39 1907.17 1528.62 Q1904.01 1534.82 1904.01 1547.3 Q1904.01 1559.73 1907.17 1565.97 Q1910.37 1572.17 1916.68 1572.17 Q1923.04 1572.17 1926.2 1565.97 Q1929.4 1559.73 1929.4 1547.3 Q1929.4 1534.82 1926.2 1528.62 Q1923.04 1522.39 1916.68 1522.39 M1916.68 1515.9 Q1926.85 1515.9 1932.2 1523.96 Q1937.59 1531.99 1937.59 1547.3 Q1937.59 1562.57 1932.2 1570.63 Q1926.85 1578.65 1916.68 1578.65 Q1906.52 1578.65 1901.13 1570.63 Q1895.78 1562.57 1895.78 1547.3 Q1895.78 1531.99 1901.13 1523.96 Q1906.52 1515.9 1916.68 1515.9 Z" fill="#000000" fill-rule="nonzero" fill-opacity="1"></path><path clip-path="url(#clip750)" d="M1953.39 1570.59 L1966.75 1570.59 L1966.75 1524.45 L1952.21 1527.37 L1952.21 1519.91 L1966.67 1517 L1974.86 1517 L1974.86 1570.59 L1988.22 1570.59 L1988.22 1577.48 L1953.39 1577.48 L1953.39 1570.59 Z" fill="#000000" fill-rule="nonzero" fill-opacity="1"></path><path clip-path="url(#clip750)" d="M2020.83 1551.47 L2009.41 1588.41 L2002.52 1588.41 L2013.95 1551.47 L2002.52 1514.53 L2009.41 1514.53 L2020.83 1551.47 Z" fill="#000000" fill-rule="nonzero" fill-opacity="1"></path><path clip-path="url(#clip750)" d="M2115.19 1514.08 L2115.19 1597.04 L2108.3 1597.04 L2108.3 1514.08 L2115.19 1514.08 Z" fill="#000000" fill-rule="nonzero" fill-opacity="1"></path><path clip-path="url(#clip750)" d="M2152.09 1522.39 Q2145.77 1522.39 2142.57 1528.62 Q2139.41 1534.82 2139.41 1547.3 Q2139.41 1559.73 2142.57 1565.97 Q2145.77 1572.17 2152.09 1572.17 Q2158.45 1572.17 2161.61 1565.97 Q2164.81 1559.73 2164.81 1547.3 Q2164.81 1534.82 2161.61 1528.62 Q2158.45 1522.39 2152.09 1522.39 M2152.09 1515.9 Q2162.26 1515.9 2167.61 1523.96 Q2172.99 1531.99 2172.99 1547.3 Q2172.99 1562.57 2167.61 1570.63 Q2162.26 1578.65 2152.09 1578.65 Q2141.92 1578.65 2136.54 1570.63 Q2131.19 1562.57 2131.19 1547.3 Q2131.19 1531.99 2136.54 1523.96 Q2141.92 1515.9 2152.09 1515.9 Z" fill="#000000" fill-rule="nonzero" fill-opacity="1"></path><path clip-path="url(#clip750)" d="M2188.79 1570.59 L2202.16 1570.59 L2202.16 1524.45 L2187.62 1527.37 L2187.62 1519.91 L2202.08 1517 L2210.26 1517 L2210.26 1570.59 L2223.63 1570.59 L2223.63 1577.48 L2188.79 1577.48 L2188.79 1570.59 Z" fill="#000000" fill-rule="nonzero" fill-opacity="1"></path><path clip-path="url(#clip750)" d="M2257.66 1522.39 Q2251.34 1522.39 2248.14 1528.62 Q2244.98 1534.82 2244.98 1547.3 Q2244.98 1559.73 2248.14 1565.97 Q2251.34 1572.17 2257.66 1572.17 Q2264.02 1572.17 2267.18 1565.97 Q2270.38 1559.73 2270.38 1547.3 Q2270.38 1534.82 2267.18 1528.62 Q2264.02 1522.39 2257.66 1522.39 M2257.66 1515.9 Q2267.82 1515.9 2273.17 1523.96 Q2278.56 1531.99 2278.56 1547.3 Q2278.56 1562.57 2273.17 1570.63 Q2267.82 1578.65 2257.66 1578.65 Q2247.49 1578.65 2242.1 1570.63 Q2236.75 1562.57 2236.75 1547.3 Q2236.75 1531.99 2242.1 1523.96 Q2247.49 1515.9 2257.66 1515.9 Z" fill="#000000" fill-rule="nonzero" fill-opacity="1"></path><path clip-path="url(#clip750)" d="M2309.02 1551.47 L2297.6 1588.41 L2290.71 1588.41 L2302.14 1551.47 L2290.71 1514.53 L2297.6 1514.53 L2309.02 1551.47 Z" fill="#000000" fill-rule="nonzero" fill-opacity="1"></path><circle clip-path="url(#clip752)" style="fill:#3da44d; stroke:none; fill-opacity:1" cx="191.339" cy="123.472" r="2"></circle>
<circle clip-path="url(#clip752)" style="fill:#3da44d; stroke:none; fill-opacity:1" cx="479.528" cy="123.472" r="2"></circle>
<circle clip-path="url(#clip752)" style="fill:#3da44d; stroke:none; fill-opacity:1" cx="767.717" cy="123.472" r="2"></circle>
<circle clip-path="url(#clip752)" style="fill:#3da44d; stroke:none; fill-opacity:1" cx="1055.91" cy="123.472" r="2"></circle>
<circle clip-path="url(#clip752)" style="fill:#3da44d; stroke:none; fill-opacity:1" cx="1344.09" cy="123.472" r="2"></circle>
<circle clip-path="url(#clip752)" style="fill:#3da44d; stroke:none; fill-opacity:1" cx="1632.28" cy="123.472" r="2"></circle>
<circle clip-path="url(#clip752)" style="fill:#3da44d; stroke:none; fill-opacity:1" cx="1920.47" cy="123.472" r="2"></circle>
<circle clip-path="url(#clip752)" style="fill:#3da44d; stroke:none; fill-opacity:1" cx="2208.66" cy="123.472" r="2"></circle>
<path clip-path="url(#clip750)" d="M127.962 146.826 L156.521 146.826 L156.521 153.712 L118.118 153.712 L118.118 146.826 Q122.777 142.005 130.798 133.903 Q138.859 125.761 140.925 123.411 Q144.854 118.996 146.394 115.958 Q147.974 112.879 147.974 109.922 Q147.974 105.101 144.571 102.063 Q141.209 99.0249 135.78 99.0249 Q131.932 99.0249 127.638 100.362 Q123.385 101.699 118.524 104.413 L118.524 96.1488 Q123.466 94.1638 127.76 93.1511 Q132.054 92.1384 135.618 92.1384 Q145.016 92.1384 150.607 96.8374 Q156.197 101.536 156.197 109.395 Q156.197 113.122 154.779 116.484 Q153.402 119.806 149.716 124.343 Q148.703 125.518 143.275 131.149 Q137.846 136.739 127.962 146.826 Z" fill="#000000" fill-rule="nonzero" fill-opacity="1"></path><path clip-path="url(#clip750)" d="M173.778 93.2321 L205.902 93.2321 L205.902 100.119 L181.272 100.119 L181.272 114.945 Q183.054 114.337 184.837 114.054 Q186.619 113.73 188.402 113.73 Q198.529 113.73 204.443 119.279 Q210.358 124.829 210.358 134.308 Q210.358 144.071 204.281 149.499 Q198.205 154.887 187.146 154.887 Q183.338 154.887 179.368 154.239 Q175.439 153.591 171.226 152.294 L171.226 144.071 Q174.872 146.056 178.761 147.028 Q182.649 148 186.984 148 Q193.992 148 198.083 144.314 Q202.175 140.628 202.175 134.308 Q202.175 127.989 198.083 124.303 Q193.992 120.616 186.984 120.616 Q183.703 120.616 180.421 121.345 Q177.181 122.075 173.778 123.614 L173.778 93.2321 Z" fill="#000000" fill-rule="nonzero" fill-opacity="1"></path><path clip-path="url(#clip750)" d="M226.723 152.456 L226.723 145.003 Q229.802 146.461 232.962 147.231 Q236.121 148 239.16 148 Q247.261 148 251.515 142.572 Q255.809 137.103 256.416 126.004 Q254.067 129.488 250.462 131.351 Q246.856 133.215 242.481 133.215 Q233.407 133.215 228.101 127.746 Q222.834 122.237 222.834 112.717 Q222.834 103.4 228.344 97.7691 Q233.853 92.1384 243.008 92.1384 Q253.5 92.1384 259.009 100.2 Q264.559 108.22 264.559 123.533 Q264.559 137.833 257.753 146.38 Q250.988 154.887 239.524 154.887 Q236.445 154.887 233.286 154.279 Q230.126 153.672 226.723 152.456 M243.008 126.814 Q248.517 126.814 251.717 123.047 Q254.958 119.279 254.958 112.717 Q254.958 106.195 251.717 102.428 Q248.517 98.6198 243.008 98.6198 Q237.499 98.6198 234.258 102.428 Q231.058 106.195 231.058 112.717 Q231.058 119.279 234.258 123.047 Q237.499 126.814 243.008 126.814 Z" fill="#000000" fill-rule="nonzero" fill-opacity="1"></path><path clip-path="url(#clip750)" d="M416.779 146.826 L445.338 146.826 L445.338 153.712 L406.935 153.712 L406.935 146.826 Q411.594 142.005 419.615 133.903 Q427.676 125.761 429.742 123.411 Q433.671 118.996 435.211 115.958 Q436.791 112.879 436.791 109.922 Q436.791 105.101 433.388 102.063 Q430.026 99.0249 424.597 99.0249 Q420.749 99.0249 416.455 100.362 Q412.202 101.699 407.34 104.413 L407.34 96.1488 Q412.283 94.1638 416.577 93.1511 Q420.87 92.1384 424.435 92.1384 Q433.833 92.1384 439.424 96.8374 Q445.014 101.536 445.014 109.395 Q445.014 113.122 443.596 116.484 Q442.219 119.806 438.532 124.343 Q437.52 125.518 432.091 131.149 Q426.663 136.739 416.779 146.826 Z" fill="#000000" fill-rule="nonzero" fill-opacity="1"></path><path clip-path="url(#clip750)" d="M487.305 121.102 Q493.179 122.358 496.46 126.328 Q499.782 130.298 499.782 136.131 Q499.782 145.084 493.625 149.985 Q487.467 154.887 476.125 154.887 Q472.317 154.887 468.266 154.117 Q464.256 153.388 459.962 151.889 L459.962 143.99 Q463.364 145.975 467.415 146.988 Q471.466 148 475.882 148 Q483.578 148 487.589 144.962 Q491.64 141.924 491.64 136.131 Q491.64 130.784 487.872 127.786 Q484.146 124.748 477.462 124.748 L470.413 124.748 L470.413 118.024 L477.786 118.024 Q483.822 118.024 487.022 115.634 Q490.222 113.203 490.222 108.666 Q490.222 104.008 486.9 101.536 Q483.619 99.0249 477.462 99.0249 Q474.099 99.0249 470.251 99.7541 Q466.403 100.483 461.785 102.023 L461.785 94.731 Q466.443 93.4347 470.494 92.7865 Q474.585 92.1384 478.191 92.1384 Q487.508 92.1384 492.936 96.3918 Q498.364 100.605 498.364 107.815 Q498.364 112.839 495.488 116.322 Q492.612 119.766 487.305 121.102 Z" fill="#000000" fill-rule="nonzero" fill-opacity="1"></path><path clip-path="url(#clip750)" d="M513.231 93.2321 L552.12 93.2321 L552.12 96.7159 L530.164 153.712 L521.616 153.712 L542.276 100.119 L513.231 100.119 L513.231 93.2321 Z" fill="#000000" fill-rule="nonzero" fill-opacity="1"></path><path clip-path="url(#clip750)" d="M697.19 146.826 L710.558 146.826 L710.558 100.686 L696.016 103.602 L696.016 96.1488 L710.477 93.2321 L718.66 93.2321 L718.66 146.826 L732.028 146.826 L732.028 153.712 L697.19 153.712 L697.19 146.826 Z" fill="#000000" fill-rule="nonzero" fill-opacity="1"></path><path clip-path="url(#clip750)" d="M755.604 146.826 L784.163 146.826 L784.163 153.712 L745.761 153.712 L745.761 146.826 Q750.419 142.005 758.44 133.903 Q766.501 125.761 768.567 123.411 Q772.497 118.996 774.036 115.958 Q775.616 112.879 775.616 109.922 Q775.616 105.101 772.213 102.063 Q768.851 99.0249 763.423 99.0249 Q759.574 99.0249 755.28 100.362 Q751.027 101.699 746.166 104.413 L746.166 96.1488 Q751.108 94.1638 755.402 93.1511 Q759.696 92.1384 763.261 92.1384 Q772.659 92.1384 778.249 96.8374 Q783.839 101.536 783.839 109.395 Q783.839 113.122 782.421 116.484 Q781.044 119.806 777.358 124.343 Q776.345 125.518 770.917 131.149 Q765.489 136.739 755.604 146.826 Z" fill="#000000" fill-rule="nonzero" fill-opacity="1"></path><path clip-path="url(#clip750)" d="M801.582 152.456 L801.582 145.003 Q804.661 146.461 807.82 147.231 Q810.98 148 814.018 148 Q822.12 148 826.374 142.572 Q830.668 137.103 831.275 126.004 Q828.926 129.488 825.32 131.351 Q821.715 133.215 817.34 133.215 Q808.266 133.215 802.959 127.746 Q797.693 122.237 797.693 112.717 Q797.693 103.4 803.202 97.7691 Q808.712 92.1384 817.867 92.1384 Q828.359 92.1384 833.868 100.2 Q839.418 108.22 839.418 123.533 Q839.418 137.833 832.612 146.38 Q825.847 154.887 814.383 154.887 Q811.304 154.887 808.145 154.279 Q804.985 153.672 801.582 152.456 M817.867 126.814 Q823.376 126.814 826.576 123.047 Q829.817 119.279 829.817 112.717 Q829.817 106.195 826.576 102.428 Q823.376 98.6198 817.867 98.6198 Q812.357 98.6198 809.117 102.428 Q805.917 106.195 805.917 112.717 Q805.917 119.279 809.117 123.047 Q812.357 126.814 817.867 126.814 Z" fill="#000000" fill-rule="nonzero" fill-opacity="1"></path><path clip-path="url(#clip750)" d="M986.007 146.826 L999.375 146.826 L999.375 100.686 L984.832 103.602 L984.832 96.1488 L999.294 93.2321 L1007.48 93.2321 L1007.48 146.826 L1020.84 146.826 L1020.84 153.712 L986.007 153.712 L986.007 146.826 Z" fill="#000000" fill-rule="nonzero" fill-opacity="1"></path><path clip-path="url(#clip750)" d="M1044.42 146.826 L1072.98 146.826 L1072.98 153.712 L1034.58 153.712 L1034.58 146.826 Q1039.24 142.005 1047.26 133.903 Q1055.32 125.761 1057.38 123.411 Q1061.31 118.996 1062.85 115.958 Q1064.43 112.879 1064.43 109.922 Q1064.43 105.101 1061.03 102.063 Q1057.67 99.0249 1052.24 99.0249 Q1048.39 99.0249 1044.1 100.362 Q1039.84 101.699 1034.98 104.413 L1034.98 96.1488 Q1039.92 94.1638 1044.22 93.1511 Q1048.51 92.1384 1052.08 92.1384 Q1061.48 92.1384 1067.07 96.8374 Q1072.66 101.536 1072.66 109.395 Q1072.66 113.122 1071.24 116.484 Q1069.86 119.806 1066.17 124.343 Q1065.16 125.518 1059.73 131.149 Q1054.31 136.739 1044.42 146.826 Z" fill="#000000" fill-rule="nonzero" fill-opacity="1"></path><path clip-path="url(#clip750)" d="M1088.09 93.2321 L1126.98 93.2321 L1126.98 96.7159 L1105.02 153.712 L1096.48 153.712 L1117.13 100.119 L1088.09 100.119 L1088.09 93.2321 Z" fill="#000000" fill-rule="nonzero" fill-opacity="1"></path><path clip-path="url(#clip750)" d="M1273.26 146.826 L1286.63 146.826 L1286.63 100.686 L1272.09 103.602 L1272.09 96.1488 L1286.55 93.2321 L1294.73 93.2321 L1294.73 146.826 L1308.1 146.826 L1308.1 153.712 L1273.26 153.712 L1273.26 146.826 Z" fill="#000000" fill-rule="nonzero" fill-opacity="1"></path><path clip-path="url(#clip750)" d="M1331.68 146.826 L1360.24 146.826 L1360.24 153.712 L1321.83 153.712 L1321.83 146.826 Q1326.49 142.005 1334.51 133.903 Q1342.58 125.761 1344.64 123.411 Q1348.57 118.996 1350.11 115.958 Q1351.69 112.879 1351.69 109.922 Q1351.69 105.101 1348.29 102.063 Q1344.92 99.0249 1339.5 99.0249 Q1335.65 99.0249 1331.35 100.362 Q1327.1 101.699 1322.24 104.413 L1322.24 96.1488 Q1327.18 94.1638 1331.48 93.1511 Q1335.77 92.1384 1339.33 92.1384 Q1348.73 92.1384 1354.32 96.8374 Q1359.91 101.536 1359.91 109.395 Q1359.91 113.122 1358.5 116.484 Q1357.12 119.806 1353.43 124.343 Q1352.42 125.518 1346.99 131.149 Q1341.56 136.739 1331.68 146.826 Z" fill="#000000" fill-rule="nonzero" fill-opacity="1"></path><path clip-path="url(#clip750)" d="M1395.93 120.211 Q1390.42 120.211 1387.18 123.978 Q1383.98 127.746 1383.98 134.308 Q1383.98 140.83 1387.18 144.638 Q1390.42 148.405 1395.93 148.405 Q1401.44 148.405 1404.64 144.638 Q1407.88 140.83 1407.88 134.308 Q1407.88 127.746 1404.64 123.978 Q1401.44 120.211 1395.93 120.211 M1412.17 94.5689 L1412.17 102.023 Q1409.09 100.564 1405.93 99.7946 Q1402.81 99.0249 1399.73 99.0249 Q1391.63 99.0249 1387.34 104.494 Q1383.08 109.962 1382.48 121.021 Q1384.87 117.497 1388.47 115.634 Q1392.08 113.73 1396.41 113.73 Q1405.53 113.73 1410.79 119.279 Q1416.1 124.789 1416.1 134.308 Q1416.1 143.625 1410.59 149.256 Q1405.08 154.887 1395.93 154.887 Q1385.43 154.887 1379.88 146.866 Q1374.33 138.805 1374.33 123.533 Q1374.33 109.193 1381.14 100.686 Q1387.95 92.1384 1399.41 92.1384 Q1402.49 92.1384 1405.61 92.746 Q1408.77 93.3537 1412.17 94.5689 Z" fill="#000000" fill-rule="nonzero" fill-opacity="1"></path><path clip-path="url(#clip750)" d="M1562.99 146.826 L1576.36 146.826 L1576.36 100.686 L1561.82 103.602 L1561.82 96.1488 L1576.28 93.2321 L1584.46 93.2321 L1584.46 146.826 L1597.83 146.826 L1597.83 153.712 L1562.99 153.712 L1562.99 146.826 Z" fill="#000000" fill-rule="nonzero" fill-opacity="1"></path><path clip-path="url(#clip750)" d="M1621.41 146.826 L1649.97 146.826 L1649.97 153.712 L1611.56 153.712 L1611.56 146.826 Q1616.22 142.005 1624.24 133.903 Q1632.3 125.761 1634.37 123.411 Q1638.3 118.996 1639.84 115.958 Q1641.42 112.879 1641.42 109.922 Q1641.42 105.101 1638.02 102.063 Q1634.65 99.0249 1629.23 99.0249 Q1625.38 99.0249 1621.08 100.362 Q1616.83 101.699 1611.97 104.413 L1611.97 96.1488 Q1616.91 94.1638 1621.2 93.1511 Q1625.5 92.1384 1629.06 92.1384 Q1638.46 92.1384 1644.05 96.8374 Q1649.64 101.536 1649.64 109.395 Q1649.64 113.122 1648.22 116.484 Q1646.85 119.806 1643.16 124.343 Q1642.15 125.518 1636.72 131.149 Q1631.29 136.739 1621.41 146.826 Z" fill="#000000" fill-rule="nonzero" fill-opacity="1"></path><path clip-path="url(#clip750)" d="M1674.19 146.826 L1702.75 146.826 L1702.75 153.712 L1664.35 153.712 L1664.35 146.826 Q1669 142.005 1677.03 133.903 Q1685.09 125.761 1687.15 123.411 Q1691.08 118.996 1692.62 115.958 Q1694.2 112.879 1694.2 109.922 Q1694.2 105.101 1690.8 102.063 Q1687.44 99.0249 1682.01 99.0249 Q1678.16 99.0249 1673.87 100.362 Q1669.61 101.699 1664.75 104.413 L1664.75 96.1488 Q1669.69 94.1638 1673.99 93.1511 Q1678.28 92.1384 1681.85 92.1384 Q1691.24 92.1384 1696.83 96.8374 Q1702.42 101.536 1702.42 109.395 Q1702.42 113.122 1701.01 116.484 Q1699.63 119.806 1695.94 124.343 Q1694.93 125.518 1689.5 131.149 Q1684.07 136.739 1674.19 146.826 Z" fill="#000000" fill-rule="nonzero" fill-opacity="1"></path><path clip-path="url(#clip750)" d="M1920.47 98.6198 Q1914.15 98.6198 1910.95 104.858 Q1907.79 111.056 1907.79 123.533 Q1907.79 135.969 1910.95 142.208 Q1914.15 148.405 1920.47 148.405 Q1926.83 148.405 1929.99 142.208 Q1933.19 135.969 1933.19 123.533 Q1933.19 111.056 1929.99 104.858 Q1926.83 98.6198 1920.47 98.6198 M1920.47 92.1384 Q1930.64 92.1384 1935.99 100.2 Q1941.38 108.22 1941.38 123.533 Q1941.38 138.805 1935.99 146.866 Q1930.64 154.887 1920.47 154.887 Q1910.3 154.887 1904.92 146.866 Q1899.57 138.805 1899.57 123.533 Q1899.57 108.22 1904.92 100.2 Q1910.3 92.1384 1920.47 92.1384 Z" fill="#000000" fill-rule="nonzero" fill-opacity="1"></path><path clip-path="url(#clip750)" d="M2208.66 98.6198 Q2202.34 98.6198 2199.14 104.858 Q2195.98 111.056 2195.98 123.533 Q2195.98 135.969 2199.14 142.208 Q2202.34 148.405 2208.66 148.405 Q2215.02 148.405 2218.18 142.208 Q2221.38 135.969 2221.38 123.533 Q2221.38 111.056 2218.18 104.858 Q2215.02 98.6198 2208.66 98.6198 M2208.66 92.1384 Q2218.83 92.1384 2224.18 100.2 Q2229.56 108.22 2229.56 123.533 Q2229.56 138.805 2224.18 146.866 Q2218.83 154.887 2208.66 154.887 Q2198.49 154.887 2193.11 146.866 Q2187.76 138.805 2187.76 123.533 Q2187.76 108.22 2193.11 100.2 Q2198.49 92.1384 2208.66 92.1384 Z" fill="#000000" fill-rule="nonzero" fill-opacity="1"></path><path clip-path="url(#clip750)" d="M1593.37 274.795 L2275.91 274.795 L2275.91 171.115 L1593.37 171.115  Z" fill="#000000" fill-rule="evenodd" fill-opacity="0"></path>
<polyline clip-path="url(#clip750)" style="stroke:#000000; stroke-linecap:round; stroke-linejoin:round; stroke-width:4; stroke-opacity:0; fill:none" points="1593.37,274.795 2275.91,274.795 2275.91,171.115 1593.37,171.115 1593.37,274.795 "></polyline>
<path clip-path="url(#clip750)" d="M1618.98 243.691 L1772.68 243.691 L1772.68 202.219 L1618.98 202.219 L1618.98 243.691  Z" fill="#ff0000" fill-rule="evenodd" fill-opacity="1"></path>
<polyline clip-path="url(#clip750)" style="stroke:#add8e6; stroke-linecap:round; stroke-linejoin:round; stroke-width:4; stroke-opacity:1; fill:none" points="1618.98,243.691 1772.68,243.691 1772.68,202.219 1618.98,202.219 1618.98,243.691 "></polyline>
<path clip-path="url(#clip750)" d="M1798.3 205.675 L1818.16 205.675 L1818.16 209.61 L1802.98 209.61 L1802.98 219.795 L1816.68 219.795 L1816.68 223.73 L1802.98 223.73 L1802.98 240.235 L1798.3 240.235 L1798.3 205.675 Z" fill="#000000" fill-rule="nonzero" fill-opacity="1"></path><path clip-path="url(#clip750)" d="M1833.74 217.295 Q1830.31 217.295 1828.32 219.98 Q1826.33 222.642 1826.33 227.295 Q1826.33 231.948 1828.3 234.633 Q1830.29 237.295 1833.74 237.295 Q1837.14 237.295 1839.13 234.61 Q1841.12 231.925 1841.12 227.295 Q1841.12 222.689 1839.13 220.004 Q1837.14 217.295 1833.74 217.295 M1833.74 213.684 Q1839.3 213.684 1842.47 217.295 Q1845.64 220.906 1845.64 227.295 Q1845.64 233.661 1842.47 237.295 Q1839.3 240.906 1833.74 240.906 Q1828.16 240.906 1824.99 237.295 Q1821.84 233.661 1821.84 227.295 Q1821.84 220.906 1824.99 217.295 Q1828.16 213.684 1833.74 213.684 Z" fill="#000000" fill-rule="nonzero" fill-opacity="1"></path><path clip-path="url(#clip750)" d="M1852.26 230.003 L1852.26 214.309 L1856.52 214.309 L1856.52 229.841 Q1856.52 233.522 1857.95 235.374 Q1859.39 237.203 1862.26 237.203 Q1865.71 237.203 1867.7 235.003 Q1869.71 232.804 1869.71 229.008 L1869.71 214.309 L1873.97 214.309 L1873.97 240.235 L1869.71 240.235 L1869.71 236.253 Q1868.16 238.615 1866.1 239.772 Q1864.06 240.906 1861.36 240.906 Q1856.89 240.906 1854.57 238.128 Q1852.26 235.351 1852.26 230.003 M1862.98 213.684 L1862.98 213.684 Z" fill="#000000" fill-rule="nonzero" fill-opacity="1"></path><path clip-path="url(#clip750)" d="M1904.3 224.587 L1904.3 240.235 L1900.04 240.235 L1900.04 224.726 Q1900.04 221.045 1898.6 219.217 Q1897.17 217.388 1894.3 217.388 Q1890.85 217.388 1888.86 219.587 Q1886.86 221.786 1886.86 225.582 L1886.86 240.235 L1882.58 240.235 L1882.58 214.309 L1886.86 214.309 L1886.86 218.337 Q1888.39 215.999 1890.45 214.842 Q1892.54 213.684 1895.24 213.684 Q1899.71 213.684 1902 216.462 Q1904.3 219.217 1904.3 224.587 Z" fill="#000000" fill-rule="nonzero" fill-opacity="1"></path><path clip-path="url(#clip750)" d="M1929.85 218.244 L1929.85 204.217 L1934.11 204.217 L1934.11 240.235 L1929.85 240.235 L1929.85 236.346 Q1928.51 238.661 1926.45 239.795 Q1924.41 240.906 1921.54 240.906 Q1916.84 240.906 1913.88 237.156 Q1910.94 233.406 1910.94 227.295 Q1910.94 221.184 1913.88 217.434 Q1916.84 213.684 1921.54 213.684 Q1924.41 213.684 1926.45 214.818 Q1928.51 215.929 1929.85 218.244 M1915.34 227.295 Q1915.34 231.994 1917.26 234.679 Q1919.2 237.341 1922.58 237.341 Q1925.96 237.341 1927.91 234.679 Q1929.85 231.994 1929.85 227.295 Q1929.85 222.596 1927.91 219.934 Q1925.96 217.249 1922.58 217.249 Q1919.2 217.249 1917.26 219.934 Q1915.34 222.596 1915.34 227.295 Z" fill="#000000" fill-rule="nonzero" fill-opacity="1"></path><path clip-path="url(#clip750)" d="M1957.95 214.309 L1962.21 214.309 L1962.21 240.235 L1957.95 240.235 L1957.95 214.309 M1957.95 204.217 L1962.21 204.217 L1962.21 209.61 L1957.95 209.61 L1957.95 204.217 Z" fill="#000000" fill-rule="nonzero" fill-opacity="1"></path><path clip-path="url(#clip750)" d="M1992.67 224.587 L1992.67 240.235 L1988.42 240.235 L1988.42 224.726 Q1988.42 221.045 1986.98 219.217 Q1985.54 217.388 1982.67 217.388 Q1979.23 217.388 1977.23 219.587 Q1975.24 221.786 1975.24 225.582 L1975.24 240.235 L1970.96 240.235 L1970.96 214.309 L1975.24 214.309 L1975.24 218.337 Q1976.77 215.999 1978.83 214.842 Q1980.92 213.684 1983.62 213.684 Q1988.09 213.684 1990.38 216.462 Q1992.67 219.217 1992.67 224.587 Z" fill="#000000" fill-rule="nonzero" fill-opacity="1"></path><path clip-path="url(#clip750)" d="M2017.65 236.3 L2025.29 236.3 L2025.29 209.934 L2016.98 211.601 L2016.98 207.342 L2025.24 205.675 L2029.92 205.675 L2029.92 236.3 L2037.56 236.3 L2037.56 240.235 L2017.65 240.235 L2017.65 236.3 Z" fill="#000000" fill-rule="nonzero" fill-opacity="1"></path><path clip-path="url(#clip750)" d="M2057 208.754 Q2053.39 208.754 2051.56 212.318 Q2049.76 215.86 2049.76 222.99 Q2049.76 230.096 2051.56 233.661 Q2053.39 237.203 2057 237.203 Q2060.64 237.203 2062.44 233.661 Q2064.27 230.096 2064.27 222.99 Q2064.27 215.86 2062.44 212.318 Q2060.64 208.754 2057 208.754 M2057 205.05 Q2062.81 205.05 2065.87 209.656 Q2068.95 214.24 2068.95 222.99 Q2068.95 231.716 2065.87 236.323 Q2062.81 240.906 2057 240.906 Q2051.19 240.906 2048.11 236.323 Q2045.06 231.716 2045.06 222.99 Q2045.06 214.24 2048.11 209.656 Q2051.19 205.05 2057 205.05 Z" fill="#000000" fill-rule="nonzero" fill-opacity="1"></path><path clip-path="url(#clip750)" d="M2087.16 208.754 Q2083.55 208.754 2081.72 212.318 Q2079.92 215.86 2079.92 222.99 Q2079.92 230.096 2081.72 233.661 Q2083.55 237.203 2087.16 237.203 Q2090.8 237.203 2092.6 233.661 Q2094.43 230.096 2094.43 222.99 Q2094.43 215.86 2092.6 212.318 Q2090.8 208.754 2087.16 208.754 M2087.16 205.05 Q2092.97 205.05 2096.03 209.656 Q2099.11 214.24 2099.11 222.99 Q2099.11 231.716 2096.03 236.323 Q2092.97 240.906 2087.16 240.906 Q2081.35 240.906 2078.28 236.323 Q2075.22 231.716 2075.22 222.99 Q2075.22 214.24 2078.28 209.656 Q2081.35 205.05 2087.16 205.05 Z" fill="#000000" fill-rule="nonzero" fill-opacity="1"></path><path clip-path="url(#clip750)" d="M2117.33 208.754 Q2113.72 208.754 2111.89 212.318 Q2110.08 215.86 2110.08 222.99 Q2110.08 230.096 2111.89 233.661 Q2113.72 237.203 2117.33 237.203 Q2120.96 237.203 2122.77 233.661 Q2124.59 230.096 2124.59 222.99 Q2124.59 215.86 2122.77 212.318 Q2120.96 208.754 2117.33 208.754 M2117.33 205.05 Q2123.14 205.05 2126.19 209.656 Q2129.27 214.24 2129.27 222.99 Q2129.27 231.716 2126.19 236.323 Q2123.14 240.906 2117.33 240.906 Q2111.52 240.906 2108.44 236.323 Q2105.38 231.716 2105.38 222.99 Q2105.38 214.24 2108.44 209.656 Q2111.52 205.05 2117.33 205.05 Z" fill="#000000" fill-rule="nonzero" fill-opacity="1"></path><path clip-path="url(#clip750)" d="M2156.17 206.948 L2156.17 214.309 L2164.94 214.309 L2164.94 217.619 L2156.17 217.619 L2156.17 231.693 Q2156.17 234.865 2157.03 235.767 Q2157.9 236.67 2160.57 236.67 L2164.94 236.67 L2164.94 240.235 L2160.57 240.235 Q2155.64 240.235 2153.76 238.406 Q2151.89 236.554 2151.89 231.693 L2151.89 217.619 L2148.76 217.619 L2148.76 214.309 L2151.89 214.309 L2151.89 206.948 L2156.17 206.948 Z" fill="#000000" fill-rule="nonzero" fill-opacity="1"></path><path clip-path="url(#clip750)" d="M2185.57 218.291 Q2184.85 217.874 2183.99 217.689 Q2183.16 217.48 2182.14 217.48 Q2178.53 217.48 2176.59 219.842 Q2174.66 222.179 2174.66 226.578 L2174.66 240.235 L2170.38 240.235 L2170.38 214.309 L2174.66 214.309 L2174.66 218.337 Q2176.01 215.976 2178.16 214.842 Q2180.31 213.684 2183.39 213.684 Q2183.83 213.684 2184.36 213.754 Q2184.9 213.8 2185.54 213.916 L2185.57 218.291 Z" fill="#000000" fill-rule="nonzero" fill-opacity="1"></path><path clip-path="url(#clip750)" d="M2190.03 214.309 L2194.29 214.309 L2194.29 240.235 L2190.03 240.235 L2190.03 214.309 M2190.03 204.217 L2194.29 204.217 L2194.29 209.61 L2190.03 209.61 L2190.03 204.217 Z" fill="#000000" fill-rule="nonzero" fill-opacity="1"></path><path clip-path="url(#clip750)" d="M2225.38 226.207 L2225.38 228.291 L2205.8 228.291 Q2206.08 232.689 2208.44 235.003 Q2210.82 237.295 2215.06 237.295 Q2217.51 237.295 2219.8 236.693 Q2222.12 236.091 2224.39 234.888 L2224.39 238.915 Q2222.09 239.888 2219.69 240.397 Q2217.28 240.906 2214.8 240.906 Q2208.6 240.906 2204.96 237.295 Q2201.35 233.684 2201.35 227.527 Q2201.35 221.161 2204.78 217.434 Q2208.23 213.684 2214.06 213.684 Q2219.29 213.684 2222.33 217.064 Q2225.38 220.42 2225.38 226.207 M2221.12 224.957 Q2221.08 221.462 2219.15 219.379 Q2217.26 217.295 2214.11 217.295 Q2210.54 217.295 2208.39 219.309 Q2206.26 221.323 2205.94 224.98 L2221.12 224.957 Z" fill="#000000" fill-rule="nonzero" fill-opacity="1"></path><path clip-path="url(#clip750)" d="M2248.9 215.073 L2248.9 219.101 Q2247.09 218.175 2245.15 217.712 Q2243.21 217.249 2241.12 217.249 Q2237.95 217.249 2236.35 218.221 Q2234.78 219.193 2234.78 221.138 Q2234.78 222.619 2235.91 223.476 Q2237.05 224.309 2240.47 225.073 L2241.93 225.397 Q2246.47 226.369 2248.37 228.152 Q2250.29 229.911 2250.29 233.082 Q2250.29 236.693 2247.42 238.8 Q2244.57 240.906 2239.57 240.906 Q2237.49 240.906 2235.22 240.49 Q2232.97 240.096 2230.47 239.286 L2230.47 234.888 Q2232.84 236.115 2235.13 236.74 Q2237.42 237.341 2239.66 237.341 Q2242.67 237.341 2244.29 236.323 Q2245.91 235.281 2245.91 233.406 Q2245.91 231.67 2244.73 230.744 Q2243.58 229.818 2239.62 228.962 L2238.14 228.615 Q2234.18 227.781 2232.42 226.068 Q2230.66 224.332 2230.66 221.323 Q2230.66 217.666 2233.25 215.675 Q2235.84 213.684 2240.61 213.684 Q2242.97 213.684 2245.06 214.031 Q2247.14 214.379 2248.9 215.073 Z" fill="#000000" fill-rule="nonzero" fill-opacity="1"></path></svg>