<svg xmlns="http://www.w3.org/2000/svg" xmlns:xlink="http://www.w3.org/1999/xlink" width="960" height="400" viewBox="0 0 3840 1600">
<defs>
  <clipPath id="clip730">
    <rect x="0" y="0" width="3840" height="1600"></rect>
  </clipPath>
</defs>
<path clip-path="url(#clip730)" d="M0 1600 L3840 1600 L3840 0 L0 0  Z" fill="#ffffff" fill-rule="evenodd" fill-opacity="1"></path>
<defs>
  <clipPath id="clip731">
    <rect x="768" y="0" width="2689" height="1600"></rect>
  </clipPath>
</defs>
<path clip-path="url(#clip730)" d="M47.2441 1552.76 L3792.76 1552.76 L3792.76 100.792 L47.2441 100.792  Z" fill="#ffffff" fill-rule="evenodd" fill-opacity="1"></path>
<defs>
  <clipPath id="clip732">
    <rect x="47" y="100" width="3747" height="1453"></rect>
  </clipPath>
</defs>
<path clip-path="url(#clip730)" d="M1712.41 12.096 L1720.59 12.096 L1720.59 36.8875 L1750.33 36.8875 L1750.33 12.096 L1758.51 12.096 L1758.51 72.576 L1750.33 72.576 L1750.33 43.7741 L1720.59 43.7741 L1720.59 72.576 L1712.41 72.576 L1712.41 12.096 Z" fill="#000000" fill-rule="nonzero" fill-opacity="1"></path><path clip-path="url(#clip730)" d="M1774.47 27.2059 L1781.92 27.2059 L1781.92 72.576 L1774.47 72.576 L1774.47 27.2059 M1774.47 9.54393 L1781.92 9.54393 L1781.92 18.9825 L1774.47 18.9825 L1774.47 9.54393 Z" fill="#000000" fill-rule="nonzero" fill-opacity="1"></path><path clip-path="url(#clip730)" d="M1826.44 28.5427 L1826.44 35.5912 Q1823.28 33.9709 1819.88 33.1607 Q1816.48 32.3505 1812.83 32.3505 Q1807.28 32.3505 1804.49 34.0519 Q1801.73 35.7533 1801.73 39.156 Q1801.73 41.7486 1803.72 43.2475 Q1805.7 44.7058 1811.7 46.0426 L1814.25 46.6097 Q1822.19 48.3111 1825.51 51.4303 Q1828.87 54.509 1828.87 60.0587 Q1828.87 66.3781 1823.85 70.0644 Q1818.87 73.7508 1810.12 73.7508 Q1806.47 73.7508 1802.5 73.0216 Q1798.57 72.3329 1794.2 70.9151 L1794.2 63.2184 Q1798.33 65.3654 1802.34 66.4591 Q1806.35 67.5124 1810.28 67.5124 Q1815.55 67.5124 1818.38 65.73 Q1821.22 63.9071 1821.22 60.6258 Q1821.22 57.5877 1819.15 55.9673 Q1817.13 54.3469 1810.2 52.8481 L1807.61 52.2405 Q1800.68 50.7821 1797.6 47.7845 Q1794.52 44.7463 1794.52 39.4801 Q1794.52 33.0797 1799.06 29.5959 Q1803.6 26.1121 1811.94 26.1121 Q1816.07 26.1121 1819.72 26.7198 Q1823.37 27.3274 1826.44 28.5427 Z" fill="#000000" fill-rule="nonzero" fill-opacity="1"></path><path clip-path="url(#clip730)" d="M1848.12 14.324 L1848.12 27.2059 L1863.47 27.2059 L1863.47 32.9987 L1848.12 32.9987 L1848.12 57.6282 Q1848.12 63.1779 1849.62 64.7578 Q1851.15 66.3376 1855.81 66.3376 L1863.47 66.3376 L1863.47 72.576 L1855.81 72.576 Q1847.18 72.576 1843.9 69.3758 Q1840.62 66.1351 1840.62 57.6282 L1840.62 32.9987 L1835.15 32.9987 L1835.15 27.2059 L1840.62 27.2059 L1840.62 14.324 L1848.12 14.324 Z" fill="#000000" fill-rule="nonzero" fill-opacity="1"></path><path clip-path="url(#clip730)" d="M1890.85 32.4315 Q1884.86 32.4315 1881.37 37.1306 Q1877.89 41.7891 1877.89 49.9314 Q1877.89 58.0738 1881.33 62.7728 Q1884.82 67.4314 1890.85 67.4314 Q1896.81 67.4314 1900.29 62.7323 Q1903.78 58.0333 1903.78 49.9314 Q1903.78 41.8701 1900.29 37.1711 Q1896.81 32.4315 1890.85 32.4315 M1890.85 26.1121 Q1900.58 26.1121 1906.13 32.4315 Q1911.68 38.7509 1911.68 49.9314 Q1911.68 61.0714 1906.13 67.4314 Q1900.58 73.7508 1890.85 73.7508 Q1881.09 73.7508 1875.54 67.4314 Q1870.03 61.0714 1870.03 49.9314 Q1870.03 38.7509 1875.54 32.4315 Q1881.09 26.1121 1890.85 26.1121 Z" fill="#000000" fill-rule="nonzero" fill-opacity="1"></path><path clip-path="url(#clip730)" d="M1953.89 49.3643 Q1953.89 41.2625 1950.52 36.8065 Q1947.2 32.3505 1941.17 32.3505 Q1935.17 32.3505 1931.81 36.8065 Q1928.49 41.2625 1928.49 49.3643 Q1928.49 57.4256 1931.81 61.8816 Q1935.17 66.3376 1941.17 66.3376 Q1947.2 66.3376 1950.52 61.8816 Q1953.89 57.4256 1953.89 49.3643 M1961.34 66.9452 Q1961.34 78.5308 1956.19 84.1616 Q1951.05 89.8329 1940.44 89.8329 Q1936.51 89.8329 1933.02 89.2252 Q1929.54 88.6581 1926.26 87.4428 L1926.26 80.1917 Q1929.54 81.9741 1932.74 82.8248 Q1935.94 83.6755 1939.26 83.6755 Q1946.59 83.6755 1950.24 79.8271 Q1953.89 76.0193 1953.89 68.282 L1953.89 64.5957 Q1951.58 68.6061 1947.97 70.5911 Q1944.37 72.576 1939.34 72.576 Q1931 72.576 1925.89 66.2161 Q1920.79 59.8562 1920.79 49.3643 Q1920.79 38.832 1925.89 32.472 Q1931 26.1121 1939.34 26.1121 Q1944.37 26.1121 1947.97 28.0971 Q1951.58 30.082 1953.89 34.0924 L1953.89 27.2059 L1961.34 27.2059 L1961.34 66.9452 Z" fill="#000000" fill-rule="nonzero" fill-opacity="1"></path><path clip-path="url(#clip730)" d="M2002.98 34.1734 Q2001.73 33.4443 2000.23 33.1202 Q1998.77 32.7556 1996.99 32.7556 Q1990.67 32.7556 1987.27 36.8875 Q1983.9 40.9789 1983.9 48.6757 L1983.9 72.576 L1976.41 72.576 L1976.41 27.2059 L1983.9 27.2059 L1983.9 34.2544 Q1986.25 30.1225 1990.02 28.1376 Q1993.79 26.1121 1999.17 26.1121 Q1999.94 26.1121 2000.88 26.2337 Q2001.81 26.3147 2002.94 26.5172 L2002.98 34.1734 Z" fill="#000000" fill-rule="nonzero" fill-opacity="1"></path><path clip-path="url(#clip730)" d="M2031.42 49.7694 Q2022.39 49.7694 2018.9 51.8354 Q2015.42 53.9013 2015.42 58.8839 Q2015.42 62.8538 2018.01 65.2034 Q2020.64 67.5124 2025.14 67.5124 Q2031.34 67.5124 2035.07 63.1374 Q2038.83 58.7219 2038.83 51.4303 L2038.83 49.7694 L2031.42 49.7694 M2046.29 46.6907 L2046.29 72.576 L2038.83 72.576 L2038.83 65.6895 Q2036.28 69.8214 2032.47 71.8063 Q2028.67 73.7508 2023.16 73.7508 Q2016.19 73.7508 2012.06 69.8619 Q2007.97 65.9325 2007.97 59.3701 Q2007.97 51.7138 2013.07 47.825 Q2018.21 43.9361 2028.38 43.9361 L2038.83 43.9361 L2038.83 43.2069 Q2038.83 38.0623 2035.43 35.2672 Q2032.07 32.4315 2025.95 32.4315 Q2022.06 32.4315 2018.38 33.3632 Q2014.69 34.295 2011.29 36.1584 L2011.29 29.2718 Q2015.38 27.692 2019.23 26.9223 Q2023.08 26.1121 2026.72 26.1121 Q2036.56 26.1121 2041.43 31.2163 Q2046.29 36.3204 2046.29 46.6907 Z" fill="#000000" fill-rule="nonzero" fill-opacity="1"></path><path clip-path="url(#clip730)" d="M2096.96 35.9153 Q2099.76 30.8922 2103.65 28.5022 Q2107.54 26.1121 2112.8 26.1121 Q2119.89 26.1121 2123.74 31.0947 Q2127.59 36.0368 2127.59 45.1919 L2127.59 72.576 L2120.09 72.576 L2120.09 45.4349 Q2120.09 38.913 2117.79 35.7533 Q2115.48 32.5936 2110.74 32.5936 Q2104.94 32.5936 2101.58 36.4419 Q2098.22 40.2903 2098.22 46.9338 L2098.22 72.576 L2090.73 72.576 L2090.73 45.4349 Q2090.73 38.8725 2088.42 35.7533 Q2086.11 32.5936 2081.29 32.5936 Q2075.57 32.5936 2072.21 36.4824 Q2068.85 40.3308 2068.85 46.9338 L2068.85 72.576 L2061.36 72.576 L2061.36 27.2059 L2068.85 27.2059 L2068.85 34.2544 Q2071.4 30.082 2074.97 28.0971 Q2078.53 26.1121 2083.43 26.1121 Q2088.38 26.1121 2091.82 28.6237 Q2095.3 31.1352 2096.96 35.9153 Z" fill="#000000" fill-rule="nonzero" fill-opacity="1"></path><path clip-path="url(#clip732)" d="M94.063 100.792 L94.063 1552.76 L468.614 1552.76 L468.614 100.792 L94.063 100.792 L94.063 100.792  Z" fill="#add8e6" fill-rule="evenodd" fill-opacity="1"></path>
<polyline clip-path="url(#clip732)" style="stroke:#add8e6; stroke-linecap:round; stroke-linejoin:round; stroke-width:4; stroke-opacity:1; fill:none" points="94.063,100.792 94.063,1552.76 468.614,1552.76 468.614,100.792 94.063,100.792 "></polyline>
<path clip-path="url(#clip732)" d="M562.252 101.312 L562.252 1552.76 L936.803 1552.76 L936.803 101.312 L562.252 101.312 L562.252 101.312  Z" fill="#add8e6" fill-rule="evenodd" fill-opacity="1"></path>
<polyline clip-path="url(#clip732)" style="stroke:#add8e6; stroke-linecap:round; stroke-linejoin:round; stroke-width:4; stroke-opacity:1; fill:none" points="562.252,101.312 562.252,1552.76 936.803,1552.76 936.803,101.312 562.252,101.312 "></polyline>
<path clip-path="url(#clip732)" d="M1030.44 108.881 L1030.44 1552.76 L1404.99 1552.76 L1404.99 108.881 L1030.44 108.881 L1030.44 108.881  Z" fill="#add8e6" fill-rule="evenodd" fill-opacity="1"></path>
<polyline clip-path="url(#clip732)" style="stroke:#add8e6; stroke-linecap:round; stroke-linejoin:round; stroke-width:4; stroke-opacity:1; fill:none" points="1030.44,108.881 1030.44,1552.76 1404.99,1552.76 1404.99,108.881 1030.44,108.881 "></polyline>
<path clip-path="url(#clip732)" d="M1498.63 122.458 L1498.63 1552.76 L1873.18 1552.76 L1873.18 122.458 L1498.63 122.458 L1498.63 122.458  Z" fill="#ff0000" fill-rule="evenodd" fill-opacity="1"></path>
<polyline clip-path="url(#clip732)" style="stroke:#add8e6; stroke-linecap:round; stroke-linejoin:round; stroke-width:4; stroke-opacity:1; fill:none" points="1498.63,122.458 1498.63,1552.76 1873.18,1552.76 1873.18,122.458 1498.63,122.458 "></polyline>
<path clip-path="url(#clip732)" d="M1966.82 1552.76 L1966.82 1552.76 L2341.37 1552.76 L2341.37 1552.76 L1966.82 1552.76 L1966.82 1552.76  Z" fill="#add8e6" fill-rule="evenodd" fill-opacity="1"></path>
<polyline clip-path="url(#clip732)" style="stroke:#add8e6; stroke-linecap:round; stroke-linejoin:round; stroke-width:4; stroke-opacity:1; fill:none" points="1966.82,1552.76 1966.82,1552.76 2341.37,1552.76 1966.82,1552.76 "></polyline>
<path clip-path="url(#clip732)" d="M2435.01 1552.76 L2435.01 1552.76 L2809.56 1552.76 L2809.56 1552.76 L2435.01 1552.76 L2435.01 1552.76  Z" fill="#add8e6" fill-rule="evenodd" fill-opacity="1"></path>
<polyline clip-path="url(#clip732)" style="stroke:#add8e6; stroke-linecap:round; stroke-linejoin:round; stroke-width:4; stroke-opacity:1; fill:none" points="2435.01,1552.76 2435.01,1552.76 2809.56,1552.76 2435.01,1552.76 "></polyline>
<path clip-path="url(#clip732)" d="M2903.2 1552.76 L2903.2 1552.76 L3277.75 1552.76 L3277.75 1552.76 L2903.2 1552.76 L2903.2 1552.76  Z" fill="#add8e6" fill-rule="evenodd" fill-opacity="1"></path>
<polyline clip-path="url(#clip732)" style="stroke:#add8e6; stroke-linecap:round; stroke-linejoin:round; stroke-width:4; stroke-opacity:1; fill:none" points="2903.2,1552.76 2903.2,1552.76 3277.75,1552.76 2903.2,1552.76 "></polyline>
<path clip-path="url(#clip732)" d="M3371.39 1552.76 L3371.39 1552.76 L3745.94 1552.76 L3745.94 1552.76 L3371.39 1552.76 L3371.39 1552.76  Z" fill="#ff0000" fill-rule="evenodd" fill-opacity="1"></path>
<polyline clip-path="url(#clip732)" style="stroke:#add8e6; stroke-linecap:round; stroke-linejoin:round; stroke-width:4; stroke-opacity:1; fill:none" points="3371.39,1552.76 3371.39,1552.76 3745.94,1552.76 3371.39,1552.76 "></polyline>
<circle clip-path="url(#clip732)" style="fill:#add8e6; stroke:none; fill-opacity:0" cx="281.339" cy="100.792" r="2"></circle>
<circle clip-path="url(#clip732)" style="fill:#add8e6; stroke:none; fill-opacity:0" cx="749.528" cy="101.312" r="2"></circle>
<circle clip-path="url(#clip732)" style="fill:#add8e6; stroke:none; fill-opacity:0" cx="1217.72" cy="108.881" r="2"></circle>
<circle clip-path="url(#clip732)" style="fill:#ff0000; stroke:none; fill-opacity:0" cx="1685.91" cy="122.458" r="2"></circle>
<circle clip-path="url(#clip732)" style="fill:#add8e6; stroke:none; fill-opacity:0" cx="2154.09" cy="1552.76" r="2"></circle>
<circle clip-path="url(#clip732)" style="fill:#add8e6; stroke:none; fill-opacity:0" cx="2622.28" cy="1552.76" r="2"></circle>
<circle clip-path="url(#clip732)" style="fill:#add8e6; stroke:none; fill-opacity:0" cx="3090.47" cy="1552.76" r="2"></circle>
<circle clip-path="url(#clip732)" style="fill:#ff0000; stroke:none; fill-opacity:0" cx="3558.66" cy="1552.76" r="2"></circle>
<circle clip-path="url(#clip732)" style="fill:#e26f46; stroke:none; fill-opacity:1" cx="281.339" cy="1552.7" r="2"></circle>
<circle clip-path="url(#clip732)" style="fill:#e26f46; stroke:none; fill-opacity:1" cx="749.528" cy="1552.7" r="2"></circle>
<circle clip-path="url(#clip732)" style="fill:#e26f46; stroke:none; fill-opacity:1" cx="1217.72" cy="1552.7" r="2"></circle>
<circle clip-path="url(#clip732)" style="fill:#e26f46; stroke:none; fill-opacity:1" cx="1685.91" cy="1552.7" r="2"></circle>
<circle clip-path="url(#clip732)" style="fill:#e26f46; stroke:none; fill-opacity:1" cx="2154.09" cy="1552.7" r="2"></circle>
<circle clip-path="url(#clip732)" style="fill:#e26f46; stroke:none; fill-opacity:1" cx="2622.28" cy="1552.7" r="2"></circle>
<circle clip-path="url(#clip732)" style="fill:#e26f46; stroke:none; fill-opacity:1" cx="3090.47" cy="1552.7" r="2"></circle>
<circle clip-path="url(#clip732)" style="fill:#e26f46; stroke:none; fill-opacity:1" cx="3558.66" cy="1552.7" r="2"></circle>
<path clip-path="url(#clip730)" d="M135.081 1519.54 L135.081 1602.5 L128.194 1602.5 L128.194 1519.54 L135.081 1519.54 Z" fill="#000000" fill-rule="nonzero" fill-opacity="1"></path><path clip-path="url(#clip730)" d="M155.902 1576.05 L169.27 1576.05 L169.27 1529.91 L154.728 1532.83 L154.728 1525.37 L169.189 1522.46 L177.372 1522.46 L177.372 1576.05 L190.74 1576.05 L190.74 1582.94 L155.902 1582.94 L155.902 1576.05 Z" fill="#000000" fill-rule="nonzero" fill-opacity="1"></path><path clip-path="url(#clip730)" d="M224.768 1527.85 Q218.448 1527.85 215.248 1534.08 Q212.088 1540.28 212.088 1552.76 Q212.088 1565.2 215.248 1571.43 Q218.448 1577.63 224.768 1577.63 Q231.128 1577.63 234.287 1571.43 Q237.488 1565.2 237.488 1552.76 Q237.488 1540.28 234.287 1534.08 Q231.128 1527.85 224.768 1527.85 M224.768 1521.36 Q234.935 1521.36 240.283 1529.43 Q245.67 1537.45 245.67 1552.76 Q245.67 1568.03 240.283 1576.09 Q234.935 1584.11 224.768 1584.11 Q214.6 1584.11 209.212 1576.09 Q203.865 1568.03 203.865 1552.76 Q203.865 1537.45 209.212 1529.43 Q214.6 1521.36 224.768 1521.36 Z" fill="#000000" fill-rule="nonzero" fill-opacity="1"></path><path clip-path="url(#clip730)" d="M277.551 1527.85 Q271.232 1527.85 268.031 1534.08 Q264.872 1540.28 264.872 1552.76 Q264.872 1565.2 268.031 1571.43 Q271.232 1577.63 277.551 1577.63 Q283.911 1577.63 287.071 1571.43 Q290.271 1565.2 290.271 1552.76 Q290.271 1540.28 287.071 1534.08 Q283.911 1527.85 277.551 1527.85 M277.551 1521.36 Q287.719 1521.36 293.066 1529.43 Q298.454 1537.45 298.454 1552.76 Q298.454 1568.03 293.066 1576.09 Q287.719 1584.11 277.551 1584.11 Q267.383 1584.11 261.996 1576.09 Q256.648 1568.03 256.648 1552.76 Q256.648 1537.45 261.996 1529.43 Q267.383 1521.36 277.551 1521.36 Z" fill="#000000" fill-rule="nonzero" fill-opacity="1"></path><path clip-path="url(#clip730)" d="M314.252 1576.05 L327.62 1576.05 L327.62 1529.91 L313.077 1532.83 L313.077 1525.37 L327.539 1522.46 L335.722 1522.46 L335.722 1576.05 L349.09 1576.05 L349.09 1582.94 L314.252 1582.94 L314.252 1576.05 Z" fill="#000000" fill-rule="nonzero" fill-opacity="1"></path><path clip-path="url(#clip730)" d="M383.118 1527.85 Q376.798 1527.85 373.598 1534.08 Q370.438 1540.28 370.438 1552.76 Q370.438 1565.2 373.598 1571.43 Q376.798 1577.63 383.118 1577.63 Q389.477 1577.63 392.637 1571.43 Q395.837 1565.2 395.837 1552.76 Q395.837 1540.28 392.637 1534.08 Q389.477 1527.85 383.118 1527.85 M383.118 1521.36 Q393.285 1521.36 398.633 1529.43 Q404.02 1537.45 404.02 1552.76 Q404.02 1568.03 398.633 1576.09 Q393.285 1584.11 383.118 1584.11 Q372.95 1584.11 367.562 1576.09 Q362.215 1568.03 362.215 1552.76 Q362.215 1537.45 367.562 1529.43 Q372.95 1521.36 383.118 1521.36 Z" fill="#000000" fill-rule="nonzero" fill-opacity="1"></path><path clip-path="url(#clip730)" d="M434.483 1556.93 L423.059 1593.88 L416.173 1593.88 L427.596 1556.93 L416.173 1519.99 L423.059 1519.99 L434.483 1556.93 Z" fill="#000000" fill-rule="nonzero" fill-opacity="1"></path><path clip-path="url(#clip730)" d="M603.27 1519.54 L603.27 1602.5 L596.383 1602.5 L596.383 1519.54 L603.27 1519.54 Z" fill="#000000" fill-rule="nonzero" fill-opacity="1"></path><path clip-path="url(#clip730)" d="M640.173 1527.85 Q633.854 1527.85 630.654 1534.08 Q627.494 1540.28 627.494 1552.76 Q627.494 1565.2 630.654 1571.43 Q633.854 1577.63 640.173 1577.63 Q646.533 1577.63 649.693 1571.43 Q652.893 1565.2 652.893 1552.76 Q652.893 1540.28 649.693 1534.08 Q646.533 1527.85 640.173 1527.85 M640.173 1521.36 Q650.341 1521.36 655.688 1529.43 Q661.076 1537.45 661.076 1552.76 Q661.076 1568.03 655.688 1576.09 Q650.341 1584.11 640.173 1584.11 Q630.006 1584.11 624.618 1576.09 Q619.271 1568.03 619.271 1552.76 Q619.271 1537.45 624.618 1529.43 Q630.006 1521.36 640.173 1521.36 Z" fill="#000000" fill-rule="nonzero" fill-opacity="1"></path><path clip-path="url(#clip730)" d="M676.875 1576.05 L690.243 1576.05 L690.243 1529.91 L675.7 1532.83 L675.7 1525.37 L690.162 1522.46 L698.344 1522.46 L698.344 1576.05 L711.712 1576.05 L711.712 1582.94 L676.875 1582.94 L676.875 1576.05 Z" fill="#000000" fill-rule="nonzero" fill-opacity="1"></path><path clip-path="url(#clip730)" d="M745.74 1527.85 Q739.421 1527.85 736.22 1534.08 Q733.061 1540.28 733.061 1552.76 Q733.061 1565.2 736.22 1571.43 Q739.421 1577.63 745.74 1577.63 Q752.1 1577.63 755.26 1571.43 Q758.46 1565.2 758.46 1552.76 Q758.46 1540.28 755.26 1534.08 Q752.1 1527.85 745.74 1527.85 M745.74 1521.36 Q755.908 1521.36 761.255 1529.43 Q766.643 1537.45 766.643 1552.76 Q766.643 1568.03 761.255 1576.09 Q755.908 1584.11 745.74 1584.11 Q735.572 1584.11 730.184 1576.09 Q724.837 1568.03 724.837 1552.76 Q724.837 1537.45 730.184 1529.43 Q735.572 1521.36 745.74 1521.36 Z" fill="#000000" fill-rule="nonzero" fill-opacity="1"></path><path clip-path="url(#clip730)" d="M782.441 1576.05 L795.809 1576.05 L795.809 1529.91 L781.266 1532.83 L781.266 1525.37 L795.728 1522.46 L803.911 1522.46 L803.911 1576.05 L817.279 1576.05 L817.279 1582.94 L782.441 1582.94 L782.441 1576.05 Z" fill="#000000" fill-rule="nonzero" fill-opacity="1"></path><path clip-path="url(#clip730)" d="M851.307 1527.85 Q844.987 1527.85 841.787 1534.08 Q838.627 1540.28 838.627 1552.76 Q838.627 1565.2 841.787 1571.43 Q844.987 1577.63 851.307 1577.63 Q857.666 1577.63 860.826 1571.43 Q864.026 1565.2 864.026 1552.76 Q864.026 1540.28 860.826 1534.08 Q857.666 1527.85 851.307 1527.85 M851.307 1521.36 Q861.474 1521.36 866.821 1529.43 Q872.209 1537.45 872.209 1552.76 Q872.209 1568.03 866.821 1576.09 Q861.474 1584.11 851.307 1584.11 Q841.139 1584.11 835.751 1576.09 Q830.404 1568.03 830.404 1552.76 Q830.404 1537.45 835.751 1529.43 Q841.139 1521.36 851.307 1521.36 Z" fill="#000000" fill-rule="nonzero" fill-opacity="1"></path><path clip-path="url(#clip730)" d="M902.672 1556.93 L891.248 1593.88 L884.362 1593.88 L895.785 1556.93 L884.362 1519.99 L891.248 1519.99 L902.672 1556.93 Z" fill="#000000" fill-rule="nonzero" fill-opacity="1"></path><path clip-path="url(#clip730)" d="M1071.46 1519.54 L1071.46 1602.5 L1064.57 1602.5 L1064.57 1519.54 L1071.46 1519.54 Z" fill="#000000" fill-rule="nonzero" fill-opacity="1"></path><path clip-path="url(#clip730)" d="M1108.36 1527.85 Q1102.04 1527.85 1098.84 1534.08 Q1095.68 1540.28 1095.68 1552.76 Q1095.68 1565.2 1098.84 1571.43 Q1102.04 1577.63 1108.36 1577.63 Q1114.72 1577.63 1117.88 1571.43 Q1121.08 1565.2 1121.08 1552.76 Q1121.08 1540.28 1117.88 1534.08 Q1114.72 1527.85 1108.36 1527.85 M1108.36 1521.36 Q1118.53 1521.36 1123.88 1529.43 Q1129.27 1537.45 1129.27 1552.76 Q1129.27 1568.03 1123.88 1576.09 Q1118.53 1584.11 1108.36 1584.11 Q1098.19 1584.11 1092.81 1576.09 Q1087.46 1568.03 1087.46 1552.76 Q1087.46 1537.45 1092.81 1529.43 Q1098.19 1521.36 1108.36 1521.36 Z" fill="#000000" fill-rule="nonzero" fill-opacity="1"></path><path clip-path="url(#clip730)" d="M1161.15 1527.85 Q1154.83 1527.85 1151.63 1534.08 Q1148.47 1540.28 1148.47 1552.76 Q1148.47 1565.2 1151.63 1571.43 Q1154.83 1577.63 1161.15 1577.63 Q1167.51 1577.63 1170.67 1571.43 Q1173.87 1565.2 1173.87 1552.76 Q1173.87 1540.28 1170.67 1534.08 Q1167.51 1527.85 1161.15 1527.85 M1161.15 1521.36 Q1171.31 1521.36 1176.66 1529.43 Q1182.05 1537.45 1182.05 1552.76 Q1182.05 1568.03 1176.66 1576.09 Q1171.31 1584.11 1161.15 1584.11 Q1150.98 1584.11 1145.59 1576.09 Q1140.24 1568.03 1140.24 1552.76 Q1140.24 1537.45 1145.59 1529.43 Q1150.98 1521.36 1161.15 1521.36 Z" fill="#000000" fill-rule="nonzero" fill-opacity="1"></path><path clip-path="url(#clip730)" d="M1213.93 1527.85 Q1207.61 1527.85 1204.41 1534.08 Q1201.25 1540.28 1201.25 1552.76 Q1201.25 1565.2 1204.41 1571.43 Q1207.61 1577.63 1213.93 1577.63 Q1220.29 1577.63 1223.45 1571.43 Q1226.65 1565.2 1226.65 1552.76 Q1226.65 1540.28 1223.45 1534.08 Q1220.29 1527.85 1213.93 1527.85 M1213.93 1521.36 Q1224.1 1521.36 1229.44 1529.43 Q1234.83 1537.45 1234.83 1552.76 Q1234.83 1568.03 1229.44 1576.09 Q1224.1 1584.11 1213.93 1584.11 Q1203.76 1584.11 1198.37 1576.09 Q1193.03 1568.03 1193.03 1552.76 Q1193.03 1537.45 1198.37 1529.43 Q1203.76 1521.36 1213.93 1521.36 Z" fill="#000000" fill-rule="nonzero" fill-opacity="1"></path><path clip-path="url(#clip730)" d="M1250.63 1576.05 L1264 1576.05 L1264 1529.91 L1249.46 1532.83 L1249.46 1525.37 L1263.92 1522.46 L1272.1 1522.46 L1272.1 1576.05 L1285.47 1576.05 L1285.47 1582.94 L1250.63 1582.94 L1250.63 1576.05 Z" fill="#000000" fill-rule="nonzero" fill-opacity="1"></path><path clip-path="url(#clip730)" d="M1319.5 1527.85 Q1313.18 1527.85 1309.98 1534.08 Q1306.82 1540.28 1306.82 1552.76 Q1306.82 1565.2 1309.98 1571.43 Q1313.18 1577.63 1319.5 1577.63 Q1325.86 1577.63 1329.02 1571.43 Q1332.22 1565.2 1332.22 1552.76 Q1332.22 1540.28 1329.02 1534.08 Q1325.86 1527.85 1319.5 1527.85 M1319.5 1521.36 Q1329.66 1521.36 1335.01 1529.43 Q1340.4 1537.45 1340.4 1552.76 Q1340.4 1568.03 1335.01 1576.09 Q1329.66 1584.11 1319.5 1584.11 Q1309.33 1584.11 1303.94 1576.09 Q1298.59 1568.03 1298.59 1552.76 Q1298.59 1537.45 1303.94 1529.43 Q1309.33 1521.36 1319.5 1521.36 Z" fill="#000000" fill-rule="nonzero" fill-opacity="1"></path><path clip-path="url(#clip730)" d="M1370.86 1556.93 L1359.44 1593.88 L1352.55 1593.88 L1363.97 1556.93 L1352.55 1519.99 L1359.44 1519.99 L1370.86 1556.93 Z" fill="#000000" fill-rule="nonzero" fill-opacity="1"></path><path clip-path="url(#clip730)" d="M1539.65 1519.54 L1539.65 1602.5 L1532.76 1602.5 L1532.76 1519.54 L1539.65 1519.54 Z" fill="#000000" fill-rule="nonzero" fill-opacity="1"></path><path clip-path="url(#clip730)" d="M1560.47 1576.05 L1573.84 1576.05 L1573.84 1529.91 L1559.29 1532.83 L1559.29 1525.37 L1573.76 1522.46 L1581.94 1522.46 L1581.94 1576.05 L1595.31 1576.05 L1595.31 1582.94 L1560.47 1582.94 L1560.47 1576.05 Z" fill="#000000" fill-rule="nonzero" fill-opacity="1"></path><path clip-path="url(#clip730)" d="M1613.25 1576.05 L1626.62 1576.05 L1626.62 1529.91 L1612.08 1532.83 L1612.08 1525.37 L1626.54 1522.46 L1634.72 1522.46 L1634.72 1576.05 L1648.09 1576.05 L1648.09 1582.94 L1613.25 1582.94 L1613.25 1576.05 Z" fill="#000000" fill-rule="nonzero" fill-opacity="1"></path><path clip-path="url(#clip730)" d="M1666.04 1576.05 L1679.4 1576.05 L1679.4 1529.91 L1664.86 1532.83 L1664.86 1525.37 L1679.32 1522.46 L1687.51 1522.46 L1687.51 1576.05 L1700.87 1576.05 L1700.87 1582.94 L1666.04 1582.94 L1666.04 1576.05 Z" fill="#000000" fill-rule="nonzero" fill-opacity="1"></path><path clip-path="url(#clip730)" d="M1734.9 1527.85 Q1728.58 1527.85 1725.38 1534.08 Q1722.22 1540.28 1722.22 1552.76 Q1722.22 1565.2 1725.38 1571.43 Q1728.58 1577.63 1734.9 1577.63 Q1741.26 1577.63 1744.42 1571.43 Q1747.62 1565.2 1747.62 1552.76 Q1747.62 1540.28 1744.42 1534.08 Q1741.26 1527.85 1734.9 1527.85 M1734.9 1521.36 Q1745.07 1521.36 1750.42 1529.43 Q1755.8 1537.45 1755.8 1552.76 Q1755.8 1568.03 1750.42 1576.09 Q1745.07 1584.11 1734.9 1584.11 Q1724.73 1584.11 1719.35 1576.09 Q1714 1568.03 1714 1552.76 Q1714 1537.45 1719.35 1529.43 Q1724.73 1521.36 1734.9 1521.36 Z" fill="#000000" fill-rule="nonzero" fill-opacity="1"></path><path clip-path="url(#clip730)" d="M1771.6 1576.05 L1784.97 1576.05 L1784.97 1529.91 L1770.43 1532.83 L1770.43 1525.37 L1784.89 1522.46 L1793.07 1522.46 L1793.07 1576.05 L1806.44 1576.05 L1806.44 1582.94 L1771.6 1582.94 L1771.6 1576.05 Z" fill="#000000" fill-rule="nonzero" fill-opacity="1"></path><path clip-path="url(#clip730)" d="M1839.05 1556.93 L1827.63 1593.88 L1820.74 1593.88 L1832.16 1556.93 L1820.74 1519.99 L1827.63 1519.99 L1839.05 1556.93 Z" fill="#000000" fill-rule="nonzero" fill-opacity="1"></path><path clip-path="url(#clip730)" d="M2007.84 1519.54 L2007.84 1602.5 L2000.95 1602.5 L2000.95 1519.54 L2007.84 1519.54 Z" fill="#000000" fill-rule="nonzero" fill-opacity="1"></path><path clip-path="url(#clip730)" d="M2044.74 1527.85 Q2038.42 1527.85 2035.22 1534.08 Q2032.06 1540.28 2032.06 1552.76 Q2032.06 1565.2 2035.22 1571.43 Q2038.42 1577.63 2044.74 1577.63 Q2051.1 1577.63 2054.26 1571.43 Q2057.46 1565.2 2057.46 1552.76 Q2057.46 1540.28 2054.26 1534.08 Q2051.1 1527.85 2044.74 1527.85 M2044.74 1521.36 Q2054.91 1521.36 2060.26 1529.43 Q2065.64 1537.45 2065.64 1552.76 Q2065.64 1568.03 2060.26 1576.09 Q2054.91 1584.11 2044.74 1584.11 Q2034.57 1584.11 2029.18 1576.09 Q2023.84 1568.03 2023.84 1552.76 Q2023.84 1537.45 2029.18 1529.43 Q2034.57 1521.36 2044.74 1521.36 Z" fill="#000000" fill-rule="nonzero" fill-opacity="1"></path><path clip-path="url(#clip730)" d="M2097.52 1527.85 Q2091.2 1527.85 2088 1534.08 Q2084.84 1540.28 2084.84 1552.76 Q2084.84 1565.2 2088 1571.43 Q2091.2 1577.63 2097.52 1577.63 Q2103.88 1577.63 2107.04 1571.43 Q2110.24 1565.2 2110.24 1552.76 Q2110.24 1540.28 2107.04 1534.08 Q2103.88 1527.85 2097.52 1527.85 M2097.52 1521.36 Q2107.69 1521.36 2113.04 1529.43 Q2118.43 1537.45 2118.43 1552.76 Q2118.43 1568.03 2113.04 1576.09 Q2107.69 1584.11 2097.52 1584.11 Q2087.36 1584.11 2081.97 1576.09 Q2076.62 1568.03 2076.62 1552.76 Q2076.62 1537.45 2081.97 1529.43 Q2087.36 1521.36 2097.52 1521.36 Z" fill="#000000" fill-rule="nonzero" fill-opacity="1"></path><path clip-path="url(#clip730)" d="M2150.31 1527.85 Q2143.99 1527.85 2140.79 1534.08 Q2137.63 1540.28 2137.63 1552.76 Q2137.63 1565.2 2140.79 1571.43 Q2143.99 1577.63 2150.31 1577.63 Q2156.67 1577.63 2159.83 1571.43 Q2163.03 1565.2 2163.03 1552.76 Q2163.03 1540.28 2159.83 1534.08 Q2156.67 1527.85 2150.31 1527.85 M2150.31 1521.36 Q2160.47 1521.36 2165.82 1529.43 Q2171.21 1537.45 2171.21 1552.76 Q2171.21 1568.03 2165.82 1576.09 Q2160.47 1584.11 2150.31 1584.11 Q2140.14 1584.11 2134.75 1576.09 Q2129.4 1568.03 2129.4 1552.76 Q2129.4 1537.45 2134.75 1529.43 Q2140.14 1521.36 2150.31 1521.36 Z" fill="#000000" fill-rule="nonzero" fill-opacity="1"></path><path clip-path="url(#clip730)" d="M2203.09 1527.85 Q2196.77 1527.85 2193.57 1534.08 Q2190.41 1540.28 2190.41 1552.76 Q2190.41 1565.2 2193.57 1571.43 Q2196.77 1577.63 2203.09 1577.63 Q2209.45 1577.63 2212.61 1571.43 Q2215.81 1565.2 2215.81 1552.76 Q2215.81 1540.28 2212.61 1534.08 Q2209.45 1527.85 2203.09 1527.85 M2203.09 1521.36 Q2213.26 1521.36 2218.61 1529.43 Q2223.99 1537.45 2223.99 1552.76 Q2223.99 1568.03 2218.61 1576.09 Q2213.26 1584.11 2203.09 1584.11 Q2192.92 1584.11 2187.53 1576.09 Q2182.19 1568.03 2182.19 1552.76 Q2182.19 1537.45 2187.53 1529.43 Q2192.92 1521.36 2203.09 1521.36 Z" fill="#000000" fill-rule="nonzero" fill-opacity="1"></path><path clip-path="url(#clip730)" d="M2255.87 1527.85 Q2249.55 1527.85 2246.35 1534.08 Q2243.19 1540.28 2243.19 1552.76 Q2243.19 1565.2 2246.35 1571.43 Q2249.55 1577.63 2255.87 1577.63 Q2262.23 1577.63 2265.39 1571.43 Q2268.59 1565.2 2268.59 1552.76 Q2268.59 1540.28 2265.39 1534.08 Q2262.23 1527.85 2255.87 1527.85 M2255.87 1521.36 Q2266.04 1521.36 2271.39 1529.43 Q2276.78 1537.45 2276.78 1552.76 Q2276.78 1568.03 2271.39 1576.09 Q2266.04 1584.11 2255.87 1584.11 Q2245.71 1584.11 2240.32 1576.09 Q2234.97 1568.03 2234.97 1552.76 Q2234.97 1537.45 2240.32 1529.43 Q2245.71 1521.36 2255.87 1521.36 Z" fill="#000000" fill-rule="nonzero" fill-opacity="1"></path><path clip-path="url(#clip730)" d="M2307.24 1556.93 L2295.82 1593.88 L2288.93 1593.88 L2300.35 1556.93 L2288.93 1519.99 L2295.82 1519.99 L2307.24 1556.93 Z" fill="#000000" fill-rule="nonzero" fill-opacity="1"></path><path clip-path="url(#clip730)" d="M2476.03 1519.54 L2476.03 1602.5 L2469.14 1602.5 L2469.14 1519.54 L2476.03 1519.54 Z" fill="#000000" fill-rule="nonzero" fill-opacity="1"></path><path clip-path="url(#clip730)" d="M2512.93 1527.85 Q2506.61 1527.85 2503.41 1534.08 Q2500.25 1540.28 2500.25 1552.76 Q2500.25 1565.2 2503.41 1571.43 Q2506.61 1577.63 2512.93 1577.63 Q2519.29 1577.63 2522.45 1571.43 Q2525.65 1565.2 2525.65 1552.76 Q2525.65 1540.28 2522.45 1534.08 Q2519.29 1527.85 2512.93 1527.85 M2512.93 1521.36 Q2523.1 1521.36 2528.44 1529.43 Q2533.83 1537.45 2533.83 1552.76 Q2533.83 1568.03 2528.44 1576.09 Q2523.1 1584.11 2512.93 1584.11 Q2502.76 1584.11 2497.37 1576.09 Q2492.03 1568.03 2492.03 1552.76 Q2492.03 1537.45 2497.37 1529.43 Q2502.76 1521.36 2512.93 1521.36 Z" fill="#000000" fill-rule="nonzero" fill-opacity="1"></path><path clip-path="url(#clip730)" d="M2565.71 1527.85 Q2559.39 1527.85 2556.19 1534.08 Q2553.03 1540.28 2553.03 1552.76 Q2553.03 1565.2 2556.19 1571.43 Q2559.39 1577.63 2565.71 1577.63 Q2572.07 1577.63 2575.23 1571.43 Q2578.43 1565.2 2578.43 1552.76 Q2578.43 1540.28 2575.23 1534.08 Q2572.07 1527.85 2565.71 1527.85 M2565.71 1521.36 Q2575.88 1521.36 2581.23 1529.43 Q2586.62 1537.45 2586.62 1552.76 Q2586.62 1568.03 2581.23 1576.09 Q2575.88 1584.11 2565.71 1584.11 Q2555.54 1584.11 2550.16 1576.09 Q2544.81 1568.03 2544.81 1552.76 Q2544.81 1537.45 2550.16 1529.43 Q2555.54 1521.36 2565.71 1521.36 Z" fill="#000000" fill-rule="nonzero" fill-opacity="1"></path><path clip-path="url(#clip730)" d="M2618.5 1527.85 Q2612.18 1527.85 2608.98 1534.08 Q2605.82 1540.28 2605.82 1552.76 Q2605.82 1565.2 2608.98 1571.43 Q2612.18 1577.63 2618.5 1577.63 Q2624.86 1577.63 2628.02 1571.43 Q2631.22 1565.2 2631.22 1552.76 Q2631.22 1540.28 2628.02 1534.08 Q2624.86 1527.85 2618.5 1527.85 M2618.5 1521.36 Q2628.66 1521.36 2634.01 1529.43 Q2639.4 1537.45 2639.4 1552.76 Q2639.4 1568.03 2634.01 1576.09 Q2628.66 1584.11 2618.5 1584.11 Q2608.33 1584.11 2602.94 1576.09 Q2597.59 1568.03 2597.59 1552.76 Q2597.59 1537.45 2602.94 1529.43 Q2608.33 1521.36 2618.5 1521.36 Z" fill="#000000" fill-rule="nonzero" fill-opacity="1"></path><path clip-path="url(#clip730)" d="M2671.28 1527.85 Q2664.96 1527.85 2661.76 1534.08 Q2658.6 1540.28 2658.6 1552.76 Q2658.6 1565.2 2661.76 1571.43 Q2664.96 1577.63 2671.28 1577.63 Q2677.64 1577.63 2680.8 1571.43 Q2684 1565.2 2684 1552.76 Q2684 1540.28 2680.8 1534.08 Q2677.64 1527.85 2671.28 1527.85 M2671.28 1521.36 Q2681.45 1521.36 2686.79 1529.43 Q2692.18 1537.45 2692.18 1552.76 Q2692.18 1568.03 2686.79 1576.09 Q2681.45 1584.11 2671.28 1584.11 Q2661.11 1584.11 2655.72 1576.09 Q2650.38 1568.03 2650.38 1552.76 Q2650.38 1537.45 2655.72 1529.43 Q2661.11 1521.36 2671.28 1521.36 Z" fill="#000000" fill-rule="nonzero" fill-opacity="1"></path><path clip-path="url(#clip730)" d="M2707.98 1576.05 L2721.35 1576.05 L2721.35 1529.91 L2706.81 1532.83 L2706.81 1525.37 L2721.27 1522.46 L2729.45 1522.46 L2729.45 1576.05 L2742.82 1576.05 L2742.82 1582.94 L2707.98 1582.94 L2707.98 1576.05 Z" fill="#000000" fill-rule="nonzero" fill-opacity="1"></path><path clip-path="url(#clip730)" d="M2775.43 1556.93 L2764 1593.88 L2757.12 1593.88 L2768.54 1556.93 L2757.12 1519.99 L2764 1519.99 L2775.43 1556.93 Z" fill="#000000" fill-rule="nonzero" fill-opacity="1"></path><path clip-path="url(#clip730)" d="M2944.21 1519.54 L2944.21 1602.5 L2937.33 1602.5 L2937.33 1519.54 L2944.21 1519.54 Z" fill="#000000" fill-rule="nonzero" fill-opacity="1"></path><path clip-path="url(#clip730)" d="M2981.12 1527.85 Q2974.8 1527.85 2971.6 1534.08 Q2968.44 1540.28 2968.44 1552.76 Q2968.44 1565.2 2971.6 1571.43 Q2974.8 1577.63 2981.12 1577.63 Q2987.48 1577.63 2990.64 1571.43 Q2993.84 1565.2 2993.84 1552.76 Q2993.84 1540.28 2990.64 1534.08 Q2987.48 1527.85 2981.12 1527.85 M2981.12 1521.36 Q2991.29 1521.36 2996.63 1529.43 Q3002.02 1537.45 3002.02 1552.76 Q3002.02 1568.03 2996.63 1576.09 Q2991.29 1584.11 2981.12 1584.11 Q2970.95 1584.11 2965.56 1576.09 Q2960.22 1568.03 2960.22 1552.76 Q2960.22 1537.45 2965.56 1529.43 Q2970.95 1521.36 2981.12 1521.36 Z" fill="#000000" fill-rule="nonzero" fill-opacity="1"></path><path clip-path="url(#clip730)" d="M3033.9 1527.85 Q3027.58 1527.85 3024.38 1534.08 Q3021.22 1540.28 3021.22 1552.76 Q3021.22 1565.2 3024.38 1571.43 Q3027.58 1577.63 3033.9 1577.63 Q3040.26 1577.63 3043.42 1571.43 Q3046.62 1565.2 3046.62 1552.76 Q3046.62 1540.28 3043.42 1534.08 Q3040.26 1527.85 3033.9 1527.85 M3033.9 1521.36 Q3044.07 1521.36 3049.42 1529.43 Q3054.8 1537.45 3054.8 1552.76 Q3054.8 1568.03 3049.42 1576.09 Q3044.07 1584.11 3033.9 1584.11 Q3023.73 1584.11 3018.35 1576.09 Q3013 1568.03 3013 1552.76 Q3013 1537.45 3018.35 1529.43 Q3023.73 1521.36 3033.9 1521.36 Z" fill="#000000" fill-rule="nonzero" fill-opacity="1"></path><path clip-path="url(#clip730)" d="M3086.68 1527.85 Q3080.37 1527.85 3077.17 1534.08 Q3074.01 1540.28 3074.01 1552.76 Q3074.01 1565.2 3077.17 1571.43 Q3080.37 1577.63 3086.68 1577.63 Q3093.04 1577.63 3096.2 1571.43 Q3099.4 1565.2 3099.4 1552.76 Q3099.4 1540.28 3096.2 1534.08 Q3093.04 1527.85 3086.68 1527.85 M3086.68 1521.36 Q3096.85 1521.36 3102.2 1529.43 Q3107.59 1537.45 3107.59 1552.76 Q3107.59 1568.03 3102.2 1576.09 Q3096.85 1584.11 3086.68 1584.11 Q3076.52 1584.11 3071.13 1576.09 Q3065.78 1568.03 3065.78 1552.76 Q3065.78 1537.45 3071.13 1529.43 Q3076.52 1521.36 3086.68 1521.36 Z" fill="#000000" fill-rule="nonzero" fill-opacity="1"></path><path clip-path="url(#clip730)" d="M3123.39 1576.05 L3136.75 1576.05 L3136.75 1529.91 L3122.21 1532.83 L3122.21 1525.37 L3136.67 1522.46 L3144.86 1522.46 L3144.86 1576.05 L3158.22 1576.05 L3158.22 1582.94 L3123.39 1582.94 L3123.39 1576.05 Z" fill="#000000" fill-rule="nonzero" fill-opacity="1"></path><path clip-path="url(#clip730)" d="M3176.17 1576.05 L3189.54 1576.05 L3189.54 1529.91 L3174.99 1532.83 L3174.99 1525.37 L3189.46 1522.46 L3197.64 1522.46 L3197.64 1576.05 L3211.01 1576.05 L3211.01 1582.94 L3176.17 1582.94 L3176.17 1576.05 Z" fill="#000000" fill-rule="nonzero" fill-opacity="1"></path><path clip-path="url(#clip730)" d="M3243.62 1556.93 L3232.19 1593.88 L3225.31 1593.88 L3236.73 1556.93 L3225.31 1519.99 L3232.19 1519.99 L3243.62 1556.93 Z" fill="#000000" fill-rule="nonzero" fill-opacity="1"></path><path clip-path="url(#clip730)" d="M3412.4 1519.54 L3412.4 1602.5 L3405.52 1602.5 L3405.52 1519.54 L3412.4 1519.54 Z" fill="#000000" fill-rule="nonzero" fill-opacity="1"></path><path clip-path="url(#clip730)" d="M3449.31 1527.85 Q3442.99 1527.85 3439.79 1534.08 Q3436.63 1540.28 3436.63 1552.76 Q3436.63 1565.2 3439.79 1571.43 Q3442.99 1577.63 3449.31 1577.63 Q3455.67 1577.63 3458.83 1571.43 Q3462.03 1565.2 3462.03 1552.76 Q3462.03 1540.28 3458.83 1534.08 Q3455.67 1527.85 3449.31 1527.85 M3449.31 1521.36 Q3459.48 1521.36 3464.82 1529.43 Q3470.21 1537.45 3470.21 1552.76 Q3470.21 1568.03 3464.82 1576.09 Q3459.48 1584.11 3449.31 1584.11 Q3439.14 1584.11 3433.75 1576.09 Q3428.4 1568.03 3428.4 1552.76 Q3428.4 1537.45 3433.75 1529.43 Q3439.14 1521.36 3449.31 1521.36 Z" fill="#000000" fill-rule="nonzero" fill-opacity="1"></path><path clip-path="url(#clip730)" d="M3502.09 1527.85 Q3495.77 1527.85 3492.57 1534.08 Q3489.41 1540.28 3489.41 1552.76 Q3489.41 1565.2 3492.57 1571.43 Q3495.77 1577.63 3502.09 1577.63 Q3508.45 1577.63 3511.61 1571.43 Q3514.81 1565.2 3514.81 1552.76 Q3514.81 1540.28 3511.61 1534.08 Q3508.45 1527.85 3502.09 1527.85 M3502.09 1521.36 Q3512.26 1521.36 3517.61 1529.43 Q3522.99 1537.45 3522.99 1552.76 Q3522.99 1568.03 3517.61 1576.09 Q3512.26 1584.11 3502.09 1584.11 Q3491.92 1584.11 3486.54 1576.09 Q3481.19 1568.03 3481.19 1552.76 Q3481.19 1537.45 3486.54 1529.43 Q3491.92 1521.36 3502.09 1521.36 Z" fill="#000000" fill-rule="nonzero" fill-opacity="1"></path><path clip-path="url(#clip730)" d="M3538.79 1576.05 L3552.16 1576.05 L3552.16 1529.91 L3537.62 1532.83 L3537.62 1525.37 L3552.08 1522.46 L3560.26 1522.46 L3560.26 1576.05 L3573.63 1576.05 L3573.63 1582.94 L3538.79 1582.94 L3538.79 1576.05 Z" fill="#000000" fill-rule="nonzero" fill-opacity="1"></path><path clip-path="url(#clip730)" d="M3607.66 1527.85 Q3601.34 1527.85 3598.14 1534.08 Q3594.98 1540.28 3594.98 1552.76 Q3594.98 1565.2 3598.14 1571.43 Q3601.34 1577.63 3607.66 1577.63 Q3614.02 1577.63 3617.18 1571.43 Q3620.38 1565.2 3620.38 1552.76 Q3620.38 1540.28 3617.18 1534.08 Q3614.02 1527.85 3607.66 1527.85 M3607.66 1521.36 Q3617.82 1521.36 3623.17 1529.43 Q3628.56 1537.45 3628.56 1552.76 Q3628.56 1568.03 3623.17 1576.09 Q3617.82 1584.11 3607.66 1584.11 Q3597.49 1584.11 3592.1 1576.09 Q3586.75 1568.03 3586.75 1552.76 Q3586.75 1537.45 3592.1 1529.43 Q3597.49 1521.36 3607.66 1521.36 Z" fill="#000000" fill-rule="nonzero" fill-opacity="1"></path><path clip-path="url(#clip730)" d="M3660.44 1527.85 Q3654.12 1527.85 3650.92 1534.08 Q3647.76 1540.28 3647.76 1552.76 Q3647.76 1565.2 3650.92 1571.43 Q3654.12 1577.63 3660.44 1577.63 Q3666.8 1577.63 3669.96 1571.43 Q3673.16 1565.2 3673.16 1552.76 Q3673.16 1540.28 3669.96 1534.08 Q3666.8 1527.85 3660.44 1527.85 M3660.44 1521.36 Q3670.61 1521.36 3675.96 1529.43 Q3681.34 1537.45 3681.34 1552.76 Q3681.34 1568.03 3675.96 1576.09 Q3670.61 1584.11 3660.44 1584.11 Q3650.27 1584.11 3644.88 1576.09 Q3639.54 1568.03 3639.54 1552.76 Q3639.54 1537.45 3644.88 1529.43 Q3650.27 1521.36 3660.44 1521.36 Z" fill="#000000" fill-rule="nonzero" fill-opacity="1"></path><path clip-path="url(#clip730)" d="M3711.81 1556.93 L3700.38 1593.88 L3693.5 1593.88 L3704.92 1556.93 L3693.5 1519.99 L3700.38 1519.99 L3711.81 1556.93 Z" fill="#000000" fill-rule="nonzero" fill-opacity="1"></path><circle clip-path="url(#clip732)" style="fill:#3da44d; stroke:none; fill-opacity:1" cx="281.339" cy="100.792" r="2"></circle>
<circle clip-path="url(#clip732)" style="fill:#3da44d; stroke:none; fill-opacity:1" cx="749.528" cy="100.792" r="2"></circle>
<circle clip-path="url(#clip732)" style="fill:#3da44d; stroke:none; fill-opacity:1" cx="1217.72" cy="100.792" r="2"></circle>
<circle clip-path="url(#clip732)" style="fill:#3da44d; stroke:none; fill-opacity:1" cx="1685.91" cy="100.792" r="2"></circle>
<circle clip-path="url(#clip732)" style="fill:#3da44d; stroke:none; fill-opacity:1" cx="2154.09" cy="100.792" r="2"></circle>
<circle clip-path="url(#clip732)" style="fill:#3da44d; stroke:none; fill-opacity:1" cx="2622.28" cy="100.792" r="2"></circle>
<circle clip-path="url(#clip732)" style="fill:#3da44d; stroke:none; fill-opacity:1" cx="3090.47" cy="100.792" r="2"></circle>
<circle clip-path="url(#clip732)" style="fill:#3da44d; stroke:none; fill-opacity:1" cx="3558.66" cy="100.792" r="2"></circle>
<path clip-path="url(#clip730)" d="M166.09 124.146 L194.649 124.146 L194.649 131.032 L156.247 131.032 L156.247 124.146 Q160.905 119.325 168.926 111.223 Q176.987 103.081 179.053 100.731 Q182.983 96.3159 184.522 93.2777 Q186.102 90.199 186.102 87.2419 Q186.102 82.4213 182.699 79.3831 Q179.337 76.3449 173.909 76.3449 Q170.06 76.3449 165.766 77.6817 Q161.513 79.0185 156.652 81.7326 L156.652 73.4688 Q161.594 71.4838 165.888 70.4711 Q170.182 69.4584 173.747 69.4584 Q183.145 69.4584 188.735 74.1574 Q194.325 78.8565 194.325 86.7152 Q194.325 90.4421 192.907 93.8043 Q191.53 97.1261 187.844 101.663 Q186.831 102.838 181.403 108.469 Q175.975 114.059 166.09 124.146 Z" fill="#000000" fill-rule="nonzero" fill-opacity="1"></path><path clip-path="url(#clip730)" d="M211.906 70.5521 L244.03 70.5521 L244.03 77.4387 L219.4 77.4387 L219.4 92.265 Q221.183 91.6573 222.965 91.3738 Q224.747 91.0497 226.53 91.0497 Q236.657 91.0497 242.571 96.5994 Q248.486 102.149 248.486 111.628 Q248.486 121.391 242.409 126.819 Q236.333 132.207 225.274 132.207 Q221.466 132.207 217.496 131.559 Q213.567 130.911 209.354 129.614 L209.354 121.391 Q213 123.376 216.889 124.348 Q220.778 125.32 225.112 125.32 Q232.12 125.32 236.212 121.634 Q240.303 117.948 240.303 111.628 Q240.303 105.309 236.212 101.623 Q232.12 97.9362 225.112 97.9362 Q221.831 97.9362 218.55 98.6654 Q215.309 99.3946 211.906 100.934 L211.906 70.5521 Z" fill="#000000" fill-rule="nonzero" fill-opacity="1"></path><path clip-path="url(#clip730)" d="M266.026 124.146 L279.394 124.146 L279.394 78.0058 L264.851 80.9224 L264.851 73.4688 L279.313 70.5521 L287.496 70.5521 L287.496 124.146 L300.864 124.146 L300.864 131.032 L266.026 131.032 L266.026 124.146 Z" fill="#000000" fill-rule="nonzero" fill-opacity="1"></path><path clip-path="url(#clip730)" d="M342.183 98.4223 Q348.057 99.6781 351.338 103.648 Q354.66 107.618 354.66 113.451 Q354.66 122.404 348.503 127.305 Q342.345 132.207 331.003 132.207 Q327.195 132.207 323.144 131.437 Q319.134 130.708 314.84 129.209 L314.84 121.31 Q318.242 123.295 322.293 124.308 Q326.344 125.32 330.76 125.32 Q338.456 125.32 342.467 122.282 Q346.518 119.244 346.518 113.451 Q346.518 108.104 342.75 105.106 Q339.023 102.068 332.339 102.068 L325.291 102.068 L325.291 95.3437 L332.664 95.3437 Q338.699 95.3437 341.9 92.9536 Q345.1 90.5231 345.1 85.9861 Q345.1 81.3275 341.778 78.8565 Q338.497 76.3449 332.339 76.3449 Q328.977 76.3449 325.129 77.0741 Q321.28 77.8032 316.662 79.3426 L316.662 72.051 Q321.321 70.7547 325.372 70.1065 Q329.463 69.4584 333.069 69.4584 Q342.386 69.4584 347.814 73.7118 Q353.242 77.9248 353.242 85.1354 Q353.242 90.1585 350.366 93.6423 Q347.49 97.0855 342.183 98.4223 Z" fill="#000000" fill-rule="nonzero" fill-opacity="1"></path><path clip-path="url(#clip730)" d="M371.593 124.146 L384.961 124.146 L384.961 78.0058 L370.418 80.9224 L370.418 73.4688 L384.88 70.5521 L393.063 70.5521 L393.063 124.146 L406.431 124.146 L406.431 131.032 L371.593 131.032 L371.593 124.146 Z" fill="#000000" fill-rule="nonzero" fill-opacity="1"></path><path clip-path="url(#clip730)" d="M634.603 124.146 L663.162 124.146 L663.162 131.032 L624.76 131.032 L624.76 124.146 Q629.418 119.325 637.439 111.223 Q645.5 103.081 647.566 100.731 Q651.496 96.3159 653.035 93.2777 Q654.615 90.199 654.615 87.2419 Q654.615 82.4213 651.212 79.3831 Q647.85 76.3449 642.422 76.3449 Q638.573 76.3449 634.279 77.6817 Q630.026 79.0185 625.165 81.7326 L625.165 73.4688 Q630.107 71.4838 634.401 70.4711 Q638.695 69.4584 642.26 69.4584 Q651.658 69.4584 657.248 74.1574 Q662.838 78.8565 662.838 86.7152 Q662.838 90.4421 661.42 93.8043 Q660.043 97.1261 656.357 101.663 Q655.344 102.838 649.916 108.469 Q644.488 114.059 634.603 124.146 Z" fill="#000000" fill-rule="nonzero" fill-opacity="1"></path><path clip-path="url(#clip730)" d="M680.419 70.5521 L712.543 70.5521 L712.543 77.4387 L687.913 77.4387 L687.913 92.265 Q689.696 91.6573 691.478 91.3738 Q693.26 91.0497 695.043 91.0497 Q705.17 91.0497 711.084 96.5994 Q716.999 102.149 716.999 111.628 Q716.999 121.391 710.922 126.819 Q704.846 132.207 693.787 132.207 Q689.979 132.207 686.009 131.559 Q682.08 130.911 677.867 129.614 L677.867 121.391 Q681.513 123.376 685.402 124.348 Q689.291 125.32 693.625 125.32 Q700.633 125.32 704.725 121.634 Q708.816 117.948 708.816 111.628 Q708.816 105.309 704.725 101.623 Q700.633 97.9362 693.625 97.9362 Q690.344 97.9362 687.063 98.6654 Q683.822 99.3946 680.419 100.934 L680.419 70.5521 Z" fill="#000000" fill-rule="nonzero" fill-opacity="1"></path><path clip-path="url(#clip730)" d="M734.539 124.146 L747.907 124.146 L747.907 78.0058 L733.364 80.9224 L733.364 73.4688 L747.826 70.5521 L756.009 70.5521 L756.009 124.146 L769.377 124.146 L769.377 131.032 L734.539 131.032 L734.539 124.146 Z" fill="#000000" fill-rule="nonzero" fill-opacity="1"></path><path clip-path="url(#clip730)" d="M792.953 124.146 L821.512 124.146 L821.512 131.032 L783.11 131.032 L783.11 124.146 Q787.768 119.325 795.789 111.223 Q803.85 103.081 805.916 100.731 Q809.846 96.3159 811.385 93.2777 Q812.965 90.199 812.965 87.2419 Q812.965 82.4213 809.562 79.3831 Q806.2 76.3449 800.771 76.3449 Q796.923 76.3449 792.629 77.6817 Q788.376 79.0185 783.515 81.7326 L783.515 73.4688 Q788.457 71.4838 792.751 70.4711 Q797.045 69.4584 800.609 69.4584 Q810.008 69.4584 815.598 74.1574 Q821.188 78.8565 821.188 86.7152 Q821.188 90.4421 819.77 93.8043 Q818.393 97.1261 814.707 101.663 Q813.694 102.838 808.266 108.469 Q802.837 114.059 792.953 124.146 Z" fill="#000000" fill-rule="nonzero" fill-opacity="1"></path><path clip-path="url(#clip730)" d="M845.737 124.146 L874.295 124.146 L874.295 131.032 L835.893 131.032 L835.893 124.146 Q840.551 119.325 848.572 111.223 Q856.633 103.081 858.699 100.731 Q862.629 96.3159 864.168 93.2777 Q865.748 90.199 865.748 87.2419 Q865.748 82.4213 862.345 79.3831 Q858.983 76.3449 853.555 76.3449 Q849.706 76.3449 845.412 77.6817 Q841.159 79.0185 836.298 81.7326 L836.298 73.4688 Q841.24 71.4838 845.534 70.4711 Q849.828 69.4584 853.393 69.4584 Q862.791 69.4584 868.381 74.1574 Q873.971 78.8565 873.971 86.7152 Q873.971 90.4421 872.554 93.8043 Q871.176 97.1261 867.49 101.663 Q866.477 102.838 861.049 108.469 Q855.621 114.059 845.737 124.146 Z" fill="#000000" fill-rule="nonzero" fill-opacity="1"></path><path clip-path="url(#clip730)" d="M1102.47 124.146 L1131.03 124.146 L1131.03 131.032 L1092.62 131.032 L1092.62 124.146 Q1097.28 119.325 1105.3 111.223 Q1113.37 103.081 1115.43 100.731 Q1119.36 96.3159 1120.9 93.2777 Q1122.48 90.199 1122.48 87.2419 Q1122.48 82.4213 1119.08 79.3831 Q1115.71 76.3449 1110.29 76.3449 Q1106.44 76.3449 1102.14 77.6817 Q1097.89 79.0185 1093.03 81.7326 L1093.03 73.4688 Q1097.97 71.4838 1102.27 70.4711 Q1106.56 69.4584 1110.12 69.4584 Q1119.52 69.4584 1125.11 74.1574 Q1130.7 78.8565 1130.7 86.7152 Q1130.7 90.4421 1129.29 93.8043 Q1127.91 97.1261 1124.22 101.663 Q1123.21 102.838 1117.78 108.469 Q1112.35 114.059 1102.47 124.146 Z" fill="#000000" fill-rule="nonzero" fill-opacity="1"></path><path clip-path="url(#clip730)" d="M1170.69 77.6817 L1150.03 109.967 L1170.69 109.967 L1170.69 77.6817 M1168.54 70.5521 L1178.83 70.5521 L1178.83 109.967 L1187.46 109.967 L1187.46 116.773 L1178.83 116.773 L1178.83 131.032 L1170.69 131.032 L1170.69 116.773 L1143.38 116.773 L1143.38 108.874 L1168.54 70.5521 Z" fill="#000000" fill-rule="nonzero" fill-opacity="1"></path><path clip-path="url(#clip730)" d="M1201.23 129.776 L1201.23 122.323 Q1204.31 123.781 1207.47 124.551 Q1210.63 125.32 1213.67 125.32 Q1221.77 125.32 1226.02 119.892 Q1230.31 114.423 1230.92 103.324 Q1228.57 106.808 1224.97 108.671 Q1221.36 110.535 1216.99 110.535 Q1207.91 110.535 1202.61 105.066 Q1197.34 99.5566 1197.34 90.037 Q1197.34 80.7199 1202.85 75.0891 Q1208.36 69.4584 1217.51 69.4584 Q1228.01 69.4584 1233.52 77.5197 Q1239.06 85.5405 1239.06 100.853 Q1239.06 115.153 1232.26 123.7 Q1225.49 132.207 1214.03 132.207 Q1210.95 132.207 1207.79 131.599 Q1204.63 130.992 1201.23 129.776 M1217.51 104.134 Q1223.02 104.134 1226.22 100.367 Q1229.46 96.5994 1229.46 90.037 Q1229.46 83.515 1226.22 79.7477 Q1223.02 75.9398 1217.51 75.9398 Q1212 75.9398 1208.76 79.7477 Q1205.56 83.515 1205.56 90.037 Q1205.56 96.5994 1208.76 100.367 Q1212 104.134 1217.51 104.134 Z" fill="#000000" fill-rule="nonzero" fill-opacity="1"></path><path clip-path="url(#clip730)" d="M1254.01 129.776 L1254.01 122.323 Q1257.09 123.781 1260.25 124.551 Q1263.41 125.32 1266.45 125.32 Q1274.55 125.32 1278.8 119.892 Q1283.1 114.423 1283.71 103.324 Q1281.36 106.808 1277.75 108.671 Q1274.15 110.535 1269.77 110.535 Q1260.7 110.535 1255.39 105.066 Q1250.12 99.5566 1250.12 90.037 Q1250.12 80.7199 1255.63 75.0891 Q1261.14 69.4584 1270.3 69.4584 Q1280.79 69.4584 1286.3 77.5197 Q1291.85 85.5405 1291.85 100.853 Q1291.85 115.153 1285.04 123.7 Q1278.28 132.207 1266.81 132.207 Q1263.73 132.207 1260.58 131.599 Q1257.42 130.992 1254.01 129.776 M1270.3 104.134 Q1275.81 104.134 1279.01 100.367 Q1282.25 96.5994 1282.25 90.037 Q1282.25 83.515 1279.01 79.7477 Q1275.81 75.9398 1270.3 75.9398 Q1264.79 75.9398 1261.55 79.7477 Q1258.35 83.515 1258.35 90.037 Q1258.35 96.5994 1261.55 100.367 Q1264.79 104.134 1270.3 104.134 Z" fill="#000000" fill-rule="nonzero" fill-opacity="1"></path><path clip-path="url(#clip730)" d="M1307.97 124.146 L1321.34 124.146 L1321.34 78.0058 L1306.8 80.9224 L1306.8 73.4688 L1321.26 70.5521 L1329.44 70.5521 L1329.44 124.146 L1342.81 124.146 L1342.81 131.032 L1307.97 131.032 L1307.97 124.146 Z" fill="#000000" fill-rule="nonzero" fill-opacity="1"></path><path clip-path="url(#clip730)" d="M1569.44 124.146 L1598 124.146 L1598 131.032 L1559.6 131.032 L1559.6 124.146 Q1564.26 119.325 1572.28 111.223 Q1580.34 103.081 1582.4 100.731 Q1586.33 96.3159 1587.87 93.2777 Q1589.45 90.199 1589.45 87.2419 Q1589.45 82.4213 1586.05 79.3831 Q1582.69 76.3449 1577.26 76.3449 Q1573.41 76.3449 1569.12 77.6817 Q1564.86 79.0185 1560 81.7326 L1560 73.4688 Q1564.95 71.4838 1569.24 70.4711 Q1573.53 69.4584 1577.1 69.4584 Q1586.5 69.4584 1592.09 74.1574 Q1597.68 78.8565 1597.68 86.7152 Q1597.68 90.4421 1596.26 93.8043 Q1594.88 97.1261 1591.2 101.663 Q1590.18 102.838 1584.75 108.469 Q1579.33 114.059 1569.44 124.146 Z" fill="#000000" fill-rule="nonzero" fill-opacity="1"></path><path clip-path="url(#clip730)" d="M1637.66 77.6817 L1617 109.967 L1637.66 109.967 L1637.66 77.6817 M1635.51 70.5521 L1645.8 70.5521 L1645.8 109.967 L1654.43 109.967 L1654.43 116.773 L1645.8 116.773 L1645.8 131.032 L1637.66 131.032 L1637.66 116.773 L1610.36 116.773 L1610.36 108.874 L1635.51 70.5521 Z" fill="#000000" fill-rule="nonzero" fill-opacity="1"></path><path clip-path="url(#clip730)" d="M1665.89 70.5521 L1704.78 70.5521 L1704.78 74.0359 L1682.83 131.032 L1674.28 131.032 L1694.94 77.4387 L1665.89 77.4387 L1665.89 70.5521 Z" fill="#000000" fill-rule="nonzero" fill-opacity="1"></path><path clip-path="url(#clip730)" d="M1720.82 70.5521 L1752.95 70.5521 L1752.95 77.4387 L1728.32 77.4387 L1728.32 92.265 Q1730.1 91.6573 1731.88 91.3738 Q1733.67 91.0497 1735.45 91.0497 Q1745.58 91.0497 1751.49 96.5994 Q1757.4 102.149 1757.4 111.628 Q1757.4 121.391 1751.33 126.819 Q1745.25 132.207 1734.19 132.207 Q1730.38 132.207 1726.41 131.559 Q1722.49 130.911 1718.27 129.614 L1718.27 121.391 Q1721.92 123.376 1725.81 124.348 Q1729.7 125.32 1734.03 125.32 Q1741.04 125.32 1745.13 121.634 Q1749.22 117.948 1749.22 111.628 Q1749.22 105.309 1745.13 101.623 Q1741.04 97.9362 1734.03 97.9362 Q1730.75 97.9362 1727.47 98.6654 Q1724.23 99.3946 1720.82 100.934 L1720.82 70.5521 Z" fill="#000000" fill-rule="nonzero" fill-opacity="1"></path><path clip-path="url(#clip730)" d="M1792.04 97.5311 Q1786.53 97.5311 1783.29 101.298 Q1780.09 105.066 1780.09 111.628 Q1780.09 118.15 1783.29 121.958 Q1786.53 125.725 1792.04 125.725 Q1797.55 125.725 1800.75 121.958 Q1803.99 118.15 1803.99 111.628 Q1803.99 105.066 1800.75 101.298 Q1797.55 97.5311 1792.04 97.5311 M1808.28 71.8889 L1808.28 79.3426 Q1805.2 77.8843 1802.04 77.1146 Q1798.93 76.3449 1795.85 76.3449 Q1787.75 76.3449 1783.45 81.8136 Q1779.2 87.2824 1778.59 98.3413 Q1780.98 94.817 1784.59 92.9536 Q1788.19 91.0497 1792.53 91.0497 Q1801.64 91.0497 1806.91 96.5994 Q1812.21 102.109 1812.21 111.628 Q1812.21 120.945 1806.7 126.576 Q1801.19 132.207 1792.04 132.207 Q1781.55 132.207 1776 124.186 Q1770.45 116.125 1770.45 100.853 Q1770.45 86.5127 1777.25 78.0058 Q1784.06 69.4584 1795.52 69.4584 Q1798.6 69.4584 1801.72 70.066 Q1804.88 70.6737 1808.28 71.8889 Z" fill="#000000" fill-rule="nonzero" fill-opacity="1"></path><path clip-path="url(#clip730)" d="M2154.09 75.9398 Q2147.78 75.9398 2144.57 82.1782 Q2141.42 88.3761 2141.42 100.853 Q2141.42 113.289 2144.57 119.528 Q2147.78 125.725 2154.09 125.725 Q2160.45 125.725 2163.61 119.528 Q2166.81 113.289 2166.81 100.853 Q2166.81 88.3761 2163.61 82.1782 Q2160.45 75.9398 2154.09 75.9398 M2154.09 69.4584 Q2164.26 69.4584 2169.61 77.5197 Q2175 85.5405 2175 100.853 Q2175 116.125 2169.61 124.186 Q2164.26 132.207 2154.09 132.207 Q2143.93 132.207 2138.54 124.186 Q2133.19 116.125 2133.19 100.853 Q2133.19 85.5405 2138.54 77.5197 Q2143.93 69.4584 2154.09 69.4584 Z" fill="#000000" fill-rule="nonzero" fill-opacity="1"></path><path clip-path="url(#clip730)" d="M2622.28 75.9398 Q2615.96 75.9398 2612.76 82.1782 Q2609.6 88.3761 2609.6 100.853 Q2609.6 113.289 2612.76 119.528 Q2615.96 125.725 2622.28 125.725 Q2628.64 125.725 2631.8 119.528 Q2635 113.289 2635 100.853 Q2635 88.3761 2631.8 82.1782 Q2628.64 75.9398 2622.28 75.9398 M2622.28 69.4584 Q2632.45 69.4584 2637.8 77.5197 Q2643.19 85.5405 2643.19 100.853 Q2643.19 116.125 2637.8 124.186 Q2632.45 132.207 2622.28 132.207 Q2612.12 132.207 2606.73 124.186 Q2601.38 116.125 2601.38 100.853 Q2601.38 85.5405 2606.73 77.5197 Q2612.12 69.4584 2622.28 69.4584 Z" fill="#000000" fill-rule="nonzero" fill-opacity="1"></path><path clip-path="url(#clip730)" d="M3090.47 75.9398 Q3084.15 75.9398 3080.95 82.1782 Q3077.79 88.3761 3077.79 100.853 Q3077.79 113.289 3080.95 119.528 Q3084.15 125.725 3090.47 125.725 Q3096.83 125.725 3099.99 119.528 Q3103.19 113.289 3103.19 100.853 Q3103.19 88.3761 3099.99 82.1782 Q3096.83 75.9398 3090.47 75.9398 M3090.47 69.4584 Q3100.64 69.4584 3105.99 77.5197 Q3111.38 85.5405 3111.38 100.853 Q3111.38 116.125 3105.99 124.186 Q3100.64 132.207 3090.47 132.207 Q3080.3 132.207 3074.92 124.186 Q3069.57 116.125 3069.57 100.853 Q3069.57 85.5405 3074.92 77.5197 Q3080.3 69.4584 3090.47 69.4584 Z" fill="#000000" fill-rule="nonzero" fill-opacity="1"></path><path clip-path="url(#clip730)" d="M3558.66 75.9398 Q3552.34 75.9398 3549.14 82.1782 Q3545.98 88.3761 3545.98 100.853 Q3545.98 113.289 3549.14 119.528 Q3552.34 125.725 3558.66 125.725 Q3565.02 125.725 3568.18 119.528 Q3571.38 113.289 3571.38 100.853 Q3571.38 88.3761 3568.18 82.1782 Q3565.02 75.9398 3558.66 75.9398 M3558.66 69.4584 Q3568.83 69.4584 3574.18 77.5197 Q3579.56 85.5405 3579.56 100.853 Q3579.56 116.125 3574.18 124.186 Q3568.83 132.207 3558.66 132.207 Q3548.49 132.207 3543.11 124.186 Q3537.76 116.125 3537.76 100.853 Q3537.76 85.5405 3543.11 77.5197 Q3548.49 69.4584 3558.66 69.4584 Z" fill="#000000" fill-rule="nonzero" fill-opacity="1"></path><path clip-path="url(#clip730)" d="M2781.04 252.871 L3667.91 252.871 L3667.91 149.191 L2781.04 149.191  Z" fill="#000000" fill-rule="evenodd" fill-opacity="0"></path>
<polyline clip-path="url(#clip730)" style="stroke:#000000; stroke-linecap:round; stroke-linejoin:round; stroke-width:4; stroke-opacity:0; fill:none" points="2781.04,252.871 3667.91,252.871 3667.91,149.191 2781.04,149.191 2781.04,252.871 "></polyline>
<path clip-path="url(#clip730)" d="M2822.66 221.767 L3072.36 221.767 L3072.36 180.295 L2822.66 180.295 L2822.66 221.767  Z" fill="#add8e6" fill-rule="evenodd" fill-opacity="1"></path>
<polyline clip-path="url(#clip730)" style="stroke:#add8e6; stroke-linecap:round; stroke-linejoin:round; stroke-width:4; stroke-opacity:1; fill:none" points="2822.66,221.767 3072.36,221.767 3072.36,180.295 2822.66,180.295 2822.66,221.767 "></polyline>
<path clip-path="url(#clip730)" d="M3113.98 183.751 L3133.84 183.751 L3133.84 187.686 L3118.65 187.686 L3118.65 197.871 L3132.36 197.871 L3132.36 201.806 L3118.65 201.806 L3118.65 218.311 L3113.98 218.311 L3113.98 183.751 Z" fill="#000000" fill-rule="nonzero" fill-opacity="1"></path><path clip-path="url(#clip730)" d="M3149.42 195.371 Q3145.99 195.371 3144 198.056 Q3142.01 200.718 3142.01 205.371 Q3142.01 210.024 3143.98 212.709 Q3145.97 215.371 3149.42 215.371 Q3152.82 215.371 3154.81 212.686 Q3156.8 210.001 3156.8 205.371 Q3156.8 200.765 3154.81 198.08 Q3152.82 195.371 3149.42 195.371 M3149.42 191.76 Q3154.97 191.76 3158.14 195.371 Q3161.31 198.982 3161.31 205.371 Q3161.31 211.737 3158.14 215.371 Q3154.97 218.982 3149.42 218.982 Q3143.84 218.982 3140.67 215.371 Q3137.52 211.737 3137.52 205.371 Q3137.52 198.982 3140.67 195.371 Q3143.84 191.76 3149.42 191.76 Z" fill="#000000" fill-rule="nonzero" fill-opacity="1"></path><path clip-path="url(#clip730)" d="M3167.93 208.079 L3167.93 192.385 L3172.19 192.385 L3172.19 207.917 Q3172.19 211.598 3173.63 213.45 Q3175.06 215.279 3177.93 215.279 Q3181.38 215.279 3183.37 213.079 Q3185.39 210.88 3185.39 207.084 L3185.39 192.385 L3189.65 192.385 L3189.65 218.311 L3185.39 218.311 L3185.39 214.329 Q3183.84 216.691 3181.78 217.848 Q3179.74 218.982 3177.03 218.982 Q3172.56 218.982 3170.25 216.204 Q3167.93 213.427 3167.93 208.079 M3178.65 191.76 L3178.65 191.76 Z" fill="#000000" fill-rule="nonzero" fill-opacity="1"></path><path clip-path="url(#clip730)" d="M3219.97 202.663 L3219.97 218.311 L3215.71 218.311 L3215.71 202.802 Q3215.71 199.121 3214.28 197.293 Q3212.84 195.464 3209.97 195.464 Q3206.52 195.464 3204.53 197.663 Q3202.54 199.862 3202.54 203.658 L3202.54 218.311 L3198.26 218.311 L3198.26 192.385 L3202.54 192.385 L3202.54 196.413 Q3204.07 194.075 3206.13 192.918 Q3208.21 191.76 3210.92 191.76 Q3215.39 191.76 3217.68 194.538 Q3219.97 197.293 3219.97 202.663 Z" fill="#000000" fill-rule="nonzero" fill-opacity="1"></path><path clip-path="url(#clip730)" d="M3245.53 196.32 L3245.53 182.293 L3249.79 182.293 L3249.79 218.311 L3245.53 218.311 L3245.53 214.422 Q3244.18 216.737 3242.12 217.871 Q3240.09 218.982 3237.22 218.982 Q3232.52 218.982 3229.55 215.232 Q3226.61 211.482 3226.61 205.371 Q3226.61 199.26 3229.55 195.51 Q3232.52 191.76 3237.22 191.76 Q3240.09 191.76 3242.12 192.894 Q3244.18 194.005 3245.53 196.32 M3231.01 205.371 Q3231.01 210.07 3232.93 212.755 Q3234.88 215.417 3238.26 215.417 Q3241.64 215.417 3243.58 212.755 Q3245.53 210.07 3245.53 205.371 Q3245.53 200.672 3243.58 198.01 Q3241.64 195.325 3238.26 195.325 Q3234.88 195.325 3232.93 198.01 Q3231.01 200.672 3231.01 205.371 Z" fill="#000000" fill-rule="nonzero" fill-opacity="1"></path><path clip-path="url(#clip730)" d="M3273.63 192.385 L3277.89 192.385 L3277.89 218.311 L3273.63 218.311 L3273.63 192.385 M3273.63 182.293 L3277.89 182.293 L3277.89 187.686 L3273.63 187.686 L3273.63 182.293 Z" fill="#000000" fill-rule="nonzero" fill-opacity="1"></path><path clip-path="url(#clip730)" d="M3308.35 202.663 L3308.35 218.311 L3304.09 218.311 L3304.09 202.802 Q3304.09 199.121 3302.66 197.293 Q3301.22 195.464 3298.35 195.464 Q3294.9 195.464 3292.91 197.663 Q3290.92 199.862 3290.92 203.658 L3290.92 218.311 L3286.64 218.311 L3286.64 192.385 L3290.92 192.385 L3290.92 196.413 Q3292.45 194.075 3294.51 192.918 Q3296.59 191.76 3299.3 191.76 Q3303.77 191.76 3306.06 194.538 Q3308.35 197.293 3308.35 202.663 Z" fill="#000000" fill-rule="nonzero" fill-opacity="1"></path><path clip-path="url(#clip730)" d="M3333.33 214.376 L3340.97 214.376 L3340.97 188.01 L3332.66 189.677 L3332.66 185.418 L3340.92 183.751 L3345.6 183.751 L3345.6 214.376 L3353.23 214.376 L3353.23 218.311 L3333.33 218.311 L3333.33 214.376 Z" fill="#000000" fill-rule="nonzero" fill-opacity="1"></path><path clip-path="url(#clip730)" d="M3372.68 186.83 Q3369.07 186.83 3367.24 190.394 Q3365.43 193.936 3365.43 201.066 Q3365.43 208.172 3367.24 211.737 Q3369.07 215.279 3372.68 215.279 Q3376.31 215.279 3378.12 211.737 Q3379.95 208.172 3379.95 201.066 Q3379.95 193.936 3378.12 190.394 Q3376.31 186.83 3372.68 186.83 M3372.68 183.126 Q3378.49 183.126 3381.54 187.732 Q3384.62 192.316 3384.62 201.066 Q3384.62 209.792 3381.54 214.399 Q3378.49 218.982 3372.68 218.982 Q3366.87 218.982 3363.79 214.399 Q3360.73 209.792 3360.73 201.066 Q3360.73 192.316 3363.79 187.732 Q3366.87 183.126 3372.68 183.126 Z" fill="#000000" fill-rule="nonzero" fill-opacity="1"></path><path clip-path="url(#clip730)" d="M3402.84 186.83 Q3399.23 186.83 3397.4 190.394 Q3395.6 193.936 3395.6 201.066 Q3395.6 208.172 3397.4 211.737 Q3399.23 215.279 3402.84 215.279 Q3406.48 215.279 3408.28 211.737 Q3410.11 208.172 3410.11 201.066 Q3410.11 193.936 3408.28 190.394 Q3406.48 186.83 3402.84 186.83 M3402.84 183.126 Q3408.65 183.126 3411.71 187.732 Q3414.79 192.316 3414.79 201.066 Q3414.79 209.792 3411.71 214.399 Q3408.65 218.982 3402.84 218.982 Q3397.03 218.982 3393.95 214.399 Q3390.9 209.792 3390.9 201.066 Q3390.9 192.316 3393.95 187.732 Q3397.03 183.126 3402.84 183.126 Z" fill="#000000" fill-rule="nonzero" fill-opacity="1"></path><path clip-path="url(#clip730)" d="M3433 186.83 Q3429.39 186.83 3427.56 190.394 Q3425.76 193.936 3425.76 201.066 Q3425.76 208.172 3427.56 211.737 Q3429.39 215.279 3433 215.279 Q3436.64 215.279 3438.44 211.737 Q3440.27 208.172 3440.27 201.066 Q3440.27 193.936 3438.44 190.394 Q3436.64 186.83 3433 186.83 M3433 183.126 Q3438.81 183.126 3441.87 187.732 Q3444.95 192.316 3444.95 201.066 Q3444.95 209.792 3441.87 214.399 Q3438.81 218.982 3433 218.982 Q3427.19 218.982 3424.11 214.399 Q3421.06 209.792 3421.06 201.066 Q3421.06 192.316 3424.11 187.732 Q3427.19 183.126 3433 183.126 Z" fill="#000000" fill-rule="nonzero" fill-opacity="1"></path><path clip-path="url(#clip730)" d="M3463.16 186.83 Q3459.55 186.83 3457.72 190.394 Q3455.92 193.936 3455.92 201.066 Q3455.92 208.172 3457.72 211.737 Q3459.55 215.279 3463.16 215.279 Q3466.8 215.279 3468.6 211.737 Q3470.43 208.172 3470.43 201.066 Q3470.43 193.936 3468.6 190.394 Q3466.8 186.83 3463.16 186.83 M3463.16 183.126 Q3468.97 183.126 3472.03 187.732 Q3475.11 192.316 3475.11 201.066 Q3475.11 209.792 3472.03 214.399 Q3468.97 218.982 3463.16 218.982 Q3457.35 218.982 3454.28 214.399 Q3451.22 209.792 3451.22 201.066 Q3451.22 192.316 3454.28 187.732 Q3457.35 183.126 3463.16 183.126 Z" fill="#000000" fill-rule="nonzero" fill-opacity="1"></path><path clip-path="url(#clip730)" d="M3493.33 186.83 Q3489.72 186.83 3487.89 190.394 Q3486.08 193.936 3486.08 201.066 Q3486.08 208.172 3487.89 211.737 Q3489.72 215.279 3493.33 215.279 Q3496.96 215.279 3498.77 211.737 Q3500.59 208.172 3500.59 201.066 Q3500.59 193.936 3498.77 190.394 Q3496.96 186.83 3493.33 186.83 M3493.33 183.126 Q3499.14 183.126 3502.19 187.732 Q3505.27 192.316 3505.27 201.066 Q3505.27 209.792 3502.19 214.399 Q3499.14 218.982 3493.33 218.982 Q3487.52 218.982 3484.44 214.399 Q3481.38 209.792 3481.38 201.066 Q3481.38 192.316 3484.44 187.732 Q3487.52 183.126 3493.33 183.126 Z" fill="#000000" fill-rule="nonzero" fill-opacity="1"></path><path clip-path="url(#clip730)" d="M3532.17 185.024 L3532.17 192.385 L3540.94 192.385 L3540.94 195.695 L3532.17 195.695 L3532.17 209.769 Q3532.17 212.941 3533.03 213.843 Q3533.9 214.746 3536.57 214.746 L3540.94 214.746 L3540.94 218.311 L3536.57 218.311 Q3531.64 218.311 3529.76 216.482 Q3527.89 214.63 3527.89 209.769 L3527.89 195.695 L3524.76 195.695 L3524.76 192.385 L3527.89 192.385 L3527.89 185.024 L3532.17 185.024 Z" fill="#000000" fill-rule="nonzero" fill-opacity="1"></path><path clip-path="url(#clip730)" d="M3561.57 196.367 Q3560.85 195.95 3559.99 195.765 Q3559.16 195.556 3558.14 195.556 Q3554.53 195.556 3552.59 197.918 Q3550.66 200.255 3550.66 204.654 L3550.66 218.311 L3546.38 218.311 L3546.38 192.385 L3550.66 192.385 L3550.66 196.413 Q3552.01 194.052 3554.16 192.918 Q3556.31 191.76 3559.39 191.76 Q3559.83 191.76 3560.36 191.83 Q3560.9 191.876 3561.54 191.992 L3561.57 196.367 Z" fill="#000000" fill-rule="nonzero" fill-opacity="1"></path><path clip-path="url(#clip730)" d="M3566.03 192.385 L3570.29 192.385 L3570.29 218.311 L3566.03 218.311 L3566.03 192.385 M3566.03 182.293 L3570.29 182.293 L3570.29 187.686 L3566.03 187.686 L3566.03 182.293 Z" fill="#000000" fill-rule="nonzero" fill-opacity="1"></path><path clip-path="url(#clip730)" d="M3601.38 204.283 L3601.38 206.367 L3581.8 206.367 Q3582.08 210.765 3584.44 213.079 Q3586.82 215.371 3591.06 215.371 Q3593.51 215.371 3595.8 214.769 Q3598.12 214.167 3600.39 212.964 L3600.39 216.991 Q3598.09 217.964 3595.69 218.473 Q3593.28 218.982 3590.8 218.982 Q3584.6 218.982 3580.96 215.371 Q3577.35 211.76 3577.35 205.603 Q3577.35 199.237 3580.78 195.51 Q3584.23 191.76 3590.06 191.76 Q3595.29 191.76 3598.33 195.14 Q3601.38 198.496 3601.38 204.283 M3597.12 203.033 Q3597.08 199.538 3595.15 197.455 Q3593.26 195.371 3590.11 195.371 Q3586.54 195.371 3584.39 197.385 Q3582.26 199.399 3581.94 203.056 L3597.12 203.033 Z" fill="#000000" fill-rule="nonzero" fill-opacity="1"></path><path clip-path="url(#clip730)" d="M3624.9 193.149 L3624.9 197.177 Q3623.09 196.251 3621.15 195.788 Q3619.21 195.325 3617.12 195.325 Q3613.95 195.325 3612.35 196.297 Q3610.78 197.269 3610.78 199.214 Q3610.78 200.695 3611.91 201.552 Q3613.05 202.385 3616.47 203.149 L3617.93 203.473 Q3622.47 204.445 3624.37 206.228 Q3626.29 207.987 3626.29 211.158 Q3626.29 214.769 3623.42 216.876 Q3620.57 218.982 3615.57 218.982 Q3613.49 218.982 3611.22 218.566 Q3608.97 218.172 3606.47 217.362 L3606.47 212.964 Q3608.84 214.191 3611.13 214.816 Q3613.42 215.417 3615.66 215.417 Q3618.67 215.417 3620.29 214.399 Q3621.91 213.357 3621.91 211.482 Q3621.91 209.746 3620.73 208.82 Q3619.58 207.894 3615.62 207.038 L3614.14 206.691 Q3610.18 205.857 3608.42 204.144 Q3606.66 202.408 3606.66 199.399 Q3606.66 195.742 3609.25 193.751 Q3611.84 191.76 3616.61 191.76 Q3618.97 191.76 3621.06 192.107 Q3623.14 192.455 3624.9 193.149 Z" fill="#000000" fill-rule="nonzero" fill-opacity="1"></path></svg>