<svg xmlns="http://www.w3.org/2000/svg" xmlns:xlink="http://www.w3.org/1999/xlink" width="960" height="400" viewBox="0 0 3840 1600">
<defs>
  <clipPath id="clip600">
    <rect x="0" y="0" width="3840" height="1600"></rect>
  </clipPath>
</defs>
<path clip-path="url(#clip600)" d="M0 1600 L3840 1600 L3840 0 L0 0  Z" fill="#ffffff" fill-rule="evenodd" fill-opacity="1"></path>
<defs>
  <clipPath id="clip601">
    <rect x="768" y="0" width="2689" height="1600"></rect>
  </clipPath>
</defs>
<path clip-path="url(#clip600)" d="M47.2441 1552.76 L3792.76 1552.76 L3792.76 100.792 L47.2441 100.792  Z" fill="#ffffff" fill-rule="evenodd" fill-opacity="1"></path>
<defs>
  <clipPath id="clip602">
    <rect x="47" y="100" width="3747" height="1453"></rect>
  </clipPath>
</defs>
<path clip-path="url(#clip600)" d="M1712.41 12.096 L1720.59 12.096 L1720.59 36.8875 L1750.33 36.8875 L1750.33 12.096 L1758.51 12.096 L1758.51 72.576 L1750.33 72.576 L1750.33 43.7741 L1720.59 43.7741 L1720.59 72.576 L1712.41 72.576 L1712.41 12.096 Z" fill="#000000" fill-rule="nonzero" fill-opacity="1"></path><path clip-path="url(#clip600)" d="M1774.47 27.2059 L1781.92 27.2059 L1781.92 72.576 L1774.47 72.576 L1774.47 27.2059 M1774.47 9.54393 L1781.92 9.54393 L1781.92 18.9825 L1774.47 18.9825 L1774.47 9.54393 Z" fill="#000000" fill-rule="nonzero" fill-opacity="1"></path><path clip-path="url(#clip600)" d="M1826.44 28.5427 L1826.44 35.5912 Q1823.28 33.9709 1819.88 33.1607 Q1816.48 32.3505 1812.83 32.3505 Q1807.28 32.3505 1804.49 34.0519 Q1801.73 35.7533 1801.73 39.156 Q1801.73 41.7486 1803.72 43.2475 Q1805.7 44.7058 1811.7 46.0426 L1814.25 46.6097 Q1822.19 48.3111 1825.51 51.4303 Q1828.87 54.509 1828.87 60.0587 Q1828.87 66.3781 1823.85 70.0644 Q1818.87 73.7508 1810.12 73.7508 Q1806.47 73.7508 1802.5 73.0216 Q1798.57 72.3329 1794.2 70.9151 L1794.2 63.2184 Q1798.33 65.3654 1802.34 66.4591 Q1806.35 67.5124 1810.28 67.5124 Q1815.55 67.5124 1818.38 65.73 Q1821.22 63.9071 1821.22 60.6258 Q1821.22 57.5877 1819.15 55.9673 Q1817.13 54.3469 1810.2 52.8481 L1807.61 52.2405 Q1800.68 50.7821 1797.6 47.7845 Q1794.52 44.7463 1794.52 39.4801 Q1794.52 33.0797 1799.06 29.5959 Q1803.6 26.1121 1811.94 26.1121 Q1816.07 26.1121 1819.72 26.7198 Q1823.37 27.3274 1826.44 28.5427 Z" fill="#000000" fill-rule="nonzero" fill-opacity="1"></path><path clip-path="url(#clip600)" d="M1848.12 14.324 L1848.12 27.2059 L1863.47 27.2059 L1863.47 32.9987 L1848.12 32.9987 L1848.12 57.6282 Q1848.12 63.1779 1849.62 64.7578 Q1851.15 66.3376 1855.81 66.3376 L1863.47 66.3376 L1863.47 72.576 L1855.81 72.576 Q1847.18 72.576 1843.9 69.3758 Q1840.62 66.1351 1840.62 57.6282 L1840.62 32.9987 L1835.15 32.9987 L1835.15 27.2059 L1840.62 27.2059 L1840.62 14.324 L1848.12 14.324 Z" fill="#000000" fill-rule="nonzero" fill-opacity="1"></path><path clip-path="url(#clip600)" d="M1890.85 32.4315 Q1884.86 32.4315 1881.37 37.1306 Q1877.89 41.7891 1877.89 49.9314 Q1877.89 58.0738 1881.33 62.7728 Q1884.82 67.4314 1890.85 67.4314 Q1896.81 67.4314 1900.29 62.7323 Q1903.78 58.0333 1903.78 49.9314 Q1903.78 41.8701 1900.29 37.1711 Q1896.81 32.4315 1890.85 32.4315 M1890.85 26.1121 Q1900.58 26.1121 1906.13 32.4315 Q1911.68 38.7509 1911.68 49.9314 Q1911.68 61.0714 1906.13 67.4314 Q1900.58 73.7508 1890.85 73.7508 Q1881.09 73.7508 1875.54 67.4314 Q1870.03 61.0714 1870.03 49.9314 Q1870.03 38.7509 1875.54 32.4315 Q1881.09 26.1121 1890.85 26.1121 Z" fill="#000000" fill-rule="nonzero" fill-opacity="1"></path><path clip-path="url(#clip600)" d="M1953.89 49.3643 Q1953.89 41.2625 1950.52 36.8065 Q1947.2 32.3505 1941.17 32.3505 Q1935.17 32.3505 1931.81 36.8065 Q1928.49 41.2625 1928.49 49.3643 Q1928.49 57.4256 1931.81 61.8816 Q1935.17 66.3376 1941.17 66.3376 Q1947.2 66.3376 1950.52 61.8816 Q1953.89 57.4256 1953.89 49.3643 M1961.34 66.9452 Q1961.34 78.5308 1956.19 84.1616 Q1951.05 89.8329 1940.44 89.8329 Q1936.51 89.8329 1933.02 89.2252 Q1929.54 88.6581 1926.26 87.4428 L1926.26 80.1917 Q1929.54 81.9741 1932.74 82.8248 Q1935.94 83.6755 1939.26 83.6755 Q1946.59 83.6755 1950.24 79.8271 Q1953.89 76.0193 1953.89 68.282 L1953.89 64.5957 Q1951.58 68.6061 1947.97 70.5911 Q1944.37 72.576 1939.34 72.576 Q1931 72.576 1925.89 66.2161 Q1920.79 59.8562 1920.79 49.3643 Q1920.79 38.832 1925.89 32.472 Q1931 26.1121 1939.34 26.1121 Q1944.37 26.1121 1947.97 28.0971 Q1951.58 30.082 1953.89 34.0924 L1953.89 27.2059 L1961.34 27.2059 L1961.34 66.9452 Z" fill="#000000" fill-rule="nonzero" fill-opacity="1"></path><path clip-path="url(#clip600)" d="M2002.98 34.1734 Q2001.73 33.4443 2000.23 33.1202 Q1998.77 32.7556 1996.99 32.7556 Q1990.67 32.7556 1987.27 36.8875 Q1983.9 40.9789 1983.9 48.6757 L1983.9 72.576 L1976.41 72.576 L1976.41 27.2059 L1983.9 27.2059 L1983.9 34.2544 Q1986.25 30.1225 1990.02 28.1376 Q1993.79 26.1121 1999.17 26.1121 Q1999.94 26.1121 2000.88 26.2337 Q2001.81 26.3147 2002.94 26.5172 L2002.98 34.1734 Z" fill="#000000" fill-rule="nonzero" fill-opacity="1"></path><path clip-path="url(#clip600)" d="M2031.42 49.7694 Q2022.39 49.7694 2018.9 51.8354 Q2015.42 53.9013 2015.42 58.8839 Q2015.42 62.8538 2018.01 65.2034 Q2020.64 67.5124 2025.14 67.5124 Q2031.34 67.5124 2035.07 63.1374 Q2038.83 58.7219 2038.83 51.4303 L2038.83 49.7694 L2031.42 49.7694 M2046.29 46.6907 L2046.29 72.576 L2038.83 72.576 L2038.83 65.6895 Q2036.28 69.8214 2032.47 71.8063 Q2028.67 73.7508 2023.16 73.7508 Q2016.19 73.7508 2012.06 69.8619 Q2007.97 65.9325 2007.97 59.3701 Q2007.97 51.7138 2013.07 47.825 Q2018.21 43.9361 2028.38 43.9361 L2038.83 43.9361 L2038.83 43.2069 Q2038.83 38.0623 2035.43 35.2672 Q2032.07 32.4315 2025.95 32.4315 Q2022.06 32.4315 2018.38 33.3632 Q2014.69 34.295 2011.29 36.1584 L2011.29 29.2718 Q2015.38 27.692 2019.23 26.9223 Q2023.08 26.1121 2026.72 26.1121 Q2036.56 26.1121 2041.43 31.2163 Q2046.29 36.3204 2046.29 46.6907 Z" fill="#000000" fill-rule="nonzero" fill-opacity="1"></path><path clip-path="url(#clip600)" d="M2096.96 35.9153 Q2099.76 30.8922 2103.65 28.5022 Q2107.54 26.1121 2112.8 26.1121 Q2119.89 26.1121 2123.74 31.0947 Q2127.59 36.0368 2127.59 45.1919 L2127.59 72.576 L2120.09 72.576 L2120.09 45.4349 Q2120.09 38.913 2117.79 35.7533 Q2115.48 32.5936 2110.74 32.5936 Q2104.94 32.5936 2101.58 36.4419 Q2098.22 40.2903 2098.22 46.9338 L2098.22 72.576 L2090.73 72.576 L2090.73 45.4349 Q2090.73 38.8725 2088.42 35.7533 Q2086.11 32.5936 2081.29 32.5936 Q2075.57 32.5936 2072.21 36.4824 Q2068.85 40.3308 2068.85 46.9338 L2068.85 72.576 L2061.36 72.576 L2061.36 27.2059 L2068.85 27.2059 L2068.85 34.2544 Q2071.4 30.082 2074.97 28.0971 Q2078.53 26.1121 2083.43 26.1121 Q2088.38 26.1121 2091.82 28.6237 Q2095.3 31.1352 2096.96 35.9153 Z" fill="#000000" fill-rule="nonzero" fill-opacity="1"></path><path clip-path="url(#clip602)" d="M94.063 100.792 L94.063 1552.76 L468.614 1552.76 L468.614 100.792 L94.063 100.792 L94.063 100.792  Z" fill="#ff0000" fill-rule="evenodd" fill-opacity="1"></path>
<polyline clip-path="url(#clip602)" style="stroke:#add8e6; stroke-linecap:round; stroke-linejoin:round; stroke-width:4; stroke-opacity:1; fill:none" points="94.063,100.792 94.063,1552.76 468.614,1552.76 468.614,100.792 94.063,100.792 "></polyline>
<path clip-path="url(#clip602)" d="M562.252 1552.76 L562.252 1552.76 L936.803 1552.76 L936.803 1552.76 L562.252 1552.76 L562.252 1552.76  Z" fill="#add8e6" fill-rule="evenodd" fill-opacity="1"></path>
<polyline clip-path="url(#clip602)" style="stroke:#add8e6; stroke-linecap:round; stroke-linejoin:round; stroke-width:4; stroke-opacity:1; fill:none" points="562.252,1552.76 562.252,1552.76 936.803,1552.76 562.252,1552.76 "></polyline>
<path clip-path="url(#clip602)" d="M1030.44 1552.76 L1030.44 1552.76 L1404.99 1552.76 L1404.99 1552.76 L1030.44 1552.76 L1030.44 1552.76  Z" fill="#add8e6" fill-rule="evenodd" fill-opacity="1"></path>
<polyline clip-path="url(#clip602)" style="stroke:#add8e6; stroke-linecap:round; stroke-linejoin:round; stroke-width:4; stroke-opacity:1; fill:none" points="1030.44,1552.76 1030.44,1552.76 1404.99,1552.76 1030.44,1552.76 "></polyline>
<path clip-path="url(#clip602)" d="M1498.63 1552.76 L1498.63 1552.76 L1873.18 1552.76 L1873.18 1552.76 L1498.63 1552.76 L1498.63 1552.76  Z" fill="#add8e6" fill-rule="evenodd" fill-opacity="1"></path>
<polyline clip-path="url(#clip602)" style="stroke:#add8e6; stroke-linecap:round; stroke-linejoin:round; stroke-width:4; stroke-opacity:1; fill:none" points="1498.63,1552.76 1498.63,1552.76 1873.18,1552.76 1498.63,1552.76 "></polyline>
<path clip-path="url(#clip602)" d="M1966.82 1552.76 L1966.82 1552.76 L2341.37 1552.76 L2341.37 1552.76 L1966.82 1552.76 L1966.82 1552.76  Z" fill="#add8e6" fill-rule="evenodd" fill-opacity="1"></path>
<polyline clip-path="url(#clip602)" style="stroke:#add8e6; stroke-linecap:round; stroke-linejoin:round; stroke-width:4; stroke-opacity:1; fill:none" points="1966.82,1552.76 1966.82,1552.76 2341.37,1552.76 1966.82,1552.76 "></polyline>
<path clip-path="url(#clip602)" d="M2435.01 1552.76 L2435.01 1552.76 L2809.56 1552.76 L2809.56 1552.76 L2435.01 1552.76 L2435.01 1552.76  Z" fill="#ff0000" fill-rule="evenodd" fill-opacity="1"></path>
<polyline clip-path="url(#clip602)" style="stroke:#add8e6; stroke-linecap:round; stroke-linejoin:round; stroke-width:4; stroke-opacity:1; fill:none" points="2435.01,1552.76 2435.01,1552.76 2809.56,1552.76 2435.01,1552.76 "></polyline>
<path clip-path="url(#clip602)" d="M2903.2 1552.76 L2903.2 1552.76 L3277.75 1552.76 L3277.75 1552.76 L2903.2 1552.76 L2903.2 1552.76  Z" fill="#ff0000" fill-rule="evenodd" fill-opacity="1"></path>
<polyline clip-path="url(#clip602)" style="stroke:#add8e6; stroke-linecap:round; stroke-linejoin:round; stroke-width:4; stroke-opacity:1; fill:none" points="2903.2,1552.76 2903.2,1552.76 3277.75,1552.76 2903.2,1552.76 "></polyline>
<path clip-path="url(#clip602)" d="M3371.39 1552.76 L3371.39 1552.76 L3745.94 1552.76 L3745.94 1552.76 L3371.39 1552.76 L3371.39 1552.76  Z" fill="#ff0000" fill-rule="evenodd" fill-opacity="1"></path>
<polyline clip-path="url(#clip602)" style="stroke:#add8e6; stroke-linecap:round; stroke-linejoin:round; stroke-width:4; stroke-opacity:1; fill:none" points="3371.39,1552.76 3371.39,1552.76 3745.94,1552.76 3371.39,1552.76 "></polyline>
<circle clip-path="url(#clip602)" style="fill:#ff0000; stroke:none; fill-opacity:0" cx="281.339" cy="100.792" r="2"></circle>
<circle clip-path="url(#clip602)" style="fill:#add8e6; stroke:none; fill-opacity:0" cx="749.528" cy="1552.76" r="2"></circle>
<circle clip-path="url(#clip602)" style="fill:#add8e6; stroke:none; fill-opacity:0" cx="1217.72" cy="1552.76" r="2"></circle>
<circle clip-path="url(#clip602)" style="fill:#add8e6; stroke:none; fill-opacity:0" cx="1685.91" cy="1552.76" r="2"></circle>
<circle clip-path="url(#clip602)" style="fill:#add8e6; stroke:none; fill-opacity:0" cx="2154.09" cy="1552.76" r="2"></circle>
<circle clip-path="url(#clip602)" style="fill:#ff0000; stroke:none; fill-opacity:0" cx="2622.28" cy="1552.76" r="2"></circle>
<circle clip-path="url(#clip602)" style="fill:#ff0000; stroke:none; fill-opacity:0" cx="3090.47" cy="1552.76" r="2"></circle>
<circle clip-path="url(#clip602)" style="fill:#ff0000; stroke:none; fill-opacity:0" cx="3558.66" cy="1552.76" r="2"></circle>
<circle clip-path="url(#clip602)" style="fill:#e26f46; stroke:none; fill-opacity:1" cx="281.339" cy="1552.74" r="2"></circle>
<circle clip-path="url(#clip602)" style="fill:#e26f46; stroke:none; fill-opacity:1" cx="749.528" cy="1552.74" r="2"></circle>
<circle clip-path="url(#clip602)" style="fill:#e26f46; stroke:none; fill-opacity:1" cx="1217.72" cy="1552.74" r="2"></circle>
<circle clip-path="url(#clip602)" style="fill:#e26f46; stroke:none; fill-opacity:1" cx="1685.91" cy="1552.74" r="2"></circle>
<circle clip-path="url(#clip602)" style="fill:#e26f46; stroke:none; fill-opacity:1" cx="2154.09" cy="1552.74" r="2"></circle>
<circle clip-path="url(#clip602)" style="fill:#e26f46; stroke:none; fill-opacity:1" cx="2622.28" cy="1552.74" r="2"></circle>
<circle clip-path="url(#clip602)" style="fill:#e26f46; stroke:none; fill-opacity:1" cx="3090.47" cy="1552.74" r="2"></circle>
<circle clip-path="url(#clip602)" style="fill:#e26f46; stroke:none; fill-opacity:1" cx="3558.66" cy="1552.74" r="2"></circle>
<path clip-path="url(#clip600)" d="M135.081 1519.58 L135.081 1602.55 L128.194 1602.55 L128.194 1519.58 L135.081 1519.58 Z" fill="#000000" fill-rule="nonzero" fill-opacity="1"></path><path clip-path="url(#clip600)" d="M155.902 1576.09 L169.27 1576.09 L169.27 1529.96 L154.728 1532.87 L154.728 1525.42 L169.189 1522.5 L177.372 1522.5 L177.372 1576.09 L190.74 1576.09 L190.74 1582.98 L155.902 1582.98 L155.902 1576.09 Z" fill="#000000" fill-rule="nonzero" fill-opacity="1"></path><path clip-path="url(#clip600)" d="M208.686 1576.09 L222.054 1576.09 L222.054 1529.96 L207.511 1532.87 L207.511 1525.42 L221.973 1522.5 L230.155 1522.5 L230.155 1576.09 L243.523 1576.09 L243.523 1582.98 L208.686 1582.98 L208.686 1576.09 Z" fill="#000000" fill-rule="nonzero" fill-opacity="1"></path><path clip-path="url(#clip600)" d="M261.469 1576.09 L274.837 1576.09 L274.837 1529.96 L260.294 1532.87 L260.294 1525.42 L274.756 1522.5 L282.939 1522.5 L282.939 1576.09 L296.307 1576.09 L296.307 1582.98 L261.469 1582.98 L261.469 1576.09 Z" fill="#000000" fill-rule="nonzero" fill-opacity="1"></path><path clip-path="url(#clip600)" d="M330.334 1527.89 Q324.015 1527.89 320.815 1534.13 Q317.655 1540.33 317.655 1552.8 Q317.655 1565.24 320.815 1571.48 Q324.015 1577.67 330.334 1577.67 Q336.694 1577.67 339.854 1571.48 Q343.054 1565.24 343.054 1552.8 Q343.054 1540.33 339.854 1534.13 Q336.694 1527.89 330.334 1527.89 M330.334 1521.41 Q340.502 1521.41 345.849 1529.47 Q351.237 1537.49 351.237 1552.8 Q351.237 1568.07 345.849 1576.14 Q340.502 1584.16 330.334 1584.16 Q320.166 1584.16 314.779 1576.14 Q309.432 1568.07 309.432 1552.8 Q309.432 1537.49 314.779 1529.47 Q320.166 1521.41 330.334 1521.41 Z" fill="#000000" fill-rule="nonzero" fill-opacity="1"></path><path clip-path="url(#clip600)" d="M367.035 1576.09 L380.403 1576.09 L380.403 1529.96 L365.861 1532.87 L365.861 1525.42 L380.322 1522.5 L388.505 1522.5 L388.505 1576.09 L401.873 1576.09 L401.873 1582.98 L367.035 1582.98 L367.035 1576.09 Z" fill="#000000" fill-rule="nonzero" fill-opacity="1"></path><path clip-path="url(#clip600)" d="M434.483 1556.97 L423.059 1593.92 L416.173 1593.92 L427.596 1556.97 L416.173 1520.03 L423.059 1520.03 L434.483 1556.97 Z" fill="#000000" fill-rule="nonzero" fill-opacity="1"></path><path clip-path="url(#clip600)" d="M603.27 1519.58 L603.27 1602.55 L596.383 1602.55 L596.383 1519.58 L603.27 1519.58 Z" fill="#000000" fill-rule="nonzero" fill-opacity="1"></path><path clip-path="url(#clip600)" d="M640.173 1527.89 Q633.854 1527.89 630.654 1534.13 Q627.494 1540.33 627.494 1552.8 Q627.494 1565.24 630.654 1571.48 Q633.854 1577.67 640.173 1577.67 Q646.533 1577.67 649.693 1571.48 Q652.893 1565.24 652.893 1552.8 Q652.893 1540.33 649.693 1534.13 Q646.533 1527.89 640.173 1527.89 M640.173 1521.41 Q650.341 1521.41 655.688 1529.47 Q661.076 1537.49 661.076 1552.8 Q661.076 1568.07 655.688 1576.14 Q650.341 1584.16 640.173 1584.16 Q630.006 1584.16 624.618 1576.14 Q619.271 1568.07 619.271 1552.8 Q619.271 1537.49 624.618 1529.47 Q630.006 1521.41 640.173 1521.41 Z" fill="#000000" fill-rule="nonzero" fill-opacity="1"></path><path clip-path="url(#clip600)" d="M692.957 1527.89 Q686.637 1527.89 683.437 1534.13 Q680.277 1540.33 680.277 1552.8 Q680.277 1565.24 683.437 1571.48 Q686.637 1577.67 692.957 1577.67 Q699.317 1577.67 702.476 1571.48 Q705.677 1565.24 705.677 1552.8 Q705.677 1540.33 702.476 1534.13 Q699.317 1527.89 692.957 1527.89 M692.957 1521.41 Q703.124 1521.41 708.472 1529.47 Q713.859 1537.49 713.859 1552.8 Q713.859 1568.07 708.472 1576.14 Q703.124 1584.16 692.957 1584.16 Q682.789 1584.16 677.401 1576.14 Q672.054 1568.07 672.054 1552.8 Q672.054 1537.49 677.401 1529.47 Q682.789 1521.41 692.957 1521.41 Z" fill="#000000" fill-rule="nonzero" fill-opacity="1"></path><path clip-path="url(#clip600)" d="M745.74 1527.89 Q739.421 1527.89 736.22 1534.13 Q733.061 1540.33 733.061 1552.8 Q733.061 1565.24 736.22 1571.48 Q739.421 1577.67 745.74 1577.67 Q752.1 1577.67 755.26 1571.48 Q758.46 1565.24 758.46 1552.8 Q758.46 1540.33 755.26 1534.13 Q752.1 1527.89 745.74 1527.89 M745.74 1521.41 Q755.908 1521.41 761.255 1529.47 Q766.643 1537.49 766.643 1552.8 Q766.643 1568.07 761.255 1576.14 Q755.908 1584.16 745.74 1584.16 Q735.572 1584.16 730.184 1576.14 Q724.837 1568.07 724.837 1552.8 Q724.837 1537.49 730.184 1529.47 Q735.572 1521.41 745.74 1521.41 Z" fill="#000000" fill-rule="nonzero" fill-opacity="1"></path><path clip-path="url(#clip600)" d="M798.523 1527.89 Q792.204 1527.89 789.004 1534.13 Q785.844 1540.33 785.844 1552.8 Q785.844 1565.24 789.004 1571.48 Q792.204 1577.67 798.523 1577.67 Q804.883 1577.67 808.043 1571.48 Q811.243 1565.24 811.243 1552.8 Q811.243 1540.33 808.043 1534.13 Q804.883 1527.89 798.523 1527.89 M798.523 1521.41 Q808.691 1521.41 814.038 1529.47 Q819.426 1537.49 819.426 1552.8 Q819.426 1568.07 814.038 1576.14 Q808.691 1584.16 798.523 1584.16 Q788.355 1584.16 782.968 1576.14 Q777.621 1568.07 777.621 1552.8 Q777.621 1537.49 782.968 1529.47 Q788.355 1521.41 798.523 1521.41 Z" fill="#000000" fill-rule="nonzero" fill-opacity="1"></path><path clip-path="url(#clip600)" d="M851.307 1527.89 Q844.987 1527.89 841.787 1534.13 Q838.627 1540.33 838.627 1552.8 Q838.627 1565.24 841.787 1571.48 Q844.987 1577.67 851.307 1577.67 Q857.666 1577.67 860.826 1571.48 Q864.026 1565.24 864.026 1552.8 Q864.026 1540.33 860.826 1534.13 Q857.666 1527.89 851.307 1527.89 M851.307 1521.41 Q861.474 1521.41 866.821 1529.47 Q872.209 1537.49 872.209 1552.8 Q872.209 1568.07 866.821 1576.14 Q861.474 1584.16 851.307 1584.16 Q841.139 1584.16 835.751 1576.14 Q830.404 1568.07 830.404 1552.8 Q830.404 1537.49 835.751 1529.47 Q841.139 1521.41 851.307 1521.41 Z" fill="#000000" fill-rule="nonzero" fill-opacity="1"></path><path clip-path="url(#clip600)" d="M902.672 1556.97 L891.248 1593.92 L884.362 1593.92 L895.785 1556.97 L884.362 1520.03 L891.248 1520.03 L902.672 1556.97 Z" fill="#000000" fill-rule="nonzero" fill-opacity="1"></path><path clip-path="url(#clip600)" d="M1071.46 1519.58 L1071.46 1602.55 L1064.57 1602.55 L1064.57 1519.58 L1071.46 1519.58 Z" fill="#000000" fill-rule="nonzero" fill-opacity="1"></path><path clip-path="url(#clip600)" d="M1108.36 1527.89 Q1102.04 1527.89 1098.84 1534.13 Q1095.68 1540.33 1095.68 1552.8 Q1095.68 1565.24 1098.84 1571.48 Q1102.04 1577.67 1108.36 1577.67 Q1114.72 1577.67 1117.88 1571.48 Q1121.08 1565.24 1121.08 1552.8 Q1121.08 1540.33 1117.88 1534.13 Q1114.72 1527.89 1108.36 1527.89 M1108.36 1521.41 Q1118.53 1521.41 1123.88 1529.47 Q1129.27 1537.49 1129.27 1552.8 Q1129.27 1568.07 1123.88 1576.14 Q1118.53 1584.16 1108.36 1584.16 Q1098.19 1584.16 1092.81 1576.14 Q1087.46 1568.07 1087.46 1552.8 Q1087.46 1537.49 1092.81 1529.47 Q1098.19 1521.41 1108.36 1521.41 Z" fill="#000000" fill-rule="nonzero" fill-opacity="1"></path><path clip-path="url(#clip600)" d="M1161.15 1527.89 Q1154.83 1527.89 1151.63 1534.13 Q1148.47 1540.33 1148.47 1552.8 Q1148.47 1565.24 1151.63 1571.48 Q1154.83 1577.67 1161.15 1577.67 Q1167.51 1577.67 1170.67 1571.48 Q1173.87 1565.24 1173.87 1552.8 Q1173.87 1540.33 1170.67 1534.13 Q1167.51 1527.89 1161.15 1527.89 M1161.15 1521.41 Q1171.31 1521.41 1176.66 1529.47 Q1182.05 1537.49 1182.05 1552.8 Q1182.05 1568.07 1176.66 1576.14 Q1171.31 1584.16 1161.15 1584.16 Q1150.98 1584.16 1145.59 1576.14 Q1140.24 1568.07 1140.24 1552.8 Q1140.24 1537.49 1145.59 1529.47 Q1150.98 1521.41 1161.15 1521.41 Z" fill="#000000" fill-rule="nonzero" fill-opacity="1"></path><path clip-path="url(#clip600)" d="M1213.93 1527.89 Q1207.61 1527.89 1204.41 1534.13 Q1201.25 1540.33 1201.25 1552.8 Q1201.25 1565.24 1204.41 1571.48 Q1207.61 1577.67 1213.93 1577.67 Q1220.29 1577.67 1223.45 1571.48 Q1226.65 1565.24 1226.65 1552.8 Q1226.65 1540.33 1223.45 1534.13 Q1220.29 1527.89 1213.93 1527.89 M1213.93 1521.41 Q1224.1 1521.41 1229.44 1529.47 Q1234.83 1537.49 1234.83 1552.8 Q1234.83 1568.07 1229.44 1576.14 Q1224.1 1584.16 1213.93 1584.16 Q1203.76 1584.16 1198.37 1576.14 Q1193.03 1568.07 1193.03 1552.8 Q1193.03 1537.49 1198.37 1529.47 Q1203.76 1521.41 1213.93 1521.41 Z" fill="#000000" fill-rule="nonzero" fill-opacity="1"></path><path clip-path="url(#clip600)" d="M1266.71 1527.89 Q1260.39 1527.89 1257.19 1534.13 Q1254.03 1540.33 1254.03 1552.8 Q1254.03 1565.24 1257.19 1571.48 Q1260.39 1577.67 1266.71 1577.67 Q1273.07 1577.67 1276.23 1571.48 Q1279.43 1565.24 1279.43 1552.8 Q1279.43 1540.33 1276.23 1534.13 Q1273.07 1527.89 1266.71 1527.89 M1266.71 1521.41 Q1276.88 1521.41 1282.23 1529.47 Q1287.61 1537.49 1287.61 1552.8 Q1287.61 1568.07 1282.23 1576.14 Q1276.88 1584.16 1266.71 1584.16 Q1256.54 1584.16 1251.16 1576.14 Q1245.81 1568.07 1245.81 1552.8 Q1245.81 1537.49 1251.16 1529.47 Q1256.54 1521.41 1266.71 1521.41 Z" fill="#000000" fill-rule="nonzero" fill-opacity="1"></path><path clip-path="url(#clip600)" d="M1303.41 1576.09 L1316.78 1576.09 L1316.78 1529.96 L1302.24 1532.87 L1302.24 1525.42 L1316.7 1522.5 L1324.88 1522.5 L1324.88 1576.09 L1338.25 1576.09 L1338.25 1582.98 L1303.41 1582.98 L1303.41 1576.09 Z" fill="#000000" fill-rule="nonzero" fill-opacity="1"></path><path clip-path="url(#clip600)" d="M1370.86 1556.97 L1359.44 1593.92 L1352.55 1593.92 L1363.97 1556.97 L1352.55 1520.03 L1359.44 1520.03 L1370.86 1556.97 Z" fill="#000000" fill-rule="nonzero" fill-opacity="1"></path><path clip-path="url(#clip600)" d="M1539.65 1519.58 L1539.65 1602.55 L1532.76 1602.55 L1532.76 1519.58 L1539.65 1519.58 Z" fill="#000000" fill-rule="nonzero" fill-opacity="1"></path><path clip-path="url(#clip600)" d="M1576.55 1527.89 Q1570.23 1527.89 1567.03 1534.13 Q1563.87 1540.33 1563.87 1552.8 Q1563.87 1565.24 1567.03 1571.48 Q1570.23 1577.67 1576.55 1577.67 Q1582.91 1577.67 1586.07 1571.48 Q1589.27 1565.24 1589.27 1552.8 Q1589.27 1540.33 1586.07 1534.13 Q1582.91 1527.89 1576.55 1527.89 M1576.55 1521.41 Q1586.72 1521.41 1592.07 1529.47 Q1597.45 1537.49 1597.45 1552.8 Q1597.45 1568.07 1592.07 1576.14 Q1586.72 1584.16 1576.55 1584.16 Q1566.38 1584.16 1561 1576.14 Q1555.65 1568.07 1555.65 1552.8 Q1555.65 1537.49 1561 1529.47 Q1566.38 1521.41 1576.55 1521.41 Z" fill="#000000" fill-rule="nonzero" fill-opacity="1"></path><path clip-path="url(#clip600)" d="M1629.33 1527.89 Q1623.02 1527.89 1619.82 1534.13 Q1616.66 1540.33 1616.66 1552.8 Q1616.66 1565.24 1619.82 1571.48 Q1623.02 1577.67 1629.33 1577.67 Q1635.69 1577.67 1638.85 1571.48 Q1642.05 1565.24 1642.05 1552.8 Q1642.05 1540.33 1638.85 1534.13 Q1635.69 1527.89 1629.33 1527.89 M1629.33 1521.41 Q1639.5 1521.41 1644.85 1529.47 Q1650.24 1537.49 1650.24 1552.8 Q1650.24 1568.07 1644.85 1576.14 Q1639.5 1584.16 1629.33 1584.16 Q1619.17 1584.16 1613.78 1576.14 Q1608.43 1568.07 1608.43 1552.8 Q1608.43 1537.49 1613.78 1529.47 Q1619.17 1521.41 1629.33 1521.41 Z" fill="#000000" fill-rule="nonzero" fill-opacity="1"></path><path clip-path="url(#clip600)" d="M1682.12 1527.89 Q1675.8 1527.89 1672.6 1534.13 Q1669.44 1540.33 1669.44 1552.8 Q1669.44 1565.24 1672.6 1571.48 Q1675.8 1577.67 1682.12 1577.67 Q1688.48 1577.67 1691.64 1571.48 Q1694.84 1565.24 1694.84 1552.8 Q1694.84 1540.33 1691.64 1534.13 Q1688.48 1527.89 1682.12 1527.89 M1682.12 1521.41 Q1692.29 1521.41 1697.63 1529.47 Q1703.02 1537.49 1703.02 1552.8 Q1703.02 1568.07 1697.63 1576.14 Q1692.29 1584.16 1682.12 1584.16 Q1671.95 1584.16 1666.56 1576.14 Q1661.22 1568.07 1661.22 1552.8 Q1661.22 1537.49 1666.56 1529.47 Q1671.95 1521.41 1682.12 1521.41 Z" fill="#000000" fill-rule="nonzero" fill-opacity="1"></path><path clip-path="url(#clip600)" d="M1718.82 1576.09 L1732.19 1576.09 L1732.19 1529.96 L1717.64 1532.87 L1717.64 1525.42 L1732.11 1522.5 L1740.29 1522.5 L1740.29 1576.09 L1753.66 1576.09 L1753.66 1582.98 L1718.82 1582.98 L1718.82 1576.09 Z" fill="#000000" fill-rule="nonzero" fill-opacity="1"></path><path clip-path="url(#clip600)" d="M1787.68 1527.89 Q1781.37 1527.89 1778.16 1534.13 Q1775.01 1540.33 1775.01 1552.8 Q1775.01 1565.24 1778.16 1571.48 Q1781.37 1577.67 1787.68 1577.67 Q1794.04 1577.67 1797.2 1571.48 Q1800.4 1565.24 1800.4 1552.8 Q1800.4 1540.33 1797.2 1534.13 Q1794.04 1527.89 1787.68 1527.89 M1787.68 1521.41 Q1797.85 1521.41 1803.2 1529.47 Q1808.59 1537.49 1808.59 1552.8 Q1808.59 1568.07 1803.2 1576.14 Q1797.85 1584.16 1787.68 1584.16 Q1777.52 1584.16 1772.13 1576.14 Q1766.78 1568.07 1766.78 1552.8 Q1766.78 1537.49 1772.13 1529.47 Q1777.52 1521.41 1787.68 1521.41 Z" fill="#000000" fill-rule="nonzero" fill-opacity="1"></path><path clip-path="url(#clip600)" d="M1839.05 1556.97 L1827.63 1593.92 L1820.74 1593.92 L1832.16 1556.97 L1820.74 1520.03 L1827.63 1520.03 L1839.05 1556.97 Z" fill="#000000" fill-rule="nonzero" fill-opacity="1"></path><path clip-path="url(#clip600)" d="M2007.84 1519.58 L2007.84 1602.55 L2000.95 1602.55 L2000.95 1519.58 L2007.84 1519.58 Z" fill="#000000" fill-rule="nonzero" fill-opacity="1"></path><path clip-path="url(#clip600)" d="M2044.74 1527.89 Q2038.42 1527.89 2035.22 1534.13 Q2032.06 1540.33 2032.06 1552.8 Q2032.06 1565.24 2035.22 1571.48 Q2038.42 1577.67 2044.74 1577.67 Q2051.1 1577.67 2054.26 1571.48 Q2057.46 1565.24 2057.46 1552.8 Q2057.46 1540.33 2054.26 1534.13 Q2051.1 1527.89 2044.74 1527.89 M2044.74 1521.41 Q2054.91 1521.41 2060.26 1529.47 Q2065.64 1537.49 2065.64 1552.8 Q2065.64 1568.07 2060.26 1576.14 Q2054.91 1584.16 2044.74 1584.16 Q2034.57 1584.16 2029.18 1576.14 Q2023.84 1568.07 2023.84 1552.8 Q2023.84 1537.49 2029.18 1529.47 Q2034.57 1521.41 2044.74 1521.41 Z" fill="#000000" fill-rule="nonzero" fill-opacity="1"></path><path clip-path="url(#clip600)" d="M2097.52 1527.89 Q2091.2 1527.89 2088 1534.13 Q2084.84 1540.33 2084.84 1552.8 Q2084.84 1565.24 2088 1571.48 Q2091.2 1577.67 2097.52 1577.67 Q2103.88 1577.67 2107.04 1571.48 Q2110.24 1565.24 2110.24 1552.8 Q2110.24 1540.33 2107.04 1534.13 Q2103.88 1527.89 2097.52 1527.89 M2097.52 1521.41 Q2107.69 1521.41 2113.04 1529.47 Q2118.43 1537.49 2118.43 1552.8 Q2118.43 1568.07 2113.04 1576.14 Q2107.69 1584.16 2097.52 1584.16 Q2087.36 1584.16 2081.97 1576.14 Q2076.62 1568.07 2076.62 1552.8 Q2076.62 1537.49 2081.97 1529.47 Q2087.36 1521.41 2097.52 1521.41 Z" fill="#000000" fill-rule="nonzero" fill-opacity="1"></path><path clip-path="url(#clip600)" d="M2150.31 1527.89 Q2143.99 1527.89 2140.79 1534.13 Q2137.63 1540.33 2137.63 1552.8 Q2137.63 1565.24 2140.79 1571.48 Q2143.99 1577.67 2150.31 1577.67 Q2156.67 1577.67 2159.83 1571.48 Q2163.03 1565.24 2163.03 1552.8 Q2163.03 1540.33 2159.83 1534.13 Q2156.67 1527.89 2150.31 1527.89 M2150.31 1521.41 Q2160.47 1521.41 2165.82 1529.47 Q2171.21 1537.49 2171.21 1552.8 Q2171.21 1568.07 2165.82 1576.14 Q2160.47 1584.16 2150.31 1584.16 Q2140.14 1584.16 2134.75 1576.14 Q2129.4 1568.07 2129.4 1552.8 Q2129.4 1537.49 2134.75 1529.47 Q2140.14 1521.41 2150.31 1521.41 Z" fill="#000000" fill-rule="nonzero" fill-opacity="1"></path><path clip-path="url(#clip600)" d="M2187.01 1576.09 L2200.38 1576.09 L2200.38 1529.96 L2185.83 1532.87 L2185.83 1525.42 L2200.3 1522.5 L2208.48 1522.5 L2208.48 1576.09 L2221.85 1576.09 L2221.85 1582.98 L2187.01 1582.98 L2187.01 1576.09 Z" fill="#000000" fill-rule="nonzero" fill-opacity="1"></path><path clip-path="url(#clip600)" d="M2239.79 1576.09 L2253.16 1576.09 L2253.16 1529.96 L2238.62 1532.87 L2238.62 1525.42 L2253.08 1522.5 L2261.26 1522.5 L2261.26 1576.09 L2274.63 1576.09 L2274.63 1582.98 L2239.79 1582.98 L2239.79 1576.09 Z" fill="#000000" fill-rule="nonzero" fill-opacity="1"></path><path clip-path="url(#clip600)" d="M2307.24 1556.97 L2295.82 1593.92 L2288.93 1593.92 L2300.35 1556.97 L2288.93 1520.03 L2295.82 1520.03 L2307.24 1556.97 Z" fill="#000000" fill-rule="nonzero" fill-opacity="1"></path><path clip-path="url(#clip600)" d="M2476.03 1519.58 L2476.03 1602.55 L2469.14 1602.55 L2469.14 1519.58 L2476.03 1519.58 Z" fill="#000000" fill-rule="nonzero" fill-opacity="1"></path><path clip-path="url(#clip600)" d="M2512.93 1527.89 Q2506.61 1527.89 2503.41 1534.13 Q2500.25 1540.33 2500.25 1552.8 Q2500.25 1565.24 2503.41 1571.48 Q2506.61 1577.67 2512.93 1577.67 Q2519.29 1577.67 2522.45 1571.48 Q2525.65 1565.24 2525.65 1552.8 Q2525.65 1540.33 2522.45 1534.13 Q2519.29 1527.89 2512.93 1527.89 M2512.93 1521.41 Q2523.1 1521.41 2528.44 1529.47 Q2533.83 1537.49 2533.83 1552.8 Q2533.83 1568.07 2528.44 1576.14 Q2523.1 1584.16 2512.93 1584.16 Q2502.76 1584.16 2497.37 1576.14 Q2492.03 1568.07 2492.03 1552.8 Q2492.03 1537.49 2497.37 1529.47 Q2502.76 1521.41 2512.93 1521.41 Z" fill="#000000" fill-rule="nonzero" fill-opacity="1"></path><path clip-path="url(#clip600)" d="M2565.71 1527.89 Q2559.39 1527.89 2556.19 1534.13 Q2553.03 1540.33 2553.03 1552.8 Q2553.03 1565.24 2556.19 1571.48 Q2559.39 1577.67 2565.71 1577.67 Q2572.07 1577.67 2575.23 1571.48 Q2578.43 1565.24 2578.43 1552.8 Q2578.43 1540.33 2575.23 1534.13 Q2572.07 1527.89 2565.71 1527.89 M2565.71 1521.41 Q2575.88 1521.41 2581.23 1529.47 Q2586.62 1537.49 2586.62 1552.8 Q2586.62 1568.07 2581.23 1576.14 Q2575.88 1584.16 2565.71 1584.16 Q2555.54 1584.16 2550.16 1576.14 Q2544.81 1568.07 2544.81 1552.8 Q2544.81 1537.49 2550.16 1529.47 Q2555.54 1521.41 2565.71 1521.41 Z" fill="#000000" fill-rule="nonzero" fill-opacity="1"></path><path clip-path="url(#clip600)" d="M2602.41 1576.09 L2615.78 1576.09 L2615.78 1529.96 L2601.24 1532.87 L2601.24 1525.42 L2615.7 1522.5 L2623.88 1522.5 L2623.88 1576.09 L2637.25 1576.09 L2637.25 1582.98 L2602.41 1582.98 L2602.41 1576.09 Z" fill="#000000" fill-rule="nonzero" fill-opacity="1"></path><path clip-path="url(#clip600)" d="M2671.28 1527.89 Q2664.96 1527.89 2661.76 1534.13 Q2658.6 1540.33 2658.6 1552.8 Q2658.6 1565.24 2661.76 1571.48 Q2664.96 1577.67 2671.28 1577.67 Q2677.64 1577.67 2680.8 1571.48 Q2684 1565.24 2684 1552.8 Q2684 1540.33 2680.8 1534.13 Q2677.64 1527.89 2671.28 1527.89 M2671.28 1521.41 Q2681.45 1521.41 2686.79 1529.47 Q2692.18 1537.49 2692.18 1552.8 Q2692.18 1568.07 2686.79 1576.14 Q2681.45 1584.16 2671.28 1584.16 Q2661.11 1584.16 2655.72 1576.14 Q2650.38 1568.07 2650.38 1552.8 Q2650.38 1537.49 2655.72 1529.47 Q2661.11 1521.41 2671.28 1521.41 Z" fill="#000000" fill-rule="nonzero" fill-opacity="1"></path><path clip-path="url(#clip600)" d="M2724.06 1527.89 Q2717.74 1527.89 2714.54 1534.13 Q2711.38 1540.33 2711.38 1552.8 Q2711.38 1565.24 2714.54 1571.48 Q2717.74 1577.67 2724.06 1577.67 Q2730.42 1577.67 2733.58 1571.48 Q2736.78 1565.24 2736.78 1552.8 Q2736.78 1540.33 2733.58 1534.13 Q2730.42 1527.89 2724.06 1527.89 M2724.06 1521.41 Q2734.23 1521.41 2739.58 1529.47 Q2744.97 1537.49 2744.97 1552.8 Q2744.97 1568.07 2739.58 1576.14 Q2734.23 1584.16 2724.06 1584.16 Q2713.89 1584.16 2708.51 1576.14 Q2703.16 1568.07 2703.16 1552.8 Q2703.16 1537.49 2708.51 1529.47 Q2713.89 1521.41 2724.06 1521.41 Z" fill="#000000" fill-rule="nonzero" fill-opacity="1"></path><path clip-path="url(#clip600)" d="M2775.43 1556.97 L2764 1593.92 L2757.12 1593.92 L2768.54 1556.97 L2757.12 1520.03 L2764 1520.03 L2775.43 1556.97 Z" fill="#000000" fill-rule="nonzero" fill-opacity="1"></path><path clip-path="url(#clip600)" d="M2944.21 1519.58 L2944.21 1602.55 L2937.33 1602.55 L2937.33 1519.58 L2944.21 1519.58 Z" fill="#000000" fill-rule="nonzero" fill-opacity="1"></path><path clip-path="url(#clip600)" d="M2981.12 1527.89 Q2974.8 1527.89 2971.6 1534.13 Q2968.44 1540.33 2968.44 1552.8 Q2968.44 1565.24 2971.6 1571.48 Q2974.8 1577.67 2981.12 1577.67 Q2987.48 1577.67 2990.64 1571.48 Q2993.84 1565.24 2993.84 1552.8 Q2993.84 1540.33 2990.64 1534.13 Q2987.48 1527.89 2981.12 1527.89 M2981.12 1521.41 Q2991.29 1521.41 2996.63 1529.47 Q3002.02 1537.49 3002.02 1552.8 Q3002.02 1568.07 2996.63 1576.14 Q2991.29 1584.16 2981.12 1584.16 Q2970.95 1584.16 2965.56 1576.14 Q2960.22 1568.07 2960.22 1552.8 Q2960.22 1537.49 2965.56 1529.47 Q2970.95 1521.41 2981.12 1521.41 Z" fill="#000000" fill-rule="nonzero" fill-opacity="1"></path><path clip-path="url(#clip600)" d="M3033.9 1527.89 Q3027.58 1527.89 3024.38 1534.13 Q3021.22 1540.33 3021.22 1552.8 Q3021.22 1565.24 3024.38 1571.48 Q3027.58 1577.67 3033.9 1577.67 Q3040.26 1577.67 3043.42 1571.48 Q3046.62 1565.24 3046.62 1552.8 Q3046.62 1540.33 3043.42 1534.13 Q3040.26 1527.89 3033.9 1527.89 M3033.9 1521.41 Q3044.07 1521.41 3049.42 1529.47 Q3054.8 1537.49 3054.8 1552.8 Q3054.8 1568.07 3049.42 1576.14 Q3044.07 1584.16 3033.9 1584.16 Q3023.73 1584.16 3018.35 1576.14 Q3013 1568.07 3013 1552.8 Q3013 1537.49 3018.35 1529.47 Q3023.73 1521.41 3033.9 1521.41 Z" fill="#000000" fill-rule="nonzero" fill-opacity="1"></path><path clip-path="url(#clip600)" d="M3070.6 1576.09 L3083.97 1576.09 L3083.97 1529.96 L3069.43 1532.87 L3069.43 1525.42 L3083.89 1522.5 L3092.07 1522.5 L3092.07 1576.09 L3105.44 1576.09 L3105.44 1582.98 L3070.6 1582.98 L3070.6 1576.09 Z" fill="#000000" fill-rule="nonzero" fill-opacity="1"></path><path clip-path="url(#clip600)" d="M3139.47 1527.89 Q3133.15 1527.89 3129.95 1534.13 Q3126.79 1540.33 3126.79 1552.8 Q3126.79 1565.24 3129.95 1571.48 Q3133.15 1577.67 3139.47 1577.67 Q3145.83 1577.67 3148.99 1571.48 Q3152.19 1565.24 3152.19 1552.8 Q3152.19 1540.33 3148.99 1534.13 Q3145.83 1527.89 3139.47 1527.89 M3139.47 1521.41 Q3149.64 1521.41 3154.98 1529.47 Q3160.37 1537.49 3160.37 1552.8 Q3160.37 1568.07 3154.98 1576.14 Q3149.64 1584.16 3139.47 1584.16 Q3129.3 1584.16 3123.91 1576.14 Q3118.57 1568.07 3118.57 1552.8 Q3118.57 1537.49 3123.91 1529.47 Q3129.3 1521.41 3139.47 1521.41 Z" fill="#000000" fill-rule="nonzero" fill-opacity="1"></path><path clip-path="url(#clip600)" d="M3176.17 1576.09 L3189.54 1576.09 L3189.54 1529.96 L3174.99 1532.87 L3174.99 1525.42 L3189.46 1522.5 L3197.64 1522.5 L3197.64 1576.09 L3211.01 1576.09 L3211.01 1582.98 L3176.17 1582.98 L3176.17 1576.09 Z" fill="#000000" fill-rule="nonzero" fill-opacity="1"></path><path clip-path="url(#clip600)" d="M3243.62 1556.97 L3232.19 1593.92 L3225.31 1593.92 L3236.73 1556.97 L3225.31 1520.03 L3232.19 1520.03 L3243.62 1556.97 Z" fill="#000000" fill-rule="nonzero" fill-opacity="1"></path><path clip-path="url(#clip600)" d="M3412.4 1519.58 L3412.4 1602.55 L3405.52 1602.55 L3405.52 1519.58 L3412.4 1519.58 Z" fill="#000000" fill-rule="nonzero" fill-opacity="1"></path><path clip-path="url(#clip600)" d="M3449.31 1527.89 Q3442.99 1527.89 3439.79 1534.13 Q3436.63 1540.33 3436.63 1552.8 Q3436.63 1565.24 3439.79 1571.48 Q3442.99 1577.67 3449.31 1577.67 Q3455.67 1577.67 3458.83 1571.48 Q3462.03 1565.24 3462.03 1552.8 Q3462.03 1540.33 3458.83 1534.13 Q3455.67 1527.89 3449.31 1527.89 M3449.31 1521.41 Q3459.48 1521.41 3464.82 1529.47 Q3470.21 1537.49 3470.21 1552.8 Q3470.21 1568.07 3464.82 1576.14 Q3459.48 1584.16 3449.31 1584.16 Q3439.14 1584.16 3433.75 1576.14 Q3428.4 1568.07 3428.4 1552.8 Q3428.4 1537.49 3433.75 1529.47 Q3439.14 1521.41 3449.31 1521.41 Z" fill="#000000" fill-rule="nonzero" fill-opacity="1"></path><path clip-path="url(#clip600)" d="M3502.09 1527.89 Q3495.77 1527.89 3492.57 1534.13 Q3489.41 1540.33 3489.41 1552.8 Q3489.41 1565.24 3492.57 1571.48 Q3495.77 1577.67 3502.09 1577.67 Q3508.45 1577.67 3511.61 1571.48 Q3514.81 1565.24 3514.81 1552.8 Q3514.81 1540.33 3511.61 1534.13 Q3508.45 1527.89 3502.09 1527.89 M3502.09 1521.41 Q3512.26 1521.41 3517.61 1529.47 Q3522.99 1537.49 3522.99 1552.8 Q3522.99 1568.07 3517.61 1576.14 Q3512.26 1584.16 3502.09 1584.16 Q3491.92 1584.16 3486.54 1576.14 Q3481.19 1568.07 3481.19 1552.8 Q3481.19 1537.49 3486.54 1529.47 Q3491.92 1521.41 3502.09 1521.41 Z" fill="#000000" fill-rule="nonzero" fill-opacity="1"></path><path clip-path="url(#clip600)" d="M3538.79 1576.09 L3552.16 1576.09 L3552.16 1529.96 L3537.62 1532.87 L3537.62 1525.42 L3552.08 1522.5 L3560.26 1522.5 L3560.26 1576.09 L3573.63 1576.09 L3573.63 1582.98 L3538.79 1582.98 L3538.79 1576.09 Z" fill="#000000" fill-rule="nonzero" fill-opacity="1"></path><path clip-path="url(#clip600)" d="M3591.58 1576.09 L3604.94 1576.09 L3604.94 1529.96 L3590.4 1532.87 L3590.4 1525.42 L3604.86 1522.5 L3613.04 1522.5 L3613.04 1576.09 L3626.41 1576.09 L3626.41 1582.98 L3591.58 1582.98 L3591.58 1576.09 Z" fill="#000000" fill-rule="nonzero" fill-opacity="1"></path><path clip-path="url(#clip600)" d="M3660.44 1527.89 Q3654.12 1527.89 3650.92 1534.13 Q3647.76 1540.33 3647.76 1552.8 Q3647.76 1565.24 3650.92 1571.48 Q3654.12 1577.67 3660.44 1577.67 Q3666.8 1577.67 3669.96 1571.48 Q3673.16 1565.24 3673.16 1552.8 Q3673.16 1540.33 3669.96 1534.13 Q3666.8 1527.89 3660.44 1527.89 M3660.44 1521.41 Q3670.61 1521.41 3675.96 1529.47 Q3681.34 1537.49 3681.34 1552.8 Q3681.34 1568.07 3675.96 1576.14 Q3670.61 1584.16 3660.44 1584.16 Q3650.27 1584.16 3644.88 1576.14 Q3639.54 1568.07 3639.54 1552.8 Q3639.54 1537.49 3644.88 1529.47 Q3650.27 1521.41 3660.44 1521.41 Z" fill="#000000" fill-rule="nonzero" fill-opacity="1"></path><path clip-path="url(#clip600)" d="M3711.81 1556.97 L3700.38 1593.92 L3693.5 1593.92 L3704.92 1556.97 L3693.5 1520.03 L3700.38 1520.03 L3711.81 1556.97 Z" fill="#000000" fill-rule="nonzero" fill-opacity="1"></path><circle clip-path="url(#clip602)" style="fill:#3da44d; stroke:none; fill-opacity:1" cx="281.339" cy="100.792" r="2"></circle>
<circle clip-path="url(#clip602)" style="fill:#3da44d; stroke:none; fill-opacity:1" cx="749.528" cy="100.792" r="2"></circle>
<circle clip-path="url(#clip602)" style="fill:#3da44d; stroke:none; fill-opacity:1" cx="1217.72" cy="100.792" r="2"></circle>
<circle clip-path="url(#clip602)" style="fill:#3da44d; stroke:none; fill-opacity:1" cx="1685.91" cy="100.792" r="2"></circle>
<circle clip-path="url(#clip602)" style="fill:#3da44d; stroke:none; fill-opacity:1" cx="2154.09" cy="100.792" r="2"></circle>
<circle clip-path="url(#clip602)" style="fill:#3da44d; stroke:none; fill-opacity:1" cx="2622.28" cy="100.792" r="2"></circle>
<circle clip-path="url(#clip602)" style="fill:#3da44d; stroke:none; fill-opacity:1" cx="3090.47" cy="100.792" r="2"></circle>
<circle clip-path="url(#clip602)" style="fill:#3da44d; stroke:none; fill-opacity:1" cx="3558.66" cy="100.792" r="2"></circle>
<path clip-path="url(#clip600)" d="M131.475 124.146 L144.843 124.146 L144.843 78.0058 L130.301 80.9224 L130.301 73.4688 L144.762 70.5521 L152.945 70.5521 L152.945 124.146 L166.313 124.146 L166.313 131.032 L131.475 131.032 L131.475 124.146 Z" fill="#000000" fill-rule="nonzero" fill-opacity="1"></path><path clip-path="url(#clip600)" d="M200.341 75.9398 Q194.021 75.9398 190.821 82.1782 Q187.661 88.3761 187.661 100.853 Q187.661 113.289 190.821 119.528 Q194.021 125.725 200.341 125.725 Q206.701 125.725 209.86 119.528 Q213.061 113.289 213.061 100.853 Q213.061 88.3761 209.86 82.1782 Q206.701 75.9398 200.341 75.9398 M200.341 69.4584 Q210.509 69.4584 215.856 77.5197 Q221.243 85.5405 221.243 100.853 Q221.243 116.125 215.856 124.186 Q210.509 132.207 200.341 132.207 Q190.173 132.207 184.785 124.186 Q179.438 116.125 179.438 100.853 Q179.438 85.5405 184.785 77.5197 Q190.173 69.4584 200.341 69.4584 Z" fill="#000000" fill-rule="nonzero" fill-opacity="1"></path><path clip-path="url(#clip600)" d="M253.124 75.9398 Q246.805 75.9398 243.604 82.1782 Q240.445 88.3761 240.445 100.853 Q240.445 113.289 243.604 119.528 Q246.805 125.725 253.124 125.725 Q259.484 125.725 262.644 119.528 Q265.844 113.289 265.844 100.853 Q265.844 88.3761 262.644 82.1782 Q259.484 75.9398 253.124 75.9398 M253.124 69.4584 Q263.292 69.4584 268.639 77.5197 Q274.027 85.5405 274.027 100.853 Q274.027 116.125 268.639 124.186 Q263.292 132.207 253.124 132.207 Q242.956 132.207 237.569 124.186 Q232.221 116.125 232.221 100.853 Q232.221 85.5405 237.569 77.5197 Q242.956 69.4584 253.124 69.4584 Z" fill="#000000" fill-rule="nonzero" fill-opacity="1"></path><path clip-path="url(#clip600)" d="M305.907 75.9398 Q299.588 75.9398 296.388 82.1782 Q293.228 88.3761 293.228 100.853 Q293.228 113.289 296.388 119.528 Q299.588 125.725 305.907 125.725 Q312.267 125.725 315.427 119.528 Q318.627 113.289 318.627 100.853 Q318.627 88.3761 315.427 82.1782 Q312.267 75.9398 305.907 75.9398 M305.907 69.4584 Q316.075 69.4584 321.422 77.5197 Q326.81 85.5405 326.81 100.853 Q326.81 116.125 321.422 124.186 Q316.075 132.207 305.907 132.207 Q295.74 132.207 290.352 124.186 Q285.005 116.125 285.005 100.853 Q285.005 85.5405 290.352 77.5197 Q295.74 69.4584 305.907 69.4584 Z" fill="#000000" fill-rule="nonzero" fill-opacity="1"></path><path clip-path="url(#clip600)" d="M358.691 75.9398 Q352.371 75.9398 349.171 82.1782 Q346.011 88.3761 346.011 100.853 Q346.011 113.289 349.171 119.528 Q352.371 125.725 358.691 125.725 Q365.051 125.725 368.21 119.528 Q371.41 113.289 371.41 100.853 Q371.41 88.3761 368.21 82.1782 Q365.051 75.9398 358.691 75.9398 M358.691 69.4584 Q368.858 69.4584 374.206 77.5197 Q379.593 85.5405 379.593 100.853 Q379.593 116.125 374.206 124.186 Q368.858 132.207 358.691 132.207 Q348.523 132.207 343.135 124.186 Q337.788 116.125 337.788 100.853 Q337.788 85.5405 343.135 77.5197 Q348.523 69.4584 358.691 69.4584 Z" fill="#000000" fill-rule="nonzero" fill-opacity="1"></path><path clip-path="url(#clip600)" d="M411.474 75.9398 Q405.154 75.9398 401.954 82.1782 Q398.795 88.3761 398.795 100.853 Q398.795 113.289 401.954 119.528 Q405.154 125.725 411.474 125.725 Q417.834 125.725 420.994 119.528 Q424.194 113.289 424.194 100.853 Q424.194 88.3761 420.994 82.1782 Q417.834 75.9398 411.474 75.9398 M411.474 69.4584 Q421.642 69.4584 426.989 77.5197 Q432.377 85.5405 432.377 100.853 Q432.377 116.125 426.989 124.186 Q421.642 132.207 411.474 132.207 Q401.306 132.207 395.918 124.186 Q390.571 116.125 390.571 100.853 Q390.571 85.5405 395.918 77.5197 Q401.306 69.4584 411.474 69.4584 Z" fill="#000000" fill-rule="nonzero" fill-opacity="1"></path><path clip-path="url(#clip600)" d="M749.528 75.9398 Q743.208 75.9398 740.008 82.1782 Q736.848 88.3761 736.848 100.853 Q736.848 113.289 740.008 119.528 Q743.208 125.725 749.528 125.725 Q755.887 125.725 759.047 119.528 Q762.247 113.289 762.247 100.853 Q762.247 88.3761 759.047 82.1782 Q755.887 75.9398 749.528 75.9398 M749.528 69.4584 Q759.695 69.4584 765.043 77.5197 Q770.43 85.5405 770.43 100.853 Q770.43 116.125 765.043 124.186 Q759.695 132.207 749.528 132.207 Q739.36 132.207 733.972 124.186 Q728.625 116.125 728.625 100.853 Q728.625 85.5405 733.972 77.5197 Q739.36 69.4584 749.528 69.4584 Z" fill="#000000" fill-rule="nonzero" fill-opacity="1"></path><path clip-path="url(#clip600)" d="M1217.72 75.9398 Q1211.4 75.9398 1208.2 82.1782 Q1205.04 88.3761 1205.04 100.853 Q1205.04 113.289 1208.2 119.528 Q1211.4 125.725 1217.72 125.725 Q1224.08 125.725 1227.24 119.528 Q1230.44 113.289 1230.44 100.853 Q1230.44 88.3761 1227.24 82.1782 Q1224.08 75.9398 1217.72 75.9398 M1217.72 69.4584 Q1227.88 69.4584 1233.23 77.5197 Q1238.62 85.5405 1238.62 100.853 Q1238.62 116.125 1233.23 124.186 Q1227.88 132.207 1217.72 132.207 Q1207.55 132.207 1202.16 124.186 Q1196.81 116.125 1196.81 100.853 Q1196.81 85.5405 1202.16 77.5197 Q1207.55 69.4584 1217.72 69.4584 Z" fill="#000000" fill-rule="nonzero" fill-opacity="1"></path><path clip-path="url(#clip600)" d="M1685.91 75.9398 Q1679.59 75.9398 1676.39 82.1782 Q1673.23 88.3761 1673.23 100.853 Q1673.23 113.289 1676.39 119.528 Q1679.59 125.725 1685.91 125.725 Q1692.27 125.725 1695.43 119.528 Q1698.63 113.289 1698.63 100.853 Q1698.63 88.3761 1695.43 82.1782 Q1692.27 75.9398 1685.91 75.9398 M1685.91 69.4584 Q1696.07 69.4584 1701.42 77.5197 Q1706.81 85.5405 1706.81 100.853 Q1706.81 116.125 1701.42 124.186 Q1696.07 132.207 1685.91 132.207 Q1675.74 132.207 1670.35 124.186 Q1665 116.125 1665 100.853 Q1665 85.5405 1670.35 77.5197 Q1675.74 69.4584 1685.91 69.4584 Z" fill="#000000" fill-rule="nonzero" fill-opacity="1"></path><path clip-path="url(#clip600)" d="M2154.09 75.9398 Q2147.78 75.9398 2144.57 82.1782 Q2141.42 88.3761 2141.42 100.853 Q2141.42 113.289 2144.57 119.528 Q2147.78 125.725 2154.09 125.725 Q2160.45 125.725 2163.61 119.528 Q2166.81 113.289 2166.81 100.853 Q2166.81 88.3761 2163.61 82.1782 Q2160.45 75.9398 2154.09 75.9398 M2154.09 69.4584 Q2164.26 69.4584 2169.61 77.5197 Q2175 85.5405 2175 100.853 Q2175 116.125 2169.61 124.186 Q2164.26 132.207 2154.09 132.207 Q2143.93 132.207 2138.54 124.186 Q2133.19 116.125 2133.19 100.853 Q2133.19 85.5405 2138.54 77.5197 Q2143.93 69.4584 2154.09 69.4584 Z" fill="#000000" fill-rule="nonzero" fill-opacity="1"></path><path clip-path="url(#clip600)" d="M2622.28 75.9398 Q2615.96 75.9398 2612.76 82.1782 Q2609.6 88.3761 2609.6 100.853 Q2609.6 113.289 2612.76 119.528 Q2615.96 125.725 2622.28 125.725 Q2628.64 125.725 2631.8 119.528 Q2635 113.289 2635 100.853 Q2635 88.3761 2631.8 82.1782 Q2628.64 75.9398 2622.28 75.9398 M2622.28 69.4584 Q2632.45 69.4584 2637.8 77.5197 Q2643.19 85.5405 2643.19 100.853 Q2643.19 116.125 2637.8 124.186 Q2632.45 132.207 2622.28 132.207 Q2612.12 132.207 2606.73 124.186 Q2601.38 116.125 2601.38 100.853 Q2601.38 85.5405 2606.73 77.5197 Q2612.12 69.4584 2622.28 69.4584 Z" fill="#000000" fill-rule="nonzero" fill-opacity="1"></path><path clip-path="url(#clip600)" d="M3090.47 75.9398 Q3084.15 75.9398 3080.95 82.1782 Q3077.79 88.3761 3077.79 100.853 Q3077.79 113.289 3080.95 119.528 Q3084.15 125.725 3090.47 125.725 Q3096.83 125.725 3099.99 119.528 Q3103.19 113.289 3103.19 100.853 Q3103.19 88.3761 3099.99 82.1782 Q3096.83 75.9398 3090.47 75.9398 M3090.47 69.4584 Q3100.64 69.4584 3105.99 77.5197 Q3111.38 85.5405 3111.38 100.853 Q3111.38 116.125 3105.99 124.186 Q3100.64 132.207 3090.47 132.207 Q3080.3 132.207 3074.92 124.186 Q3069.57 116.125 3069.57 100.853 Q3069.57 85.5405 3074.92 77.5197 Q3080.3 69.4584 3090.47 69.4584 Z" fill="#000000" fill-rule="nonzero" fill-opacity="1"></path><path clip-path="url(#clip600)" d="M3558.66 75.9398 Q3552.34 75.9398 3549.14 82.1782 Q3545.98 88.3761 3545.98 100.853 Q3545.98 113.289 3549.14 119.528 Q3552.34 125.725 3558.66 125.725 Q3565.02 125.725 3568.18 119.528 Q3571.38 113.289 3571.38 100.853 Q3571.38 88.3761 3568.18 82.1782 Q3565.02 75.9398 3558.66 75.9398 M3558.66 69.4584 Q3568.83 69.4584 3574.18 77.5197 Q3579.56 85.5405 3579.56 100.853 Q3579.56 116.125 3574.18 124.186 Q3568.83 132.207 3558.66 132.207 Q3548.49 132.207 3543.11 124.186 Q3537.76 116.125 3537.76 100.853 Q3537.76 85.5405 3543.11 77.5197 Q3548.49 69.4584 3558.66 69.4584 Z" fill="#000000" fill-rule="nonzero" fill-opacity="1"></path><path clip-path="url(#clip600)" d="M2781.04 252.871 L3667.91 252.871 L3667.91 149.191 L2781.04 149.191  Z" fill="#000000" fill-rule="evenodd" fill-opacity="0"></path>
<polyline clip-path="url(#clip600)" style="stroke:#000000; stroke-linecap:round; stroke-linejoin:round; stroke-width:4; stroke-opacity:0; fill:none" points="2781.04,252.871 3667.91,252.871 3667.91,149.191 2781.04,149.191 2781.04,252.871 "></polyline>
<path clip-path="url(#clip600)" d="M2822.66 221.767 L3072.36 221.767 L3072.36 180.295 L2822.66 180.295 L2822.66 221.767  Z" fill="#ff0000" fill-rule="evenodd" fill-opacity="1"></path>
<polyline clip-path="url(#clip600)" style="stroke:#add8e6; stroke-linecap:round; stroke-linejoin:round; stroke-width:4; stroke-opacity:1; fill:none" points="2822.66,221.767 3072.36,221.767 3072.36,180.295 2822.66,180.295 2822.66,221.767 "></polyline>
<path clip-path="url(#clip600)" d="M3113.98 183.751 L3133.84 183.751 L3133.84 187.686 L3118.65 187.686 L3118.65 197.871 L3132.36 197.871 L3132.36 201.806 L3118.65 201.806 L3118.65 218.311 L3113.98 218.311 L3113.98 183.751 Z" fill="#000000" fill-rule="nonzero" fill-opacity="1"></path><path clip-path="url(#clip600)" d="M3149.42 195.371 Q3145.99 195.371 3144 198.056 Q3142.01 200.718 3142.01 205.371 Q3142.01 210.024 3143.98 212.709 Q3145.97 215.371 3149.42 215.371 Q3152.82 215.371 3154.81 212.686 Q3156.8 210.001 3156.8 205.371 Q3156.8 200.765 3154.81 198.08 Q3152.82 195.371 3149.42 195.371 M3149.42 191.76 Q3154.97 191.76 3158.14 195.371 Q3161.31 198.982 3161.31 205.371 Q3161.31 211.737 3158.14 215.371 Q3154.97 218.982 3149.42 218.982 Q3143.84 218.982 3140.67 215.371 Q3137.52 211.737 3137.52 205.371 Q3137.52 198.982 3140.67 195.371 Q3143.84 191.76 3149.42 191.76 Z" fill="#000000" fill-rule="nonzero" fill-opacity="1"></path><path clip-path="url(#clip600)" d="M3167.93 208.079 L3167.93 192.385 L3172.19 192.385 L3172.19 207.917 Q3172.19 211.598 3173.63 213.45 Q3175.06 215.279 3177.93 215.279 Q3181.38 215.279 3183.37 213.079 Q3185.39 210.88 3185.39 207.084 L3185.39 192.385 L3189.65 192.385 L3189.65 218.311 L3185.39 218.311 L3185.39 214.329 Q3183.84 216.691 3181.78 217.848 Q3179.74 218.982 3177.03 218.982 Q3172.56 218.982 3170.25 216.204 Q3167.93 213.427 3167.93 208.079 M3178.65 191.76 L3178.65 191.76 Z" fill="#000000" fill-rule="nonzero" fill-opacity="1"></path><path clip-path="url(#clip600)" d="M3219.97 202.663 L3219.97 218.311 L3215.71 218.311 L3215.71 202.802 Q3215.71 199.121 3214.28 197.293 Q3212.84 195.464 3209.97 195.464 Q3206.52 195.464 3204.53 197.663 Q3202.54 199.862 3202.54 203.658 L3202.54 218.311 L3198.26 218.311 L3198.26 192.385 L3202.54 192.385 L3202.54 196.413 Q3204.07 194.075 3206.13 192.918 Q3208.21 191.76 3210.92 191.76 Q3215.39 191.76 3217.68 194.538 Q3219.97 197.293 3219.97 202.663 Z" fill="#000000" fill-rule="nonzero" fill-opacity="1"></path><path clip-path="url(#clip600)" d="M3245.53 196.32 L3245.53 182.293 L3249.79 182.293 L3249.79 218.311 L3245.53 218.311 L3245.53 214.422 Q3244.18 216.737 3242.12 217.871 Q3240.09 218.982 3237.22 218.982 Q3232.52 218.982 3229.55 215.232 Q3226.61 211.482 3226.61 205.371 Q3226.61 199.26 3229.55 195.51 Q3232.52 191.76 3237.22 191.76 Q3240.09 191.76 3242.12 192.894 Q3244.18 194.005 3245.53 196.32 M3231.01 205.371 Q3231.01 210.07 3232.93 212.755 Q3234.88 215.417 3238.26 215.417 Q3241.64 215.417 3243.58 212.755 Q3245.53 210.07 3245.53 205.371 Q3245.53 200.672 3243.58 198.01 Q3241.64 195.325 3238.26 195.325 Q3234.88 195.325 3232.93 198.01 Q3231.01 200.672 3231.01 205.371 Z" fill="#000000" fill-rule="nonzero" fill-opacity="1"></path><path clip-path="url(#clip600)" d="M3273.63 192.385 L3277.89 192.385 L3277.89 218.311 L3273.63 218.311 L3273.63 192.385 M3273.63 182.293 L3277.89 182.293 L3277.89 187.686 L3273.63 187.686 L3273.63 182.293 Z" fill="#000000" fill-rule="nonzero" fill-opacity="1"></path><path clip-path="url(#clip600)" d="M3308.35 202.663 L3308.35 218.311 L3304.09 218.311 L3304.09 202.802 Q3304.09 199.121 3302.66 197.293 Q3301.22 195.464 3298.35 195.464 Q3294.9 195.464 3292.91 197.663 Q3290.92 199.862 3290.92 203.658 L3290.92 218.311 L3286.64 218.311 L3286.64 192.385 L3290.92 192.385 L3290.92 196.413 Q3292.45 194.075 3294.51 192.918 Q3296.59 191.76 3299.3 191.76 Q3303.77 191.76 3306.06 194.538 Q3308.35 197.293 3308.35 202.663 Z" fill="#000000" fill-rule="nonzero" fill-opacity="1"></path><path clip-path="url(#clip600)" d="M3333.33 214.376 L3340.97 214.376 L3340.97 188.01 L3332.66 189.677 L3332.66 185.418 L3340.92 183.751 L3345.6 183.751 L3345.6 214.376 L3353.23 214.376 L3353.23 218.311 L3333.33 218.311 L3333.33 214.376 Z" fill="#000000" fill-rule="nonzero" fill-opacity="1"></path><path clip-path="url(#clip600)" d="M3372.68 186.83 Q3369.07 186.83 3367.24 190.394 Q3365.43 193.936 3365.43 201.066 Q3365.43 208.172 3367.24 211.737 Q3369.07 215.279 3372.68 215.279 Q3376.31 215.279 3378.12 211.737 Q3379.95 208.172 3379.95 201.066 Q3379.95 193.936 3378.12 190.394 Q3376.31 186.83 3372.68 186.83 M3372.68 183.126 Q3378.49 183.126 3381.54 187.732 Q3384.62 192.316 3384.62 201.066 Q3384.62 209.792 3381.54 214.399 Q3378.49 218.982 3372.68 218.982 Q3366.87 218.982 3363.79 214.399 Q3360.73 209.792 3360.73 201.066 Q3360.73 192.316 3363.79 187.732 Q3366.87 183.126 3372.68 183.126 Z" fill="#000000" fill-rule="nonzero" fill-opacity="1"></path><path clip-path="url(#clip600)" d="M3402.84 186.83 Q3399.23 186.83 3397.4 190.394 Q3395.6 193.936 3395.6 201.066 Q3395.6 208.172 3397.4 211.737 Q3399.23 215.279 3402.84 215.279 Q3406.48 215.279 3408.28 211.737 Q3410.11 208.172 3410.11 201.066 Q3410.11 193.936 3408.28 190.394 Q3406.48 186.83 3402.84 186.83 M3402.84 183.126 Q3408.65 183.126 3411.71 187.732 Q3414.79 192.316 3414.79 201.066 Q3414.79 209.792 3411.71 214.399 Q3408.65 218.982 3402.84 218.982 Q3397.03 218.982 3393.95 214.399 Q3390.9 209.792 3390.9 201.066 Q3390.9 192.316 3393.95 187.732 Q3397.03 183.126 3402.84 183.126 Z" fill="#000000" fill-rule="nonzero" fill-opacity="1"></path><path clip-path="url(#clip600)" d="M3433 186.83 Q3429.39 186.83 3427.56 190.394 Q3425.76 193.936 3425.76 201.066 Q3425.76 208.172 3427.56 211.737 Q3429.39 215.279 3433 215.279 Q3436.64 215.279 3438.44 211.737 Q3440.27 208.172 3440.27 201.066 Q3440.27 193.936 3438.44 190.394 Q3436.64 186.83 3433 186.83 M3433 183.126 Q3438.81 183.126 3441.87 187.732 Q3444.95 192.316 3444.95 201.066 Q3444.95 209.792 3441.87 214.399 Q3438.81 218.982 3433 218.982 Q3427.19 218.982 3424.11 214.399 Q3421.06 209.792 3421.06 201.066 Q3421.06 192.316 3424.11 187.732 Q3427.19 183.126 3433 183.126 Z" fill="#000000" fill-rule="nonzero" fill-opacity="1"></path><path clip-path="url(#clip600)" d="M3463.16 186.83 Q3459.55 186.83 3457.72 190.394 Q3455.92 193.936 3455.92 201.066 Q3455.92 208.172 3457.72 211.737 Q3459.55 215.279 3463.16 215.279 Q3466.8 215.279 3468.6 211.737 Q3470.43 208.172 3470.43 201.066 Q3470.43 193.936 3468.6 190.394 Q3466.8 186.83 3463.16 186.83 M3463.16 183.126 Q3468.97 183.126 3472.03 187.732 Q3475.11 192.316 3475.11 201.066 Q3475.11 209.792 3472.03 214.399 Q3468.97 218.982 3463.16 218.982 Q3457.35 218.982 3454.28 214.399 Q3451.22 209.792 3451.22 201.066 Q3451.22 192.316 3454.28 187.732 Q3457.35 183.126 3463.16 183.126 Z" fill="#000000" fill-rule="nonzero" fill-opacity="1"></path><path clip-path="url(#clip600)" d="M3493.33 186.83 Q3489.72 186.83 3487.89 190.394 Q3486.08 193.936 3486.08 201.066 Q3486.08 208.172 3487.89 211.737 Q3489.72 215.279 3493.33 215.279 Q3496.96 215.279 3498.77 211.737 Q3500.59 208.172 3500.59 201.066 Q3500.59 193.936 3498.77 190.394 Q3496.96 186.83 3493.33 186.83 M3493.33 183.126 Q3499.14 183.126 3502.19 187.732 Q3505.27 192.316 3505.27 201.066 Q3505.27 209.792 3502.19 214.399 Q3499.14 218.982 3493.33 218.982 Q3487.52 218.982 3484.44 214.399 Q3481.38 209.792 3481.38 201.066 Q3481.38 192.316 3484.44 187.732 Q3487.52 183.126 3493.33 183.126 Z" fill="#000000" fill-rule="nonzero" fill-opacity="1"></path><path clip-path="url(#clip600)" d="M3532.17 185.024 L3532.17 192.385 L3540.94 192.385 L3540.94 195.695 L3532.17 195.695 L3532.17 209.769 Q3532.17 212.941 3533.03 213.843 Q3533.9 214.746 3536.57 214.746 L3540.94 214.746 L3540.94 218.311 L3536.57 218.311 Q3531.64 218.311 3529.76 216.482 Q3527.89 214.63 3527.89 209.769 L3527.89 195.695 L3524.76 195.695 L3524.76 192.385 L3527.89 192.385 L3527.89 185.024 L3532.17 185.024 Z" fill="#000000" fill-rule="nonzero" fill-opacity="1"></path><path clip-path="url(#clip600)" d="M3561.57 196.367 Q3560.85 195.95 3559.99 195.765 Q3559.16 195.556 3558.14 195.556 Q3554.53 195.556 3552.59 197.918 Q3550.66 200.255 3550.66 204.654 L3550.66 218.311 L3546.38 218.311 L3546.38 192.385 L3550.66 192.385 L3550.66 196.413 Q3552.01 194.052 3554.16 192.918 Q3556.31 191.76 3559.39 191.76 Q3559.83 191.76 3560.36 191.83 Q3560.9 191.876 3561.54 191.992 L3561.57 196.367 Z" fill="#000000" fill-rule="nonzero" fill-opacity="1"></path><path clip-path="url(#clip600)" d="M3566.03 192.385 L3570.29 192.385 L3570.29 218.311 L3566.03 218.311 L3566.03 192.385 M3566.03 182.293 L3570.29 182.293 L3570.29 187.686 L3566.03 187.686 L3566.03 182.293 Z" fill="#000000" fill-rule="nonzero" fill-opacity="1"></path><path clip-path="url(#clip600)" d="M3601.38 204.283 L3601.38 206.367 L3581.8 206.367 Q3582.08 210.765 3584.44 213.079 Q3586.82 215.371 3591.06 215.371 Q3593.51 215.371 3595.8 214.769 Q3598.12 214.167 3600.39 212.964 L3600.39 216.991 Q3598.09 217.964 3595.69 218.473 Q3593.28 218.982 3590.8 218.982 Q3584.6 218.982 3580.96 215.371 Q3577.35 211.76 3577.35 205.603 Q3577.35 199.237 3580.78 195.51 Q3584.23 191.76 3590.06 191.76 Q3595.29 191.76 3598.33 195.14 Q3601.38 198.496 3601.38 204.283 M3597.12 203.033 Q3597.08 199.538 3595.15 197.455 Q3593.26 195.371 3590.11 195.371 Q3586.54 195.371 3584.39 197.385 Q3582.26 199.399 3581.94 203.056 L3597.12 203.033 Z" fill="#000000" fill-rule="nonzero" fill-opacity="1"></path><path clip-path="url(#clip600)" d="M3624.9 193.149 L3624.9 197.177 Q3623.09 196.251 3621.15 195.788 Q3619.21 195.325 3617.12 195.325 Q3613.95 195.325 3612.35 196.297 Q3610.78 197.269 3610.78 199.214 Q3610.78 200.695 3611.91 201.552 Q3613.05 202.385 3616.47 203.149 L3617.93 203.473 Q3622.47 204.445 3624.37 206.228 Q3626.29 207.987 3626.29 211.158 Q3626.29 214.769 3623.42 216.876 Q3620.57 218.982 3615.57 218.982 Q3613.49 218.982 3611.22 218.566 Q3608.97 218.172 3606.47 217.362 L3606.47 212.964 Q3608.84 214.191 3611.13 214.816 Q3613.42 215.417 3615.66 215.417 Q3618.67 215.417 3620.29 214.399 Q3621.91 213.357 3621.91 211.482 Q3621.91 209.746 3620.73 208.82 Q3619.58 207.894 3615.62 207.038 L3614.14 206.691 Q3610.18 205.857 3608.42 204.144 Q3606.66 202.408 3606.66 199.399 Q3606.66 195.742 3609.25 193.751 Q3611.84 191.76 3616.61 191.76 Q3618.97 191.76 3621.06 192.107 Q3623.14 192.455 3624.9 193.149 Z" fill="#000000" fill-rule="nonzero" fill-opacity="1"></path></svg>