<svg xmlns="http://www.w3.org/2000/svg" xmlns:xlink="http://www.w3.org/1999/xlink" width="600" height="400" viewBox="0 0 2400 1600">
<defs>
  <clipPath id="clip730">
    <rect x="0" y="0" width="2400" height="1600"></rect>
  </clipPath>
</defs>
<path clip-path="url(#clip730)" d="M0 1600 L2400 1600 L2400 0 L0 0  Z" fill="#ffffff" fill-rule="evenodd" fill-opacity="1"></path>
<defs>
  <clipPath id="clip731">
    <rect x="480" y="0" width="1681" height="1600"></rect>
  </clipPath>
</defs>
<path clip-path="url(#clip730)" d="M47.2441 1552.76 L2352.76 1552.76 L2352.76 123.472 L47.2441 123.472  Z" fill="#ffffff" fill-rule="evenodd" fill-opacity="1"></path>
<defs>
  <clipPath id="clip732">
    <rect x="47" y="123" width="2307" height="1430"></rect>
  </clipPath>
</defs>
<path clip-path="url(#clip730)" d="M992.411 12.096 L1000.59 12.096 L1000.59 36.8875 L1030.33 36.8875 L1030.33 12.096 L1038.51 12.096 L1038.51 72.576 L1030.33 72.576 L1030.33 43.7741 L1000.59 43.7741 L1000.59 72.576 L992.411 72.576 L992.411 12.096 Z" fill="#000000" fill-rule="nonzero" fill-opacity="1"></path><path clip-path="url(#clip730)" d="M1054.47 27.2059 L1061.92 27.2059 L1061.92 72.576 L1054.47 72.576 L1054.47 27.2059 M1054.47 9.54393 L1061.92 9.54393 L1061.92 18.9825 L1054.47 18.9825 L1054.47 9.54393 Z" fill="#000000" fill-rule="nonzero" fill-opacity="1"></path><path clip-path="url(#clip730)" d="M1106.44 28.5427 L1106.44 35.5912 Q1103.28 33.9709 1099.88 33.1607 Q1096.48 32.3505 1092.83 32.3505 Q1087.28 32.3505 1084.49 34.0519 Q1081.73 35.7533 1081.73 39.156 Q1081.73 41.7486 1083.72 43.2475 Q1085.7 44.7058 1091.7 46.0426 L1094.25 46.6097 Q1102.19 48.3111 1105.51 51.4303 Q1108.87 54.509 1108.87 60.0587 Q1108.87 66.3781 1103.85 70.0644 Q1098.87 73.7508 1090.12 73.7508 Q1086.47 73.7508 1082.5 73.0216 Q1078.57 72.3329 1074.2 70.9151 L1074.2 63.2184 Q1078.33 65.3654 1082.34 66.4591 Q1086.35 67.5124 1090.28 67.5124 Q1095.55 67.5124 1098.38 65.73 Q1101.22 63.9071 1101.22 60.6258 Q1101.22 57.5877 1099.15 55.9673 Q1097.13 54.3469 1090.2 52.8481 L1087.61 52.2405 Q1080.68 50.7821 1077.6 47.7845 Q1074.52 44.7463 1074.52 39.4801 Q1074.52 33.0797 1079.06 29.5959 Q1083.6 26.1121 1091.94 26.1121 Q1096.07 26.1121 1099.72 26.7198 Q1103.37 27.3274 1106.44 28.5427 Z" fill="#000000" fill-rule="nonzero" fill-opacity="1"></path><path clip-path="url(#clip730)" d="M1128.12 14.324 L1128.12 27.2059 L1143.47 27.2059 L1143.47 32.9987 L1128.12 32.9987 L1128.12 57.6282 Q1128.12 63.1779 1129.62 64.7578 Q1131.15 66.3376 1135.81 66.3376 L1143.47 66.3376 L1143.47 72.576 L1135.81 72.576 Q1127.18 72.576 1123.9 69.3758 Q1120.62 66.1351 1120.62 57.6282 L1120.62 32.9987 L1115.15 32.9987 L1115.15 27.2059 L1120.62 27.2059 L1120.62 14.324 L1128.12 14.324 Z" fill="#000000" fill-rule="nonzero" fill-opacity="1"></path><path clip-path="url(#clip730)" d="M1170.85 32.4315 Q1164.86 32.4315 1161.37 37.1306 Q1157.89 41.7891 1157.89 49.9314 Q1157.89 58.0738 1161.33 62.7728 Q1164.82 67.4314 1170.85 67.4314 Q1176.81 67.4314 1180.29 62.7323 Q1183.78 58.0333 1183.78 49.9314 Q1183.78 41.8701 1180.29 37.1711 Q1176.81 32.4315 1170.85 32.4315 M1170.85 26.1121 Q1180.58 26.1121 1186.13 32.4315 Q1191.68 38.7509 1191.68 49.9314 Q1191.68 61.0714 1186.13 67.4314 Q1180.58 73.7508 1170.85 73.7508 Q1161.09 73.7508 1155.54 67.4314 Q1150.03 61.0714 1150.03 49.9314 Q1150.03 38.7509 1155.54 32.4315 Q1161.09 26.1121 1170.85 26.1121 Z" fill="#000000" fill-rule="nonzero" fill-opacity="1"></path><path clip-path="url(#clip730)" d="M1233.89 49.3643 Q1233.89 41.2625 1230.52 36.8065 Q1227.2 32.3505 1221.17 32.3505 Q1215.17 32.3505 1211.81 36.8065 Q1208.49 41.2625 1208.49 49.3643 Q1208.49 57.4256 1211.81 61.8816 Q1215.17 66.3376 1221.17 66.3376 Q1227.2 66.3376 1230.52 61.8816 Q1233.89 57.4256 1233.89 49.3643 M1241.34 66.9452 Q1241.34 78.5308 1236.19 84.1616 Q1231.05 89.8329 1220.44 89.8329 Q1216.51 89.8329 1213.02 89.2252 Q1209.54 88.6581 1206.26 87.4428 L1206.26 80.1917 Q1209.54 81.9741 1212.74 82.8248 Q1215.94 83.6755 1219.26 83.6755 Q1226.59 83.6755 1230.24 79.8271 Q1233.89 76.0193 1233.89 68.282 L1233.89 64.5957 Q1231.58 68.6061 1227.97 70.5911 Q1224.37 72.576 1219.34 72.576 Q1211 72.576 1205.89 66.2161 Q1200.79 59.8562 1200.79 49.3643 Q1200.79 38.832 1205.89 32.472 Q1211 26.1121 1219.34 26.1121 Q1224.37 26.1121 1227.97 28.0971 Q1231.58 30.082 1233.89 34.0924 L1233.89 27.2059 L1241.34 27.2059 L1241.34 66.9452 Z" fill="#000000" fill-rule="nonzero" fill-opacity="1"></path><path clip-path="url(#clip730)" d="M1282.98 34.1734 Q1281.73 33.4443 1280.23 33.1202 Q1278.77 32.7556 1276.99 32.7556 Q1270.67 32.7556 1267.27 36.8875 Q1263.9 40.9789 1263.9 48.6757 L1263.9 72.576 L1256.41 72.576 L1256.41 27.2059 L1263.9 27.2059 L1263.9 34.2544 Q1266.25 30.1225 1270.02 28.1376 Q1273.79 26.1121 1279.17 26.1121 Q1279.94 26.1121 1280.88 26.2337 Q1281.81 26.3147 1282.94 26.5172 L1282.98 34.1734 Z" fill="#000000" fill-rule="nonzero" fill-opacity="1"></path><path clip-path="url(#clip730)" d="M1311.42 49.7694 Q1302.39 49.7694 1298.9 51.8354 Q1295.42 53.9013 1295.42 58.8839 Q1295.42 62.8538 1298.01 65.2034 Q1300.64 67.5124 1305.14 67.5124 Q1311.34 67.5124 1315.07 63.1374 Q1318.83 58.7219 1318.83 51.4303 L1318.83 49.7694 L1311.42 49.7694 M1326.29 46.6907 L1326.29 72.576 L1318.83 72.576 L1318.83 65.6895 Q1316.28 69.8214 1312.47 71.8063 Q1308.67 73.7508 1303.16 73.7508 Q1296.19 73.7508 1292.06 69.8619 Q1287.97 65.9325 1287.97 59.3701 Q1287.97 51.7138 1293.07 47.825 Q1298.21 43.9361 1308.38 43.9361 L1318.83 43.9361 L1318.83 43.2069 Q1318.83 38.0623 1315.43 35.2672 Q1312.07 32.4315 1305.95 32.4315 Q1302.06 32.4315 1298.38 33.3632 Q1294.69 34.295 1291.29 36.1584 L1291.29 29.2718 Q1295.38 27.692 1299.23 26.9223 Q1303.08 26.1121 1306.72 26.1121 Q1316.56 26.1121 1321.43 31.2163 Q1326.29 36.3204 1326.29 46.6907 Z" fill="#000000" fill-rule="nonzero" fill-opacity="1"></path><path clip-path="url(#clip730)" d="M1376.96 35.9153 Q1379.76 30.8922 1383.65 28.5022 Q1387.54 26.1121 1392.8 26.1121 Q1399.89 26.1121 1403.74 31.0947 Q1407.59 36.0368 1407.59 45.1919 L1407.59 72.576 L1400.09 72.576 L1400.09 45.4349 Q1400.09 38.913 1397.79 35.7533 Q1395.48 32.5936 1390.74 32.5936 Q1384.94 32.5936 1381.58 36.4419 Q1378.22 40.2903 1378.22 46.9338 L1378.22 72.576 L1370.73 72.576 L1370.73 45.4349 Q1370.73 38.8725 1368.42 35.7533 Q1366.11 32.5936 1361.29 32.5936 Q1355.57 32.5936 1352.21 36.4824 Q1348.85 40.3308 1348.85 46.9338 L1348.85 72.576 L1341.36 72.576 L1341.36 27.2059 L1348.85 27.2059 L1348.85 34.2544 Q1351.4 30.082 1354.97 28.0971 Q1358.53 26.1121 1363.43 26.1121 Q1368.38 26.1121 1371.82 28.6237 Q1375.3 31.1352 1376.96 35.9153 Z" fill="#000000" fill-rule="nonzero" fill-opacity="1"></path><path clip-path="url(#clip732)" d="M-68.0315 123.472 L-68.0315 1552.76 L162.52 1552.76 L162.52 123.472 L-68.0315 123.472 L-68.0315 123.472  Z" fill="#add8e6" fill-rule="evenodd" fill-opacity="1"></path>
<polyline clip-path="url(#clip732)" style="stroke:#add8e6; stroke-linecap:round; stroke-linejoin:round; stroke-width:4; stroke-opacity:1; fill:none" points="-68.0315,123.472 -68.0315,1552.76 162.52,1552.76 162.52,123.472 -68.0315,123.472 "></polyline>
<path clip-path="url(#clip732)" d="M220.157 1552.76 L220.157 1552.76 L450.709 1552.76 L450.709 1552.76 L220.157 1552.76 L220.157 1552.76  Z" fill="#add8e6" fill-rule="evenodd" fill-opacity="1"></path>
<polyline clip-path="url(#clip732)" style="stroke:#add8e6; stroke-linecap:round; stroke-linejoin:round; stroke-width:4; stroke-opacity:1; fill:none" points="220.157,1552.76 220.157,1552.76 450.709,1552.76 220.157,1552.76 "></polyline>
<path clip-path="url(#clip732)" d="M508.346 1552.76 L508.346 1552.76 L738.898 1552.76 L738.898 1552.76 L508.346 1552.76 L508.346 1552.76  Z" fill="#add8e6" fill-rule="evenodd" fill-opacity="1"></path>
<polyline clip-path="url(#clip732)" style="stroke:#add8e6; stroke-linecap:round; stroke-linejoin:round; stroke-width:4; stroke-opacity:1; fill:none" points="508.346,1552.76 508.346,1552.76 738.898,1552.76 508.346,1552.76 "></polyline>
<path clip-path="url(#clip732)" d="M796.535 284.67 L796.535 1552.76 L1027.09 1552.76 L1027.09 284.67 L796.535 284.67 L796.535 284.67  Z" fill="#add8e6" fill-rule="evenodd" fill-opacity="1"></path>
<polyline clip-path="url(#clip732)" style="stroke:#add8e6; stroke-linecap:round; stroke-linejoin:round; stroke-width:4; stroke-opacity:1; fill:none" points="796.535,284.67 796.535,1552.76 1027.09,1552.76 1027.09,284.67 796.535,284.67 "></polyline>
<path clip-path="url(#clip732)" d="M1084.72 940.206 L1084.72 1552.76 L1315.28 1552.76 L1315.28 940.206 L1084.72 940.206 L1084.72 940.206  Z" fill="#add8e6" fill-rule="evenodd" fill-opacity="1"></path>
<polyline clip-path="url(#clip732)" style="stroke:#add8e6; stroke-linecap:round; stroke-linejoin:round; stroke-width:4; stroke-opacity:1; fill:none" points="1084.72,940.206 1084.72,1552.76 1315.28,1552.76 1315.28,940.206 1084.72,940.206 "></polyline>
<path clip-path="url(#clip732)" d="M1372.91 918.713 L1372.91 1552.76 L1603.46 1552.76 L1603.46 918.713 L1372.91 918.713 L1372.91 918.713  Z" fill="#add8e6" fill-rule="evenodd" fill-opacity="1"></path>
<polyline clip-path="url(#clip732)" style="stroke:#add8e6; stroke-linecap:round; stroke-linejoin:round; stroke-width:4; stroke-opacity:1; fill:none" points="1372.91,918.713 1372.91,1552.76 1603.46,1552.76 1603.46,918.713 1372.91,918.713 "></polyline>
<path clip-path="url(#clip732)" d="M1661.1 859.607 L1661.1 1552.76 L1891.65 1552.76 L1891.65 859.607 L1661.1 859.607 L1661.1 859.607  Z" fill="#add8e6" fill-rule="evenodd" fill-opacity="1"></path>
<polyline clip-path="url(#clip732)" style="stroke:#add8e6; stroke-linecap:round; stroke-linejoin:round; stroke-width:4; stroke-opacity:1; fill:none" points="1661.1,859.607 1661.1,1552.76 1891.65,1552.76 1891.65,859.607 1661.1,859.607 "></polyline>
<path clip-path="url(#clip732)" d="M1949.29 816.621 L1949.29 1552.76 L2179.84 1552.76 L2179.84 816.621 L1949.29 816.621 L1949.29 816.621  Z" fill="#add8e6" fill-rule="evenodd" fill-opacity="1"></path>
<polyline clip-path="url(#clip732)" style="stroke:#add8e6; stroke-linecap:round; stroke-linejoin:round; stroke-width:4; stroke-opacity:1; fill:none" points="1949.29,816.621 1949.29,1552.76 2179.84,1552.76 2179.84,816.621 1949.29,816.621 "></polyline>
<circle clip-path="url(#clip732)" style="fill:#add8e6; stroke:none; fill-opacity:0" cx="47.2441" cy="123.472" r="2"></circle>
<circle clip-path="url(#clip732)" style="fill:#add8e6; stroke:none; fill-opacity:0" cx="335.433" cy="1552.76" r="2"></circle>
<circle clip-path="url(#clip732)" style="fill:#add8e6; stroke:none; fill-opacity:0" cx="623.622" cy="1552.76" r="2"></circle>
<circle clip-path="url(#clip732)" style="fill:#add8e6; stroke:none; fill-opacity:0" cx="911.811" cy="284.67" r="2"></circle>
<circle clip-path="url(#clip732)" style="fill:#add8e6; stroke:none; fill-opacity:0" cx="1200" cy="940.206" r="2"></circle>
<circle clip-path="url(#clip732)" style="fill:#add8e6; stroke:none; fill-opacity:0" cx="1488.19" cy="918.713" r="2"></circle>
<circle clip-path="url(#clip732)" style="fill:#add8e6; stroke:none; fill-opacity:0" cx="1776.38" cy="859.607" r="2"></circle>
<circle clip-path="url(#clip732)" style="fill:#add8e6; stroke:none; fill-opacity:0" cx="2064.57" cy="816.621" r="2"></circle>
<circle clip-path="url(#clip732)" style="fill:#e26f46; stroke:none; fill-opacity:1" cx="47.2441" cy="1547.38" r="2"></circle>
<circle clip-path="url(#clip732)" style="fill:#e26f46; stroke:none; fill-opacity:1" cx="335.433" cy="1547.38" r="2"></circle>
<circle clip-path="url(#clip732)" style="fill:#e26f46; stroke:none; fill-opacity:1" cx="623.622" cy="1547.38" r="2"></circle>
<circle clip-path="url(#clip732)" style="fill:#e26f46; stroke:none; fill-opacity:1" cx="911.811" cy="1547.38" r="2"></circle>
<circle clip-path="url(#clip732)" style="fill:#e26f46; stroke:none; fill-opacity:1" cx="1200" cy="1547.38" r="2"></circle>
<circle clip-path="url(#clip732)" style="fill:#e26f46; stroke:none; fill-opacity:1" cx="1488.19" cy="1547.38" r="2"></circle>
<circle clip-path="url(#clip732)" style="fill:#e26f46; stroke:none; fill-opacity:1" cx="1776.38" cy="1547.38" r="2"></circle>
<circle clip-path="url(#clip732)" style="fill:#e26f46; stroke:none; fill-opacity:1" cx="2064.57" cy="1547.38" r="2"></circle>
<path clip-path="url(#clip730)" d="M-46.2305 1514.23 L-46.2305 1597.19 L-53.1171 1597.19 L-53.1171 1514.23 L-46.2305 1514.23 Z" fill="#000000" fill-rule="nonzero" fill-opacity="1"></path><path clip-path="url(#clip730)" d="M-9.32678 1522.53 Q-15.6462 1522.53 -18.8464 1528.77 Q-22.0061 1534.97 -22.0061 1547.44 Q-22.0061 1559.88 -18.8464 1566.12 Q-15.6462 1572.32 -9.32678 1572.32 Q-2.96686 1572.32 0.192842 1566.12 Q3.39306 1559.88 3.39306 1547.44 Q3.39306 1534.97 0.192842 1528.77 Q-2.96686 1522.53 -9.32678 1522.53 M-9.32678 1516.05 Q0.840987 1516.05 6.18818 1524.11 Q11.5759 1532.13 11.5759 1547.44 Q11.5759 1562.72 6.18818 1570.78 Q0.840987 1578.8 -9.32678 1578.8 Q-19.4946 1578.8 -24.8823 1570.78 Q-30.2294 1562.72 -30.2294 1547.44 Q-30.2294 1532.13 -24.8823 1524.11 Q-19.4946 1516.05 -9.32678 1516.05 Z" fill="#000000" fill-rule="nonzero" fill-opacity="1"></path><path clip-path="url(#clip730)" d="M43.4565 1522.53 Q37.1371 1522.53 33.9369 1528.77 Q30.7772 1534.97 30.7772 1547.44 Q30.7772 1559.88 33.9369 1566.12 Q37.1371 1572.32 43.4565 1572.32 Q49.8164 1572.32 52.9761 1566.12 Q56.1763 1559.88 56.1763 1547.44 Q56.1763 1534.97 52.9761 1528.77 Q49.8164 1522.53 43.4565 1522.53 M43.4565 1516.05 Q53.6243 1516.05 58.9715 1524.11 Q64.3592 1532.13 64.3592 1547.44 Q64.3592 1562.72 58.9715 1570.78 Q53.6243 1578.8 43.4565 1578.8 Q33.2887 1578.8 27.901 1570.78 Q22.5538 1562.72 22.5538 1547.44 Q22.5538 1532.13 27.901 1524.11 Q33.2887 1516.05 43.4565 1516.05 Z" fill="#000000" fill-rule="nonzero" fill-opacity="1"></path><path clip-path="url(#clip730)" d="M96.2398 1522.53 Q89.9204 1522.53 86.7202 1528.77 Q83.5605 1534.97 83.5605 1547.44 Q83.5605 1559.88 86.7202 1566.12 Q89.9204 1572.32 96.2398 1572.32 Q102.6 1572.32 105.759 1566.12 Q108.96 1559.88 108.96 1547.44 Q108.96 1534.97 105.759 1528.77 Q102.6 1522.53 96.2398 1522.53 M96.2398 1516.05 Q106.408 1516.05 111.755 1524.11 Q117.142 1532.13 117.142 1547.44 Q117.142 1562.72 111.755 1570.78 Q106.408 1578.8 96.2398 1578.8 Q86.072 1578.8 80.6843 1570.78 Q75.3371 1562.72 75.3371 1547.44 Q75.3371 1532.13 80.6843 1524.11 Q86.072 1516.05 96.2398 1516.05 Z" fill="#000000" fill-rule="nonzero" fill-opacity="1"></path><path clip-path="url(#clip730)" d="M147.605 1551.62 L136.182 1588.56 L129.295 1588.56 L140.719 1551.62 L129.295 1514.67 L136.182 1514.67 L147.605 1551.62 Z" fill="#000000" fill-rule="nonzero" fill-opacity="1"></path><path clip-path="url(#clip730)" d="M241.958 1514.23 L241.958 1597.19 L235.072 1597.19 L235.072 1514.23 L241.958 1514.23 Z" fill="#000000" fill-rule="nonzero" fill-opacity="1"></path><path clip-path="url(#clip730)" d="M278.862 1522.53 Q272.543 1522.53 269.343 1528.77 Q266.183 1534.97 266.183 1547.44 Q266.183 1559.88 269.343 1566.12 Q272.543 1572.32 278.862 1572.32 Q285.222 1572.32 288.382 1566.12 Q291.582 1559.88 291.582 1547.44 Q291.582 1534.97 288.382 1528.77 Q285.222 1522.53 278.862 1522.53 M278.862 1516.05 Q289.03 1516.05 294.377 1524.11 Q299.765 1532.13 299.765 1547.44 Q299.765 1562.72 294.377 1570.78 Q289.03 1578.8 278.862 1578.8 Q268.694 1578.8 263.307 1570.78 Q257.96 1562.72 257.96 1547.44 Q257.96 1532.13 263.307 1524.11 Q268.694 1516.05 278.862 1516.05 Z" fill="#000000" fill-rule="nonzero" fill-opacity="1"></path><path clip-path="url(#clip730)" d="M331.645 1522.53 Q325.326 1522.53 322.126 1528.77 Q318.966 1534.97 318.966 1547.44 Q318.966 1559.88 322.126 1566.12 Q325.326 1572.32 331.645 1572.32 Q338.005 1572.32 341.165 1566.12 Q344.365 1559.88 344.365 1547.44 Q344.365 1534.97 341.165 1528.77 Q338.005 1522.53 331.645 1522.53 M331.645 1516.05 Q341.813 1516.05 347.16 1524.11 Q352.548 1532.13 352.548 1547.44 Q352.548 1562.72 347.16 1570.78 Q341.813 1578.8 331.645 1578.8 Q321.478 1578.8 316.09 1570.78 Q310.743 1562.72 310.743 1547.44 Q310.743 1532.13 316.09 1524.11 Q321.478 1516.05 331.645 1516.05 Z" fill="#000000" fill-rule="nonzero" fill-opacity="1"></path><path clip-path="url(#clip730)" d="M368.347 1570.74 L381.715 1570.74 L381.715 1524.6 L367.172 1527.51 L367.172 1520.06 L381.634 1517.14 L389.816 1517.14 L389.816 1570.74 L403.184 1570.74 L403.184 1577.62 L368.347 1577.62 L368.347 1570.74 Z" fill="#000000" fill-rule="nonzero" fill-opacity="1"></path><path clip-path="url(#clip730)" d="M435.794 1551.62 L424.371 1588.56 L417.484 1588.56 L428.908 1551.62 L417.484 1514.67 L424.371 1514.67 L435.794 1551.62 Z" fill="#000000" fill-rule="nonzero" fill-opacity="1"></path><path clip-path="url(#clip730)" d="M530.147 1514.23 L530.147 1597.19 L523.261 1597.19 L523.261 1514.23 L530.147 1514.23 Z" fill="#000000" fill-rule="nonzero" fill-opacity="1"></path><path clip-path="url(#clip730)" d="M567.051 1522.53 Q560.732 1522.53 557.532 1528.77 Q554.372 1534.97 554.372 1547.44 Q554.372 1559.88 557.532 1566.12 Q560.732 1572.32 567.051 1572.32 Q573.411 1572.32 576.571 1566.12 Q579.771 1559.88 579.771 1547.44 Q579.771 1534.97 576.571 1528.77 Q573.411 1522.53 567.051 1522.53 M567.051 1516.05 Q577.219 1516.05 582.566 1524.11 Q587.954 1532.13 587.954 1547.44 Q587.954 1562.72 582.566 1570.78 Q577.219 1578.8 567.051 1578.8 Q556.883 1578.8 551.496 1570.78 Q546.149 1562.72 546.149 1547.44 Q546.149 1532.13 551.496 1524.11 Q556.883 1516.05 567.051 1516.05 Z" fill="#000000" fill-rule="nonzero" fill-opacity="1"></path><path clip-path="url(#clip730)" d="M603.752 1570.74 L617.12 1570.74 L617.12 1524.6 L602.578 1527.51 L602.578 1520.06 L617.039 1517.14 L625.222 1517.14 L625.222 1570.74 L638.59 1570.74 L638.59 1577.62 L603.752 1577.62 L603.752 1570.74 Z" fill="#000000" fill-rule="nonzero" fill-opacity="1"></path><path clip-path="url(#clip730)" d="M672.618 1522.53 Q666.298 1522.53 663.098 1528.77 Q659.938 1534.97 659.938 1547.44 Q659.938 1559.88 663.098 1566.12 Q666.298 1572.32 672.618 1572.32 Q678.978 1572.32 682.137 1566.12 Q685.338 1559.88 685.338 1547.44 Q685.338 1534.97 682.137 1528.77 Q678.978 1522.53 672.618 1522.53 M672.618 1516.05 Q682.786 1516.05 688.133 1524.11 Q693.52 1532.13 693.52 1547.44 Q693.52 1562.72 688.133 1570.78 Q682.786 1578.8 672.618 1578.8 Q662.45 1578.8 657.062 1570.78 Q651.715 1562.72 651.715 1547.44 Q651.715 1532.13 657.062 1524.11 Q662.45 1516.05 672.618 1516.05 Z" fill="#000000" fill-rule="nonzero" fill-opacity="1"></path><path clip-path="url(#clip730)" d="M723.983 1551.62 L712.56 1588.56 L705.673 1588.56 L717.097 1551.62 L705.673 1514.67 L712.56 1514.67 L723.983 1551.62 Z" fill="#000000" fill-rule="nonzero" fill-opacity="1"></path><path clip-path="url(#clip730)" d="M818.336 1514.23 L818.336 1597.19 L811.45 1597.19 L811.45 1514.23 L818.336 1514.23 Z" fill="#000000" fill-rule="nonzero" fill-opacity="1"></path><path clip-path="url(#clip730)" d="M855.24 1522.53 Q848.921 1522.53 845.721 1528.77 Q842.561 1534.97 842.561 1547.44 Q842.561 1559.88 845.721 1566.12 Q848.921 1572.32 855.24 1572.32 Q861.6 1572.32 864.76 1566.12 Q867.96 1559.88 867.96 1547.44 Q867.96 1534.97 864.76 1528.77 Q861.6 1522.53 855.24 1522.53 M855.24 1516.05 Q865.408 1516.05 870.755 1524.11 Q876.143 1532.13 876.143 1547.44 Q876.143 1562.72 870.755 1570.78 Q865.408 1578.8 855.24 1578.8 Q845.072 1578.8 839.685 1570.78 Q834.337 1562.72 834.337 1547.44 Q834.337 1532.13 839.685 1524.11 Q845.072 1516.05 855.24 1516.05 Z" fill="#000000" fill-rule="nonzero" fill-opacity="1"></path><path clip-path="url(#clip730)" d="M891.941 1570.74 L905.309 1570.74 L905.309 1524.6 L890.767 1527.51 L890.767 1520.06 L905.228 1517.14 L913.411 1517.14 L913.411 1570.74 L926.779 1570.74 L926.779 1577.62 L891.941 1577.62 L891.941 1570.74 Z" fill="#000000" fill-rule="nonzero" fill-opacity="1"></path><path clip-path="url(#clip730)" d="M944.725 1570.74 L958.093 1570.74 L958.093 1524.6 L943.55 1527.51 L943.55 1520.06 L958.012 1517.14 L966.194 1517.14 L966.194 1570.74 L979.562 1570.74 L979.562 1577.62 L944.725 1577.62 L944.725 1570.74 Z" fill="#000000" fill-rule="nonzero" fill-opacity="1"></path><path clip-path="url(#clip730)" d="M1012.17 1551.62 L1000.75 1588.56 L993.862 1588.56 L1005.29 1551.62 L993.862 1514.67 L1000.75 1514.67 L1012.17 1551.62 Z" fill="#000000" fill-rule="nonzero" fill-opacity="1"></path><path clip-path="url(#clip730)" d="M1106.53 1514.23 L1106.53 1597.19 L1099.64 1597.19 L1099.64 1514.23 L1106.53 1514.23 Z" fill="#000000" fill-rule="nonzero" fill-opacity="1"></path><path clip-path="url(#clip730)" d="M1127.35 1570.74 L1140.72 1570.74 L1140.72 1524.6 L1126.17 1527.51 L1126.17 1520.06 L1140.63 1517.14 L1148.82 1517.14 L1148.82 1570.74 L1162.18 1570.74 L1162.18 1577.62 L1127.35 1577.62 L1127.35 1570.74 Z" fill="#000000" fill-rule="nonzero" fill-opacity="1"></path><path clip-path="url(#clip730)" d="M1196.21 1522.53 Q1189.89 1522.53 1186.69 1528.77 Q1183.53 1534.97 1183.53 1547.44 Q1183.53 1559.88 1186.69 1566.12 Q1189.89 1572.32 1196.21 1572.32 Q1202.57 1572.32 1205.73 1566.12 Q1208.93 1559.88 1208.93 1547.44 Q1208.93 1534.97 1205.73 1528.77 Q1202.57 1522.53 1196.21 1522.53 M1196.21 1516.05 Q1206.38 1516.05 1211.73 1524.11 Q1217.12 1532.13 1217.12 1547.44 Q1217.12 1562.72 1211.73 1570.78 Q1206.38 1578.8 1196.21 1578.8 Q1186.04 1578.8 1180.66 1570.78 Q1175.31 1562.72 1175.31 1547.44 Q1175.31 1532.13 1180.66 1524.11 Q1186.04 1516.05 1196.21 1516.05 Z" fill="#000000" fill-rule="nonzero" fill-opacity="1"></path><path clip-path="url(#clip730)" d="M1249 1522.53 Q1242.68 1522.53 1239.48 1528.77 Q1236.32 1534.97 1236.32 1547.44 Q1236.32 1559.88 1239.48 1566.12 Q1242.68 1572.32 1249 1572.32 Q1255.36 1572.32 1258.52 1566.12 Q1261.72 1559.88 1261.72 1547.44 Q1261.72 1534.97 1258.52 1528.77 Q1255.36 1522.53 1249 1522.53 M1249 1516.05 Q1259.16 1516.05 1264.51 1524.11 Q1269.9 1532.13 1269.9 1547.44 Q1269.9 1562.72 1264.51 1570.78 Q1259.16 1578.8 1249 1578.8 Q1238.83 1578.8 1233.44 1570.78 Q1228.09 1562.72 1228.09 1547.44 Q1228.09 1532.13 1233.44 1524.11 Q1238.83 1516.05 1249 1516.05 Z" fill="#000000" fill-rule="nonzero" fill-opacity="1"></path><path clip-path="url(#clip730)" d="M1300.36 1551.62 L1288.94 1588.56 L1282.05 1588.56 L1293.47 1551.62 L1282.05 1514.67 L1288.94 1514.67 L1300.36 1551.62 Z" fill="#000000" fill-rule="nonzero" fill-opacity="1"></path><path clip-path="url(#clip730)" d="M1394.71 1514.23 L1394.71 1597.19 L1387.83 1597.19 L1387.83 1514.23 L1394.71 1514.23 Z" fill="#000000" fill-rule="nonzero" fill-opacity="1"></path><path clip-path="url(#clip730)" d="M1415.54 1570.74 L1428.9 1570.74 L1428.9 1524.6 L1414.36 1527.51 L1414.36 1520.06 L1428.82 1517.14 L1437.01 1517.14 L1437.01 1570.74 L1450.37 1570.74 L1450.37 1577.62 L1415.54 1577.62 L1415.54 1570.74 Z" fill="#000000" fill-rule="nonzero" fill-opacity="1"></path><path clip-path="url(#clip730)" d="M1484.4 1522.53 Q1478.08 1522.53 1474.88 1528.77 Q1471.72 1534.97 1471.72 1547.44 Q1471.72 1559.88 1474.88 1566.12 Q1478.08 1572.32 1484.4 1572.32 Q1490.76 1572.32 1493.92 1566.12 Q1497.12 1559.88 1497.12 1547.44 Q1497.12 1534.97 1493.92 1528.77 Q1490.76 1522.53 1484.4 1522.53 M1484.4 1516.05 Q1494.57 1516.05 1499.92 1524.11 Q1505.3 1532.13 1505.3 1547.44 Q1505.3 1562.72 1499.92 1570.78 Q1494.57 1578.8 1484.4 1578.8 Q1474.23 1578.8 1468.85 1570.78 Q1463.5 1562.72 1463.5 1547.44 Q1463.5 1532.13 1468.85 1524.11 Q1474.23 1516.05 1484.4 1516.05 Z" fill="#000000" fill-rule="nonzero" fill-opacity="1"></path><path clip-path="url(#clip730)" d="M1521.1 1570.74 L1534.47 1570.74 L1534.47 1524.6 L1519.93 1527.51 L1519.93 1520.06 L1534.39 1517.14 L1542.57 1517.14 L1542.57 1570.74 L1555.94 1570.74 L1555.94 1577.62 L1521.1 1577.62 L1521.1 1570.74 Z" fill="#000000" fill-rule="nonzero" fill-opacity="1"></path><path clip-path="url(#clip730)" d="M1588.55 1551.62 L1577.13 1588.56 L1570.24 1588.56 L1581.66 1551.62 L1570.24 1514.67 L1577.13 1514.67 L1588.55 1551.62 Z" fill="#000000" fill-rule="nonzero" fill-opacity="1"></path><path clip-path="url(#clip730)" d="M1682.9 1514.23 L1682.9 1597.19 L1676.02 1597.19 L1676.02 1514.23 L1682.9 1514.23 Z" fill="#000000" fill-rule="nonzero" fill-opacity="1"></path><path clip-path="url(#clip730)" d="M1703.72 1570.74 L1717.09 1570.74 L1717.09 1524.6 L1702.55 1527.51 L1702.55 1520.06 L1717.01 1517.14 L1725.19 1517.14 L1725.19 1570.74 L1738.56 1570.74 L1738.56 1577.62 L1703.72 1577.62 L1703.72 1570.74 Z" fill="#000000" fill-rule="nonzero" fill-opacity="1"></path><path clip-path="url(#clip730)" d="M1756.51 1570.74 L1769.88 1570.74 L1769.88 1524.6 L1755.33 1527.51 L1755.33 1520.06 L1769.8 1517.14 L1777.98 1517.14 L1777.98 1570.74 L1791.35 1570.74 L1791.35 1577.62 L1756.51 1577.62 L1756.51 1570.74 Z" fill="#000000" fill-rule="nonzero" fill-opacity="1"></path><path clip-path="url(#clip730)" d="M1825.37 1522.53 Q1819.05 1522.53 1815.85 1528.77 Q1812.69 1534.97 1812.69 1547.44 Q1812.69 1559.88 1815.85 1566.12 Q1819.05 1572.32 1825.37 1572.32 Q1831.73 1572.32 1834.89 1566.12 Q1838.09 1559.88 1838.09 1547.44 Q1838.09 1534.97 1834.89 1528.77 Q1831.73 1522.53 1825.37 1522.53 M1825.37 1516.05 Q1835.54 1516.05 1840.89 1524.11 Q1846.28 1532.13 1846.28 1547.44 Q1846.28 1562.72 1840.89 1570.78 Q1835.54 1578.8 1825.37 1578.8 Q1815.21 1578.8 1809.82 1570.78 Q1804.47 1562.72 1804.47 1547.44 Q1804.47 1532.13 1809.82 1524.11 Q1815.21 1516.05 1825.37 1516.05 Z" fill="#000000" fill-rule="nonzero" fill-opacity="1"></path><path clip-path="url(#clip730)" d="M1876.74 1551.62 L1865.32 1588.56 L1858.43 1588.56 L1869.85 1551.62 L1858.43 1514.67 L1865.32 1514.67 L1876.74 1551.62 Z" fill="#000000" fill-rule="nonzero" fill-opacity="1"></path><path clip-path="url(#clip730)" d="M1971.09 1514.23 L1971.09 1597.19 L1964.21 1597.19 L1964.21 1514.23 L1971.09 1514.23 Z" fill="#000000" fill-rule="nonzero" fill-opacity="1"></path><path clip-path="url(#clip730)" d="M1991.91 1570.74 L2005.28 1570.74 L2005.28 1524.6 L1990.74 1527.51 L1990.74 1520.06 L2005.2 1517.14 L2013.38 1517.14 L2013.38 1570.74 L2026.75 1570.74 L2026.75 1577.62 L1991.91 1577.62 L1991.91 1570.74 Z" fill="#000000" fill-rule="nonzero" fill-opacity="1"></path><path clip-path="url(#clip730)" d="M2044.7 1570.74 L2058.07 1570.74 L2058.07 1524.6 L2043.52 1527.51 L2043.52 1520.06 L2057.98 1517.14 L2066.17 1517.14 L2066.17 1570.74 L2079.54 1570.74 L2079.54 1577.62 L2044.7 1577.62 L2044.7 1570.74 Z" fill="#000000" fill-rule="nonzero" fill-opacity="1"></path><path clip-path="url(#clip730)" d="M2097.48 1570.74 L2110.85 1570.74 L2110.85 1524.6 L2096.31 1527.51 L2096.31 1520.06 L2110.77 1517.14 L2118.95 1517.14 L2118.95 1570.74 L2132.32 1570.74 L2132.32 1577.62 L2097.48 1577.62 L2097.48 1570.74 Z" fill="#000000" fill-rule="nonzero" fill-opacity="1"></path><path clip-path="url(#clip730)" d="M2164.93 1551.62 L2153.5 1588.56 L2146.62 1588.56 L2158.04 1551.62 L2146.62 1514.67 L2153.5 1514.67 L2164.93 1551.62 Z" fill="#000000" fill-rule="nonzero" fill-opacity="1"></path><circle clip-path="url(#clip732)" style="fill:#3da44d; stroke:none; fill-opacity:1" cx="47.2441" cy="123.472" r="2"></circle>
<circle clip-path="url(#clip732)" style="fill:#3da44d; stroke:none; fill-opacity:1" cx="335.433" cy="123.472" r="2"></circle>
<circle clip-path="url(#clip732)" style="fill:#3da44d; stroke:none; fill-opacity:1" cx="623.622" cy="123.472" r="2"></circle>
<circle clip-path="url(#clip732)" style="fill:#3da44d; stroke:none; fill-opacity:1" cx="911.811" cy="123.472" r="2"></circle>
<circle clip-path="url(#clip732)" style="fill:#3da44d; stroke:none; fill-opacity:1" cx="1200" cy="123.472" r="2"></circle>
<circle clip-path="url(#clip732)" style="fill:#3da44d; stroke:none; fill-opacity:1" cx="1488.19" cy="123.472" r="2"></circle>
<circle clip-path="url(#clip732)" style="fill:#3da44d; stroke:none; fill-opacity:1" cx="1776.38" cy="123.472" r="2"></circle>
<circle clip-path="url(#clip732)" style="fill:#3da44d; stroke:none; fill-opacity:1" cx="2064.57" cy="123.472" r="2"></circle>
<path clip-path="url(#clip730)" d="M-16.4361 146.826 L12.1228 146.826 L12.1228 153.712 L-26.2798 153.712 L-26.2798 146.826 Q-21.6213 142.005 -13.6005 133.903 Q-5.53919 125.761 -3.47323 123.411 Q0.456151 118.996 1.99549 115.958 Q3.57535 112.879 3.57535 109.922 Q3.57535 105.101 0.172587 102.063 Q-3.18966 99.0249 -8.61787 99.0249 Q-12.4662 99.0249 -16.7602 100.362 Q-21.0136 101.699 -25.8747 104.413 L-25.8747 96.1488 Q-20.9326 94.1638 -16.6387 93.1511 Q-12.3447 92.1384 -8.77991 92.1384 Q0.618187 92.1384 6.20843 96.8374 Q11.7987 101.536 11.7987 109.395 Q11.7987 113.122 10.3809 116.484 Q9.00356 119.806 5.31724 124.343 Q4.30451 125.518 -1.1237 131.149 Q-6.55191 136.739 -16.4361 146.826 Z" fill="#000000" fill-rule="nonzero" fill-opacity="1"></path><path clip-path="url(#clip730)" d="M47.8112 120.211 Q42.302 120.211 39.0613 123.978 Q35.8611 127.746 35.8611 134.308 Q35.8611 140.83 39.0613 144.638 Q42.302 148.405 47.8112 148.405 Q53.3205 148.405 56.5207 144.638 Q59.7614 140.83 59.7614 134.308 Q59.7614 127.746 56.5207 123.978 Q53.3205 120.211 47.8112 120.211 M64.0553 94.5689 L64.0553 102.023 Q60.9767 100.564 57.817 99.7946 Q54.6978 99.0249 51.6191 99.0249 Q43.5173 99.0249 39.2233 104.494 Q34.9699 109.962 34.3622 121.021 Q36.7523 117.497 40.3576 115.634 Q43.9629 113.73 48.2973 113.73 Q57.4119 113.73 62.678 119.279 Q67.9847 124.789 67.9847 134.308 Q67.9847 143.625 62.4755 149.256 Q56.9663 154.887 47.8112 154.887 Q37.3194 154.887 31.7696 146.866 Q26.2199 138.805 26.2199 123.533 Q26.2199 109.193 33.0254 100.686 Q39.8309 92.1384 51.295 92.1384 Q54.3737 92.1384 57.4929 92.746 Q60.6526 93.3537 64.0553 94.5689 Z" fill="#000000" fill-rule="nonzero" fill-opacity="1"></path><path clip-path="url(#clip730)" d="M100.595 120.211 Q95.0853 120.211 91.8445 123.978 Q88.6443 127.746 88.6443 134.308 Q88.6443 140.83 91.8445 144.638 Q95.0853 148.405 100.595 148.405 Q106.104 148.405 109.304 144.638 Q112.545 140.83 112.545 134.308 Q112.545 127.746 109.304 123.978 Q106.104 120.211 100.595 120.211 M116.839 94.5689 L116.839 102.023 Q113.76 100.564 110.6 99.7946 Q107.481 99.0249 104.402 99.0249 Q96.3005 99.0249 92.0066 104.494 Q87.7531 109.962 87.1455 121.021 Q89.5355 117.497 93.1408 115.634 Q96.7461 113.73 101.081 113.73 Q110.195 113.73 115.461 119.279 Q120.768 124.789 120.768 134.308 Q120.768 143.625 115.259 149.256 Q109.75 154.887 100.595 154.887 Q90.1027 154.887 84.5529 146.866 Q79.0032 138.805 79.0032 123.533 Q79.0032 109.193 85.8087 100.686 Q92.6142 92.1384 104.078 92.1384 Q107.157 92.1384 110.276 92.746 Q113.436 93.3537 116.839 94.5689 Z" fill="#000000" fill-rule="nonzero" fill-opacity="1"></path><path clip-path="url(#clip730)" d="M335.433 98.6198 Q329.114 98.6198 325.913 104.858 Q322.754 111.056 322.754 123.533 Q322.754 135.969 325.913 142.208 Q329.114 148.405 335.433 148.405 Q341.793 148.405 344.953 142.208 Q348.153 135.969 348.153 123.533 Q348.153 111.056 344.953 104.858 Q341.793 98.6198 335.433 98.6198 M335.433 92.1384 Q345.601 92.1384 350.948 100.2 Q356.336 108.22 356.336 123.533 Q356.336 138.805 350.948 146.866 Q345.601 154.887 335.433 154.887 Q325.265 154.887 319.878 146.866 Q314.53 138.805 314.53 123.533 Q314.53 108.22 319.878 100.2 Q325.265 92.1384 335.433 92.1384 Z" fill="#000000" fill-rule="nonzero" fill-opacity="1"></path><path clip-path="url(#clip730)" d="M623.622 98.6198 Q617.303 98.6198 614.102 104.858 Q610.943 111.056 610.943 123.533 Q610.943 135.969 614.102 142.208 Q617.303 148.405 623.622 148.405 Q629.982 148.405 633.142 142.208 Q636.342 135.969 636.342 123.533 Q636.342 111.056 633.142 104.858 Q629.982 98.6198 623.622 98.6198 M623.622 92.1384 Q633.79 92.1384 639.137 100.2 Q644.525 108.22 644.525 123.533 Q644.525 138.805 639.137 146.866 Q633.79 154.887 623.622 154.887 Q613.454 154.887 608.067 146.866 Q602.719 138.805 602.719 123.533 Q602.719 108.22 608.067 100.2 Q613.454 92.1384 623.622 92.1384 Z" fill="#000000" fill-rule="nonzero" fill-opacity="1"></path><path clip-path="url(#clip730)" d="M848.131 146.826 L876.69 146.826 L876.69 153.712 L838.287 153.712 L838.287 146.826 Q842.946 142.005 850.966 133.903 Q859.028 125.761 861.094 123.411 Q865.023 118.996 866.562 115.958 Q868.142 112.879 868.142 109.922 Q868.142 105.101 864.74 102.063 Q861.377 99.0249 855.949 99.0249 Q852.101 99.0249 847.807 100.362 Q843.553 101.699 838.692 104.413 L838.692 96.1488 Q843.634 94.1638 847.928 93.1511 Q852.222 92.1384 855.787 92.1384 Q865.185 92.1384 870.775 96.8374 Q876.366 101.536 876.366 109.395 Q876.366 113.122 874.948 116.484 Q873.57 119.806 869.884 124.343 Q868.871 125.518 863.443 131.149 Q858.015 136.739 848.131 146.826 Z" fill="#000000" fill-rule="nonzero" fill-opacity="1"></path><path clip-path="url(#clip730)" d="M918.657 121.102 Q924.531 122.358 927.812 126.328 Q931.134 130.298 931.134 136.131 Q931.134 145.084 924.976 149.985 Q918.819 154.887 907.477 154.887 Q903.669 154.887 899.618 154.117 Q895.607 153.388 891.313 151.889 L891.313 143.99 Q894.716 145.975 898.767 146.988 Q902.818 148 907.234 148 Q914.93 148 918.941 144.962 Q922.992 141.924 922.992 136.131 Q922.992 130.784 919.224 127.786 Q915.497 124.748 908.813 124.748 L901.765 124.748 L901.765 118.024 L909.137 118.024 Q915.173 118.024 918.373 115.634 Q921.574 113.203 921.574 108.666 Q921.574 104.008 918.252 101.536 Q914.971 99.0249 908.813 99.0249 Q905.451 99.0249 901.603 99.7541 Q897.754 100.483 893.136 102.023 L893.136 94.731 Q897.795 93.4347 901.846 92.7865 Q905.937 92.1384 909.543 92.1384 Q918.86 92.1384 924.288 96.3918 Q929.716 100.605 929.716 107.815 Q929.716 112.839 926.84 116.322 Q923.964 119.766 918.657 121.102 Z" fill="#000000" fill-rule="nonzero" fill-opacity="1"></path><path clip-path="url(#clip730)" d="M965.161 120.211 Q959.652 120.211 956.411 123.978 Q953.211 127.746 953.211 134.308 Q953.211 140.83 956.411 144.638 Q959.652 148.405 965.161 148.405 Q970.671 148.405 973.871 144.638 Q977.112 140.83 977.112 134.308 Q977.112 127.746 973.871 123.978 Q970.671 120.211 965.161 120.211 M981.406 94.5689 L981.406 102.023 Q978.327 100.564 975.167 99.7946 Q972.048 99.0249 968.969 99.0249 Q960.867 99.0249 956.574 104.494 Q952.32 109.962 951.712 121.021 Q954.102 117.497 957.708 115.634 Q961.313 113.73 965.648 113.73 Q974.762 113.73 980.028 119.279 Q985.335 124.789 985.335 134.308 Q985.335 143.625 979.826 149.256 Q974.316 154.887 965.161 154.887 Q954.67 154.887 949.12 146.866 Q943.57 138.805 943.57 123.533 Q943.57 109.193 950.376 100.686 Q957.181 92.1384 968.645 92.1384 Q971.724 92.1384 974.843 92.746 Q978.003 93.3537 981.406 94.5689 Z" fill="#000000" fill-rule="nonzero" fill-opacity="1"></path><path clip-path="url(#clip730)" d="M1128.89 146.826 L1142.25 146.826 L1142.25 100.686 L1127.71 103.602 L1127.71 96.1488 L1142.17 93.2321 L1150.36 93.2321 L1150.36 146.826 L1163.72 146.826 L1163.72 153.712 L1128.89 153.712 L1128.89 146.826 Z" fill="#000000" fill-rule="nonzero" fill-opacity="1"></path><path clip-path="url(#clip730)" d="M1181.67 146.826 L1195.04 146.826 L1195.04 100.686 L1180.49 103.602 L1180.49 96.1488 L1194.96 93.2321 L1203.14 93.2321 L1203.14 146.826 L1216.51 146.826 L1216.51 153.712 L1181.67 153.712 L1181.67 146.826 Z" fill="#000000" fill-rule="nonzero" fill-opacity="1"></path><path clip-path="url(#clip730)" d="M1255.52 100.362 L1234.86 132.647 L1255.52 132.647 L1255.52 100.362 M1253.37 93.2321 L1263.66 93.2321 L1263.66 132.647 L1272.29 132.647 L1272.29 139.453 L1263.66 139.453 L1263.66 153.712 L1255.52 153.712 L1255.52 139.453 L1228.21 139.453 L1228.21 131.554 L1253.37 93.2321 Z" fill="#000000" fill-rule="nonzero" fill-opacity="1"></path><path clip-path="url(#clip730)" d="M1417.58 146.826 L1430.95 146.826 L1430.95 100.686 L1416.41 103.602 L1416.41 96.1488 L1430.87 93.2321 L1439.05 93.2321 L1439.05 146.826 L1452.42 146.826 L1452.42 153.712 L1417.58 153.712 L1417.58 146.826 Z" fill="#000000" fill-rule="nonzero" fill-opacity="1"></path><path clip-path="url(#clip730)" d="M1470.36 146.826 L1483.73 146.826 L1483.73 100.686 L1469.19 103.602 L1469.19 96.1488 L1483.65 93.2321 L1491.83 93.2321 L1491.83 146.826 L1505.2 146.826 L1505.2 153.712 L1470.36 153.712 L1470.36 146.826 Z" fill="#000000" fill-rule="nonzero" fill-opacity="1"></path><path clip-path="url(#clip730)" d="M1539.23 124.991 Q1533.4 124.991 1530.03 128.11 Q1526.71 131.23 1526.71 136.698 Q1526.71 142.167 1530.03 145.286 Q1533.4 148.405 1539.23 148.405 Q1545.06 148.405 1548.43 145.286 Q1551.79 142.127 1551.79 136.698 Q1551.79 131.23 1548.43 128.11 Q1545.1 124.991 1539.23 124.991 M1531.05 121.507 Q1525.78 120.211 1522.82 116.606 Q1519.91 113.001 1519.91 107.815 Q1519.91 100.564 1525.05 96.3513 Q1530.24 92.1384 1539.23 92.1384 Q1548.26 92.1384 1553.41 96.3513 Q1558.55 100.564 1558.55 107.815 Q1558.55 113.001 1555.6 116.606 Q1552.68 120.211 1547.45 121.507 Q1553.37 122.885 1556.65 126.895 Q1559.97 130.906 1559.97 136.698 Q1559.97 145.489 1554.58 150.188 Q1549.24 154.887 1539.23 154.887 Q1529.22 154.887 1523.84 150.188 Q1518.49 145.489 1518.49 136.698 Q1518.49 130.906 1521.81 126.895 Q1525.13 122.885 1531.05 121.507 M1528.05 108.585 Q1528.05 113.284 1530.97 115.917 Q1533.92 118.55 1539.23 118.55 Q1544.5 118.55 1547.45 115.917 Q1550.45 113.284 1550.45 108.585 Q1550.45 103.886 1547.45 101.253 Q1544.5 98.6198 1539.23 98.6198 Q1533.92 98.6198 1530.97 101.253 Q1528.05 103.886 1528.05 108.585 Z" fill="#000000" fill-rule="nonzero" fill-opacity="1"></path><path clip-path="url(#clip730)" d="M1705.85 146.826 L1719.22 146.826 L1719.22 100.686 L1704.68 103.602 L1704.68 96.1488 L1719.14 93.2321 L1727.32 93.2321 L1727.32 146.826 L1740.69 146.826 L1740.69 153.712 L1705.85 153.712 L1705.85 146.826 Z" fill="#000000" fill-rule="nonzero" fill-opacity="1"></path><path clip-path="url(#clip730)" d="M1764.27 146.826 L1792.82 146.826 L1792.82 153.712 L1754.42 153.712 L1754.42 146.826 Q1759.08 142.005 1767.1 133.903 Q1775.16 125.761 1777.23 123.411 Q1781.16 118.996 1782.7 115.958 Q1784.28 112.879 1784.28 109.922 Q1784.28 105.101 1780.87 102.063 Q1777.51 99.0249 1772.08 99.0249 Q1768.24 99.0249 1763.94 100.362 Q1759.69 101.699 1754.83 104.413 L1754.83 96.1488 Q1759.77 94.1638 1764.06 93.1511 Q1768.36 92.1384 1771.92 92.1384 Q1781.32 92.1384 1786.91 96.8374 Q1792.5 101.536 1792.5 109.395 Q1792.5 113.122 1791.08 116.484 Q1789.71 119.806 1786.02 124.343 Q1785.01 125.518 1779.58 131.149 Q1774.15 136.739 1764.27 146.826 Z" fill="#000000" fill-rule="nonzero" fill-opacity="1"></path><path clip-path="url(#clip730)" d="M1810.24 152.456 L1810.24 145.003 Q1813.32 146.461 1816.48 147.231 Q1819.64 148 1822.68 148 Q1830.78 148 1835.04 142.572 Q1839.33 137.103 1839.94 126.004 Q1837.59 129.488 1833.98 131.351 Q1830.38 133.215 1826 133.215 Q1816.93 133.215 1811.62 127.746 Q1806.35 122.237 1806.35 112.717 Q1806.35 103.4 1811.86 97.7691 Q1817.37 92.1384 1826.53 92.1384 Q1837.02 92.1384 1842.53 100.2 Q1848.08 108.22 1848.08 123.533 Q1848.08 137.833 1841.27 146.38 Q1834.51 154.887 1823.04 154.887 Q1819.97 154.887 1816.81 154.279 Q1813.65 153.672 1810.24 152.456 M1826.53 126.814 Q1832.04 126.814 1835.24 123.047 Q1838.48 119.279 1838.48 112.717 Q1838.48 106.195 1835.24 102.428 Q1832.04 98.6198 1826.53 98.6198 Q1821.02 98.6198 1817.78 102.428 Q1814.58 106.195 1814.58 112.717 Q1814.58 119.279 1817.78 123.047 Q1821.02 126.814 1826.53 126.814 Z" fill="#000000" fill-rule="nonzero" fill-opacity="1"></path><path clip-path="url(#clip730)" d="M1994.67 146.826 L2008.04 146.826 L2008.04 100.686 L1993.49 103.602 L1993.49 96.1488 L2007.96 93.2321 L2016.14 93.2321 L2016.14 146.826 L2029.51 146.826 L2029.51 153.712 L1994.67 153.712 L1994.67 146.826 Z" fill="#000000" fill-rule="nonzero" fill-opacity="1"></path><path clip-path="url(#clip730)" d="M2070.83 121.102 Q2076.7 122.358 2079.98 126.328 Q2083.3 130.298 2083.3 136.131 Q2083.3 145.084 2077.14 149.985 Q2070.99 154.887 2059.65 154.887 Q2055.84 154.887 2051.79 154.117 Q2047.78 153.388 2043.48 151.889 L2043.48 143.99 Q2046.88 145.975 2050.94 146.988 Q2054.99 148 2059.4 148 Q2067.1 148 2071.11 144.962 Q2075.16 141.924 2075.16 136.131 Q2075.16 130.784 2071.39 127.786 Q2067.67 124.748 2060.98 124.748 L2053.93 124.748 L2053.93 118.024 L2061.31 118.024 Q2067.34 118.024 2070.54 115.634 Q2073.74 113.203 2073.74 108.666 Q2073.74 104.008 2070.42 101.536 Q2067.14 99.0249 2060.98 99.0249 Q2057.62 99.0249 2053.77 99.7541 Q2049.92 100.483 2045.3 102.023 L2045.3 94.731 Q2049.96 93.4347 2054.01 92.7865 Q2058.11 92.1384 2061.71 92.1384 Q2071.03 92.1384 2076.46 96.3918 Q2081.88 100.605 2081.88 107.815 Q2081.88 112.839 2079.01 116.322 Q2076.13 119.766 2070.83 121.102 Z" fill="#000000" fill-rule="nonzero" fill-opacity="1"></path><path clip-path="url(#clip730)" d="M2096.75 93.2321 L2135.64 93.2321 L2135.64 96.7159 L2113.68 153.712 L2105.14 153.712 L2125.8 100.119 L2096.75 100.119 L2096.75 93.2321 Z" fill="#000000" fill-rule="nonzero" fill-opacity="1"></path><path clip-path="url(#clip730)" d="M1674.29 274.795 L2275.91 274.795 L2275.91 171.115 L1674.29 171.115  Z" fill="#000000" fill-rule="evenodd" fill-opacity="0"></path>
<polyline clip-path="url(#clip730)" style="stroke:#000000; stroke-linecap:round; stroke-linejoin:round; stroke-width:4; stroke-opacity:0; fill:none" points="1674.29,274.795 2275.91,274.795 2275.91,171.115 1674.29,171.115 1674.29,274.795 "></polyline>
<path clip-path="url(#clip730)" d="M1699.91 243.691 L1853.61 243.691 L1853.61 202.219 L1699.91 202.219 L1699.91 243.691  Z" fill="#add8e6" fill-rule="evenodd" fill-opacity="1"></path>
<polyline clip-path="url(#clip730)" style="stroke:#add8e6; stroke-linecap:round; stroke-linejoin:round; stroke-width:4; stroke-opacity:1; fill:none" points="1699.91,243.691 1853.61,243.691 1853.61,202.219 1699.91,202.219 1699.91,243.691 "></polyline>
<path clip-path="url(#clip730)" d="M1879.23 205.675 L1899.09 205.675 L1899.09 209.61 L1883.9 209.61 L1883.9 219.795 L1897.61 219.795 L1897.61 223.73 L1883.9 223.73 L1883.9 240.235 L1879.23 240.235 L1879.23 205.675 Z" fill="#000000" fill-rule="nonzero" fill-opacity="1"></path><path clip-path="url(#clip730)" d="M1914.67 217.295 Q1911.24 217.295 1909.25 219.98 Q1907.26 222.642 1907.26 227.295 Q1907.26 231.948 1909.23 234.633 Q1911.22 237.295 1914.67 237.295 Q1918.07 237.295 1920.06 234.61 Q1922.05 231.925 1922.05 227.295 Q1922.05 222.689 1920.06 220.004 Q1918.07 217.295 1914.67 217.295 M1914.67 213.684 Q1920.22 213.684 1923.39 217.295 Q1926.56 220.906 1926.56 227.295 Q1926.56 233.661 1923.39 237.295 Q1920.22 240.906 1914.67 240.906 Q1909.09 240.906 1905.92 237.295 Q1902.77 233.661 1902.77 227.295 Q1902.77 220.906 1905.92 217.295 Q1909.09 213.684 1914.67 213.684 Z" fill="#000000" fill-rule="nonzero" fill-opacity="1"></path><path clip-path="url(#clip730)" d="M1933.18 230.003 L1933.18 214.309 L1937.44 214.309 L1937.44 229.841 Q1937.44 233.522 1938.88 235.374 Q1940.31 237.203 1943.18 237.203 Q1946.63 237.203 1948.62 235.003 Q1950.64 232.804 1950.64 229.008 L1950.64 214.309 L1954.9 214.309 L1954.9 240.235 L1950.64 240.235 L1950.64 236.253 Q1949.09 238.615 1947.03 239.772 Q1944.99 240.906 1942.28 240.906 Q1937.81 240.906 1935.5 238.128 Q1933.18 235.351 1933.18 230.003 M1943.9 213.684 L1943.9 213.684 Z" fill="#000000" fill-rule="nonzero" fill-opacity="1"></path><path clip-path="url(#clip730)" d="M1985.22 224.587 L1985.22 240.235 L1980.96 240.235 L1980.96 224.726 Q1980.96 221.045 1979.53 219.217 Q1978.09 217.388 1975.22 217.388 Q1971.77 217.388 1969.78 219.587 Q1967.79 221.786 1967.79 225.582 L1967.79 240.235 L1963.51 240.235 L1963.51 214.309 L1967.79 214.309 L1967.79 218.337 Q1969.32 215.999 1971.38 214.842 Q1973.46 213.684 1976.17 213.684 Q1980.64 213.684 1982.93 216.462 Q1985.22 219.217 1985.22 224.587 Z" fill="#000000" fill-rule="nonzero" fill-opacity="1"></path><path clip-path="url(#clip730)" d="M2010.78 218.244 L2010.78 204.217 L2015.04 204.217 L2015.04 240.235 L2010.78 240.235 L2010.78 236.346 Q2009.43 238.661 2007.37 239.795 Q2005.34 240.906 2002.47 240.906 Q1997.77 240.906 1994.8 237.156 Q1991.86 233.406 1991.86 227.295 Q1991.86 221.184 1994.8 217.434 Q1997.77 213.684 2002.47 213.684 Q2005.34 213.684 2007.37 214.818 Q2009.43 215.929 2010.78 218.244 M1996.26 227.295 Q1996.26 231.994 1998.18 234.679 Q2000.13 237.341 2003.51 237.341 Q2006.89 237.341 2008.83 234.679 Q2010.78 231.994 2010.78 227.295 Q2010.78 222.596 2008.83 219.934 Q2006.89 217.249 2003.51 217.249 Q2000.13 217.249 1998.18 219.934 Q1996.26 222.596 1996.26 227.295 Z" fill="#000000" fill-rule="nonzero" fill-opacity="1"></path><path clip-path="url(#clip730)" d="M2038.88 214.309 L2043.14 214.309 L2043.14 240.235 L2038.88 240.235 L2038.88 214.309 M2038.88 204.217 L2043.14 204.217 L2043.14 209.61 L2038.88 209.61 L2038.88 204.217 Z" fill="#000000" fill-rule="nonzero" fill-opacity="1"></path><path clip-path="url(#clip730)" d="M2073.6 224.587 L2073.6 240.235 L2069.34 240.235 L2069.34 224.726 Q2069.34 221.045 2067.91 219.217 Q2066.47 217.388 2063.6 217.388 Q2060.15 217.388 2058.16 219.587 Q2056.17 221.786 2056.17 225.582 L2056.17 240.235 L2051.89 240.235 L2051.89 214.309 L2056.17 214.309 L2056.17 218.337 Q2057.7 215.999 2059.76 214.842 Q2061.84 213.684 2064.55 213.684 Q2069.02 213.684 2071.31 216.462 Q2073.6 219.217 2073.6 224.587 Z" fill="#000000" fill-rule="nonzero" fill-opacity="1"></path><path clip-path="url(#clip730)" d="M2116.93 219.379 L2110.2 219.379 L2108.25 227.11 L2115.03 227.11 L2116.93 219.379 M2113.46 206.207 L2111.05 215.814 L2117.81 215.814 L2120.24 206.207 L2123.95 206.207 L2121.56 215.814 L2128.78 215.814 L2128.78 219.379 L2120.66 219.379 L2118.76 227.11 L2126.12 227.11 L2126.12 230.652 L2117.86 230.652 L2115.45 240.235 L2111.75 240.235 L2114.13 230.652 L2107.35 230.652 L2104.97 240.235 L2101.24 240.235 L2103.65 230.652 L2096.35 230.652 L2096.35 227.11 L2104.5 227.11 L2106.45 219.379 L2098.99 219.379 L2098.99 215.814 L2107.35 215.814 L2109.71 206.207 L2113.46 206.207 Z" fill="#000000" fill-rule="nonzero" fill-opacity="1"></path><path clip-path="url(#clip730)" d="M2156.17 206.948 L2156.17 214.309 L2164.94 214.309 L2164.94 217.619 L2156.17 217.619 L2156.17 231.693 Q2156.17 234.865 2157.03 235.767 Q2157.9 236.67 2160.57 236.67 L2164.94 236.67 L2164.94 240.235 L2160.57 240.235 Q2155.64 240.235 2153.76 238.406 Q2151.89 236.554 2151.89 231.693 L2151.89 217.619 L2148.76 217.619 L2148.76 214.309 L2151.89 214.309 L2151.89 206.948 L2156.17 206.948 Z" fill="#000000" fill-rule="nonzero" fill-opacity="1"></path><path clip-path="url(#clip730)" d="M2185.57 218.291 Q2184.85 217.874 2183.99 217.689 Q2183.16 217.48 2182.14 217.48 Q2178.53 217.48 2176.59 219.842 Q2174.66 222.179 2174.66 226.578 L2174.66 240.235 L2170.38 240.235 L2170.38 214.309 L2174.66 214.309 L2174.66 218.337 Q2176.01 215.976 2178.16 214.842 Q2180.31 213.684 2183.39 213.684 Q2183.83 213.684 2184.36 213.754 Q2184.9 213.8 2185.54 213.916 L2185.57 218.291 Z" fill="#000000" fill-rule="nonzero" fill-opacity="1"></path><path clip-path="url(#clip730)" d="M2190.03 214.309 L2194.29 214.309 L2194.29 240.235 L2190.03 240.235 L2190.03 214.309 M2190.03 204.217 L2194.29 204.217 L2194.29 209.61 L2190.03 209.61 L2190.03 204.217 Z" fill="#000000" fill-rule="nonzero" fill-opacity="1"></path><path clip-path="url(#clip730)" d="M2225.38 226.207 L2225.38 228.291 L2205.8 228.291 Q2206.08 232.689 2208.44 235.003 Q2210.82 237.295 2215.06 237.295 Q2217.51 237.295 2219.8 236.693 Q2222.12 236.091 2224.39 234.888 L2224.39 238.915 Q2222.09 239.888 2219.69 240.397 Q2217.28 240.906 2214.8 240.906 Q2208.6 240.906 2204.96 237.295 Q2201.35 233.684 2201.35 227.527 Q2201.35 221.161 2204.78 217.434 Q2208.23 213.684 2214.06 213.684 Q2219.29 213.684 2222.33 217.064 Q2225.38 220.42 2225.38 226.207 M2221.12 224.957 Q2221.08 221.462 2219.15 219.379 Q2217.26 217.295 2214.11 217.295 Q2210.54 217.295 2208.39 219.309 Q2206.26 221.323 2205.94 224.98 L2221.12 224.957 Z" fill="#000000" fill-rule="nonzero" fill-opacity="1"></path><path clip-path="url(#clip730)" d="M2248.9 215.073 L2248.9 219.101 Q2247.09 218.175 2245.15 217.712 Q2243.21 217.249 2241.12 217.249 Q2237.95 217.249 2236.35 218.221 Q2234.78 219.193 2234.78 221.138 Q2234.78 222.619 2235.91 223.476 Q2237.05 224.309 2240.47 225.073 L2241.93 225.397 Q2246.47 226.369 2248.37 228.152 Q2250.29 229.911 2250.29 233.082 Q2250.29 236.693 2247.42 238.8 Q2244.57 240.906 2239.57 240.906 Q2237.49 240.906 2235.22 240.49 Q2232.97 240.096 2230.47 239.286 L2230.47 234.888 Q2232.84 236.115 2235.13 236.74 Q2237.42 237.341 2239.66 237.341 Q2242.67 237.341 2244.29 236.323 Q2245.91 235.281 2245.91 233.406 Q2245.91 231.67 2244.73 230.744 Q2243.58 229.818 2239.62 228.962 L2238.14 228.615 Q2234.18 227.781 2232.42 226.068 Q2230.66 224.332 2230.66 221.323 Q2230.66 217.666 2233.25 215.675 Q2235.84 213.684 2240.61 213.684 Q2242.97 213.684 2245.06 214.031 Q2247.14 214.379 2248.9 215.073 Z" fill="#000000" fill-rule="nonzero" fill-opacity="1"></path></svg>